<svg width="32" height="33" viewBox="0 0 32 33" fill="none" xmlns="http://www.w3.org/2000/svg">
<g clip-path="url(#clip0_6529_2702)">
<rect x="9.10742" y="7.2832" width="13.7852" height="22.9219" rx="2" stroke="black" stroke-width="2"/>
<rect x="13.5" y="2.33398" width="5" height="2.16" rx="1" fill="black"/>
<path d="M12.3633 17.1267C12.3633 16.643 12.4999 16.273 12.773 16.017C13.0462 15.7609 13.4047 15.6328 13.8486 15.6328C14.2868 15.6328 14.6425 15.7609 14.9157 16.017C15.1889 16.273 15.3254 16.643 15.3254 17.1267C15.3254 17.6047 15.1889 17.9747 14.9157 18.2364C14.6425 18.4925 14.2868 18.6206 13.8486 18.6206C13.4104 18.6206 13.0519 18.4925 12.773 18.2364C12.4999 17.9747 12.3633 17.6047 12.3633 17.1267ZM17.7559 15.7267C18.0583 15.7267 18.2513 16.0492 18.1085 16.3157L15.302 21.551C15.2323 21.6809 15.0969 21.762 14.9494 21.762H14.2523C13.9499 21.762 13.7569 21.4395 13.8997 21.173L16.7062 15.9377C16.7759 15.8078 16.9113 15.7267 17.0588 15.7267H17.7559ZM13.8401 16.6145C13.6068 16.6145 13.4901 16.7852 13.4901 17.1267C13.4901 17.4682 13.6068 17.6389 13.8401 17.6389C13.9539 17.6389 14.0421 17.5962 14.1047 17.5108C14.173 17.4255 14.2072 17.2974 14.2072 17.1267C14.2072 16.956 14.173 16.8279 14.1047 16.7426C14.0421 16.6572 13.9539 16.6145 13.8401 16.6145ZM16.6827 20.3535C16.6827 19.8754 16.8193 19.5084 17.0925 19.2523C17.3714 18.9905 17.7299 18.8596 18.1681 18.8596C18.6063 18.8596 18.9591 18.9905 19.2266 19.2523C19.4998 19.5084 19.6364 19.8754 19.6364 20.3535C19.6364 20.8372 19.4998 21.21 19.2266 21.4718C18.9591 21.7279 18.6063 21.8559 18.1681 21.8559C17.7299 21.8559 17.3714 21.7279 17.0925 21.4718C16.8193 21.21 16.6827 20.8372 16.6827 20.3535ZM18.1596 19.8413C17.9205 19.8413 17.801 20.012 17.801 20.3535C17.801 20.7006 17.9205 20.8742 18.1596 20.8742C18.2677 20.8742 18.3531 20.8315 18.4157 20.7462C18.4839 20.6551 18.5181 20.5242 18.5181 20.3535C18.5181 20.1885 18.4839 20.0633 18.4157 19.9779C18.3531 19.8868 18.2677 19.8413 18.1596 19.8413Z" fill="black"/>
</g>
<defs>
<clipPath id="clip0_6529_2702">
<rect width="32" height="32" fill="white" transform="translate(0 0.364258)"/>
</clipPath>
</defs>
</svg>
