<svg width="32" height="32" viewBox="0 0 32 32" fill="none" xmlns="http://www.w3.org/2000/svg">
<g clip-path="url(#clip0_6529_2737)">
<path d="M3 17.8778L5.34303 15.6696C5.71413 15.3198 6.20482 15.125 6.71477 15.125H11.753H16.9285C17.3551 15.125 17.7705 15.2614 18.114 15.5142L23.1396 19.2129L25.7986 19.6788C26.2353 19.7554 26.6342 19.9748 26.9326 20.3027L28.1417 21.6315C28.6657 22.2072 28.8079 23.0347 28.5063 23.7524L28.0432 24.8544C27.7312 25.5967 27.0045 26.0795 26.1994 26.0795H24.5724" stroke="black" stroke-width="2" stroke-linecap="round"/>
<path d="M18.8564 26.0794H15.864H11.4841M5.46069 25.9353L4.01722 25.9489C3.46128 25.9541 3.00781 25.5049 3.00781 24.9489V23.8164" stroke="black" stroke-width="2" stroke-linecap="round"/>
<circle cx="8.81065" cy="26.5177" r="2.48252" stroke="black" stroke-width="2"/>
<circle cx="22.1349" cy="26.4825" r="2.48252" stroke="black" stroke-width="2"/>
<path d="M7.9375 3H16.0538C16.8822 3 17.5538 3.67157 17.5538 4.5V4.5C17.5538 5.32843 16.8822 6 16.0538 6H13.1005C12.2463 6 11.5538 6.69251 11.5538 7.54677V7.54677C11.5538 8.40102 12.2463 9.09354 13.1005 9.09354H22.5538" stroke="black" stroke-width="2" stroke-linecap="round"/>
<path d="M28.3818 4.15185C28.3818 5.34029 27.6484 7.54911 26.23 8.96756C24.7265 7.46411 24.0781 5.34029 24.0781 4.15185C24.0781 2.96342 25.0415 2 26.23 2C27.4184 2 28.3818 2.96342 28.3818 4.15185Z" stroke="black" stroke-width="2"/>
<circle cx="5.00464" cy="2.99487" r="1.00464" fill="black"/>
<path d="M15.1857 17.3309L11.9039 20.9036C11.8372 20.9762 11.8795 21.0939 11.9772 21.1074L13.3806 21.3017C13.4579 21.3124 13.5102 21.386 13.495 21.4625L13.0456 23.7221C13.0177 23.8625 13.0943 24.0027 13.2276 24.055C13.3421 24.1 13.4725 24.0694 13.5551 23.9781L16.7544 20.4406C16.8013 20.3887 16.8283 20.322 16.8308 20.2522C16.8369 20.0824 16.6993 19.9422 16.5294 19.9451L15.3257 19.9653C15.1877 19.9676 15.0838 19.8402 15.1139 19.7055L15.5967 17.5456C15.6146 17.4654 15.5903 17.3816 15.5322 17.3235C15.4357 17.227 15.2781 17.2303 15.1857 17.3309Z" fill="black"/>
</g>
<defs>
<clipPath id="clip0_6529_2737">
<rect width="32" height="32" fill="white"/>
</clipPath>
</defs>
</svg>
