<svg width="32" height="33" viewBox="0 0 32 33" fill="none" xmlns="http://www.w3.org/2000/svg">
<path d="M8.11133 9.49219V25.4922C8.11133 26.5968 9.00676 27.4922 10.1113 27.4922H17H21.6669C22.7715 27.4922 23.6669 26.5968 23.6669 25.4922V13.9205C23.6669 13.4197 23.479 12.9371 23.1404 12.5681L19.0761 8.13984C18.6973 7.72712 18.1628 7.49219 17.6026 7.49219H10.1113C9.00676 7.49219 8.11133 8.38762 8.11133 9.49219Z" stroke="black" stroke-width="2" stroke-linecap="round"/>
<rect x="9" y="3.43652" width="6" height="2" rx="1" fill="black"/>
<path d="M22 10.27L24 8.43652H25" stroke="black" stroke-width="2" stroke-linecap="round"/>
<path d="M14 22.4365H16" stroke="black" stroke-width="2" stroke-linecap="round"/>
<path d="M14 18.4365H17" stroke="black" stroke-width="2" stroke-linecap="round"/>
<path d="M14 14.4365H18" stroke="black" stroke-width="2" stroke-linecap="round"/>
</svg>
