<svg width="32" height="33" viewBox="0 0 32 33" fill="none" xmlns="http://www.w3.org/2000/svg">
<path d="M8.11133 16.8058V10.0029C8.11133 8.89836 9.00676 8.00293 10.1113 8.00293H17.6026C18.1628 8.00293 18.6973 8.23787 19.0761 8.65058L23.1404 13.0789C23.479 13.4478 23.6669 13.9304 23.6669 14.4312V26.0029C23.6669 27.1075 22.7715 28.0029 21.6669 28.0029H19.2224" stroke="black" stroke-width="2" stroke-linecap="round"/>
<rect x="9.22266" y="3.55859" width="5.55556" height="1.11111" rx="0.555556" stroke="black"/>
<path d="M22 10.7807L23.44 9.02062C23.478 8.97419 23.5348 8.94727 23.5948 8.94727H25" stroke="black" stroke-width="2" stroke-linecap="round"/>
<path d="M16 25.8466C16 28.4165 14.1232 30.3368 12 30.3368C9.87682 30.3368 8 28.4165 8 25.8466C8 24.7494 8.51414 23.2108 9.33707 21.5678C10.1205 20.0036 11.1202 18.4688 12 17.3392C12.8798 18.4688 13.8795 20.0036 14.6629 21.5678C15.4859 23.2108 16 24.7494 16 25.8466Z" stroke="black" stroke-width="2"/>
</svg>
