<svg width="25" height="24" viewBox="0 0 25 24" fill="none" xmlns="http://www.w3.org/2000/svg">
<path d="M9.29883 1H23.7401V19.2369" stroke="#222222" stroke-width="2" stroke-linecap="round"/>
<path d="M19.3549 5.40918C18.1994 5.40918 17.0552 5.63678 15.9876 6.07899C14.92 6.52119 13.95 7.16934 13.1329 7.98643C12.3158 8.80352 11.6677 9.77355 11.2255 10.8411C10.7833 11.9087 10.5557 13.0529 10.5557 14.2085C10.5557 15.364 10.7833 16.5082 11.2255 17.5758C11.6677 18.6434 12.3158 19.6134 13.1329 20.4305C13.95 21.2476 14.92 21.8957 15.9876 22.3379C17.0552 22.7801 18.1994 23.0077 19.3549 23.0077" stroke="#222222" stroke-width="2" stroke-linecap="round"/>
<path d="M7.41309 14.209H1.00021" stroke="#222222" stroke-width="2" stroke-linecap="round"/>
<path d="M7.47656 11.1123L1.13735 8.56999" stroke="#222222" stroke-width="2" stroke-linecap="round"/>
<path d="M7.43848 17.4414L1.07471 19.9371" stroke="#222222" stroke-width="2" stroke-linecap="round"/>
</svg>
