<svg width="26" height="26" viewBox="0 0 26 26" fill="none" xmlns="http://www.w3.org/2000/svg">
<path d="M20.4754 12.6754V9.42539M20.4754 9.42539V6.17539M20.4754 9.42539L23.7254 9.42539M20.4754 9.42539H17.2254M15.2754 6.17539V4.22539M15.2754 4.22539V2.27539M15.2754 4.22539L17.2254 4.22539M15.2754 4.22539L13.3254 4.22539M23.0753 16.1848C22.0978 16.4812 21.0608 16.6406 19.9865 16.6406C14.117 16.6406 9.35881 11.8824 9.35881 6.01292C9.35881 4.9391 9.51806 3.90248 9.81425 2.92539C5.45119 4.24856 2.27539 8.30202 2.27539 13.0972C2.27539 18.9667 7.03356 23.7249 12.9031 23.7249C17.6988 23.7249 21.7525 20.5485 23.0753 16.1848Z" stroke="#222222" stroke-width="2" stroke-linecap="round" stroke-linejoin="round"/>
</svg>
