<svg width="20" height="20" viewBox="0 0 20 20" fill="none" xmlns="http://www.w3.org/2000/svg">
<path d="M11.6667 13.3285H15.8333V17.4951M8.33333 6.66178H4.16667V2.49512M16.1813 7.49795C15.7141 6.3415 14.9318 5.33932 13.9233 4.60531C12.9149 3.8713 11.721 3.43472 10.4769 3.34554C9.23281 3.25636 7.98839 3.51795 6.88558 4.10063C5.78277 4.6833 4.86569 5.5639 4.23828 6.64189M3.81836 12.4927C4.2856 13.6491 5.06788 14.6513 6.07631 15.3853C7.08474 16.1193 8.2799 16.5554 9.52398 16.6445C10.7681 16.7337 12.0115 16.4722 13.1143 15.8895C14.2171 15.3068 15.1335 14.4264 15.7609 13.3484" stroke="#2C2E2F" stroke-opacity="0.33" stroke-linecap="round" stroke-linejoin="round"/>
</svg>
