<svg width="34" height="34" viewBox="0 0 34 34" fill="none" xmlns="http://www.w3.org/2000/svg">
<path d="M20.689 9.74186C19.3997 9.74186 18.1089 9.74186 16.8181 9.74186C16.2726 9.74186 16.0082 9.533 16.0112 9.11976C16.0142 8.70653 16.2711 8.50668 16.8256 8.50668C19.305 8.50668 21.7844 8.49165 24.2623 8.50668C28.049 8.53072 31.5787 11.5466 32.2159 15.2822C33.0153 19.9735 30.1527 24.1479 25.4885 25.0765C25.039 25.1651 24.5821 25.2104 24.124 25.2118C21.6957 25.2253 19.2689 25.2283 16.8406 25.2118C16.5607 25.213 16.2912 25.1052 16.0893 24.9112C15.7617 24.5175 16.0893 23.9946 16.6528 23.9886C17.6881 23.9781 18.725 23.9886 19.7603 23.9886C21.2194 23.9886 22.68 24.0006 24.1391 23.9991C26.907 23.9991 29.5486 22.1734 30.623 19.5257C31.6749 16.9546 31.0648 13.8757 29.1324 11.9312C27.6868 10.4767 25.9543 9.71933 23.8896 9.74186C22.8212 9.75389 21.7513 9.74186 20.6814 9.74186H20.689Z" fill="black" stroke="black" stroke-width="0.8"/>
<path d="M12.1433 17.5797C10.854 17.5797 9.56476 17.5797 8.27698 17.5797C7.73001 17.5797 7.45503 17.3648 7.45803 16.9651C7.46104 16.5654 7.73602 16.3535 8.2845 16.3535C10.8801 16.3535 13.4752 16.3535 16.0698 16.3535C16.4815 16.3535 16.8211 16.4482 16.8467 16.9546C16.8662 17.3783 16.6107 17.5857 16.0623 17.5872C14.7565 17.5827 13.4506 17.5797 12.1433 17.5797Z" fill="black"/>
<path d="M8.15281 13.807C9.32188 13.807 10.491 13.807 11.66 13.807C12.225 13.807 12.4715 14.0038 12.473 14.4201C12.4745 14.8363 12.225 15.0317 11.6645 15.0317C9.30836 15.0317 6.95419 15.0317 4.60203 15.0317C4.04604 15.0317 3.79209 14.8363 3.78909 14.4216C3.78608 14.0069 4.03853 13.8085 4.59902 13.807C5.78011 13.804 6.96721 13.807 8.15281 13.807Z" fill="black"/>
<path d="M14.7484 22.6734C13.6955 22.6734 12.6437 22.6734 11.5928 22.6734C11.0143 22.6734 10.7183 22.454 10.7288 22.0483C10.7393 21.6426 11.0293 21.4473 11.5673 21.4473C13.689 21.4473 15.8103 21.4473 17.931 21.4473C18.4765 21.4473 18.759 21.6546 18.768 22.0483C18.777 22.442 18.49 22.6719 17.9055 22.6734C16.8521 22.6749 15.8003 22.6734 14.7484 22.6734Z" fill="black"/>
<path d="M15.0813 11.2598C16.0475 11.2598 17.0137 11.2598 17.9814 11.2598C18.4803 11.2598 18.7583 11.4852 18.7643 11.8609C18.7703 12.2366 18.4953 12.48 18.001 12.4815C16.0665 12.4815 14.1331 12.4815 12.2007 12.4815C11.6868 12.4815 11.4313 12.2741 11.4268 11.8804C11.4223 11.4867 11.6808 11.2598 12.2322 11.2568C13.1819 11.2583 14.1316 11.2613 15.0813 11.2598Z" fill="black"/>
<path d="M23.8999 18.1044C23.3124 18.0924 23.0134 17.9151 22.839 17.5334C22.6437 17.1081 22.7173 16.6919 23.0554 16.4199C24.3237 15.4011 25.6175 14.4154 26.9173 13.4371C27.024 13.3575 27.35 13.374 27.3951 13.4507C27.4377 13.531 27.4606 13.6203 27.4619 13.7112C27.4632 13.8021 27.4429 13.8921 27.4026 13.9736C26.4559 15.2343 25.4957 16.4845 24.5085 17.7122C24.3372 17.9211 24.0246 18.0278 23.8999 18.1044Z" fill="black" stroke="black" stroke-width="0.8"/>
<path d="M7.41862 20.1266H5.18416C4.77093 20.1266 4.48242 19.9598 4.48242 19.512C4.48242 19.0642 4.78295 18.9004 5.18867 18.9004C6.69133 18.9004 8.197 18.9004 9.70567 18.9004C10.1144 18.9004 10.4134 19.0672 10.4119 19.515C10.4104 19.9628 10.1114 20.1251 9.70266 20.1266H7.41862Z" fill="black"/>
<path d="M11.6443 9.73353C11.0012 9.73353 10.3565 9.73353 9.71341 9.73353C9.28665 9.73353 9.01166 9.53368 9.01767 9.10692C9.01767 8.70421 9.30168 8.50586 9.69537 8.50586C10.9977 8.50586 12.3025 8.50586 13.6098 8.50586C14.0035 8.50586 14.277 8.70271 14.277 9.10692C14.277 9.53969 13.999 9.72902 13.5752 9.72602C12.9321 9.73203 12.2875 9.73504 11.6443 9.73353Z" fill="black"/>
<path d="M11.3792 23.9883C12.0389 23.9883 12.6985 23.9958 13.3582 23.9883C13.7669 23.9883 14.0209 24.1761 14.0329 24.5743C14.0449 24.9725 13.7775 25.1949 13.3853 25.1979C12.0659 25.2089 10.7471 25.2089 9.42875 25.1979C9.04257 25.1979 8.77059 25.0041 8.78261 24.5818C8.79463 24.1596 9.05459 23.9898 9.45129 23.9883H11.3792Z" fill="black"/>
<path d="M14.6243 20.1261H12.7415C12.3328 20.1261 12.0353 19.9758 12.0322 19.516C12.0292 19.0562 12.3328 18.8999 12.734 18.8984C14.0062 18.8984 15.2785 18.8984 16.5507 18.8984C16.958 18.8984 17.257 19.0487 17.26 19.51C17.263 19.9713 16.97 20.1246 16.5583 20.1261H14.6243Z" fill="black"/>
<path d="M4.06493 16.3528C4.49019 16.3528 4.91394 16.3528 5.33769 16.3528C5.73589 16.3619 5.99886 16.5692 5.99134 16.9749C5.98383 17.3807 5.71936 17.576 5.31815 17.576C4.46915 17.576 3.62165 17.576 2.77265 17.576C2.37144 17.5745 2.125 17.3671 2.125 16.9584C2.125 16.5497 2.39999 16.3573 2.79368 16.3573C3.21743 16.3468 3.64118 16.3513 4.06493 16.3528Z" fill="black"/>
<path d="M7.66206 12.4868C7.23831 12.4868 6.81606 12.4868 6.39381 12.4868C6.00763 12.4868 5.72964 12.3215 5.71912 11.8978C5.7071 11.447 5.9896 11.2667 6.39982 11.2637C7.22929 11.2637 8.05275 11.2637 8.88522 11.2637C9.29695 11.2637 9.59298 11.444 9.58847 11.8813C9.58396 12.3185 9.28794 12.4944 8.87921 12.4913C8.47049 12.4883 8.06778 12.4868 7.66206 12.4868Z" fill="black"/>
<path d="M7.15053 22.6857C6.71025 22.6857 6.26847 22.6857 5.82819 22.6857C5.75163 22.6924 5.67452 22.683 5.60178 22.6582C5.52904 22.6335 5.46226 22.5938 5.4057 22.5418C5.34915 22.4897 5.30406 22.4265 5.27331 22.356C5.24257 22.2856 5.22684 22.2096 5.22713 22.1327C5.21418 22.0557 5.21826 21.9767 5.23909 21.9014C5.25991 21.8261 5.29698 21.7563 5.34768 21.6969C5.39838 21.6374 5.46149 21.5898 5.53256 21.5574C5.60363 21.5249 5.68095 21.5085 5.75907 21.5091C6.70725 21.4821 7.65693 21.4866 8.60511 21.5166C8.96725 21.5286 9.13254 21.7976 9.09798 22.1568C9.0978 22.2294 9.08259 22.3013 9.05331 22.3679C9.02403 22.4344 8.98131 22.4942 8.92783 22.5434C8.87435 22.5927 8.81127 22.6303 8.74254 22.654C8.67382 22.6777 8.60094 22.687 8.52847 22.6812C8.07767 22.6902 7.61335 22.6812 7.15504 22.6812L7.15053 22.6857Z" fill="black"/>
<path d="M15.6724 15.0328C15.3508 15.0328 15.0263 15.0448 14.7047 15.0328C14.335 15.0147 14.0901 14.8239 14.0841 14.4317C14.0781 14.0395 14.3125 13.8307 14.6852 13.8171C15.3463 13.7961 16.009 13.7946 16.6702 13.8171C17.0368 13.8291 17.2712 14.035 17.2622 14.4347C17.2532 14.8344 17.0128 15.0117 16.6416 15.0283C16.3186 15.0433 15.9955 15.0328 15.6724 15.0328Z" fill="black"/>
</svg>
