<svg width="32" height="33" viewBox="0 0 32 33" fill="none" xmlns="http://www.w3.org/2000/svg">
<g clip-path="url(#clip0_6529_2851)">
<path d="M3 11.954L5.34303 9.74572C5.71413 9.39597 6.20482 9.20117 6.71477 9.20117H11.753H16.9285C17.3551 9.20117 17.7705 9.33755 18.114 9.59039L23.1396 13.2891L25.7986 13.755C26.2353 13.8315 26.6342 14.051 26.9326 14.3789L28.1417 15.7076C28.6657 16.2834 28.8079 17.1109 28.5063 17.8286L28.0432 18.9306C27.7312 19.6729 27.0045 20.1557 26.1994 20.1557H24.5724" stroke="black" stroke-width="2" stroke-linecap="round"/>
<path d="M18.8564 20.156H15.864H11.4841M5.46069 20.012L4.01722 20.0256C3.46128 20.0308 3.00781 19.5816 3.00781 19.0256V12.2012" stroke="black" stroke-width="2" stroke-linecap="round"/>
<circle cx="8.81065" cy="20.5939" r="2.48252" stroke="black" stroke-width="2"/>
<circle cx="22.1349" cy="20.5587" r="2.48252" stroke="black" stroke-width="2"/>
<path d="M5 14.2012L26 14.2012" stroke="black" stroke-width="2" stroke-linecap="square"/>
<path d="M12 10.2012L12 14.2012" stroke="black" stroke-width="2" stroke-linecap="round"/>
</g>
<defs>
<clipPath id="clip0_6529_2851">
<rect width="32" height="32" fill="white" transform="translate(0 0.201172)"/>
</clipPath>
</defs>
</svg>
