<?xml version="1.0" standalone="no"?>
<!DOCTYPE svg PUBLIC "-//W3C//DTD SVG 20010904//EN"
 "http://www.w3.org/TR/2001/REC-SVG-20010904/DTD/svg10.dtd">
<svg version="1.0" xmlns="http://www.w3.org/2000/svg"
 width="272.000000pt" height="185.000000pt" viewBox="0 0 272.000000 185.000000"
 preserveAspectRatio="xMidYMid meet">

<g transform="translate(0.000000,185.000000) scale(0.100000,-0.100000)"
fill="#000000" stroke="none">
<path d="M82 1833 c-18 -9 -43 -30 -55 -47 l-22 -31 -3 -725 c-2 -476 1 -737
7 -760 6 -20 24 -49 41 -65 l31 -30 890 -3 c489 -1 889 -1 889 2 0 2 -7 20
-15 40 l-15 36 -853 0 c-721 0 -856 2 -873 14 -18 14 -19 35 -22 735 l-2 722
24 24 25 25 1231 0 1231 0 24 -25 25 -24 0 -487 0 -487 28 -35 c15 -20 33 -45
39 -56 10 -17 12 91 10 539 l-2 560 -22 31 c-49 68 42 64 -1335 64 -1125 0
-1246 -2 -1276 -17z"/>
<path d="M264 1607 c-2 -7 -3 -60 -2 -118 l3 -104 1095 0 1095 0 0 115 0 115
-1093 3 c-898 2 -1093 0 -1098 -11z"/>
<path d="M600 1251 c0 -6 -15 -17 -33 -25 -65 -27 -107 -105 -94 -173 3 -16
-1 -32 -9 -40 -23 -23 -17 -45 32 -118 38 -59 44 -75 39 -102 -7 -41 -25 -50
-121 -64 -43 -6 -90 -17 -105 -24 -37 -20 -63 -63 -63 -110 l-1 -40 395 0 395
0 3 26 c5 41 -23 96 -58 118 -18 10 -53 22 -79 25 -98 14 -140 27 -156 52 -14
22 -14 26 19 71 59 83 80 131 68 156 -6 12 -12 50 -15 85 -4 72 -29 107 -102
141 -53 25 -115 37 -115 22z"/>
<path d="M1137 1213 c-12 -11 -7 -60 7 -72 9 -8 115 -11 371 -9 392 3 386 2
371 61 l-6 27 -369 0 c-202 0 -371 -3 -374 -7z"/>
<path d="M1141 946 c-7 -8 -11 -27 -9 -43 l3 -28 550 0 550 0 3 28 c7 59 28
57 -553 57 -451 0 -534 -2 -544 -14z"/>
<path d="M2214 780 c-198 -40 -339 -246 -304 -447 23 -135 102 -237 228 -296
89 -42 203 -45 300 -8 201 76 300 305 222 514 -62 166 -263 273 -446 237z
m220 -96 c65 -32 101 -66 137 -129 33 -58 39 -105 12 -105 -10 0 -52 14 -95
30 -136 53 -253 50 -400 -8 -40 -16 -79 -27 -85 -25 -33 13 7 113 68 174 97
97 244 122 363 63z m-89 -259 c14 -13 25 -36 25 -50 0 -33 -42 -75 -75 -75
-33 0 -75 42 -75 75 0 33 42 75 75 75 14 0 37 -11 50 -25z m243 -87 c31 -31
-9 -123 -79 -182 -42 -36 -127 -76 -145 -69 -19 7 -18 63 1 90 8 11 35 33 59
47 24 14 54 42 66 61 40 64 70 81 98 53z m-495 -37 c14 -21 40 -49 57 -62 93
-70 122 -118 88 -147 -28 -22 -144 40 -191 102 -45 59 -60 96 -48 122 18 40
63 32 94 -15z"/>
<path d="M2282 374 c4 -21 22 -23 26 -1 2 10 -3 17 -13 17 -10 0 -15 -6 -13
-16z"/>
<path d="M1137 683 c-9 -8 -9 -46 -1 -67 5 -14 47 -16 363 -16 l357 0 19 38
c11 20 21 40 23 45 5 9 -752 10 -761 0z"/>
</g>
</svg>
