<svg width="16" height="17" viewBox="0 0 16 17" fill="none" xmlns="http://www.w3.org/2000/svg">
<g opacity="0.9">
<path d="M0.576734 14.6594C-0.066596 14.0526 -0.186443 13.0719 0.291626 12.3277L1.66572 10.1894C2.39309 9.05778 3.57065 8.29853 4.90027 8.10254H11.0209C11.4155 8.16077 11.7962 8.26969 12.1563 8.42196L10.1172 12.0211C9.45031 11.8357 8.72294 11.7326 7.9607 11.7326C6.24139 11.7326 4.69638 12.2527 3.63811 13.0757C3.58308 13.103 3.53315 13.1416 3.49244 13.1925C2.6782 13.8768 2.18883 14.7506 2.18883 15.7015C2.18883 15.8161 2.19693 15.9297 2.21069 16.0428C1.88035 15.8351 1.56792 15.5949 1.27886 15.322L0.576734 14.6594Z" fill="white"/>
<path d="M7.12305 16.9597C6.96985 16.8564 6.87695 16.7334 6.87695 16.6177C6.87695 16.3482 7.33995 16.0469 7.95953 16.0469C8.57912 16.0469 9.04211 16.3482 9.04211 16.6177C9.04211 16.7334 8.9494 16.8564 8.7962 16.9597H7.12305Z" fill="white"/>
<path d="M8.82983 15.3293C8.56979 15.236 8.27695 15.1827 7.9632 15.1827C7.64964 15.1827 7.35662 15.2362 7.09657 15.3293L4.56641 13.4667C5.44868 12.9303 6.64564 12.5996 7.96301 12.5996C8.76105 12.5996 9.51443 12.7215 10.1811 12.9362C10.199 12.9426 10.2166 12.9496 10.2348 12.9535C10.6479 13.0907 11.0263 13.2639 11.3598 13.4667L8.82983 15.3293Z" fill="white"/>
<path d="M3.25361 16.5639C3.12302 16.2839 3.05273 15.995 3.05273 15.7016C3.05273 15.0789 3.34519 14.4991 3.84606 14.0127L6.3197 15.8335C6.12466 16.0577 6.01122 16.3259 6.01122 16.6174C6.01122 16.7348 6.02969 16.8494 6.06474 16.9595H5.39917C4.65616 16.9596 3.93124 16.8228 3.25361 16.5639Z" fill="white"/>
<path d="M9.85554 16.9596C9.89059 16.8496 9.90906 16.735 9.90906 16.6176C9.90906 16.3259 9.79562 16.0577 9.60059 15.8335L12.074 14.0127C12.5751 14.4991 12.8674 15.0789 12.8674 15.7016C12.8674 15.9948 12.7973 16.2837 12.6665 16.5639C11.989 16.8228 11.2641 16.9596 10.5211 16.9596H9.85554Z" fill="white"/>
<path d="M15.3451 14.6588L14.6428 15.3212C14.354 15.5939 14.0413 15.8344 13.7112 16.0419C13.725 15.9288 13.7331 15.8152 13.7331 15.7008C13.7331 14.7497 13.2435 13.8758 12.4291 13.1916C12.3885 13.1411 12.339 13.1025 12.2842 13.0753C11.8988 12.7757 11.4497 12.5156 10.9502 12.3068L12.9188 8.83203C13.447 9.18349 13.9043 9.64236 14.2558 10.189L15.6299 12.3274C16.1081 13.0714 15.9881 14.052 15.3451 14.6588Z" fill="white"/>
<path d="M5.30273 2.65769C5.30273 1.19231 6.4948 0 7.96028 0C9.42577 0 10.6178 1.19231 10.6178 2.65769V4.24442C10.6178 5.70998 9.42558 6.9021 7.96028 6.9021C6.49499 6.9021 5.30273 5.70998 5.30273 4.24442V2.65769Z" fill="white"/>
</g>
</svg>
