<svg width="32" height="30" viewBox="0 0 32 30" fill="none" xmlns="http://www.w3.org/2000/svg">
<path d="M29.3056 6.08538V0.483871H22.831L18.1484 5.16576L17.1516 4.16856C16.9672 3.98424 16.7174 3.88079 16.4572 3.88079H13.7802L11.0105 0.373543C10.8242 0.137501 10.5401 0 10.2399 0H2.8312C2.28873 0 1.84906 0.439674 1.84906 0.982147V4.0088C0.77786 4.3532 0 5.35827 0 6.54241V27.3387C0 28.806 1.19429 30 2.6626 30H20.5809C22.0489 30 23.2435 28.8064 23.2435 27.3387V10.6678C23.2435 10.4072 23.14 10.1574 22.9557 9.97337L22.1098 9.12774L25.1508 6.08636L29.3056 6.08538ZM18.1288 23.0369L16.6363 24.3137L11.6217 18.4516L6.60723 24.3137L5.11469 23.0369L10.3296 16.9407L5.11469 10.8445L6.60723 9.56775L11.6217 15.4299L16.6363 9.56775L18.1288 10.8445L12.9139 16.9407L18.1288 23.0369ZM3.81335 1.96462H9.76385L11.277 3.88112H3.81335V1.96462ZM20.7272 7.73277L19.5431 6.54928L23.6442 2.44784H27.3413V4.12142L24.3366 4.12174L20.7272 7.73277Z" fill="#102C53"/>
<path d="M28.3237 8.65332C28.3237 8.65332 25.4316 12.5672 25.4316 14.1641C25.4316 15.7611 26.7264 17.0559 28.3237 17.0559C29.9204 17.0559 31.2152 15.7611 31.2152 14.1641C31.2152 12.5672 28.3237 8.65332 28.3237 8.65332Z" fill="#102C53"/>
</svg>
