<svg width="34" height="25" viewBox="0 0 34 25" fill="none" xmlns="http://www.w3.org/2000/svg">
<path fill-rule="evenodd" clip-rule="evenodd" d="M28.5185 12.0055C27.9594 12.0055 27.5046 11.5507 27.5046 10.9916C27.5046 10.4325 27.9594 9.97762 28.5185 9.97762C29.0775 9.97762 29.5325 10.4325 29.5325 10.9916C29.5325 11.5507 29.0775 12.0055 28.5185 12.0055ZM24.0084 5.20813C24.5675 5.20813 25.0224 5.66304 25.0224 6.22211C25.0224 6.78118 24.5675 7.236 24.0084 7.236C23.4494 7.236 22.9945 6.78118 22.9945 6.22211C22.9945 5.66304 23.4494 5.20813 24.0084 5.20813ZM17.0539 5.30533C16.4949 5.30533 16.04 4.8505 16.04 4.29143C16.04 3.73237 16.4949 3.27754 17.0539 3.27754C17.613 3.27754 18.0678 3.73237 18.0678 4.29143C18.0678 4.8505 17.613 5.30533 17.0539 5.30533ZM10.3585 7.15862C9.79941 7.15862 9.3445 6.70379 9.3445 6.14464C9.3445 5.58557 9.79941 5.13075 10.3585 5.13075C10.9175 5.13075 11.3724 5.58557 11.3724 6.14464C11.3724 6.70379 10.9175 7.15862 10.3585 7.15862ZM5.6203 9.65734C6.17936 9.65734 6.63427 10.1122 6.63427 10.6713C6.63427 11.2304 6.17936 11.6852 5.6203 11.6852C5.06123 11.6852 4.6064 11.2304 4.6064 10.6713C4.6064 10.1122 5.06123 9.65734 5.6203 9.65734ZM16.8866 22.717C16.6464 22.717 16.4048 22.6922 16.1651 22.6411C16.1101 22.6294 16.0549 22.6163 15.9998 22.6019C15.9447 22.5876 15.8903 22.572 15.8364 22.5554C14.2121 22.0528 13.053 20.2793 13.3276 18.5689C13.5017 17.4847 14.2956 16.3439 14.8383 15.4081C16.3618 12.7812 17.8457 10.1327 19.3391 7.48754C19.4587 7.27553 19.6585 7.18019 19.8571 7.18019C20.1627 7.18019 20.4651 7.4063 20.4669 7.78105C20.4831 11.1102 20.4993 14.4394 20.5155 17.7686C20.5222 19.1595 20.5455 20.4529 19.5424 21.543C18.856 22.2892 17.8844 22.717 16.8866 22.717ZM33.8924 11.5544C30.9001 5.08098 24.4752 0.604492 17.0312 0.604492C9.76852 0.604492 3.47618 4.86578 0.395058 11.0852C0.104907 11.6709 0.357457 12.387 0.945397 12.647L11.8755 17.4799C11.7867 17.7486 11.7151 18.0233 11.6702 18.3029C11.4732 19.5301 11.7515 20.8136 12.454 21.9167C13.144 23.0003 14.1691 23.7966 15.3402 24.159C15.4176 24.1829 15.4971 24.2056 15.5762 24.2262C15.6551 24.2468 15.7355 24.2659 15.8151 24.2828C16.1661 24.3577 16.5266 24.3956 16.8866 24.3956C18.3561 24.3956 19.7744 23.7702 20.7777 22.6796C22.2111 21.1217 22.2019 19.2953 22.1945 17.8277L22.1942 17.7604L22.1936 17.6386L33.3006 13.1019C33.8963 12.8586 34.1672 12.1489 33.8924 11.5544Z" fill="#102C53"/>
</svg>
