<svg width="22" height="27" viewBox="0 0 22 27" fill="none" xmlns="http://www.w3.org/2000/svg">
<path d="M10.1252 6.75H16.8752V5.0625H11.3909L10.1252 6.75Z" fill="#102C53"/>
<path d="M21.094 0H9.28149C9.03934 0 8.80984 0.103781 8.64953 0.285188L1.90037 7.87809C1.76368 8.0325 1.68774 8.23162 1.68774 8.4375V26.1562C1.68774 26.6228 2.06574 27 2.53149 27H21.094C21.5597 27 21.9377 26.6228 21.9377 26.1562V0.84375C21.9377 0.377156 21.5597 0 21.094 0ZM18.5627 7.59375C18.5627 8.06034 18.1847 8.4375 17.719 8.4375H8.43774C8.11796 8.4375 7.82603 8.25694 7.68259 7.97091C7.53915 7.68487 7.57121 7.34316 7.76274 7.0875L10.294 3.7125C10.4535 3.49988 10.7032 3.375 10.969 3.375H17.719C18.1847 3.375 18.5627 3.75216 18.5627 4.21875V7.59375Z" fill="#102C53"/>
<path d="M0.632125 5.87941L1.27169 6.04563L6.14181 0.566315L4.47287 0.0389714C4.14212 -0.0656536 3.77762 0.0448776 3.55994 0.316565L0.184937 4.53532C0.00606208 4.75891 -0.0470942 5.0576 0.0431871 5.32844C0.133468 5.60097 0.355375 5.80769 0.632125 5.87941Z" fill="#102C53"/>
</svg>
