<svg width="30" height="30" viewBox="0 0 30 30" fill="none" xmlns="http://www.w3.org/2000/svg">
<path d="M15.0004 8.30371C11.7976 8.30371 9.9572 9.25482 9.91113 9.64352C9.9572 10.0312 11.7976 10.9823 15.0004 10.9823C18.2011 10.9823 20.0405 10.0322 20.0897 9.643C20.0405 9.25377 18.2011 8.30371 15.0004 8.30371Z" fill="#102C53"/>
<path d="M9.91113 11.6426V14.6675C11.3349 15.8486 13.1536 16.446 15.0004 16.3392C16.8473 16.446 18.6659 15.8486 20.0897 14.6675V11.6426C18.4793 12.3144 16.7447 12.637 15.0004 12.5892C13.2561 12.637 11.5216 12.3144 9.91113 11.6426ZM11.7861 14.7321C11.6272 14.7321 11.4718 14.685 11.3397 14.5967C11.2075 14.5084 11.1046 14.3829 11.0437 14.236C10.9829 14.0892 10.967 13.9276 10.998 13.7717C11.029 13.6159 11.1055 13.4727 11.2179 13.3603C11.3303 13.2479 11.4735 13.1714 11.6294 13.1404C11.7852 13.1094 11.9468 13.1253 12.0936 13.1861C12.2405 13.2469 12.366 13.3499 12.4543 13.4821C12.5426 13.6142 12.5897 13.7696 12.5897 13.9285C12.5897 14.1416 12.505 14.346 12.3543 14.4967C12.2036 14.6474 11.9992 14.7321 11.7861 14.7321ZM15.2683 14.4642C15.2683 14.6232 15.2211 14.7785 15.1328 14.9107C15.0446 15.0428 14.9191 15.1458 14.7722 15.2066C14.6254 15.2675 14.4638 15.2834 14.3079 15.2524C14.1521 15.2214 14.0089 15.1448 13.8965 15.0324C13.7841 14.9201 13.7076 14.7769 13.6766 14.621C13.6456 14.4651 13.6615 14.3035 13.7223 14.1567C13.7831 14.0099 13.8861 13.8844 14.0183 13.7961C14.1504 13.7078 14.3058 13.6607 14.4647 13.6607C14.6778 13.6607 14.8822 13.7453 15.0329 13.896C15.1836 14.0467 15.2683 14.2511 15.2683 14.4642Z" fill="#102C53"/>
<path d="M28.5001 12H27.7138C27.3948 11.994 27.0855 11.8889 26.8288 11.6992C26.5722 11.5096 26.3809 11.2449 26.2814 10.9417C26.1527 10.5838 26.0079 10.2342 25.8472 9.89272C25.7033 9.6077 25.6515 9.28501 25.699 8.96928C25.7465 8.65355 25.891 8.36039 26.1124 8.13034L26.6672 7.57534C26.8065 7.43607 26.9171 7.2707 26.9925 7.0887C27.0679 6.9067 27.1067 6.71163 27.1067 6.51463C27.1067 6.31763 27.0679 6.12255 26.9925 5.94055C26.9171 5.75855 26.8065 5.59319 26.6672 5.45391L24.5458 3.33264C24.4065 3.19334 24.2411 3.08285 24.0591 3.00747C23.8771 2.93209 23.682 2.8933 23.485 2.89331C23.288 2.89332 23.093 2.93214 22.911 3.00754C22.729 3.08295 22.5636 3.19346 22.4244 3.33277L21.8695 3.88758C21.6395 4.10901 21.3464 4.25348 21.0307 4.301C20.715 4.34852 20.3923 4.29674 20.1073 4.15282C19.7662 3.9922 19.4166 3.84751 19.0584 3.71874C18.7552 3.61925 18.4904 3.42792 18.3008 3.17126C18.1111 2.91459 18.006 2.6053 18 2.28624V1.5C18 1.30301 17.9612 1.10794 17.8858 0.925945C17.8104 0.743948 17.6999 0.578584 17.5606 0.439294C17.4213 0.300005 17.256 0.189518 17.074 0.114144C16.892 0.0387693 16.6969 -1.68797e-05 16.4999 5.51071e-09H13.5001C13.1023 1.42099e-05 12.7207 0.158051 12.4394 0.439349C12.1581 0.720647 12 1.10217 12 1.5V2.28618C11.994 2.60524 11.8889 2.91454 11.6993 3.1712C11.5096 3.42787 11.2449 3.6192 10.9417 3.71868C10.5838 3.84711 10.2342 3.99181 9.89272 4.15277C9.60772 4.29666 9.28505 4.34842 8.96934 4.3009C8.65363 4.25338 8.36049 4.10893 8.13047 3.88753L7.5756 3.33279C7.43632 3.19347 7.27096 3.08296 7.08897 3.00756C6.90697 2.93215 6.71191 2.89334 6.51491 2.89332C6.31792 2.89331 6.12285 2.9321 5.94085 3.00748C5.75884 3.08286 5.59347 3.19335 5.45417 3.33265L3.33274 5.45393C3.19342 5.5932 3.0829 5.75856 3.00749 5.94056C2.93208 6.12256 2.89327 6.31764 2.89327 6.51464C2.89327 6.71164 2.93208 6.90671 3.00749 7.08871C3.0829 7.27071 3.19342 7.43608 3.33274 7.57535L3.88755 8.13035C4.10895 8.36039 4.25341 8.65353 4.30094 8.96924C4.34847 9.28496 4.29672 9.60764 4.15286 9.89266C3.99224 10.2338 3.84749 10.5834 3.71863 10.9416C3.61919 11.2448 3.42789 11.5096 3.17123 11.6993C2.91457 11.8889 2.60527 11.994 2.2862 12H1.49989C1.1021 12.0001 0.720609 12.1581 0.439333 12.4394C0.158058 12.7207 2.8408e-05 13.1022 0 13.5V16.5C2.8408e-05 16.8978 0.158058 17.2793 0.439333 17.5606C0.720609 17.8419 1.1021 17.9999 1.49989 18H2.2862C2.60526 18.006 2.91455 18.1111 3.1712 18.3007C3.42785 18.4904 3.61916 18.7551 3.71861 19.0583C3.84731 19.4162 3.99205 19.7658 4.15284 20.1073C4.29672 20.3923 4.34849 20.715 4.30097 21.0307C4.25345 21.3465 4.109 21.6396 3.88759 21.8697L3.33279 22.4246C3.19346 22.5639 3.08294 22.7292 3.00753 22.9112C2.93213 23.0932 2.89332 23.2883 2.89332 23.4853C2.89332 23.6823 2.93213 23.8774 3.00753 24.0594C3.08294 24.2414 3.19346 24.4068 3.33279 24.546L5.45421 26.6675C5.5934 26.8068 5.75866 26.9173 5.94058 26.9927C6.12249 27.0682 6.31748 27.107 6.51441 27.1071C6.71134 27.1071 6.90635 27.0684 7.0883 26.993C7.27025 26.9177 7.43558 26.8072 7.57483 26.668C7.76186 26.4811 7.95334 26.2895 8.13121 26.1116C8.3612 25.8903 8.6543 25.746 8.96994 25.6986C9.28559 25.6512 9.60814 25.7032 9.89295 25.8473C10.234 26.008 10.5836 26.1526 10.9416 26.2812C11.2448 26.3807 11.5096 26.572 11.6992 26.8287C11.8889 27.0854 11.994 27.3946 12 27.7137V28.5C12 28.8978 12.1581 29.2794 12.4394 29.5607C12.7207 29.842 13.1023 30 13.5001 30H16.4999C16.6969 30 16.892 29.9612 17.074 29.8859C17.256 29.8105 17.4214 29.7 17.5607 29.5607C17.7 29.4214 17.8105 29.2561 17.8859 29.0741C17.9612 28.8921 18.0001 28.697 18.0001 28.5V27.7138C18.0061 27.3948 18.1112 27.0855 18.3008 26.8288C18.4904 26.5721 18.7552 26.3808 19.0584 26.2813C19.4163 26.1527 19.7659 26.008 20.1073 25.8472C20.3923 25.7033 20.715 25.6515 21.0307 25.6991C21.3464 25.7466 21.6396 25.891 21.8696 26.1125L22.4244 26.6673C22.5637 26.8066 22.729 26.9171 22.911 26.9925C23.093 27.0679 23.2881 27.1067 23.4851 27.1067C23.6821 27.1068 23.8771 27.068 24.0591 26.9926C24.2411 26.9172 24.4065 26.8067 24.5458 26.6674L26.6672 24.5461C26.8066 24.4069 26.9171 24.2415 26.9925 24.0595C27.0679 23.8775 27.1067 23.6824 27.1067 23.4854C27.1067 23.2884 27.0679 23.0933 26.9925 22.9113C26.9171 22.7293 26.8066 22.564 26.6672 22.4247L26.1124 21.8698C25.891 21.6397 25.7466 21.3466 25.6991 21.0308C25.6515 20.7151 25.7033 20.3924 25.8472 20.1074C26.0078 19.7663 26.1526 19.4166 26.2814 19.0585C26.3809 18.7553 26.5722 18.4905 26.8289 18.3009C27.0855 18.1112 27.3948 18.0061 27.7138 18.0001H28.5001C28.6971 18.0001 28.8922 17.9613 29.0742 17.8859C29.2561 17.8105 29.4215 17.7 29.5608 17.5607C29.7 17.4214 29.8105 17.256 29.8859 17.074C29.9612 16.892 30 16.697 30 16.5V13.5C30 13.303 29.9612 13.108 29.8858 12.926C29.8105 12.744 29.7 12.5786 29.5607 12.4394C29.4214 12.3001 29.2561 12.1896 29.0741 12.1142C28.8921 12.0388 28.6971 12 28.5001 12ZM21.6964 20.3571C21.6966 20.5588 21.6207 20.753 21.484 20.9012C20.6309 21.7323 19.6132 22.3754 18.4965 22.7892C17.3797 23.2029 16.1886 23.3782 15 23.3036C13.8114 23.3782 12.6203 23.2029 11.5035 22.7892C10.3868 22.3754 9.36905 21.7323 8.51597 20.9012C8.37927 20.753 8.30343 20.5588 8.30357 20.3571V9.64286C8.30357 7.61823 11.7752 6.69643 15 6.69643C18.2248 6.69643 21.6964 7.61823 21.6964 9.64286V20.3571Z" fill="#102C53"/>
<path d="M9.91113 16.6602V20.0236C11.3355 21.2038 13.1536 21.8013 15.0004 21.6961C16.8472 21.8013 18.6654 21.2038 20.0897 20.0236V16.6602C18.5454 17.5526 16.7833 17.9978 15.0004 17.9461C13.2175 17.9978 11.4554 17.5526 9.91113 16.6602ZM11.7861 20.0889C11.6272 20.0889 11.4718 20.0418 11.3397 19.9535C11.2075 19.8652 11.1046 19.7397 11.0437 19.5929C10.9829 19.446 10.967 19.2845 10.998 19.1286C11.029 18.9727 11.1055 18.8295 11.2179 18.7172C11.3303 18.6048 11.4735 18.5282 11.6294 18.4972C11.7852 18.4662 11.9468 18.4821 12.0936 18.543C12.2405 18.6038 12.366 18.7068 12.4543 18.8389C12.5426 18.9711 12.5897 19.1264 12.5897 19.2854C12.5897 19.4985 12.505 19.7029 12.3543 19.8535C12.2036 20.0042 11.9992 20.0889 11.7861 20.0889ZM15.2683 19.8211C15.2683 19.98 15.2211 20.1354 15.1328 20.2675C15.0446 20.3997 14.9191 20.5027 14.7722 20.5635C14.6254 20.6243 14.4638 20.6402 14.3079 20.6092C14.1521 20.5782 14.0089 20.5017 13.8965 20.3893C13.7841 20.2769 13.7076 20.1337 13.6766 19.9779C13.6456 19.822 13.6615 19.6604 13.7223 19.5136C13.7831 19.3667 13.8861 19.2412 14.0183 19.1529C14.1504 19.0646 14.3058 19.0175 14.4647 19.0175C14.6778 19.0175 14.8822 19.1022 15.0329 19.2529C15.1836 19.4036 15.2683 19.608 15.2683 19.8211Z" fill="#102C53"/>
</svg>
