<svg width="34" height="30" viewBox="0 0 34 30" fill="none" xmlns="http://www.w3.org/2000/svg">
<path d="M20.2482 7.33605C19.8943 7.02557 19.3552 7.06097 19.0448 7.4152L15.4103 11.5605L14.0964 10.247C13.7633 9.91425 13.2235 9.9139 12.8904 10.247C12.5574 10.5801 12.5574 11.1198 12.8904 11.4529L14.848 13.4105C15.0081 13.5706 15.2252 13.6602 15.451 13.6602C15.46 13.6602 15.4697 13.6602 15.4791 13.6599C15.715 13.6522 15.9369 13.5471 16.0925 13.3696L20.327 8.53939C20.6375 8.18505 20.6021 7.64641 20.2481 7.33584L20.2482 7.33605Z" fill="#102C53"/>
<path d="M28.4112 21.6325C30.56 17.9661 33.1797 13.1502 33.1797 9.73073C33.1797 5.22068 29.5104 1.55145 25.0001 1.55145C24.0602 1.55145 23.1579 1.71291 22.3167 2.00573C20.7433 0.751877 18.7534 0 16.5898 0C14.4263 0 12.4364 0.751964 10.863 2.00584C10.0218 1.71267 9.11946 1.55157 8.17956 1.55157C3.66951 1.55157 0 5.22079 0 9.73084C0 13.2339 2.6383 18.0352 4.76909 21.6465C2.41806 22.5319 0.993935 23.6828 0.993935 24.9423C0.993935 27.7359 7.98506 30 16.6083 30C25.2316 30 32.2227 27.7355 32.2227 24.9423C32.2227 23.6763 30.7837 22.5196 28.4108 21.6326L28.4112 21.6325ZM9.29165 22.1704C9.01001 22.6445 8.74735 23.0867 8.51401 23.4882C8.41644 23.6559 8.2629 23.6809 8.17991 23.6809C8.09692 23.6809 7.94338 23.6559 7.84581 23.4882C7.58983 23.0488 7.29984 22.5625 6.98788 22.0398C4.88368 18.5162 1.70561 13.1914 1.70561 9.73055C1.70561 6.1606 4.60985 3.25666 8.1795 3.25666C8.61887 3.25666 9.04716 3.3029 9.46186 3.38691C8.16358 4.97419 7.38311 7.00056 7.38311 9.20638C7.38311 12.1659 9.05552 15.9578 10.9111 19.3987C10.3484 20.3899 9.79029 21.3305 9.29147 22.1703L9.29165 22.1704ZM19.9662 20.0045C19.6026 20.6522 19.2413 21.2781 18.8954 21.8689C18.8867 21.8835 18.878 21.8984 18.8697 21.913C18.7999 22.0322 18.7307 22.1495 18.6627 22.2655C18.5599 22.4399 18.4574 22.6135 18.3574 22.7823C18.3457 22.8024 18.3338 22.8222 18.322 22.842C18.1995 23.0487 18.0789 23.2522 17.9615 23.4498C17.9055 23.544 17.8513 23.6357 17.7968 23.7274C17.7062 23.8803 17.6173 24.0303 17.5308 24.1762C17.5194 24.1953 17.5075 24.2154 17.4961 24.2345C17.4944 24.2377 17.4923 24.2407 17.4906 24.2439C17.3447 24.4905 17.2054 24.727 17.0745 24.9524C17.0742 24.9531 17.0738 24.9534 17.0731 24.9541C17.0492 24.995 17.022 25.0281 16.9943 25.058C16.9863 25.0664 16.9784 25.0746 16.9704 25.0823C16.9405 25.1101 16.9103 25.1345 16.879 25.1529C16.8693 25.1588 16.8596 25.1626 16.8502 25.1678C16.8175 25.1849 16.7838 25.1995 16.7477 25.2095C16.7387 25.212 16.7311 25.2134 16.7224 25.2154C16.68 25.2251 16.6363 25.2317 16.5897 25.2317C16.5438 25.2317 16.5 25.2251 16.4581 25.2154C16.4487 25.2134 16.44 25.2116 16.4306 25.2088C16.3956 25.1991 16.3629 25.1849 16.3312 25.1686C16.3212 25.1634 16.3111 25.1592 16.301 25.153C16.2687 25.1335 16.2388 25.1096 16.2107 25.0832C16.2023 25.0752 16.1941 25.067 16.186 25.0582C16.1572 25.027 16.1297 24.9933 16.1069 24.954C16.1066 24.9537 16.1062 24.9533 16.1059 24.9526C16.0878 24.9218 16.0683 24.8891 16.0503 24.8578C15.9301 24.6521 15.803 24.4369 15.6717 24.2153C15.6397 24.1614 15.6072 24.1065 15.5748 24.052C15.4838 23.8988 15.3901 23.7415 15.2949 23.5818C15.258 23.5199 15.2237 23.4623 15.1866 23.3997L15.1289 23.3032C14.5555 22.3425 13.8841 21.2175 13.2012 20.0085C13.0887 19.8092 12.9761 19.6074 12.8632 19.4042C10.9652 15.9792 9.08953 12.0096 9.08953 9.20665C9.08953 7.18757 9.89295 5.35363 11.1946 4.00397C11.5351 3.65112 11.9094 3.3316 12.3124 3.05053C12.314 3.04917 12.3159 3.04804 12.3176 3.04668C12.4117 2.981 12.5075 2.91813 12.6048 2.85674C12.6083 2.8547 12.6114 2.85222 12.6149 2.85018C12.6194 2.84736 12.624 2.8443 12.6285 2.84148C12.7264 2.77997 12.8264 2.72129 12.9275 2.66431C12.9349 2.66012 12.9421 2.65594 12.9495 2.65176C13.0474 2.59726 13.1471 2.5448 13.2475 2.49437C13.2586 2.48883 13.2694 2.48296 13.2805 2.4773C13.3777 2.42937 13.4764 2.38391 13.5757 2.34016C13.5906 2.3336 13.6052 2.32659 13.6201 2.32003C13.7153 2.27865 13.8122 2.2401 13.9095 2.20267C13.9293 2.19499 13.9487 2.18673 13.9685 2.17938C14.0615 2.14467 14.1557 2.11234 14.2505 2.08113C14.2751 2.0731 14.2998 2.06372 14.3244 2.05615C14.4151 2.02731 14.5068 2.00165 14.5985 1.97621C14.6283 1.96784 14.6575 1.95846 14.6878 1.95088C14.776 1.92759 14.8656 1.90747 14.9548 1.88734C14.9892 1.87966 15.0229 1.87072 15.0573 1.86371C15.1438 1.84562 15.2316 1.8307 15.3191 1.81578C15.357 1.80922 15.3949 1.80119 15.4331 1.79531C15.5196 1.78175 15.6068 1.77168 15.6939 1.76128C15.7338 1.75642 15.7739 1.7502 15.8141 1.74602C15.9055 1.73663 15.9975 1.73075 16.0895 1.72454C16.1264 1.72205 16.1628 1.71798 16.2 1.71617C16.3292 1.70961 16.4595 1.70611 16.5904 1.70611C16.7213 1.70611 16.8516 1.70961 16.9808 1.71617C17.018 1.71786 17.0544 1.72205 17.0913 1.72454C17.1833 1.73075 17.2757 1.73675 17.3667 1.74602C17.4069 1.7502 17.4466 1.75642 17.4869 1.76128C17.574 1.77168 17.6615 1.78174 17.7477 1.79531C17.7859 1.80119 17.8234 1.80922 17.8617 1.81578C17.9492 1.8307 18.037 1.84562 18.1235 1.86371C18.1579 1.87106 18.1916 1.87966 18.2259 1.88734C18.3156 1.90747 18.4048 1.92759 18.493 1.95088C18.5232 1.95891 18.5524 1.9683 18.5827 1.97621C18.6744 2.00154 18.766 2.02765 18.8564 2.05615C18.8814 2.06417 18.906 2.07322 18.931 2.08147C19.0255 2.11268 19.1196 2.14467 19.2123 2.17938C19.2324 2.18707 19.2522 2.19532 19.2723 2.20301C19.3692 2.24021 19.4658 2.27876 19.5606 2.32003C19.5759 2.32659 19.5912 2.33394 19.6065 2.34084C19.7056 2.38459 19.8038 2.4297 19.9007 2.47764C19.9118 2.48318 19.9227 2.48906 19.9337 2.49472C20.0341 2.54503 20.1338 2.59715 20.2314 2.65176C20.2391 2.65594 20.2464 2.66047 20.2537 2.66465C20.3548 2.72163 20.4545 2.78031 20.5521 2.84148C20.5566 2.84431 20.5611 2.84736 20.5657 2.85018C20.5692 2.85222 20.5722 2.85471 20.5757 2.85674C20.673 2.91791 20.7688 2.98111 20.863 3.04669C20.8647 3.04804 20.8669 3.04951 20.8686 3.05053C21.2715 3.33183 21.6458 3.65147 21.9859 4.00397C23.2877 5.35372 24.091 7.18752 24.091 9.20665C24.091 11.9484 22.2148 15.9321 20.3014 19.4024C20.1895 19.6048 20.0777 19.8055 19.9662 20.0045ZM25.3341 23.4882C25.2365 23.656 25.083 23.681 25 23.681C24.917 23.681 24.7635 23.656 24.6659 23.4882C24.4099 23.0488 24.1199 22.5626 23.808 22.0399C23.3287 21.2369 22.7935 20.3398 22.2527 19.3929C24.121 15.9135 25.7969 12.1088 25.7969 9.20661C25.7969 7.00076 25.0164 4.97442 23.7182 3.38714C24.1329 3.30313 24.5611 3.25689 25.0005 3.25689C28.5705 3.25689 31.4744 6.16084 31.4744 9.73078C31.4744 13.1412 28.2477 18.5752 26.1122 22.1706C25.8305 22.6443 25.5678 23.0861 25.3342 23.488L25.3341 23.4882Z" fill="#102C53"/>
</svg>
