<svg width="23" height="23" viewBox="0 0 23 23" fill="none" xmlns="http://www.w3.org/2000/svg">
<path d="M10.5605 5.10937C10.5605 5.66166 11.0083 6.10937 11.5605 6.10937C12.1128 6.10937 12.5605 5.66166 12.5605 5.10937H10.5605ZM12.5605 1.10938C12.5605 0.55709 12.1128 0.109375 11.5605 0.109375C11.0083 0.109375 10.5605 0.55709 10.5605 1.10938H12.5605ZM10.5605 21.1094C10.5605 21.6617 11.0083 22.1094 11.5605 22.1094C12.1128 22.1094 12.5605 21.6617 12.5605 21.1094H10.5605ZM12.5605 17.1094C12.5605 16.5571 12.1128 16.1094 11.5605 16.1094C11.0083 16.1094 10.5605 16.5571 10.5605 17.1094H12.5605ZM17.5605 10.1094C17.0083 10.1094 16.5605 10.5571 16.5605 11.1094C16.5605 11.6617 17.0083 12.1094 17.5605 12.1094V10.1094ZM21.5605 12.1094C22.1128 12.1094 22.5605 11.6617 22.5605 11.1094C22.5605 10.5571 22.1128 10.1094 21.5605 10.1094V12.1094ZM1.56055 10.1094C1.00826 10.1094 0.560547 10.5571 0.560547 11.1094C0.560547 11.6617 1.00826 12.1094 1.56055 12.1094V10.1094ZM5.56055 12.1094C6.11283 12.1094 6.56055 11.6617 6.56055 11.1094C6.56055 10.5571 6.11283 10.1094 5.56055 10.1094V12.1094ZM19.5605 11.1093H18.5605C18.5605 14.9753 15.4265 18.1093 11.5605 18.1093V19.1093V20.1093C16.5311 20.1093 20.5605 16.0799 20.5605 11.1093H19.5605ZM11.5605 19.1093V18.1093C7.69455 18.1093 4.56055 14.9753 4.56055 11.1093H3.56055H2.56055C2.56055 16.0799 6.58998 20.1093 11.5605 20.1093V19.1093ZM3.56055 11.1093H4.56055C4.56055 7.24332 7.69455 4.10932 11.5605 4.10932V3.10932V2.10932C6.58998 2.10932 2.56055 6.13875 2.56055 11.1093H3.56055ZM11.5605 3.10932V4.10932C15.4265 4.10932 18.5605 7.24332 18.5605 11.1093H19.5605H20.5605C20.5605 6.13875 16.5311 2.10932 11.5605 2.10932V3.10932ZM11.5605 5.10937H12.5605V1.10938H11.5605H10.5605V5.10937H11.5605ZM11.5605 21.1094H12.5605V17.1094H11.5605H10.5605V21.1094H11.5605ZM17.5605 11.1094V12.1094H21.5605V11.1094V10.1094H17.5605V11.1094ZM1.56055 11.1094V12.1094H5.56055V11.1094V10.1094H1.56055V11.1094ZM14.5605 11.1094H13.5605C13.5605 12.2139 12.6651 13.1094 11.5605 13.1094V14.1094V15.1094C13.7697 15.1094 15.5605 13.3185 15.5605 11.1094H14.5605ZM11.5605 14.1094V13.1094C10.456 13.1094 9.56055 12.2139 9.56055 11.1094H8.56055H7.56055C7.56055 13.3185 9.35141 15.1094 11.5605 15.1094V14.1094ZM8.56055 11.1094H9.56055C9.56055 10.0048 10.456 9.10938 11.5605 9.10938V8.10938V7.10938C9.35141 7.10938 7.56055 8.90024 7.56055 11.1094H8.56055ZM11.5605 8.10938V9.10938C12.6651 9.10938 13.5605 10.0048 13.5605 11.1094H14.5605H15.5605C15.5605 8.90024 13.7697 7.10938 11.5605 7.10938V8.10938Z" fill="black"/>
</svg>
