<svg width="27" height="27" viewBox="0 0 27 27" fill="none" xmlns="http://www.w3.org/2000/svg">
<path d="M13.9879 16.5078L13.3317 17.2624C13.708 17.5896 14.2678 17.5896 14.6441 17.2624L13.9879 16.5078ZM8.41107 17.3531C8.94235 17.2023 9.25073 16.6493 9.09985 16.118C8.94898 15.5867 8.39599 15.2783 7.86471 15.4292L8.41107 17.3531ZM20.1111 15.4292C19.5798 15.2783 19.0268 15.5867 18.8759 16.118C18.7251 16.6493 19.0334 17.2023 19.5647 17.3531L20.1111 15.4292ZM19.1879 8.59477H18.1879C18.1879 9.20456 17.9476 9.95139 17.4959 10.7859C17.0515 11.6071 16.4464 12.4335 15.8208 13.1815C15.198 13.9261 14.5724 14.5725 14.1011 15.0335C13.8661 15.2634 13.671 15.4457 13.5358 15.5696C13.4683 15.6314 13.4158 15.6786 13.3809 15.7097C13.3635 15.7252 13.3505 15.7367 13.3421 15.7441C13.338 15.7477 13.335 15.7503 13.3333 15.7518C13.3324 15.7526 13.3318 15.7531 13.3316 15.7533C13.3314 15.7535 13.3314 15.7535 13.3314 15.7535C13.3314 15.7535 13.3315 15.7534 13.3315 15.7534C13.3316 15.7533 13.3317 15.7532 13.9879 16.5078C14.6441 17.2624 14.6442 17.2623 14.6444 17.2621C14.6445 17.2621 14.6447 17.2619 14.6449 17.2617C14.6452 17.2614 14.6456 17.2611 14.6461 17.2606C14.6471 17.2598 14.6484 17.2586 14.6501 17.2572C14.6533 17.2544 14.6578 17.2504 14.6635 17.2454C14.6748 17.2354 14.691 17.2211 14.7117 17.2027C14.753 17.1659 14.8122 17.1126 14.8868 17.0442C15.0361 16.9075 15.2472 16.7101 15.4997 16.4631C16.0034 15.9703 16.6778 15.2743 17.355 14.4646C18.0294 13.6582 18.7243 12.7183 19.2549 11.7378C19.7782 10.7708 20.1879 9.68063 20.1879 8.59477H19.1879ZM13.9879 16.5078C14.6441 15.7532 14.6442 15.7533 14.6443 15.7534C14.6443 15.7534 14.6444 15.7535 14.6444 15.7535C14.6444 15.7535 14.6444 15.7535 14.6442 15.7533C14.644 15.7531 14.6434 15.7526 14.6425 15.7518C14.6408 15.7503 14.6378 15.7477 14.6336 15.7441C14.6253 15.7367 14.6123 15.7252 14.5949 15.7097C14.56 15.6786 14.5075 15.6314 14.44 15.5696C14.3048 15.4457 14.1097 15.2634 13.8747 15.0335C13.4034 14.5725 12.7778 13.9261 12.155 13.1815C11.5294 12.4335 10.9243 11.6071 10.4799 10.7859C10.0282 9.95139 9.78789 9.20456 9.78789 8.59477H8.78789H7.78789C7.78789 9.68063 8.19756 10.7708 8.72092 11.7378C9.25153 12.7183 9.94638 13.6582 10.6208 14.4646C11.298 15.2743 11.9724 15.9703 12.4761 16.4631C12.7286 16.7101 12.9397 16.9075 13.0889 17.0442C13.1636 17.1126 13.2228 17.1659 13.2641 17.2027C13.2848 17.2211 13.3009 17.2354 13.3123 17.2454C13.318 17.2504 13.3225 17.2544 13.3257 17.2572C13.3274 17.2586 13.3287 17.2598 13.3297 17.2606C13.3302 17.2611 13.3306 17.2614 13.3309 17.2617C13.3311 17.2619 13.3313 17.2621 13.3314 17.2621C13.3316 17.2623 13.3317 17.2624 13.9879 16.5078ZM8.78789 8.59477H9.78789C9.78789 6.35821 11.6475 4.50781 13.9879 4.50781V3.50781V2.50781C10.5846 2.50781 7.78789 5.21243 7.78789 8.59477H8.78789ZM13.9879 3.50781V4.50781C16.3283 4.50781 18.1879 6.35821 18.1879 8.59477H19.1879H20.1879C20.1879 5.21243 17.3912 2.50781 13.9879 2.50781V3.50781ZM24.3879 19.9745H23.3879C23.3879 20.2244 23.2705 20.5531 22.8688 20.9488C22.4636 21.348 21.8259 21.7536 20.9572 22.1155C19.2242 22.8376 16.7607 23.3078 13.9879 23.3078V24.3078V25.3078C16.9588 25.3078 19.6954 24.808 21.7264 23.9617C22.7398 23.5395 23.6251 23.0113 24.2724 22.3736C24.9232 21.7325 25.3879 20.9211 25.3879 19.9745H24.3879ZM13.9879 24.3078V23.3078C11.215 23.3078 8.7516 22.8376 7.01859 22.1155C6.14991 21.7536 5.5122 21.348 5.10696 20.9488C4.70523 20.5531 4.58789 20.2244 4.58789 19.9745H3.58789H2.58789C2.58789 20.9211 3.05258 21.7325 3.70339 22.3736C4.35068 23.0113 5.23602 23.5395 6.24936 23.9617C8.28042 24.808 11.017 25.3078 13.9879 25.3078V24.3078ZM3.58789 19.9745H4.58789C4.58789 19.6662 4.77361 19.2251 5.44341 18.7088C6.10318 18.2003 7.11086 17.7224 8.41107 17.3531L8.13789 16.3912L7.86471 15.4292C6.41832 15.84 5.151 16.409 4.22242 17.1248C3.30387 17.8328 2.58789 18.7933 2.58789 19.9745H3.58789ZM19.8379 16.3912L19.5647 17.3531C20.8649 17.7224 21.8726 18.2003 22.5324 18.7088C23.2022 19.2251 23.3879 19.6662 23.3879 19.9745H24.3879H25.3879C25.3879 18.7933 24.6719 17.8328 23.7534 17.1248C22.8248 16.409 21.5575 15.84 20.1111 15.4292L19.8379 16.3912Z" fill="black"/>
</svg>
