<svg width="27" height="26" viewBox="0 0 27 26" fill="none" xmlns="http://www.w3.org/2000/svg">
<path d="M5.06445 6.11527C5.06445 5.7171 5.30066 5.35687 5.66582 5.19815L12.9373 2.03753C13.1916 1.92701 13.4803 1.92701 13.7346 2.03753L21.0061 5.19815C21.3713 5.35687 21.6075 5.7171 21.6075 6.11527V12.1383C21.6075 15.5509 20.0236 18.7703 17.3201 20.8528L14.5564 22.9815C13.8371 23.5356 12.8348 23.5356 12.1155 22.9815L9.35188 20.8528C6.64834 18.7703 5.06445 15.5509 5.06445 12.1383V6.11527Z" stroke="black" stroke-width="2"/>
<path d="M9.85742 13.1915L11.1352 14.7463C11.3083 14.9569 11.6181 14.99 11.8318 14.8208L16.8162 10.8748" stroke="black" stroke-width="2" stroke-linecap="round"/>
</svg>
