<svg width="27" height="26" viewBox="0 0 27 26" fill="none" xmlns="http://www.w3.org/2000/svg">
<path d="M13.6719 15.7009L13.0157 16.4555C13.392 16.7827 13.9518 16.7827 14.3281 16.4555L13.6719 15.7009ZM7.77953 16.54C8.3108 16.3891 8.61918 15.8361 8.46831 15.3048C8.31744 14.7735 7.76444 14.4652 7.23317 14.616L7.77953 16.54ZM20.1106 14.616C19.5793 14.4652 19.0263 14.7735 18.8754 15.3048C18.7246 15.8361 19.0329 16.3891 19.5642 16.54L20.1106 14.616ZM19.1523 7.36108H18.1523C18.1523 8.0166 17.8945 8.81297 17.4165 9.69611C16.9459 10.5659 16.3057 11.4399 15.645 12.2298C14.9872 13.0163 14.3265 13.6989 13.8289 14.1856C13.5807 14.4284 13.3747 14.621 13.2318 14.7518C13.1605 14.8172 13.105 14.8671 13.0681 14.9C13.0496 14.9165 13.0358 14.9287 13.0269 14.9365C13.0225 14.9404 13.0193 14.9431 13.0175 14.9448C13.0165 14.9456 13.0159 14.9462 13.0156 14.9464C13.0154 14.9465 13.0154 14.9466 13.0154 14.9466C13.0154 14.9466 13.0155 14.9465 13.0155 14.9465C13.0156 14.9464 13.0157 14.9463 13.6719 15.7009C14.3281 16.4555 14.3282 16.4554 14.3284 16.4552C14.3285 16.4552 14.3287 16.455 14.3289 16.4548C14.3292 16.4545 14.3296 16.4542 14.3302 16.4537C14.3312 16.4528 14.3326 16.4516 14.3342 16.4501C14.3376 16.4472 14.3423 16.4431 14.3483 16.4378C14.3602 16.4274 14.3771 16.4124 14.3988 16.393C14.4421 16.3544 14.5044 16.2984 14.5829 16.2265C14.7398 16.0828 14.9619 15.8751 15.2275 15.6153C15.7575 15.0968 16.4669 14.3645 17.1792 13.5129C17.8887 12.6646 18.6186 11.6771 19.1755 10.648C19.7251 9.63234 20.1523 8.49268 20.1523 7.36108H19.1523ZM13.6719 15.7009C14.3281 14.9463 14.3282 14.9464 14.3283 14.9465C14.3283 14.9465 14.3283 14.9466 14.3284 14.9466C14.3284 14.9466 14.3283 14.9465 14.3282 14.9464C14.3279 14.9462 14.3272 14.9456 14.3263 14.9448C14.3244 14.9431 14.3212 14.9404 14.3168 14.9365C14.308 14.9287 14.2942 14.9165 14.2757 14.9C14.2388 14.8671 14.1833 14.8172 14.1119 14.7518C13.9691 14.621 13.763 14.4284 13.5148 14.1856C13.0173 13.6989 12.3566 13.0163 11.6987 12.2298C11.0381 11.4399 10.3979 10.5659 9.9272 9.69611C9.44927 8.81297 9.19141 8.0166 9.19141 7.36108H8.19141H7.19141C7.19141 8.49268 7.6186 9.63234 8.16826 10.648C8.72516 11.6771 9.45507 12.6646 10.1646 13.5129C10.8768 14.3645 11.5862 15.0968 12.1163 15.6153C12.3819 15.8751 12.604 16.0828 12.7609 16.2265C12.8393 16.2984 12.9016 16.3544 12.945 16.393C12.9666 16.4124 12.9836 16.4274 12.9955 16.4378C13.0014 16.4431 13.0061 16.4472 13.0095 16.4501C13.0112 16.4516 13.0126 16.4528 13.0136 16.4537C13.0141 16.4542 13.0145 16.4545 13.0149 16.4548C13.0151 16.455 13.0153 16.4552 13.0154 16.4552C13.0155 16.4554 13.0157 16.4555 13.6719 15.7009ZM8.19141 7.36108H9.19141C9.19141 4.97299 11.1765 2.99976 13.6719 2.99976V1.99976V0.999756C10.1136 0.999756 7.19141 3.82721 7.19141 7.36108H8.19141ZM13.6719 1.99976V2.99976C16.1672 2.99976 18.1523 4.97299 18.1523 7.36108H19.1523H20.1523C20.1523 3.82721 17.2301 0.999756 13.6719 0.999756V1.99976ZM24.6328 19.3546H23.6328C23.6328 19.6368 23.4998 19.9962 23.0697 20.4199C22.636 20.8471 21.9573 21.2778 21.0378 21.6609C19.2033 22.4253 16.5996 22.9216 13.6719 22.9216V23.9216V24.9216C16.7977 24.9216 19.6745 24.3956 21.807 23.507C22.8711 23.0637 23.7976 22.5103 24.4732 21.8447C25.1524 21.1756 25.6328 20.3335 25.6328 19.3546H24.6328ZM13.6719 23.9216V22.9216C10.7441 22.9216 8.14045 22.4253 6.30594 21.6609C5.38649 21.2778 4.70772 20.8471 4.27409 20.4199C3.84398 19.9962 3.71094 19.6368 3.71094 19.3546H2.71094H1.71094C1.71094 20.3335 2.19132 21.1756 2.87052 21.8447C3.54619 22.5103 4.47261 23.0637 5.53671 23.507C7.66927 24.3956 10.5461 24.9216 13.6719 24.9216V23.9216ZM2.71094 19.3546H3.71094C3.71094 19.0061 3.92098 18.5272 4.63361 17.9779C5.33621 17.4364 6.40524 16.9302 7.77953 16.54L7.50635 15.578L7.23317 14.616C5.71271 15.0478 4.38404 15.6451 3.41262 16.3939C2.45123 17.1349 1.71094 18.1333 1.71094 19.3546H2.71094ZM19.8374 15.578L19.5642 16.54C20.9385 16.9302 22.0075 17.4364 22.7101 17.9779C23.4228 18.5272 23.6328 19.0061 23.6328 19.3546H24.6328H25.6328C25.6328 18.1333 24.8925 17.1349 23.9311 16.3939C22.9597 15.6451 21.631 15.0478 20.1106 14.616L19.8374 15.578Z" fill="black"/>
</svg>
