<svg width="27" height="26" viewBox="0 0 27 26" fill="none" xmlns="http://www.w3.org/2000/svg">
<path d="M8.38192 6.31616V7.31616C8.73758 7.31616 9.06648 7.12725 9.2457 6.82003L8.38192 6.31616ZM10.2916 3.04248V2.04248C9.9359 2.04248 9.60699 2.23139 9.42778 2.53861L10.2916 3.04248ZM17.3845 3.04248L18.2483 2.53861C18.0691 2.23139 17.7402 2.04248 17.3845 2.04248V3.04248ZM19.2942 6.31616L18.4304 6.82003C18.6096 7.12725 18.9385 7.31616 19.2942 7.31616V6.31616ZM2.92578 20.2293H3.92578V9.04423H2.92578H1.92578V20.2293H2.92578ZM5.65385 6.31616V7.31616H8.38192V6.31616V5.31616H5.65385V6.31616ZM8.38192 6.31616L9.2457 6.82003L11.1553 3.54635L10.2916 3.04248L9.42778 2.53861L7.51814 5.81229L8.38192 6.31616ZM10.2916 3.04248V4.04248H17.3845V3.04248V2.04248H10.2916V3.04248ZM17.3845 3.04248L16.5208 3.54635L18.4304 6.82003L19.2942 6.31616L20.158 5.81229L18.2483 2.53861L17.3845 3.04248ZM19.2942 6.31616V7.31616H22.0223V6.31616V5.31616H19.2942V6.31616ZM24.7503 9.04423H23.7503V20.2293H24.7503H25.7503V9.04423H24.7503ZM24.7503 20.2293H23.7503C23.7503 21.1837 22.9766 21.9574 22.0223 21.9574V22.9574V23.9574C24.0812 23.9574 25.7503 22.2883 25.7503 20.2293H24.7503ZM22.0223 6.31616V7.31616C22.9766 7.31616 23.7503 8.08984 23.7503 9.04423H24.7503H25.7503C25.7503 6.98527 24.0812 5.31616 22.0223 5.31616V6.31616ZM2.92578 9.04423H3.92578C3.92578 8.08984 4.69946 7.31616 5.65385 7.31616V6.31616V5.31616C3.59489 5.31616 1.92578 6.98527 1.92578 9.04423H2.92578ZM5.65385 22.9574V21.9574C4.69946 21.9574 3.92578 21.1837 3.92578 20.2293H2.92578H1.92578C1.92578 22.2883 3.59489 23.9574 5.65385 23.9574V22.9574ZM17.9302 13.9548H16.9302C16.9302 15.6625 15.5458 17.0469 13.8381 17.0469V18.0469V19.0469C16.6503 19.0469 18.9302 16.767 18.9302 13.9548H17.9302ZM13.8381 18.0469V17.0469C12.1303 17.0469 10.7459 15.6625 10.7459 13.9548H9.74595H8.74595C8.74595 16.767 11.0258 19.0469 13.8381 19.0469V18.0469ZM9.74595 13.9548H10.7459C10.7459 12.247 12.1303 10.8626 13.8381 10.8626V9.86265V8.86265C11.0258 8.86265 8.74595 11.1425 8.74595 13.9548H9.74595ZM13.8381 9.86265V10.8626C15.5458 10.8626 16.9302 12.247 16.9302 13.9548H17.9302H18.9302C18.9302 11.1425 16.6503 8.86265 13.8381 8.86265V9.86265ZM22.0223 22.9574V21.9574H5.65385V22.9574V23.9574H22.0223V22.9574Z" fill="black"/>
</svg>
