<svg width="27" height="26" viewBox="0 0 27 26" fill="none" xmlns="http://www.w3.org/2000/svg">
<path d="M16.9234 2.06152V6.16344C16.9234 6.91858 17.5355 7.53074 18.2907 7.53074H22.3926M9.40318 7.53074H12.1378M9.40318 11.6327H17.607M9.40318 15.7346H17.607M20.3416 4.11248C19.7331 3.568 19.1016 2.92222 18.703 2.5028C18.4377 2.2237 18.0712 2.06152 17.6861 2.06152H7.3519C5.84163 2.06152 4.6173 3.28584 4.61729 4.79612L4.61719 21.2037C4.61718 22.714 5.8415 23.9383 7.35179 23.9383L19.6576 23.9384C21.1678 23.9384 22.3922 22.7141 22.3922 21.2038L22.3926 6.70789C22.3926 6.35827 22.2592 6.02219 22.0165 5.77049C21.5678 5.30505 20.8186 4.53921 20.3416 4.11248Z" stroke="black" stroke-width="2" stroke-linecap="round" stroke-linejoin="round"/>
</svg>
