<svg width="26" height="26" viewBox="0 0 26 26" fill="none" xmlns="http://www.w3.org/2000/svg">
<circle cx="13.0068" cy="13" r="10.9561" stroke="black" stroke-width="2"/>
<path d="M18.3615 7.36096C18.9947 8.40029 19.0182 9.75362 18.3091 10.841C17.3252 12.3493 15.3043 12.7751 13.796 11.7914C12.2876 10.8074 11.8631 8.78632 12.847 7.27797C13.5563 6.19093 14.8037 5.66655 16.01 5.82701L14.0993 8.75601L14.9311 10.0495L16.4509 10.29L18.3615 7.36096Z" fill="black"/>
<path d="M10.7552 19.0011C10.3356 19.6444 9.47401 19.8257 8.83075 19.4061C8.18749 18.9865 8.00618 18.1248 8.42579 17.4816L13.0762 10.3525L15.4056 11.8721L10.7552 19.0011ZM10.2169 17.2811C9.71468 16.9536 9.0417 17.0952 8.71407 17.5973C8.38645 18.0996 8.52812 18.7725 9.0303 19.1002C9.53256 19.4278 10.2055 19.2862 10.5331 18.7839C10.8607 18.2817 10.7191 17.6087 10.2169 17.2811Z" fill="black"/>
</svg>
