<svg width="27" height="26" viewBox="0 0 27 26" fill="none" xmlns="http://www.w3.org/2000/svg">
<path d="M5.56916 10.4645H21.7693C23.2605 10.4645 24.4693 11.7028 24.4693 13.2304V16.3749V20.606C24.4693 21.6244 23.6634 22.45 22.6693 22.45H20.8693C19.8752 22.45 19.0693 21.6244 19.0693 20.606V20.4908C19.0693 19.7452 18.4648 19.1408 17.7193 19.1408V19.1408H13.6692H9.61919V19.1408C8.8736 19.1408 8.26918 19.7452 8.26918 20.4908V20.606C8.26918 21.6244 7.46329 22.45 6.46917 22.45H4.66915C3.67503 22.45 2.86914 21.6244 2.86914 20.606V16.3749V13.2304C2.86914 11.7028 4.07798 10.4645 5.56916 10.4645ZM5.56916 10.4645L7.01285 4.91861C7.22297 4.11143 7.93659 3.5498 8.75209 3.5498H18.6719C19.4467 3.5498 20.1345 4.05767 20.3795 4.81062L22.2193 10.4645M6.01917 14.6133H9.16919M18.1693 14.6133H21.3193" stroke="black" stroke-width="2" stroke-linecap="round" stroke-linejoin="round"/>
</svg>
