<svg width="27" height="26" viewBox="0 0 27 26" fill="none" xmlns="http://www.w3.org/2000/svg">
<circle cx="13.3398" cy="13" r="11" stroke="black" stroke-width="2"/>
<path d="M10.7 17.9005C10.1477 17.9005 9.70001 17.4527 9.70001 16.9005C9.70001 16.3482 10.1477 15.9005 10.7 15.9005V17.9005ZM14.0206 13.0002V14.0002H12.703V13.0002V12.0002H14.0206V13.0002ZM10.7 16.9005V15.9005H14.0206V16.9005V17.9005H10.7V16.9005ZM14.0206 16.9005V15.9005C14.5453 15.9005 14.9707 15.4751 14.9707 14.9504H15.9707H16.9707C16.9707 16.5797 15.6499 17.9005 14.0206 17.9005V16.9005ZM14.0206 13.0002V12.0002C15.6499 12.0002 16.9707 13.3211 16.9707 14.9504H15.9707H14.9707C14.9707 14.4256 14.5453 14.0002 14.0206 14.0002V13.0002Z" fill="black"/>
<path d="M15.9826 10.1001C16.5349 10.1001 16.9826 9.65238 16.9826 9.1001C16.9826 8.54781 16.5349 8.1001 15.9826 8.1001V10.1001ZM12.6474 9.1001V10.1001H15.9826V9.1001V8.1001H12.6474V9.1001ZM12.8994 13.0003V12.0003H12.6474V13.0003V14.0003H12.8994V13.0003ZM12.6474 13.0003V12.0003C12.1226 12.0003 11.6973 11.5749 11.6973 11.0502H10.6973H9.69727C9.69727 12.6795 11.0181 14.0003 12.6474 14.0003V13.0003ZM12.6474 9.1001V8.1001C11.0181 8.1001 9.69727 9.42091 9.69727 11.0502H10.6973H11.6973C11.6973 10.5255 12.1226 10.1001 12.6474 10.1001V9.1001Z" fill="black"/>
<path d="M12.3398 17.489H14.3398V19.0779C14.3398 19.6302 13.8921 20.0779 13.3398 20.0779C12.7876 20.0779 12.3398 19.6302 12.3398 19.0779V17.489Z" fill="black"/>
<path d="M12.3398 8.51099H14.3398V6.92212C14.3398 6.36983 13.8921 5.92212 13.3398 5.92212C12.7876 5.92212 12.3398 6.36983 12.3398 6.92212V8.51099Z" fill="black"/>
</svg>
