<svg width="26" height="26" viewBox="0 0 26 26" fill="none" xmlns="http://www.w3.org/2000/svg">
<circle cx="13.0913" cy="13.0943" r="9.36478" stroke="black" stroke-width="2"/>
<path d="M17.0399 8.69577C17.5418 8.54284 17.9959 9.04279 17.7957 9.52781L14.4832 17.5532C14.2376 18.1481 13.3614 18.0232 13.2918 17.3833L12.9061 13.8423C12.8773 13.5774 12.6829 13.3599 12.4227 13.3022L8.65317 12.4673C8.02924 12.329 7.99498 11.4524 8.60629 11.2661L17.0399 8.69577Z" fill="black"/>
<rect x="19.8984" y="11.9553" width="5.32685" height="2" rx="0.887808" fill="black"/>
<rect x="1.01562" y="11.9553" width="5.32685" height="2" rx="0.887808" fill="black"/>
<rect x="14.0273" y="20.0125" width="5.32685" height="2" rx="0.887808" transform="rotate(90 14.0273 20.0125)" fill="black"/>
<rect x="14.0273" y="1.1001" width="5.32685" height="2" rx="0.887808" transform="rotate(90 14.0273 1.1001)" fill="black"/>
</svg>
