<svg width="27" height="27" viewBox="0 0 27 27" fill="none" xmlns="http://www.w3.org/2000/svg">
<path fill-rule="evenodd" clip-rule="evenodd" d="M15.8043 5.57045C15.3411 3.67443 12.6354 3.67443 12.1723 5.57045C12.1031 5.85535 11.9675 6.11996 11.7765 6.34272C11.5854 6.56549 11.3443 6.74012 11.0728 6.85241C10.8012 6.9647 10.5069 7.01147 10.2139 6.98892C9.92078 6.96637 9.63718 6.87514 9.38614 6.72264C7.71396 5.70657 5.80046 7.61474 6.81937 9.28226C7.47752 10.3591 6.89372 11.7641 5.66518 12.0619C3.76265 12.5225 3.76265 15.2219 5.66518 15.6813C5.95096 15.7503 6.21634 15.8857 6.43973 16.0764C6.66312 16.2671 6.83819 16.5077 6.95068 16.7786C7.06318 17.0495 7.10992 17.3431 7.0871 17.6354C7.06428 17.9278 6.97255 18.2106 6.81937 18.4609C5.80046 20.1284 7.71396 22.0366 9.38614 21.0205C9.63713 20.8678 9.92076 20.7763 10.2139 20.7535C10.5071 20.7308 10.8015 20.7774 11.0732 20.8896C11.3448 21.0018 11.5861 21.1763 11.7773 21.3991C11.9685 21.6219 12.1043 21.8865 12.1735 22.1715C12.6354 24.0687 15.3424 24.0687 15.8031 22.1715C15.8725 21.8867 16.0084 21.6222 16.1997 21.3996C16.3909 21.177 16.6321 21.0025 16.9037 20.8904C17.1753 20.7782 17.4696 20.7315 17.7627 20.7542C18.0558 20.7768 18.3394 20.868 18.5904 21.0205C20.2626 22.0366 22.1761 20.1284 21.1572 18.4609C21.0043 18.2105 20.9128 17.9277 20.8901 17.6355C20.8674 17.3432 20.9142 17.0497 21.0267 16.7789C21.1391 16.5081 21.3141 16.2675 21.5373 16.0768C21.7605 15.8861 22.0258 15.7506 22.3114 15.6813C24.2139 15.2207 24.2139 12.5213 22.3114 12.0619C22.0256 11.9928 21.7602 11.8574 21.5368 11.6668C21.3134 11.4761 21.1384 11.2355 21.0259 10.9646C20.9134 10.6937 20.8666 10.4001 20.8895 10.1077C20.9123 9.81539 21.004 9.53255 21.1572 9.28226C22.1761 7.61474 20.2626 5.70657 18.5904 6.72264C18.3394 6.87539 18.0558 6.96687 17.7626 6.98962C17.4695 7.01238 17.1751 6.96577 16.9034 6.85359C16.6317 6.7414 16.3905 6.56682 16.1993 6.34406C16.008 6.12129 15.8723 5.85665 15.8031 5.57166L15.8043 5.57045Z" stroke="black" stroke-width="2"/>
<path d="M16.1549 13.8714C16.1549 15.0647 15.1849 16.0321 13.9883 16.0321C12.7917 16.0321 11.8216 15.0647 11.8216 13.8714C11.8216 12.6781 12.7917 11.7108 13.9883 11.7108C15.1849 11.7108 16.1549 12.6781 16.1549 13.8714Z" stroke="black" stroke-width="2"/>
</svg>
