<svg width="38" height="39" viewBox="0 0 38 39" fill="none" xmlns="http://www.w3.org/2000/svg">
<rect y="0.275879" width="38" height="38" rx="6" fill="white"/>
<path d="M13.0348 16.0327L10.7578 23.0201H11.6587L12.3416 20.822H14.7078L15.4216 23.0201H16.3431L14.0644 16.0327H13.0348ZM12.52 20.1184L13.1738 18.097C13.3025 17.6714 13.4123 17.2459 13.4998 16.8306H13.529C13.6285 17.2356 13.728 17.6509 13.8773 18.1056L14.5311 20.1184H12.52Z" fill="#FF0000"/>
<path d="M20.1518 19.2737V19.2514C20.8451 18.9922 21.2792 18.3917 21.2792 17.7173C21.2792 17.1682 21.0733 16.7529 20.7164 16.4835C20.3097 16.1317 19.7555 15.9756 18.8941 15.9756C18.3004 15.9756 17.6947 16.0374 17.3086 16.1197V22.9939C17.6072 23.0368 18.0516 23.0763 18.6556 23.0763C19.7452 23.0763 20.4985 22.8703 20.9532 22.4242C21.3101 22.0827 21.528 21.6263 21.528 21.036C21.528 19.9772 20.785 19.4384 20.1518 19.2737ZM18.182 16.7323C18.3193 16.7014 18.5475 16.6706 18.9438 16.6706C19.8138 16.6706 20.4092 16.9914 20.4092 17.8099C20.4092 18.4843 19.8653 18.9922 18.9627 18.9922H18.182V16.7323ZM18.9044 22.3727C18.5869 22.3727 18.3587 22.3624 18.182 22.3315V19.6666H18.8941C19.8344 19.6666 20.6272 20.0613 20.6272 21.024C20.6272 22.0295 19.7949 22.3727 18.9044 22.3727Z" fill="#FF0000"/>
<path d="M24.6933 19.0537C23.7736 18.6814 23.3669 18.3605 23.3669 17.7067C23.3669 17.2297 23.7135 16.66 24.6247 16.66C25.2287 16.66 25.6731 16.8676 25.891 16.9912L26.1295 16.255C25.8327 16.0886 25.3265 15.9238 24.6538 15.9238C23.3566 15.9238 22.4952 16.732 22.4952 17.8097C22.4952 18.7843 23.1696 19.3969 24.2472 19.7899C25.1583 20.1537 25.5152 20.526 25.5152 21.1798C25.5152 21.8851 25.0005 22.3724 24.1185 22.3724C23.5248 22.3724 22.9602 22.1648 22.5742 21.916L22.3477 22.6727C22.7046 22.9215 23.4064 23.1291 24.0601 23.1291C25.6336 23.1291 26.3972 22.1854 26.3972 21.1078C26.3972 20.0816 25.8224 19.5205 24.6933 19.0537Z" fill="#FF0000"/>
<path d="M19.0024 7.12939C12.3052 7.12939 6.85547 12.5776 6.85547 19.275C6.85547 25.9724 12.3052 31.4222 19.0024 31.4222C25.6995 31.4222 31.1475 25.9724 31.1475 19.275C31.1475 12.5776 25.6995 7.12939 19.0024 7.12939ZM19.0024 29.1417C13.5629 29.1417 9.13762 24.7146 9.13762 19.275C9.13762 13.8354 13.5629 9.40991 19.0024 9.40991C24.4418 9.40991 28.8671 13.8354 28.8671 19.275C28.8671 24.7146 24.4418 29.1417 19.0024 29.1417Z" fill="#FF0000"/>
<path d="M9.71364 30.4532C9.50945 30.2954 4.66715 26.5443 4.66715 19.2772C4.66715 12.0101 9.50945 8.25557 9.71536 8.09942C10.2164 7.7219 10.3176 7.00806 9.94186 6.50528C9.56436 6.00079 8.85053 5.89784 8.34606 6.27535C8.1024 6.45724 2.38672 10.8329 2.38672 19.2772C2.38672 27.7214 8.1024 32.0937 8.34606 32.2773C8.55025 32.43 8.78876 32.5038 9.02556 32.5038C9.37217 32.5038 9.71364 32.3459 9.93842 32.0491C10.3176 31.5463 10.2147 30.8325 9.71364 30.4532Z" fill="#FF0000"/>
<path d="M29.6486 6.27547C29.1441 5.89795 28.4337 6.0009 28.0562 6.50368C27.677 7.00646 27.7783 7.72031 28.2793 8.09953C28.4852 8.25569 33.3275 12.0085 33.3275 19.2739C33.3275 26.541 28.4852 30.2955 28.2793 30.4534C27.7765 30.8309 27.6753 31.543 28.0511 32.0475C28.2759 32.3461 28.619 32.5039 28.9657 32.5039C29.2042 32.5039 29.4444 32.4302 29.6486 32.2774C29.8923 32.0938 35.6079 27.7198 35.6079 19.2739C35.6079 10.8296 29.8905 6.45736 29.6486 6.27547Z" fill="#FF0000"/>
</svg>
