<svg width="38" height="38" viewBox="0 0 38 38" fill="none" xmlns="http://www.w3.org/2000/svg">
<rect width="38" height="38" rx="6" fill="white"/>
<path d="M13.0368 15.7568L10.7598 22.7442H11.6606L12.3435 20.5461H14.7098L15.4236 22.7442H16.345L14.0663 15.7568H13.0368ZM12.522 19.8425L13.1758 17.8211C13.3045 17.3956 13.4143 16.97 13.5018 16.5547H13.531C13.6305 16.9597 13.73 17.375 13.8793 17.8297L14.533 19.8425H12.522Z" fill="black"/>
<path d="M20.1518 18.9978V18.9755C20.8451 18.7164 21.2792 18.1158 21.2792 17.4414C21.2792 16.8923 21.0733 16.477 20.7164 16.2076C20.3097 15.8559 19.7555 15.6997 18.8941 15.6997C18.3004 15.6997 17.6947 15.7615 17.3086 15.8438V22.718C17.6072 22.7609 18.0516 22.8004 18.6556 22.8004C19.7452 22.8004 20.4985 22.5944 20.9532 22.1483C21.3101 21.8068 21.528 21.3504 21.528 20.7601C21.528 19.7013 20.785 19.1625 20.1518 18.9978ZM18.182 16.4565C18.3193 16.4256 18.5475 16.3947 18.9438 16.3947C19.8138 16.3947 20.4092 16.7155 20.4092 17.5341C20.4092 18.2084 19.8653 18.7164 18.9627 18.7164H18.182V16.4565ZM18.9044 22.0968C18.5869 22.0968 18.3587 22.0865 18.182 22.0556V19.3908H18.8941C19.8344 19.3908 20.6272 19.7854 20.6272 20.7481C20.6272 21.7536 19.7949 22.0968 18.9044 22.0968Z" fill="black"/>
<path d="M24.6933 18.7774C23.7736 18.405 23.3669 18.0841 23.3669 17.4303C23.3669 16.9533 23.7135 16.3836 24.6247 16.3836C25.2287 16.3836 25.6731 16.5913 25.891 16.7148L26.1295 15.9787C25.8327 15.8122 25.3265 15.6475 24.6538 15.6475C23.3566 15.6475 22.4952 16.4557 22.4952 17.5333C22.4952 18.508 23.1696 19.1206 24.2472 19.5135C25.1583 19.8773 25.5152 20.2497 25.5152 20.9034C25.5152 21.6087 25.0005 22.096 24.1185 22.096C23.5248 22.096 22.9602 21.8884 22.5742 21.6396L22.3477 22.3963C22.7046 22.6452 23.4064 22.8528 24.0601 22.8528C25.6336 22.8528 26.3972 21.909 26.3972 20.8314C26.3972 19.8052 25.8224 19.2441 24.6933 18.7774Z" fill="black"/>
<path d="M19.0004 6.85352C12.3032 6.85352 6.85352 12.3017 6.85352 18.9991C6.85352 25.6965 12.3032 31.1464 19.0004 31.1464C25.6976 31.1464 31.1456 25.6965 31.1456 18.9991C31.1456 12.3017 25.6976 6.85352 19.0004 6.85352ZM19.0004 28.8659C13.561 28.8659 9.13567 24.4387 9.13567 18.9991C9.13567 13.5595 13.561 9.13403 19.0004 9.13403C24.4398 9.13403 28.8651 13.5595 28.8651 18.9991C28.8651 24.4387 24.4398 28.8659 19.0004 28.8659Z" fill="black"/>
<path d="M9.71364 30.1774C9.50945 30.0195 4.66715 26.2684 4.66715 19.0013C4.66715 11.7342 9.50945 7.97969 9.71536 7.82354C10.2164 7.44603 10.3176 6.73218 9.94186 6.2294C9.56436 5.72491 8.85053 5.62196 8.34606 5.99947C8.1024 6.18136 2.38672 10.5571 2.38672 19.0013C2.38672 27.4455 8.1024 31.8178 8.34606 32.0014C8.55025 32.1541 8.78876 32.2279 9.02556 32.2279C9.37217 32.2279 9.71364 32.07 9.93842 31.7732C10.3176 31.2704 10.2147 30.5566 9.71364 30.1774Z" fill="black"/>
<path d="M29.6505 5.99959C29.1461 5.62208 28.4357 5.72503 28.0582 6.2278C27.679 6.73058 27.7802 7.44443 28.2812 7.82366C28.4872 7.97981 33.3294 11.7326 33.3294 18.998C33.3294 26.2651 28.4872 30.0196 28.2812 30.1775C27.7785 30.555 27.6773 31.2671 28.053 31.7716C28.2778 32.0702 28.621 32.2281 28.9676 32.2281C29.2061 32.2281 29.4464 32.1543 29.6505 32.0016C29.8942 31.818 35.6099 27.444 35.6099 18.998C35.6099 10.5538 29.8925 6.18148 29.6505 5.99959Z" fill="black"/>
</svg>
