<svg width="38" height="39" viewBox="0 0 38 39" fill="none" xmlns="http://www.w3.org/2000/svg">
<g clip-path="url(#clip0_5797_1471)">
<rect y="0.457031" width="38" height="38.029" rx="6" fill="white"/>
<path d="M18.9979 9.15967C18.6665 9.15967 18.3425 9.25794 18.067 9.44206C17.7914 9.62618 17.5766 9.88788 17.4498 10.1941C17.323 10.5002 17.2898 10.8371 17.3545 11.1622C17.4191 11.4872 17.5787 11.7858 17.813 12.0201C18.0474 12.2545 18.346 12.4141 18.671 12.4787C18.996 12.5434 19.3329 12.5102 19.6391 12.3834C19.9453 12.2565 20.207 12.0418 20.3911 11.7662C20.5752 11.4907 20.6735 11.1667 20.6735 10.8353C20.6732 10.391 20.4966 9.96495 20.1824 9.65078C19.8682 9.3366 19.4422 9.15997 18.9979 9.15967Z" fill="black"/>
<path d="M15.4547 7.29232C15.298 7.44985 15.2103 7.66317 15.2109 7.88535C15.2116 8.10753 15.3004 8.32037 15.4579 8.47704C15.6155 8.63371 15.8288 8.72139 16.051 8.72078C16.2732 8.72016 16.486 8.63132 16.6427 8.47378C17.2741 7.85993 18.12 7.51652 19.0006 7.51652C19.8813 7.51652 20.7272 7.85993 21.3586 8.47378C21.4362 8.55239 21.5287 8.61474 21.6307 8.65717C21.7327 8.69961 21.8421 8.72129 21.9526 8.72093C22.1181 8.7209 22.2798 8.67186 22.4175 8.58001C22.5551 8.48815 22.6625 8.3576 22.726 8.20481C22.7895 8.05201 22.8064 7.88383 22.7745 7.72146C22.7425 7.5591 22.6633 7.40983 22.5466 7.29247C20.6452 5.3778 17.3561 5.3778 15.4547 7.29232Z" fill="black"/>
<path d="M24.9022 4.93936C24.1331 4.15351 23.2149 3.52913 22.2014 3.10287C21.1879 2.6766 20.0994 2.45703 18.9999 2.45703C17.9003 2.45703 16.8119 2.6766 15.7983 3.10287C14.7848 3.52913 13.8666 4.15351 13.0976 4.93936C12.9413 5.09733 12.8543 5.3109 12.8555 5.53308C12.8567 5.75525 12.9461 5.96784 13.1041 6.12408C13.2621 6.28031 13.4756 6.36739 13.6978 6.36617C13.92 6.36494 14.1326 6.2755 14.2888 6.11753C16.8186 3.55829 21.1811 3.55829 23.7109 6.11753C23.8671 6.2755 24.0797 6.36494 24.3019 6.36617C24.5241 6.36739 24.7377 6.28031 24.8956 6.12408C25.0536 5.96784 25.143 5.75525 25.1443 5.53308C25.1455 5.3109 25.0584 5.09733 24.9022 4.93936Z" fill="black"/>
<path d="M14.2217 18.564C13.9483 18.564 13.7222 18.5072 13.5435 18.3936C13.3647 18.2787 13.2392 18.1166 13.167 17.907C13.096 17.6963 13.0842 17.4484 13.1315 17.1631C13.1777 16.8825 13.2718 16.6363 13.4138 16.4244C13.5559 16.2114 13.7334 16.0457 13.9465 15.9273C14.1608 15.8077 14.3975 15.748 14.6567 15.748C14.8248 15.748 14.9793 15.7752 15.1202 15.8296C15.261 15.8829 15.38 15.9658 15.4771 16.0782C15.5741 16.1907 15.641 16.3339 15.6777 16.5079C15.7144 16.6807 15.7126 16.8867 15.6724 17.1258L15.6422 17.3229H13.405L13.4742 16.8896H15.0935C15.1148 16.7665 15.1077 16.657 15.0722 16.5612C15.0367 16.4641 14.9775 16.3878 14.8947 16.3321C14.8118 16.2765 14.7082 16.2487 14.5839 16.2487C14.4573 16.2487 14.3389 16.2812 14.2288 16.3463C14.1199 16.4102 14.0282 16.4931 13.9536 16.5949C13.879 16.6967 13.8317 16.8038 13.8116 16.9163L13.7388 17.3318C13.7127 17.5022 13.7186 17.6413 13.7565 17.749C13.7944 17.8567 13.8607 17.936 13.9554 17.9869C14.0501 18.0378 14.1696 18.0633 14.3141 18.0633C14.4088 18.0633 14.4963 18.0503 14.5768 18.0242C14.6573 17.9982 14.7289 17.9591 14.7917 17.907C14.8556 17.8538 14.9089 17.7887 14.9515 17.7117L15.5392 17.7792C15.4741 17.9378 15.3788 18.0763 15.2533 18.1947C15.1279 18.3119 14.9775 18.403 14.8023 18.4681C14.6283 18.532 14.4348 18.564 14.2217 18.564ZM19.5271 16.1013H18.8737C18.8737 15.9924 18.856 15.8959 18.8204 15.8119C18.7849 15.7267 18.7352 15.6544 18.6713 15.5953C18.6074 15.5361 18.5316 15.4917 18.444 15.4621C18.3564 15.4313 18.2594 15.4159 18.1528 15.4159C17.9492 15.4159 17.7598 15.4674 17.5847 15.5704C17.4095 15.6734 17.2609 15.8231 17.139 16.0196C17.0171 16.2149 16.9324 16.4523 16.8851 16.7316C16.8413 17.0039 16.8454 17.2317 16.8975 17.4152C16.9508 17.5987 17.0431 17.7372 17.1745 17.8307C17.3059 17.923 17.4657 17.9692 17.6539 17.9692C17.7687 17.9692 17.8788 17.955 17.9842 17.9266C18.0895 17.897 18.1866 17.8538 18.2753 17.797C18.3653 17.739 18.444 17.6685 18.5115 17.5857C18.5802 17.5028 18.6334 17.4087 18.6713 17.3034H19.3336C19.2791 17.4762 19.1992 17.6389 19.0939 17.7916C18.9885 17.9432 18.8619 18.0769 18.7139 18.1929C18.5659 18.3077 18.4002 18.3977 18.2168 18.4628C18.0333 18.5279 17.8356 18.5605 17.6237 18.5605C17.2982 18.5605 17.0194 18.4847 16.7874 18.3332C16.5566 18.1805 16.3909 17.9621 16.2903 17.678C16.1896 17.3927 16.1719 17.0512 16.237 16.6535C16.3021 16.2664 16.4276 15.9368 16.6134 15.6645C16.8004 15.3923 17.0283 15.1845 17.297 15.0413C17.5669 14.8969 17.8575 14.8247 18.1688 14.8247C18.3748 14.8247 18.5618 14.8531 18.7299 14.9099C18.8992 14.9667 19.0442 15.0502 19.1649 15.1602C19.2856 15.2691 19.3774 15.4029 19.4401 15.5615C19.504 15.719 19.533 15.8989 19.5271 16.1013ZM20.4837 18.5658C20.3109 18.5658 20.1606 18.535 20.0327 18.4735C19.9049 18.4107 19.8108 18.3184 19.7504 18.1965C19.6912 18.0745 19.6764 17.9242 19.706 17.7455C19.7321 17.5916 19.7818 17.4643 19.8552 17.3637C19.9297 17.2631 20.0209 17.1826 20.1286 17.1222C20.2375 17.0607 20.3559 17.0145 20.4837 16.9838C20.6127 16.953 20.7441 16.9305 20.8779 16.9163C21.0412 16.8997 21.1732 16.8843 21.2738 16.8701C21.3756 16.8559 21.452 16.8346 21.5029 16.8062C21.5538 16.7766 21.5846 16.7316 21.5952 16.6713V16.6606C21.6165 16.5268 21.5952 16.4233 21.5313 16.3499C21.4674 16.2765 21.3608 16.2398 21.2117 16.2398C21.0554 16.2398 20.9241 16.2741 20.8175 16.3428C20.711 16.4114 20.6334 16.4925 20.5849 16.586L20.0025 16.5008C20.0759 16.3351 20.1765 16.1966 20.3044 16.0853C20.4322 15.9729 20.5796 15.8888 20.7465 15.8332C20.9146 15.7764 21.0939 15.748 21.2845 15.748C21.4147 15.748 21.5419 15.7633 21.6662 15.7941C21.7917 15.8249 21.9024 15.8758 21.9983 15.9468C22.0953 16.0167 22.1664 16.1119 22.2113 16.2327C22.2575 16.3534 22.2652 16.5044 22.2344 16.6855L21.9308 18.5107H21.3129L21.3768 18.1361H21.3555C21.3046 18.2119 21.2383 18.2829 21.1566 18.3492C21.075 18.4143 20.9779 18.4669 20.8655 18.5072C20.753 18.5463 20.6258 18.5658 20.4837 18.5658ZM20.727 18.0935C20.856 18.0935 20.972 18.068 21.075 18.0171C21.178 17.9651 21.2626 17.8964 21.3289 17.8112C21.3952 17.7259 21.4366 17.633 21.4532 17.5324L21.5064 17.211C21.4828 17.2276 21.4461 17.243 21.3964 17.2572C21.3466 17.2714 21.291 17.2838 21.2294 17.2945C21.1691 17.3051 21.1093 17.3146 21.0501 17.3229C20.9909 17.3312 20.94 17.3383 20.8974 17.3442C20.7992 17.3572 20.7092 17.3785 20.6275 17.4081C20.547 17.4377 20.4802 17.4791 20.4269 17.5324C20.3748 17.5845 20.3423 17.652 20.3292 17.7348C20.3103 17.852 20.3381 17.9414 20.4127 18.0029C20.4873 18.0633 20.592 18.0935 20.727 18.0935ZM23.8236 14.8744L23.2199 18.5107H22.5771L23.1808 14.8744H23.8236ZM25.1273 14.8744L24.5236 18.5107H23.8808L24.4845 14.8744H25.1273Z" fill="black"/>
<path d="M23.9743 30.6805C24.2294 30.6805 24.4376 30.4801 24.45 30.2281C24.4504 30.2202 24.4506 30.2123 24.4506 30.2043C24.4506 29.9413 24.2374 29.728 23.9743 29.728C23.7113 29.728 23.498 29.9413 23.498 30.2043C23.498 30.2123 23.4983 30.2202 23.4987 30.2281C23.511 30.4801 23.7193 30.6805 23.9743 30.6805Z" fill="black"/>
<path d="M20.2404 30.3187H21.697C21.7562 31.5259 22.7538 32.4861 23.9758 32.4861C25.1978 32.4861 26.1955 31.5259 26.2547 30.3187H36.5748C36.6341 31.5259 37.6317 32.4861 38.8537 32.4861C40.0756 32.4861 41.0733 31.5259 41.1325 30.3187H42.3264C42.4604 30.3187 42.5821 30.2585 42.6701 30.1615C42.758 30.0646 42.8125 29.9308 42.8125 29.7827C42.8125 29.6553 42.7714 29.532 42.6962 29.435L42.4484 29.1151C43.0018 27.862 42.8079 26.0663 42.6233 25.0325C42.5173 24.4371 42.192 23.9165 41.7229 23.5992C41.1609 23.2188 40.2037 22.6989 38.626 22.1445C35.4859 21.0416 29.935 22.0001 28.842 22.8968C27.9711 23.6109 26.2479 25.304 24.0637 25.5547C22.9287 25.6848 21.9568 26.0168 21.2848 26.306C20.6866 26.5631 20.2865 27.19 20.2647 27.8971L20.241 28.6637L19.8622 28.9422C19.7672 29.0121 19.6914 29.1054 19.6392 29.213C19.587 29.3203 19.5586 29.442 19.5586 29.5674C19.5586 29.9823 19.8639 30.3187 20.2404 30.3187ZM40.295 30.3187C40.2368 31.0625 39.6126 31.6503 38.8537 31.6503C38.0948 31.6503 37.4706 31.0625 37.4124 30.3187C37.4094 30.2812 37.4077 30.2431 37.4077 30.2047C37.4077 29.4073 38.0563 28.7587 38.8537 28.7587C39.6511 28.7587 40.2997 29.4073 40.2997 30.2047C40.2997 30.2431 40.298 30.2812 40.295 30.3187ZM42.1421 26.659C42.2536 26.6821 42.335 26.7777 42.3412 26.8914C42.3687 27.3973 42.2936 27.9183 42.2435 28.1968C42.2221 28.3158 42.1185 28.402 41.9977 28.402H41.8306C41.6834 28.402 41.5681 28.2754 41.5818 28.1289L41.6822 27.0581C41.6872 27.0045 41.7095 26.954 41.7456 26.914L41.9061 26.7363C41.9655 26.6705 42.0553 26.6411 42.1421 26.659ZM37.2417 24.3356L37.4098 23.5532C37.4833 23.2109 37.7686 22.9547 38.1168 22.9182L38.2593 22.9032C38.2893 22.9131 38.3198 22.9228 38.349 22.9331C39.8938 23.4759 40.7817 23.9713 41.2544 24.2913C41.5348 24.481 41.7338 24.8045 41.8004 25.179C41.8085 25.2245 41.8164 25.2698 41.8239 25.315H38.0331C37.8603 25.315 37.6921 25.2597 37.5529 25.1572C37.2966 24.9684 37.1749 24.6468 37.2417 24.3356ZM33.783 27.1316H32.9472C32.7902 27.1316 32.663 27.0043 32.663 26.8474C32.663 26.6904 32.7902 26.5632 32.9472 26.5632H33.783C33.9399 26.5632 34.0672 26.6904 34.0672 26.8474C34.0672 27.0043 33.9399 27.1316 33.783 27.1316ZM29.0351 23.8277C29.1633 23.7182 29.274 23.6235 29.372 23.5431C29.5176 23.4237 30.129 23.128 31.4015 22.8629C32.4604 22.6423 33.635 22.5119 34.7464 22.4892L34.3578 24.7185C34.2597 25.2812 33.7825 25.6993 33.2118 25.7225L27.4082 25.958C27.0777 25.9714 26.7596 25.8492 26.5239 25.6254C27.5777 25.0726 28.429 24.3456 29.0351 23.8277ZM23.9758 28.7587C24.7733 28.7587 25.4218 29.4073 25.4218 30.2047C25.4218 30.2431 25.4202 30.2812 25.4171 30.3187C25.359 31.0625 24.7348 31.6503 23.9758 31.6503C23.2169 31.6503 22.5927 31.0625 22.5346 30.3187C22.5315 30.2812 22.5298 30.2431 22.5298 30.2047C22.5299 29.4073 23.1785 28.7587 23.9758 28.7587ZM21.1396 27.1539C21.3673 27.1539 21.5519 27.4333 21.5519 27.778C21.5519 28.1226 21.3673 28.4021 21.1396 28.4021C20.9119 28.4021 20.7273 28.1227 20.7273 27.778C20.7273 27.4333 20.9119 27.1539 21.1396 27.1539Z" fill="black"/>
<path d="M14.0237 30.6805C13.7687 30.6805 13.5604 30.4801 13.5481 30.2281C13.5476 30.2202 13.5474 30.2123 13.5474 30.2043C13.5474 29.9413 13.7607 29.728 14.0237 29.728C14.2867 29.728 14.5 29.9413 14.5 30.2043C14.5 30.2123 14.4998 30.2202 14.4994 30.2281C14.487 30.4801 14.2788 30.6805 14.0237 30.6805Z" fill="black"/>
<path d="M17.7577 30.3182H16.301C16.2418 31.5254 15.2442 32.4857 14.0222 32.4857C12.8002 32.4857 11.8025 31.5254 11.7434 30.3182H1.4232C1.36399 31.5254 0.366373 32.4857 -0.855614 32.4857C-2.0776 32.4857 -3.07528 31.5254 -3.13443 30.3182H-4.32833C-4.4624 30.3182 -4.5841 30.258 -4.67202 30.161C-4.75995 30.0641 -4.81445 29.9303 -4.81445 29.7822C-4.81445 29.6549 -4.77336 29.5315 -4.69814 29.4345L-4.4504 29.1146C-5.00372 27.8615 -4.8098 26.0658 -4.62522 25.032C-4.51924 24.4366 -4.19396 23.916 -3.72486 23.5987C-3.16281 23.2183 -2.20565 22.6984 -0.627932 22.1441C2.51212 21.0411 8.06306 21.9996 9.15603 22.8963C10.027 23.6104 11.7501 25.3035 13.9343 25.5543C15.0693 25.6843 16.0413 26.0163 16.7133 26.3055C17.3114 26.5626 17.7116 27.1895 17.7333 27.8966L17.7571 28.6632L18.1359 28.9417C18.2308 29.0116 18.3067 29.1049 18.3589 29.2125C18.411 29.3198 18.4395 29.4415 18.4395 29.5669C18.4394 29.9818 18.1342 30.3182 17.7577 30.3182ZM-2.29695 30.3182C-2.23878 31.0621 -1.61458 31.6498 -0.855646 31.6498C-0.0967102 31.6498 0.527491 31.0621 0.58563 30.3182C0.588673 30.2807 0.590345 30.2426 0.590345 30.2042C0.590345 29.4068 -0.0582619 28.7582 -0.855646 28.7582C-1.65306 28.7582 -2.30164 29.4068 -2.30164 30.2042C-2.30164 30.2426 -2.29996 30.2807 -2.29695 30.3182ZM-4.14404 26.6586C-4.25558 26.6816 -4.33699 26.7772 -4.34317 26.8909C-4.37062 27.3968 -4.29557 27.9179 -4.24545 28.1964C-4.22402 28.3153 -4.12048 28.4015 -3.99961 28.4015H-3.83251C-3.68534 28.4015 -3.57003 28.2749 -3.5838 28.1284L-3.68417 27.0577C-3.68919 27.004 -3.71142 26.9535 -3.74753 26.9135L-3.90807 26.7358C-3.96745 26.67 -4.05725 26.6406 -4.14404 26.6586ZM0.75631 24.3351L0.58824 23.5527C0.514719 23.2104 0.229465 22.9542 -0.11871 22.9177L-0.261267 22.9027C-0.291224 22.9126 -0.321714 22.9224 -0.350967 22.9326C-1.89575 23.4754 -2.78361 23.9708 -3.25636 24.2908C-3.53679 24.4805 -3.73573 24.804 -3.80236 25.1785C-3.81048 25.224 -3.81834 25.2693 -3.82586 25.3145H-0.035059C0.137758 25.3145 0.305994 25.2592 0.44511 25.1567C0.70141 24.9679 0.823175 24.6463 0.75631 24.3351ZM4.21505 27.1311H5.05088C5.20785 27.1311 5.33507 27.0038 5.33507 26.8469C5.33507 26.69 5.20785 26.5627 5.05088 26.5627H4.21505C4.05812 26.5627 3.93087 26.69 3.93087 26.8469C3.93087 27.0038 4.05812 27.1311 4.21505 27.1311ZM8.96298 23.8272C8.83477 23.7177 8.72407 23.623 8.62601 23.5426C8.48041 23.4232 7.86904 23.1275 6.59651 22.8624C5.53764 22.6418 4.36306 22.5114 3.25164 22.4887L3.64023 24.7181C3.73833 25.2807 4.21558 25.6988 4.78626 25.722L10.5898 25.9575C10.9203 25.9709 11.2384 25.8487 11.4741 25.6249C10.4203 25.0721 9.56903 24.3451 8.96298 23.8272ZM14.0222 28.7582C13.2248 28.7582 12.5762 29.4068 12.5762 30.2042C12.5762 30.2426 12.5779 30.2807 12.5809 30.3182C12.6391 31.0621 13.2633 31.6498 14.0222 31.6498C14.7811 31.6498 15.4053 31.0621 15.4635 30.3182C15.4665 30.2807 15.4682 30.2426 15.4682 30.2042C15.4682 29.4068 14.8196 28.7582 14.0222 28.7582ZM16.8585 27.1534C16.6307 27.1534 16.4461 27.4328 16.4461 27.7775C16.4461 28.1221 16.6307 28.4016 16.8585 28.4016C17.0862 28.4016 17.2708 28.1222 17.2708 27.7775C17.2708 27.4328 17.0862 27.1534 16.8585 27.1534Z" fill="black"/>
<path d="M18.5257 21.1517C18.5054 20.8039 18.7819 20.5107 19.1303 20.5107C19.4935 20.5107 19.7751 20.8283 19.7315 21.1889L19.2198 25.4278C19.2146 25.4704 19.1829 25.505 19.1408 25.5137L18.8983 25.564C18.8386 25.5764 18.7818 25.5328 18.7782 25.4719L18.5257 21.1517Z" fill="black"/>
<path d="M21.2117 22.3684C21.3374 22.0967 21.6658 21.9868 21.9297 22.1282C22.2049 22.2755 22.2893 22.6303 22.11 22.8859L20.0083 25.8811C19.9836 25.9163 19.9393 25.9317 19.8981 25.9196L19.7193 25.8668C19.6608 25.8495 19.6313 25.7842 19.6569 25.7289L21.2117 22.3684Z" fill="black"/>
<path d="M16.7883 22.3123C16.6626 22.0406 16.3342 21.9307 16.0703 22.072C15.7951 22.2194 15.7107 22.5742 15.89 22.8297L17.9507 25.7665C17.9998 25.8366 18.0883 25.8675 18.1704 25.8432C18.287 25.8087 18.3459 25.6787 18.2948 25.5683L16.7883 22.3123Z" fill="black"/>
</g>
<defs>
<clipPath id="clip0_5797_1471">
<rect y="0.457031" width="38" height="38.029" rx="6" fill="white"/>
</clipPath>
</defs>
</svg>
