<svg width="38" height="38" viewBox="0 0 38 38" fill="none" xmlns="http://www.w3.org/2000/svg">
<g clip-path="url(#clip0_5787_2340)">
<rect width="38" height="38" rx="6" fill="white"/>
<path fill-rule="evenodd" clip-rule="evenodd" d="M22.4805 4C22.4805 2.34315 23.8236 1 25.4805 1H29.5352C31.192 1 32.5352 2.34315 32.5352 4V11.468L33.3449 11.5933C33.6144 11.6353 33.8254 11.8101 33.9308 12.0361C34.0129 12.2178 34.0285 12.4326 33.9504 12.6387C33.9152 12.7378 33.8019 12.7886 33.7043 12.752L32.5352 12.3246V22.3984C32.5352 24.0553 31.192 25.3984 29.5352 25.3984H25.4805C23.8236 25.3984 22.4805 24.0553 22.4805 22.3984V12.3754L21.4504 12.752C21.4035 12.7695 21.3527 12.7671 21.3097 12.749C21.2629 12.7295 21.2238 12.6909 21.2043 12.6387C21.1418 12.4741 21.1379 12.3037 21.1808 12.1489C21.2629 11.8696 21.4972 11.6421 21.8097 11.5933L22.4805 11.4895V4ZM24.4568 8.97539C23.8111 8.97768 23.3368 9.58224 23.4882 10.21L24.1983 13.1524L25.3375 12.9862C26.7628 12.7783 28.2117 12.7916 29.6329 13.0256L30.6854 13.1989L31.4846 10.2124C31.6549 9.57591 31.1739 8.95153 30.515 8.95387L24.4568 8.97539ZM24.7936 22.5371C24.1744 22.5349 23.706 21.9761 23.8119 21.366L24.2638 18.7629L25.4942 18.9282C26.819 19.1062 28.1625 19.0935 29.4837 18.8906L30.5882 18.7209L31.1489 21.3474C31.282 21.9711 30.8051 22.5584 30.1673 22.5561L24.7936 22.5371ZM31.1023 13.3613L31.5087 11.7201C31.5372 11.6053 31.7063 11.6262 31.7058 11.7445L31.6714 20.5776C31.671 20.6991 31.495 20.7147 31.4731 20.5952L31.1312 18.7271C31.1229 18.6817 31.1186 18.6356 31.1182 18.5894L31.0789 13.5599C31.0784 13.493 31.0863 13.4263 31.1023 13.3613ZM23.3936 11.7201L23.8 13.3613C23.8161 13.4263 23.824 13.493 23.8234 13.5599L23.7841 18.5894C23.7838 18.6356 23.7794 18.6817 23.7711 18.7271L23.4293 20.5952C23.4074 20.7147 23.2314 20.6991 23.2309 20.5776L23.1965 11.7445C23.1961 11.6262 23.3652 11.6053 23.3936 11.7201Z" fill="black"/>
<path fill-rule="evenodd" clip-rule="evenodd" d="M6.32808 25C6.32808 23.3431 7.67123 22 9.32808 22H13.3828C15.0396 22 16.3828 23.3431 16.3828 25V29.4682L17.1914 29.5933C17.6805 29.6689 17.9754 30.1763 17.7989 30.6386C17.761 30.7379 17.6504 30.7884 17.5505 30.7518L16.3828 30.3245V40.1714C16.3828 41.2285 15.836 42.158 15.0098 42.6923C15.025 42.5811 15.0216 42.4649 14.9965 42.3474L14.4358 39.7209L13.3313 39.8906C12.0101 40.0935 10.6666 40.1062 9.34181 39.9282L8.11144 39.7629L7.65955 42.366C7.64218 42.4661 7.64025 42.5648 7.65191 42.6598C6.85325 42.1208 6.32808 41.2074 6.32808 40.1714V30.3354L5.19052 30.7517C5.0907 30.7883 4.98005 30.7378 4.94216 30.6385C4.76571 30.1761 5.06053 29.6688 5.54962 29.5931L6.32808 29.4727V25ZM8.30439 26.9754C7.65866 26.9777 7.18437 27.5822 7.33584 28.21L8.04587 31.1524L9.18512 30.9862C10.6104 30.7783 12.0593 30.7916 13.4805 31.0256L14.533 31.1989L15.3322 28.2124C15.5025 27.5759 15.0215 26.9515 14.3627 26.9539L8.30439 26.9754ZM14.95 31.3613L15.3563 29.7201C15.3848 29.6053 15.5539 29.6262 15.5534 29.7445L15.5191 38.5776C15.5186 38.6991 15.3426 38.7147 15.3207 38.5952L14.9789 36.7271C14.9705 36.6817 14.9662 36.6356 14.9658 36.5894L14.9265 31.5599C14.926 31.493 14.9339 31.4263 14.95 31.3613ZM7.24123 29.7201L7.64762 31.3613C7.6637 31.4263 7.67157 31.493 7.67105 31.5599L7.63176 36.5894C7.6314 36.6356 7.62703 36.6817 7.61872 36.7271L7.27689 38.5952C7.25501 38.7147 7.07899 38.6991 7.07852 38.5776L7.04416 29.7445C7.0437 29.6262 7.2128 29.6053 7.24123 29.7201Z" fill="black"/>
<path d="M20.3892 15.6934C20.0459 15.683 19.7081 15.605 19.395 15.464C19.0819 15.323 18.7996 15.1217 18.5642 14.8716C18.3289 14.6215 18.1452 14.3275 18.0234 14.0064C17.9017 13.6852 17.8445 13.3433 17.8549 13" stroke="black" stroke-width="1.5" stroke-linecap="round"/>
<path d="M19.2067 18.1394C18.6659 18.123 18.1337 18.0001 17.6404 17.778C17.1471 17.5558 16.7023 17.2387 16.3316 16.8447C15.9608 16.4506 15.6713 15.9875 15.4796 15.4815C15.2878 14.9756 15.1976 14.4369 15.2141 13.8961" stroke="black" stroke-width="1.5" stroke-linecap="round"/>
<path d="M17.8993 20.5836C17.1785 20.5617 16.4691 20.398 15.8115 20.1019C15.154 19.8058 14.5612 19.383 14.067 18.8578C13.5729 18.3326 13.187 17.7152 12.9314 17.0409C12.6758 16.3665 12.5556 15.6485 12.5775 14.9277" stroke="black" stroke-width="1.5" stroke-linecap="round"/>
</g>
<defs>
<clipPath id="clip0_5787_2340">
<rect width="38" height="38" rx="6" fill="white"/>
</clipPath>
</defs>
</svg>
