<svg width="38" height="38" viewBox="0 0 38 38" fill="none" xmlns="http://www.w3.org/2000/svg">
<g clip-path="url(#clip0_5787_2468)">
<rect width="38" height="38" rx="6" fill="white"/>
<path d="M27.9009 27.2452C28.3573 27.2452 28.7299 26.8866 28.752 26.4358C28.7528 26.4216 28.7531 26.4074 28.7531 26.3932C28.7531 25.9226 28.3715 25.541 27.901 25.541C27.4304 25.541 27.0488 25.9226 27.0488 26.3932C27.0488 26.4074 27.0492 26.4216 27.05 26.4358C27.072 26.8866 27.4446 27.2452 27.9009 27.2452Z" fill="#FF0000"/>
<path d="M21.2178 26.5973H23.824C23.9298 28.7573 25.7148 30.4752 27.9011 30.4752C30.0874 30.4752 31.8723 28.7573 31.9782 26.5973H50.4423C50.5482 28.7573 52.3331 30.4752 54.5194 30.4752C56.7057 30.4752 58.4907 28.7573 58.5965 26.5973H60.7325C60.9724 26.5973 61.1901 26.4896 61.3474 26.3162C61.5048 26.1427 61.6023 25.9034 61.6023 25.6384C61.6023 25.4105 61.5287 25.1898 61.3942 25.0163L60.9509 24.4439C61.9409 22.202 61.5939 18.9892 61.2637 17.1397C61.0741 16.0744 60.4921 15.143 59.6528 14.5754C58.6473 13.8947 56.9348 12.9645 54.112 11.9728C48.4941 9.99942 38.5627 11.7144 36.6073 13.3186C35.0491 14.5963 31.9661 17.6254 28.0583 18.074C26.0276 18.3067 24.2887 18.9007 23.0864 19.4181C22.0163 19.8781 21.3003 20.9997 21.2614 22.2648L21.2189 23.6364L20.5412 24.1347C20.3713 24.2597 20.2356 24.4266 20.1422 24.6192C20.0489 24.8112 19.998 25.0289 19.998 25.2532C19.9981 25.9955 20.5442 26.5973 21.2178 26.5973ZM57.0981 26.5973C56.9941 27.9282 55.8773 28.9798 54.5194 28.9798C53.1616 28.9798 52.0448 27.9282 51.9408 26.5973C51.9354 26.5303 51.9324 26.4621 51.9324 26.3933C51.9324 24.9667 53.0928 23.8063 54.5194 23.8063C55.9461 23.8063 57.1065 24.9667 57.1065 26.3933C57.1065 26.4621 57.1035 26.5303 57.0981 26.5973ZM60.4028 20.0498C60.6024 20.0911 60.748 20.2621 60.7591 20.4655C60.8082 21.3706 60.6739 22.3028 60.5842 22.8011C60.5459 23.0139 60.3606 23.1682 60.1444 23.1682H59.8454C59.5821 23.1682 59.3758 22.9417 59.4005 22.6795L59.58 20.7638C59.589 20.6679 59.6288 20.5774 59.6934 20.5059L59.9806 20.188C60.0869 20.0702 60.2475 20.0177 60.4028 20.0498ZM51.6355 15.8928L51.9362 14.493C52.0677 13.8806 52.578 13.4222 53.201 13.3569L53.456 13.3301C53.5096 13.3478 53.5642 13.3652 53.6165 13.3836C56.3803 14.3547 57.9688 15.2411 58.8146 15.8136C59.3164 16.153 59.6723 16.7318 59.7915 17.4017C59.806 17.4832 59.8201 17.5643 59.8335 17.6451H53.0513C52.7421 17.6451 52.4411 17.5462 52.1922 17.3628C51.7337 17.025 51.5158 16.4497 51.6355 15.8928ZM45.4473 20.8952H43.9519C43.6711 20.8952 43.4435 20.6675 43.4435 20.3867C43.4435 20.106 43.6711 19.8783 43.9519 19.8783H45.4473C45.7281 19.8783 45.9558 20.106 45.9558 20.3867C45.9558 20.6675 45.7281 20.8952 45.4473 20.8952ZM36.9527 14.9842C37.1821 14.7882 37.3801 14.6188 37.5556 14.475C37.8161 14.2613 38.9099 13.7322 41.1866 13.2579C43.081 12.8633 45.1825 12.63 47.171 12.5894L46.4757 16.578C46.3002 17.5847 45.4464 18.3327 44.4254 18.3741L34.0421 18.7956C33.4507 18.8195 32.8816 18.6008 32.4599 18.2005C34.3453 17.2114 35.8684 15.9107 36.9527 14.9842ZM27.9011 23.8063C29.3277 23.8063 30.4881 24.9667 30.4881 26.3933C30.4881 26.4621 30.4851 26.5303 30.4797 26.5973C30.3757 27.9282 29.2589 28.9798 27.9011 28.9798C26.5432 28.9798 25.4265 27.9282 25.3224 26.5973C25.317 26.5303 25.314 26.4621 25.314 26.3933C25.3141 24.9667 26.4745 23.8063 27.9011 23.8063ZM22.8266 20.9351C23.2341 20.9351 23.5644 21.435 23.5644 22.0517C23.5644 22.6683 23.2341 23.1683 22.8266 23.1683C22.4192 23.1683 22.0889 22.6684 22.0889 22.0517C22.089 21.435 22.4192 20.9351 22.8266 20.9351Z" fill="#FF0000"/>
<path d="M10.0991 27.2452C9.64275 27.2452 9.27015 26.8866 9.24802 26.4358C9.24724 26.4216 9.24688 26.4074 9.24688 26.3932C9.24688 25.9226 9.62845 25.541 10.099 25.541C10.5696 25.541 10.9512 25.9226 10.9512 26.3932C10.9512 26.4074 10.9508 26.4216 10.95 26.4358C10.928 26.8866 10.5554 27.2452 10.0991 27.2452Z" fill="#FF0000"/>
<path d="M16.7822 26.5973H14.176C14.0702 28.7573 12.2852 30.4752 10.0989 30.4752C7.91265 30.4752 6.12767 28.7573 6.02185 26.5973H-12.4423C-12.5482 28.7573 -14.3331 30.4752 -16.5194 30.4752C-18.7057 30.4752 -20.4907 28.7573 -20.5965 26.5973H-22.7325C-22.9724 26.5973 -23.1901 26.4896 -23.3474 26.3162C-23.5048 26.1427 -23.6023 25.9034 -23.6023 25.6384C-23.6023 25.4105 -23.5287 25.1898 -23.3942 25.0163L-22.9509 24.4439C-23.9409 22.202 -23.5939 18.9892 -23.2637 17.1397C-23.0741 16.0744 -22.4921 15.143 -21.6528 14.5754C-20.6473 13.8947 -18.9348 12.9645 -16.112 11.9728C-10.4941 9.99942 -0.562748 11.7144 1.39271 13.3186C2.95093 14.5963 6.03387 17.6254 9.94168 18.074C11.9724 18.3067 13.7113 18.9007 14.9136 19.4181C15.9837 19.8781 16.6997 20.9997 16.7386 22.2648L16.7811 23.6364L17.4588 24.1347C17.6287 24.2597 17.7644 24.4266 17.8578 24.6192C17.9511 24.8112 18.002 25.0289 18.002 25.2532C18.0019 25.9955 17.4558 26.5973 16.7822 26.5973ZM-19.0981 26.5973C-18.9941 27.9282 -17.8773 28.9798 -16.5194 28.9798C-15.1616 28.9798 -14.0448 27.9282 -13.9408 26.5973C-13.9354 26.5303 -13.9324 26.4621 -13.9324 26.3933C-13.9324 24.9667 -15.0928 23.8063 -16.5194 23.8063C-17.9461 23.8063 -19.1065 24.9667 -19.1065 26.3933C-19.1065 26.4621 -19.1035 26.5303 -19.0981 26.5973ZM-22.4028 20.0498C-22.6024 20.0911 -22.748 20.2621 -22.7591 20.4655C-22.8082 21.3706 -22.6739 22.3028 -22.5842 22.8011C-22.5459 23.0139 -22.3606 23.1682 -22.1444 23.1682H-21.8454C-21.5821 23.1682 -21.3758 22.9417 -21.4005 22.6795L-21.58 20.7638C-21.589 20.6679 -21.6288 20.5774 -21.6934 20.5059L-21.9806 20.188C-22.0869 20.0702 -22.2475 20.0177 -22.4028 20.0498ZM-13.6355 15.8928L-13.9362 14.493C-14.0677 13.8806 -14.578 13.4222 -15.201 13.3569L-15.456 13.3301C-15.5096 13.3478 -15.5642 13.3652 -15.6165 13.3836C-18.3803 14.3547 -19.9688 15.2411 -20.8146 15.8136C-21.3164 16.153 -21.6723 16.7318 -21.7915 17.4017C-21.806 17.4832 -21.8201 17.5643 -21.8335 17.6451H-15.0513C-14.7421 17.6451 -14.4411 17.5462 -14.1922 17.3628C-13.7337 17.025 -13.5158 16.4497 -13.6355 15.8928ZM-7.44732 20.8952H-5.95191C-5.67107 20.8952 -5.44347 20.6675 -5.44347 20.3867C-5.44347 20.106 -5.67107 19.8783 -5.95191 19.8783H-7.44732C-7.7281 19.8783 -7.95576 20.106 -7.95576 20.3867C-7.95576 20.6675 -7.7281 20.8952 -7.44732 20.8952ZM1.04733 14.9842C0.817936 14.7882 0.619884 14.6188 0.444443 14.475C0.183943 14.2613 -0.909863 13.7322 -3.1866 13.2579C-5.08105 12.8633 -7.18252 12.63 -9.171 12.5894L-8.47575 16.578C-8.30025 17.5847 -7.44637 18.3327 -6.42536 18.3741L3.95794 18.7956C4.54929 18.8195 5.11838 18.6008 5.54009 18.2005C3.65467 17.2114 2.13163 15.9107 1.04733 14.9842ZM10.0989 23.8063C8.67226 23.8063 7.51188 24.9667 7.51188 26.3933C7.51188 26.4621 7.51487 26.5303 7.52025 26.5973C7.62433 27.9282 8.74111 28.9798 10.0989 28.9798C11.4568 28.9798 12.5735 27.9282 12.6776 26.5973C12.683 26.5303 12.686 26.4621 12.686 26.3933C12.6859 24.9667 11.5255 23.8063 10.0989 23.8063ZM15.1734 20.9351C14.7659 20.9351 14.4356 21.435 14.4356 22.0517C14.4356 22.6683 14.7659 23.1683 15.1734 23.1683C15.5808 23.1683 15.9111 22.6684 15.9111 22.0517C15.911 21.435 15.5808 20.9351 15.1734 20.9351Z" fill="#FF0000"/>
<path d="M18.2928 11.5867C18.2621 11.0628 18.6788 10.6211 19.2036 10.6211C19.7509 10.6211 20.175 11.0995 20.1094 11.6429L19.3341 18.0654C19.3289 18.108 19.2972 18.1426 19.2551 18.1514L18.7967 18.2464C18.7369 18.2588 18.6801 18.2152 18.6766 18.1543L18.2928 11.5867Z" fill="#FF0000"/>
<path d="M22.3326 13.4204C22.522 13.0111 23.0168 12.8455 23.4144 13.0585C23.829 13.2805 23.9562 13.8151 23.6861 14.2L20.4986 18.7426C20.474 18.7778 20.4296 18.7932 20.3884 18.7811L20.0279 18.6745C19.9694 18.6572 19.9399 18.592 19.9655 18.5366L22.3326 13.4204Z" fill="#FF0000"/>
<path d="M15.6694 13.3355C15.48 12.9261 14.9851 12.7606 14.5875 12.9735C14.173 13.1956 14.0458 13.7301 14.3159 14.1151L17.462 18.5988C17.5114 18.6691 17.6001 18.7001 17.6824 18.6757L17.863 18.6224C17.98 18.5878 18.0391 18.4574 17.9878 18.3466L15.6694 13.3355Z" fill="#FF0000"/>
</g>
<defs>
<clipPath id="clip0_5787_2468">
<rect width="38" height="38" rx="6" fill="white"/>
</clipPath>
</defs>
</svg>
