<svg width="38" height="38" viewBox="0 0 38 38" fill="none" xmlns="http://www.w3.org/2000/svg">
<g clip-path="url(#clip0_5787_2380)">
<rect width="38" height="38" rx="6" fill="white"/>
<path d="M14.8246 19.2324C14.7694 19.2324 14.7246 19.1876 14.7252 19.1324C14.7513 16.764 15.7034 14.4982 17.3801 12.8215C19.0568 11.1448 21.3226 10.1927 23.6909 10.1666C23.7462 10.166 23.791 10.2108 23.791 10.266V11.7063C23.791 11.7616 23.7462 11.8063 23.691 11.807C21.7576 11.833 19.909 12.6123 18.54 13.9814C17.1709 15.3504 16.3916 17.199 16.3656 19.1324C16.3649 19.1876 16.3202 19.2324 16.2649 19.2324H14.8246Z" fill="#FF0000"/>
<path d="M18.434 19.2327C18.3788 19.2327 18.3339 19.1879 18.3349 19.1326C18.3607 17.722 18.9323 16.3746 19.9318 15.3752C20.9313 14.3757 22.2786 13.8041 23.6893 13.7783C23.7445 13.7772 23.7893 13.8221 23.7893 13.8773V15.3625C23.7893 15.4177 23.7445 15.4624 23.6893 15.4638C22.7257 15.4894 21.8068 15.8833 21.1234 16.5668C20.44 17.2502 20.046 18.169 20.0205 19.1327C20.019 19.1879 19.9744 19.2327 19.9192 19.2327H18.434Z" fill="#FF0000"/>
<path d="M23.1709 17.7406C23.2098 17.7245 23.2492 17.71 23.2891 17.697V18.2828C23.1937 18.333 23.1063 18.3973 23.0299 18.4738C22.9535 18.5502 22.8892 18.6376 22.839 18.7329L22.2532 18.7329C22.2661 18.693 22.2807 18.6536 22.2968 18.6148C22.378 18.4188 22.4969 18.2408 22.6469 18.0908C22.7969 17.9408 22.975 17.8218 23.1709 17.7406Z" stroke="#FF0000"/>
<path d="M25.9607 29.476C26.38 29.476 26.7223 29.1465 26.7427 28.7323C26.7434 28.7193 26.7437 28.7062 26.7437 28.6931C26.7437 28.2608 26.3931 27.9102 25.9607 27.9102C25.5283 27.9102 25.1777 28.2608 25.1777 28.6931C25.1777 28.7062 25.1781 28.7193 25.1788 28.7323C25.1991 29.1465 25.5414 29.476 25.9607 29.476Z" fill="#FF0000"/>
<path d="M19.82 28.8809H22.2146C22.3119 30.8655 23.9519 32.444 25.9608 32.444C27.9696 32.444 29.6097 30.8655 29.7069 28.8809H46.6724C46.7698 30.8655 48.4098 32.444 50.4186 32.444C52.4274 32.444 54.0675 30.8655 54.1648 28.8809H56.1274C56.3478 28.8809 56.5479 28.7819 56.6924 28.6225C56.837 28.4632 56.9266 28.2433 56.9266 27.9998C56.9266 27.7904 56.859 27.5876 56.7354 27.4282L56.3281 26.9023C57.2377 24.8423 56.9189 21.8903 56.6155 20.1909C56.4413 19.2121 55.9066 18.3563 55.1354 17.8347C54.2114 17.2093 52.6379 16.3546 50.0443 15.4433C44.8823 13.6302 35.7571 15.2059 33.9604 16.68C32.5286 17.854 29.6959 20.6372 26.1053 21.0494C24.2394 21.2632 22.6416 21.809 21.5369 22.2844C20.5536 22.707 19.8958 23.7376 19.86 24.9L19.821 26.1603L19.1983 26.6181C19.0422 26.733 18.9175 26.8863 18.8317 27.0633C18.7459 27.2397 18.6992 27.4398 18.6992 27.6459C18.6993 28.328 19.2011 28.8809 19.82 28.8809ZM52.788 28.8809C52.6924 30.1038 51.6663 31.07 50.4187 31.07C49.171 31.07 48.1449 30.1038 48.0493 28.8809C48.0443 28.8193 48.0416 28.7567 48.0416 28.6934C48.0416 27.3826 49.1078 26.3164 50.4187 26.3164C51.7295 26.3164 52.7957 27.3826 52.7957 28.6934C52.7957 28.7567 52.793 28.8193 52.788 28.8809ZM55.8245 22.8648C56.0078 22.9027 56.1417 23.0598 56.1518 23.2468C56.197 24.0784 56.0736 24.935 55.9912 25.3928C55.956 25.5883 55.7858 25.7301 55.5871 25.7301H55.3124C55.0704 25.7301 54.8809 25.522 54.9035 25.2811L55.0685 23.5209C55.0767 23.4327 55.1133 23.3496 55.1727 23.2839L55.4366 22.9917C55.5342 22.8836 55.6818 22.8353 55.8245 22.8648ZM47.7687 19.0452L48.045 17.759C48.1659 17.1963 48.6348 16.7751 49.2072 16.7151L49.4416 16.6905C49.4908 16.7068 49.5409 16.7228 49.589 16.7397C52.1285 17.6319 53.5881 18.4464 54.3652 18.9725C54.8262 19.2843 55.1533 19.8161 55.2628 20.4316C55.2761 20.5065 55.2891 20.581 55.3014 20.6553H49.0697C48.7856 20.6553 48.509 20.5644 48.2803 20.3959C47.859 20.0855 47.6588 19.5569 47.7687 19.0452ZM42.0829 23.6416H40.7088C40.4508 23.6416 40.2417 23.4324 40.2417 23.1744C40.2417 22.9164 40.4508 22.7072 40.7088 22.7072H42.0829C42.3409 22.7072 42.5501 22.9164 42.5501 23.1744C42.5501 23.4324 42.3409 23.6416 42.0829 23.6416ZM34.2777 18.2103C34.4885 18.0302 34.6705 17.8746 34.8317 17.7425C35.071 17.5461 36.076 17.06 38.168 16.6242C39.9087 16.2616 41.8396 16.0472 43.6667 16.0099L43.0278 19.6748C42.8666 20.5998 42.082 21.2871 41.1439 21.3252L31.6033 21.7124C31.06 21.7344 30.5371 21.5334 30.1496 21.1656C31.882 20.2568 33.2814 19.0617 34.2777 18.2103ZM25.9608 26.3164C27.2717 26.3164 28.3379 27.3826 28.3379 28.6934C28.3379 28.7567 28.3351 28.8193 28.3302 28.8809C28.2345 30.1038 27.2084 31.07 25.9608 31.07C24.7132 31.07 23.687 30.1038 23.5914 28.8809C23.5864 28.8193 23.5837 28.7567 23.5837 28.6934C23.5837 27.3826 24.65 26.3164 25.9608 26.3164ZM21.2982 23.6782C21.6726 23.6782 21.9761 24.1375 21.9761 24.7042C21.9761 25.2708 21.6726 25.7301 21.2982 25.7301C20.9239 25.7301 20.6204 25.2708 20.6204 24.7042C20.6204 24.1375 20.9239 23.6782 21.2982 23.6782Z" fill="#FF0000"/>
<path d="M5.53689 27.9102C5.10451 27.9102 4.75391 28.2608 4.75391 28.6931C4.75391 28.7062 4.75429 28.7193 4.75495 28.7323C4.77529 29.1465 5.11764 29.476 5.53694 29.476C5.95624 29.476 6.2986 29.1465 6.31893 28.7323C6.31965 28.7193 6.31992 28.7062 6.31992 28.6931C6.31987 28.2608 5.96927 27.9102 5.53689 27.9102Z" fill="#FF0000"/>
<path fill-rule="evenodd" clip-rule="evenodd" d="M-24.2547 22.9472C-24.7135 23.4591 -24.9939 24.1523 -25.0169 24.9L-25.056 26.1603L-25.6787 26.6181C-25.8348 26.733 -25.9595 26.8863 -26.0453 27.0633C-26.131 27.2397 -26.1777 27.4398 -26.1777 27.6459C-26.1777 28.328 -25.6759 28.8809 -25.057 28.8809H-24.2547V24.7808C-24.2559 24.7555 -24.2566 24.73 -24.2566 24.7042C-24.2566 24.6785 -24.2559 24.653 -24.2547 24.6277V22.9472ZM-6.26474 28.8809H1.79548C1.89282 30.8655 3.53281 32.444 5.54165 32.444C7.55049 32.444 9.19059 30.8655 9.28782 28.8809H11.2505C11.4709 28.8809 11.6709 28.7819 11.8155 28.6225C11.96 28.4632 12.0496 28.2433 12.0496 27.9998C12.0496 27.7904 11.9821 27.5876 11.8584 27.4282L11.4512 26.9023C12.3608 24.8423 12.042 21.8903 11.7386 20.1909C11.5643 19.2121 11.0296 18.3563 10.2584 17.8347C9.33448 17.2093 7.76099 16.3546 5.16737 15.4433C1.98146 14.3243 -2.71414 14.4961 -6.26474 15.1382V16.5357C-4.64338 16.2267 -2.88332 16.0441 -1.2103 16.0099L-1.84912 19.6748C-2.01038 20.5998 -2.79495 21.2871 -3.73309 21.3252L-6.26474 21.4279V28.8809ZM5.54171 31.07C6.78933 31.07 7.81546 30.1038 7.91109 28.8809C7.91603 28.8193 7.91879 28.7567 7.91879 28.6934C7.91879 27.3826 6.85259 26.3164 5.54171 26.3164C4.23088 26.3164 3.16462 27.3826 3.16462 28.6934C3.16462 28.7567 3.16737 28.8193 3.17237 28.8809C3.26795 30.1038 4.29408 31.07 5.54171 31.07ZM11.2749 23.2468C11.2647 23.0598 11.1309 22.9027 10.9475 22.8648C10.8049 22.8353 10.6572 22.8836 10.5596 22.9917L10.2957 23.2839C10.2363 23.3496 10.1998 23.4327 10.1916 23.5209L10.0266 25.2811C10.0039 25.522 10.1935 25.7301 10.4354 25.7301H10.7101C10.9088 25.7301 11.079 25.5883 11.1142 25.3928C11.1966 24.935 11.32 24.0784 11.2749 23.2468ZM3.16809 17.759L2.8918 19.0452C2.78187 19.5569 2.98204 20.0855 3.40338 20.3959C3.63207 20.5644 3.90864 20.6553 4.19273 20.6553H10.4245C10.4121 20.581 10.3992 20.5065 10.3858 20.4316C10.2763 19.8161 9.94928 19.2843 9.48826 18.9725C8.71111 18.4464 7.25155 17.6319 4.71206 16.7397C4.67771 16.7276 4.64231 16.716 4.60695 16.7044C4.59281 16.6998 4.57867 16.6951 4.5646 16.6905L4.33025 16.7151C3.75788 16.7751 3.28895 17.1963 3.16809 17.759ZM-4.16811 23.6416H-2.79407C-2.53609 23.6416 -2.3269 23.4324 -2.3269 23.1744C-2.3269 22.9164 -2.53609 22.7072 -2.79407 22.7072H-4.16811C-4.42615 22.7072 -4.63528 22.9164 -4.63528 23.1744C-4.63528 23.4324 -4.42615 23.6416 -4.16811 23.6416Z" fill="#FF0000"/>
</g>
<defs>
<clipPath id="clip0_5787_2380">
<rect width="38" height="38" rx="6" fill="white"/>
</clipPath>
</defs>
</svg>
