<svg width="38" height="39" viewBox="0 0 38 39" fill="none" xmlns="http://www.w3.org/2000/svg">
<g clip-path="url(#clip0_5797_1471)">
<rect y="0.73291" width="38" height="38.029" rx="6" fill="white"/>
<path d="M18.9998 9.43555C18.6684 9.43555 18.3445 9.53382 18.0689 9.71794C17.7934 9.90206 17.5786 10.1638 17.4518 10.4699C17.3249 10.7761 17.2918 11.113 17.3564 11.4381C17.4211 11.7631 17.5807 12.0617 17.815 12.296C18.0493 12.5303 18.3479 12.6899 18.6729 12.7546C18.998 12.8192 19.3349 12.7861 19.6411 12.6592C19.9472 12.5324 20.2089 12.3176 20.3931 12.0421C20.5772 11.7665 20.6755 11.4426 20.6755 11.1112C20.6752 10.6669 20.4985 10.2408 20.1843 9.92666C19.8702 9.61248 19.4441 9.43585 18.9998 9.43555Z" fill="black"/>
<path d="M15.4547 7.56819C15.298 7.72573 15.2103 7.93905 15.2109 8.16123C15.2116 8.38341 15.3004 8.59625 15.4579 8.75292C15.6155 8.90959 15.8288 8.99727 16.051 8.99665C16.2732 8.99604 16.486 8.9072 16.6427 8.74966C17.2741 8.13581 18.12 7.7924 19.0006 7.7924C19.8813 7.7924 20.7272 8.13581 21.3586 8.74966C21.4362 8.82827 21.5287 8.89062 21.6307 8.93305C21.7327 8.97549 21.8421 8.99717 21.9526 8.99681C22.1181 8.99678 22.2798 8.94774 22.4175 8.85588C22.5551 8.76403 22.6625 8.63348 22.726 8.48068C22.7895 8.32789 22.8064 8.15971 22.7745 7.99734C22.7425 7.83498 22.6633 7.6857 22.5466 7.56835C20.6452 5.65368 17.3561 5.65367 15.4547 7.56819Z" fill="black"/>
<path d="M24.9022 5.21524C24.1331 4.42939 23.2149 3.80501 22.2014 3.37875C21.1879 2.95248 20.0994 2.73291 18.9999 2.73291C17.9003 2.73291 16.8119 2.95248 15.7983 3.37875C14.7848 3.80501 13.8666 4.42939 13.0976 5.21524C12.9413 5.37321 12.8543 5.58678 12.8555 5.80895C12.8567 6.03113 12.9461 6.24372 13.1041 6.39995C13.2621 6.55619 13.4756 6.64327 13.6978 6.64205C13.92 6.64082 14.1326 6.55138 14.2888 6.39341C16.8186 3.83417 21.1811 3.83417 23.7109 6.39341C23.8671 6.55138 24.0797 6.64082 24.3019 6.64205C24.5241 6.64327 24.7377 6.55619 24.8956 6.39995C25.0536 6.24372 25.143 6.03113 25.1443 5.80895C25.1455 5.58678 25.0584 5.37321 24.9022 5.21524Z" fill="black"/>
<path d="M14.2217 18.8399C13.9483 18.8399 13.7222 18.7831 13.5435 18.6694C13.3647 18.5546 13.2392 18.3924 13.167 18.1829C13.096 17.9722 13.0842 17.7242 13.1315 17.439C13.1777 17.1584 13.2718 16.9122 13.4138 16.7003C13.5559 16.4873 13.7334 16.3215 13.9465 16.2032C14.1608 16.0836 14.3975 16.0238 14.6567 16.0238C14.8248 16.0238 14.9793 16.0511 15.1202 16.1055C15.261 16.1588 15.38 16.2416 15.4771 16.3541C15.5741 16.4665 15.641 16.6098 15.6777 16.7838C15.7144 16.9566 15.7126 17.1626 15.6724 17.4017L15.6422 17.5988H13.405L13.4742 17.1655H15.0935C15.1148 17.0424 15.1077 16.9329 15.0722 16.837C15.0367 16.74 14.9775 16.6636 14.8947 16.608C14.8118 16.5524 14.7082 16.5245 14.5839 16.5245C14.4573 16.5245 14.3389 16.5571 14.2288 16.6222C14.1199 16.6861 14.0282 16.769 13.9536 16.8708C13.879 16.9726 13.8317 17.0797 13.8116 17.1922L13.7388 17.6076C13.7127 17.7781 13.7186 17.9172 13.7565 18.0249C13.7944 18.1326 13.8607 18.2119 13.9554 18.2628C14.0501 18.3137 14.1696 18.3392 14.3141 18.3392C14.4088 18.3392 14.4963 18.3262 14.5768 18.3001C14.6573 18.2741 14.7289 18.235 14.7917 18.1829C14.8556 18.1297 14.9089 18.0646 14.9515 17.9876L15.5392 18.0551C15.4741 18.2137 15.3788 18.3522 15.2533 18.4706C15.1279 18.5878 14.9775 18.6789 14.8023 18.744C14.6283 18.8079 14.4348 18.8399 14.2217 18.8399ZM19.5271 16.3772H18.8737C18.8737 16.2683 18.856 16.1718 18.8204 16.0878C18.7849 16.0025 18.7352 15.9303 18.6713 15.8711C18.6074 15.812 18.5316 15.7676 18.444 15.738C18.3564 15.7072 18.2594 15.6918 18.1528 15.6918C17.9492 15.6918 17.7598 15.7433 17.5847 15.8463C17.4095 15.9493 17.2609 16.099 17.139 16.2955C17.0171 16.4908 16.9324 16.7281 16.8851 17.0075C16.8413 17.2798 16.8454 17.5076 16.8975 17.6911C16.9508 17.8746 17.0431 18.0131 17.1745 18.1066C17.3059 18.1989 17.4657 18.2451 17.6539 18.2451C17.7687 18.2451 17.8788 18.2309 17.9842 18.2025C18.0895 18.1729 18.1866 18.1297 18.2753 18.0728C18.3653 18.0148 18.444 17.9444 18.5115 17.8616C18.5802 17.7787 18.6334 17.6846 18.6713 17.5792H19.3336C19.2791 17.7521 19.1992 17.9148 19.0939 18.0675C18.9885 18.219 18.8619 18.3528 18.7139 18.4688C18.5659 18.5836 18.4002 18.6736 18.2168 18.7387C18.0333 18.8038 17.8356 18.8363 17.6237 18.8363C17.2982 18.8363 17.0194 18.7606 16.7874 18.6091C16.5566 18.4564 16.3909 18.238 16.2903 17.9539C16.1896 17.6686 16.1719 17.3271 16.237 16.9294C16.3021 16.5423 16.4276 16.2126 16.6134 15.9404C16.8004 15.6681 17.0283 15.4604 17.297 15.3172C17.5669 15.1727 17.8575 15.1005 18.1688 15.1005C18.3748 15.1005 18.5618 15.129 18.7299 15.1858C18.8992 15.2426 19.0442 15.326 19.1649 15.4361C19.2856 15.545 19.3774 15.6788 19.4401 15.8374C19.504 15.9948 19.533 16.1748 19.5271 16.3772ZM20.4837 18.8417C20.3109 18.8417 20.1606 18.8109 20.0327 18.7493C19.9049 18.6866 19.8108 18.5943 19.7504 18.4723C19.6912 18.3504 19.6764 18.2001 19.706 18.0214C19.7321 17.8675 19.7818 17.7402 19.8552 17.6396C19.9297 17.539 20.0209 17.4585 20.1286 17.3981C20.2375 17.3366 20.3559 17.2904 20.4837 17.2596C20.6127 17.2289 20.7441 17.2064 20.8779 17.1922C21.0412 17.1756 21.1732 17.1602 21.2738 17.146C21.3756 17.1318 21.452 17.1105 21.5029 17.0821C21.5538 17.0525 21.5846 17.0075 21.5952 16.9471V16.9365C21.6165 16.8027 21.5952 16.6991 21.5313 16.6258C21.4674 16.5524 21.3608 16.5157 21.2117 16.5157C21.0554 16.5157 20.9241 16.55 20.8175 16.6187C20.711 16.6873 20.6334 16.7684 20.5849 16.8619L20.0025 16.7767C20.0759 16.611 20.1765 16.4725 20.3044 16.3612C20.4322 16.2487 20.5796 16.1647 20.7465 16.1091C20.9146 16.0522 21.0939 16.0238 21.2845 16.0238C21.4147 16.0238 21.5419 16.0392 21.6662 16.07C21.7917 16.1008 21.9024 16.1517 21.9983 16.2227C22.0953 16.2925 22.1664 16.3878 22.2113 16.5086C22.2575 16.6293 22.2652 16.7802 22.2344 16.9613L21.9308 18.7866H21.3129L21.3768 18.412H21.3555C21.3046 18.4877 21.2383 18.5588 21.1566 18.625C21.075 18.6901 20.9779 18.7428 20.8655 18.7831C20.753 18.8221 20.6258 18.8417 20.4837 18.8417ZM20.727 18.3694C20.856 18.3694 20.972 18.3439 21.075 18.293C21.178 18.2409 21.2626 18.1723 21.3289 18.087C21.3952 18.0018 21.4366 17.9089 21.4532 17.8083L21.5064 17.4869C21.4828 17.5035 21.4461 17.5189 21.3964 17.5331C21.3466 17.5473 21.291 17.5597 21.2294 17.5704C21.1691 17.581 21.1093 17.5905 21.0501 17.5988C20.9909 17.6071 20.94 17.6142 20.8974 17.6201C20.7992 17.6331 20.7092 17.6544 20.6275 17.684C20.547 17.7136 20.4802 17.755 20.4269 17.8083C20.3748 17.8604 20.3423 17.9278 20.3292 18.0107C20.3103 18.1279 20.3381 18.2173 20.4127 18.2788C20.4873 18.3392 20.592 18.3694 20.727 18.3694ZM23.8236 15.1503L23.2199 18.7866H22.5771L23.1808 15.1503H23.8236ZM25.1273 15.1503L24.5236 18.7866H23.8808L24.4845 15.1503H25.1273Z" fill="black"/>
<path d="M23.9802 30.9564C24.2352 30.9564 24.4435 30.756 24.4559 30.504C24.4563 30.4961 24.4565 30.4882 24.4565 30.4802C24.4565 30.2172 24.2432 30.0039 23.9802 30.0039C23.7172 30.0039 23.5039 30.2172 23.5039 30.4802C23.5039 30.4882 23.5041 30.4961 23.5045 30.504C23.5169 30.756 23.7251 30.9564 23.9802 30.9564Z" fill="black"/>
<path d="M20.2443 30.5945H21.7009C21.7601 31.8018 22.7578 32.762 23.9797 32.762C25.2017 32.762 26.1994 31.8018 26.2586 30.5945H36.5788C36.638 31.8018 37.6356 32.762 38.8576 32.762C40.0796 32.762 41.0772 31.8018 41.1364 30.5945H42.3303C42.4644 30.5945 42.586 30.5344 42.674 30.4374C42.7619 30.3404 42.8164 30.2067 42.8164 30.0586C42.8164 29.9312 42.7753 29.8079 42.7001 29.7109L42.4523 29.3909C43.0057 28.1379 42.8118 26.3422 42.6272 25.3084C42.5212 24.7129 42.1959 24.1924 41.7268 23.8751C41.1648 23.4946 40.2076 22.9748 38.6299 22.4204C35.4898 21.3175 29.9389 22.276 28.8459 23.1727C27.975 23.8868 26.2518 25.5799 24.0676 25.8306C22.9326 25.9607 21.9607 26.2927 21.2887 26.5819C20.6905 26.839 20.2904 27.4658 20.2686 28.173L20.2449 28.9396L19.8661 29.2181C19.7711 29.288 19.6953 29.3812 19.6431 29.4889C19.5909 29.5962 19.5625 29.7179 19.5625 29.8433C19.5625 30.2582 19.8678 30.5945 20.2443 30.5945ZM40.2989 30.5945C40.2407 31.3384 39.6165 31.9262 38.8576 31.9262C38.0987 31.9262 37.4745 31.3384 37.4163 30.5945C37.4133 30.5571 37.4116 30.519 37.4116 30.4805C37.4116 29.6831 38.0602 29.0345 38.8576 29.0345C39.655 29.0345 40.3036 29.6831 40.3036 30.4805C40.3036 30.519 40.3019 30.5571 40.2989 30.5945ZM42.146 26.9349C42.2575 26.958 42.3389 27.0536 42.3451 27.1673C42.3726 27.6732 42.2975 28.1942 42.2474 28.4727C42.226 28.5917 42.1224 28.6779 42.0016 28.6779H41.8345C41.6873 28.6779 41.572 28.5513 41.5858 28.4048L41.6861 27.334C41.6911 27.2804 41.7134 27.2298 41.7495 27.1899L41.91 27.0122C41.9694 26.9464 42.0592 26.917 42.146 26.9349ZM37.2456 24.6114L37.4137 23.829C37.4872 23.4868 37.7725 23.2305 38.1207 23.194L38.2632 23.1791C38.2932 23.189 38.3237 23.1987 38.3529 23.209C39.8977 23.7517 40.7856 24.2472 41.2583 24.5672C41.5387 24.7569 41.7377 25.0804 41.8043 25.4548C41.8124 25.5004 41.8203 25.5457 41.8278 25.5909H38.037C37.8642 25.5909 37.696 25.5356 37.5568 25.4331C37.3005 25.2443 37.1788 24.9227 37.2456 24.6114ZM33.7869 27.4074H32.9511C32.7941 27.4074 32.6669 27.2802 32.6669 27.1233C32.6669 26.9663 32.7941 26.8391 32.9511 26.8391H33.7869C33.9438 26.8391 34.0711 26.9663 34.0711 27.1233C34.0711 27.2802 33.9438 27.4074 33.7869 27.4074ZM29.039 24.1036C29.1672 23.994 29.2779 23.8994 29.3759 23.819C29.5215 23.6996 30.1329 23.4038 31.4054 23.1387C32.4643 22.9182 33.6389 22.7878 34.7503 22.7651L34.3617 24.9944C34.2636 25.5571 33.7864 25.9752 33.2157 25.9984L27.4121 26.2339C27.0816 26.2473 26.7635 26.125 26.5278 25.9013C27.5816 25.3484 28.4329 24.6215 29.039 24.1036ZM23.9797 29.0345C24.7772 29.0345 25.4257 29.6831 25.4257 30.4805C25.4257 30.519 25.4241 30.5571 25.4211 30.5945C25.3629 31.3384 24.7387 31.9262 23.9797 31.9262C23.2208 31.9262 22.5966 31.3384 22.5385 30.5945C22.5354 30.5571 22.5338 30.519 22.5338 30.4805C22.5338 29.6831 23.1824 29.0345 23.9797 29.0345ZM21.1435 27.4297C21.3712 27.4297 21.5558 27.7091 21.5558 28.0538C21.5558 28.3985 21.3712 28.6779 21.1435 28.6779C20.9158 28.6779 20.7312 28.3985 20.7312 28.0538C20.7312 27.7091 20.9158 27.4297 21.1435 27.4297Z" fill="black"/>
<path d="M14.0237 30.9564C13.7687 30.9564 13.5604 30.756 13.5481 30.504C13.5476 30.4961 13.5474 30.4882 13.5474 30.4802C13.5474 30.2172 13.7607 30.0039 14.0237 30.0039C14.2867 30.0039 14.5 30.2172 14.5 30.4802C14.5 30.4882 14.4998 30.4961 14.4994 30.504C14.487 30.756 14.2788 30.9564 14.0237 30.9564Z" fill="black"/>
<path d="M17.7596 30.594H16.303C16.2438 31.8013 15.2462 32.7615 14.0242 32.7615C12.8022 32.7615 11.8045 31.8013 11.7453 30.594H1.42516C1.36595 31.8013 0.368326 32.7615 -0.853661 32.7615C-2.07565 32.7615 -3.07333 31.8013 -3.13247 30.594H-4.32638C-4.46045 30.594 -4.58214 30.5339 -4.67007 30.4369C-4.758 30.34 -4.8125 30.2062 -4.8125 30.0581C-4.8125 29.9307 -4.77141 29.8074 -4.69618 29.7104L-4.44844 29.3904C-5.00176 28.1374 -4.80785 26.3417 -4.62327 25.3079C-4.51728 24.7125 -4.19201 24.1919 -3.7229 23.8746C-3.16086 23.4942 -2.2037 22.9743 -0.625978 22.4199C2.51408 21.317 8.06501 22.2755 9.15798 23.1722C10.0289 23.8863 11.7521 25.5794 13.9363 25.8301C15.0713 25.9602 16.0432 26.2922 16.7152 26.5814C17.3134 26.8385 17.7135 27.4654 17.7353 28.1725L17.759 28.9391L18.1378 29.2176C18.2328 29.2875 18.3086 29.3808 18.3608 29.4884C18.413 29.5957 18.4414 29.7174 18.4414 29.8428C18.4414 30.2577 18.1361 30.594 17.7596 30.594ZM-2.295 30.594C-2.23683 31.3379 -1.61263 31.9257 -0.853693 31.9257C-0.0947571 31.9257 0.529444 31.3379 0.587584 30.594C0.590626 30.5566 0.592299 30.5185 0.592299 30.48C0.592299 29.6827 -0.0563087 29.034 -0.853693 29.034C-1.65111 29.034 -2.29968 29.6827 -2.29968 30.48C-2.29968 30.5185 -2.29801 30.5566 -2.295 30.594ZM-4.14209 26.9344C-4.25362 26.9575 -4.33504 27.0531 -4.34122 27.1668C-4.36867 27.6727 -4.29361 28.1937 -4.2435 28.4722C-4.22206 28.5912 -4.11852 28.6774 -3.99766 28.6774H-3.83056C-3.68339 28.6774 -3.56808 28.5508 -3.58185 28.4043L-3.68222 27.3335C-3.68723 27.2799 -3.70947 27.2294 -3.74557 27.1894L-3.90612 27.0117C-3.9655 26.9459 -4.0553 26.9165 -4.14209 26.9344ZM0.758263 24.611L0.590193 23.8286C0.516672 23.4863 0.231419 23.2301 -0.116756 23.1936L-0.259314 23.1786C-0.28927 23.1885 -0.319761 23.1982 -0.349014 23.2085C-1.8938 23.7513 -2.78166 24.2467 -3.2544 24.5667C-3.53484 24.7564 -3.73377 25.0799 -3.80041 25.4543C-3.80853 25.4999 -3.81638 25.5452 -3.82391 25.5904H-0.0331059C0.139711 25.5904 0.307947 25.5351 0.447063 25.4326C0.703363 25.2438 0.825129 24.9222 0.758263 24.611ZM4.217 27.407H5.05284C5.20981 27.407 5.33702 27.2797 5.33702 27.1228C5.33702 26.9658 5.20981 26.8386 5.05284 26.8386H4.217C4.06007 26.8386 3.93282 26.9658 3.93282 27.1228C3.93282 27.2797 4.06007 27.407 4.217 27.407ZM8.96494 24.1031C8.83672 23.9935 8.72602 23.8989 8.62796 23.8185C8.48236 23.6991 7.871 23.4033 6.59846 23.1383C5.53959 22.9177 4.36501 22.7873 3.25359 22.7646L3.64219 24.9939C3.74028 25.5566 4.21754 25.9747 4.78821 25.9979L10.5918 26.2334C10.9223 26.2468 11.2404 26.1245 11.4761 25.9008C10.4223 25.348 9.57098 24.621 8.96494 24.1031ZM14.0242 29.034C13.2267 29.034 12.5782 29.6827 12.5782 30.48C12.5782 30.5185 12.5798 30.5566 12.5829 30.594C12.641 31.3379 13.2652 31.9257 14.0242 31.9257C14.7831 31.9257 15.4073 31.3379 15.4654 30.594C15.4685 30.5566 15.4702 30.5185 15.4702 30.48C15.4701 29.6827 14.8215 29.034 14.0242 29.034ZM16.8604 27.4293C16.6327 27.4293 16.4481 27.7087 16.4481 28.0534C16.4481 28.398 16.6327 28.6775 16.8604 28.6775C17.0881 28.6775 17.2727 28.398 17.2727 28.0534C17.2727 27.7087 17.0881 27.4293 16.8604 27.4293Z" fill="black"/>
<path d="M18.5257 21.4275C18.5054 21.0798 18.7819 20.7866 19.1303 20.7866C19.4935 20.7866 19.7751 21.1042 19.7315 21.4648L19.2198 25.7037C19.2146 25.7463 19.1829 25.7809 19.1408 25.7896L18.8983 25.8399C18.8386 25.8523 18.7818 25.8087 18.7782 25.7478L18.5257 21.4275Z" fill="black"/>
<path d="M21.2136 22.6443C21.3393 22.3726 21.6678 22.2627 21.9317 22.404C22.2068 22.5514 22.2913 22.9062 22.112 23.1617L20.0103 26.157C19.9856 26.1921 19.9412 26.2076 19.9001 26.1955L19.7213 26.1426C19.6628 26.1253 19.6332 26.0601 19.6589 26.0047L21.2136 22.6443Z" fill="black"/>
<path d="M16.7903 22.5881C16.6646 22.3164 16.3361 22.2066 16.0722 22.3479C15.7971 22.4953 15.7126 22.8501 15.8919 23.1056L17.9526 26.0424C18.0018 26.1125 18.0902 26.1433 18.1723 26.1191C18.289 26.0846 18.3478 25.9546 18.2967 25.8442L16.7903 22.5881Z" fill="black"/>
</g>
<defs>
<clipPath id="clip0_5797_1471">
<rect y="0.73291" width="38" height="38.029" rx="6" fill="white"/>
</clipPath>
</defs>
</svg>
