<svg width="38" height="39" viewBox="0 0 38 39" fill="none" xmlns="http://www.w3.org/2000/svg">
<g clip-path="url(#clip0_5787_2340)">
<rect y="0.275879" width="38" height="38" rx="6" fill="white"/>
<path fill-rule="evenodd" clip-rule="evenodd" d="M22.4805 4.27588C22.4805 2.61903 23.8236 1.27588 25.4805 1.27588H29.5352C31.192 1.27588 32.5352 2.61902 32.5352 4.27588V11.7439L33.3449 11.8691C33.6144 11.9111 33.8254 12.0859 33.9308 12.312C34.0129 12.4937 34.0285 12.7085 33.9504 12.9146C33.9152 13.0137 33.8019 13.0645 33.7043 13.0278L32.5352 12.6005V22.6743C32.5352 24.3312 31.192 25.6743 29.5352 25.6743H25.4805C23.8236 25.6743 22.4805 24.3312 22.4805 22.6743V12.6513L21.4504 13.0278C21.4035 13.0454 21.3527 13.043 21.3097 13.0249C21.2629 13.0054 21.2238 12.9668 21.2043 12.9146C21.1418 12.75 21.1379 12.5796 21.1808 12.4248C21.2629 12.1455 21.4972 11.918 21.8097 11.8691L22.4805 11.7654V4.27588ZM24.4568 9.25127C23.8111 9.25356 23.3368 9.85812 23.4882 10.4858L24.1983 13.4283L25.3375 13.2621C26.7628 13.0542 28.2117 13.0675 29.6329 13.3015L30.6854 13.4748L31.4846 10.4883C31.6549 9.85178 31.1739 9.22741 30.515 9.22975L24.4568 9.25127ZM24.7936 22.8129C24.1744 22.8107 23.706 22.252 23.8119 21.6419L24.2638 19.0388L25.4942 19.2041C26.819 19.382 28.1625 19.3694 29.4837 19.1664L30.5882 18.9968L31.1489 21.6233C31.282 22.247 30.8051 22.8343 30.1673 22.832L24.7936 22.8129ZM31.1023 13.6372L31.5087 11.996C31.5372 11.8812 31.7063 11.9021 31.7058 12.0204L31.6714 20.8534C31.671 20.975 31.495 20.9906 31.4731 20.8711L31.1312 19.003C31.1229 18.9575 31.1186 18.9115 31.1182 18.8652L31.0789 13.8357C31.0784 13.7688 31.0863 13.7021 31.1023 13.6372ZM23.3936 11.996L23.8 13.6372C23.8161 13.7021 23.824 13.7688 23.8234 13.8357L23.7841 18.8652C23.7838 18.9115 23.7794 18.9575 23.7711 19.003L23.4293 20.8711C23.4074 20.9906 23.2314 20.975 23.2309 20.8534L23.1965 12.0204C23.1961 11.9021 23.3652 11.8812 23.3936 11.996Z" fill="black"/>
<path fill-rule="evenodd" clip-rule="evenodd" d="M6.32808 25.2759C6.32808 23.619 7.67123 22.2759 9.32808 22.2759H13.3828C15.0396 22.2759 16.3828 23.619 16.3828 25.2759V29.7441L17.1914 29.8691C17.6805 29.9448 17.9754 30.4521 17.7989 30.9145C17.761 31.0138 17.6504 31.0643 17.5505 31.0277L16.3828 30.6003V40.4473C16.3828 41.5044 15.836 42.4339 15.0098 42.9682C15.025 42.857 15.0216 42.7408 14.9965 42.6233L14.4358 39.9968L13.3313 40.1664C12.0101 40.3694 10.6666 40.382 9.34181 40.2041L8.11144 40.0388L7.65955 42.6419C7.64218 42.742 7.64025 42.8406 7.65191 42.9357C6.85325 42.3967 6.32808 41.4833 6.32808 40.4473V30.6113L5.19052 31.0276C5.0907 31.0641 4.98005 31.0137 4.94216 30.9144C4.76571 30.452 5.06053 29.9447 5.54962 29.869L6.32808 29.7486V25.2759ZM8.30439 27.2513C7.65866 27.2536 7.18437 27.8581 7.33584 28.4858L8.04587 31.4283L9.18512 31.2621C10.6104 31.0542 12.0593 31.0675 13.4805 31.3015L14.533 31.4748L15.3322 28.4883C15.5025 27.8518 15.0215 27.2274 14.3627 27.2297L8.30439 27.2513ZM14.95 31.6372L15.3563 29.996C15.3848 29.8812 15.5539 29.9021 15.5534 30.0204L15.5191 38.8534C15.5186 38.975 15.3426 38.9906 15.3207 38.8711L14.9789 37.003C14.9705 36.9575 14.9662 36.9115 14.9658 36.8652L14.9265 31.8357C14.926 31.7688 14.9339 31.7021 14.95 31.6372ZM7.24123 29.996L7.64762 31.6372C7.6637 31.7021 7.67157 31.7688 7.67105 31.8357L7.63176 36.8652C7.6314 36.9115 7.62703 36.9575 7.61872 37.003L7.27689 38.8711C7.25501 38.9906 7.07899 38.975 7.07852 38.8534L7.04416 30.0204C7.0437 29.9021 7.2128 29.8812 7.24123 29.996Z" fill="black"/>
<path d="M20.3892 15.9693C20.0459 15.9588 19.7081 15.8809 19.395 15.7399C19.0819 15.5989 18.7996 15.3976 18.5642 15.1475C18.3289 14.8974 18.1452 14.6034 18.0234 14.2822C17.9017 13.9611 17.8445 13.6192 17.8549 13.2759" stroke="black" stroke-width="1.5" stroke-linecap="round"/>
<path d="M19.2067 18.4153C18.6659 18.3988 18.1337 18.276 17.6404 18.0539C17.1471 17.8317 16.7023 17.5146 16.3316 17.1206C15.9608 16.7265 15.6713 16.2633 15.4796 15.7574C15.2878 15.2515 15.1976 14.7128 15.2141 14.172" stroke="black" stroke-width="1.5" stroke-linecap="round"/>
<path d="M17.8993 20.8595C17.1785 20.8376 16.4691 20.6739 15.8115 20.3777C15.154 20.0816 14.5612 19.6589 14.067 19.1337C13.5729 18.6085 13.187 17.9911 12.9314 17.3168C12.6758 16.6424 12.5556 15.9243 12.5775 15.2035" stroke="black" stroke-width="1.5" stroke-linecap="round"/>
</g>
<defs>
<clipPath id="clip0_5787_2340">
<rect y="0.275879" width="38" height="38" rx="6" fill="white"/>
</clipPath>
</defs>
</svg>
