<svg width="38" height="39" viewBox="0 0 38 39" fill="none" xmlns="http://www.w3.org/2000/svg">
<g clip-path="url(#clip0_5787_2380)">
<rect y="0.275879" width="38" height="38" rx="6" fill="white"/>
<path d="M14.8266 19.5083C14.7713 19.5083 14.7265 19.4635 14.7271 19.4082C14.7532 17.0398 15.7054 14.7741 17.3821 13.0974C19.0587 11.4207 21.3245 10.4686 23.6929 10.4424C23.7481 10.4418 23.793 10.4867 23.793 10.5419V11.9822C23.793 12.0374 23.7481 12.0822 23.6929 12.0829C21.7596 12.1089 19.911 12.8882 18.5419 14.2573C17.1729 15.6263 16.3936 17.4749 16.3676 19.4082C16.3668 19.4635 16.3221 19.5083 16.2669 19.5083H14.8266Z" fill="#FF0000"/>
<path d="M18.4359 19.5086C18.3807 19.5086 18.3358 19.4637 18.3369 19.4085C18.3627 17.9979 18.9343 16.6505 19.9338 15.6511C20.9332 14.6516 22.2806 14.08 23.6912 14.0541C23.7465 14.0531 23.7913 14.098 23.7913 14.1532V15.6384C23.7913 15.6936 23.7465 15.7383 23.6913 15.7397C22.7276 15.7653 21.8088 16.1592 21.1254 16.8426C20.4419 17.5261 20.048 18.4449 20.0224 19.4086C20.021 19.4638 19.9763 19.5086 19.9211 19.5086H18.4359Z" fill="#FF0000"/>
<path d="M23.1729 18.0165C23.2117 18.0004 23.2511 17.9859 23.291 17.9729V18.5587C23.1957 18.6089 23.1083 18.6732 23.0319 18.7496C22.9554 18.8261 22.8911 18.9135 22.841 19.0088L22.2551 19.0088C22.2681 18.9689 22.2826 18.9295 22.2987 18.8907C22.3799 18.6947 22.4989 18.5166 22.6489 18.3666C22.7989 18.2167 22.9769 18.0977 23.1729 18.0165Z" stroke="#FF0000"/>
<path d="M25.9626 29.7519C26.3819 29.7519 26.7243 29.4224 26.7446 29.0081C26.7453 28.9952 26.7456 28.9821 26.7456 28.969C26.7456 28.5366 26.395 28.186 25.9627 28.186C25.5303 28.186 25.1797 28.5366 25.1797 28.969C25.1797 28.9821 25.1801 28.9952 25.1807 29.0081C25.201 29.4224 25.5434 29.7519 25.9626 29.7519Z" fill="#FF0000"/>
<path d="M19.82 29.1567H22.2146C22.3119 31.1414 23.9519 32.7199 25.9608 32.7199C27.9696 32.7199 29.6097 31.1414 29.7069 29.1567H46.6724C46.7698 31.1414 48.4098 32.7199 50.4186 32.7199C52.4274 32.7199 54.0675 31.1414 54.1648 29.1567H56.1274C56.3478 29.1567 56.5479 29.0578 56.6924 28.8984C56.837 28.739 56.9266 28.5192 56.9266 28.2757C56.9266 28.0663 56.859 27.8635 56.7354 27.7041L56.3281 27.1781C57.2377 25.1182 56.9189 22.1662 56.6155 20.4668C56.4413 19.4879 55.9066 18.6322 55.1354 18.1106C54.2114 17.4851 52.6379 16.6305 50.0443 15.7192C44.8823 13.9061 35.7571 15.4818 33.9604 16.9559C32.5286 18.1298 29.6959 20.9131 26.1053 21.3253C24.2394 21.5391 22.6416 22.0849 21.5369 22.5603C20.5536 22.9829 19.8958 24.0135 19.86 25.1759L19.821 26.4362L19.1983 26.894C19.0422 27.0089 18.9175 27.1622 18.8317 27.3392C18.7459 27.5156 18.6992 27.7157 18.6992 27.9218C18.6993 28.6038 19.2011 29.1567 19.82 29.1567ZM52.788 29.1567C52.6924 30.3796 51.6663 31.3459 50.4187 31.3459C49.171 31.3459 48.1449 30.3796 48.0493 29.1567C48.0443 29.0952 48.0416 29.0325 48.0416 28.9693C48.0416 27.6585 49.1078 26.5922 50.4187 26.5922C51.7295 26.5922 52.7957 27.6585 52.7957 28.9693C52.7957 29.0325 52.793 29.0952 52.788 29.1567ZM55.8245 23.1407C56.0078 23.1786 56.1417 23.3357 56.1518 23.5226C56.197 24.3543 56.0736 25.2108 55.9912 25.6687C55.956 25.8642 55.7858 26.006 55.5871 26.006H55.3124C55.0704 26.006 54.8809 25.7978 54.9035 25.5569L55.0685 23.7967C55.0767 23.7086 55.1133 23.6255 55.1727 23.5598L55.4366 23.2676C55.5342 23.1595 55.6818 23.1112 55.8245 23.1407ZM47.7687 19.3211L48.045 18.0349C48.1659 17.4722 48.6348 17.051 49.2072 16.991L49.4416 16.9664C49.4908 16.9827 49.5409 16.9987 49.589 17.0155C52.1285 17.9078 53.5881 18.7223 54.3652 19.2484C54.8262 19.5602 55.1533 20.092 55.2628 20.7075C55.2761 20.7824 55.2891 20.8569 55.3014 20.9312H49.0697C48.7856 20.9312 48.509 20.8403 48.2803 20.6717C47.859 20.3614 47.6588 19.8328 47.7687 19.3211ZM42.0829 23.9174H40.7088C40.4508 23.9174 40.2417 23.7083 40.2417 23.4503C40.2417 23.1923 40.4508 22.9831 40.7088 22.9831H42.0829C42.3409 22.9831 42.5501 23.1923 42.5501 23.4503C42.5501 23.7083 42.3409 23.9174 42.0829 23.9174ZM34.2777 18.4862C34.4885 18.3061 34.6705 18.1505 34.8317 18.0184C35.071 17.822 36.076 17.3359 38.168 16.9001C39.9087 16.5375 41.8396 16.3231 43.6667 16.2858L43.0278 19.9507C42.8666 20.8757 42.082 21.5629 41.1439 21.601L31.6033 21.9882C31.06 22.0103 30.5371 21.8093 30.1496 21.4415C31.882 20.5326 33.2814 19.3376 34.2777 18.4862ZM25.9608 26.5922C27.2717 26.5922 28.3379 27.6585 28.3379 28.9693C28.3379 29.0325 28.3351 29.0952 28.3302 29.1567C28.2345 30.3796 27.2084 31.3459 25.9608 31.3459C24.7132 31.3459 23.687 30.3796 23.5914 29.1567C23.5864 29.0952 23.5837 29.0325 23.5837 28.9693C23.5837 27.6585 24.65 26.5922 25.9608 26.5922ZM21.2982 23.9541C21.6726 23.9541 21.9761 24.4134 21.9761 24.9801C21.9761 25.5467 21.6726 26.006 21.2982 26.006C20.9239 26.006 20.6204 25.5467 20.6204 24.9801C20.6204 24.4134 20.9239 23.9541 21.2982 23.9541Z" fill="#FF0000"/>
<path d="M5.54079 28.186C5.10841 28.186 4.75781 28.5366 4.75781 28.969C4.75781 28.9821 4.7582 28.9952 4.75886 29.0081C4.77919 29.4224 5.12155 29.7519 5.54085 29.7519C5.96015 29.7519 6.3025 29.4224 6.32284 29.0081C6.32356 28.9952 6.32383 28.9821 6.32383 28.969C6.32378 28.5366 5.97318 28.186 5.54079 28.186Z" fill="#FF0000"/>
<path fill-rule="evenodd" clip-rule="evenodd" d="M-24.2527 23.2231C-24.7116 23.735 -24.992 24.4282 -25.015 25.1759L-25.054 26.4362L-25.6767 26.894C-25.8328 27.0089 -25.9575 27.1622 -26.0433 27.3392C-26.1291 27.5156 -26.1758 27.7157 -26.1758 27.9218C-26.1757 28.6038 -25.6739 29.1567 -25.055 29.1567H-24.2527V25.0567C-24.254 25.0314 -24.2546 25.0058 -24.2546 24.9801C-24.2546 24.9543 -24.254 24.9288 -24.2527 24.9036V23.2231ZM-6.26279 29.1567H1.79743C1.89477 31.1414 3.53477 32.7199 5.54361 32.7199C7.55244 32.7199 9.19255 31.1414 9.28977 29.1567H11.2524C11.4728 29.1567 11.6729 29.0578 11.8174 28.8984C11.962 28.739 12.0516 28.5192 12.0516 28.2757C12.0516 28.0663 11.984 27.8635 11.8604 27.7041L11.4531 27.1781C12.3627 25.1182 12.0439 22.1662 11.7405 20.4668C11.5663 19.4879 11.0316 18.6322 10.2604 18.1106C9.33643 17.4851 7.76295 16.6305 5.16932 15.7192C1.98341 14.6002 -2.71219 14.772 -6.26279 15.4141V16.8115C-4.64143 16.5026 -2.88136 16.3199 -1.20835 16.2858L-1.84717 19.9507C-2.00843 20.8757 -2.793 21.5629 -3.73113 21.601L-6.26279 21.7038V29.1567ZM5.54366 31.3459C6.79128 31.3459 7.81741 30.3796 7.91304 29.1567C7.91799 29.0952 7.92074 29.0325 7.92074 28.9693C7.92074 27.6585 6.85455 26.5922 5.54366 26.5922C4.23283 26.5922 3.16658 27.6585 3.16658 28.9693C3.16658 29.0325 3.16933 29.0952 3.17433 29.1567C3.26991 30.3796 4.29604 31.3459 5.54366 31.3459ZM11.2768 23.5227C11.2667 23.3357 11.1328 23.1786 10.9495 23.1407C10.8068 23.1112 10.6592 23.1595 10.5616 23.2676L10.2977 23.5598C10.2383 23.6255 10.2017 23.7086 10.1935 23.7967L10.0285 25.5569C10.0059 25.7978 10.1954 26.006 10.4374 26.006H10.7121C10.9108 26.006 11.081 25.8642 11.1162 25.6687C11.1986 25.2108 11.322 24.3543 11.2768 23.5227ZM3.17004 18.0349L2.89375 19.3211C2.78382 19.8328 2.984 20.3614 3.40533 20.6717C3.63403 20.8403 3.91059 20.9312 4.19469 20.9312H10.4264C10.4141 20.8569 10.4011 20.7824 10.3878 20.7075C10.2783 20.092 9.95123 19.5602 9.49022 19.2484C8.71306 18.7223 7.25351 17.9078 4.71401 17.0155C4.67966 17.0035 4.64427 16.9919 4.6089 16.9803C4.59476 16.9757 4.58062 16.971 4.56655 16.9664L4.3322 16.991C3.75983 17.051 3.2909 17.4722 3.17004 18.0349ZM-4.16616 23.9174H-2.79212C-2.53413 23.9174 -2.32495 23.7083 -2.32495 23.4503C-2.32495 23.1923 -2.53413 22.9831 -2.79212 22.9831H-4.16616C-4.4242 22.9831 -4.63333 23.1923 -4.63333 23.4503C-4.63333 23.7083 -4.4242 23.9174 -4.16616 23.9174Z" fill="#FF0000"/>
</g>
<defs>
<clipPath id="clip0_5787_2380">
<rect y="0.275879" width="38" height="38" rx="6" fill="white"/>
</clipPath>
</defs>
</svg>
