<svg width="38" height="39" viewBox="0 0 38 39" fill="none" xmlns="http://www.w3.org/2000/svg">
<g clip-path="url(#clip0_5787_2468)">
<rect y="0.275879" width="38" height="38" rx="6" fill="white"/>
<path d="M27.899 27.5211C28.3553 27.5211 28.7279 27.1625 28.75 26.7116C28.7508 26.6975 28.7512 26.6833 28.7512 26.669C28.7512 26.1985 28.3696 25.8169 27.899 25.8169C27.4284 25.8169 27.0469 26.1985 27.0469 26.669C27.0469 26.6833 27.0473 26.6975 27.048 26.7116C27.0701 27.1625 27.4427 27.5211 27.899 27.5211Z" fill="#FF0000"/>
<path d="M21.2159 26.8732H23.822C23.9279 29.0331 25.7128 30.7511 27.8991 30.7511C30.0854 30.7511 31.8704 29.0331 31.9762 26.8732H50.4403C50.5463 29.0331 52.3311 30.7511 54.5174 30.7511C56.7037 30.7511 58.4887 29.0331 58.5945 26.8732H60.7306C60.9704 26.8732 61.1882 26.7655 61.3455 26.592C61.5028 26.4186 61.6003 26.1793 61.6003 25.9143C61.6003 25.6864 61.5268 25.4657 61.3922 25.2922L60.949 24.7198C61.9389 22.4779 61.592 19.2651 61.2617 17.4156C61.0721 16.3503 60.4902 15.4189 59.6509 14.8513C58.6453 14.1706 56.9328 13.2404 54.1101 12.2486C48.4921 10.2753 38.5608 11.9902 36.6053 13.5945C35.0471 14.8722 31.9642 17.9013 28.0564 18.3499C26.0257 18.5826 24.2867 19.1766 23.0844 19.694C22.0143 20.154 21.2984 21.2756 21.2594 22.5407L21.2169 23.9123L20.5392 24.4105C20.3693 24.5356 20.2336 24.7024 20.1403 24.895C20.0469 25.0871 19.9961 25.3048 19.9961 25.5291C19.9962 26.2714 20.5423 26.8732 21.2159 26.8732ZM57.0962 26.8732C56.9921 28.2041 55.8753 29.2557 54.5175 29.2557C53.1597 29.2557 52.0429 28.2041 51.9389 26.8732C51.9334 26.8062 51.9304 26.738 51.9304 26.6692C51.9304 25.2426 53.0909 24.0821 54.5175 24.0821C55.9442 24.0821 57.1046 25.2426 57.1046 26.6692C57.1046 26.738 57.1016 26.8062 57.0962 26.8732ZM60.4009 20.3257C60.6004 20.3669 60.7461 20.538 60.7571 20.7414C60.8062 21.6465 60.672 22.5787 60.5823 23.077C60.5439 23.2898 60.3587 23.4441 60.1425 23.4441H59.8435C59.5802 23.4441 59.3739 23.2176 59.3985 22.9554L59.5781 21.0397C59.5871 20.9438 59.6268 20.8533 59.6914 20.7818L59.9787 20.4638C60.0849 20.3461 60.2456 20.2935 60.4009 20.3257ZM51.6335 16.1687L51.9342 14.7688C52.0657 14.1565 52.5761 13.6981 53.199 13.6327L53.4541 13.6059C53.5077 13.6237 53.5622 13.6411 53.6146 13.6595C56.3784 14.6305 57.9669 15.517 58.8127 16.0895C59.3144 16.4289 59.6703 17.0076 59.7895 17.6776C59.8041 17.7591 59.8181 17.8402 59.8316 17.921H53.0494C52.7402 17.921 52.4392 17.822 52.1903 17.6387C51.7317 17.3009 51.5139 16.7256 51.6335 16.1687ZM45.4454 21.1711H43.95C43.6691 21.1711 43.4415 20.9434 43.4415 20.6626C43.4415 20.3818 43.6691 20.1542 43.95 20.1542H45.4454C45.7261 20.1542 45.9538 20.3818 45.9538 20.6626C45.9538 20.9434 45.7261 21.1711 45.4454 21.1711ZM36.9507 15.26C37.1801 15.064 37.3782 14.8947 37.5536 14.7509C37.8141 14.5372 38.9079 14.0081 41.1846 13.5338C43.0791 13.1392 45.1806 12.9059 47.169 12.8652L46.4738 16.8539C46.2983 17.8606 45.4444 18.6086 44.4234 18.65L34.0401 19.0714C33.4488 19.0954 32.8797 18.8767 32.458 18.4764C34.3434 17.4873 35.8664 16.1866 36.9507 15.26ZM27.8991 24.0821C29.3258 24.0821 30.4862 25.2426 30.4862 26.6692C30.4862 26.738 30.4832 26.8062 30.4778 26.8732C30.3737 28.2041 29.2569 29.2557 27.8991 29.2557C26.5413 29.2557 25.4245 28.2041 25.3205 26.8732C25.315 26.8062 25.312 26.738 25.312 26.6692C25.3121 25.2426 26.4725 24.0821 27.8991 24.0821ZM22.8247 21.211C23.2322 21.211 23.5624 21.7108 23.5624 22.3275C23.5624 22.9442 23.2322 23.4441 22.8247 23.4441C22.4173 23.4441 22.087 22.9443 22.087 22.3275C22.087 21.7108 22.4173 21.211 22.8247 21.211Z" fill="#FF0000"/>
<path d="M10.101 27.5211C9.6447 27.5211 9.2721 27.1625 9.24997 26.7116C9.24919 26.6975 9.24883 26.6833 9.24883 26.669C9.24883 26.1985 9.6304 25.8169 10.101 25.8169C10.5716 25.8169 10.9531 26.1985 10.9531 26.669C10.9531 26.6833 10.9527 26.6975 10.952 26.7116C10.9299 27.1625 10.5573 27.5211 10.101 27.5211Z" fill="#FF0000"/>
<path d="M16.7841 26.8732H14.178C14.0721 29.0331 12.2872 30.7511 10.1009 30.7511C7.9146 30.7511 6.12962 29.0331 6.0238 26.8732H-12.4403C-12.5463 29.0331 -14.3311 30.7511 -16.5174 30.7511C-18.7037 30.7511 -20.4887 29.0331 -20.5945 26.8732H-22.7306C-22.9704 26.8732 -23.1882 26.7655 -23.3455 26.592C-23.5028 26.4186 -23.6003 26.1793 -23.6003 25.9143C-23.6003 25.6864 -23.5268 25.4657 -23.3922 25.2922L-22.949 24.7198C-23.9389 22.4779 -23.592 19.2651 -23.2617 17.4156C-23.0721 16.3503 -22.4902 15.4189 -21.6509 14.8513C-20.6453 14.1706 -18.9328 13.2404 -16.1101 12.2486C-10.4921 10.2753 -0.560795 11.9902 1.39467 13.5945C2.95288 14.8722 6.03583 17.9013 9.94364 18.3499C11.9743 18.5826 13.7133 19.1766 14.9156 19.694C15.9857 20.154 16.7016 21.2756 16.7406 22.5407L16.7831 23.9123L17.4608 24.4105C17.6307 24.5356 17.7664 24.7024 17.8597 24.895C17.9531 25.0871 18.0039 25.3048 18.0039 25.5291C18.0038 26.2714 17.4577 26.8732 16.7841 26.8732ZM-19.0962 26.8732C-18.9921 28.2041 -17.8753 29.2557 -16.5175 29.2557C-15.1597 29.2557 -14.0429 28.2041 -13.9389 26.8732C-13.9334 26.8062 -13.9304 26.738 -13.9304 26.6692C-13.9304 25.2426 -15.0909 24.0821 -16.5175 24.0821C-17.9442 24.0821 -19.1046 25.2426 -19.1046 26.6692C-19.1046 26.738 -19.1016 26.8062 -19.0962 26.8732ZM-22.4009 20.3257C-22.6004 20.3669 -22.7461 20.538 -22.7571 20.7414C-22.8062 21.6465 -22.672 22.5787 -22.5823 23.077C-22.5439 23.2898 -22.3587 23.4441 -22.1425 23.4441H-21.8435C-21.5802 23.4441 -21.3739 23.2176 -21.3985 22.9554L-21.5781 21.0397C-21.5871 20.9438 -21.6268 20.8533 -21.6914 20.7818L-21.9787 20.4638C-22.0849 20.3461 -22.2456 20.2935 -22.4009 20.3257ZM-13.6335 16.1687L-13.9342 14.7688C-14.0657 14.1565 -14.5761 13.6981 -15.199 13.6327L-15.4541 13.6059C-15.5077 13.6237 -15.5622 13.6411 -15.6146 13.6595C-18.3784 14.6305 -19.9669 15.517 -20.8127 16.0895C-21.3144 16.4289 -21.6703 17.0076 -21.7895 17.6776C-21.8041 17.7591 -21.8181 17.8402 -21.8316 17.921H-15.0494C-14.7402 17.921 -14.4392 17.822 -14.1903 17.6387C-13.7317 17.3009 -13.5139 16.7256 -13.6335 16.1687ZM-7.44537 21.1711H-5.94996C-5.66912 21.1711 -5.44152 20.9434 -5.44152 20.6626C-5.44152 20.3818 -5.66912 20.1542 -5.94996 20.1542H-7.44537C-7.72615 20.1542 -7.95381 20.3818 -7.95381 20.6626C-7.95381 20.9434 -7.72615 21.1711 -7.44537 21.1711ZM1.04929 15.26C0.819889 15.064 0.621838 14.8947 0.446396 14.7509C0.185896 14.5372 -0.907909 14.0081 -3.18464 13.5338C-5.07909 13.1392 -7.18056 12.9059 -9.16904 12.8652L-8.47379 16.8539C-8.29829 17.8606 -7.44441 18.6086 -6.42341 18.65L3.9599 19.0714C4.55124 19.0954 5.12034 18.8767 5.54204 18.4764C3.65663 17.4873 2.13358 16.1866 1.04929 15.26ZM10.1009 24.0821C8.67421 24.0821 7.51383 25.2426 7.51383 26.6692C7.51383 26.738 7.51682 26.8062 7.52221 26.8732C7.62629 28.2041 8.74306 29.2557 10.1009 29.2557C11.4587 29.2557 12.5755 28.2041 12.6795 26.8732C12.685 26.8062 12.688 26.738 12.688 26.6692C12.6879 25.2426 11.5275 24.0821 10.1009 24.0821ZM15.1753 21.211C14.7678 21.211 14.4376 21.7108 14.4376 22.3275C14.4376 22.9442 14.7678 23.4441 15.1753 23.4441C15.5827 23.4441 15.913 22.9443 15.913 22.3275C15.913 21.7108 15.5827 21.211 15.1753 21.211Z" fill="#FF0000"/>
<path d="M18.2908 11.8626C18.2602 11.3387 18.6768 10.897 19.2017 10.897C19.7489 10.897 20.1731 11.3754 20.1075 11.9187L19.3321 18.3413C19.327 18.3839 19.2952 18.4185 19.2532 18.4272L18.7947 18.5223C18.735 18.5347 18.6782 18.4911 18.6746 18.4302L18.2908 11.8626Z" fill="#FF0000"/>
<path d="M22.3345 13.6963C22.5239 13.287 23.0188 13.1214 23.4164 13.3344C23.8309 13.5564 23.9581 14.0909 23.688 14.4759L20.5006 19.0185C20.4759 19.0536 20.4316 19.0691 20.3904 19.0569L20.0299 18.9504C19.9713 18.9331 19.9418 18.8679 19.9674 18.8125L22.3345 13.6963Z" fill="#FF0000"/>
<path d="M15.6694 13.6113C15.48 13.202 14.9851 13.0365 14.5875 13.2494C14.173 13.4714 14.0458 14.006 14.3159 14.391L17.462 18.8747C17.5114 18.945 17.6001 18.976 17.6824 18.9516L17.863 18.8983C17.98 18.8637 18.0391 18.7332 17.9878 18.6225L15.6694 13.6113Z" fill="#FF0000"/>
</g>
<defs>
<clipPath id="clip0_5787_2468">
<rect y="0.275879" width="38" height="38" rx="6" fill="white"/>
</clipPath>
</defs>
</svg>
