<svg width="38" height="39" viewBox="0 0 38 39" fill="none" xmlns="http://www.w3.org/2000/svg">
<rect y="0.73291" width="38" height="38" rx="6" fill="white"/>
<path fill-rule="evenodd" clip-rule="evenodd" d="M9.90023 20.2695L10.4978 18.0445C10.926 16.451 12.1985 15.2144 13.7732 14.7941L14.2885 14.107L15.8353 12.0451C15.9501 11.8923 16.0756 11.7514 16.201 11.6106L16.2158 11.594L16.7609 8.89925C16.8418 8.49906 16.3736 8.21884 16.0576 8.47843L13.1516 10.8637C12.9524 11.0269 12.6551 10.9827 12.5122 10.7687L10.429 7.64303C10.2019 7.30282 9.67218 7.43478 9.63272 7.84168L9.26948 11.5777C9.24446 11.834 9.00294 12.0125 8.74988 11.9616L5.06068 11.2207C4.65894 11.1401 4.37797 11.607 4.63825 11.9222L7.02988 14.821C7.19346 15.0196 7.1492 15.3162 6.93462 15.4587L3.80015 17.5364C3.45904 17.7624 3.59183 18.2907 3.99933 18.33L7.7453 18.6923C8.00222 18.7168 8.1812 18.9577 8.1302 19.2101L7.38735 22.8895C7.30605 23.2897 7.77465 23.5699 8.09075 23.3103L9.78428 21.9197C9.72558 21.3679 9.75541 20.8094 9.90023 20.2695ZM33.6948 26.6274L34.2924 24.4029C34.4627 23.7695 34.4194 23.1308 34.2082 22.5608C33.9945 21.9843 33.6137 21.4844 33.1141 21.1246L32.9414 19.6827L32.6354 17.1256C32.5372 16.3027 32.2572 15.5369 31.8329 14.8709C31.4068 14.2022 30.8366 13.6367 30.1639 13.2154C29.7131 12.9328 29.2146 12.714 28.6796 12.571L22.7773 10.9938C22.2423 10.8508 21.7006 10.7917 21.1689 10.8114C20.6373 10.8311 20.1148 10.9295 19.6178 11.1012C19.3696 11.1866 19.1276 11.2908 18.8937 11.4127C18.4266 11.6559 17.9921 11.9702 17.6072 12.3488C17.4143 12.5379 17.2344 12.7437 17.0684 12.9649L15.5216 15.0268L14.6493 16.1895C14.3432 16.2204 14.0433 16.2968 13.7597 16.4159C12.9163 16.7701 12.2404 17.4913 11.9849 18.4413L11.3874 20.6664C11.2368 21.2268 11.2584 21.7897 11.4124 22.3074C11.4637 22.4798 11.5295 22.6475 11.6092 22.8089L10.9361 25.3151C10.8812 25.5195 10.8706 25.7258 10.8981 25.9235C10.9808 26.5161 11.409 27.031 12.0248 27.1955L13.512 27.5929C14.3332 27.8121 15.1776 27.3261 15.3975 26.507L15.7958 25.0238L27.6929 28.2032L27.2945 29.6864C27.0746 30.5055 27.562 31.3476 28.3833 31.5669L29.8704 31.9642C30.4862 32.1288 31.1151 31.8965 31.4841 31.4244C31.6068 31.267 31.7011 31.0832 31.7559 30.8783L32.429 28.3721C32.5787 28.2721 32.7196 28.1598 32.8504 28.0362C33.2435 27.6644 33.5442 27.1879 33.6948 26.6274ZM29.5779 17.4884L29.8839 20.0455L26.2616 19.0771L17.9863 16.866L19.5331 14.8042C19.8097 14.4356 20.1906 14.1581 20.6267 14.0075C21.0629 13.8569 21.5343 13.8401 21.9801 13.9592L27.8824 15.5364C28.5666 15.7192 29.1151 16.2 29.3941 16.8233C29.487 17.0311 29.55 17.2547 29.5779 17.4884ZM16.2539 21.7792C17.1662 21.7792 17.9057 21.0397 17.9057 20.1274C17.9057 19.2152 17.1662 18.4757 16.2539 18.4757C15.3417 18.4757 14.6022 19.2152 14.6022 20.1274C14.6022 21.0397 15.3417 21.7792 16.2539 21.7792ZM30.8495 23.7998C30.8495 24.712 30.1099 25.4515 29.1977 25.4515C28.2855 25.4515 27.5459 24.712 27.5459 23.7998C27.5459 22.8875 28.2855 22.148 29.1977 22.148C30.1099 22.148 30.8495 22.8875 30.8495 23.7998ZM20.6723 20.091C19.9817 19.8996 19.2661 20.3041 19.0738 20.9944C18.8815 21.6846 19.2854 22.3993 19.976 22.5906L24.7592 23.916C25.4498 24.1073 26.1654 23.7029 26.3577 23.0126C26.55 22.3224 26.1461 21.6077 25.4555 21.4164L20.6723 20.091Z" fill="black"/>
</svg>
