<svg width="38" height="39" viewBox="0 0 38 39" fill="none" xmlns="http://www.w3.org/2000/svg">
<g clip-path="url(#clip0_5787_2437)">
<rect y="0.275879" width="38" height="38" rx="6" fill="white"/>
<path d="M35.223 9.29293C34.9597 7.10448 32.9752 5.5462 30.7888 5.80928C28.6024 6.07235 27.0422 8.05713 27.3056 10.2456C27.5082 11.9296 28.7374 13.2383 30.2896 13.6318C28.9617 13.5619 27.6577 14.2607 27.0156 15.5206L23.791 21.8558C23.1855 22.114 22.3568 22.2419 21.8788 21.9529C21.2902 21.5986 19.3464 20.797 17.1981 20.9749C15.0478 21.153 13.7606 23.1634 13.7606 23.1634C13.7606 23.1634 13.7606 23.1634 13.7609 23.1654C13.706 23.2284 13.6539 23.2971 13.6081 23.3691L8.23201 32.0987C7.62861 33.0779 8.16264 34.5025 9.4268 35.2811C10.689 36.06 12.2023 35.8961 12.8055 34.9149L17.9474 26.566C21.9176 29.7429 26.8764 28.294 26.8764 28.294C29.5681 27.3919 30.7339 26.2645 32.989 21.7342C35.2417 17.2002 33.0599 15.2748 33.0599 15.2748L33.0582 15.277C32.7351 14.7518 32.2723 14.3038 31.68 14.0024C31.4632 13.8915 31.2415 13.8073 31.0145 13.746C31.2541 13.7615 31.4953 13.7566 31.7415 13.727C33.9279 13.4639 35.4861 11.4794 35.223 9.29293Z" fill="#FF0000"/>
<path fill-rule="evenodd" clip-rule="evenodd" d="M14.2111 6.91553C14.596 6.24886 15.5582 6.24886 15.9431 6.91553L21.4953 16.5321C21.8802 17.1988 21.399 18.0321 20.6292 18.0321H9.52493C8.75513 18.0321 8.274 17.1988 8.6589 16.5321L14.2111 6.91553ZM14.512 9.84639C14.512 9.53196 14.7669 9.27706 15.0814 9.27706C15.3958 9.27706 15.6507 9.53196 15.6507 9.84639V13.9313C15.6507 14.2458 15.3958 14.5007 15.0814 14.5007C14.7669 14.5007 14.512 14.2458 14.512 13.9313V9.84639ZM15.0785 16.2919C15.3811 16.2919 15.6265 16.0465 15.6265 15.7439C15.6265 15.4413 15.3811 15.196 15.0785 15.196C14.7759 15.196 14.5306 15.4413 14.5306 15.7439C14.5306 16.0465 14.7759 16.2919 15.0785 16.2919Z" fill="#FF0000"/>
</g>
<defs>
<clipPath id="clip0_5787_2437">
<rect y="0.275879" width="38" height="38" rx="6" fill="white"/>
</clipPath>
</defs>
</svg>
