<svg width="38" height="39" viewBox="0 0 38 39" fill="none" xmlns="http://www.w3.org/2000/svg">
<g clip-path="url(#clip0_5787_2441)">
<rect y="0.275879" width="38" height="38" rx="6" fill="white"/>
<path fill-rule="evenodd" clip-rule="evenodd" d="M25.2852 24.2775C23.6283 24.2775 22.2852 22.9343 22.2852 21.2775L22.2852 16.5923C22.2852 14.9354 23.6283 13.5923 25.2852 13.5923L30.2225 13.5923L30.3553 12.7334C30.4357 12.2136 30.9748 11.9003 31.4662 12.0878C31.5718 12.1281 31.6254 12.2457 31.5865 12.3517L31.1325 13.5923L41.7842 13.5923C42.8999 13.5923 43.8733 14.2013 44.3902 15.105C44.2095 15.0286 44.0035 15.0042 43.7935 15.049L40.9262 15.6611L41.1257 16.9598C41.3286 18.281 41.3413 19.6245 41.1633 20.9493L40.9708 22.3821L43.8104 22.875C44.0043 22.9087 44.1931 22.8843 44.3605 22.8155C43.8366 23.6912 42.8789 24.2775 41.7842 24.2775L31.1862 24.2775L31.5865 25.3712C31.6254 25.4773 31.5718 25.5949 31.4662 25.6352C30.9748 25.8227 30.4357 25.5094 30.3553 24.9896L30.2452 24.2775L25.2852 24.2775ZM27.5719 22.2564C27.5742 22.9021 28.1787 23.3764 28.8065 23.2249L32.0106 22.4518L31.8143 21.1062C31.6064 19.6809 31.6197 18.232 31.8537 16.8108L32.06 15.5578L28.807 14.6873C28.1705 14.517 27.5461 14.998 27.5485 15.6568L27.5719 22.2564ZM32.2377 15.1162L30.4367 14.6703C30.3219 14.6419 30.3428 14.4728 30.4611 14.4732L39.968 14.5102C40.0895 14.5107 40.1051 14.6867 39.9856 14.7086L37.9296 15.0848C37.8841 15.0931 37.838 15.0975 37.7918 15.0978L32.4362 15.1397C32.3693 15.1402 32.3026 15.1323 32.2377 15.1162ZM30.4367 23.3194L32.2377 22.8735C32.3026 22.8574 32.3693 22.8495 32.4362 22.85L37.7918 22.8919C37.838 22.8922 37.8841 22.8966 37.9296 22.9049L39.9856 23.2811C40.1051 23.303 40.0895 23.479 39.968 23.4795L30.4611 23.5165C30.3428 23.5169 30.3219 23.3479 30.4367 23.3194Z" fill="#FF0000"/>
<path fill-rule="evenodd" clip-rule="evenodd" d="M-8.7813 24.2771C-10.4381 24.2771 -11.7813 22.934 -11.7813 21.2771L-11.7813 16.5919C-11.7813 14.935 -10.4381 13.5919 -8.78119 13.5919L-3.84392 13.592L-3.71111 12.7334C-3.63072 12.2136 -3.09156 11.9003 -2.60018 12.0878C-2.49465 12.1281 -2.44104 12.2457 -2.47987 12.3517L-2.93379 13.592L10.7735 13.5923C12.4303 13.5923 13.7734 14.9355 13.7734 16.5923L13.7734 18.935L13.7734 21.2775C13.7734 22.9344 12.4302 24.2775 10.7733 24.2775L-2.88025 24.2773L-2.47987 25.3712C-2.44104 25.4773 -2.49465 25.5949 -2.60018 25.6352C-3.09156 25.8227 -3.63072 25.5094 -3.71111 24.9896L-3.82129 24.2772L-8.7813 24.2771ZM-6.49205 22.2564C-6.48976 22.9021 -5.8852 23.3764 -5.25749 23.2249L-2.05335 22.4518L-2.24964 21.1062C-2.45757 19.6809 -2.44429 18.232 -2.21028 16.8108L-2.00399 15.5578L-5.25699 14.6873C-5.89346 14.517 -6.51784 14.998 -6.51549 15.6568L-6.49205 22.2564ZM10.9174 21.8933C10.9152 22.5125 10.3565 22.9809 9.74641 22.875L6.90685 22.3821L7.09934 20.9493C7.27733 19.6245 7.26466 18.281 7.06172 16.9598L6.86226 15.6611L9.72951 15.049C10.3532 14.9159 10.9405 15.3928 10.9383 16.0306L10.9174 21.8933ZM-1.82626 15.1162L-3.62727 14.6703C-3.74209 14.6419 -3.72114 14.4728 -3.60285 14.4732L5.90402 14.5102C6.02556 14.5107 6.04119 14.6867 5.92163 14.7086L3.86561 15.0848C3.82015 15.0931 3.77406 15.0975 3.72786 15.0978L-1.62773 15.1397C-1.69462 15.1402 -1.76132 15.1323 -1.82626 15.1162ZM-3.62727 23.3194L-1.82626 22.8735C-1.76132 22.8574 -1.69462 22.8495 -1.62773 22.85L3.72785 22.8919C3.77406 22.8922 3.82015 22.8966 3.86561 22.9049L5.92163 23.2811C6.04119 23.303 6.02556 23.479 5.90402 23.4795L-3.60285 23.5165C-3.72114 23.5169 -3.74209 23.3478 -3.62727 23.3194Z" fill="#FF0000"/>
<path d="M18.7397 24.0466C17.749 23.602 16.9065 22.8829 16.3117 21.9744C15.7169 21.0659 15.3949 20.0061 15.3837 18.9203C15.3725 17.8344 15.6726 16.7682 16.2485 15.8476C16.8243 14.927 17.6519 14.1907 18.6332 13.7257L19.1947 14.9107C18.4398 15.2684 17.8032 15.8348 17.3602 16.543C16.9172 17.2512 16.6863 18.0714 16.6949 18.9067C16.7035 19.742 16.9513 20.5573 17.4088 21.2562C17.8663 21.9551 18.5145 22.5083 19.2766 22.8503L18.7397 24.0466Z" fill="#FF0000"/>
<path d="M19.6667 21.9836C19.0653 21.7137 18.5547 21.2757 18.1964 20.7224C17.8381 20.169 17.6474 19.5239 17.6472 18.8647C17.647 18.2055 17.8374 17.5603 18.1954 17.0068C18.5533 16.4532 19.0637 16.0149 19.6649 15.7447L20.1413 16.8044C19.7443 16.9828 19.4073 17.2722 19.171 17.6377C18.9346 18.0032 18.8089 18.4292 18.8091 18.8644C18.8092 19.2996 18.9351 19.7256 19.1717 20.0909C19.4082 20.4562 19.7453 20.7454 20.1424 20.9236L19.6667 21.9836Z" fill="#FF0000"/>
<mask id="path-6-inside-1_5787_2441" fill="white">
<path d="M20.5936 17.6242C20.3485 17.7175 20.1365 17.8813 19.9845 18.095C19.8325 18.3087 19.7473 18.5627 19.7397 18.8248C19.7321 19.087 19.8023 19.3455 19.9416 19.5677C20.0809 19.7899 20.2829 19.9658 20.5222 20.0732L20.8179 19.4141C20.709 19.3653 20.617 19.2852 20.5536 19.184C20.4902 19.0829 20.4582 18.9652 20.4617 18.8459C20.4652 18.7266 20.504 18.6109 20.5732 18.5136C20.6424 18.4164 20.7388 18.3418 20.8504 18.2993L20.5936 17.6242Z"/>
</mask>
<path d="M20.5936 17.6242C20.3485 17.7175 20.1365 17.8813 19.9845 18.095C19.8325 18.3087 19.7473 18.5627 19.7397 18.8248C19.7321 19.087 19.8023 19.3455 19.9416 19.5677C20.0809 19.7899 20.2829 19.9658 20.5222 20.0732L20.8179 19.4141C20.709 19.3653 20.617 19.2852 20.5536 19.184C20.4902 19.0829 20.4582 18.9652 20.4617 18.8459C20.4652 18.7266 20.504 18.6109 20.5732 18.5136C20.6424 18.4164 20.7388 18.3418 20.8504 18.2993L20.5936 17.6242Z" stroke="#FF0000" stroke-width="2" mask="url(#path-6-inside-1_5787_2441)"/>
</g>
<defs>
<clipPath id="clip0_5787_2441">
<rect y="0.275879" width="38" height="38" rx="6" fill="white"/>
</clipPath>
</defs>
</svg>
