<svg width="38" height="39" viewBox="0 0 38 39" fill="none" xmlns="http://www.w3.org/2000/svg">
<rect y="0.275879" width="38" height="38" rx="6" fill="white"/>
<path fill-rule="evenodd" clip-rule="evenodd" d="M13.5437 15.5978C12.793 14.1208 13.3818 12.3148 14.8588 11.5641L18.4734 9.72699C19.9505 8.97628 21.7564 9.56509 22.5071 11.0421L25.8909 17.6997L26.6684 17.4448C27.1387 17.2907 27.6314 17.6094 27.6836 18.1015C27.6948 18.2072 27.6191 18.3023 27.5135 18.315L26.2788 18.4631L30.8433 27.4437C31.594 28.9207 31.0052 30.7266 29.5281 31.4773L25.9135 33.3145C24.4365 34.0652 22.6306 33.4764 21.8799 31.9993L17.3385 23.0641L16.592 23.8659C16.5196 23.9437 16.3981 23.9488 16.3193 23.8775C15.9525 23.5452 15.9854 22.9594 16.3872 22.6703L16.9372 22.2746L13.5437 15.5978ZM17.5598 19.1377C16.9852 19.4323 16.8363 20.1862 17.2558 20.6771L19.2219 22.9786L20.1622 22.3142C21.3386 21.4831 22.6363 20.8384 24.0093 20.4031L25.026 20.0807L24.3853 17.0562C24.2488 16.4117 23.5371 16.073 22.9508 16.3736L17.5598 19.1377ZM24.0048 31.0748C23.4518 31.3535 22.781 31.0676 22.599 30.4757L21.8224 27.9504L22.9942 27.5402C24.2558 27.0987 25.4477 26.4786 26.5336 25.6991L27.4414 25.0474L29.1312 27.1348C29.5325 27.6305 29.3735 28.3701 28.8039 28.6571L24.0048 31.0748ZM25.4713 20.0366L25.09 18.3894C25.0633 18.2741 25.2235 18.2162 25.2767 18.3219L29.2483 26.2118C29.3029 26.3203 29.1531 26.414 29.0794 26.3173L27.9283 24.8069C27.9003 24.7702 27.8755 24.7311 27.8542 24.69L25.5404 20.2242C25.5096 20.1648 25.4864 20.1018 25.4713 20.0366ZM17.8556 22.0663L18.9616 23.3452C19.0053 23.3958 19.0425 23.4517 19.0724 23.5116L21.3162 28.013C21.3368 28.0544 21.3538 28.0974 21.367 28.1417L21.9086 29.9619C21.9433 30.0784 21.7793 30.1442 21.7238 30.0361L17.691 22.1773C17.637 22.0721 17.7783 21.9768 17.8556 22.0663Z" fill="black"/>
<path d="M9.89854 12.4128C9.8526 12.1425 9.86036 11.8657 9.92137 11.5984C9.98238 11.3311 10.0954 11.0784 10.2541 10.8548C10.4128 10.6311 10.6139 10.4409 10.8461 10.2951C11.0783 10.1492 11.3369 10.0504 11.6072 10.0045" stroke="black" stroke-linecap="round"/>
<path d="M7.79993 11.8733C7.72756 11.4475 7.73978 11.0115 7.8359 10.5903C7.93202 10.1692 8.11015 9.77108 8.36012 9.41876C8.61009 9.06644 8.92701 8.76681 9.29278 8.53697C9.65855 8.30714 10.066 8.15159 10.4919 8.07922" stroke="black" stroke-linecap="round"/>
<path d="M5.68118 11.235C5.58472 10.6674 5.60101 10.0863 5.72913 9.52489C5.85725 8.96352 6.09468 8.43288 6.42788 7.96326C6.76107 7.49365 7.1835 7.09427 7.67104 6.78791C8.15858 6.48155 8.70169 6.27423 9.26936 6.17776" stroke="black" stroke-linecap="round"/>
<path d="M18.7898 34.2759L18.7891 28.407M18.7898 5.27588L18.7898 8.09713" stroke="black"/>
<line x1="32.4727" y1="34.2759" x2="32.4727" y2="5.27588" stroke="black"/>
</svg>
