<svg width="38" height="39" viewBox="0 0 38 39" fill="none" xmlns="http://www.w3.org/2000/svg">
<rect y="0.73291" width="38" height="38" rx="6" fill="white"/>
<path fill-rule="evenodd" clip-rule="evenodd" d="M11.5677 20.3875H12.5508C13.1684 20.3875 13.6478 19.9081 13.6478 19.2906V17.8849C15.4598 17.9986 18.1331 18.088 20.2863 18.088C22.4396 18.088 25.1129 18.0068 26.9168 17.8849V19.2906C26.9168 19.9081 27.3962 20.3875 28.0218 20.3875H28.9969C29.6226 20.3875 30.102 19.9081 30.102 19.2906V14.4722C30.102 13.0339 29.8338 12.2376 29.0782 11.2545L28.355 10.3444C28.0543 8.88992 27.5181 7.3542 27.2337 6.75291C26.7786 5.78597 25.9011 5.21719 24.7798 5.0628C24.1866 4.98155 22.4477 4.94092 20.2863 4.94092C18.125 4.94092 16.378 4.98967 15.7929 5.0628C14.6716 5.20093 13.7859 5.78597 13.339 6.75291C13.0546 7.3542 12.5183 8.88992 12.2177 10.3444L11.4945 11.2545C10.7307 12.2376 10.4707 13.0339 10.4707 14.4722V19.2906C10.4707 19.9081 10.9501 20.3875 11.5677 20.3875ZM14.0378 9.59685C14.2247 8.79242 14.5822 7.71985 14.826 7.2892C15.0616 6.85854 15.3298 6.67978 15.8336 6.61478C16.4105 6.53352 17.7999 6.48477 20.2863 6.48477C22.7646 6.48477 24.1622 6.51727 24.7391 6.61478C25.2429 6.68791 25.5029 6.85854 25.7467 7.2892C25.9986 7.71172 26.3317 8.79242 26.5268 9.59685C26.6161 9.94624 26.4617 10.1088 26.0961 10.0925C24.8448 10.0194 23.2684 9.93812 20.2863 9.93812C17.3043 9.93812 15.7279 10.0194 14.4766 10.0925C14.1028 10.1088 13.9647 9.94624 14.0378 9.59685ZM14.3303 15.8129C13.5584 15.8129 12.9652 15.2278 12.9652 14.4559C12.9652 13.6759 13.5584 13.0908 14.3303 13.0908C15.1023 13.0908 15.6873 13.6759 15.6873 14.4559C15.6873 15.2278 15.1023 15.8129 14.3303 15.8129ZM26.2424 15.8129C25.4623 15.8129 24.8773 15.2278 24.8773 14.4559C24.8773 13.6759 25.4623 13.0908 26.2424 13.0908C27.0143 13.0908 27.5993 13.6759 27.5993 14.4559C27.5993 15.2278 27.0143 15.8129 26.2424 15.8129ZM18.0925 15.4716C17.5074 15.4716 17.1011 15.0653 17.1011 14.4884C17.1011 13.9115 17.5074 13.5052 18.0925 13.5052H22.4802C23.0571 13.5052 23.4634 13.9115 23.4634 14.4884C23.4634 15.0653 23.0571 15.4716 22.4802 15.4716H18.0925ZM12.6452 21.5891C12.6452 21.5891 12.948 21.6553 13.4542 21.842C13.7073 21.949 14.0148 22.0813 14.3611 22.2991C14.7043 22.5306 15.1018 22.8029 15.476 23.3942C15.6655 23.6705 15.8177 24.1179 15.8379 24.6158C15.8456 24.8551 15.8037 25.1079 15.7571 25.3433L15.6484 25.6604L15.5878 25.8179L15.5568 25.8977L15.4931 26.0086L15.4403 26.1039C15.4279 26.1311 15.4062 26.17 15.358 26.2303C15.2835 26.3315 15.1841 26.4598 15.1127 26.526C14.9698 26.6738 14.8238 26.7924 14.6763 26.8994C14.3797 27.0939 14.0878 27.2301 13.7974 27.3488C13.0049 27.6605 12.208 27.8241 11.436 27.9825C11.0856 28.0545 10.7403 28.1253 10.4029 28.2085L10.3509 28.2222C9.83779 28.3574 9.33618 28.4896 8.97116 28.6909C8.78793 28.7921 8.65439 28.9127 8.61712 28.9711C8.60882 28.9876 8.60355 28.997 8.60023 29.0029C8.59688 29.0089 8.59552 29.0114 8.59505 29.0139C8.59473 29.0157 8.59483 29.0176 8.59499 29.0207C8.59528 29.026 8.59575 29.0349 8.59471 29.0533L8.60469 29.1695L8.62643 29.4184C8.62981 29.4944 8.63968 29.5154 8.649 29.5352C8.65256 29.5428 8.65603 29.5502 8.65904 29.5604C8.66835 29.5915 8.67768 29.6227 8.68233 29.6558C8.67848 29.6883 8.70153 29.7509 8.72551 29.816C8.74018 29.8558 8.7552 29.8965 8.76463 29.932C8.79138 30.0306 8.8352 30.1275 8.87976 30.226L8.88576 30.2393C9.06123 30.6517 9.30348 31.0543 9.55814 31.4142C10.0613 32.1455 10.5753 32.7446 10.9355 33.1628C11.2989 33.5927 11.507 33.8379 11.507 33.8379L11.5116 33.8437C11.6374 33.9934 11.6436 34.2424 11.524 34.4019C11.4526 34.4953 11.3517 34.5361 11.257 34.5225C11.257 34.5225 10.9417 34.4759 10.4277 34.2716C10.1746 34.1646 9.86405 34.0265 9.52553 33.8184C9.18701 33.6083 8.80501 33.3554 8.4199 32.9878C8.03169 32.626 7.62329 32.1708 7.27079 31.5348C7.17762 31.3792 7.08911 31.2177 7.01767 31.0251C6.99447 30.962 6.97032 30.9048 6.94613 30.8476L6.94612 30.8475C6.89423 30.7247 6.84215 30.6013 6.79873 30.4182C6.76456 30.2957 6.73506 30.1693 6.70866 30.0428C6.68226 29.9242 6.6481 29.7685 6.6481 29.7063L6.6217 29.4574L6.60927 29.3328L6.60307 29.2706L6.60151 29.255L6.59996 29.2453L6.59375 29.1169L6.5953 29.0586C6.57978 28.4614 6.81115 27.7222 7.16054 27.2865C7.50372 26.8372 7.87019 26.6018 8.20716 26.4229C8.87799 26.0922 9.49447 25.9502 10.097 25.8491C10.5807 25.7692 11.057 25.7108 11.5154 25.6547C12.1842 25.5728 12.8149 25.4955 13.375 25.3628C13.8393 25.2363 14.2167 25.0768 14.3611 24.8745C14.4978 24.6722 14.5459 24.5536 14.4418 24.2424C14.3285 23.9331 14.0614 23.6219 13.8207 23.3768C13.6016 23.1478 13.3762 22.9706 13.1863 22.8213L13.1863 22.8213L13.1235 22.7718C12.7073 22.4508 12.4589 22.305 12.4589 22.305C12.3067 22.2174 12.2415 21.9918 12.3129 21.7992C12.3719 21.6417 12.507 21.5599 12.6374 21.5872L12.6452 21.5891ZM8.59382 29.0684V29.0722C8.59633 29.1146 8.59554 29.0996 8.59382 29.0684ZM29.0217 21.842C28.5155 21.6553 28.2127 21.5891 28.2127 21.5891L28.2049 21.5872C28.0744 21.5599 27.9394 21.6417 27.8803 21.7992C27.8089 21.9918 27.8741 22.2174 28.0263 22.305C28.0263 22.305 28.2748 22.4508 28.6909 22.7718C28.7114 22.788 28.7323 22.8044 28.7538 22.8213C28.9437 22.9706 29.1691 23.1478 29.3882 23.3768C29.6288 23.6219 29.8959 23.9331 30.0093 24.2424C30.1133 24.5536 30.0652 24.6722 29.9286 24.8745C29.7841 25.0768 29.4068 25.2363 28.9425 25.3628C28.3823 25.4955 27.7516 25.5728 27.0828 25.6547C26.6244 25.7108 26.1482 25.7692 25.6644 25.8491C25.0619 25.9502 24.4454 26.0922 23.7746 26.4229C23.4376 26.6018 23.0712 26.8372 22.728 27.2865C22.3786 27.7222 22.1472 28.4614 22.1628 29.0586L22.1612 29.1169L22.1674 29.2453L22.169 29.255L22.1705 29.2706L22.1767 29.3328L22.1892 29.4574L22.2155 29.7063C22.2155 29.7685 22.2497 29.9242 22.2761 30.0428C22.3025 30.1693 22.332 30.2957 22.3662 30.4182C22.4096 30.6013 22.4617 30.7247 22.5136 30.8476C22.5378 30.9048 22.5619 30.962 22.5851 31.0251C22.6566 31.2177 22.7451 31.3792 22.8382 31.5348C23.1907 32.1708 23.5991 32.626 23.9874 32.9878C24.3725 33.3554 24.7545 33.6083 25.093 33.8184C25.4315 34.0265 25.7421 34.1646 25.9952 34.2716C26.5092 34.4759 26.8244 34.5225 26.8244 34.5225C26.9191 34.5361 27.0201 34.4953 27.0915 34.4019C27.2111 34.2424 27.2049 33.9934 27.0791 33.8437L27.0744 33.8379C27.0744 33.8379 26.8663 33.5927 26.503 33.1628C26.1427 32.7446 25.6287 32.1455 25.1256 31.4142C24.8709 31.0543 24.6287 30.6517 24.4532 30.2393L24.4472 30.226C24.4027 30.1275 24.3588 30.0306 24.3321 29.932C24.3227 29.8965 24.3076 29.8558 24.293 29.816C24.269 29.7509 24.2459 29.6883 24.2498 29.6558C24.2451 29.6227 24.2358 29.5915 24.2265 29.5604C24.2235 29.5502 24.22 29.5428 24.2165 29.5352C24.2071 29.5154 24.1973 29.4944 24.1939 29.4184L24.1721 29.1695L24.1622 29.0533C24.1638 29.0241 24.1616 29.0187 24.1625 29.0139C24.1634 29.0088 24.1679 29.0043 24.1846 28.9711C24.2218 28.9127 24.3554 28.7921 24.5386 28.6909C24.9036 28.4896 25.4052 28.3574 25.9183 28.2222L25.9703 28.2085C26.3078 28.1253 26.653 28.0545 27.0035 27.9825C27.7755 27.8241 28.5724 27.6605 29.3649 27.3488C29.6553 27.2301 29.9472 27.0939 30.2438 26.8994C30.3913 26.7924 30.5373 26.6738 30.6801 26.526C30.7516 26.4598 30.8509 26.3315 30.9255 26.2303C30.9736 26.17 30.9954 26.1311 31.0078 26.1039L31.0606 26.0086L31.1242 25.8977L31.1553 25.8179L31.2159 25.6604L31.3246 25.3433C31.3711 25.1079 31.4131 24.8551 31.4053 24.6158C31.3851 24.1179 31.2329 23.6705 31.0435 23.3942C30.6693 22.8029 30.2717 22.5306 29.9286 22.2991C29.5823 22.0813 29.2748 21.949 29.0217 21.842ZM24.1613 29.0684V29.0722C24.1638 29.1146 24.163 29.0996 24.1613 29.0684Z" fill="#FF0000"/>
</svg>
