<svg width="38" height="38" viewBox="0 0 38 38" fill="none" xmlns="http://www.w3.org/2000/svg">
<g clip-path="url(#clip0_5787_2437)">
<rect width="38" height="38" rx="6" fill="white"/>
<path d="M35.223 9.01705C34.9597 6.8286 32.9752 5.27032 30.7888 5.5334C28.6024 5.79647 27.0422 7.78126 27.3056 9.96971C27.5082 11.6537 28.7374 12.9624 30.2896 13.3559C28.9617 13.286 27.6577 13.9848 27.0156 15.2447L23.791 21.5799C23.1855 21.8381 22.3568 21.966 21.8788 21.677C21.2902 21.3227 19.3464 20.5211 17.1981 20.699C15.0478 20.8771 13.7606 22.8875 13.7606 22.8875C13.7606 22.8875 13.7606 22.8875 13.7609 22.8895C13.706 22.9525 13.6539 23.0212 13.6081 23.0932L8.23201 31.8228C7.62861 32.802 8.16264 34.2266 9.4268 35.0052C10.689 35.7841 12.2023 35.6202 12.8055 34.639L17.9474 26.2901C21.9176 29.467 26.8764 28.0181 26.8764 28.0181C29.5681 27.1161 30.7339 25.9886 32.989 21.4583C35.2417 16.9243 33.0599 14.9989 33.0599 14.9989L33.0582 15.0011C32.7351 14.4759 32.2723 14.0279 31.68 13.7265C31.4632 13.6156 31.2415 13.5315 31.0145 13.4701C31.2541 13.4856 31.4953 13.4808 31.7415 13.4511C33.9279 13.1881 35.4861 11.2035 35.223 9.01705Z" fill="black"/>
<path fill-rule="evenodd" clip-rule="evenodd" d="M14.2111 6.63965C14.596 5.97298 15.5582 5.97298 15.9431 6.63965L21.4953 16.2563C21.8802 16.9229 21.399 17.7563 20.6292 17.7563H9.52493C8.75513 17.7563 8.274 16.9229 8.6589 16.2563L14.2111 6.63965ZM14.512 9.57051C14.512 9.25608 14.7669 9.00118 15.0814 9.00118C15.3958 9.00118 15.6507 9.25608 15.6507 9.57051V13.6555C15.6507 13.9699 15.3958 14.2248 15.0814 14.2248C14.7669 14.2248 14.512 13.9699 14.512 13.6555V9.57051ZM15.0785 16.016C15.3811 16.016 15.6265 15.7707 15.6265 15.4681C15.6265 15.1654 15.3811 14.9201 15.0785 14.9201C14.7759 14.9201 14.5306 15.1654 14.5306 15.4681C14.5306 15.7707 14.7759 16.016 15.0785 16.016Z" fill="black"/>
</g>
<defs>
<clipPath id="clip0_5787_2437">
<rect width="38" height="38" rx="6" fill="white"/>
</clipPath>
</defs>
</svg>
