<svg width="38" height="38" viewBox="0 0 38 38" fill="none" xmlns="http://www.w3.org/2000/svg">
<g clip-path="url(#clip0_5787_2441)">
<rect width="38" height="38" rx="6" fill="white"/>
<path fill-rule="evenodd" clip-rule="evenodd" d="M25.2852 24.0016C23.6283 24.0016 22.2852 22.6585 22.2852 21.0016L22.2852 16.3164C22.2852 14.6595 23.6283 13.3164 25.2852 13.3164L30.2225 13.3164L30.3553 12.4575C30.4357 11.9377 30.9748 11.6244 31.4662 11.8119C31.5718 11.8522 31.6254 11.9698 31.5865 12.0759L31.1325 13.3164L41.7842 13.3164C42.8999 13.3164 43.8733 13.9254 44.3902 14.8291C44.2095 14.7527 44.0035 14.7283 43.7935 14.7732L40.9262 15.3852L41.1257 16.6839C41.3286 18.0051 41.3413 19.3486 41.1633 20.6734L40.9708 22.1062L43.8104 22.5991C44.0043 22.6328 44.1931 22.6084 44.3605 22.5396C43.8366 23.4153 42.8789 24.0016 41.7842 24.0016L31.1862 24.0016L31.5865 25.0954C31.6254 25.2014 31.5718 25.319 31.4662 25.3593C30.9748 25.5468 30.4357 25.2335 30.3553 24.7137L30.2452 24.0016L25.2852 24.0016ZM27.5719 21.9805C27.5742 22.6262 28.1787 23.1005 28.8065 22.949L32.0106 22.1759L31.8143 20.8303C31.6064 19.405 31.6197 17.9562 31.8537 16.5349L32.06 15.2819L28.807 14.4114C28.1705 14.2411 27.5461 14.7221 27.5485 15.381L27.5719 21.9805ZM32.2377 14.8404L30.4367 14.3944C30.3219 14.366 30.3428 14.1969 30.4611 14.1973L39.968 14.2343C40.0895 14.2348 40.1051 14.4108 39.9856 14.4327L37.9296 14.8089C37.8841 14.8172 37.838 14.8216 37.7918 14.822L32.4362 14.8638C32.3693 14.8643 32.3026 14.8564 32.2377 14.8404ZM30.4367 23.0435L32.2377 22.5976C32.3026 22.5815 32.3693 22.5736 32.4362 22.5742L37.7918 22.616C37.838 22.6164 37.8841 22.6207 37.9296 22.629L39.9856 23.0053C40.1051 23.0271 40.0895 23.2032 39.968 23.2036L30.4611 23.2406C30.3428 23.2411 30.3219 23.072 30.4367 23.0435Z" fill="#FF0000"/>
<path fill-rule="evenodd" clip-rule="evenodd" d="M-8.7813 24.0013C-10.4381 24.0012 -11.7813 22.6581 -11.7813 21.0013L-11.7813 16.316C-11.7813 14.6592 -10.4381 13.316 -8.78119 13.316L-3.84392 13.3161L-3.71111 12.4575C-3.63072 11.9377 -3.09156 11.6244 -2.60018 11.8119C-2.49465 11.8522 -2.44104 11.9698 -2.47987 12.0759L-2.93379 13.3162L10.7735 13.3164C12.4303 13.3165 13.7734 14.6596 13.7734 16.3164L13.7734 18.6591L13.7734 21.0016C13.7734 22.6585 12.4302 24.0017 10.7733 24.0016L-2.88025 24.0014L-2.47987 25.0954C-2.44104 25.2014 -2.49465 25.319 -2.60018 25.3593C-3.09156 25.5468 -3.63072 25.2335 -3.71111 24.7137L-3.82129 24.0014L-8.7813 24.0013ZM-6.49205 21.9805C-6.48976 22.6262 -5.8852 23.1005 -5.25749 22.949L-2.05335 22.1759L-2.24964 20.8303C-2.45757 19.405 -2.44429 17.9561 -2.21028 16.5349L-2.00399 15.2819L-5.25699 14.4114C-5.89346 14.2411 -6.51784 14.7221 -6.51549 15.381L-6.49205 21.9805ZM10.9174 21.6174C10.9152 22.2366 10.3565 22.705 9.74641 22.5991L6.90685 22.1062L7.09934 20.6734C7.27733 19.3486 7.26466 18.0051 7.06172 16.6839L6.86226 15.3852L9.72951 14.7732C10.3532 14.64 10.9405 15.1169 10.9383 15.7547L10.9174 21.6174ZM-1.82626 14.8404L-3.62727 14.3944C-3.74209 14.366 -3.72114 14.1969 -3.60285 14.1973L5.90402 14.2343C6.02556 14.2348 6.04119 14.4108 5.92163 14.4327L3.86561 14.8089C3.82015 14.8172 3.77406 14.8216 3.72786 14.822L-1.62773 14.8638C-1.69462 14.8643 -1.76132 14.8564 -1.82626 14.8404ZM-3.62727 23.0435L-1.82626 22.5976C-1.76132 22.5815 -1.69462 22.5736 -1.62773 22.5742L3.72785 22.616C3.77406 22.6164 3.82015 22.6207 3.86561 22.629L5.92163 23.0053C6.04119 23.0271 6.02556 23.2032 5.90402 23.2036L-3.60285 23.2406C-3.72114 23.2411 -3.74209 23.072 -3.62727 23.0435Z" fill="#FF0000"/>
<path d="M18.7397 23.7708C17.749 23.3262 16.9065 22.6071 16.3117 21.6986C15.7169 20.7901 15.3949 19.7302 15.3837 18.6444C15.3725 17.5586 15.6726 16.4923 16.2485 15.5717C16.8243 14.6511 17.6519 13.9148 18.6332 13.4498L19.1947 14.6348C18.4398 14.9925 17.8032 15.559 17.3602 16.2671C16.9172 16.9753 16.6863 17.7956 16.6949 18.6308C16.7035 19.4661 16.9513 20.2815 17.4088 20.9803C17.8663 21.6792 18.5145 22.2324 19.2766 22.5744L18.7397 23.7708Z" fill="#FF0000"/>
<path d="M19.6667 21.7077C19.0653 21.4378 18.5547 20.9998 18.1964 20.4465C17.8381 19.8932 17.6474 19.2481 17.6472 18.5889C17.647 17.9296 17.8374 17.2844 18.1954 16.7309C18.5533 16.1773 19.0637 15.7391 19.6649 15.4688L20.1413 16.5285C19.7443 16.707 19.4073 16.9963 19.171 17.3618C18.9346 17.7273 18.8089 18.1533 18.8091 18.5885C18.8092 19.0238 18.9351 19.4497 19.1717 19.815C19.4082 20.1804 19.7453 20.4695 20.1424 20.6477L19.6667 21.7077Z" fill="#FF0000"/>
<mask id="path-6-inside-1_5787_2441" fill="white">
<path d="M20.5936 17.3483C20.3485 17.4416 20.1365 17.6054 19.9845 17.8191C19.8325 18.0328 19.7473 18.2868 19.7397 18.549C19.7321 18.8111 19.8023 19.0696 19.9416 19.2918C20.0809 19.514 20.2829 19.6899 20.5222 19.7973L20.8179 19.1383C20.709 19.0894 20.617 19.0093 20.5536 18.9082C20.4902 18.807 20.4582 18.6893 20.4617 18.57C20.4652 18.4507 20.504 18.3351 20.5732 18.2378C20.6424 18.1405 20.7388 18.0659 20.8504 18.0234L20.5936 17.3483Z"/>
</mask>
<path d="M20.5936 17.3483C20.3485 17.4416 20.1365 17.6054 19.9845 17.8191C19.8325 18.0328 19.7473 18.2868 19.7397 18.549C19.7321 18.8111 19.8023 19.0696 19.9416 19.2918C20.0809 19.514 20.2829 19.6899 20.5222 19.7973L20.8179 19.1383C20.709 19.0894 20.617 19.0093 20.5536 18.9082C20.4902 18.807 20.4582 18.6893 20.4617 18.57C20.4652 18.4507 20.504 18.3351 20.5732 18.2378C20.6424 18.1405 20.7388 18.0659 20.8504 18.0234L20.5936 17.3483Z" stroke="#FF0000" stroke-width="2" mask="url(#path-6-inside-1_5787_2441)"/>
</g>
<defs>
<clipPath id="clip0_5787_2441">
<rect width="38" height="38" rx="6" fill="white"/>
</clipPath>
</defs>
</svg>
