<svg width="38" height="38" viewBox="0 0 38 38" fill="none" xmlns="http://www.w3.org/2000/svg">
<rect width="38" height="38" rx="6" fill="white"/>
<path fill-rule="evenodd" clip-rule="evenodd" d="M13.5437 15.3219C12.793 13.8449 13.3818 12.039 14.8588 11.2882L18.4734 9.45111C19.9505 8.7004 21.7564 9.28921 22.5071 10.7662L25.8909 17.4239L26.6684 17.1689C27.1387 17.0148 27.6314 17.3335 27.6836 17.8256C27.6948 17.9313 27.6191 18.0264 27.5135 18.0391L26.2788 18.1872L30.8433 27.1678C31.594 28.6448 31.0052 30.4508 29.5281 31.2015L25.9135 33.0386C24.4365 33.7893 22.6306 33.2005 21.8799 31.7235L17.3385 22.7882L16.592 23.59C16.5196 23.6678 16.3981 23.673 16.3193 23.6016C15.9525 23.2693 15.9854 22.6835 16.3872 22.3944L16.9372 21.9987L13.5437 15.3219ZM17.5598 18.8619C16.9852 19.1565 16.8363 19.9103 17.2558 20.4013L19.2219 22.7027L20.1622 22.0383C21.3386 21.2072 22.6363 20.5626 24.0093 20.1272L25.026 19.8048L24.3853 16.7803C24.2488 16.1358 23.5371 15.7971 22.9508 16.0977L17.5598 18.8619ZM24.0048 30.799C23.4518 31.0776 22.781 30.7917 22.599 30.1998L21.8224 27.6745L22.9942 27.2644C24.2558 26.8228 25.4477 26.2028 26.5336 25.4232L27.4414 24.7716L29.1312 26.8589C29.5325 27.3546 29.3735 28.0943 28.8039 28.3812L24.0048 30.799ZM25.4713 19.7607L25.09 18.1135C25.0633 17.9983 25.2235 17.9403 25.2767 18.046L29.2483 25.9359C29.3029 26.0445 29.1531 26.1381 29.0794 26.0415L27.9283 24.531C27.9003 24.4943 27.8755 24.4552 27.8542 24.4142L25.5404 19.9483C25.5096 19.8889 25.4864 19.8259 25.4713 19.7607ZM17.8556 21.7904L18.9616 23.0693C19.0053 23.1199 19.0425 23.1758 19.0724 23.2357L21.3162 27.7371C21.3368 27.7785 21.3538 27.8216 21.367 27.8658L21.9086 29.686C21.9433 29.8025 21.7793 29.8684 21.7238 29.7602L17.691 21.9014C17.637 21.7962 17.7783 21.7009 17.8556 21.7904Z" fill="black"/>
<path d="M9.90245 12.1369C9.85651 11.8666 9.86427 11.5899 9.92528 11.3225C9.98629 11.0552 10.0994 10.8025 10.258 10.5789C10.4167 10.3552 10.6179 10.1651 10.85 10.0192C11.0822 9.87328 11.3408 9.77455 11.6111 9.72862" stroke="black" stroke-linecap="round"/>
<path d="M7.80383 11.5975C7.73146 11.1716 7.74369 10.7356 7.83981 10.3145C7.93592 9.8933 8.11405 9.4952 8.36403 9.14288C8.614 8.79057 8.93091 8.49093 9.29668 8.2611C9.66245 8.03126 10.0699 7.87571 10.4958 7.80334" stroke="black" stroke-linecap="round"/>
<path d="M5.68314 10.9592C5.58667 10.3915 5.60297 9.81038 5.73108 9.24901C5.8592 8.68764 6.09664 8.157 6.42983 7.68739C6.76302 7.21777 7.18545 6.81839 7.67299 6.51203C8.16053 6.20568 8.70364 5.99835 9.27131 5.90189" stroke="black" stroke-linecap="round"/>
<path d="M18.7918 34L18.791 28.1311M18.7918 5L18.7918 7.82125" stroke="black"/>
<line x1="32.4727" y1="34" x2="32.4727" y2="5" stroke="black"/>
</svg>
