<svg width="36" height="37" viewBox="0 0 36 37" fill="none" xmlns="http://www.w3.org/2000/svg">
<circle cx="7.99481" cy="22.7653" r="2.78544" stroke="black" stroke-width="1.2"/>
<path d="M2.82835 23.0316H5.17269M2.81297 8.60607V8.60607C4.03543 8.59025 5.22247 9.01648 6.15565 9.80631L10.5995 13.5675C11.0058 13.9114 11.5209 14.1001 12.0531 14.1001H13.1664H13.9791C14.6004 14.1001 15.1041 14.6038 15.1041 15.2251V16.4057C15.1041 16.8158 15.3273 17.1934 15.6866 17.3912L15.7689 17.4366C16.1283 17.6344 16.3515 18.0121 16.3514 18.4223L16.3511 20.0135C16.3509 20.5752 16.1407 21.1166 15.7616 21.5312L15.0588 22.2999C14.6326 22.7661 14.03 23.0316 13.3983 23.0316H10.8729" stroke="black" stroke-width="1.2" stroke-linecap="round"/>
<path d="M33.862 12.0512C34.1009 11.8215 34.1083 11.4417 33.8787 11.2028C33.649 10.9639 33.2692 10.9565 33.0303 11.1861L33.862 12.0512ZM30.705 13.6419L30.3187 14.1011L31.2369 14.8736L31.6232 14.4145L30.705 13.6419ZM33.0303 11.1861C32.2493 11.937 31.0219 13.2653 30.705 13.6419L31.6232 14.4145C31.9113 14.0721 33.1095 12.7746 33.862 12.0512L33.0303 11.1861Z" fill="black"/>
<path d="M33.4903 14.1817C30.3453 14.0964 22.8117 14.6484 19.6051 16.5761C18.6944 17.1236 18.4043 18.2157 18.3996 19.2784L18.3867 22.2273" stroke="black" stroke-width="1.2" stroke-linecap="round"/>
<path d="M21.374 18.3568C21.7054 18.3568 21.974 18.0882 21.974 17.7568C21.974 17.4255 21.7054 17.1568 21.374 17.1568V18.3568ZM18.957 18.3568H21.374V17.1568H18.957V18.3568Z" fill="black"/>
<path d="M12.7666 17.0541C12.4352 17.0541 12.1666 16.7855 12.1666 16.4541C12.1666 16.1227 12.4352 15.8541 12.7666 15.8541V17.0541ZM15.1836 17.0541H12.7666V15.8541H15.1836V17.0541Z" fill="black"/>
<path d="M19.6533 21.3397C19.9847 21.3397 20.2533 21.0711 20.2533 20.7397C20.2533 20.4084 19.9847 20.1397 19.6533 20.1397V21.3397ZM18.3594 21.3397H19.6533V20.1397H18.3594V21.3397Z" fill="black"/>
<path d="M33.4755 23.5434C33.8069 23.5434 34.0755 23.2747 34.0755 22.9434C34.0755 22.612 33.8069 22.3434 33.4755 22.3434V23.5434ZM28.8008 23.5434H33.4755V22.3434H28.8008V23.5434Z" fill="black"/>
<path d="M31.778 14.4409C31.4148 15.6522 31.0143 18.9835 32.3186 22.618" stroke="black" stroke-width="1.2" stroke-linecap="round"/>
<path d="M18.7034 21.7323C18.4181 21.5639 18.0502 21.6587 17.8817 21.944C17.7133 22.2294 17.8081 22.5973 18.0934 22.7657L18.7034 21.7323ZM22.5858 23.5397L23.1856 23.5225L23.1511 22.323L22.5514 22.3402L22.5858 23.5397ZM18.0934 22.7657C18.6487 23.0935 19.0822 23.3331 19.7562 23.4554C20.391 23.5706 21.223 23.5788 22.5858 23.5397L22.5514 22.3402C21.1715 22.3798 20.4628 22.364 19.9704 22.2747C19.5172 22.1925 19.237 22.0473 18.7034 21.7323L18.0934 22.7657Z" fill="black"/>
<circle cx="25.9089" cy="22.7658" r="2.78544" stroke="black" stroke-width="1.2"/>
<path d="M19.7969 12.7168L23.8376 8.72931" stroke="black" stroke-width="1.2" stroke-linecap="round"/>
<path d="M17.9406 13.0016L17.9408 7.02581" stroke="black" stroke-width="1.2" stroke-linecap="round"/>
<path d="M11.7327 14.7074L12.3327 14.7012L12.3204 13.5013L11.7205 13.5075L11.7327 14.7074ZM2.79854 13.5989C2.46719 13.6023 2.20132 13.8736 2.20472 14.205C2.20811 14.5363 2.47948 14.8022 2.81083 14.7988L2.79854 13.5989ZM11.7205 13.5075L2.79854 13.5989L2.81083 14.7988L11.7327 14.7074L11.7205 13.5075Z" fill="black"/>
<path d="M25.875 28.9941L11.25 28.9941" stroke="black" stroke-width="1.2" stroke-linecap="round"/>
<path d="M12.2697 28.1013C12.504 27.867 12.504 27.4871 12.2697 27.2527C12.0354 27.0184 11.6555 27.0184 11.4212 27.2527L12.2697 28.1013ZM10.5493 29.8217L12.2697 28.1013L11.4212 27.2527L9.70074 28.9732L10.5493 29.8217Z" fill="black"/>
<path d="M12.2697 29.8865C12.504 30.1208 12.504 30.5007 12.2697 30.7351C12.0354 30.9694 11.6555 30.9694 11.4212 30.7351L12.2697 29.8865ZM10.5493 28.1661L12.2697 29.8865L11.4212 30.7351L9.70074 29.0146L10.5493 28.1661Z" fill="black"/>
</svg>
