<svg width="36" height="37" viewBox="0 0 36 37" fill="none" xmlns="http://www.w3.org/2000/svg">
<g clip-path="url(#clip0_5844_2440)">
<g clip-path="url(#clip1_5844_2440)">
<path d="M16.5624 19.1781L14.4354 13.2749C13.9909 12.0411 12.6478 11.3823 11.4001 11.786C10.1255 12.1984 9.42477 13.5641 9.8331 14.8399L12.3737 22.7783C12.9618 24.6159 14.6978 25.8401 16.6261 25.7771L20.9362 25.6364C22.6882 25.5792 24.3316 26.4828 25.2219 27.9928L27.7076 32.2087C28.2279 33.0912 29.3047 33.4757 30.2664 33.1222C31.4991 32.6692 32.028 31.2162 31.375 30.0767L27.9172 24.0432C27.0832 22.588 25.5497 21.6742 23.873 21.6332L19.8304 21.5344C18.3592 21.4985 17.0612 20.5625 16.5624 19.1781Z" stroke="#FF0000" stroke-width="1.2" stroke-linecap="round"/>
<circle cx="8.88846" cy="7.50495" r="2.59852" transform="rotate(-17.747 8.88846 7.50495)" stroke="#FF0000" stroke-width="1.2"/>
<path d="M2.84766 6.4668L9.4136 26.798C9.86596 28.1987 11.1739 29.1447 12.6458 29.1357L19.7964 29.0921" stroke="#FF0000" stroke-width="1.2" stroke-linecap="round"/>
<path d="M24.1186 4.25088C20.4497 4.25088 17.476 7.22626 17.476 10.8937C17.476 14.5648 20.4497 17.5384 24.1186 17.5384C26.2052 17.5384 28.5641 16.4503 30.9175 14.7943C33.6267 12.8879 33.6268 8.89935 30.9176 6.99323C28.5642 5.33746 26.2062 4.25088 24.1186 4.25088Z" stroke="#FF0000" stroke-width="1.2"/>
</g>
</g>
<defs>
<clipPath id="clip0_5844_2440">
<rect width="36" height="36" fill="white" transform="translate(0 0.275879)"/>
</clipPath>
<clipPath id="clip1_5844_2440">
<rect width="36" height="36" fill="white" transform="translate(0 0.275879)"/>
</clipPath>
</defs>
</svg>
