<svg width="38" height="39" viewBox="0 0 38 39" fill="none" xmlns="http://www.w3.org/2000/svg">
<rect y="0.457031" width="38" height="38" rx="6" fill="white"/>
<path fill-rule="evenodd" clip-rule="evenodd" d="M9.89827 19.9937L10.4958 17.7686C10.924 16.1751 12.1966 14.9385 13.7713 14.5182L14.2865 13.8311L15.8333 11.7692C15.9481 11.6164 16.0736 11.4756 16.1991 11.3348L16.2139 11.3182L16.759 8.62337C16.8398 8.22319 16.3717 7.94296 16.0556 8.20255L13.1497 10.5878C12.9505 10.751 12.6531 10.7068 12.5103 10.4928L10.427 7.36715C10.1999 7.02694 9.67022 7.1589 9.63077 7.5658L9.26753 11.3018C9.24251 11.5581 9.00099 11.7366 8.74792 11.6857L5.05872 10.9448C4.65699 10.8642 4.37602 11.3311 4.6363 11.6464L7.02793 14.5451C7.19151 14.7437 7.14725 15.0403 6.93267 15.1828L3.7982 17.2605C3.45709 17.4865 3.58987 18.0148 3.99738 18.0541L7.74335 18.4164C8.00027 18.4409 8.17924 18.6818 8.12824 18.9342L7.3854 22.6136C7.30409 23.0138 7.7727 23.294 8.08879 23.0344L9.78232 21.6438C9.72363 21.092 9.75346 20.5335 9.89827 19.9937ZM33.6929 26.3515L34.2904 24.127C34.4607 23.4936 34.4174 22.8549 34.2062 22.2849C33.9926 21.7084 33.6117 21.2085 33.1121 20.8487L32.9394 19.4068L32.6334 16.8497C32.5353 16.0268 32.2553 15.261 31.8309 14.595C31.4048 13.9263 30.8347 13.3608 30.1619 12.9395C29.7111 12.6569 29.2127 12.4381 28.6777 12.2951L22.7754 10.7179C22.2404 10.5749 21.6986 10.5159 21.167 10.5355C20.6353 10.5552 20.1129 10.6536 19.6159 10.8254C19.3676 10.9108 19.1256 11.0149 18.8918 11.1368C18.4246 11.3801 17.9902 11.6943 17.6053 12.0729C17.4123 12.262 17.2324 12.4679 17.0664 12.6891L15.5196 14.7509L14.6474 15.9136C14.3412 15.9446 14.0414 16.0209 13.7578 16.1401C12.9144 16.4942 12.2384 17.2154 11.983 18.1655L11.3854 20.3905C11.2348 20.9509 11.2565 21.5138 11.4104 22.0315C11.4618 22.2039 11.5276 22.3716 11.6072 22.533L10.9341 25.0392C10.8793 25.2436 10.8687 25.4499 10.8961 25.6476C10.9789 26.2402 11.4071 26.7551 12.0229 26.9197L13.51 27.317C14.3313 27.5363 15.1756 27.0502 15.3955 26.2311L15.7939 24.7479L27.6909 27.9273L27.2926 29.4105C27.0727 30.2296 27.5601 31.0717 28.3813 31.291L29.8685 31.6883C30.4843 31.8529 31.1131 31.6207 31.4821 31.1485C31.6048 30.9911 31.6991 30.8073 31.7539 30.6024L32.427 28.0962C32.5767 27.9962 32.7177 27.8839 32.8485 27.7604C33.2416 27.3885 33.5423 26.912 33.6929 26.3515ZM29.5759 17.2125L29.8819 19.7696L26.2596 18.8013L17.9844 16.5902L19.5312 14.5283C19.8077 14.1597 20.1886 13.8822 20.6248 13.7316C21.0609 13.581 21.5323 13.5642 21.9781 13.6833L27.8805 15.2605C28.5646 15.4433 29.1131 15.9241 29.3922 16.5474C29.485 16.7552 29.548 16.9788 29.5759 17.2125ZM16.252 21.5033C17.1642 21.5033 17.9037 20.7638 17.9037 19.8516C17.9037 18.9393 17.1642 18.1998 16.252 18.1998C15.3397 18.1998 14.6002 18.9393 14.6002 19.8516C14.6002 20.7638 15.3397 21.5033 16.252 21.5033ZM30.8475 23.5239C30.8475 24.4361 30.108 25.1757 29.1957 25.1757C28.2835 25.1757 27.544 24.4361 27.544 23.5239C27.544 22.6117 28.2835 21.8721 29.1957 21.8721C30.108 21.8721 30.8475 22.6117 30.8475 23.5239ZM20.6703 19.8151C19.9798 19.6238 19.2641 20.0282 19.0719 20.7185C18.8796 21.4087 19.2835 22.1234 19.974 22.3147L24.7573 23.6401C25.4478 23.8315 26.1635 23.427 26.3557 22.7367C26.548 22.0465 26.1441 21.3318 25.4536 21.1405L20.6703 19.8151Z" fill="black"/>
</svg>
