<svg width="38" height="39" viewBox="0 0 38 39" fill="none" xmlns="http://www.w3.org/2000/svg">
<rect y="0.457031" width="38" height="38" rx="6" fill="white"/>
<path fill-rule="evenodd" clip-rule="evenodd" d="M11.5677 20.1117H12.5508C13.1684 20.1117 13.6478 19.6323 13.6478 19.0147V17.609C15.4598 17.7228 18.1331 17.8121 20.2863 17.8121C22.4396 17.8121 25.1129 17.7309 26.9168 17.609V19.0147C26.9168 19.6323 27.3962 20.1117 28.0218 20.1117H28.9969C29.6226 20.1117 30.102 19.6323 30.102 19.0147V14.1963C30.102 12.7581 29.8338 11.9618 29.0782 10.9786L28.355 10.0685C28.0543 8.61405 27.5181 7.07832 27.2337 6.47703C26.7786 5.51009 25.9011 4.94131 24.7798 4.78692C24.1866 4.70567 22.4477 4.66504 20.2863 4.66504C18.125 4.66504 16.378 4.71379 15.7929 4.78692C14.6716 4.92506 13.7859 5.51009 13.339 6.47703C13.0546 7.07832 12.5183 8.61405 12.2177 10.0685L11.4945 10.9786C10.7307 11.9618 10.4707 12.7581 10.4707 14.1963V19.0147C10.4707 19.6323 10.9501 20.1117 11.5677 20.1117ZM14.0378 9.32097C14.2247 8.51654 14.5822 7.44397 14.826 7.01332C15.0616 6.58266 15.3298 6.4039 15.8336 6.3389C16.4105 6.25764 17.7999 6.20889 20.2863 6.20889C22.7646 6.20889 24.1622 6.24139 24.7391 6.3389C25.2429 6.41203 25.5029 6.58266 25.7467 7.01332C25.9986 7.43584 26.3317 8.51654 26.5268 9.32097C26.6161 9.67036 26.4617 9.83287 26.0961 9.81662C24.8448 9.74349 23.2684 9.66224 20.2863 9.66224C17.3043 9.66224 15.7279 9.74349 14.4766 9.81662C14.1028 9.83287 13.9647 9.67036 14.0378 9.32097ZM14.3303 15.537C13.5584 15.537 12.9652 14.952 12.9652 14.18C12.9652 13.4 13.5584 12.8149 14.3303 12.8149C15.1023 12.8149 15.6873 13.4 15.6873 14.18C15.6873 14.952 15.1023 15.537 14.3303 15.537ZM26.2424 15.537C25.4623 15.537 24.8773 14.952 24.8773 14.18C24.8773 13.4 25.4623 12.8149 26.2424 12.8149C27.0143 12.8149 27.5993 13.4 27.5993 14.18C27.5993 14.952 27.0143 15.537 26.2424 15.537ZM18.0925 15.1957C17.5074 15.1957 17.1011 14.7894 17.1011 14.2125C17.1011 13.6356 17.5074 13.2293 18.0925 13.2293H22.4802C23.0571 13.2293 23.4634 13.6356 23.4634 14.2125C23.4634 14.7894 23.0571 15.1957 22.4802 15.1957H18.0925ZM12.6452 21.3132C12.6452 21.3132 12.948 21.3794 13.4542 21.5661C13.7073 21.6731 14.0148 21.8054 14.3611 22.0233C14.7043 22.2547 15.1018 22.527 15.476 23.1184C15.6655 23.3946 15.8177 23.842 15.8379 24.3399C15.8456 24.5792 15.8037 24.8321 15.7571 25.0674L15.6484 25.3845L15.5878 25.542L15.5568 25.6218L15.4931 25.7327L15.4403 25.828C15.4279 25.8552 15.4062 25.8941 15.358 25.9544C15.2835 26.0556 15.1841 26.184 15.1127 26.2501C14.9698 26.3979 14.8238 26.5166 14.6763 26.6236C14.3797 26.8181 14.0878 26.9542 13.7974 27.0729C13.0049 27.3846 12.208 27.5482 11.436 27.7067C11.0856 27.7786 10.7403 27.8494 10.4029 27.9326L10.3509 27.9464C9.83779 28.0815 9.33618 28.2137 8.97116 28.415C8.78793 28.5162 8.65439 28.6368 8.61712 28.6952C8.60882 28.7117 8.60355 28.7211 8.60023 28.7271C8.59688 28.733 8.59552 28.7355 8.59505 28.7381C8.59473 28.7398 8.59483 28.7417 8.59499 28.7448C8.59528 28.7501 8.59575 28.759 8.59471 28.7774L8.60469 28.8936L8.62643 29.1425C8.62981 29.2186 8.63968 29.2396 8.649 29.2594C8.65256 29.2669 8.65603 29.2743 8.65904 29.2845C8.66835 29.3156 8.67768 29.3468 8.68233 29.3799C8.67848 29.4125 8.70153 29.475 8.72551 29.5401C8.74018 29.5799 8.7552 29.6206 8.76463 29.6561C8.79138 29.7547 8.8352 29.8516 8.87976 29.9502L8.88576 29.9634C9.06123 30.3758 9.30348 30.7784 9.55814 31.1383C10.0613 31.8697 10.5753 32.4688 10.9355 32.887C11.2989 33.3169 11.507 33.562 11.507 33.562L11.5116 33.5678C11.6374 33.7176 11.6436 33.9666 11.524 34.1261C11.4526 34.2194 11.3517 34.2603 11.257 34.2466C11.257 34.2466 10.9417 34.2 10.4277 33.9958C10.1746 33.8888 9.86405 33.7506 9.52553 33.5425C9.18701 33.3324 8.80501 33.0796 8.4199 32.7119C8.03169 32.3501 7.62329 31.895 7.27079 31.2589C7.17762 31.1033 7.08911 30.9418 7.01767 30.7492C6.99447 30.6861 6.97032 30.629 6.94613 30.5717L6.94612 30.5717C6.89423 30.4488 6.84215 30.3254 6.79873 30.1424C6.76456 30.0198 6.73506 29.8934 6.70866 29.767C6.68226 29.6483 6.6481 29.4927 6.6481 29.4304L6.6217 29.1815L6.60927 29.057L6.60307 28.9947L6.60151 28.9792L6.59996 28.9694L6.59375 28.8411L6.5953 28.7827C6.57978 28.1855 6.81115 27.4464 7.16054 27.0106C7.50372 26.5613 7.87019 26.326 8.20716 26.147C8.87799 25.8163 9.49447 25.6743 10.097 25.5732C10.5807 25.4933 11.057 25.4349 11.5154 25.3788C12.1842 25.2969 12.8149 25.2196 13.375 25.0869C13.8393 24.9605 14.2167 24.801 14.3611 24.5987C14.4978 24.3964 14.5459 24.2777 14.4418 23.9665C14.3285 23.6572 14.0614 23.346 13.8207 23.1009C13.6016 22.8719 13.3762 22.6947 13.1863 22.5454L13.1863 22.5454L13.1235 22.4959C12.7073 22.175 12.4589 22.0291 12.4589 22.0291C12.3067 21.9416 12.2415 21.7159 12.3129 21.5233C12.3719 21.3658 12.507 21.2841 12.6374 21.3113L12.6452 21.3132ZM8.59382 28.7925V28.7963C8.59633 28.8388 8.59554 28.8237 8.59382 28.7925ZM29.0217 21.5661C28.5155 21.3794 28.2127 21.3132 28.2127 21.3132L28.2049 21.3113C28.0744 21.2841 27.9394 21.3658 27.8803 21.5233C27.8089 21.7159 27.8741 21.9416 28.0263 22.0291C28.0263 22.0291 28.2748 22.175 28.6909 22.4959C28.7114 22.5121 28.7323 22.5286 28.7538 22.5454C28.9437 22.6947 29.1691 22.8719 29.3882 23.1009C29.6288 23.346 29.8959 23.6572 30.0093 23.9665C30.1133 24.2777 30.0652 24.3964 29.9286 24.5987C29.7841 24.801 29.4068 24.9605 28.9425 25.0869C28.3823 25.2196 27.7516 25.2969 27.0828 25.3788C26.6244 25.4349 26.1482 25.4933 25.6644 25.5732C25.0619 25.6743 24.4454 25.8163 23.7746 26.147C23.4376 26.326 23.0712 26.5613 22.728 27.0106C22.3786 27.4464 22.1472 28.1855 22.1628 28.7827L22.1612 28.8411L22.1674 28.9694L22.169 28.9792L22.1705 28.9947L22.1767 29.057L22.1892 29.1815L22.2155 29.4304C22.2155 29.4927 22.2497 29.6483 22.2761 29.767C22.3025 29.8934 22.332 30.0198 22.3662 30.1424C22.4096 30.3254 22.4617 30.4488 22.5136 30.5717C22.5378 30.629 22.5619 30.6861 22.5851 30.7492C22.6566 30.9418 22.7451 31.1033 22.8382 31.2589C23.1907 31.895 23.5991 32.3501 23.9874 32.7119C24.3725 33.0796 24.7545 33.3324 25.093 33.5425C25.4315 33.7506 25.7421 33.8888 25.9952 33.9958C26.5092 34.2 26.8244 34.2466 26.8244 34.2466C26.9191 34.2603 27.0201 34.2194 27.0915 34.1261C27.2111 33.9666 27.2049 33.7176 27.0791 33.5678L27.0744 33.562C27.0744 33.562 26.8663 33.3169 26.503 32.887C26.1427 32.4688 25.6287 31.8697 25.1256 31.1383C24.8709 30.7784 24.6287 30.3758 24.4532 29.9634L24.4472 29.9502C24.4027 29.8516 24.3588 29.7547 24.3321 29.6561C24.3227 29.6206 24.3076 29.5799 24.293 29.5401C24.269 29.475 24.2459 29.4125 24.2498 29.3799C24.2451 29.3468 24.2358 29.3156 24.2265 29.2845C24.2235 29.2743 24.22 29.2669 24.2165 29.2594C24.2071 29.2396 24.1973 29.2186 24.1939 29.1425L24.1721 28.8936L24.1622 28.7774C24.1638 28.7482 24.1616 28.7429 24.1625 28.7381C24.1634 28.7329 24.1679 28.7284 24.1846 28.6952C24.2218 28.6368 24.3554 28.5162 24.5386 28.415C24.9036 28.2137 25.4052 28.0815 25.9183 27.9464L25.9703 27.9326C26.3078 27.8494 26.653 27.7786 27.0035 27.7067C27.7755 27.5482 28.5724 27.3846 29.3649 27.0729C29.6553 26.9542 29.9472 26.8181 30.2438 26.6236C30.3913 26.5166 30.5373 26.3979 30.6801 26.2501C30.7516 26.184 30.8509 26.0556 30.9255 25.9544C30.9736 25.8941 30.9954 25.8552 31.0078 25.828L31.0606 25.7327L31.1242 25.6218L31.1553 25.542L31.2159 25.3845L31.3246 25.0674C31.3711 24.8321 31.4131 24.5792 31.4053 24.3399C31.3851 23.842 31.2329 23.3946 31.0435 23.1184C30.6693 22.527 30.2717 22.2547 29.9286 22.0233C29.5823 21.8054 29.2748 21.6731 29.0217 21.5661ZM24.1613 28.7925V28.7963C24.1638 28.8388 24.163 28.8237 24.1613 28.7925Z" fill="black"/>
</svg>
