<?xml version="1.0" encoding="UTF-8"?>
<svg id="Layer_1" data-name="Layer 1" xmlns="http://www.w3.org/2000/svg" xmlns:xlink="http://www.w3.org/1999/xlink" version="1.1" viewBox="0 0 684 288">
  <defs>
    <style>
      .cls-1 {
        fill: url(#linear-gradient);
      }

      .cls-1, .cls-2 {
        stroke-width: 0px;
      }

      .cls-2 {
        fill: #f27678;
      }
    </style>
    <linearGradient id="linear-gradient" x1="258.42" y1="272.97" x2="418.68" y2="-4.59" gradientUnits="userSpaceOnUse">
      <stop offset="0" stop-color="#0b6cd4"/>
      <stop offset=".33" stop-color="#616fb1"/>
      <stop offset=".66" stop-color="#af7392"/>
      <stop offset=".89" stop-color="#df757f"/>
      <stop offset="1" stop-color="#f27678"/>
    </linearGradient>
  </defs>
  <path class="cls-1" d="M144.08,95.67c-.08-.07,2.12-8.94,1.81-18.3l6.71,4.74-10.84-24.15-12.57,21.36,8.17-2.86c-.41,5.45-1.06,10.68-2.02,15.67-8.31,43.31-35.51,69.54-52.66,79.38,4.72-1.14,13.98-5.99,13.98-5.99,0,0,8.02,3.7,17.46,3.7,23.18,0,42.95-18.77,42.95-42.8,0-19.1-12.25-30.07-12.99-30.74ZM137.63,137.44c-4.04,8.71-13.41,15.3-24.75,14.79,10.5-10.7,19.11-22.61,24.91-36.65,3.14,7.4,3.19,14.65-.16,21.86ZM84.53,159.38c.96.96,2.26,1.2,2.92.54.01-.01.02-.02.03-.03l3.96,2.21.38-.36c1.08-1.01,4-3.83,7.77-8.27,4.06-4.78,7.85-9.95,11.27-15.35,4.28-6.76,7.9-13.79,10.78-20.92l.1-.25c.06-.15.12-.3.18-.45,3.52-8.89,5.92-18,7.11-27.08l.07-.54-4.41-1.91-11.18-1.42-17.95,4.24-.13.03-10.54,7.29-.26.41h0s-7.59,9.72-7.59,9.72l-.06.08-2.85,6.88c-.12-.04-.24-.07-.37-.07-.79,0-1.44.94-1.44,2.09,0,1.01.5,1.86,1.16,2.05l-.09,17.12c-.15,0-.31.02-.45.07-.87.32-1.2,1.61-.73,2.88.43,1.15,1.37,1.89,2.19,1.77l9.5,16.43c-.55.68-.29,1.92.62,2.83ZM94.44,157.06l-9.53-10.37,13.66,5.73c-1.55,1.83-2.95,3.38-4.13,4.63ZM99.54,151.27l-14.57-6.12,20.34-1.39c-2.03,2.83-3.98,5.34-5.78,7.51ZM106.39,142.24l-21.96,1.5c-.42-.73-1.21-1.22-2.11-1.23l-2.94-16.89c.41-.15.76-.39,1.04-.71l26.07,17.2s-.06.09-.1.14ZM80.43,121.67l15.17-14.55c.38.23.82.36,1.29.36.23,0,.46-.03.67-.09l9.43,14.81c-.18.24-.32.51-.4.8l-25.94-1.04c-.06-.1-.14-.2-.21-.29ZM107.3,140.92l-26.29-17.35s0-.1.01-.14l25.58,1.03c.23.72.78,1.3,1.48,1.56l.03,13.69c-.27.41-.54.81-.81,1.21ZM109.55,137.49l-.02-11.38c.47-.11.89-.35,1.21-.68l4.57,2.07c-1.87,3.59-3.81,6.93-5.76,9.99ZM115.96,126.22l-4.56-2.06c.03-.15.04-.3.04-.46,0-.19-.02-.38-.06-.56l8.21-4.76c-1.15,2.73-2.37,5.34-3.63,7.84ZM120.49,116.19l-9.83,5.7c-.44-.42-1.04-.67-1.7-.67-.28,0-.56.05-.81.14l-9.38-14.73c.08-.1.16-.2.22-.3h0s22.96,5.98,22.96,5.98c-.47,1.32-.97,2.62-1.48,3.9ZM98.77,103.39l4.86-8.58c.08,0,.16.01.24.01,1.04,0,1.93-.64,2.3-1.55l14.52,1.77-21.86,8.42s-.04-.05-.06-.07ZM126.08,95.69s.09-.32.1-.43l.08-.03.4-.13c-.02.13-.05.26-.07.38l-.05.26c-.23,1.18-.48,2.35-.74,3.51l-.43-2.42c.33-.3.59-.7.72-1.14M125.03,88.68l2.51,1.08c-.17,1.26-.36,2.5-.58,3.73l-1.06.35c-.21-.4-.54-.74-.93-.98l.07-4.19ZM124.01,97.46l.94,5.25c-.74,2.83-1.58,5.57-2.5,8.22l-23.02-5.99-.06-.02s0-.08,0-.12l22.19-8.55c.43.74,1.23,1.23,2.14,1.23.11,0,.21,0,.31-.02ZM123.59,88.28l-.07,4.25c-.22.01-.43.06-.63.13l-6.95-5.34,7.64.97ZM121.69,93.54c-.04.05-.07.1-.1.15l-15.27-1.86,7.1-4.66,8.27,6.36ZM109.62,87.95l-4.01,2.63c-.45-.45-1.07-.72-1.75-.72-.9,0-1.69.48-2.12,1.2l-2.67-.62,10.55-2.5ZM95.96,91.2l5.12,1.18-11.81,3.45,6.69-4.63ZM87.87,97.75l13.92-4.06c.14.21.31.4.5.56l-4.74,8.37c-.21-.06-.43-.09-.65-.09-.58,0-1.11.2-1.53.53l-7.66-4.65c.09-.23.15-.45.16-.67ZM85.4,100.09c.45,0,.96-.18,1.41-.53l7.72,4.68c-.08.24-.12.5-.12.77,0,.37.08.72.23,1.04l-14.36,13.77,5.12-19.73ZM79.43,108.69l3.88-6.28-4.77,18.39c-.2,0-.4.03-.58.07l-2.75-4.71c0-.16-.02-.33-.05-.48l4.28-7ZM74.92,118.55l1.79,3.07c-.4.44-.65,1.03-.65,1.67s.26,1.27.69,1.72l-1.91,7.4.07-13.86ZM75.37,137.18c-.05-.13-.11-.26-.17-.38l2.78-10.79,2.93,16.82-5.33-4.31c.03-.42-.04-.88-.21-1.34ZM76.78,141.35l3.24,2.62c-.14.31-.22.66-.22,1.02,0,1.28.97,2.33,2.21,2.46l1.45,5.45-6.68-11.56ZM83.44,147.21l10.01,10.89c-.96,1-1.72,1.74-2.22,2.22l-3.48-1.94c-.13-.47-.41-.96-.83-1.38-.33-.33-.69-.57-1.06-.72l-2.42-9.06ZM166.88,168.29v-77.96h18.15l42.99,51.9h-8.58v-51.9h21.61v77.96h-18.15l-42.99-51.9h8.57v51.9h-21.6ZM273.46,168.29l-25.28-77.96h22.72l21.27,67.49h-11.47l22.38-67.49h20.27l21.16,67.49h-11.03l21.94-67.49h21.05l-25.28,77.96h-23.61l-18.04-57.35h6.35l-18.82,57.35h-23.61ZM356.76,168.29l34.41-77.96h21.72l34.52,77.96h-22.94l-26.95-67.15h8.69l-26.95,67.15h-22.5ZM375.58,153.14l5.68-16.26h38.09l5.68,16.26h-49.45ZM451.41,168.29v-77.96h35.64c7.13,0,13.27,1.15,18.43,3.45,5.16,2.3,9.15,5.62,11.97,9.97,2.82,4.34,4.23,9.49,4.23,15.42s-1.41,10.93-4.23,15.2c-2.82,4.27-6.81,7.54-11.97,9.8-5.16,2.27-11.3,3.4-18.43,3.4h-23.39l9.8-9.24v29.96h-22.05ZM473.46,140.67l-9.8-10.13h22.05c4.6,0,8.04-1,10.3-3.01,2.26-2,3.4-4.79,3.4-8.35s-1.13-6.46-3.4-8.46c-2.27-2-5.7-3.01-10.3-3.01h-22.05l9.8-10.13v43.1ZM499.63,168.29l-19.38-28.4h23.5l19.49,28.4h-23.61ZM531.6,168.29v-77.96h36.86c8.61,0,16.18,1.6,22.72,4.79,6.53,3.19,11.64,7.68,15.31,13.48,3.68,5.79,5.51,12.7,5.51,20.71s-1.84,14.83-5.51,20.66c-3.67,5.83-8.78,10.34-15.31,13.53-6.53,3.19-14.11,4.79-22.72,4.79h-36.86ZM553.64,150.69h13.92c4.45,0,8.33-.84,11.64-2.51,3.3-1.67,5.88-4.12,7.74-7.35,1.86-3.23,2.78-7.07,2.78-11.53s-.93-8.39-2.78-11.58c-1.86-3.19-4.44-5.62-7.74-7.29-3.31-1.67-7.18-2.51-11.64-2.51h-13.92v42.76Z"/>
  <path class="cls-2" d="M540.78,217.96v-30.03h14.2c3.32,0,6.23.61,8.75,1.84,2.52,1.23,4.48,2.96,5.9,5.19,1.42,2.23,2.12,4.89,2.12,7.98s-.71,5.71-2.12,7.96c-1.41,2.25-3.38,3.98-5.9,5.21-2.52,1.23-5.43,1.84-8.75,1.84h-14.2ZM549.28,211.18h5.36c1.72,0,3.21-.32,4.48-.97,1.27-.64,2.27-1.59,2.98-2.83.72-1.24,1.07-2.72,1.07-4.44s-.36-3.23-1.07-4.46c-.72-1.23-1.71-2.17-2.98-2.81-1.27-.64-2.77-.97-4.48-.97h-5.36v16.47ZM131.4,218.56c-2.37,0-4.57-.38-6.59-1.14-2.02-.76-3.76-1.84-5.23-3.24-1.47-1.4-2.62-3.05-3.45-4.95s-1.24-4-1.24-6.28.42-4.38,1.24-6.29c.83-1.9,1.98-3.55,3.45-4.95,1.47-1.4,3.22-2.48,5.23-3.24,2.02-.76,4.21-1.14,6.59-1.14,2.77,0,5.25.49,7.44,1.46,2.19.97,4.01,2.38,5.47,4.2l-5.41,4.89c-.97-1.14-2.04-2.02-3.2-2.62s-2.45-.9-3.88-.9c-1.23,0-2.36.2-3.39.6s-1.91.98-2.64,1.74c-.73.76-1.3,1.67-1.71,2.72-.42,1.06-.62,2.23-.62,3.52s.21,2.46.62,3.52c.41,1.06.99,1.97,1.71,2.72.73.76,1.61,1.34,2.64,1.74,1.03.4,2.16.6,3.39.6,1.43,0,2.72-.3,3.88-.9,1.16-.6,2.22-1.47,3.2-2.62l5.41,4.89c-1.46,1.8-3.28,3.2-5.47,4.18-2.19.99-4.67,1.48-7.44,1.48ZM184.04,218.56c-2.4,0-4.62-.38-6.65-1.16-2.03-.77-3.8-1.87-5.3-3.28-1.5-1.41-2.67-3.07-3.5-4.95s-1.24-3.96-1.24-6.22.42-4.33,1.24-6.22c.83-1.89,2-3.54,3.5-4.95,1.5-1.41,3.27-2.51,5.3-3.28,2.03-.77,4.25-1.16,6.65-1.16s4.65.39,6.67,1.16c2.02.77,3.77,1.87,5.25,3.28,1.49,1.42,2.65,3.07,3.5,4.95.84,1.89,1.27,3.96,1.27,6.22s-.42,4.34-1.27,6.24c-.84,1.9-2.01,3.55-3.5,4.96-1.49,1.4-3.24,2.49-5.25,3.26-2.02.77-4.24,1.16-6.67,1.16ZM184.04,211.52c1.14,0,2.21-.2,3.19-.6.99-.4,1.85-.98,2.57-1.74.73-.76,1.3-1.66,1.72-2.72.41-1.06.62-2.23.62-3.52s-.21-2.5-.62-3.54c-.42-1.04-.99-1.94-1.72-2.7-.73-.76-1.59-1.34-2.57-1.74-.99-.4-2.05-.6-3.19-.6s-2.21.2-3.2.6c-.99.4-1.84.98-2.57,1.74-.73.76-1.3,1.66-1.71,2.7-.42,1.04-.62,2.22-.62,3.54s.21,2.46.62,3.52c.41,1.06.99,1.97,1.71,2.72.73.76,1.59,1.34,2.57,1.74.99.4,2.05.6,3.2.6ZM226.64,217.96v-30.03h6.99l16.56,19.99h-3.3v-19.99h8.32v30.03h-6.99l-16.56-19.99h3.3v19.99h-8.32ZM282.66,217.96v-30.03h6.99l16.56,19.99h-3.3v-19.99h8.32v30.03h-6.99l-16.56-19.99h3.3v19.99h-8.32ZM347.1,211.39h15.7v6.56h-24.11v-30.03h23.55v6.56h-15.14v16.9ZM346.49,199.55h13.94v6.35h-13.94v-6.35ZM403.94,218.56c-2.37,0-4.57-.38-6.59-1.14-2.02-.76-3.76-1.84-5.23-3.24-1.47-1.4-2.62-3.05-3.45-4.95-.83-1.9-1.24-4-1.24-6.28s.42-4.38,1.24-6.29c.83-1.9,1.98-3.55,3.45-4.95,1.47-1.4,3.22-2.48,5.23-3.24,2.02-.76,4.21-1.14,6.59-1.14,2.77,0,5.25.49,7.44,1.46,2.19.97,4.01,2.38,5.47,4.2l-5.41,4.89c-.97-1.14-2.04-2.02-3.2-2.62s-2.45-.9-3.88-.9c-1.23,0-2.36.2-3.39.6s-1.91.98-2.64,1.74c-.73.76-1.3,1.67-1.71,2.72-.42,1.06-.62,2.23-.62,3.52s.21,2.46.62,3.52c.41,1.06.99,1.97,1.71,2.72.73.76,1.61,1.34,2.64,1.74,1.03.4,2.16.6,3.39.6,1.43,0,2.72-.3,3.88-.9,1.16-.6,2.22-1.47,3.2-2.62l5.41,4.89c-1.46,1.8-3.28,3.2-5.47,4.18-2.19.99-4.67,1.48-7.44,1.48ZM448.21,217.96v-23.29h-9.22v-6.73h26.9v6.73h-9.18v23.29h-8.49ZM498.91,211.39h15.7v6.56h-24.11v-30.03h23.55v6.56h-15.14v16.9ZM498.31,199.55h13.94v6.35h-13.94v-6.35Z"/>
</svg>
