<svg width="42" height="39" viewBox="0 0 42 39" fill="none" xmlns="http://www.w3.org/2000/svg">
<path d="M16.2581 0H4.06452C1.81955 0 0 1.81955 0 4.06452V34.5484C0 36.7934 1.81955 38.6129 4.06452 38.6129H16.2581C18.503 38.6129 20.3226 36.7934 20.3226 34.5484V4.06452C20.3226 1.81955 18.503 0 16.2581 0ZM15.8509 30.6803L10.7703 32.8968C10.5759 32.9815 10.3699 33.0242 10.1613 33.0242C9.95265 33.0242 9.74671 32.9815 9.55229 32.8968L4.47164 30.6803C3.69939 30.3436 3.34645 29.4447 3.68381 28.6738C4.02116 27.9016 4.92416 27.5547 5.69032 27.886L10.1613 29.8369L14.6329 27.886C15.4032 27.5547 16.3021 27.9016 16.6395 28.6738C16.9768 29.4447 16.6232 30.3436 15.8509 30.6803ZM15.8509 19.595L10.7703 21.8115C10.5759 21.8962 10.3693 21.9389 10.1613 21.9389C9.95332 21.9389 9.74671 21.8962 9.55229 21.8115L4.47164 19.595C3.69939 19.2584 3.34645 18.3594 3.68381 17.5885C4.02116 16.8163 4.92416 16.4681 5.69032 16.8007L10.1613 18.7516L14.6329 16.8007C15.4032 16.4681 16.3021 16.8163 16.6395 17.5885C16.9768 18.3601 16.6232 19.259 15.8509 19.595ZM15.8509 8.50974L10.7703 10.7263C10.5759 10.8109 10.3693 10.8536 10.1613 10.8536C9.95332 10.8536 9.74671 10.8109 9.55229 10.7263L4.47164 8.50974C3.69939 8.17307 3.34645 7.27413 3.68381 6.50322C4.02116 5.73029 4.92416 5.3821 5.69032 5.71539L10.1613 7.66636L14.6329 5.71539C15.4032 5.3821 16.3021 5.73029 16.6395 6.50322C16.9768 7.27481 16.6232 8.17374 15.8509 8.50974Z" fill="black"/>
<path d="M38.0583 24.7123H34.4454C33.3589 24.7123 32.4748 23.8369 32.4748 22.7613V18.209H32.8032C33.5289 18.209 34.117 17.6268 34.117 16.9084V15.1525C37.1737 14.0778 39.3721 11.1942 39.3721 7.80387C39.3721 3.50047 35.8363 0 31.4894 0C27.1426 0 23.6067 3.50047 23.6067 7.80387C23.6067 11.1942 25.8051 14.0778 28.8619 15.1525V16.9084C28.8619 17.6268 29.45 18.209 30.1756 18.209H30.5041V22.7613C30.5041 24.913 32.272 26.6632 34.4454 26.6632H38.0583C39.1448 26.6632 40.029 27.5386 40.029 28.6142C40.029 29.6898 39.1448 30.5652 38.0583 30.5652H20.3223V32.5161H38.0583C40.2318 32.5161 41.9997 30.7659 41.9997 28.6142C41.9997 26.4625 40.2318 24.7123 38.0583 24.7123ZM25.5774 7.80387C25.5774 4.57654 28.2295 1.95097 31.4894 1.95097C34.7494 1.95097 37.4014 4.57654 37.4014 7.80387C37.4014 11.0312 34.7494 13.6568 31.4894 13.6568C28.2295 13.6568 25.5774 11.0312 25.5774 7.80387Z" fill="black"/>
<path d="M30.6818 9.69167L33.2856 5.71344C33.6614 5.10184 34.7474 5.53205 34.5172 6.19101L33.1281 10.6404C32.5172 12.3596 29.7262 11.2797 30.6818 9.69167Z" fill="black"/>
</svg>
