<svg width="296" height="296" viewBox="0 0 296 296" fill="none" xmlns="http://www.w3.org/2000/svg">
<path fill-rule="evenodd" clip-rule="evenodd" d="M148.207 57.9867C149.123 54.0454 154.642 53.8008 155.904 57.6455L165.199 85.9776L180.177 70.6588C182.724 68.0542 187.143 69.9322 187.036 73.5733L186.365 96.2779L211.741 79.0118C215.157 76.6879 219.425 80.4361 217.561 84.1231L197.706 123.412C196.959 124.89 195.154 125.483 193.675 124.736C192.197 123.989 191.604 122.184 192.351 120.705L208.713 88.3295L186.501 103.443C183.801 105.28 180.156 103.282 180.252 100.018L180.887 78.5152L167.186 92.5279C165.087 94.674 161.461 93.8303 160.525 90.9784L152.432 66.3108L142.987 106.944C142.378 109.562 139.412 110.846 137.086 109.5L119.187 99.1371L135.149 128.198C135.947 129.65 135.416 131.474 133.964 132.272C132.512 133.069 130.688 132.539 129.89 131.087L110.474 95.7373C108.525 92.1875 112.48 88.3208 115.985 90.3499L137.754 102.953L148.207 57.9867ZM279.493 112.824C280.376 114.226 279.955 116.078 278.553 116.961L261.384 127.775C252.429 133.414 242.659 137.64 232.417 140.304L205.996 147.175L205.907 147.198L205.816 147.216L199.283 148.494C188.487 150.605 180.698 160.065 180.698 171.066V189.104C180.698 199.597 189.204 208.104 199.698 208.104H215.379C216.727 193.168 229.279 181.465 244.565 181.465C260.751 181.465 273.871 194.585 273.871 210.771C273.871 226.956 260.751 240.076 244.565 240.076C229.507 240.076 217.102 228.719 215.447 214.104H199.698C185.89 214.104 174.698 202.911 174.698 189.104V171.066C174.698 157.196 184.519 145.267 198.131 142.605L204.575 141.345L230.907 134.497C240.552 131.989 249.753 128.009 258.186 122.698L275.356 111.884C276.758 111.001 278.61 111.422 279.493 112.824ZM55.9029 225.921L19.9414 225.921L19.9414 219.921L55.9029 219.921L55.9029 225.921ZM20.3672 104.653H25.3787C32.169 104.653 38.7279 107.121 43.8343 111.597L83.392 146.268C88.5881 150.822 95.2846 153.294 102.193 153.209L125.391 152.922C143.774 152.695 158.799 167.535 158.799 185.92V204.01C163.76 205.214 167.443 209.684 167.443 215.016C167.443 221.27 162.373 226.341 156.118 226.341H134.717C133.06 226.341 131.717 224.997 131.717 223.341C131.717 221.684 133.06 220.341 134.717 220.341H156.118C159.059 220.341 161.443 217.956 161.443 215.016C161.443 212.075 159.059 209.69 156.118 209.69H138.098C136.441 209.69 135.098 208.347 135.098 206.69C135.098 205.034 136.441 203.69 138.098 203.69H152.799V185.92C152.799 170.877 140.506 158.736 125.465 158.922L102.268 159.208C93.8782 159.312 85.7467 156.31 79.4372 150.78L39.8796 116.109C35.8673 112.592 30.7139 110.653 25.3787 110.653H20.3672V104.653ZM23.1581 127.562H19.5556V121.562H23.1581C26.7244 121.562 30.1562 122.923 32.7532 125.367L59.6043 150.638C62.2421 153.121 60.4852 157.551 56.8629 157.551H19.3984V151.551H51.8197L28.641 129.736C27.157 128.339 25.196 127.562 23.1581 127.562ZM19.9414 208.751H51.5977V202.751H19.9414V208.751ZM97.1885 234.076C110.06 234.076 120.494 223.642 120.494 210.771C120.494 197.899 110.06 187.465 97.1885 187.465C84.3171 187.465 73.8828 197.899 73.8828 210.771C73.8828 223.642 84.3171 234.076 97.1885 234.076ZM97.1885 240.076C113.374 240.076 126.494 226.956 126.494 210.771C126.494 194.585 113.374 181.465 97.1885 181.465C81.0034 181.465 67.8828 194.585 67.8828 210.771C67.8828 226.956 81.0034 240.076 97.1885 240.076ZM267.871 210.771C267.871 223.642 257.437 234.076 244.565 234.076C231.694 234.076 221.26 223.642 221.26 210.771C221.26 197.899 231.694 187.465 244.565 187.465C257.437 187.465 267.871 197.899 267.871 210.771ZM97.1877 219.328C101.914 219.328 105.745 215.497 105.745 210.771C105.745 206.045 101.914 202.214 97.1877 202.214C92.4619 202.214 88.6309 206.045 88.6309 210.771C88.6309 215.497 92.4619 219.328 97.1877 219.328ZM97.1877 225.328C105.227 225.328 111.745 218.81 111.745 210.771C111.745 202.731 105.227 196.214 97.1877 196.214C89.1482 196.214 82.6309 202.731 82.6309 210.771C82.6309 218.81 89.1482 225.328 97.1877 225.328ZM253.122 210.771C253.122 215.497 249.291 219.328 244.565 219.328C239.839 219.328 236.008 215.497 236.008 210.771C236.008 206.045 239.839 202.214 244.565 202.214C249.291 202.214 253.122 206.045 253.122 210.771ZM259.122 210.771C259.122 218.81 252.604 225.328 244.565 225.328C236.525 225.328 230.008 218.81 230.008 210.771C230.008 202.731 236.525 196.214 244.565 196.214C252.604 196.214 259.122 202.731 259.122 210.771Z" fill="black"/>
</svg>
