<svg width="296" height="295" viewBox="0 0 296 295" fill="none" xmlns="http://www.w3.org/2000/svg">
<path fill-rule="evenodd" clip-rule="evenodd" d="M148.199 120.273C149.856 120.273 151.199 118.93 151.199 117.273V65.5635C151.199 63.9066 149.856 62.5635 148.199 62.5635C146.542 62.5635 145.199 63.9066 145.199 65.5635V117.273C145.199 118.93 146.542 120.273 148.199 120.273ZM136.887 119.394C135.715 120.566 133.816 120.566 132.644 119.394L95.6367 82.3867C94.4652 81.2151 94.4652 79.3156 95.6367 78.1441C96.8083 76.9725 98.7078 76.9725 99.8794 78.1441L136.887 115.152C138.059 116.323 138.059 118.223 136.887 119.394ZM199.748 223.378C172.999 223.378 151.315 201.694 151.315 174.945C151.315 148.196 172.999 126.511 199.748 126.511C226.497 126.511 248.182 148.196 248.182 174.945C248.182 201.694 226.497 223.378 199.748 223.378ZM199.748 229.378C175.792 229.378 155.45 213.903 148.175 192.404C140.899 213.903 120.558 229.378 96.6017 229.378C66.5389 229.378 42.1682 205.008 42.1682 174.945C42.1682 144.882 66.5389 120.511 96.6017 120.511C120.558 120.511 140.899 135.987 148.175 157.486C155.45 135.987 175.792 120.511 199.748 120.511C229.811 120.511 254.182 144.882 254.182 174.945C254.182 205.008 229.811 229.378 199.748 229.378ZM96.6017 223.378C69.8526 223.378 48.1682 201.694 48.1682 174.945C48.1682 148.196 69.8526 126.511 96.6017 126.511C123.351 126.511 145.035 148.196 145.035 174.945C145.035 201.694 123.351 223.378 96.6017 223.378ZM128.456 171.514L112.385 159L112.349 158.972L111.64 158.42L109.613 156.842C108.42 155.912 106.729 156.601 106.431 157.983C106.401 158.122 106.385 158.268 106.385 158.42V160.988V161.886V161.932V163.971L100.385 163.925L61.8592 163.629C60.7486 163.621 59.8438 164.519 59.8438 165.629V185.041C59.8438 186.149 60.7451 187.046 61.8533 187.041L100.495 186.857L106.495 186.829V188.051V188.086V188.897V191.553C106.495 191.661 106.503 191.767 106.519 191.87C106.742 193.318 108.467 194.077 109.698 193.15L111.82 191.553L112.467 191.065L112.495 191.044L128.395 179.071L128.403 179.065L129.358 178.346L132.316 176.118C132.842 175.722 132.848 174.934 132.329 174.53L129.407 172.255L128.463 171.52L128.456 171.514ZM123.491 175.253L112.385 166.604V170.017L106.339 169.971L65.8438 169.66V181.022L106.467 180.829L112.495 180.8V183.533L123.491 175.253ZM183.965 159L167.894 171.514L167.886 171.52L166.942 172.255L164.021 174.53C163.501 174.934 163.507 175.722 164.033 176.118L166.992 178.346L167.947 179.065L167.955 179.071L183.854 191.044L183.882 191.065L184.53 191.553L186.651 193.15C187.882 194.077 189.608 193.318 189.83 191.87C189.846 191.767 189.854 191.661 189.854 191.553V188.897V188.086V188.051V186.829L195.854 186.857L234.496 187.041C235.605 187.046 236.506 186.149 236.506 185.041V165.629C236.506 164.519 235.601 163.621 234.49 163.629L195.965 163.925L189.965 163.971V161.932V161.886V160.988V158.42C189.965 158.268 189.949 158.122 189.919 157.983C189.62 156.601 187.93 155.912 186.736 156.842L184.71 158.42L184.001 158.972L183.965 159ZM183.965 166.604L172.858 175.253L183.854 183.533V180.8L189.883 180.829L230.506 181.022V169.66L190.011 169.971L183.965 170.017V166.604ZM163.73 119.446C162.554 120.614 160.655 120.608 159.487 119.433C158.319 118.257 158.325 116.358 159.501 115.19L196.477 78.4491C197.653 77.2812 199.552 77.2873 200.72 78.4626C201.888 79.6379 201.882 81.5374 200.706 82.7052L163.73 119.446Z" fill="black"/>
</svg>
