<svg width="22" height="16" viewBox="0 0 22 16" fill="none" xmlns="http://www.w3.org/2000/svg">
<path d="M11 1C5.48099 1 1 5.51308 1 11.0639C1 12.6629 1.37665 14.1739 2.03693 15.517C2.07394 15.5931 2.13144 15.6573 2.20296 15.7025C2.27447 15.7477 2.35718 15.772 2.44176 15.7727H19.5582C19.6428 15.772 19.7255 15.7477 19.797 15.7025C19.8686 15.6573 19.9261 15.5931 19.9631 15.517C20.6233 14.1739 21 12.6629 21 11.0639C21 5.51308 16.519 1 11 1ZM11 1.90909C16.0244 1.90909 20.0909 6.00116 20.0909 11.0639C20.0909 12.4254 19.7888 13.7033 19.2599 14.8636H14.1818C14.1789 13.5629 13.3903 12.4516 12.2713 11.9588L14.8281 6.17756C14.861 6.10466 14.8741 6.02437 14.8661 5.94479C14.8581 5.86521 14.8292 5.78916 14.7823 5.72431C14.7355 5.65947 14.6724 5.60813 14.5994 5.57548C14.5264 5.54283 14.446 5.53002 14.3665 5.53835C14.2845 5.54612 14.2062 5.57599 14.1399 5.62477C14.0737 5.67355 14.0218 5.73942 13.9901 5.81534L11.3835 11.7102C11.2581 11.6951 11.1293 11.6818 11 11.6818C9.24984 11.6818 7.82214 13.1097 7.81818 14.8636H2.74006C2.2112 13.7033 1.90909 12.4254 1.90909 11.0639C1.90909 6.00116 5.97564 1.90909 11 1.90909ZM10.9503 2.58381C10.8373 2.59622 10.7331 2.6505 10.6582 2.73596C10.5832 2.82141 10.543 2.93183 10.5455 3.04545V4.63636C10.5446 4.6966 10.5557 4.7564 10.5782 4.81229C10.6007 4.86819 10.634 4.91906 10.6763 4.96195C10.7186 5.00485 10.769 5.03891 10.8246 5.06216C10.8801 5.08541 10.9398 5.09738 11 5.09738C11.0602 5.09738 11.1199 5.08541 11.1754 5.06216C11.231 5.03891 11.2814 5.00485 11.3237 4.96195C11.366 4.91906 11.3993 4.86819 11.4218 4.81229C11.4443 4.7564 11.4554 4.6966 11.4545 4.63636V3.04545C11.4559 2.98075 11.4435 2.91649 11.4181 2.85698C11.3926 2.79746 11.3548 2.74407 11.307 2.70036C11.2593 2.65666 11.2028 2.62365 11.1412 2.60355C11.0797 2.58345 11.0146 2.57672 10.9503 2.58381ZM3.94034 7.81108C3.83695 7.81122 3.73668 7.84659 3.6561 7.91138C3.57552 7.97617 3.51943 8.06649 3.49709 8.16744C3.47475 8.26839 3.48749 8.37395 3.53321 8.46669C3.57893 8.55942 3.6549 8.6338 3.74858 8.67756L5.11222 9.35938C5.22053 9.414 5.3461 9.42336 5.46131 9.3854C5.57652 9.34744 5.67194 9.26527 5.72656 9.15696C5.78119 9.04865 5.79055 8.92308 5.75259 8.80786C5.71463 8.69265 5.63246 8.59724 5.52415 8.54261L4.16051 7.8608C4.09247 7.82598 4.01674 7.80888 3.94034 7.81108ZM18.0455 7.81108C17.9738 7.8112 17.9033 7.82823 17.8395 7.8608L16.4759 8.54261C16.3675 8.59724 16.2854 8.69265 16.2474 8.80786C16.2094 8.92308 16.2188 9.04865 16.2734 9.15696C16.3281 9.26527 16.4235 9.34744 16.5387 9.3854C16.6539 9.42336 16.7795 9.414 16.8878 9.35938L18.2514 8.67756C18.3463 8.63336 18.4231 8.55776 18.4687 8.46352C18.5143 8.36928 18.526 8.26218 18.5018 8.16032C18.4776 8.05846 18.419 7.96808 18.3358 7.90445C18.2527 7.84082 18.1501 7.80784 18.0455 7.81108ZM11 12.5909C12.2573 12.5909 13.2689 13.5988 13.2727 14.8636H8.72727C8.73109 13.5981 9.74266 12.5909 11 12.5909Z" fill="#989EA5" stroke="#989EA5" stroke-width="0.25"/>
</svg>
