<svg width="1472" height="2105" viewBox="0 0 1472 2105" fill="none" xmlns="http://www.w3.org/2000/svg">
<mask id="path-1-inside-1_354_72" fill="white">
<path fill-rule="evenodd" clip-rule="evenodd" d="M15 0C6.71573 0 0 6.71573 0 15V60V67.1172V2090C0 2098.28 6.71569 2105 15 2105H1457C1465.28 2105 1472 2098.28 1472 2090V75C1472 66.7157 1465.28 60 1457 60H272.607L249.432 11.3927C246.113 4.43258 239.089 0 231.379 0H15Z"/>
</mask>
<path fill-rule="evenodd" clip-rule="evenodd" d="M15 0C6.71573 0 0 6.71573 0 15V60V67.1172V2090C0 2098.28 6.71569 2105 15 2105H1457C1465.28 2105 1472 2098.28 1472 2090V75C1472 66.7157 1465.28 60 1457 60H272.607L249.432 11.3927C246.113 4.43258 239.089 0 231.379 0H15Z" fill="white"/>
<path d="M272.607 60L271.704 60.4304L271.976 61H272.607V60ZM249.432 11.3927L248.529 11.8231L249.432 11.3927ZM1 15C1 7.26801 7.26801 1 15 1V-1C6.16344 -1 -1 6.16344 -1 15H1ZM1 60V15H-1V60H1ZM1 67.1172V60H-1V67.1172H1ZM1 2090V67.1172H-1V2090H1ZM15 2104C7.26798 2104 1 2097.73 1 2090H-1C-1 2098.84 6.16339 2106 15 2106V2104ZM1457 2104H15V2106H1457V2104ZM1471 2090C1471 2097.73 1464.73 2104 1457 2104V2106C1465.84 2106 1473 2098.84 1473 2090H1471ZM1471 75V2090H1473V75H1471ZM1457 61C1464.73 61 1471 67.268 1471 75H1473C1473 66.1634 1465.84 59 1457 59V61ZM272.607 61H1457V59H272.607V61ZM248.529 11.8231L271.704 60.4304L273.509 59.5696L250.334 10.9623L248.529 11.8231ZM231.379 1C238.704 1 245.377 5.21095 248.529 11.8231L250.334 10.9623C246.85 3.65421 239.475 -1 231.379 -1V1ZM15 1H231.379V-1H15V1Z" fill="#E7EAEE" mask="url(#path-1-inside-1_354_72)"/>
</svg>
