<svg width="33" height="15" viewBox="0 0 33 15" fill="none" xmlns="http://www.w3.org/2000/svg">
<rect x="1" y="1" width="31" height="13" rx="4" stroke="black" stroke-width="2"/>
<path d="M7.89 9.45H4.85L4.29 11H3.33L5.85 4.07H6.9L9.41 11H8.45L7.89 9.45ZM7.63 8.71L6.37 5.19L5.11 8.71H7.63ZM12.6783 4.03C13.4383 4.03 14.0949 4.17333 14.6483 4.46C15.2083 4.74 15.6349 5.14333 15.9283 5.67C16.2283 6.19667 16.3783 6.81667 16.3783 7.53C16.3783 8.24333 16.2283 8.86333 15.9283 9.39C15.6349 9.91 15.2083 10.31 14.6483 10.59C14.0949 10.8633 13.4383 11 12.6783 11H10.5083V4.03H12.6783ZM12.6783 10.25C13.5783 10.25 14.2649 10.0133 14.7383 9.54C15.2116 9.06 15.4483 8.39 15.4483 7.53C15.4483 6.66333 15.2083 5.98667 14.7283 5.5C14.2549 5.01333 13.5716 4.77 12.6783 4.77H11.4183V10.25H12.6783ZM21.6986 9.45H18.6586L18.0986 11H17.1386L19.6586 4.07H20.7086L23.2186 11H22.2586L21.6986 9.45ZM21.4386 8.71L20.1786 5.19L18.9186 8.71H21.4386ZM26.5269 11.07C26.0669 11.07 25.6535 10.99 25.2869 10.83C24.9269 10.6633 24.6435 10.4367 24.4369 10.15C24.2302 9.85667 24.1235 9.52 24.1169 9.14H25.0869C25.1202 9.46667 25.2535 9.74333 25.4869 9.97C25.7269 10.19 26.0735 10.3 26.5269 10.3C26.9602 10.3 27.3002 10.1933 27.5469 9.98C27.8002 9.76 27.9269 9.48 27.9269 9.14C27.9269 8.87333 27.8535 8.65667 27.7069 8.49C27.5602 8.32333 27.3769 8.19667 27.1569 8.11C26.9369 8.02333 26.6402 7.93 26.2669 7.83C25.8069 7.71 25.4369 7.59 25.1569 7.47C24.8835 7.35 24.6469 7.16333 24.4469 6.91C24.2535 6.65 24.1569 6.30333 24.1569 5.87C24.1569 5.49 24.2535 5.15333 24.4469 4.86C24.6402 4.56667 24.9102 4.34 25.2569 4.18C25.6102 4.02 26.0135 3.94 26.4669 3.94C27.1202 3.94 27.6535 4.10333 28.0669 4.43C28.4869 4.75667 28.7235 5.19 28.7769 5.73H27.7769C27.7435 5.46333 27.6035 5.23 27.3569 5.03C27.1102 4.82333 26.7835 4.72 26.3769 4.72C25.9969 4.72 25.6869 4.82 25.4469 5.02C25.2069 5.21333 25.0869 5.48667 25.0869 5.84C25.0869 6.09333 25.1569 6.3 25.2969 6.46C25.4435 6.62 25.6202 6.74333 25.8269 6.83C26.0402 6.91 26.3369 7.00333 26.7169 7.11C27.1769 7.23667 27.5469 7.36333 27.8269 7.49C28.1069 7.61 28.3469 7.8 28.5469 8.06C28.7469 8.31333 28.8469 8.66 28.8469 9.1C28.8469 9.44 28.7569 9.76 28.5769 10.06C28.3969 10.36 28.1302 10.6033 27.7769 10.79C27.4235 10.9767 27.0069 11.07 26.5269 11.07Z" fill="black"/>
</svg>
