<svg width="620" height="478" viewBox="0 0 620 478" fill="none" xmlns="http://www.w3.org/2000/svg">
<rect y="0.352478" width="620.005" height="477.648" fill="white"/>
<path d="M63.3397 405.154C63.3397 403.319 63.6384 401.89 64.2357 400.866C64.8331 399.831 65.8784 399.314 67.3717 399.314C68.8544 399.314 69.8944 399.831 70.4917 400.866C71.0891 401.89 71.3877 403.319 71.3877 405.154C71.3877 407.02 71.0891 408.471 70.4917 409.506C69.8944 410.54 68.8544 411.058 67.3717 411.058C65.8784 411.058 64.8331 410.54 64.2357 409.506C63.6384 408.471 63.3397 407.02 63.3397 405.154ZM69.9477 405.154C69.9477 404.226 69.8837 403.442 69.7557 402.802C69.6384 402.151 69.3877 401.628 69.0037 401.234C68.6304 400.839 68.0864 400.642 67.3717 400.642C66.6464 400.642 66.0917 400.839 65.7077 401.234C65.3344 401.628 65.0837 402.151 64.9557 402.802C64.8384 403.442 64.7797 404.226 64.7797 405.154C64.7797 406.114 64.8384 406.919 64.9557 407.57C65.0837 408.22 65.3344 408.743 65.7077 409.138C66.0917 409.532 66.6464 409.73 67.3717 409.73C68.0864 409.73 68.6304 409.532 69.0037 409.138C69.3877 408.743 69.6384 408.22 69.7557 407.57C69.8837 406.919 69.9477 406.114 69.9477 405.154Z" fill="#BAB5B5"/>
<path d="M63.0482 326.544V325.216H66.0562V336.784H64.5842V326.544H63.0482Z" fill="#BAB5B5"/>
<path d="M63.1032 253.227C64.2039 252.343 65.0662 251.62 65.6902 251.056C66.3142 250.484 66.8385 249.891 67.2632 249.275C67.6965 248.651 67.9132 248.04 67.9132 247.442C67.9132 246.879 67.7745 246.437 67.4972 246.116C67.2285 245.787 66.7909 245.622 66.1842 245.622C65.5949 245.622 65.1355 245.809 64.8062 246.181C64.4855 246.545 64.3122 247.035 64.2862 247.65H63.1422C63.1769 246.68 63.4715 245.93 64.0262 245.401C64.5809 244.873 65.2959 244.608 66.1712 244.608C67.0639 244.608 67.7702 244.855 68.2902 245.349C68.8189 245.843 69.0832 246.524 69.0832 247.39C69.0832 248.11 68.8665 248.812 68.4332 249.496C68.0085 250.172 67.5232 250.77 66.9772 251.29C66.4312 251.802 65.7335 252.4 64.8842 253.084H69.3562V254.072H63.1032V253.227Z" fill="#BAB5B5"/>
<path d="M61.6413 167.123C61.716 166.142 62.0947 165.374 62.7773 164.819C63.46 164.265 64.3453 163.987 65.4333 163.987C66.1587 163.987 66.7827 164.121 67.3053 164.387C67.8387 164.643 68.2387 164.995 68.5053 165.443C68.7827 165.891 68.9213 166.398 68.9213 166.963C68.9213 167.625 68.7293 168.195 68.3453 168.675C67.972 169.155 67.4813 169.465 66.8733 169.603V169.683C67.5667 169.854 68.116 170.19 68.5213 170.691C68.9267 171.193 69.1293 171.849 69.1293 172.659C69.1293 173.267 68.9907 173.817 68.7133 174.307C68.436 174.787 68.02 175.166 67.4653 175.443C66.9107 175.721 66.244 175.859 65.4653 175.859C64.3347 175.859 63.4067 175.566 62.6813 174.979C61.956 174.382 61.5507 173.539 61.4653 172.451H62.8733C62.948 173.091 63.2093 173.614 63.6573 174.019C64.1053 174.425 64.7027 174.627 65.4493 174.627C66.196 174.627 66.7613 174.435 67.1453 174.051C67.54 173.657 67.7373 173.15 67.7373 172.531C67.7373 171.731 67.4707 171.155 66.9373 170.803C66.404 170.451 65.5987 170.275 64.5213 170.275H64.1533V169.059H64.5373C65.5187 169.049 66.26 168.889 66.7613 168.579C67.2627 168.259 67.5133 167.769 67.5133 167.107C67.5133 166.542 67.3267 166.089 66.9533 165.747C66.5907 165.406 66.068 165.235 65.3853 165.235C64.724 165.235 64.1907 165.406 63.7853 165.747C63.38 166.089 63.14 166.547 63.0653 167.123H61.6413Z" fill="#BAB5B5"/>
<path d="M59.5625 88.2286V87.1246L65.1785 79.3486H66.9225V86.9646H68.5225V88.2286H66.9225V90.8046H65.4825V88.2286H59.5625ZM65.5465 80.8686L61.2425 86.9646H65.5465V80.8686Z" fill="#BAB5B5"/>
<path d="M67.2905 16.9932H61.6745V20.6412C61.9198 20.2998 62.2825 20.0225 62.7625 19.8092C63.2425 19.5852 63.7598 19.4732 64.3145 19.4732C65.1998 19.4732 65.9198 19.6598 66.4745 20.0332C67.0291 20.3958 67.4238 20.8705 67.6585 21.4572C67.9038 22.0332 68.0265 22.6465 68.0265 23.2972C68.0265 24.0652 67.8825 24.7532 67.5945 25.3612C67.3065 25.9692 66.8638 26.4492 66.2665 26.8012C65.6798 27.1532 64.9491 27.3292 64.0745 27.3292C62.9545 27.3292 62.0478 27.0412 61.3545 26.4652C60.6611 25.8892 60.2398 25.1212 60.0905 24.1612H61.5145C61.6531 24.7692 61.9465 25.2438 62.3945 25.5852C62.8425 25.9265 63.4078 26.0972 64.0905 26.0972C64.9331 26.0972 65.5678 25.8465 65.9945 25.3452C66.4211 24.8332 66.6345 24.1612 66.6345 23.3292C66.6345 22.4972 66.4211 21.8572 65.9945 21.4092C65.5678 20.9505 64.9385 20.7212 64.1065 20.7212C63.5411 20.7212 63.0451 20.8598 62.6185 21.1372C62.2025 21.4038 61.8985 21.7718 61.7065 22.2412H60.3305V15.7132H67.2905V16.9932Z" fill="#BAB5B5"/>
<path d="M97.7147 423.915C96.68 423.915 95.736 423.675 94.8827 423.195C94.0294 422.704 93.352 422.027 92.8507 421.163C92.36 420.288 92.1147 419.307 92.1147 418.219C92.1147 417.131 92.36 416.155 92.8507 415.291C93.352 414.416 94.0294 413.739 94.8827 413.259C95.736 412.768 96.68 412.523 97.7147 412.523C98.76 412.523 99.7094 412.768 100.563 413.259C101.416 413.739 102.088 414.411 102.579 415.275C103.069 416.139 103.315 417.12 103.315 418.219C103.315 419.317 103.069 420.299 102.579 421.163C102.088 422.027 101.416 422.704 100.563 423.195C99.7094 423.675 98.76 423.915 97.7147 423.915ZM97.7147 422.651C98.4934 422.651 99.192 422.469 99.8107 422.107C100.44 421.744 100.931 421.227 101.283 420.555C101.645 419.883 101.827 419.104 101.827 418.219C101.827 417.323 101.645 416.544 101.283 415.883C100.931 415.211 100.445 414.693 99.8267 414.331C99.208 413.968 98.504 413.787 97.7147 413.787C96.9254 413.787 96.2214 413.968 95.6027 414.331C94.984 414.693 94.4934 415.211 94.1307 415.883C93.7787 416.544 93.6027 417.323 93.6027 418.219C93.6027 419.104 93.7787 419.883 94.1307 420.555C94.4934 421.227 94.984 421.744 95.6027 422.107C96.232 422.469 96.936 422.651 97.7147 422.651ZM104.693 419.403C104.693 418.496 104.874 417.707 105.237 417.035C105.599 416.352 106.101 415.824 106.741 415.451C107.391 415.077 108.133 414.891 108.965 414.891C110.042 414.891 110.927 415.152 111.621 415.675C112.325 416.197 112.789 416.923 113.013 417.851H111.445C111.295 417.317 111.002 416.896 110.565 416.587C110.138 416.277 109.605 416.123 108.965 416.123C108.133 416.123 107.461 416.411 106.949 416.987C106.437 417.552 106.181 418.357 106.181 419.403C106.181 420.459 106.437 421.275 106.949 421.851C107.461 422.427 108.133 422.715 108.965 422.715C109.605 422.715 110.138 422.565 110.565 422.267C110.991 421.968 111.285 421.541 111.445 420.987H113.013C112.778 421.883 112.309 422.603 111.605 423.147C110.901 423.68 110.021 423.947 108.965 423.947C108.133 423.947 107.391 423.76 106.741 423.387C106.101 423.013 105.599 422.485 105.237 421.803C104.874 421.12 104.693 420.32 104.693 419.403ZM116.732 416.235V421.403C116.732 421.829 116.822 422.133 117.004 422.315C117.185 422.485 117.5 422.571 117.948 422.571H119.02V423.803H117.708C116.897 423.803 116.289 423.616 115.884 423.243C115.478 422.869 115.276 422.256 115.276 421.403V416.235H114.14V415.035H115.276V412.827H116.732V415.035H119.02V416.235H116.732ZM121.008 412.651H122.624L121.088 416.283H120.064L121.008 412.651ZM128.133 422.635C129.488 421.547 130.549 420.656 131.317 419.963C132.085 419.259 132.731 418.528 133.253 417.771C133.787 417.003 134.053 416.251 134.053 415.515C134.053 414.821 133.883 414.277 133.541 413.883C133.211 413.477 132.672 413.275 131.925 413.275C131.2 413.275 130.635 413.504 130.229 413.963C129.835 414.411 129.621 415.013 129.589 415.771H128.181C128.224 414.576 128.587 413.653 129.269 413.003C129.952 412.352 130.832 412.027 131.909 412.027C133.008 412.027 133.877 412.331 134.517 412.939C135.168 413.547 135.493 414.384 135.493 415.451C135.493 416.336 135.227 417.2 134.693 418.043C134.171 418.875 133.573 419.611 132.901 420.251C132.229 420.88 131.371 421.616 130.325 422.459H135.829V423.675H128.133V422.635ZM137.48 415.147C137.555 414.165 137.934 413.397 138.616 412.843C139.299 412.288 140.184 412.011 141.272 412.011C141.998 412.011 142.622 412.144 143.144 412.411C143.678 412.667 144.078 413.019 144.344 413.467C144.622 413.915 144.76 414.421 144.76 414.987C144.76 415.648 144.568 416.219 144.184 416.699C143.811 417.179 143.32 417.488 142.712 417.627V417.707C143.406 417.877 143.955 418.213 144.36 418.715C144.766 419.216 144.968 419.872 144.968 420.683C144.968 421.291 144.83 421.84 144.552 422.331C144.275 422.811 143.859 423.189 143.304 423.467C142.75 423.744 142.083 423.883 141.304 423.883C140.174 423.883 139.246 423.589 138.52 423.003C137.795 422.405 137.39 421.563 137.304 420.475H138.712C138.787 421.115 139.048 421.637 139.496 422.043C139.944 422.448 140.542 422.651 141.288 422.651C142.035 422.651 142.6 422.459 142.984 422.075C143.379 421.68 143.576 421.173 143.576 420.555C143.576 419.755 143.31 419.179 142.776 418.827C142.243 418.475 141.438 418.299 140.36 418.299H139.992V417.083H140.376C141.358 417.072 142.099 416.912 142.6 416.603C143.102 416.283 143.352 415.792 143.352 415.131C143.352 414.565 143.166 414.112 142.792 413.771C142.43 413.429 141.907 413.259 141.224 413.259C140.563 413.259 140.03 413.429 139.624 413.771C139.219 414.112 138.979 414.571 138.904 415.147H137.48Z" fill="#BAB5B5"/>
<path d="M196.068 423.803H194.612L188.756 414.923V423.803H187.3V412.635H188.756L194.612 421.499V412.635H196.068V423.803ZM202.374 423.947C201.552 423.947 200.806 423.76 200.134 423.387C199.472 423.013 198.95 422.485 198.566 421.803C198.192 421.109 198.006 420.309 198.006 419.403C198.006 418.507 198.198 417.717 198.582 417.035C198.976 416.341 199.51 415.813 200.182 415.451C200.854 415.077 201.606 414.891 202.438 414.891C203.27 414.891 204.022 415.077 204.694 415.451C205.366 415.813 205.894 416.336 206.278 417.019C206.672 417.701 206.87 418.496 206.87 419.403C206.87 420.309 206.667 421.109 206.262 421.803C205.867 422.485 205.328 423.013 204.646 423.387C203.963 423.76 203.206 423.947 202.374 423.947ZM202.374 422.667C202.896 422.667 203.387 422.544 203.846 422.299C204.304 422.053 204.672 421.685 204.95 421.195C205.238 420.704 205.382 420.107 205.382 419.403C205.382 418.699 205.243 418.101 204.966 417.611C204.688 417.12 204.326 416.757 203.878 416.523C203.43 416.277 202.944 416.155 202.422 416.155C201.888 416.155 201.398 416.277 200.95 416.523C200.512 416.757 200.16 417.12 199.894 417.611C199.627 418.101 199.494 418.699 199.494 419.403C199.494 420.117 199.622 420.72 199.878 421.211C200.144 421.701 200.496 422.069 200.934 422.315C201.371 422.549 201.851 422.667 202.374 422.667ZM212.048 422.459L214.768 415.035H216.32L212.88 423.803H211.184L207.744 415.035H209.312L212.048 422.459ZM217.977 412.651H219.593L218.057 416.283H217.033L217.977 412.651ZM225.102 422.635C226.457 421.547 227.518 420.656 228.286 419.963C229.054 419.259 229.7 418.528 230.222 417.771C230.756 417.003 231.022 416.251 231.022 415.515C231.022 414.821 230.852 414.277 230.51 413.883C230.18 413.477 229.641 413.275 228.894 413.275C228.169 413.275 227.604 413.504 227.198 413.963C226.804 414.411 226.59 415.013 226.558 415.771H225.15C225.193 414.576 225.556 413.653 226.238 413.003C226.921 412.352 227.801 412.027 228.878 412.027C229.977 412.027 230.846 412.331 231.486 412.939C232.137 413.547 232.462 414.384 232.462 415.451C232.462 416.336 232.196 417.2 231.662 418.043C231.14 418.875 230.542 419.611 229.87 420.251C229.198 420.88 228.34 421.616 227.294 422.459H232.798V423.675H225.102V422.635ZM234.449 415.147C234.524 414.165 234.903 413.397 235.585 412.843C236.268 412.288 237.153 412.011 238.241 412.011C238.967 412.011 239.591 412.144 240.113 412.411C240.647 412.667 241.047 413.019 241.313 413.467C241.591 413.915 241.729 414.421 241.729 414.987C241.729 415.648 241.537 416.219 241.153 416.699C240.78 417.179 240.289 417.488 239.681 417.627V417.707C240.375 417.877 240.924 418.213 241.329 418.715C241.735 419.216 241.937 419.872 241.937 420.683C241.937 421.291 241.799 421.84 241.521 422.331C241.244 422.811 240.828 423.189 240.273 423.467C239.719 423.744 239.052 423.883 238.273 423.883C237.143 423.883 236.215 423.589 235.489 423.003C234.764 422.405 234.359 421.563 234.273 420.475H235.681C235.756 421.115 236.017 421.637 236.465 422.043C236.913 422.448 237.511 422.651 238.257 422.651C239.004 422.651 239.569 422.459 239.953 422.075C240.348 421.68 240.545 421.173 240.545 420.555C240.545 419.755 240.279 419.179 239.745 418.827C239.212 418.475 238.407 418.299 237.329 418.299H236.961V417.083H237.345C238.327 417.072 239.068 416.912 239.569 416.603C240.071 416.283 240.321 415.792 240.321 415.131C240.321 414.565 240.135 414.112 239.761 413.771C239.399 413.429 238.876 413.259 238.193 413.259C237.532 413.259 236.999 413.429 236.593 413.771C236.188 414.112 235.948 414.571 235.873 415.147H234.449Z" fill="#BAB5B5"/>
<path d="M305.297 412.396C306.513 412.396 307.564 412.625 308.449 413.084C309.345 413.532 310.028 414.177 310.497 415.02C310.977 415.863 311.217 416.855 311.217 417.996C311.217 419.137 310.977 420.129 310.497 420.972C310.028 421.804 309.345 422.444 308.449 422.892C307.564 423.329 306.513 423.548 305.297 423.548H301.825V412.396H305.297ZM305.297 422.348C306.737 422.348 307.836 421.969 308.593 421.212C309.35 420.444 309.729 419.372 309.729 417.996C309.729 416.609 309.345 415.527 308.577 414.748C307.82 413.969 306.726 413.58 305.297 413.58H303.281V422.348H305.297ZM321.138 418.828C321.138 419.105 321.122 419.399 321.09 419.708H314.082C314.135 420.572 314.428 421.249 314.962 421.74C315.506 422.22 316.162 422.46 316.93 422.46C317.559 422.46 318.082 422.316 318.498 422.028C318.924 421.729 319.223 421.335 319.394 420.844H320.962C320.727 421.687 320.258 422.375 319.554 422.908C318.85 423.431 317.975 423.692 316.93 423.692C316.098 423.692 315.351 423.505 314.69 423.132C314.039 422.759 313.527 422.231 313.154 421.548C312.78 420.855 312.594 420.055 312.594 419.148C312.594 418.241 312.775 417.447 313.138 416.764C313.5 416.081 314.007 415.559 314.658 415.196C315.319 414.823 316.076 414.636 316.93 414.636C317.762 414.636 318.498 414.817 319.138 415.18C319.778 415.543 320.268 416.044 320.61 416.684C320.962 417.313 321.138 418.028 321.138 418.828ZM319.634 418.524C319.634 417.969 319.511 417.495 319.266 417.1C319.02 416.695 318.684 416.391 318.258 416.188C317.842 415.975 317.378 415.868 316.866 415.868C316.13 415.868 315.5 416.103 314.978 416.572C314.466 417.041 314.172 417.692 314.098 418.524H319.634ZM322.515 419.148C322.515 418.241 322.697 417.452 323.059 416.78C323.422 416.097 323.923 415.569 324.563 415.196C325.214 414.823 325.955 414.636 326.787 414.636C327.865 414.636 328.75 414.897 329.443 415.42C330.147 415.943 330.611 416.668 330.835 417.596H329.267C329.118 417.063 328.825 416.641 328.387 416.332C327.961 416.023 327.427 415.868 326.787 415.868C325.955 415.868 325.283 416.156 324.771 416.732C324.259 417.297 324.003 418.103 324.003 419.148C324.003 420.204 324.259 421.02 324.771 421.596C325.283 422.172 325.955 422.46 326.787 422.46C327.427 422.46 327.961 422.311 328.387 422.012C328.814 421.713 329.107 421.287 329.267 420.732H330.835C330.601 421.628 330.131 422.348 329.427 422.892C328.723 423.425 327.843 423.692 326.787 423.692C325.955 423.692 325.214 423.505 324.563 423.132C323.923 422.759 323.422 422.231 323.059 421.548C322.697 420.865 322.515 420.065 322.515 419.148ZM333.002 412.396H334.618L333.082 416.028H332.058L333.002 412.396ZM344.393 422.38C345.748 421.292 346.809 420.401 347.577 419.708C348.345 419.004 348.991 418.273 349.513 417.516C350.047 416.748 350.313 415.996 350.313 415.26C350.313 414.567 350.143 414.023 349.801 413.628C349.471 413.223 348.932 413.02 348.185 413.02C347.46 413.02 346.895 413.249 346.489 413.708C346.095 414.156 345.881 414.759 345.849 415.516H344.441C344.484 414.321 344.847 413.399 345.529 412.748C346.212 412.097 347.092 411.772 348.169 411.772C349.268 411.772 350.137 412.076 350.777 412.684C351.428 413.292 351.753 414.129 351.753 415.196C351.753 416.081 351.487 416.945 350.953 417.788C350.431 418.62 349.833 419.356 349.161 419.996C348.489 420.625 347.631 421.361 346.585 422.204H352.089V423.42H344.393V422.38ZM353.741 414.892C353.815 413.911 354.194 413.143 354.877 412.588C355.559 412.033 356.445 411.756 357.533 411.756C358.258 411.756 358.882 411.889 359.405 412.156C359.938 412.412 360.338 412.764 360.605 413.212C360.882 413.66 361.021 414.167 361.021 414.732C361.021 415.393 360.829 415.964 360.445 416.444C360.071 416.924 359.581 417.233 358.973 417.372V417.452C359.666 417.623 360.215 417.959 360.621 418.46C361.026 418.961 361.229 419.617 361.229 420.428C361.229 421.036 361.09 421.585 360.813 422.076C360.535 422.556 360.119 422.935 359.565 423.212C359.01 423.489 358.343 423.628 357.565 423.628C356.434 423.628 355.506 423.335 354.781 422.748C354.055 422.151 353.65 421.308 353.565 420.22H354.973C355.047 420.86 355.309 421.383 355.757 421.788C356.205 422.193 356.802 422.396 357.549 422.396C358.295 422.396 358.861 422.204 359.245 421.82C359.639 421.425 359.837 420.919 359.837 420.3C359.837 419.5 359.57 418.924 359.037 418.572C358.503 418.22 357.698 418.044 356.621 418.044H356.253V416.828H356.637C357.618 416.817 358.359 416.657 358.861 416.348C359.362 416.028 359.613 415.537 359.613 414.876C359.613 414.311 359.426 413.857 359.053 413.516C358.69 413.175 358.167 413.004 357.485 413.004C356.823 413.004 356.29 413.175 355.885 413.516C355.479 413.857 355.239 414.316 355.165 414.892H353.741Z" fill="#BAB5B5"/>
<path d="M411.39 413.29V421.53C411.39 422.448 411.108 423.184 410.542 423.738C409.977 424.282 409.23 424.554 408.302 424.554C407.364 424.554 406.612 424.277 406.046 423.722C405.481 423.157 405.198 422.389 405.198 421.418H406.654C406.665 421.962 406.804 422.405 407.07 422.746C407.348 423.088 407.758 423.258 408.302 423.258C408.846 423.258 409.252 423.098 409.518 422.778C409.785 422.448 409.918 422.032 409.918 421.53V413.29H411.39ZM413.715 420.026C413.715 419.13 413.896 418.346 414.259 417.674C414.621 416.992 415.117 416.464 415.747 416.09C416.387 415.717 417.096 415.53 417.875 415.53C418.643 415.53 419.309 415.696 419.875 416.026C420.44 416.357 420.861 416.773 421.139 417.274V415.674H422.611V424.442H421.139V422.81C420.851 423.322 420.419 423.749 419.843 424.09C419.277 424.421 418.616 424.586 417.859 424.586C417.08 424.586 416.376 424.394 415.747 424.01C415.117 423.626 414.621 423.088 414.259 422.394C413.896 421.701 413.715 420.912 413.715 420.026ZM421.139 420.042C421.139 419.381 421.005 418.805 420.739 418.314C420.472 417.824 420.109 417.45 419.651 417.194C419.203 416.928 418.707 416.794 418.163 416.794C417.619 416.794 417.123 416.922 416.675 417.178C416.227 417.434 415.869 417.808 415.603 418.298C415.336 418.789 415.203 419.365 415.203 420.026C415.203 420.698 415.336 421.285 415.603 421.786C415.869 422.277 416.227 422.656 416.675 422.922C417.123 423.178 417.619 423.306 418.163 423.306C418.707 423.306 419.203 423.178 419.651 422.922C420.109 422.656 420.472 422.277 420.739 421.786C421.005 421.285 421.139 420.704 421.139 420.042ZM429.343 415.514C430.41 415.514 431.274 415.84 431.935 416.49C432.597 417.13 432.927 418.058 432.927 419.274V424.442H431.487V419.482C431.487 418.608 431.269 417.941 430.831 417.482C430.394 417.013 429.797 416.778 429.039 416.778C428.271 416.778 427.658 417.018 427.199 417.498C426.751 417.978 426.527 418.677 426.527 419.594V424.442H425.071V415.674H426.527V416.922C426.815 416.474 427.205 416.128 427.695 415.882C428.197 415.637 428.746 415.514 429.343 415.514ZM435.53 413.29H437.146L435.61 416.922H434.586L435.53 413.29ZM446.921 423.274C448.275 422.186 449.337 421.296 450.105 420.602C450.873 419.898 451.518 419.168 452.041 418.41C452.574 417.642 452.841 416.89 452.841 416.154C452.841 415.461 452.67 414.917 452.329 414.522C451.998 414.117 451.459 413.914 450.713 413.914C449.987 413.914 449.422 414.144 449.017 414.602C448.622 415.05 448.409 415.653 448.377 416.41H446.969C447.011 415.216 447.374 414.293 448.057 413.642C448.739 412.992 449.619 412.666 450.697 412.666C451.795 412.666 452.665 412.97 453.305 413.578C453.955 414.186 454.281 415.024 454.281 416.09C454.281 416.976 454.014 417.84 453.481 418.682C452.958 419.514 452.361 420.25 451.689 420.89C451.017 421.52 450.158 422.256 449.113 423.098H454.617V424.314H446.921V423.274ZM455.948 421.866V420.762L461.564 412.986H463.308V420.602H464.908V421.866H463.308V424.442H461.868V421.866H455.948ZM461.932 414.506L457.628 420.602H461.932V414.506Z" fill="#BAB5B5"/>
<path d="M529.044 412.396V413.58H524.196V417.34H528.132V418.524H524.196V423.548H522.74V412.396H529.044ZM538.802 418.828C538.802 419.105 538.786 419.399 538.754 419.708H531.746C531.8 420.572 532.093 421.249 532.626 421.74C533.17 422.22 533.826 422.46 534.594 422.46C535.224 422.46 535.746 422.316 536.162 422.028C536.589 421.729 536.888 421.335 537.058 420.844H538.626C538.392 421.687 537.922 422.375 537.218 422.908C536.514 423.431 535.64 423.692 534.594 423.692C533.762 423.692 533.016 423.505 532.354 423.132C531.704 422.759 531.192 422.231 530.818 421.548C530.445 420.855 530.258 420.055 530.258 419.148C530.258 418.241 530.44 417.447 530.802 416.764C531.165 416.081 531.672 415.559 532.322 415.196C532.984 414.823 533.741 414.636 534.594 414.636C535.426 414.636 536.162 414.817 536.802 415.18C537.442 415.543 537.933 416.044 538.274 416.684C538.626 417.313 538.802 418.028 538.802 418.828ZM537.298 418.524C537.298 417.969 537.176 417.495 536.93 417.1C536.685 416.695 536.349 416.391 535.922 416.188C535.506 415.975 535.042 415.868 534.53 415.868C533.794 415.868 533.165 416.103 532.642 416.572C532.13 417.041 531.837 417.692 531.762 418.524H537.298ZM542.18 416.412C542.479 415.889 542.916 415.463 543.492 415.132C544.068 414.801 544.724 414.636 545.46 414.636C546.249 414.636 546.959 414.823 547.588 415.196C548.217 415.569 548.713 416.097 549.076 416.78C549.439 417.452 549.62 418.236 549.62 419.132C549.62 420.017 549.439 420.807 549.076 421.5C548.713 422.193 548.212 422.732 547.572 423.116C546.943 423.5 546.239 423.692 545.46 423.692C544.703 423.692 544.036 423.527 543.46 423.196C542.895 422.865 542.468 422.444 542.18 421.932V423.548H540.724V411.708H542.18V416.412ZM548.132 419.132C548.132 418.471 547.999 417.895 547.732 417.404C547.465 416.913 547.103 416.54 546.644 416.284C546.196 416.028 545.7 415.9 545.156 415.9C544.623 415.9 544.127 416.033 543.668 416.3C543.22 416.556 542.857 416.935 542.58 417.436C542.313 417.927 542.18 418.497 542.18 419.148C542.18 419.809 542.313 420.391 542.58 420.892C542.857 421.383 543.22 421.761 543.668 422.028C544.127 422.284 544.623 422.412 545.156 422.412C545.7 422.412 546.196 422.284 546.644 422.028C547.103 421.761 547.465 421.383 547.732 420.892C547.999 420.391 548.132 419.804 548.132 419.132ZM551.761 412.396H553.377L551.841 416.028H550.817L551.761 412.396ZM563.152 422.38C564.507 421.292 565.568 420.401 566.336 419.708C567.104 419.004 567.749 418.273 568.272 417.516C568.805 416.748 569.072 415.996 569.072 415.26C569.072 414.567 568.901 414.023 568.56 413.628C568.229 413.223 567.691 413.02 566.944 413.02C566.219 413.02 565.653 413.249 565.248 413.708C564.853 414.156 564.64 414.759 564.608 415.516H563.2C563.243 414.321 563.605 413.399 564.288 412.748C564.971 412.097 565.851 411.772 566.928 411.772C568.027 411.772 568.896 412.076 569.536 412.684C570.187 413.292 570.512 414.129 570.512 415.196C570.512 416.081 570.245 416.945 569.712 417.788C569.189 418.62 568.592 419.356 567.92 419.996C567.248 420.625 566.389 421.361 565.344 422.204H570.848V423.42H563.152V422.38ZM572.179 420.972V419.868L577.795 412.092H579.539V419.708H581.139V420.972H579.539V423.548H578.099V420.972H572.179ZM578.163 413.612L573.859 419.708H578.163V413.612Z" fill="#BAB5B5"/>
<path d="M188.25 226H183.7L165.4 198.25V226H160.85V191.1H165.4L183.7 218.8V191.1H188.25V226ZM207.956 226.45C205.39 226.45 203.056 225.867 200.956 224.7C198.89 223.533 197.256 221.883 196.056 219.75C194.89 217.583 194.306 215.083 194.306 212.25C194.306 209.45 194.906 206.983 196.106 204.85C197.34 202.683 199.006 201.033 201.106 199.9C203.206 198.733 205.556 198.15 208.156 198.15C210.756 198.15 213.106 198.733 215.206 199.9C217.306 201.033 218.956 202.667 220.156 204.8C221.39 206.933 222.006 209.417 222.006 212.25C222.006 215.083 221.373 217.583 220.106 219.75C218.873 221.883 217.19 223.533 215.056 224.7C212.923 225.867 210.556 226.45 207.956 226.45ZM207.956 222.45C209.59 222.45 211.123 222.067 212.556 221.3C213.99 220.533 215.14 219.383 216.006 217.85C216.906 216.317 217.356 214.45 217.356 212.25C217.356 210.05 216.923 208.183 216.056 206.65C215.19 205.117 214.056 203.983 212.656 203.25C211.256 202.483 209.74 202.1 208.106 202.1C206.44 202.1 204.906 202.483 203.506 203.25C202.14 203.983 201.04 205.117 200.206 206.65C199.373 208.183 198.956 210.05 198.956 212.25C198.956 214.483 199.356 216.367 200.156 217.9C200.99 219.433 202.09 220.583 203.456 221.35C204.823 222.083 206.323 222.45 207.956 222.45ZM252.169 191.15C255.969 191.15 259.252 191.867 262.019 193.3C264.819 194.7 266.952 196.717 268.419 199.35C269.919 201.983 270.669 205.083 270.669 208.65C270.669 212.217 269.919 215.317 268.419 217.95C266.952 220.55 264.819 222.55 262.019 223.95C259.252 225.317 255.969 226 252.169 226H241.319V191.15H252.169ZM252.169 222.25C256.669 222.25 260.102 221.067 262.469 218.7C264.835 216.3 266.019 212.95 266.019 208.65C266.019 204.317 264.819 200.933 262.419 198.5C260.052 196.067 256.635 194.85 252.169 194.85H245.869V222.25H252.169ZM274.97 212.2C274.97 209.4 275.537 206.95 276.67 204.85C277.804 202.717 279.354 201.067 281.32 199.9C283.32 198.733 285.537 198.15 287.97 198.15C290.37 198.15 292.454 198.667 294.22 199.7C295.987 200.733 297.304 202.033 298.17 203.6V198.6H302.77V226H298.17V220.9C297.27 222.5 295.92 223.833 294.12 224.9C292.354 225.933 290.287 226.45 287.92 226.45C285.487 226.45 283.287 225.85 281.32 224.65C279.354 223.45 277.804 221.767 276.67 219.6C275.537 217.433 274.97 214.967 274.97 212.2ZM298.17 212.25C298.17 210.183 297.754 208.383 296.92 206.85C296.087 205.317 294.954 204.15 293.52 203.35C292.12 202.517 290.57 202.1 288.87 202.1C287.17 202.1 285.62 202.5 284.22 203.3C282.82 204.1 281.704 205.267 280.87 206.8C280.037 208.333 279.62 210.133 279.62 212.2C279.62 214.3 280.037 216.133 280.87 217.7C281.704 219.233 282.82 220.417 284.22 221.25C285.62 222.05 287.17 222.45 288.87 222.45C290.57 222.45 292.12 222.05 293.52 221.25C294.954 220.417 296.087 219.233 296.92 217.7C297.754 216.133 298.17 214.317 298.17 212.25ZM316.009 202.35V218.5C316.009 219.833 316.293 220.783 316.859 221.35C317.426 221.883 318.409 222.15 319.809 222.15H323.159V226H319.059C316.526 226 314.626 225.417 313.359 224.25C312.093 223.083 311.459 221.167 311.459 218.5V202.35H307.909V198.6H311.459V191.7H316.009V198.6H323.159V202.35H316.009ZM326.972 212.2C326.972 209.4 327.539 206.95 328.672 204.85C329.806 202.717 331.356 201.067 333.322 199.9C335.322 198.733 337.539 198.15 339.972 198.15C342.372 198.15 344.456 198.667 346.222 199.7C347.989 200.733 349.306 202.033 350.172 203.6V198.6H354.772V226H350.172V220.9C349.272 222.5 347.922 223.833 346.122 224.9C344.356 225.933 342.289 226.45 339.922 226.45C337.489 226.45 335.289 225.85 333.322 224.65C331.356 223.45 329.806 221.767 328.672 219.6C327.539 217.433 326.972 214.967 326.972 212.2ZM350.172 212.25C350.172 210.183 349.756 208.383 348.922 206.85C348.089 205.317 346.956 204.15 345.522 203.35C344.122 202.517 342.572 202.1 340.872 202.1C339.172 202.1 337.622 202.5 336.222 203.3C334.822 204.1 333.706 205.267 332.872 206.8C332.039 208.333 331.622 210.133 331.622 212.2C331.622 214.3 332.039 216.133 332.872 217.7C333.706 219.233 334.822 220.417 336.222 221.25C337.622 222.05 339.172 222.45 340.872 222.45C342.572 222.45 344.122 222.05 345.522 221.25C346.956 220.417 348.089 219.233 348.922 217.7C349.756 216.133 350.172 214.317 350.172 212.25ZM395.491 191.15V194.85H380.341V206.6H392.641V210.3H380.341V226H375.791V191.15H395.491ZM412.937 226.45C410.37 226.45 408.037 225.867 405.937 224.7C403.87 223.533 402.237 221.883 401.037 219.75C399.87 217.583 399.287 215.083 399.287 212.25C399.287 209.45 399.887 206.983 401.087 204.85C402.32 202.683 403.987 201.033 406.087 199.9C408.187 198.733 410.537 198.15 413.137 198.15C415.737 198.15 418.087 198.733 420.187 199.9C422.287 201.033 423.937 202.667 425.137 204.8C426.37 206.933 426.987 209.417 426.987 212.25C426.987 215.083 426.353 217.583 425.087 219.75C423.853 221.883 422.17 223.533 420.037 224.7C417.903 225.867 415.537 226.45 412.937 226.45ZM412.937 222.45C414.57 222.45 416.103 222.067 417.537 221.3C418.97 220.533 420.12 219.383 420.987 217.85C421.887 216.317 422.337 214.45 422.337 212.25C422.337 210.05 421.903 208.183 421.037 206.65C420.17 205.117 419.037 203.983 417.637 203.25C416.237 202.483 414.72 202.1 413.087 202.1C411.42 202.1 409.887 202.483 408.487 203.25C407.12 203.983 406.02 205.117 405.187 206.65C404.353 208.183 403.937 210.05 403.937 212.25C403.937 214.483 404.337 216.367 405.137 217.9C405.97 219.433 407.07 220.583 408.437 221.35C409.803 222.083 411.303 222.45 412.937 222.45ZM457.269 198.6V226H452.719V221.95C451.852 223.35 450.636 224.45 449.069 225.25C447.536 226.017 445.836 226.4 443.969 226.4C441.836 226.4 439.919 225.967 438.219 225.1C436.519 224.2 435.169 222.867 434.169 221.1C433.202 219.333 432.719 217.183 432.719 214.65V198.6H437.219V214.05C437.219 216.75 437.902 218.833 439.269 220.3C440.636 221.733 442.502 222.45 444.869 222.45C447.302 222.45 449.219 221.7 450.619 220.2C452.019 218.7 452.719 216.517 452.719 213.65V198.6H457.269ZM478.302 198.1C481.635 198.1 484.335 199.117 486.402 201.15C488.468 203.15 489.502 206.05 489.502 209.85V226H485.002V210.5C485.002 207.767 484.318 205.683 482.952 204.25C481.585 202.783 479.718 202.05 477.352 202.05C474.952 202.05 473.035 202.8 471.602 204.3C470.202 205.8 469.502 207.983 469.502 210.85V226H464.952V198.6H469.502V202.5C470.402 201.1 471.618 200.017 473.152 199.25C474.718 198.483 476.435 198.1 478.302 198.1ZM495.234 212.2C495.234 209.4 495.801 206.95 496.934 204.85C498.067 202.717 499.617 201.067 501.584 199.9C503.584 198.733 505.817 198.15 508.284 198.15C510.417 198.15 512.401 198.65 514.234 199.65C516.067 200.617 517.467 201.9 518.434 203.5V189H523.034V226H518.434V220.85C517.534 222.483 516.201 223.833 514.434 224.9C512.667 225.933 510.601 226.45 508.234 226.45C505.801 226.45 503.584 225.85 501.584 224.65C499.617 223.45 498.067 221.767 496.934 219.6C495.801 217.433 495.234 214.967 495.234 212.2ZM518.434 212.25C518.434 210.183 518.017 208.383 517.184 206.85C516.351 205.317 515.217 204.15 513.784 203.35C512.384 202.517 510.834 202.1 509.134 202.1C507.434 202.1 505.884 202.5 504.484 203.3C503.084 204.1 501.967 205.267 501.134 206.8C500.301 208.333 499.884 210.133 499.884 212.2C499.884 214.3 500.301 216.133 501.134 217.7C501.967 219.233 503.084 220.417 504.484 221.25C505.884 222.05 507.434 222.45 509.134 222.45C510.834 222.45 512.384 222.05 513.784 221.25C515.217 220.417 516.351 219.233 517.184 217.7C518.017 216.133 518.434 214.317 518.434 212.25Z" fill="#BAB5B5"/>
<path d="M307.24 448.796V461.306H305.188V452.738L301.372 461.306H299.95L296.116 452.738V461.306H294.064V448.796H296.278L300.67 458.606L305.044 448.796H307.24ZM314.239 461.468C313.303 461.468 312.457 461.258 311.701 460.838C310.945 460.406 310.351 459.806 309.919 459.038C309.487 458.258 309.271 457.358 309.271 456.338C309.271 455.33 309.493 454.436 309.937 453.656C310.381 452.876 310.987 452.276 311.755 451.856C312.523 451.436 313.381 451.226 314.329 451.226C315.277 451.226 316.135 451.436 316.903 451.856C317.671 452.276 318.277 452.876 318.721 453.656C319.165 454.436 319.387 455.33 319.387 456.338C319.387 457.346 319.159 458.24 318.703 459.02C318.247 459.8 317.623 460.406 316.831 460.838C316.051 461.258 315.187 461.468 314.239 461.468ZM314.239 459.686C314.767 459.686 315.259 459.56 315.715 459.308C316.183 459.056 316.561 458.678 316.849 458.174C317.137 457.67 317.281 457.058 317.281 456.338C317.281 455.618 317.143 455.012 316.867 454.52C316.591 454.016 316.225 453.638 315.769 453.386C315.313 453.134 314.821 453.008 314.293 453.008C313.765 453.008 313.273 453.134 312.817 453.386C312.373 453.638 312.019 454.016 311.755 454.52C311.491 455.012 311.359 455.618 311.359 456.338C311.359 457.406 311.629 458.234 312.169 458.822C312.721 459.398 313.411 459.686 314.239 459.686ZM326.42 451.226C327.2 451.226 327.896 451.388 328.508 451.712C329.132 452.036 329.618 452.516 329.966 453.152C330.314 453.788 330.488 454.556 330.488 455.456V461.306H328.454V455.762C328.454 454.874 328.232 454.196 327.788 453.728C327.344 453.248 326.738 453.008 325.97 453.008C325.202 453.008 324.59 453.248 324.134 453.728C323.69 454.196 323.468 454.874 323.468 455.762V461.306H321.416V451.388H323.468V452.522C323.804 452.114 324.23 451.796 324.746 451.568C325.274 451.34 325.832 451.226 326.42 451.226ZM335.499 453.062V458.552C335.499 458.924 335.583 459.194 335.751 459.362C335.931 459.518 336.231 459.596 336.651 459.596H337.911V461.306H336.291C335.367 461.306 334.659 461.09 334.167 460.658C333.675 460.226 333.429 459.524 333.429 458.552V453.062H332.259V451.388H333.429V448.922H335.499V451.388H337.911V453.062H335.499ZM344.932 451.226C345.688 451.226 346.36 451.388 346.948 451.712C347.548 452.036 348.016 452.516 348.352 453.152C348.7 453.788 348.874 454.556 348.874 455.456V461.306H346.84V455.762C346.84 454.874 346.618 454.196 346.174 453.728C345.73 453.248 345.124 453.008 344.356 453.008C343.588 453.008 342.976 453.248 342.52 453.728C342.076 454.196 341.854 454.874 341.854 455.762V461.306H339.802V447.986H341.854V452.54C342.202 452.12 342.64 451.796 343.168 451.568C343.708 451.34 344.296 451.226 344.932 451.226Z" fill="#BAB5B5"/>
<path d="M26.6723 293.202C25.4483 293.214 24.3472 292.942 23.3691 292.387C22.3907 291.821 21.6262 291.054 21.0755 290.087C20.5126 289.108 20.2247 288.037 20.2119 286.873C20.1971 285.541 20.514 284.356 21.1626 283.318C21.799 282.268 22.7146 281.503 23.9094 281.024L23.9366 283.49C23.2803 283.82 22.7933 284.274 22.4757 284.854C22.158 285.433 22.0034 286.1 22.0118 286.856C22.0209 287.684 22.2151 288.42 22.5942 289.065C22.9734 289.709 23.513 290.214 24.2131 290.579C24.9131 290.933 25.725 291.105 26.649 291.096C27.5729 291.087 28.3809 290.9 29.0729 290.533C29.7647 290.155 30.2991 289.64 30.6759 288.988C31.0407 288.336 31.2185 287.597 31.2094 286.769C31.201 286.013 31.0316 285.348 30.7013 284.775C30.3709 284.203 29.874 283.757 29.2104 283.44L29.1831 280.974C30.3883 281.43 31.3206 282.177 31.9801 283.215C32.6395 284.241 32.9765 285.42 32.9913 286.752C33.0043 287.928 32.7462 289.004 32.217 289.981C31.6757 290.959 30.9223 291.74 29.9568 292.325C28.991 292.898 27.8962 293.19 26.6723 293.202ZM32.9068 274.234C32.9171 275.17 32.7165 276.018 32.3049 276.778C31.8813 277.538 31.2879 278.138 30.5247 278.577C29.7495 279.016 28.8519 279.241 27.832 279.251C26.824 279.26 25.9276 279.047 25.1427 278.61C24.3579 278.173 23.7512 277.573 23.3227 276.809C22.8942 276.045 22.6747 275.189 22.6643 274.241C22.6538 273.293 22.8543 272.434 23.2658 271.662C23.6772 270.89 24.2705 270.278 25.0456 269.827C25.8206 269.375 26.7121 269.145 27.7201 269.135C28.728 269.126 29.6245 269.345 30.4095 269.794C31.1945 270.242 31.8074 270.861 32.2481 271.648C32.6768 272.424 32.8963 273.286 32.9068 274.234ZM31.1249 274.251C31.119 273.723 30.9876 273.232 30.7306 272.779C30.4734 272.313 30.0912 271.939 29.5841 271.656C29.0769 271.372 28.4633 271.234 27.7434 271.241C27.0234 271.248 26.419 271.392 25.93 271.672C25.4291 271.953 25.0552 272.323 24.8082 272.781C24.5613 273.239 24.4407 273.733 24.4466 274.26C24.4524 274.788 24.5839 275.279 24.8409 275.733C25.0978 276.174 25.4797 276.525 25.9866 276.784C26.4815 277.043 27.0889 277.17 27.8089 277.163C28.8768 277.153 29.7018 276.875 30.2838 276.329C30.8537 275.772 31.134 275.079 31.1249 274.251ZM22.6485 258.172L32.566 258.078L32.5887 260.13L31.4188 260.141C31.8304 260.461 32.1591 260.884 32.4049 261.41C32.6386 261.924 32.7587 262.475 32.7652 263.063C32.7738 263.843 32.6196 264.546 32.3025 265.173C31.9853 265.788 31.5107 266.279 30.8787 266.645C30.2466 266.999 29.4805 267.18 28.5806 267.188L22.7488 267.244L22.7263 265.21L28.2521 265.157C29.1401 265.149 29.8216 264.921 30.2966 264.472C30.7597 264.024 30.987 263.415 30.9785 262.647C30.97 261.88 30.7293 261.276 30.2564 260.836C29.7714 260.385 29.0849 260.163 28.1969 260.172L22.6712 260.224L22.6485 258.172ZM22.4012 250.463C22.3925 249.683 22.5468 248.985 22.864 248.37C23.1811 247.743 23.6557 247.253 24.2879 246.899C24.92 246.545 25.686 246.364 26.586 246.355L32.4357 246.3L32.4582 248.333L26.9145 248.386C26.0265 248.394 25.351 248.623 24.8879 249.071C24.4129 249.52 24.1796 250.128 24.1881 250.896C24.1966 251.664 24.4433 252.274 24.9283 252.725C25.4012 253.165 26.0817 253.38 26.9696 253.372L32.5134 253.319L32.5361 255.371L22.6185 255.465L22.5958 253.413L23.7298 253.402C23.3181 253.07 22.9954 252.647 22.7617 252.134C22.5278 251.608 22.4077 251.051 22.4012 250.463ZM24.1366 241.367L29.6264 241.314C29.9984 241.311 30.2674 241.224 30.4336 241.055C30.5876 240.873 30.6622 240.573 30.6576 240.153L30.6437 238.893L32.3536 238.877L32.3715 240.496C32.3817 241.42 32.1736 242.13 31.747 242.626C31.3205 243.122 30.6213 243.375 29.6493 243.384L24.1595 243.436L24.1725 244.606L22.4986 244.622L22.4856 243.452L20.0197 243.476L19.9968 241.406L22.4627 241.382L22.436 238.971L24.11 238.955L24.1366 241.367ZM32.4548 233.384C32.4635 234.164 32.3332 234.867 32.0641 235.494C31.7829 236.109 31.4043 236.598 30.9283 236.963C30.4403 237.327 29.8965 237.524 29.2968 237.554L29.2733 235.43C29.6929 235.39 30.0447 235.189 30.3287 234.826C30.6005 234.452 30.7334 233.988 30.7273 233.436C30.7209 232.86 30.608 232.418 30.3886 232.108C30.157 231.786 29.8672 231.627 29.5192 231.63C29.1473 231.633 28.8733 231.816 28.6973 232.178C28.5211 232.527 28.3293 233.087 28.1218 233.857C27.926 234.603 27.7348 235.211 27.5479 235.681C27.3611 236.15 27.0717 236.561 26.6795 236.913C26.2873 237.253 25.7671 237.426 25.1192 237.432C24.5912 237.437 24.1095 237.285 23.6741 236.977C23.2266 236.67 22.8737 236.229 22.6154 235.655C22.3569 235.07 22.2234 234.399 22.2151 233.643C22.2026 232.515 22.4806 231.607 23.049 230.917C23.6052 230.216 24.3751 229.837 25.3585 229.779L25.3812 231.831C24.9376 231.871 24.5856 232.055 24.3252 232.381C24.0648 232.708 23.9377 233.147 23.9438 233.699C23.9498 234.239 24.0563 234.652 24.2635 234.938C24.4707 235.224 24.7423 235.365 25.0783 235.362C25.3423 235.36 25.5632 235.261 25.7411 235.068C25.9189 234.874 26.0603 234.639 26.1653 234.362C26.2582 234.085 26.3797 233.676 26.5297 233.134C26.7137 232.412 26.9052 231.823 27.1042 231.365C27.291 230.895 27.5745 230.49 27.9548 230.151C28.335 229.811 28.8431 229.632 29.4789 229.614C30.0429 229.609 30.5486 229.76 30.996 230.068C31.4435 230.376 31.7964 230.816 32.0547 231.39C32.313 231.951 32.4463 232.616 32.4548 233.384ZM32.289 218.392C32.2993 219.328 32.0987 220.176 31.6871 220.936C31.2634 221.696 30.67 222.295 29.9069 222.735C29.1317 223.174 28.2341 223.399 27.2141 223.408C26.2062 223.418 25.3098 223.204 24.5249 222.768C23.74 222.331 23.1333 221.731 22.7049 220.967C22.2764 220.203 22.0569 219.347 22.0464 218.399C22.0359 217.451 22.2364 216.591 22.6479 215.819C23.0594 215.047 23.6527 214.436 24.4277 213.984C25.2028 213.533 26.0943 213.302 27.1022 213.293C28.1102 213.283 29.0067 213.503 29.7917 213.951C30.5767 214.4 31.1896 215.018 31.6303 215.806C32.0589 216.582 32.2785 217.444 32.289 218.392ZM30.507 218.409C30.5012 217.881 30.3698 217.39 30.1127 216.937C29.8556 216.471 29.4734 216.097 28.9662 215.813C28.4591 215.53 27.8455 215.392 27.1255 215.399C26.4056 215.406 25.8011 215.549 25.3122 215.83C24.8113 216.111 24.4373 216.48 24.1904 216.939C23.9434 217.397 23.8229 217.89 23.8287 218.418C23.8346 218.946 23.966 219.437 24.223 219.891C24.4799 220.332 24.8618 220.682 25.3687 220.942C25.8636 221.201 26.4711 221.327 27.191 221.32C28.259 221.31 29.084 221.032 29.666 220.487C30.2358 219.929 30.5162 219.237 30.507 218.409ZM23.7579 207.138L23.7782 208.974L32.0219 208.896L32.0448 210.965L23.8011 211.044L23.8141 212.214L22.1402 212.229L22.1272 211.06L21.4253 211.066C20.2853 211.077 19.454 210.785 18.9314 210.19C18.3967 209.583 18.1221 208.631 18.1078 207.335L19.8177 207.319C19.8246 207.943 19.9494 208.38 20.1922 208.63C20.423 208.88 20.8264 209.002 21.4024 208.996L22.1043 208.99L22.084 207.154L23.7579 207.138ZM19.301 189.903L31.8624 194.482L31.8887 196.858L19.4314 201.692L19.4071 199.496L29.7696 195.69L19.3249 192.063L19.301 189.903ZM20.5484 187.131C20.5525 187.503 20.43 187.816 20.1808 188.071C19.9316 188.325 19.621 188.454 19.249 188.457C18.877 188.461 18.5636 188.338 18.3089 188.088C18.0541 187.839 17.9246 187.528 17.9205 187.156C17.9165 186.796 18.0391 186.489 18.2883 186.234C18.5375 185.98 18.8481 185.851 19.2201 185.848C19.5921 185.844 19.9055 185.967 20.1603 186.217C20.415 186.466 20.5444 186.771 20.5484 187.131ZM21.8512 186.111L31.7687 186.017L31.7914 188.068L21.8739 188.163L21.8512 186.111ZM31.8533 179.019C31.8637 179.955 31.6631 180.803 31.2514 181.563C30.8278 182.323 30.2344 182.923 29.4712 183.362C28.6961 183.802 27.7985 184.026 26.7785 184.036C25.7706 184.045 24.8742 183.832 24.0893 183.395C23.3044 182.959 22.6977 182.358 22.2692 181.594C21.8408 180.83 21.6213 179.974 21.6108 179.027C21.6003 178.079 21.8008 177.219 22.2123 176.447C22.6238 175.675 23.217 175.063 23.9921 174.612C24.7672 174.16 25.6587 173.93 26.6666 173.92C27.6746 173.911 28.571 174.13 29.3561 174.579C30.1411 175.027 30.7539 175.646 31.1947 176.433C31.6233 177.209 31.8428 178.071 31.8533 179.019ZM30.0714 179.036C30.0656 178.508 29.9341 178.018 29.6771 177.564C29.4199 177.098 29.0378 176.724 28.5306 176.441C28.0234 176.158 27.4099 176.019 26.6899 176.026C25.9699 176.033 25.3655 176.177 24.8766 176.457C24.3756 176.738 24.0017 177.108 23.7548 177.566C23.5078 178.024 23.3873 178.518 23.3931 179.046C23.399 179.574 23.5304 180.064 23.7874 180.518C24.0443 180.96 24.4262 181.31 24.9331 181.569C25.428 181.828 26.0355 181.955 26.7554 181.948C27.8234 181.938 28.6484 181.66 29.2304 181.114C29.8002 180.557 30.0806 179.864 30.0714 179.036ZM18.2698 169.919L31.5892 169.793L31.6119 171.845L18.2925 171.971L18.2698 169.919ZM26.5632 167.83C25.5673 167.84 24.6831 167.644 23.9106 167.244C23.138 166.831 22.5378 166.273 22.1099 165.569C21.67 164.853 21.4452 164.063 21.4357 163.199C21.4271 162.419 21.5755 161.739 21.8812 161.161C22.1746 160.57 22.5474 160.098 22.9996 159.746L21.5596 159.76L21.5367 157.69L31.4543 157.596L31.4772 159.665L30.0013 159.679C30.4731 160.023 30.8683 160.493 31.1869 161.09C31.5056 161.687 31.6691 162.37 31.6776 163.138C31.687 163.99 31.4797 164.772 31.0555 165.484C30.6194 166.196 30.0137 166.766 29.2383 167.193C28.4509 167.609 27.5592 167.821 26.5632 167.83ZM26.5094 159.713C25.8254 159.719 25.2331 159.869 24.7323 160.161C24.2314 160.442 23.8514 160.812 23.5925 161.27C23.3335 161.729 23.207 162.222 23.2128 162.75C23.2187 163.278 23.3561 163.769 23.6251 164.222C23.8822 164.676 24.2643 165.044 24.7714 165.327C25.2665 165.599 25.856 165.731 26.5399 165.725C27.2239 165.718 27.8223 165.574 28.3353 165.294C28.8481 165.001 29.2399 164.625 29.5109 164.166C29.7697 163.696 29.8962 163.203 29.8905 162.687C29.8847 162.159 29.7472 161.668 29.4782 161.214C29.2092 160.761 28.8211 160.399 28.3141 160.127C27.795 159.844 27.1934 159.706 26.5094 159.713ZM23.1544 152.585L28.6441 152.533C29.0161 152.529 29.2852 152.443 29.4513 152.273C29.6053 152.092 29.68 151.791 29.6753 151.371L29.6614 150.111L31.3713 150.095L31.3892 151.715C31.3995 152.639 31.1913 153.349 30.7648 153.845C30.3382 154.341 29.639 154.593 28.667 154.603L23.1773 154.655L23.1902 155.825L21.5163 155.841L21.5033 154.671L19.0374 154.694L19.0145 152.624L21.4804 152.601L21.4538 150.189L23.1277 150.173L23.1544 152.585ZM20.1073 147.266C20.1115 147.638 19.9889 147.951 19.7397 148.206C19.4905 148.46 19.1799 148.589 18.8079 148.593C18.4359 148.596 18.1226 148.473 17.8678 148.224C17.613 147.974 17.4836 147.663 17.4795 147.291C17.4755 146.931 17.5981 146.624 17.8473 146.37C18.0965 146.115 18.4071 145.986 18.7791 145.983C19.151 145.979 19.4644 146.102 19.7192 146.352C19.974 146.602 20.1034 146.906 20.1073 147.266ZM21.4101 146.246L31.3277 146.152L31.3504 148.204L21.4328 148.298L21.4101 146.246ZM31.4123 139.155C31.4226 140.091 31.222 140.938 30.8104 141.698C30.3868 142.458 29.7934 143.058 29.0302 143.497C28.255 143.937 27.3574 144.161 26.3375 144.171C25.3295 144.181 24.4331 143.967 23.6482 143.53C22.8633 143.094 22.2567 142.494 21.8282 141.73C21.3997 140.966 21.1802 140.11 21.1697 139.162C21.1592 138.214 21.3597 137.354 21.7712 136.582C22.1827 135.81 22.776 135.198 23.551 134.747C24.3261 134.296 25.2176 134.065 26.2255 134.056C27.2335 134.046 28.13 134.266 28.915 134.714C29.7 135.163 30.3129 135.781 30.7536 136.569C31.1822 137.345 31.4018 138.207 31.4123 139.155ZM29.6304 139.172C29.6245 138.644 29.4931 138.153 29.236 137.699C28.9789 137.234 28.5967 136.859 28.0895 136.576C27.5824 136.293 26.9688 136.155 26.2488 136.161C25.5289 136.168 24.9244 136.312 24.4355 136.593C23.9346 136.873 23.5607 137.243 23.3137 137.701C23.0668 138.16 22.9462 138.653 22.9521 139.181C22.9579 139.709 23.0893 140.2 23.3464 140.653C23.6033 141.095 23.9852 141.445 24.4921 141.704C24.987 141.964 25.5944 142.09 26.3144 142.083C27.3823 142.073 28.2073 141.795 28.7893 141.25C29.3592 140.692 29.6395 139.999 29.6304 139.172ZM21.036 127.072C21.0273 126.292 21.1816 125.595 21.4989 124.98C21.8159 124.352 22.2905 123.862 22.9227 123.508C23.5548 123.154 24.3208 122.973 25.2208 122.964L31.0705 122.909L31.093 124.942L25.5493 124.995C24.6613 125.004 23.9858 125.232 23.5227 125.68C23.0477 126.129 22.8144 126.737 22.8229 127.505C22.8314 128.273 23.0781 128.883 23.5632 129.334C24.036 129.774 24.7165 129.989 25.6044 129.981L31.1482 129.928L31.1709 131.98L21.2533 132.074L21.2306 130.022L22.3646 130.012C21.9529 129.679 21.6302 129.256 21.3965 128.743C21.1627 128.217 21.0425 127.66 21.036 127.072ZM31.1637 116.69C31.1724 117.47 31.0421 118.173 30.773 118.8C30.4918 119.414 30.1132 119.904 29.6372 120.269C29.1492 120.633 28.6054 120.83 28.0057 120.86L27.9822 118.736C28.4018 118.696 28.7535 118.495 29.0376 118.132C29.3094 117.758 29.4423 117.294 29.4362 116.742C29.4298 116.166 29.3169 115.723 29.0975 115.414C28.8659 115.092 28.5761 114.932 28.2281 114.936C27.8562 114.939 27.5822 115.122 27.4062 115.484C27.23 115.833 27.0382 116.393 26.8307 117.163C26.6349 117.909 26.4437 118.517 26.2568 118.987C26.07 119.456 25.7806 119.867 25.3884 120.219C24.9962 120.559 24.476 120.732 23.8281 120.738C23.3001 120.743 22.8184 120.591 22.383 120.283C21.9355 119.976 21.5826 119.535 21.3243 118.961C21.0658 118.376 20.9323 117.705 20.924 116.949C20.9115 115.821 21.1895 114.913 21.7579 114.223C22.3141 113.522 23.084 113.142 24.0674 113.085L24.0901 115.137C23.6465 115.177 23.2945 115.361 23.0341 115.687C22.7737 116.014 22.6466 116.453 22.6527 117.005C22.6587 117.545 22.7652 117.958 22.9724 118.244C23.1796 118.53 23.4512 118.671 23.7872 118.668C24.0512 118.666 24.2721 118.567 24.45 118.374C24.6278 118.18 24.7692 117.945 24.8742 117.668C24.9671 117.391 25.0886 116.982 25.2386 116.44C25.4226 115.718 25.6141 115.129 25.8131 114.671C25.9999 114.201 26.2834 113.796 26.6637 113.457C27.0439 113.117 27.552 112.938 28.1878 112.92C28.7518 112.915 29.2575 113.066 29.7049 113.374C30.1524 113.681 30.5053 114.122 30.7636 114.696C31.0219 115.257 31.1552 115.922 31.1637 116.69Z" fill="#BAB5B5"/>
</svg>
