<svg width="27" height="30" viewBox="0 0 27 30" fill="none" xmlns="http://www.w3.org/2000/svg">
<path d="M3.14763 1.26008C2.13476 1.28818 1.26543 2.21874 1.25841 3.21756C1.25707 3.36546 1.23933 3.49831 1.2052 3.61609C1.0737 4.06882 0.485451 4.14812 0.183295 3.83593C0.0541343 3.70208 -0.00676608 3.51704 0.000595408 3.28081C0.0608258 1.45984 1.35478 0.131762 3.16972 0.00126243C3.44979 -0.0188144 3.7409 0.203035 3.79712 0.491137C3.88244 0.929814 3.57427 1.24904 3.14763 1.26008Z" fill="#102C53"/>
<path d="M5.7797 12.7367C7.687 13.4936 9.64816 14.193 11.6632 14.8347C11.7141 14.8508 11.7549 14.8809 11.7857 14.9251C13.966 18.026 18.145 18.7447 21.2067 16.4559C21.2242 16.4428 21.2451 16.4351 21.2669 16.4336C21.2887 16.4322 21.3103 16.4372 21.3292 16.4479C23.646 17.7539 24.2995 20.0969 24.3608 22.5944C24.361 22.6024 24.3592 22.6104 24.3556 22.6176C24.352 22.6247 24.3468 22.6309 24.3403 22.6355C24.3338 22.6401 24.3263 22.6429 24.3185 22.6438C24.3107 22.6447 24.3028 22.6436 24.2955 22.6406C23.4884 22.3144 22.329 22.2873 21.6725 22.9468C21.6444 22.9755 21.6149 22.9762 21.5842 22.9488C17.9021 19.6592 12.6209 19.5699 8.80326 22.6928C8.79983 22.6955 8.7957 22.6972 8.79136 22.6977C8.78702 22.6983 8.78264 22.6976 8.77875 22.6958C8.77485 22.694 8.7716 22.6912 8.76936 22.6876C8.76713 22.6841 8.766 22.68 8.76612 22.6757L8.7601 20.3649C8.76014 20.3417 8.75368 20.3189 8.74146 20.299C8.72923 20.2792 8.7117 20.263 8.69083 20.2525C6.19261 19.0024 3.65022 17.7298 1.06366 16.4349C0.383058 16.0946 0.128084 15.4441 0.305764 14.7253C0.993059 11.9427 1.63619 9.34508 2.23514 6.93252C2.30474 6.65345 2.34021 6.37941 2.34155 6.11038C2.34757 5.09583 2.34958 4.07426 2.34757 3.04565C2.34657 2.77161 2.47707 2.5598 2.71899 2.44937C4.06012 1.83904 5.5187 1.68378 7.09473 1.98359C7.37079 2.03579 7.70506 2.12815 7.78738 2.43733C8.0109 3.27855 8.22606 4.09902 8.43285 4.89874C8.49509 5.13966 8.39169 5.35549 8.21501 5.51209C7.50229 6.14451 6.83206 6.74915 6.20432 7.32603C6.17461 7.35378 6.15635 7.39173 6.15313 7.43243L5.75059 12.6905C5.75005 12.7004 5.75257 12.7102 5.7578 12.7185C5.76302 12.7268 5.77068 12.7332 5.7797 12.7367Z" fill="#102C53"/>
<path d="M10.4777 3.58076C11.1542 5.08451 10.572 6.91351 9.06525 7.62021C8.48403 7.89225 7.90983 7.34215 8.22906 6.77297C8.36357 6.53305 8.67275 6.45074 8.87553 6.26804C9.43667 5.76512 9.70771 4.951 9.39652 4.22924C9.33629 4.0887 9.26703 3.94415 9.28108 3.78655C9.34031 3.09892 10.2026 2.96942 10.4777 3.58076Z" fill="#102C53"/>
<path d="M17.2235 16.6259C20.1812 16.6259 22.5789 14.2772 22.5789 11.3799C22.5789 8.48253 20.1812 6.13379 17.2235 6.13379C14.2657 6.13379 11.868 8.48253 11.868 11.3799C11.868 14.2772 14.2657 16.6259 17.2235 16.6259Z" fill="#102C53"/>
<path d="M10.834 24.8704C9.53708 25.9043 8.64266 27.4292 8.3907 29.0985C8.38822 29.1145 8.37956 29.1288 8.36659 29.1384C8.35362 29.148 8.33739 29.1521 8.32143 29.1497L6.59884 28.8857C6.59037 28.8843 6.5828 28.8795 6.57774 28.8724C6.57268 28.8653 6.57053 28.8564 6.57174 28.8476C7.71612 21.7725 16.322 19.0581 21.3091 24.2671C21.3493 24.3099 21.3456 24.3484 21.2981 24.3825C20.8283 24.7178 20.4689 25.1652 20.2199 25.7246C20.2179 25.7293 20.2148 25.7334 20.2108 25.7365C20.2068 25.7396 20.2021 25.7416 20.1971 25.7424C20.192 25.7432 20.1869 25.7428 20.1821 25.7411C20.1774 25.7394 20.1731 25.7365 20.1698 25.7327C17.7786 22.9671 13.689 22.5947 10.834 24.8704Z" fill="#102C53"/>
<path d="M26.5391 28.5035C26.4036 28.8749 26.0522 29.1339 25.726 29.3497C24.9731 29.8476 24.1088 30.1919 23.2566 29.8827C22.327 29.5454 21.6444 28.4864 21.3252 27.594C20.9839 26.6413 21.2067 25.8322 21.9867 25.2811C22.4013 24.988 23.2104 24.2271 22.5719 23.7282C22.5667 23.7241 22.5626 23.7187 22.5602 23.7125C22.5577 23.7064 22.557 23.6997 22.558 23.6931C22.559 23.6865 22.5618 23.6804 22.566 23.6753C22.5702 23.6701 22.5757 23.6662 22.582 23.6639C23.5637 23.3287 24.4913 23.8677 25.0835 24.6467C25.7193 25.4839 26.1904 26.3375 26.4969 27.2075C26.6663 27.6873 26.6803 28.1193 26.5391 28.5035Z" fill="#102C53"/>
</svg>
