<svg width="42" height="42" viewBox="0 0 42 42" fill="none" xmlns="http://www.w3.org/2000/svg">
<circle cx="21" cy="21" r="21" fill="#DCECFF"/>
<path d="M12.3636 9.94621C11.603 9.96731 10.9502 10.6661 10.945 11.4161C10.9439 11.5272 10.9306 11.6269 10.905 11.7154C10.8063 12.0553 10.3645 12.1149 10.1376 11.8805C10.0407 11.7799 9.99492 11.641 10.0004 11.4636C10.0457 10.0962 11.0173 9.09894 12.3802 9.00095C12.5905 8.98587 12.8091 9.15246 12.8513 9.3688C12.9154 9.69821 12.684 9.93792 12.3636 9.94621Z" fill="#102C53"/>
<path d="M14.3371 18.5668C15.7694 19.1351 17.242 19.6603 18.7551 20.1422C18.7933 20.1543 18.824 20.1769 18.8471 20.21C20.4843 22.5385 23.6224 23.0782 25.9215 21.3596C25.9346 21.3497 25.9503 21.3439 25.9667 21.3428C25.983 21.3418 25.9993 21.3455 26.0134 21.3536C27.7532 22.3342 28.2439 24.0936 28.2899 25.9691C28.2901 25.9751 28.2887 25.981 28.286 25.9864C28.2834 25.9918 28.2794 25.9964 28.2745 25.9999C28.2697 26.0033 28.264 26.0055 28.2582 26.0061C28.2523 26.0068 28.2464 26.006 28.2409 26.0037C27.6349 25.7587 26.7642 25.7384 26.2712 26.2336C26.2501 26.2552 26.228 26.2557 26.2049 26.2351C23.44 23.7649 19.4743 23.6979 16.6076 26.0429C16.605 26.0449 16.6019 26.0462 16.5986 26.0466C16.5954 26.047 16.5921 26.0465 16.5892 26.0452C16.5862 26.0438 16.5838 26.0417 16.5821 26.039C16.5804 26.0364 16.5796 26.0333 16.5797 26.0301L16.5752 24.2949C16.5752 24.2774 16.5703 24.2603 16.5612 24.2454C16.552 24.2305 16.5388 24.2184 16.5231 24.2104C14.6472 23.2717 12.7381 22.3162 10.7958 21.3438C10.2847 21.0882 10.0933 20.5998 10.2267 20.06C10.7428 17.9705 11.2257 16.0199 11.6755 14.2083C11.7277 13.9988 11.7544 13.793 11.7554 13.591C11.7599 12.8291 11.7614 12.062 11.7599 11.2896C11.7592 11.0838 11.8571 10.9248 12.0388 10.8419C13.0459 10.3836 14.1412 10.267 15.3246 10.4921C15.5319 10.5313 15.7829 10.6006 15.8447 10.8328C16.0126 11.4645 16.1741 12.0806 16.3294 12.6811C16.3762 12.862 16.2985 13.0241 16.1658 13.1417C15.6307 13.6166 15.1274 14.0706 14.656 14.5038C14.6337 14.5246 14.62 14.5531 14.6176 14.5837L14.3153 18.5321C14.3149 18.5395 14.3168 18.5469 14.3207 18.5531C14.3246 18.5593 14.3304 18.5641 14.3371 18.5668Z" fill="#102C53"/>
<path d="M17.8704 11.693C18.3785 12.8222 17.9413 14.1956 16.8098 14.7263C16.3734 14.9306 15.9422 14.5175 16.1819 14.0901C16.2829 13.9099 16.5151 13.8481 16.6674 13.7109C17.0887 13.3333 17.2923 12.7219 17.0586 12.18C17.0134 12.0744 16.9614 11.9659 16.9719 11.8475C17.0164 11.3312 17.6639 11.2339 17.8704 11.693Z" fill="#102C53"/>
<path d="M22.9336 21.4841C25.1546 21.4841 26.9551 19.7204 26.9551 17.5448C26.9551 15.3692 25.1546 13.6055 22.9336 13.6055C20.7126 13.6055 18.9121 15.3692 18.9121 17.5448C18.9121 19.7204 20.7126 21.4841 22.9336 21.4841Z" fill="#102C53"/>
<path d="M18.1384 27.6785C17.1645 28.4549 16.4928 29.5999 16.3036 30.8535C16.3018 30.8655 16.2953 30.8762 16.2855 30.8834C16.2758 30.8906 16.2636 30.8937 16.2516 30.892L14.9581 30.6937C14.9517 30.6926 14.9461 30.689 14.9423 30.6837C14.9385 30.6783 14.9368 30.6716 14.9377 30.6651C15.7971 25.3523 22.2594 23.314 26.0042 27.2255C26.0344 27.2576 26.0316 27.2865 25.9959 27.3122C25.6432 27.5639 25.3733 27.8999 25.1864 28.32C25.1849 28.3235 25.1825 28.3265 25.1795 28.3289C25.1765 28.3312 25.1729 28.3328 25.1692 28.3334C25.1654 28.334 25.1616 28.3336 25.158 28.3323C25.1544 28.331 25.1512 28.3289 25.1487 28.326C23.3531 26.2493 20.2822 25.9697 18.1384 27.6785Z" fill="#102C53"/>
<path d="M29.9281 30.4016C29.8264 30.6805 29.5625 30.875 29.3176 31.0371C28.7522 31.411 28.1032 31.6695 27.4632 31.4373C26.7652 31.1841 26.2526 30.3888 26.0129 29.7187C25.7566 29.0033 25.924 28.3958 26.5097 27.9819C26.821 27.7618 27.4285 27.1905 26.9491 26.8158C26.9452 26.8128 26.9421 26.8087 26.9403 26.8041C26.9385 26.7994 26.9379 26.7944 26.9387 26.7895C26.9394 26.7846 26.9415 26.7799 26.9447 26.7761C26.9478 26.7722 26.952 26.7693 26.9567 26.7676C27.6939 26.5158 28.3904 26.9206 28.8351 27.5055C29.3125 28.1342 29.6663 28.7752 29.8965 29.4285C30.0236 29.7888 30.0342 30.1132 29.9281 30.4016Z" fill="#102C53"/>
</svg>
