<?xml version="1.0" standalone="no"?>
<!DOCTYPE svg PUBLIC "-//W3C//DTD SVG 20010904//EN"
 "http://www.w3.org/TR/2001/REC-SVG-20010904/DTD/svg10.dtd">
<svg version="1.0" xmlns="http://www.w3.org/2000/svg"
 width="626.000000pt" height="417.000000pt" viewBox="0 0 626.000000 417.000000"
 preserveAspectRatio="xMidYMid meet">

<g transform="translate(0.000000,417.000000) scale(0.100000,-0.100000)"
fill="#000000" stroke="none">
<path d="M3317 3660 c10 -11 10 -17 0 -29 -8 -9 -24 -49 -38 -89 -17 -54 -35
-84 -63 -113 -22 -21 -45 -39 -51 -39 -6 0 -21 -9 -33 -20 -12 -12 -22 -18
-22 -15 0 3 -10 -1 -22 -9 -12 -9 -34 -16 -48 -16 -15 0 -35 -7 -46 -15 -19
-15 -19 -15 1 -30 10 -8 34 -21 52 -27 l33 -12 0 -153 0 -153 50 0 50 0 0 155
c0 133 2 155 15 155 25 0 95 39 123 68 42 45 62 101 62 175 0 71 -25 143 -58
169 -14 10 -15 10 -5 -2z m-207 -605 c0 -63 -4 -105 -10 -105 -11 0 -14 192
-3 203 12 13 13 7 13 -98z"/>
<path d="M4992 2969 c-3 -296 -5 -311 -51 -346 -35 -27 -39 -28 -186 -30 -124
-2 -357 -9 -572 -16 -31 -2 -43 -6 -44 -17 0 -10 -2 -11 -6 -2 -2 6 -9 9 -15
6 -6 -4 -14 0 -19 7 -7 11 -9 11 -9 1 0 -17 38 -30 80 -26 30 3 32 2 10 -5
-18 -7 0 -9 65 -10 87 -2 125 -13 125 -38 0 -13 34 -23 83 -23 43 0 137 -28
137 -41 0 -10 -89 -79 -101 -79 -5 0 -9 -5 -9 -10 0 -16 56 16 93 55 18 19 44
57 57 85 l23 50 128 0 c91 0 131 4 138 13 47 56 61 77 59 84 -1 4 3 18 10 30
9 16 12 90 9 280 l-2 258 -3 -226z"/>
<path d="M4760 3036 c0 -2 8 -10 18 -17 15 -13 16 -12 3 4 -13 16 -21 21 -21
13z"/>
<path d="M4442 2928 c-18 -21 -23 -39 -22 -71 4 -76 -3 -82 -62 -51 -30 15
-34 15 -65 -1 -18 -10 -33 -21 -33 -25 0 -14 46 -49 73 -55 15 -4 30 -11 33
-16 9 -16 41 -10 85 16 24 14 40 25 34 25 -5 0 -3 5 5 10 12 7 13 15 4 37 -5
15 -11 53 -13 83 -4 74 -11 83 -39 48z"/>
<path d="M4841 2930 c-17 -23 -21 -42 -20 -80 2 -27 -1 -53 -5 -57 -4 -4 -27
1 -52 10 -43 16 -49 16 -80 1 -19 -9 -36 -20 -39 -24 -8 -13 57 -70 102 -91
57 -26 107 -25 134 4 20 20 21 29 16 125 -4 62 -11 110 -20 122 -13 19 -14 19
-36 -10z"/>
<path d="M3847 2779 c16 -20 6 -58 -15 -55 -9 2 -26 -12 -39 -31 -25 -37 -30
-58 -10 -47 9 6 9 4 -1 -8 -14 -18 0 -34 18 -23 6 4 9 3 8 -2 -1 -4 25 -35 57
-68 103 -104 158 -236 158 -380 1 -118 -38 -254 -80 -278 -7 -5 -11 -13 -7
-18 3 -5 0 -8 -8 -7 -7 2 -12 -5 -12 -14 1 -10 -2 -18 -7 -18 -5 0 -28 -17
-52 -38 -23 -21 -63 -53 -90 -71 -26 -18 -45 -36 -42 -42 3 -5 0 -6 -7 -4 -8
3 -40 -4 -73 -15 -50 -17 -96 -22 -280 -28 -133 -4 -200 -9 -170 -13 28 -3
-63 -7 -202 -7 -275 -2 -362 8 -459 52 -49 23 -109 62 -142 94 -8 7 -18 9 -24
6 -6 -4 -8 -2 -5 3 4 6 -1 17 -10 24 -14 12 -16 12 -8 -1 6 -12 5 -13 -6 -2
-7 6 -36 12 -65 12 -47 0 -52 -2 -56 -25 -3 -13 -1 -22 3 -19 8 5 13 -10 10
-29 -1 -5 2 -6 7 -3 5 3 20 -7 33 -22 18 -19 19 -23 4 -12 -19 15 -19 14 -3
-10 9 -14 22 -24 28 -22 6 1 8 -2 5 -8 -6 -10 4 -21 50 -58 18 -14 99 -69 150
-101 28 -17 61 -47 75 -66 16 -22 33 -35 48 -35 13 0 21 -4 18 -9 -8 -12 81
-49 135 -55 14 -1 32 -7 40 -12 15 -9 20 -10 58 -12 16 -2 21 -6 17 -17 -3
-10 1 -15 13 -15 9 0 28 -11 40 -24 18 -19 21 -31 16 -55 -3 -16 -2 -39 4 -49
8 -16 6 -25 -9 -45 -11 -13 -24 -43 -29 -67 -5 -23 -18 -50 -28 -60 -18 -16
-30 -41 -47 -92 -3 -10 -14 -18 -24 -18 -20 0 -32 -33 -32 -86 0 -20 -5 -24
-29 -24 -22 0 -31 -6 -41 -30 -7 -17 -20 -30 -30 -30 -9 0 -22 -11 -28 -25 -8
-18 -19 -25 -40 -25 -15 0 -37 -6 -48 -14 -18 -13 -27 -12 -70 1 -27 9 -60 25
-74 37 -14 12 -35 27 -47 34 -21 11 -23 10 -23 -9 0 -19 -2 -20 -17 -8 -15 13
-15 12 -3 -8 8 -12 18 -20 22 -17 4 3 5 -2 2 -10 -10 -26 103 -129 186 -168
129 -61 141 -63 610 -63 l425 0 90 44 c152 75 238 182 269 332 l13 64 81 5
c125 8 118 -15 114 343 -2 275 -4 306 -22 342 -34 70 -41 75 -109 75 -77 0
-78 9 -12 93 173 221 202 520 76 782 -47 99 -137 210 -186 232 -22 9 -39 21
-39 26 0 5 7 4 15 -3 8 -7 15 -10 15 -7 0 3 -15 16 -32 28 -18 13 -28 16 -21
8z m290 -1351 c-3 -7 -5 -2 -5 12 0 14 2 19 5 13 2 -7 2 -19 0 -25z"/>
<path d="M3730 2646 c0 -2 7 -7 16 -10 8 -3 12 -2 9 4 -6 10 -25 14 -25 6z"/>
<path d="M2765 2396 c-37 -16 -83 -68 -91 -102 -9 -36 2 -94 24 -124 36 -48
83 -72 132 -67 79 8 86 13 124 71 22 35 23 113 2 155 -34 64 -126 97 -191 67z
m63 -38 c4 -21 -51 -58 -85 -58 -42 0 -22 55 27 73 26 10 55 3 58 -15z"/>
<path d="M3380 2399 c-40 -16 -89 -70 -96 -106 -9 -48 3 -98 33 -133 34 -41
70 -58 136 -66 47 -6 60 -3 87 16 17 12 29 25 26 28 -4 3 1 13 10 23 25 27 16
135 -15 177 -41 59 -120 85 -181 61z m53 -35 c17 -17 -50 -74 -87 -74 -24 0
-20 45 7 63 22 16 68 22 80 11z"/>
<path d="M2002 2338 c-1 -17 -8 -28 -16 -28 -19 0 -34 -48 -41 -130 -3 -36 -7
-73 -8 -83 -3 -18 -27 -47 -27 -32 0 5 -13 -4 -30 -20 -20 -19 -30 -39 -30
-57 0 -17 4 -27 10 -23 15 9 12 -37 -4 -58 -8 -10 -20 -15 -30 -11 -10 4 -16
1 -16 -7 0 -7 -3 -9 -6 -6 -4 3 -14 2 -23 -3 -16 -8 -34 -11 -146 -25 -68 -8
-80 -16 -64 -42 14 -24 69 -33 192 -33 54 0 77 -4 78 -12 0 -7 4 -3 9 10 6 14
18 22 33 22 35 0 90 40 110 81 15 32 17 63 14 260 -1 123 -3 212 -5 197z"/>
<path d="M4427 2324 c-3 -4 -32 -10 -64 -14 -55 -7 -56 -7 -13 -8 46 0 144 25
104 27 -11 1 -23 -2 -27 -5z"/>
<path d="M1831 2273 c-1 -28 -18 -32 -141 -36 l-95 -3 110 -2 c61 -1 116 2
123 7 8 5 12 19 9 32 -4 23 -4 23 -6 2z"/>
<path d="M1890 2151 c0 -5 -7 -17 -16 -25 -13 -14 -50 -16 -242 -17 -125 0
-222 -2 -217 -4 6 -2 121 -5 258 -7 204 -2 247 -1 247 11 0 10 -3 11 -13 2
-11 -8 -13 -5 -9 19 2 17 2 30 -2 30 -3 0 -6 -4 -6 -9z"/>
<path d="M1828 2023 c-7 -31 -11 -33 -50 -34 -24 -1 -113 -5 -198 -9 l-155 -6
203 -2 c220 -2 217 -3 210 55 l-3 28 -7 -32z"/>
<path d="M3233 1904 c-20 -21 -31 -24 -100 -24 -57 0 -74 -3 -66 -11 7 -7 38
-10 82 -7 58 3 73 8 90 27 12 13 21 28 21 33 0 11 -1 10 -27 -18z"/>
<path d="M3625 1900 c-16 -23 -27 -30 -54 -30 -41 0 -38 -7 4 -11 17 -2 33 -8
37 -14 5 -6 8 -2 8 8 0 9 4 17 10 17 14 0 33 41 23 51 -4 4 -17 -5 -28 -21z"/>
<path d="M2741 1890 c-13 -11 -19 -20 -14 -20 6 0 18 9 28 20 23 25 17 25 -14
0z"/>
<path d="M2246 1556 c-3 -28 -7 -102 -10 -164 -4 -93 -8 -119 -27 -148 -31
-51 -99 -74 -99 -33 0 12 -4 18 -11 13 -13 -8 -7 -304 6 -336 6 -15 21 -18 96
-18 l90 0 -3 364 c-2 338 -3 365 -19 369 -15 4 -19 -4 -23 -47z"/>
<path d="M2868 997 c-3 -19 -2 -25 4 -19 6 6 8 18 6 28 -3 14 -5 12 -10 -9z"/>
</g>
</svg>
