<svg width="24" height="24" viewBox="0 0 24 24" fill="none" xmlns="http://www.w3.org/2000/svg">
<g clip-path="url(#clip0_479_114)">
<path d="M12.0136 23.9994H11.9958C10.8109 23.9994 9.85046 23.0389 9.85046 21.8541V21.1885H14.159V21.8541C14.159 23.0389 13.1985 23.9994 12.0136 23.9994Z" fill="#102C53"/>
<path d="M0.703939 7.7654C0.654769 7.7654 0.604895 7.76024 0.554882 7.74941C0.1753 7.66748 -0.0659573 7.29333 0.0159775 6.91375C0.579021 4.30576 2.01593 1.91001 4.06195 0.167772C4.35763 -0.0839851 4.80138 -0.0483145 5.05309 0.24727C5.30485 0.542947 5.26927 0.986651 4.97359 1.23841C3.16128 2.78162 1.88876 4.90255 1.39049 7.21051C1.31939 7.54007 1.02793 7.7654 0.703939 7.7654Z" fill="#102C53"/>
<path d="M23.2961 7.76535C22.972 7.76535 22.6807 7.54008 22.6095 7.21051C22.1113 4.90256 20.8387 2.78163 19.0265 1.23846C18.7308 0.986702 18.6952 0.542951 18.947 0.24732C19.1987 -0.0483579 19.6424 -0.0839817 19.9381 0.167822C21.9841 1.90997 23.421 4.30576 23.984 6.91375C24.066 7.29334 23.8247 7.66748 23.4451 7.74941C23.3952 7.76015 23.3453 7.76535 23.2961 7.76535Z" fill="#102C53"/>
<path d="M3.40717 8.58805C3.36409 8.58805 3.32041 8.58406 3.27653 8.57581C2.89489 8.5041 2.64369 8.13656 2.71541 7.75497C3.10132 5.70144 4.18353 3.80457 5.76261 2.41378C6.05397 2.15706 6.49828 2.18532 6.75492 2.47669C7.0116 2.7681 6.98338 3.21237 6.69201 3.469C5.34717 4.65354 4.42568 6.26786 4.09738 8.01464C4.03391 8.35246 3.73875 8.58805 3.40717 8.58805Z" fill="#102C53"/>
<path d="M20.5928 8.58796C20.2612 8.58796 19.9661 8.35238 19.9026 8.01461C19.5743 6.26787 18.6529 4.6535 17.3081 3.46901C17.0167 3.21233 16.9886 2.76806 17.2452 2.47665C17.5019 2.18528 17.9461 2.15711 18.2375 2.41375C19.8165 3.80453 20.8987 5.70136 21.2846 7.75483C21.3563 8.13648 21.1051 8.50396 20.7234 8.57568C20.6796 8.58398 20.6359 8.58796 20.5928 8.58796Z" fill="#102C53"/>
<path d="M20.0277 16.9716C19.8607 16.6612 19.6568 16.3691 19.4172 16.1025C18.9135 15.5422 18.6361 14.8187 18.6361 14.0653V9.51033C18.6361 5.85373 15.6613 2.87891 12.0047 2.87891C8.34809 2.87891 5.37327 5.85373 5.37327 9.51033V14.0653C5.37327 14.8187 5.09587 15.5422 4.59217 16.1026C4.35255 16.3691 4.14865 16.6612 3.98169 16.9716H20.0277Z" fill="#102C53"/>
<path d="M3.50718 18.3779C3.47044 18.6087 3.45056 18.8432 3.45056 19.08V20.0852C3.45056 20.6938 3.94569 21.1889 4.55424 21.1889H19.4551C20.0637 21.1889 20.5588 20.6938 20.5588 20.0852V19.08C20.5588 18.8432 20.5389 18.6087 20.5022 18.3779H3.50718Z" fill="#102C53"/>
<path d="M12.0047 1.47313C12.4793 1.47313 12.9493 1.51546 13.4101 1.5973V1.40643C13.4101 0.630206 12.7809 0.000976562 12.0047 0.000976562C11.2285 0.000976562 10.5992 0.630253 10.5992 1.40643V1.59631C11.0557 1.51546 11.5253 1.47313 12.0047 1.47313Z" fill="#102C53"/>
</g>
<defs>
<clipPath id="clip0_479_114">
<rect width="24" height="24" fill="white"/>
</clipPath>
</defs>
</svg>
