<svg width="16" height="19" viewBox="0 0 16 19" fill="none" xmlns="http://www.w3.org/2000/svg">
<circle cx="8.2832" cy="8.125" r="7.5" fill="#EB2C3E"/>
<path d="M14.4454 18.9278L7.99843 13.9562L8.07026 12.4017L14.1486 10.902L14.4454 18.9278Z" fill="#EB2C3E"/>
<path d="M5.63155 10.7767C5.10711 10.2522 4.74995 9.58402 4.60526 8.85659C4.46056 8.12916 4.53483 7.37516 4.81865 6.68994C5.10248 6.00471 5.58313 5.41904 6.19981 5.00699C6.8165 4.59493 7.54152 4.375 8.2832 4.375C9.02488 4.375 9.74991 4.59493 10.3666 5.00699C10.9833 5.41904 11.4639 6.00471 11.7478 6.68994C12.0316 7.37516 12.1058 8.12916 11.9611 8.85659C11.8165 9.58402 11.4593 10.2522 10.9349 10.7767" stroke="#FFFCFC" stroke-width="1.5" stroke-linecap="round" stroke-linejoin="round"/>
<path d="M8.28418 8.1244L10.3611 7.08594" stroke="#FFFCFC" stroke-width="1.5" stroke-linecap="round" stroke-linejoin="round"/>
</svg>
