<svg width="30" height="31" viewBox="0 0 30 31" fill="none" xmlns="http://www.w3.org/2000/svg">
<ellipse cx="15" cy="15.5" rx="15" ry="15.5" fill="#F4F4F4"/>
<path fill-rule="evenodd" clip-rule="evenodd" d="M9.87723 14.1174L10.773 11.7318C11.1007 11.1086 11.6031 10.7217 12.193 10.5283H17.8077C18.3976 10.7217 18.8782 11.1086 19.2278 11.7318L20.1235 14.1174H21.2814C21.3688 14.1174 21.4343 14.1818 21.4343 14.2678V14.7406C21.4343 14.8266 21.3688 14.9125 21.2814 14.9125H20.6041C20.8008 15.149 20.9974 15.4283 21.194 15.7937C21.194 17.2336 21.2159 18.6735 21.2159 20.1349C21.2159 20.5003 20.91 20.8227 20.5168 20.8227H20.0361C19.6429 20.8227 19.337 20.5003 19.337 20.1349V19.2538H10.6637V20.1349C10.6637 20.5003 10.3579 20.8227 9.96462 20.8227H9.48398C9.09074 20.8227 8.78488 20.5003 8.78488 20.1349C8.78488 18.6735 8.80672 17.2336 8.80672 15.7937C9.00335 15.4283 9.19997 15.149 9.39659 14.9125H8.71934C8.63195 14.9125 8.56641 14.8266 8.56641 14.7406V14.2678C8.56641 14.1818 8.63195 14.1174 8.71934 14.1174H9.87723ZM12.3023 11.4739C11.9309 11.5384 11.6905 11.7748 11.5595 12.0757C11.2973 12.7849 11.0133 13.6016 10.773 14.3108H19.2278C18.9875 13.6016 18.6816 12.7849 18.4413 12.0757C18.2884 11.7748 18.0699 11.5384 17.6985 11.4739H12.3023ZM18.9875 15.8582C18.5505 15.8582 18.201 16.202 18.201 16.6319C18.201 17.0617 18.5505 17.4055 18.9875 17.4055C19.4026 17.4055 19.7521 17.0617 19.7521 16.6319C19.7521 16.202 19.4026 15.8582 18.9875 15.8582ZM11.0133 15.8582C11.4502 15.8582 11.7998 16.202 11.7998 16.6319C11.7998 17.0617 11.4502 17.4055 11.0133 17.4055C10.5982 17.4055 10.2486 17.0617 10.2486 16.6319C10.2486 16.202 10.5982 15.8582 11.0133 15.8582Z" fill="#4AA8BC"/>
</svg>
