<svg width="22" height="22" viewBox="0 0 22 22" fill="none" xmlns="http://www.w3.org/2000/svg">
<rect width="22" height="22" rx="3" fill="#2D3748"/>
<path d="M11.0568 18.5455V4H11.9886V18.5455H11.0568ZM13.7443 8.65341C13.6913 8.1572 13.4678 7.77083 13.0739 7.49432C12.6837 7.2178 12.1761 7.07955 11.5511 7.07955C11.1117 7.07955 10.7348 7.14583 10.4205 7.27841C10.1061 7.41099 9.86553 7.59091 9.69886 7.81818C9.5322 8.04546 9.44697 8.30493 9.44318 8.59659C9.44318 8.83902 9.49811 9.04924 9.60795 9.22727C9.72159 9.4053 9.875 9.55682 10.0682 9.68182C10.2614 9.80303 10.4754 9.9053 10.7102 9.98864C10.9451 10.072 11.1818 10.142 11.4205 10.1989L12.5114 10.4716C12.9508 10.5739 13.3731 10.7121 13.7784 10.8864C14.1875 11.0606 14.553 11.2803 14.875 11.5455C15.2008 11.8106 15.4583 12.1307 15.6477 12.5057C15.8371 12.8807 15.9318 13.3201 15.9318 13.8239C15.9318 14.5057 15.7576 15.1061 15.4091 15.625C15.0606 16.1402 14.5568 16.5436 13.8977 16.8352C13.2424 17.1231 12.4489 17.267 11.517 17.267C10.6117 17.267 9.82576 17.1269 9.15909 16.8466C8.49621 16.5663 7.97727 16.1572 7.60227 15.6193C7.23106 15.0814 7.0303 14.4261 7 13.6534H9.07386C9.10417 14.0587 9.22917 14.3958 9.44886 14.6648C9.66856 14.9337 9.95455 15.1345 10.3068 15.267C10.6629 15.3996 11.0606 15.4659 11.5 15.4659C11.9583 15.4659 12.3598 15.3977 12.7045 15.2614C13.053 15.1212 13.3258 14.928 13.5227 14.6818C13.7197 14.4318 13.8201 14.1402 13.8239 13.8068C13.8201 13.5038 13.7311 13.2538 13.5568 13.0568C13.3826 12.8561 13.1383 12.6894 12.8239 12.5568C12.5133 12.4205 12.1496 12.2992 11.733 12.1932L10.4091 11.8523C9.45076 11.6061 8.69318 11.233 8.13636 10.733C7.58333 10.2292 7.30682 9.56061 7.30682 8.72727C7.30682 8.04167 7.49242 7.44129 7.86364 6.92614C8.23864 6.41099 8.74811 6.01136 9.39205 5.72727C10.036 5.43939 10.7652 5.29545 11.5795 5.29545C12.4053 5.29545 13.1288 5.43939 13.75 5.72727C14.375 6.01136 14.8655 6.4072 15.2216 6.91477C15.5777 7.41856 15.7614 7.99811 15.7727 8.65341H13.7443Z" fill="white"/>
</svg>
