<svg width="16" height="15" viewBox="0 0 16 15" fill="none" xmlns="http://www.w3.org/2000/svg">
<path d="M7.64665 0.455253C10.9404 0.240596 13.7845 2.73669 13.9992 6.03045C14.103 7.62279 13.5713 9.10843 12.6242 10.2443L12.7843 14.5568L9.68181 12.1642C9.27926 12.2792 8.85874 12.3547 8.424 12.383C5.13022 12.5976 2.28611 10.1016 2.07146 6.80779C1.85687 3.51406 4.35293 0.669969 7.64665 0.455253Z" fill="#EB2C3E"/>
<path d="M7.84719 4.64941H8.35535H11.2736C11.7154 4.64941 12.0736 5.00759 12.0736 5.44941V8.14067C12.0736 8.5825 11.7154 8.94067 11.2736 8.94067H5.4377C4.99587 8.94067 4.6377 8.5825 4.6377 8.14067V6.79504L4.6377 5.53091" stroke="white" stroke-width="0.8"/>
<path d="M3.51562 6.25215C3.51562 6.08646 3.64994 5.95215 3.81562 5.95215H4.43173V7.63713H3.81562C3.64994 7.63713 3.51562 7.50281 3.51562 7.33713V6.25215Z" fill="white"/>
<rect x="10.1543" y="5.64453" width="0.8" height="2.26296" rx="0.4" fill="#FFFDFD"/>
<path d="M5.81605 2.48652C5.89303 2.35319 6.08548 2.35319 6.16246 2.48652L7.50159 4.80596C7.57857 4.93929 7.48234 5.10596 7.32838 5.10596H4.65013C4.49617 5.10596 4.39995 4.93929 4.47693 4.80596L5.81605 2.48652Z" fill="white"/>
<path d="M5.74929 3.61839C5.74172 3.48034 5.85161 3.36426 5.98986 3.36426C6.12791 3.36426 6.23773 3.48002 6.23046 3.61788L6.17936 4.58683C6.17407 4.68706 6.09126 4.76562 5.99088 4.76562C5.89066 4.76562 5.80792 4.68729 5.80243 4.58723L5.74929 3.61839Z" fill="#EB2C3E"/>
</svg>
