<svg width="26" height="28" viewBox="0 0 26 28" fill="none" xmlns="http://www.w3.org/2000/svg">
<path fill-rule="evenodd" clip-rule="evenodd" d="M6.48214 0H17.2825C18.8534 0 20.1385 1.2847 20.1385 2.85599V14.1693H21.3683V16.2551H23.1481V11.9414C22.2128 11.7072 21.5153 10.8574 21.5153 9.85226V7.18416H21.9923V5.15491C21.9923 4.49294 23.0288 4.49294 23.0288 5.15491V7.18416H24.4861V5.15491C24.4861 4.49294 25.523 4.49294 25.523 5.15491V7.18416H26V9.85226C26 10.6811 25.5255 11.4041 24.8346 11.7638V17.942H21.3683V19.3019H20.1385V21.0871H21.7647C22.8692 21.0871 23.7647 21.9825 23.7647 23.0871V25.5585C23.7647 26.6631 22.8692 27.5585 21.7647 27.5585H2C0.895433 27.5585 0 26.6631 0 25.5585V23.0871C0 21.9825 0.895431 21.0871 2 21.0871H3.62615V2.85599C3.62615 1.2847 4.91126 0 6.48214 0ZM13.8951 8.27973L10.5349 13.9446L11.654 9.48969L9.67882 9.48019L10.1958 5.13054L14.0859 5.00748L12.2102 8.23637L13.8951 8.27973ZM6.30374 3.62161H17.4605V14.868H6.30374V3.62161Z" fill="#2D3748"/>
</svg>
