<svg width="21" height="35" viewBox="0 0 21 35" fill="none" xmlns="http://www.w3.org/2000/svg">
<path d="M16.8213 3.75H4.32129V2.5C4.32129 1.83696 4.58468 1.20107 5.05352 0.732233C5.52236 0.263392 6.15825 0 6.82129 0H14.3213C14.9843 0 15.6202 0.263392 16.0891 0.732233C16.5579 1.20107 16.8213 1.83696 16.8213 2.5V3.75ZM20.5713 10V31.25C20.5713 32.2446 20.1762 33.1984 19.4729 33.9016C18.7697 34.6049 17.8159 35 16.8213 35H4.32129C3.32673 35 2.3729 34.6049 1.66964 33.9016C0.966377 33.1984 0.571289 32.2446 0.571289 31.25V10C0.571289 9.00544 0.966377 8.05161 1.66964 7.34835C2.3729 6.64509 3.32673 6.25 4.32129 6.25H16.8213C17.8159 6.25 18.7697 6.64509 19.4729 7.34835C20.1762 8.05161 20.5713 9.00544 20.5713 10ZM14.3213 23.1375C14.3357 22.7241 14.2474 22.3135 14.0641 21.9427C13.8809 21.5718 13.6085 21.2522 13.2713 21.0125L9.32129 18.1375L12.4213 16.0375C12.5575 15.9456 12.6743 15.8277 12.765 15.6906C12.8557 15.5536 12.9185 15.4 12.9499 15.2386C12.9812 15.0773 12.9805 14.9114 12.9477 14.7503C12.9149 14.5893 12.8507 14.4362 12.7588 14.3C12.6669 14.1638 12.549 14.0469 12.4119 13.9563C12.2749 13.8656 12.1213 13.8027 11.9599 13.7714C11.7986 13.7401 11.6327 13.7408 11.4716 13.7736C11.3106 13.8064 11.1575 13.8706 11.0213 13.9625L7.94629 16.05C7.60414 16.2753 7.32259 16.5812 7.12642 16.9409C6.93025 17.3005 6.82547 17.7029 6.82129 18.1125C6.80683 18.5259 6.89519 18.9365 7.07844 19.3073C7.2617 19.6782 7.53412 19.9978 7.87129 20.2375L11.8213 23.1125L8.69629 25.2125C8.47374 25.3621 8.30518 25.5792 8.21549 25.8319C8.12581 26.0846 8.11974 26.3594 8.1982 26.6158C8.27666 26.8722 8.43548 27.0965 8.65121 27.2558C8.86695 27.415 9.12816 27.5006 9.39629 27.5C9.64559 27.5006 9.88937 27.4266 10.0963 27.2875L13.1713 25.2C13.5181 24.9776 13.8045 24.6729 14.0052 24.3131C14.2058 23.9533 14.3144 23.5494 14.3213 23.1375Z" fill="#2CA67E"/>
</svg>
