<svg width="29" height="24" viewBox="0 0 29 24" fill="none" xmlns="http://www.w3.org/2000/svg">
<path d="M27.993 4.24023H0.823324C0.604965 4.24023 0.395549 4.32698 0.241146 4.48138C0.0867428 4.63578 0 4.8452 0 5.06356V7.23302C0 7.45138 0.0867428 7.66079 0.241146 7.8152C0.395549 7.9696 0.604965 8.05634 0.823324 8.05634H27.993C28.2114 8.05634 28.4208 7.9696 28.5752 7.8152C28.7296 7.66079 28.8163 7.45138 28.8163 7.23302V5.06356C28.8163 4.8452 28.7296 4.63578 28.5752 4.48138C28.4208 4.32698 28.2114 4.24023 27.993 4.24023Z" fill="#102C53"/>
<path d="M1.33789 23.5886C1.33789 23.6977 1.38126 23.8025 1.45846 23.8797C1.53567 23.9569 1.64037 24.0002 1.74955 24.0002H27.0668C27.1759 24.0002 27.2807 23.9569 27.3579 23.8797C27.4351 23.8025 27.4784 23.6977 27.4784 23.5886V8.87988H1.33789V23.5886ZM11.086 17.1296L13.0703 12.6013C13.103 12.5284 13.1563 12.4667 13.2235 12.4236C13.2908 12.3804 13.3691 12.3578 13.449 12.3584H16.6106C16.6798 12.3583 16.7479 12.3755 16.8086 12.4087C16.8694 12.4418 16.9208 12.4897 16.9582 12.548C16.9955 12.6062 17.0176 12.673 17.0223 12.742C17.027 12.8111 17.0142 12.8802 16.9852 12.943L15.7502 15.6558H17.3721C17.4558 15.6553 17.5376 15.6801 17.6067 15.7272C17.6758 15.7743 17.729 15.8413 17.7591 15.9193C17.789 15.9981 17.7939 16.0842 17.7733 16.1659C17.7527 16.2476 17.7075 16.321 17.6438 16.3762L12.144 21.2339C12.0765 21.2938 11.9912 21.3299 11.9012 21.3366C11.8112 21.3433 11.7215 21.3202 11.6459 21.2709C11.5693 21.2209 11.5115 21.1468 11.4817 21.0604C11.4519 20.9739 11.4517 20.88 11.4812 20.7934L12.531 17.71H11.4648C11.3959 17.7099 11.3281 17.6925 11.2677 17.6594C11.2073 17.6264 11.1562 17.5786 11.119 17.5207C11.0814 17.4634 11.0587 17.3976 11.0529 17.3293C11.0472 17.261 11.0585 17.1924 11.086 17.1296Z" fill="#102C53"/>
<path d="M25.2473 2.26414C25.2473 2.15496 25.2039 2.05025 25.1267 1.97305C25.0495 1.89585 24.9448 1.85248 24.8356 1.85248H23.9794V0.411662C23.9794 0.302482 23.936 0.197775 23.8588 0.120573C23.7816 0.0433715 23.6769 0 23.5677 0H20.4802C20.3711 0 20.2664 0.0433715 20.1892 0.120573C20.112 0.197775 20.0686 0.302482 20.0686 0.411662V1.85248H19.2123C19.1031 1.85248 18.9984 1.89585 18.9212 1.97305C18.844 2.05025 18.8007 2.15496 18.8007 2.26414V3.41679H25.2473V2.26414Z" fill="#102C53"/>
<path d="M10.0157 2.26414C10.0157 2.15496 9.97235 2.05025 9.89515 1.97305C9.81794 1.89585 9.71324 1.85248 9.60406 1.85248H8.7478V0.411662C8.7478 0.302482 8.70443 0.197775 8.62723 0.120573C8.55003 0.0433715 8.44532 0 8.33614 0H5.24867C5.13949 0 5.03479 0.0433715 4.95758 0.120573C4.88038 0.197775 4.83701 0.302482 4.83701 0.411662V1.85248H3.98075C3.87157 1.85248 3.76687 1.89585 3.68966 1.97305C3.61246 2.05025 3.56909 2.15496 3.56909 2.26414V3.41679H10.0157V2.26414Z" fill="#102C53"/>
</svg>
