<svg width="70" height="70" viewBox="0 0 70 70" fill="none" xmlns="http://www.w3.org/2000/svg">
<path fill-rule="evenodd" clip-rule="evenodd" d="M11.8348 25.5593L0 13.7245L13.7245 0L25.5593 11.8348L29.1594 8.23469L42.9568 22.0321L40.9942 23.9955L23.0829 41.9068L22.0321 42.9568L8.23469 29.1594L11.8348 25.5593ZM22.0321 39.0307L39.0307 22.0321L29.1594 12.1607L12.1607 29.1594L22.0321 39.0307Z" fill="#4680FF"/>
<path fill-rule="evenodd" clip-rule="evenodd" d="M44.4405 58.1652L40.8404 61.7653L27.043 47.9679L30.6062 44.4038L27.043 40.8406L40.8404 27.0432L44.4036 30.6064L47.9677 27.0432L61.765 40.8406L58.1649 44.4407L69.9997 56.2755L56.2753 70L44.4405 58.1652ZM40.8404 57.8392L57.839 40.8406L47.9677 30.9693L30.969 47.9679L40.8404 57.8392ZM40.8404 30.9693L30.969 40.8406L32.5688 42.4412L42.441 32.569L40.8404 30.9693Z" fill="#4680FF"/>
</svg>
