<svg width="60" height="24" viewBox="0 0 60 24" fill="none" xmlns="http://www.w3.org/2000/svg">
<path d="M0 12C0 5.37258 5.37258 0 12 0H56C58.2091 0 60 1.79086 60 4V14C60 19.5228 55.5228 24 50 24H0V12Z" fill="#2396E6"/>
<path d="M10.1241 6.8H16.5241C17.5694 6.8 18.3374 7.04 18.8281 7.52C19.3187 7.98933 19.5641 8.70933 19.5641 9.68C19.5641 10.32 19.4254 10.8427 19.1481 11.248C18.8707 11.6427 18.5294 11.92 18.1241 12.08C18.9881 12.3147 19.5747 12.8907 19.8841 13.808C19.9907 14.1387 20.0441 14.5227 20.0441 14.96C20.0441 16.0053 19.7987 16.7733 19.3081 17.264C18.8174 17.7547 18.0494 18 17.0041 18H10.1241V6.8ZM17.1641 14.48C17.1641 13.84 16.8441 13.52 16.2041 13.52H13.0041V15.76H16.2041C16.8441 15.76 17.1641 15.44 17.1641 14.8V14.48ZM16.6841 10C16.6841 9.36 16.3641 9.04 15.7241 9.04H13.0041V11.28H15.7241C16.3641 11.28 16.6841 10.96 16.6841 10.32V10ZM30.3634 18H21.4834V6.8H30.3634V9.04H24.3634V11.2H29.0834V13.44H24.3634V15.76H30.3634V18ZM37.0797 18H34.1997V9.04H30.8397V6.8H40.4397V9.04H37.0797V18ZM42.4366 18H39.3166L43.5566 6.8H46.7566L50.9966 18H47.8766L47.1566 16H43.1566L42.4366 18ZM43.8766 13.92H46.4366L45.1566 10.16L43.8766 13.92Z" fill="white"/>
</svg>
