<svg width="18" height="18" viewBox="0 0 18 18" fill="none" xmlns="http://www.w3.org/2000/svg">
<path d="M8.6765 15.9006C8.86066 16.0748 9.13938 16.0748 9.32354 15.9006C10.5213 14.7679 14.6348 10.6442 14.6348 7.43459C14.6348 4.32258 12.112 1.7998 9.00002 1.7998C5.88801 1.7998 3.36523 4.32258 3.36523 7.43459C3.36523 10.6442 7.47875 14.7679 8.6765 15.9006Z" fill="#161616"/>
<path d="M10.8002 7.19992C10.8002 8.19403 9.99436 8.99992 9.00025 8.99992C8.00613 8.99992 7.20025 8.19403 7.20025 7.19992C7.20025 6.20581 8.00613 5.39992 9.00025 5.39992C9.99436 5.39992 10.8002 6.20581 10.8002 7.19992Z" fill="#161616"/>
<path d="M8.6765 15.9006C8.86066 16.0748 9.13938 16.0748 9.32354 15.9006C10.5213 14.7679 14.6348 10.6442 14.6348 7.43459C14.6348 4.32258 12.112 1.7998 9.00002 1.7998C5.88801 1.7998 3.36523 4.32258 3.36523 7.43459C3.36523 10.6442 7.47875 14.7679 8.6765 15.9006Z" stroke="#ECECEC"/>
<path d="M10.8002 7.19992C10.8002 8.19403 9.99436 8.99992 9.00025 8.99992C8.00613 8.99992 7.20025 8.19403 7.20025 7.19992C7.20025 6.20581 8.00613 5.39992 9.00025 5.39992C9.99436 5.39992 10.8002 6.20581 10.8002 7.19992Z" stroke="#ECECEC"/>
</svg>
