<svg width="28" height="26" viewBox="0 0 28 26" fill="none" xmlns="http://www.w3.org/2000/svg">
<path d="M2.13043 23.637V23.637C1.50611 23.637 1 23.1309 1 22.5066V20.6733C1 19.5688 1.89543 18.6733 3 18.6733H3.04171C3.55136 18.6733 4.04779 18.5111 4.45907 18.2101L6.50162 16.7153C7.7012 15.8375 9.1491 15.3643 10.6356 15.3643H14.3397C15.2276 15.3643 16.0996 15.6007 16.8658 16.0494L20.2106 18.0076C20.9598 18.4462 21.7953 18.717 22.6594 18.8013L24.2913 18.9606C25.8281 19.1105 27 20.4024 27 21.9464V22.137C27 22.9654 26.3284 23.637 25.5 23.637H24.7391" stroke="#DC3B3B" stroke-width="1.5" stroke-linecap="round"/>
<circle cx="5.72887" cy="23.6371" r="1.61364" stroke="#DC3B3B" stroke-width="1.5"/>
<circle cx="21.0902" cy="23.6371" r="1.61364" stroke="#DC3B3B" stroke-width="1.5"/>
<path d="M9.27344 23.6367H17.5462" stroke="#DC3B3B" stroke-width="1.5" stroke-linecap="round"/>
<path d="M10.0215 3.21406C10.0215 2.67601 10.3658 2.19832 10.8762 2.02819L13.8782 1.02767C14.34 0.873757 14.8393 0.873756 15.3011 1.02767L18.3031 2.02819C18.8135 2.19832 19.1578 2.67601 19.1578 3.21406V7.20674C19.1578 8.06868 18.8154 8.89533 18.206 9.50482L15.4736 12.2373C14.9854 12.7254 14.1939 12.7254 13.7058 12.2373L10.9734 9.50482C10.3639 8.89533 10.0215 8.06868 10.0215 7.20674V3.21406Z" stroke="#DC3B3B" stroke-width="1.5"/>
<path d="M14.5898 3.5459V7.09135" stroke="#DC3B3B" stroke-width="1.5" stroke-linecap="round"/>
<path d="M14.5898 9.4541V9.4542" stroke="#DC3B3B" stroke-width="1.5" stroke-linecap="round"/>
</svg>
