<svg width="38" height="30" viewBox="0 0 38 30" fill="none" xmlns="http://www.w3.org/2000/svg">
<path d="M22.3868 27.1193C22.3457 26.5844 22.4691 26.0082 22.7984 25.5144C21.6461 25.3086 20.7819 24.2798 20.823 23.0864V22.3868V21.6872C20.823 20.535 21.6461 19.5062 22.7984 19.3004C22.1399 18.3128 22.2634 17.037 23.0864 16.1728L23.5802 15.679L24.0741 15.1852C24.5268 14.7325 25.144 14.4856 25.8025 14.4856C26.2963 14.4856 26.749 14.609 27.1605 14.8971C27.4074 13.7448 28.3951 12.9218 29.5473 12.9218H30.2469H30.9465C32.1399 12.9218 33.1276 13.786 33.3333 14.9383C33.7449 14.6502 34.2387 14.4856 34.7325 14.4856C34.9383 14.4856 35.144 14.5267 35.3498 14.5679C34.8971 13.3745 34.1564 12.3045 33.1687 11.358C33.0864 11.2757 33.0041 11.2757 32.9218 11.1934C32.963 11.1523 32.963 11.1111 33.0041 11.07C33.2922 11.07 33.5802 11.07 33.8272 11.07C34.5268 11.07 35.2263 11.07 35.9259 11.07C36.6255 11.07 37.0782 10.6173 37.1193 9.91769C37.1193 9.46502 37.1193 8.97119 37.1193 8.51852C37.0782 7.86008 36.6667 7.40741 36.0082 7.40741C35.7613 7.40741 35.5144 7.40741 35.2675 7.40741C33.9095 7.40741 32.963 8.97119 32.963 8.97119C32.8807 9.17695 32.7572 9.34156 32.5926 9.58847C32.428 9.01234 32.3045 8.51852 32.1811 8.06584C31.6049 6.00823 30.6996 4.07407 29.465 2.34568C28.6008 1.11111 27.3663 0.699585 26.0082 0.452671C23.5391 0.0411485 21.0288 0 18.5597 0C16.0494 0 13.5802 0.0411485 11.1111 0.452671C9.75309 0.699585 8.51852 1.15226 7.65432 2.34568C6.41976 4.11523 5.5144 6.00823 4.93827 8.06584C4.81482 8.51852 4.69136 9.01234 4.52675 9.58847C4.36214 9.30041 4.23869 9.1358 4.15638 8.97119C4.15638 8.97119 3.20988 7.40741 1.85185 7.40741C1.60494 7.40741 1.35803 7.40741 1.11112 7.40741C0.45268 7.44856 0.0411523 7.90123 0 8.51852C0 8.97119 0 9.46502 0 9.91769C0 10.6173 0.493831 11.07 1.19342 11.07C1.89301 11.07 2.59259 11.07 3.29218 11.07C3.58025 11.07 3.86831 11.07 4.11523 11.07C4.15638 11.1111 4.15638 11.1523 4.19754 11.1934C4.11523 11.2346 3.99177 11.2757 3.95062 11.358C2.18107 13.0453 1.23457 15.1029 1.27572 17.572C1.31687 19.0535 1.44033 20.4938 1.60494 21.9753C1.7284 23.0864 1.97531 24.1975 2.51029 25.2263C2.71605 25.679 3.00412 26.0082 3.49794 26.0905C3.74486 26.1317 3.74486 26.2963 3.74486 26.4609C3.74486 27.0782 3.74486 27.6543 3.74486 28.2716C3.74486 29.1358 4.23869 29.6296 5.10288 29.6296C5.84363 29.6296 6.54322 29.6296 7.28396 29.6296C8.23046 29.6296 8.68313 29.1358 8.68313 28.2305C8.68313 27.7778 8.68313 27.284 8.68313 26.7901C12.0165 27.037 15.3086 27.1605 18.6008 27.1605C19.8765 27.2016 21.1523 27.1605 22.3868 27.1193ZM6.66667 9.95885C7.20165 7.73662 8.02469 5.67901 9.17696 3.7037C9.25926 3.58025 9.30041 3.49794 9.38272 3.45679C9.46502 3.37448 9.54733 3.33333 9.67078 3.29218C10.4115 2.96296 12.6337 2.30453 18.5597 2.26337C24.4856 2.30453 26.7078 2.96296 27.4486 3.29218C27.572 3.33333 27.6543 3.37448 27.7366 3.45679C27.8189 3.53909 27.9012 3.6214 27.9424 3.7037C29.0947 5.63786 29.9177 7.73662 30.4527 9.95885C30.4938 10.1235 30.4938 10.2881 30.535 10.3704C26.5432 10.0412 22.5103 9.83539 18.5185 9.83539C14.5267 9.83539 10.535 10 6.50206 10.3704C6.62552 10.2881 6.66667 10.1235 6.66667 9.95885ZM7.3251 19.3827C5.88478 19.3827 4.69136 18.1893 4.69136 16.749C4.69136 15.3086 5.88478 14.1152 7.3251 14.1152C8.76543 14.1152 9.95885 15.3086 9.95885 16.749C9.95885 18.1893 8.76543 19.3827 7.3251 19.3827ZM37.4486 21.1934L36.0494 20.9465C35.9259 20.4115 35.7202 19.8765 35.4321 19.4239L36.2551 18.2716C36.4198 18.0658 36.3786 17.7778 36.214 17.572L35.7202 17.0782L35.2263 16.5844C35.0617 16.3786 34.7325 16.3786 34.5268 16.5432L33.3745 17.3662C32.8807 17.0782 32.3868 16.8724 31.8107 16.7078L31.5638 15.3086C31.5226 15.0617 31.3169 14.856 31.0288 14.856H30.3292H29.6296C29.3827 14.856 29.1358 15.0617 29.0947 15.3086L28.8477 16.749C28.3128 16.8724 27.7778 17.1193 27.3251 17.3662L26.1728 16.5432C25.9671 16.3786 25.679 16.4197 25.4733 16.5844L24.9794 17.0782L24.4856 17.572C24.2798 17.7366 24.2798 18.0658 24.4445 18.2716L25.2675 19.465C24.9794 19.9177 24.7737 20.4527 24.6502 20.9877L23.251 21.2346C23.0041 21.2757 22.7984 21.4815 22.7984 21.7695V22.4691V23.1687C22.7984 23.4156 23.0041 23.6626 23.251 23.7037L24.6914 23.9506C24.8148 24.4856 25.0617 25.0206 25.3086 25.4732L24.4856 26.6255C24.321 26.8313 24.3621 27.1193 24.5268 27.3251L25.0206 27.8189L25.5144 28.3128C25.679 28.5185 26.0082 28.5185 26.214 28.3539L27.4074 27.5309C27.8601 27.8189 28.3539 28.0247 28.8889 28.1481L29.1358 29.5473C29.177 29.7942 29.3827 30 29.6708 30H30.3704H31.07C31.3169 30 31.5638 29.7942 31.6049 29.5473L31.8519 28.1481C32.3868 28.0247 32.9218 27.8189 33.3745 27.5309L34.5268 28.3539C34.7325 28.5185 35.0206 28.4774 35.2263 28.3128L35.7202 27.8189L36.214 27.3251C36.4198 27.1605 36.4198 26.8313 36.2551 26.6255L35.4321 25.4732C35.7202 25.0206 35.9259 24.4856 36.0905 23.9506L37.4897 23.7037C37.7366 23.6626 37.9424 23.4568 37.9424 23.1687V22.4691V21.7695C37.9012 21.4815 37.6955 21.2346 37.4486 21.1934ZM31.1111 25.9671C29.1358 26.4198 27.1605 25.1852 26.7078 23.2099C26.2551 21.2346 27.4897 19.2593 29.465 18.8066C31.4403 18.3539 33.4156 19.5885 33.8683 21.5638C34.321 23.5391 33.0864 25.5144 31.1111 25.9671Z" fill="#102C53"/>
</svg>
