<svg width="34" height="27" viewBox="0 0 34 27" fill="none" xmlns="http://www.w3.org/2000/svg">
<path fill-rule="evenodd" clip-rule="evenodd" d="M3.41256 9.34363L5.74448 3.13319C6.59762 1.51065 7.90577 0.503549 9.44143 0H24.0586C25.5942 0.503549 26.8455 1.51065 27.7555 3.13319L30.0874 9.34363H33.1019C33.3294 9.34363 33.5 9.51148 33.5 9.73528V10.9662C33.5 11.19 33.3294 11.4138 33.1019 11.4138H31.3387C31.8506 12.0292 32.3625 12.7566 32.8744 13.7077C32.8744 17.4564 32.9312 21.205 32.9312 25.0096C32.9312 25.9608 32.135 26.8 31.1112 26.8H29.8599C28.8362 26.8 28.0399 25.9608 28.0399 25.0096V22.7157H5.4601V25.0096C5.4601 25.9608 4.66384 26.8 3.64007 26.8H2.38879C1.36503 26.8 0.568761 25.9608 0.568761 25.0096C0.568761 21.205 0.625637 17.4564 0.625637 13.7077C1.13752 12.7566 1.64941 12.0292 2.16129 11.4138H0.398132C0.170628 11.4138 0 11.19 0 10.9662V9.73528C0 9.51148 0.170628 9.34363 0.398132 9.34363H3.41256ZM9.72581 2.4618C8.75891 2.62964 8.13328 3.24509 7.79202 4.02839C7.10951 5.87474 6.37012 8.00083 5.74448 9.84718H27.7555C27.1299 8.00083 26.3336 5.87474 25.708 4.02839C25.3098 3.24509 24.7411 2.62964 23.7742 2.4618H9.72581ZM27.1299 13.8756C25.9924 13.8756 25.0823 14.7708 25.0823 15.8898C25.0823 17.0088 25.9924 17.904 27.1299 17.904C28.2105 17.904 29.1205 17.0088 29.1205 15.8898C29.1205 14.7708 28.2105 13.8756 27.1299 13.8756ZM6.37012 13.8756C7.50764 13.8756 8.41766 14.7708 8.41766 15.8898C8.41766 17.0088 7.50764 17.904 6.37012 17.904C5.28947 17.904 4.37946 17.0088 4.37946 15.8898C4.37946 14.7708 5.28947 13.8756 6.37012 13.8756Z" fill="#102C53"/>
</svg>
