<svg width="16" height="17" viewBox="0 0 16 17" fill="none" xmlns="http://www.w3.org/2000/svg">
<path d="M4.79961 4.17391V4.57391C4.94188 4.57391 5.07344 4.49834 5.14512 4.37545L4.79961 4.17391ZM5.91961 2.25391V1.85391C5.77734 1.85391 5.64578 1.92947 5.5741 2.05236L5.91961 2.25391ZM10.0796 2.25391L10.4251 2.05236C10.3534 1.92947 10.2219 1.85391 10.0796 1.85391V2.25391ZM11.1996 4.17391L10.8541 4.37545C10.9258 4.49834 11.0573 4.57391 11.1996 4.57391V4.17391ZM1.59961 12.3339H1.99961V5.7739H1.59961H1.19961V12.3339H1.59961ZM3.19961 4.17391V4.57391H4.79961V4.17391V3.77391H3.19961V4.17391ZM4.79961 4.17391L5.14512 4.37545L6.26512 2.45545L5.91961 2.25391L5.5741 2.05236L4.4541 3.97236L4.79961 4.17391ZM5.91961 2.25391V2.65391H10.0796V2.25391V1.85391H5.91961V2.25391ZM10.0796 2.25391L9.7341 2.45545L10.8541 4.37545L11.1996 4.17391L11.5451 3.97236L10.4251 2.05236L10.0796 2.25391ZM11.1996 4.17391V4.57391H12.7996V4.17391V3.77391H11.1996V4.17391ZM14.3996 5.77391H13.9996V12.3339H14.3996H14.7996V5.77391H14.3996ZM14.3996 12.3339H13.9996C13.9996 12.9966 13.4623 13.5339 12.7996 13.5339V13.9339V14.3339C13.9042 14.3339 14.7996 13.4385 14.7996 12.3339H14.3996ZM12.7996 4.17391V4.57391C13.4623 4.57391 13.9996 5.11116 13.9996 5.77391H14.3996H14.7996C14.7996 4.66934 13.9042 3.77391 12.7996 3.77391V4.17391ZM1.59961 5.7739H1.99961C1.99961 5.11116 2.53687 4.57391 3.19961 4.57391V4.17391V3.77391C2.09504 3.77391 1.19961 4.66933 1.19961 5.7739H1.59961ZM3.19961 13.9339V13.5339C2.53687 13.5339 1.99961 12.9966 1.99961 12.3339H1.59961H1.19961C1.19961 13.4385 2.09504 14.3339 3.19961 14.3339V13.9339ZM10.3996 8.65391H9.99961C9.99961 9.75847 9.10418 10.6539 7.99961 10.6539V11.0539V11.4539C9.54601 11.4539 10.7996 10.2003 10.7996 8.65391H10.3996ZM7.99961 11.0539V10.6539C6.89504 10.6539 5.99961 9.75847 5.99961 8.65391H5.59961H5.19961C5.19961 10.2003 6.45321 11.4539 7.99961 11.4539V11.0539ZM5.59961 8.65391H5.99961C5.99961 7.54934 6.89504 6.65391 7.99961 6.65391V6.25391V5.85391C6.45321 5.85391 5.19961 7.10751 5.19961 8.65391H5.59961ZM7.99961 6.25391V6.65391C9.10418 6.65391 9.99961 7.54934 9.99961 8.65391H10.3996H10.7996C10.7996 7.10751 9.54601 5.85391 7.99961 5.85391V6.25391ZM12.7996 13.9339V13.5339H3.19961V13.9339V14.3339H12.7996V13.9339Z" fill="#59646B"/>
</svg>
