<svg width="33" height="33" viewBox="0 0 33 33" fill="none" xmlns="http://www.w3.org/2000/svg">
<circle cx="16.4824" cy="16.4492" r="15.75" fill="#F6F6F6" stroke="#E6E6E6" stroke-width="0.5"/>
<rect width="16" height="16" transform="translate(8.48242 8.44922)" fill="#F6F6F6"/>
<path d="M13.2824 12.5294V13.0294C13.4602 13.0294 13.6247 12.9349 13.7143 12.7813L13.2824 12.5294ZM14.4024 10.6094V10.1094C14.2246 10.1094 14.0601 10.2038 13.9705 10.3574L14.4024 10.6094ZM18.5624 10.6094L18.9943 10.3574C18.9047 10.2038 18.7402 10.1094 18.5624 10.1094V10.6094ZM19.6824 12.5294L19.2505 12.7813C19.3401 12.9349 19.5046 13.0294 19.6824 13.0294V12.5294ZM10.0824 20.6894H10.5824V14.1294H10.0824H9.5824V20.6894H10.0824ZM11.6824 12.5294V13.0294H13.2824V12.5294V12.0294H11.6824V12.5294ZM13.2824 12.5294L13.7143 12.7813L14.8343 10.8613L14.4024 10.6094L13.9705 10.3574L12.8505 12.2774L13.2824 12.5294ZM14.4024 10.6094V11.1094H18.5624V10.6094V10.1094H14.4024V10.6094ZM18.5624 10.6094L18.1305 10.8613L19.2505 12.7813L19.6824 12.5294L20.1143 12.2774L18.9943 10.3574L18.5624 10.6094ZM19.6824 12.5294V13.0294H21.2824V12.5294V12.0294H19.6824V12.5294ZM22.8824 14.1294H22.3824V20.6894H22.8824H23.3824V14.1294H22.8824ZM22.8824 20.6894H22.3824C22.3824 21.2969 21.8899 21.7894 21.2824 21.7894V22.2894V22.7894C22.4422 22.7894 23.3824 21.8492 23.3824 20.6894H22.8824ZM21.2824 12.5294V13.0294C21.8899 13.0294 22.3824 13.5219 22.3824 14.1294H22.8824H23.3824C23.3824 12.9696 22.4422 12.0294 21.2824 12.0294V12.5294ZM10.0824 14.1294H10.5824C10.5824 13.5219 11.0749 13.0294 11.6824 13.0294V12.5294V12.0294C10.5226 12.0294 9.5824 12.9696 9.5824 14.1294H10.0824ZM11.6824 22.2894V21.7894C11.0749 21.7894 10.5824 21.2969 10.5824 20.6894H10.0824H9.5824C9.5824 21.8492 10.5226 22.7894 11.6824 22.7894V22.2894ZM18.8824 17.0094H18.3824C18.3824 18.0587 17.5317 18.9094 16.4824 18.9094V19.4094V19.9094C18.084 19.9094 19.3824 18.611 19.3824 17.0094H18.8824ZM16.4824 19.4094V18.9094C15.4331 18.9094 14.5824 18.0587 14.5824 17.0094H14.0824H13.5824C13.5824 18.611 14.8808 19.9094 16.4824 19.9094V19.4094ZM14.0824 17.0094H14.5824C14.5824 15.96 15.4331 15.1094 16.4824 15.1094V14.6094V14.1094C14.8808 14.1094 13.5824 15.4077 13.5824 17.0094H14.0824ZM16.4824 14.6094V15.1094C17.5317 15.1094 18.3824 15.96 18.3824 17.0094H18.8824H19.3824C19.3824 15.4077 18.084 14.1094 16.4824 14.1094V14.6094ZM21.2824 22.2894V21.7894H11.6824V22.2894V22.7894H21.2824V22.2894Z" fill="#FA751A"/>
</svg>
