<svg width="33" height="33" viewBox="0 0 33 33" fill="none" xmlns="http://www.w3.org/2000/svg">
<circle cx="16.7617" cy="16.2266" r="15.75" stroke="#E6E6E6" stroke-width="0.5"/>
<path d="M13.5618 12.3067V12.8067C13.7396 12.8067 13.9041 12.7123 13.9937 12.5587L13.5618 12.3067ZM14.6818 10.3867V9.88672C14.504 9.88672 14.3395 9.98117 14.2499 10.1348L14.6818 10.3867ZM18.8418 10.3867L19.2737 10.1348C19.1841 9.98117 19.0196 9.88672 18.8418 9.88672V10.3867ZM19.9618 12.3067L19.5299 12.5587C19.6195 12.7123 19.784 12.8067 19.9618 12.8067V12.3067ZM10.3618 20.4667H10.8618V13.9067H10.3618H9.86182V20.4667H10.3618ZM11.9618 12.3067V12.8067H13.5618V12.3067V11.8067H11.9618V12.3067ZM13.5618 12.3067L13.9937 12.5587L15.1137 10.6387L14.6818 10.3867L14.2499 10.1348L13.1299 12.0548L13.5618 12.3067ZM14.6818 10.3867V10.8867H18.8418V10.3867V9.88672H14.6818V10.3867ZM18.8418 10.3867L18.4099 10.6387L19.5299 12.5587L19.9618 12.3067L20.3937 12.0548L19.2737 10.1348L18.8418 10.3867ZM19.9618 12.3067V12.8067H21.5618V12.3067V11.8067H19.9618V12.3067ZM23.1618 13.9067H22.6618V20.4667H23.1618H23.6618V13.9067H23.1618ZM23.1618 20.4667H22.6618C22.6618 21.0742 22.1693 21.5667 21.5618 21.5667V22.0667V22.5667C22.7216 22.5667 23.6618 21.6265 23.6618 20.4667H23.1618ZM21.5618 12.3067V12.8067C22.1693 12.8067 22.6618 13.2992 22.6618 13.9067H23.1618H23.6618C23.6618 12.7469 22.7216 11.8067 21.5618 11.8067V12.3067ZM10.3618 13.9067H10.8618C10.8618 13.2992 11.3543 12.8067 11.9618 12.8067V12.3067V11.8067C10.802 11.8067 9.86182 12.7469 9.86182 13.9067H10.3618ZM11.9618 22.0667V21.5667C11.3543 21.5667 10.8618 21.0742 10.8618 20.4667H10.3618H9.86182C9.86182 21.6265 10.802 22.5667 11.9618 22.5667V22.0667ZM19.1618 16.7867H18.6618C18.6618 17.8361 17.8112 18.6867 16.7618 18.6867V19.1867V19.6867C18.3634 19.6867 19.6618 18.3883 19.6618 16.7867H19.1618ZM16.7618 19.1867V18.6867C15.7125 18.6867 14.8618 17.8361 14.8618 16.7867H14.3618H13.8618C13.8618 18.3883 15.1602 19.6867 16.7618 19.6867V19.1867ZM14.3618 16.7867H14.8618C14.8618 15.7374 15.7125 14.8867 16.7618 14.8867V14.3867V13.8867C15.1602 13.8867 13.8618 15.1851 13.8618 16.7867H14.3618ZM16.7618 14.3867V14.8867C17.8112 14.8867 18.6618 15.7374 18.6618 16.7867H19.1618H19.6618C19.6618 15.1851 18.3634 13.8867 16.7618 13.8867V14.3867ZM21.5618 22.0667V21.5667H11.9618V22.0667V22.5667H21.5618V22.0667Z" fill="#2A2A2A"/>
</svg>
