<svg width="53" height="53" viewBox="0 0 53 53" fill="none" xmlns="http://www.w3.org/2000/svg">
<rect x="1.22375" y="1.23438" width="51" height="51" rx="25.5" fill="#F8F8F8" stroke="#DEE4ED"/>
<path d="M20.3237 18.8947V19.6447C20.5905 19.6447 20.8371 19.503 20.9715 19.2726L20.3237 18.8947ZM22.5637 15.0547V14.3047C22.297 14.3047 22.0503 14.4464 21.9159 14.6768L22.5637 15.0547ZM30.8837 15.0547L31.5315 14.6768C31.3971 14.4464 31.1505 14.3047 30.8837 14.3047V15.0547ZM33.1237 18.8947L32.4759 19.2726C32.6103 19.503 32.857 19.6447 33.1237 19.6447V18.8947ZM13.9237 35.2147H14.6737V22.0947H13.9237H13.1737V35.2147H13.9237ZM17.1237 18.8947V19.6447H20.3237V18.8947V18.1447H17.1237V18.8947ZM20.3237 18.8947L20.9715 19.2726L23.2115 15.4326L22.5637 15.0547L21.9159 14.6768L19.6759 18.5168L20.3237 18.8947ZM22.5637 15.0547V15.8047H30.8837V15.0547V14.3047H22.5637V15.0547ZM30.8837 15.0547L30.2359 15.4326L32.4759 19.2726L33.1237 18.8947L33.7715 18.5168L31.5315 14.6768L30.8837 15.0547ZM33.1237 18.8947V19.6447H36.3237V18.8947V18.1447H33.1237V18.8947ZM39.5237 22.0947H38.7737V35.2147H39.5237H40.2737V22.0947H39.5237ZM39.5237 35.2147H38.7737C38.7737 36.5678 37.6768 37.6647 36.3237 37.6647V38.4147V39.1647C38.5052 39.1647 40.2737 37.3962 40.2737 35.2147H39.5237ZM36.3237 18.8947V19.6447C37.6768 19.6447 38.7737 20.7416 38.7737 22.0947H39.5237H40.2737C40.2737 19.9132 38.5052 18.1447 36.3237 18.1447V18.8947ZM13.9237 22.0947H14.6737C14.6737 20.7416 15.7706 19.6447 17.1237 19.6447V18.8947V18.1447C14.9422 18.1447 13.1737 19.9132 13.1737 22.0947H13.9237ZM17.1237 38.4147V37.6647C15.7706 37.6647 14.6737 36.5678 14.6737 35.2147H13.9237H13.1737C13.1737 37.3962 14.9422 39.1647 17.1237 39.1647V38.4147ZM31.5237 27.8547H30.7737C30.7737 30.0914 28.9605 31.9047 26.7237 31.9047V32.6547V33.4047C29.7889 33.4047 32.2737 30.9199 32.2737 27.8547H31.5237ZM26.7237 32.6547V31.9047C24.487 31.9047 22.6737 30.0914 22.6737 27.8547H21.9237H21.1737C21.1737 30.9199 23.6585 33.4047 26.7237 33.4047V32.6547ZM21.9237 27.8547H22.6737C22.6737 25.6179 24.487 23.8047 26.7237 23.8047V23.0547V22.3047C23.6585 22.3047 21.1737 24.7895 21.1737 27.8547H21.9237ZM26.7237 23.0547V23.8047C28.9605 23.8047 30.7737 25.6179 30.7737 27.8547H31.5237H32.2737C32.2737 24.7895 29.7889 22.3047 26.7237 22.3047V23.0547ZM36.3237 38.4147V37.6647H17.1237V38.4147V39.1647H36.3237V38.4147Z" fill="#515050"/>
</svg>
