<svg width="59" height="43" viewBox="0 0 59 43" fill="none" xmlns="http://www.w3.org/2000/svg">
<g id="Frame 13">
<path id="Vector" d="M53.2105 15.8927C54.5002 17.8203 56.0822 19.7337 56.5575 22.0473C56.6748 22.6177 56.7339 23.5562 56.7349 24.863C56.7358 29.7664 56.7316 34.6694 56.7221 39.572C56.7193 41.0993 55.7772 42.4258 54.3101 42.8586C53.9999 42.95 53.508 42.9967 52.8345 42.9986C51.498 43.0014 50.1619 42.9986 48.8264 42.9901C47.2685 42.9802 45.9178 42.0143 45.5077 40.5138C45.4292 40.2244 45.389 39.7577 45.3871 39.1138C45.3853 38.1738 45.3848 37.2438 45.3857 36.3236C45.3857 36.2943 45.3742 36.2663 45.3537 36.2456C45.3332 36.2249 45.3055 36.2133 45.2765 36.2133H13.6723C13.6633 36.2133 13.6545 36.215 13.6462 36.2183C13.6379 36.2217 13.6304 36.2266 13.6241 36.2327C13.6178 36.2389 13.6128 36.2462 13.6093 36.2543C13.6059 36.2624 13.6042 36.271 13.6042 36.2797C13.6042 37.2367 13.6042 38.1903 13.6042 39.1407C13.6042 39.795 13.5422 40.306 13.4183 40.6736C13.0579 41.7418 12.3443 42.4551 11.2773 42.8133C10.9046 42.9387 10.383 43.0009 9.71234 43C8.37108 42.999 7.03172 42.9948 5.69424 42.9873C4.13922 42.9788 2.80553 42.0284 2.38272 40.5379C2.29759 40.2418 2.25502 39.7822 2.25502 39.159C2.25313 34.0406 2.25455 28.9222 2.25928 23.8037C2.26117 22.0878 2.72938 20.5157 3.66391 19.0874C4.35819 18.0258 5.05341 16.9751 5.74958 15.9351C5.78741 15.8776 5.77181 15.8489 5.70276 15.8489C4.5975 15.8489 3.21982 15.9719 2.26496 15.6523C-0.847934 14.61 -0.742942 10.0153 2.52318 9.17813C2.84667 9.09611 3.40285 9.05651 4.19171 9.05934C5.92835 9.06641 7.23082 8.95752 8.36446 10.4141C8.36906 10.4199 8.37508 10.4243 8.38191 10.427C8.38874 10.4297 8.39617 10.4306 8.40346 10.4296C8.41075 10.4286 8.41765 10.4258 8.4235 10.4213C8.42935 10.4169 8.43394 10.411 8.43682 10.4042C9.22569 8.43851 10.0155 6.47089 10.8062 4.50139C11.3558 3.12963 12.3249 2.27498 13.7134 1.93746C24.3621 -0.65334 34.9314 -0.645799 45.4212 1.96009C46.263 2.16939 46.9455 2.59459 47.4686 3.23569C47.741 3.57038 48.0862 4.25815 48.5043 5.299C49.1872 6.99697 49.8692 8.69778 50.5502 10.4014C50.5533 10.4085 50.5581 10.4148 50.5642 10.4195C50.5704 10.4242 50.5777 10.4273 50.5854 10.4285C50.593 10.4296 50.6009 10.4288 50.6082 10.426C50.6154 10.4232 50.6219 10.4187 50.6268 10.4127C51.5051 9.28137 52.4727 9.07065 53.9696 9.06217C54.7655 9.05793 55.719 8.99146 56.4199 9.16823C59.0007 9.82018 59.8478 12.9356 58.0274 14.8377C56.776 16.1445 54.8705 15.8588 53.2346 15.8475C53.2294 15.8477 53.2244 15.8493 53.22 15.852C53.2156 15.8548 53.212 15.8586 53.2096 15.8632C53.2071 15.8678 53.2059 15.8729 53.2061 15.8781C53.2063 15.8833 53.2078 15.8883 53.2105 15.8927ZM13.0466 5.00485C11.8803 7.89405 10.7211 10.7875 9.56336 13.6795C9.56115 13.6852 9.56027 13.6913 9.5608 13.6973C9.56132 13.7034 9.56324 13.7092 9.56639 13.7144C9.56955 13.7196 9.57386 13.724 9.57899 13.7273C9.58412 13.7305 9.58994 13.7326 9.596 13.7333L11.9314 13.9425C11.9412 13.9434 11.9511 13.941 11.9595 13.9357C11.968 13.9303 11.9745 13.9223 11.9782 13.9129C12.925 11.406 13.8832 8.89954 14.8527 6.39359C15.0088 5.98913 15.2864 5.75296 15.6856 5.68508C24.6724 4.17472 33.7117 4.14643 42.8035 5.60022C43.4717 5.7077 43.9712 5.86185 44.2038 6.48409C45.128 8.94856 46.0559 11.4135 46.9876 13.8789C46.9953 13.8996 47.0096 13.9172 47.0283 13.9289C47.047 13.9407 47.0691 13.946 47.0911 13.944L49.357 13.7403C49.4128 13.7356 49.4303 13.7073 49.4095 13.6555C48.3198 10.9308 47.2269 8.20706 46.1306 5.48426C45.7802 4.6117 45.5021 4.30482 44.6125 4.09411C34.3809 1.67489 24.2439 1.68338 14.2015 4.11956C13.6113 4.26287 13.2263 4.55796 13.0466 5.00485ZM43.1511 14.2466L44.5784 14.1349C44.5879 14.1342 44.597 14.1313 44.6051 14.1264C44.6133 14.1216 44.6201 14.1149 44.6252 14.107C44.6303 14.099 44.6335 14.09 44.6345 14.0806C44.6355 14.0712 44.6342 14.0617 44.6309 14.0529L42.3097 7.8898C42.3003 7.86449 42.2843 7.84212 42.2633 7.82498C42.2424 7.80784 42.2173 7.79653 42.1905 7.79222C33.7164 6.46665 25.2427 6.46995 16.7695 7.80212C16.7489 7.80561 16.7295 7.81436 16.7133 7.82751C16.6971 7.84065 16.6847 7.85774 16.6773 7.87708L14.3576 14.0458C14.3377 14.0995 14.3561 14.1283 14.4129 14.1321C20.1629 14.5657 25.9205 14.7496 31.6856 14.6836C31.7301 14.6836 31.7532 14.6614 31.7551 14.6171C31.8327 12.9361 32.439 11.5757 33.5741 10.5358C37.1055 7.30008 42.5325 9.52037 43.0645 14.1759C43.0667 14.1964 43.0769 14.2153 43.0931 14.2285C43.1092 14.2417 43.1301 14.2482 43.1511 14.2466ZM2.9616 13.4773C3.10537 13.5452 3.20043 13.58 3.24678 13.5819C3.77363 13.5942 4.92903 13.5937 6.71296 13.5805C6.76025 13.5805 6.78437 13.5569 6.78532 13.5098C6.82788 12.2384 6.89315 11.3277 5.32819 11.3263C4.68121 11.3263 4.0347 11.3343 3.38866 11.3503C2.12024 11.3829 1.82796 12.9413 2.9616 13.4773ZM40.81 14.3201C40.2326 10.2077 34.4551 10.3689 34.0281 14.562C34.0264 14.5763 34.0279 14.5908 34.0325 14.6045C34.0371 14.6182 34.0446 14.6308 34.0546 14.6414C34.0645 14.652 34.0767 14.6604 34.0903 14.666C34.1038 14.6715 34.1184 14.6742 34.1331 14.6737L40.7462 14.3965C40.7555 14.3962 40.7646 14.394 40.773 14.3899C40.7813 14.3858 40.7887 14.3799 40.7948 14.3728C40.8008 14.3656 40.8052 14.3572 40.8079 14.3481C40.8105 14.3391 40.8112 14.3295 40.81 14.3201ZM55.5643 13.5749C56.7547 13.5621 57.152 12.0532 56.234 11.5172C55.6622 11.1835 54.4832 11.3221 53.7866 11.3221C52.1294 11.3221 52.1535 12.1027 52.206 13.5141C52.2079 13.5621 52.2325 13.5862 52.2798 13.5862C53.3779 13.589 54.4728 13.5852 55.5643 13.5749ZM5.19198 20.9456C5.18719 20.9547 5.18466 20.9648 5.18461 20.9751C5.18455 20.9853 5.18698 20.9955 5.19168 21.0047C5.19638 21.0139 5.20323 21.022 5.21166 21.0282C5.2201 21.0344 5.22988 21.0386 5.24022 21.0404C7.27292 21.3779 9.31554 21.7168 11.3681 22.0572C12.4218 22.2326 13.1615 22.4272 13.5871 22.6413C16.9285 24.3213 16.4631 29.2724 12.9444 30.3529C12.5055 30.4877 11.8264 30.5551 10.907 30.5551C8.80619 30.556 6.70397 30.5565 4.60033 30.5565C4.54926 30.5565 4.52372 30.582 4.52372 30.6329C4.52514 31.1759 4.47122 31.8024 4.61452 32.2875C4.82262 32.9889 5.2388 33.4721 5.86308 33.737C6.19982 33.8803 6.78295 33.952 7.61249 33.952C22.3048 33.9501 36.9972 33.9496 51.6895 33.9506C52.3214 33.9506 52.7915 33.885 53.0998 33.754C54.4718 33.1699 54.4733 31.9961 54.4662 30.671C54.4652 30.5956 54.4269 30.5579 54.3512 30.5579C52.3375 30.5541 50.3379 30.5541 48.3525 30.5579C47.3555 30.5598 46.6579 30.5098 46.2597 30.408C43.2745 29.6443 42.1891 26.1032 44.0577 23.7189C44.8565 22.7007 45.8568 22.3612 47.2288 22.1321C49.3967 21.7682 51.5751 21.4053 53.7639 21.0432C53.7735 21.0415 53.7827 21.0375 53.7905 21.0315C53.7983 21.0256 53.8046 21.0179 53.8089 21.0091C53.8132 21.0003 53.8154 20.9906 53.8152 20.9808C53.815 20.971 53.8125 20.9614 53.8078 20.9527C53.701 20.7557 53.5818 20.5572 53.4503 20.3573C52.476 18.8781 51.5065 17.4177 50.5417 15.9762C50.5247 15.9506 50.501 15.9302 50.4732 15.9172C50.4454 15.9042 50.4146 15.8992 50.3842 15.9026C36.458 17.3357 22.5323 17.3347 8.60708 15.8998C8.53898 15.8932 8.48648 15.9182 8.44959 15.9747C7.48574 17.4172 6.51385 18.8767 5.53392 20.3531C5.41852 20.5275 5.30454 20.725 5.19198 20.9456ZM13.0863 27.673C13.8723 26.8032 13.7446 25.3749 12.7146 24.7343C12.4989 24.5994 12.1551 24.492 11.6831 24.4118C9.32784 24.0111 7.00807 23.6251 4.72377 23.2536C4.59324 23.2319 4.52797 23.2871 4.52797 23.4191L4.5223 28.117C4.52135 28.2339 4.58 28.2924 4.69823 28.2924C6.89173 28.2943 9.08239 28.2943 11.2702 28.2924C12.042 28.291 12.5996 28.2104 13.0863 27.673ZM47.0301 24.4811C44.655 24.8898 44.9473 28.2584 47.3721 28.274C49.7037 28.2881 52.0305 28.2957 54.3527 28.2966C54.3839 28.2966 54.4139 28.2842 54.4359 28.2622C54.458 28.2402 54.4704 28.2104 54.4704 28.1792L54.4591 23.2904C54.459 23.2811 54.4569 23.2719 54.453 23.2635C54.4491 23.2552 54.4434 23.2477 54.4363 23.2418C54.4293 23.2359 54.4211 23.2316 54.4123 23.2292C54.4035 23.2269 54.3943 23.2265 54.3853 23.2281C51.9166 23.6439 49.4648 24.0616 47.0301 24.4811ZM11.2319 40.0373C11.2962 39.8902 11.3288 39.794 11.3298 39.7488C11.3364 38.5948 11.3374 37.454 11.3326 36.3264C11.3323 36.2963 11.3201 36.2675 11.2989 36.2463C11.2776 36.2252 11.249 36.2133 11.2191 36.2133C9.73504 36.2133 8.24812 36.2128 6.75836 36.2119C6.02199 36.2119 5.39629 36.0054 4.60743 35.6349C4.55446 35.6094 4.52797 35.6259 4.52797 35.6844C4.51946 36.8704 4.51852 38.056 4.52514 39.2411C4.52939 40.0684 4.78052 40.7401 5.69424 40.7401C7.10266 40.7392 8.5106 40.7382 9.91807 40.7373C10.5622 40.7359 10.9765 40.6241 11.2319 40.0373ZM54.4335 35.6236C53.6541 36.0063 52.8965 36.1996 52.1606 36.2034C50.6708 36.21 49.1834 36.2142 47.6984 36.2161C47.6871 36.2161 47.6763 36.2204 47.6683 36.2281C47.6603 36.2358 47.6558 36.2462 47.6558 36.2571C47.6568 37.1763 47.6563 38.0975 47.6544 39.0205C47.6516 39.9128 47.7807 40.7415 48.8264 40.7415C50.265 40.7406 51.7037 40.7387 53.1424 40.7359C54.1228 40.7345 54.4591 40.248 54.4633 39.2849C54.469 38.0678 54.469 36.8534 54.4633 35.6419C54.4632 35.6383 54.4621 35.6348 54.4603 35.6316C54.4585 35.6285 54.456 35.6259 54.453 35.6241C54.45 35.6222 54.4467 35.6212 54.4433 35.6211C54.4399 35.621 54.4365 35.6219 54.4335 35.6236Z" fill="#EE8F31"/>
<path id="Vector_2" d="M39.6766 24.897C39.9912 24.897 40.2928 25.0215 40.5153 25.2432C40.7377 25.465 40.8627 25.7657 40.8627 26.0792V28.1581C40.8627 28.6239 40.7703 29.0851 40.5909 29.5154C40.4114 29.9457 40.1483 30.3367 39.8167 30.6661C39.4851 30.9954 39.0914 31.2567 38.6582 31.4349C38.2249 31.6132 37.7605 31.7049 37.2915 31.7049H21.7015C20.7544 31.7049 19.8461 31.3312 19.1763 30.6661C18.5066 30.0009 18.1304 29.0988 18.1304 28.1581V26.0792C18.1304 25.7657 18.2553 25.465 18.4778 25.2432C18.7002 25.0215 19.0019 24.897 19.3165 24.897H39.6766ZM38.506 27.1611H20.4842C20.4624 27.1611 20.4414 27.1697 20.426 27.1851C20.4106 27.2005 20.4019 27.2214 20.4019 27.2431V28.1892C20.4019 28.5189 20.5367 28.8351 20.7767 29.0682C21.0167 29.3013 21.3423 29.4323 21.6817 29.4323H37.3086C37.648 29.4323 37.9735 29.3013 38.2135 29.0682C38.4535 28.8351 38.5883 28.5189 38.5883 28.1892V27.2431C38.5883 27.2214 38.5797 27.2005 38.5642 27.1851C38.5488 27.1697 38.5279 27.1611 38.506 27.1611Z" fill="#EE8F31"/>
</g>
</svg>
