<svg width="114" height="58" viewBox="0 0 114 58" fill="none" xmlns="http://www.w3.org/2000/svg">
<g clip-path="url(#clip0_433_176)">
<path d="M48.7683 51.3591L48.365 51.3856C41.0851 51.8195 34.1334 52.1666 28.3297 52.3731L27.8865 52.4022C20.5241 52.6631 15.0821 52.6848 13.2889 52.3541C11.8959 52.1282 10.5635 51.6335 9.36914 50.8989C8.17481 50.1642 7.14241 49.2042 6.33198 48.0747C3.86652 44.7543 2.57259 39.6159 2.10898 32.5472C1.64538 25.4784 2.26013 20.1931 4.27051 16.5748C4.92697 15.3499 5.82539 14.2641 6.91356 13.3805C8.00174 12.4969 9.25796 11.8331 10.6092 11.4278C12.3535 10.8781 17.742 10.1765 25.0752 9.4692L25.5184 9.44014C31.2993 8.88689 38.2369 8.32307 45.511 7.80247L45.9143 7.77602C54.2918 7.17871 63.1053 6.64855 71.0985 6.23314L71.7145 6.19273L74.8202 6.04128C84.8217 5.5725 93.1169 5.35055 96.9888 5.54929C110.324 6.23296 111.577 25.3459 111.577 25.3459C111.577 25.3459 112.831 44.4546 99.6778 46.8885C95.8639 47.5739 87.6122 48.459 77.6348 49.2961L74.5363 49.5559L73.9202 49.5963C65.9557 50.2449 57.1697 50.856 48.7683 51.3591Z" fill="#FFD557"/>
<path d="M46.1229 11.0486L45.7196 11.075L45.5039 7.78552L45.9072 7.75907L46.1229 11.0486Z" fill="#4A5260"/>
<path d="M48.7672 51.3592L48.3639 51.3856L48.1484 48.1005L48.5517 48.074L48.7672 51.3592Z" fill="#4A5260"/>
<path d="M27.846 13.736L26.9112 12.3087L25.0781 9.46909L25.5213 9.44002L27.3821 12.2952L28.1942 13.5477L27.846 13.736Z" fill="#4A5260"/>
<path d="M28.3369 52.39L27.8937 52.4191L29.3582 49.3676L30.0986 47.8304L30.461 47.9938L29.8194 49.3417L28.3369 52.39Z" fill="#4A5260"/>
<path d="M6.33415 48.0528C3.89086 44.731 2.5792 39.5938 2.11559 32.525C1.65199 25.4563 2.26345 20.1886 4.26996 16.5793C7.3578 15.4477 10.6416 14.9217 13.9336 15.0314L13.7757 31.7603L16.1175 48.3296C12.8675 48.8657 9.54331 48.7717 6.33415 48.0528Z" fill="#FFDE7A"/>
<path d="M108.033 25.561C108.033 25.561 107.511 17.5994 104.366 18.2409L105.355 33.3146C108.555 33.5182 108.033 25.561 108.033 25.561Z" fill="#2B3545"/>
<path d="M99.1725 8.75331L96.1357 8.46064C95.189 8.36853 94.2339 8.53503 93.3766 8.94164C92.5194 9.34825 91.7934 9.97904 91.2795 10.7639L91.243 10.8186L91.7598 18.6978L104.089 17.8892C104.378 17.8678 104.658 17.7811 104.907 17.6358C105.157 17.4905 105.368 17.2907 105.525 17.052C105.682 16.8134 105.78 16.5424 105.812 16.2606C105.844 15.9788 105.808 15.6939 105.708 15.4282L104.802 13.0153C104.365 11.861 103.606 10.8501 102.611 10.097C101.616 9.34384 100.425 8.87843 99.1725 8.75331Z" fill="white"/>
<path d="M101.422 43.044L98.4489 43.7308C97.5223 43.9458 96.5537 43.9054 95.6507 43.6143C94.7476 43.3231 93.9455 42.7925 93.3335 42.0815L93.2902 42.0321L92.7734 34.1529L105.103 33.3443C105.392 33.3277 105.681 33.3771 105.947 33.4886C106.213 33.6 106.449 33.7706 106.636 33.9867C106.823 34.2028 106.955 34.4586 107.024 34.7338C107.092 35.0091 107.094 35.2962 107.029 35.5727L106.446 38.0832C106.163 39.2848 105.543 40.3861 104.655 41.2627C103.767 42.1393 102.647 42.7563 101.422 43.044Z" fill="white"/>
<path d="M103.478 13.8029C102.926 12.4854 101.965 11.3719 100.729 10.6196C99.494 9.8673 98.0472 9.51419 96.5931 9.61013L78.959 10.7667L81.1428 44.0649L98.777 42.9083C100.232 42.8128 101.621 42.2725 102.748 41.3636C103.874 40.4548 104.681 39.2234 105.054 37.8436C107.22 29.8683 106.666 21.4271 103.478 13.8029Z" fill="#FFDE7A"/>
<path d="M103.923 32.7992C104.709 32.6535 105.425 32.2616 105.965 31.6828C106.504 31.1041 106.837 30.3698 106.912 29.591C107.019 28.2869 107.022 26.977 106.922 25.673C106.851 24.3671 106.677 23.0688 106.401 21.7898C106.224 21.0271 105.799 20.342 105.188 19.8378C104.578 19.3337 103.816 19.038 103.017 18.9953L79.4141 17.7011L80.6886 37.1348L103.923 32.7992Z" fill="#FFDE7A"/>
<path d="M81.1417 44.065L77.5619 43.7731L68.3614 43.0185L58.2932 42.1989L57.829 37.9028C57.4833 34.7132 57.2157 31.5156 57.0263 28.31C56.8426 25.5102 56.7225 22.7063 56.666 19.8982L56.5651 15.5782L66.1897 13.5019L75.2084 11.5524L78.9739 10.7396C81.3731 15.9294 82.794 21.5027 83.1685 27.1917C83.1927 27.5601 83.2168 27.9285 83.2413 28.3012C83.454 33.6314 82.7442 38.961 81.1417 44.065Z" fill="#2B3545"/>
<path d="M20.869 15.4906C19.3653 14.8333 17.9547 13.9896 16.6719 12.9801L75.1717 9.14343L64.1251 11.8658L55.803 13.9176C54.1169 14.3327 52.4046 14.6369 50.6775 14.8283L40.3602 15.9794L30.9977 17.0287C27.5388 17.4161 24.0399 16.8848 20.869 15.4906Z" fill="#2B3545"/>
<path d="M77.6078 46.164L57.7682 43.9613C56.0423 43.7686 54.3048 43.6891 52.5674 43.7235L32.7734 44.1164C30.2117 44.1662 27.6839 44.712 25.3361 45.7221C22.9883 46.7323 20.867 48.1868 19.0947 50.0016L77.5945 46.1649L77.6078 46.164Z" fill="#2B3545"/>
<path d="M16.1137 48.3298C10.1946 46.3023 8.26584 39.0858 7.67428 35.0201C7.52747 34.0789 7.43258 33.1305 7.39003 32.179C7.39003 32.179 5.98512 18.9695 13.9298 15.0316L15.5078 15.951L18.0569 17.4247L21.9298 19.6735C21.9298 19.6735 20.0529 22.9523 20.0955 29.3697C20.0971 30.005 20.1231 30.6736 20.1686 31.3671C20.6726 39.0513 23.44 42.7001 23.44 42.7001L19.9192 45.412L18.6014 46.4256L16.1137 48.3298Z" fill="#2B3545"/>
<path opacity="0.1" d="M53.8076 15.8288C53.8076 15.8288 53.4737 31.7074 55.4756 41.2607C55.4756 41.2607 33.9662 42.2361 26.8056 41.5697C26.8056 41.5697 34.9547 22.358 53.8076 15.8288Z" fill="white"/>
<path opacity="0.1" d="M78.8445 27.6016C71.6265 26.9433 64.1321 26.8211 57.0283 28.3098C56.8446 25.5101 56.7245 22.7061 56.668 19.898L56.5671 15.5781L78.9599 10.7667C81.3591 15.9564 82.78 21.5297 83.1545 27.2188C83.1787 27.5872 83.2028 27.9556 83.2273 28.3283C81.5938 28.0568 80.04 27.7103 78.8445 27.6016Z" fill="white"/>
<path opacity="0.1" d="M81.1418 44.0649L77.5619 43.7731C78.3607 40.3428 78.8215 36.8466 78.9379 33.3322C79.0895 28.8515 78.6896 24.3709 77.7467 19.9868C77.159 17.2701 75.7688 14.3971 75.1912 11.5622L78.9568 10.7494C81.356 15.9392 82.7769 21.5125 83.1514 27.2016C83.1756 27.5699 83.1997 27.9383 83.2242 28.3111C83.4414 33.637 82.7373 38.9632 81.1418 44.0649Z" fill="#080808"/>
<path opacity="0.05" d="M81.1392 44.0651L77.5594 43.7732L68.3589 43.0186C70.0629 33.1498 69.3123 23.0317 66.1706 13.5206L75.1892 11.5711L78.9548 10.7583C81.3539 15.948 82.7749 21.5213 83.1494 27.2104C83.1735 27.5788 83.1977 27.9472 83.2221 28.3199C83.4381 33.643 82.7339 38.9661 81.1392 44.0651Z" fill="white"/>
<path opacity="0.1" d="M7.65452 35.0301C7.50771 34.0889 7.41282 33.1405 7.37027 32.1891C7.37027 32.1891 5.98695 18.9694 13.9316 15.0315L21.931 19.6648C21.931 19.6648 20.0542 22.9435 20.0967 29.3609C19.6882 29.4225 19.2836 29.5072 18.8849 29.6145C14.8375 30.7367 11.0316 32.5721 7.65452 35.0301Z" fill="white"/>
<path opacity="0.1" d="M16.1137 48.3298C10.1946 46.3023 8.26584 39.0858 7.67428 35.0201C7.52747 34.0789 7.43258 33.1305 7.39003 32.179C7.39003 32.179 5.98512 18.9695 13.9298 15.0316L15.5078 15.951C10.7829 19.5079 9.0821 26.5576 9.59763 32.043C10.1134 37.6676 12.0541 44.1172 17.5803 47.2107L16.1137 48.3298Z" fill="#080808"/>
<path opacity="0.05" d="M16.1137 48.3298C10.1946 46.3023 8.26584 39.0858 7.67428 35.0201C7.52747 34.0789 7.43258 33.1305 7.39003 32.179C7.39003 32.179 5.98512 18.9695 13.9298 15.0316L15.5078 15.951L18.0569 17.4247C15.3988 21.7223 14.1519 26.7109 14.4849 31.7157C14.818 36.7205 16.7148 41.5 19.9189 45.4077L18.6014 46.4256L16.1137 48.3298Z" fill="white"/>
<path opacity="0.1" d="M20.869 15.4906C19.3653 14.8333 17.9547 13.9896 16.6719 12.9801L75.1717 9.14343L64.1251 11.8658L20.869 15.4906Z" fill="#080808"/>
<path opacity="0.05" d="M16.6719 12.9801L37.0803 11.6416L40.3602 15.9794L30.9977 17.0287C28.4521 17.3122 25.8757 17.1005 23.417 16.4057C20.9584 15.7108 18.666 14.5466 16.6719 12.9801Z" fill="white"/>
<path opacity="0.1" d="M22.9332 46.9598C21.5292 47.8108 20.2412 48.8328 19.1002 50.0012L77.6 46.1645L66.2925 44.9083L22.9332 46.9598Z" fill="#080808"/>
<path opacity="0.05" d="M19.1008 50.0012L39.5093 48.6627L42.1943 43.9294L32.7749 44.1119C30.2134 44.162 27.6861 44.7083 25.339 45.7191C22.9919 46.73 20.8716 48.1854 19.1008 50.0012Z" fill="white"/>
<path d="M77.6298 48.7219C77.7577 50.1282 77.4817 52.5707 74.0819 52.785L75.0335 46.3242C75.2326 46.3191 75.4315 46.3397 75.625 46.3855C76.1686 46.5183 76.6551 46.8157 77.015 47.2352C77.375 47.6547 77.5901 48.175 77.6298 48.7219Z" fill="#D19C00"/>
<path d="M74.0813 52.7937L75.0329 46.3329L74.4567 46.3707L73.4497 52.6654L74.0813 52.7937Z" fill="#4A5260"/>
<path d="M74.8665 6.59537C74.8096 5.18449 74.2167 2.7946 70.8184 3.03054L72.6056 9.31172C72.8037 9.29077 72.9982 9.24435 73.1841 9.17367C73.7057 8.97093 74.1491 8.6126 74.4512 8.14967C74.7533 7.68675 74.8986 7.14284 74.8665 6.59537Z" fill="#D19C00"/>
<path d="M70.8177 3.03063L72.605 9.31181L72.0289 9.34959L70.2084 3.24035L70.8177 3.03063Z" fill="#4A5260"/>
<path opacity="0.1" d="M80.9433 11.3287C80.9433 11.3287 97.5762 9.42826 99.6066 10.8664C101.637 12.3045 102.639 15.1595 102.639 15.1595C102.639 15.1595 100.341 11.6061 94.8629 11.9654C89.3851 12.3246 81.5359 13.5097 81.5359 13.5097L80.9433 11.3287Z" fill="white"/>
<path opacity="0.1" d="M83.0264 43.097C83.0264 43.097 99.765 42.8088 101.59 41.1178C103.415 39.4268 104.036 36.4698 104.036 36.4698C104.036 36.4698 102.222 40.2929 96.7438 40.6522C91.2661 41.0114 83.329 40.8573 83.329 40.8573L83.0264 43.097Z" fill="white"/>
</g>
<defs>
<clipPath id="clip0_433_176">
<rect width="109.714" height="49.87" fill="white" transform="translate(0.484375 7.64349) rotate(-3.75236)"/>
</clipPath>
</defs>
</svg>
