<svg width="113" height="58" viewBox="0 0 113 58" fill="none" xmlns="http://www.w3.org/2000/svg">
<g clip-path="url(#clip0_439_179)">
<path d="M48.3793 51.0308L47.976 51.0581C40.6971 51.5081 33.7462 51.8706 27.9429 52.0899L27.4998 52.1199C20.138 52.397 14.6961 52.4308 12.9022 52.104C11.5087 51.8812 10.1751 51.3895 8.97919 50.6575C7.78325 49.9254 6.74874 48.9677 5.93581 47.84C3.46304 44.525 2.15778 39.3895 1.67859 32.3218C1.1994 25.2541 1.80249 19.9675 3.80489 16.3447C4.45865 15.1184 5.35467 14.0306 6.44089 13.1446C7.52711 12.2586 8.78187 11.5921 10.1323 11.1837C11.8753 10.6302 17.2623 9.9167 24.5938 9.19325L25.0369 9.16321C30.8167 8.59721 37.753 8.0181 45.026 7.48146L45.4292 7.45412C53.8053 6.83834 62.6176 6.28875 70.6099 5.8557L71.2259 5.81394L74.3312 5.65564C84.3316 5.1648 92.6263 4.92457 96.4987 5.11476C109.835 5.76902 111.131 24.8792 111.131 24.8792C111.131 24.8792 112.426 43.985 99.2788 46.448C95.4664 47.1418 87.2166 48.045 77.2412 48.9042L74.1432 49.1708L73.5273 49.2126C65.5641 49.8787 56.7795 50.5092 48.3793 51.0308Z" fill="#FF0000"/>
<path d="M45.6458 10.7261L45.2425 10.7534L45.0195 7.46442L45.4228 7.43708L45.6458 10.7261Z" fill="#404958"/>
<path d="M48.3798 51.0308L47.9766 51.0581L47.7539 47.7734L48.1571 47.7461L48.3798 51.0308Z" fill="#404958"/>
<path d="M27.3769 13.4536L26.4389 12.0284L24.5996 9.19287L25.0427 9.16283L26.9098 12.0139L27.7246 13.2646L27.3769 13.4536Z" fill="#404958"/>
<path d="M27.956 52.1063L27.5129 52.1364L28.9706 49.0817L29.7076 47.5429L30.0703 47.7055L29.4318 49.0547L27.956 52.1063Z" fill="#404958"/>
<path d="M5.93857 47.818C3.48796 44.5015 2.16497 39.3672 1.68578 32.2995C1.20659 25.2318 1.80643 19.9628 3.80498 16.349C6.89032 15.2106 10.1729 14.6774 13.4652 14.7799L13.3441 31.5091L15.7225 48.0732C12.4737 48.6164 9.1493 48.5297 5.93857 47.818Z" fill="#FF5F5F"/>
<path d="M107.59 25.1018C107.59 25.1018 107.051 17.1414 103.907 17.7898L104.929 32.8613C108.13 33.0578 107.59 25.1018 107.59 25.1018Z" fill="#2B3545"/>
<path d="M98.6902 8.31383L95.6527 8.02785C94.7057 7.93784 93.7511 8.10644 92.8947 8.51494C92.0383 8.92344 91.3138 9.55583 90.8016 10.3419L90.7652 10.3966L91.2994 18.2746L103.627 17.4388C103.916 17.4169 104.196 17.3295 104.445 17.1837C104.694 17.0378 104.905 16.8375 105.061 16.5985C105.218 16.3595 105.315 16.0884 105.346 15.8065C105.377 15.5246 105.341 15.2397 105.24 14.9743L104.329 12.5634C103.889 11.41 103.128 10.4009 102.132 9.64991C101.135 8.89897 99.9433 8.43618 98.6902 8.31383Z" fill="white"/>
<path d="M101.015 42.5993L98.0442 43.2927C97.1181 43.5097 96.1494 43.4715 95.2457 43.1823C94.3421 42.8932 93.5388 42.3644 92.9252 41.6547L92.8818 41.6054L92.3477 33.7273L104.675 32.8915C104.964 32.8743 105.254 32.923 105.52 33.0339C105.786 33.1448 106.022 33.3149 106.21 33.5305C106.397 33.7462 106.53 34.0017 106.599 34.2768C106.668 34.5519 106.671 34.8391 106.607 35.1157L106.029 37.6275C105.749 38.8297 105.131 39.9324 104.245 40.8109C103.359 41.6895 102.24 42.309 101.015 42.5993Z" fill="white"/>
<path d="M103.006 13.354C102.451 12.0378 101.487 10.9264 100.25 10.1768C99.0134 9.42723 97.5658 9.07731 96.112 9.17646L78.4805 10.3719L80.7378 43.6652L98.3693 42.4698C99.8242 42.3711 101.212 41.8276 102.337 40.9163C103.461 40.005 104.265 38.7718 104.635 37.3912C106.783 29.4111 106.211 20.9712 103.006 13.354Z" fill="#FF5F5F"/>
<path d="M103.493 32.3492C104.279 32.2018 104.995 31.8083 105.533 31.2284C106.071 30.6484 106.402 29.9134 106.476 29.1345C106.579 27.8301 106.58 26.5202 106.477 25.2164C106.403 23.9107 106.226 22.6128 105.947 21.3344C105.769 20.5721 105.342 19.8879 104.73 19.3851C104.119 18.8823 103.356 18.5883 102.557 18.5474L78.9512 17.3052L80.2686 36.736L103.493 32.3492Z" fill="#FF5F5F"/>
<path d="M80.7411 43.6649L77.1607 43.3809L67.9586 42.6466L57.8886 41.8492L57.4149 37.5542C57.0621 34.3654 56.7875 31.1683 56.591 27.9631C56.4012 25.1638 56.2749 22.3601 56.2121 19.5521L56.1018 15.2325L65.7217 13.1349L74.7361 11.1655L78.4998 10.3444C80.9104 15.5289 82.3437 21.0991 82.7307 26.7873C82.7557 27.1556 82.7806 27.5239 82.8059 27.8966C83.0304 33.2263 82.3323 38.5575 80.7411 43.6649Z" fill="#2B3545"/>
<path d="M20.3999 15.2239C18.8948 14.57 17.4823 13.7294 16.1973 12.7227L74.6884 8.75705L63.6479 11.5038L55.3304 13.5739C53.6452 13.9927 51.9335 14.3007 50.2069 14.4959L39.8922 15.6698L30.532 16.7397C27.074 17.1347 23.5739 16.6111 20.3999 15.2239Z" fill="#2B3545"/>
<path d="M77.2098 45.7718L57.3654 43.6129C55.6391 43.4239 53.9014 43.3483 52.1641 43.3865L32.371 43.823C29.8094 43.8786 27.2828 44.4299 24.9373 45.4452C22.5917 46.4605 20.4736 47.9197 18.7053 49.7384L77.1965 45.7727L77.2098 45.7718Z" fill="#2B3545"/>
<path d="M15.7211 48.0733C9.79756 46.0588 7.85293 38.8467 7.2524 34.7822C7.10352 33.8413 7.00654 32.8932 6.96189 31.9418C6.96189 31.9418 5.52786 18.7354 13.4638 14.78L15.0439 15.6959L17.5962 17.164L21.474 19.4042C21.474 19.4042 19.6044 22.6871 19.6611 29.1044C19.6641 29.7398 19.6916 30.4083 19.7387 31.1017C20.2596 38.7847 23.035 42.4274 23.035 42.4274L19.5202 45.1471L18.2047 46.1636L15.7211 48.0733Z" fill="#2B3545"/>
<path opacity="0.1" d="M53.3425 15.4891C53.3425 15.4891 53.0436 31.3684 55.0665 40.9174C55.0665 40.9174 33.5594 41.9402 26.3973 41.2896C26.3973 41.2896 34.504 22.06 53.3425 15.4891Z" fill="white"/>
<path opacity="0.1" d="M78.4016 27.207C71.1822 26.5647 63.6876 26.459 56.5871 27.9634C56.3973 25.1641 56.271 22.3604 56.2082 19.5524L56.0979 15.2327L78.4799 10.3719C80.8906 15.5564 82.3238 21.1265 82.7108 26.8148C82.7358 27.1831 82.7608 27.5514 82.786 27.9241C81.152 27.6562 79.5974 27.3132 78.4016 27.207Z" fill="white"/>
<path opacity="0.1" d="M80.7362 43.6653L77.1557 43.3813C77.9469 39.9493 78.4 36.452 78.5087 32.9374C78.6504 28.4564 78.2405 23.9766 77.288 19.5946C76.6943 16.8792 75.2978 14.0093 74.714 11.1758L78.4777 10.3546C80.8883 15.5391 82.3216 21.1093 82.7086 26.7975C82.7336 27.1658 82.7585 27.5342 82.7838 27.9068C83.0127 33.2323 82.3205 38.56 80.7362 43.6653Z" fill="#080808"/>
<path opacity="0.05" d="M80.74 43.665L77.1596 43.381L67.9575 42.6467C69.6397 32.7742 68.8668 22.6577 65.7041 13.1536L74.7184 11.1842L78.4822 10.363C80.8928 15.5475 82.326 21.1177 82.713 26.8059C82.738 27.1742 82.763 27.5426 82.7883 27.9152C83.016 33.2378 82.3235 38.5625 80.74 43.665Z" fill="white"/>
<path opacity="0.1" d="M7.23266 34.7922C7.08378 33.8514 6.9868 32.9032 6.94215 31.9518C6.94215 31.9518 5.52969 18.7352 13.4657 14.7798L21.4753 19.3954C21.4753 19.3954 19.6056 22.6783 19.6624 29.0956C19.254 29.1581 18.8495 29.2437 18.4511 29.3518C14.4062 30.483 10.6043 32.3268 7.23266 34.7922Z" fill="white"/>
<path opacity="0.1" d="M15.7211 48.0733C9.79756 46.0588 7.85293 38.8467 7.2524 34.7822C7.10352 33.8413 7.00654 32.8932 6.96189 31.9418C6.96189 31.9418 5.52786 18.7354 13.4638 14.78L15.0439 15.6959C10.3268 19.2632 8.64156 26.3166 9.16919 31.8008C9.69736 37.4243 11.6523 43.8696 17.1853 46.951L15.7211 48.0733Z" fill="#080808"/>
<path opacity="0.05" d="M15.7211 48.0733C9.79756 46.0588 7.85293 38.8467 7.2524 34.7822C7.10352 33.8413 7.00654 32.8932 6.96189 31.9418C6.96189 31.9418 5.52786 18.7354 13.4638 14.78L15.0439 15.6959L17.5962 17.164C14.9476 21.4674 13.7117 26.4587 14.0558 31.4628C14.3998 36.4668 16.3072 41.2421 19.5199 45.1428L18.2047 46.1636L15.7211 48.0733Z" fill="white"/>
<path opacity="0.1" d="M20.3999 15.2239C18.8948 14.57 17.4823 13.7294 16.1973 12.7227L74.6884 8.75705L63.6479 11.5038L20.3999 15.2239Z" fill="#080808"/>
<path opacity="0.05" d="M16.1973 12.7227L36.6027 11.3393L39.8922 15.6698L30.532 16.7397C27.987 17.0289 25.4102 16.8228 22.95 16.1334C20.4898 15.444 18.1948 14.2848 16.1973 12.7227Z" fill="white"/>
<path opacity="0.1" d="M22.5342 46.6885C21.1321 47.5426 19.8463 48.5674 18.7079 49.7384L77.199 45.7727L65.8888 44.5413L22.5342 46.6885Z" fill="#080808"/>
<path opacity="0.05" d="M18.7056 49.7385L39.111 48.355L41.7856 43.6158L32.3666 43.819C29.8053 43.8747 27.2791 44.4266 24.9343 45.4426C22.5894 46.4587 20.4724 47.9188 18.7056 49.7385Z" fill="white"/>
<path d="M77.2365 48.3298C77.3674 49.7357 77.0968 52.1788 73.6975 52.4006L74.6348 45.9377C74.834 45.9322 75.0329 45.9524 75.2265 45.9977C75.7704 46.1294 76.2575 46.4257 76.6184 46.8444C76.9793 47.2631 77.1955 47.7829 77.2365 48.3298Z" fill="#960000"/>
<path d="M73.6968 52.4094L74.6341 45.9465L74.0581 45.9856L73.065 52.2824L73.6968 52.4094Z" fill="#404958"/>
<path d="M74.3783 6.20967C74.3183 4.79892 73.7201 2.41034 70.3223 2.65377L72.1234 8.93099C72.3214 8.9096 72.5158 8.86276 72.7015 8.79167C73.2227 8.58778 73.6653 8.22847 73.9664 7.76488C74.2674 7.30129 74.4116 6.75706 74.3783 6.20967Z" fill="#960000"/>
<path d="M70.3274 2.6534L72.1285 8.93063L71.5525 8.96968L69.7185 2.86447L70.3274 2.6534Z" fill="#404958"/>
<path opacity="0.1" d="M80.4692 10.9292C80.4692 10.9292 97.0978 8.9921 99.1314 10.4258C101.165 11.8594 102.173 14.7121 102.173 14.7121C102.173 14.7121 99.867 11.1638 94.3901 11.5352C88.9132 11.9065 81.0665 13.1089 81.0665 13.1089L80.4692 10.9292Z" fill="white"/>
<path opacity="0.1" d="M82.6239 42.6927C82.6239 42.6927 99.3618 42.3676 101.183 40.6726C103.005 38.9775 103.619 36.0192 103.619 36.0192C103.619 36.0192 101.813 39.8463 96.3359 40.2176C90.859 40.589 82.9216 40.4524 82.9216 40.4524L82.6239 42.6927Z" fill="white"/>
</g>
<defs>
<clipPath id="clip0_439_179">
<rect width="109.714" height="49.87" fill="white" transform="translate(0 7.42157) rotate(-3.87871)"/>
</clipPath>
</defs>
</svg>
