<svg width="245" height="164" viewBox="0 0 245 164" fill="none" xmlns="http://www.w3.org/2000/svg">
<path d="M143.257 138.096C143.267 138.096 143.276 138.094 143.285 138.093C143.311 138.093 143.337 138.093 143.364 138.091C143.425 138.087 143.484 138.078 143.544 138.071C144.5 137.965 145.377 137.466 146.125 136.963C146.239 136.887 146.35 136.808 146.461 136.728C146.528 136.68 146.596 136.633 146.661 136.584C146.738 136.527 146.814 136.468 146.889 136.409C147.027 136.301 147.161 136.193 147.29 136.083C147.3 136.074 147.31 136.066 147.319 136.058C147.971 135.499 148.509 134.91 148.922 134.295C148.958 134.242 148.99 134.186 149.024 134.132C149.036 134.114 149.048 134.095 149.06 134.076C149.111 133.994 149.162 133.913 149.21 133.83C149.845 132.75 150.205 131.567 150.215 130.44C150.216 130.238 150.205 130.042 150.181 129.857C150.171 129.778 150.15 129.693 150.127 129.608C150.124 129.598 150.122 129.588 150.119 129.578C150.112 129.546 150.104 129.515 150.097 129.483L150.161 129.357C150.219 129.242 150.278 129.125 150.337 129.008L150.705 128.999C150.718 128.999 150.736 129 150.749 129.001L170.203 128.608C170.259 128.607 170.323 128.601 170.391 128.594C170.442 128.589 170.519 128.581 170.551 128.578C170.612 128.622 170.675 128.662 170.738 128.704C170.786 128.741 170.833 128.777 170.877 128.805C171.087 128.938 171.31 129.062 171.54 129.175C171.996 129.399 172.491 129.583 173.054 129.739C174.844 130.236 176.726 130.358 178.546 130.476L179.141 130.516C179.226 130.521 179.307 130.526 179.392 130.532C179.611 130.546 179.834 130.56 180.06 130.575C181.004 130.635 181.927 130.69 182.829 130.739C183.218 130.761 183.618 130.783 184.038 130.805C185.333 130.875 186.686 130.931 188.059 130.969C188.147 130.972 188.24 130.974 188.329 130.977C189.738 131.024 191.003 131.055 192.199 131.071C192.424 131.074 192.655 131.077 192.89 131.08C192.987 131.081 193.084 131.083 193.181 131.084C194.207 131.099 195.176 131.106 196.109 131.106C196.657 131.106 197.193 131.103 197.722 131.098C199.478 131.082 200.911 131.051 202.232 131.001C203.387 130.957 204.604 130.902 205.821 130.809C207.577 130.687 209.414 130.506 211.158 129.984C211.225 129.964 211.294 129.946 211.361 129.925C211.409 129.911 211.456 129.893 211.504 129.877C211.551 129.862 211.598 129.849 211.645 129.833C213.567 129.177 215.07 127.777 216.396 126.53C216.417 126.51 216.441 126.488 216.462 126.468C216.611 126.327 216.756 126.19 216.893 126.037C216.898 126.034 216.903 126.03 216.908 126.026C217.107 125.949 217.304 125.868 217.497 125.783L217.5 125.782C217.502 125.781 217.505 125.78 217.507 125.779C217.542 125.764 217.575 125.746 217.609 125.731C217.815 125.639 218.017 125.544 218.214 125.446C218.247 125.43 218.279 125.412 218.312 125.395C219.733 124.674 220.914 123.794 221.823 122.77C221.847 122.744 221.867 122.715 221.89 122.689C221.903 122.674 221.915 122.658 221.927 122.643C222.087 122.456 222.238 122.264 222.381 122.067C222.39 122.055 222.398 122.044 222.406 122.032C222.55 121.832 222.687 121.627 222.817 121.419C222.825 121.405 222.834 121.391 222.843 121.377C222.969 121.172 223.09 120.964 223.204 120.754C223.214 120.736 223.225 120.717 223.235 120.698C223.345 120.493 223.45 120.287 223.55 120.081C223.562 120.057 223.574 120.033 223.585 120.01C223.684 119.803 223.779 119.596 223.869 119.391C223.878 119.369 223.888 119.348 223.898 119.326C223.992 119.11 224.082 118.896 224.168 118.684C224.198 118.61 224.227 118.538 224.256 118.464C224.301 118.352 224.346 118.24 224.39 118.13C224.407 118.086 224.424 118.041 224.441 117.996C224.444 117.989 224.447 117.981 224.45 117.973C224.455 117.961 224.46 117.948 224.465 117.935C224.727 117.26 224.984 116.56 225.24 115.816C225.248 115.792 225.257 115.768 225.265 115.745C225.32 115.585 225.374 115.423 225.429 115.259C225.606 114.734 225.78 114.195 225.952 113.64C225.964 113.602 225.976 113.565 225.988 113.526C226.02 113.421 226.053 113.315 226.085 113.208C226.127 113.071 226.169 112.936 226.212 112.795C226.376 112.253 226.534 111.701 226.687 111.138C226.71 111.055 226.733 110.971 226.756 110.887C226.775 110.815 226.794 110.741 226.814 110.668C226.988 110.013 227.157 109.338 227.32 108.636C227.423 108.197 227.525 107.75 227.624 107.292C227.787 106.539 227.94 105.769 228.086 104.975C228.427 103.148 228.719 101.207 228.974 99.0546C228.985 98.9613 228.994 98.8687 229.005 98.7755C229.05 98.3825 229.095 97.9891 229.136 97.5955C229.314 95.9196 229.454 94.2629 229.553 92.6542C229.563 92.4991 229.57 92.3441 229.579 92.189C229.613 91.6504 229.644 91.1103 229.672 90.5684C229.769 88.6513 229.828 86.8705 229.851 85.1242C229.852 85.0299 229.853 84.9395 229.854 84.8457C229.88 83.1367 229.882 81.3572 229.858 79.5315C229.857 79.4804 229.856 79.4289 229.856 79.3776C229.855 79.3368 229.855 79.2954 229.854 79.2545C229.852 79.1113 229.849 78.9752 229.847 78.8339C229.846 78.7839 229.845 78.734 229.844 78.6839C229.816 76.9727 229.765 75.3838 229.687 73.8589C229.679 73.6912 229.67 73.53 229.661 73.3668C229.654 73.2055 229.646 73.0454 229.638 72.8823C229.584 71.8195 229.509 70.7104 229.413 69.5402C229.377 69.0825 229.34 68.6379 229.3 68.2033C229.245 67.609 229.19 67.0456 229.133 66.5029C229.132 66.4884 229.131 66.4744 229.129 66.4599C229.121 66.3805 229.112 66.3005 229.104 66.221C229.092 66.1072 229.079 65.9921 229.067 65.8803C229.05 65.7188 229.031 65.5566 229.013 65.3942C229 65.2833 228.987 65.1734 228.974 65.0643C228.964 64.9777 228.954 64.8912 228.943 64.8044C228.853 64.0487 228.757 63.3293 228.655 62.632C228.61 62.3232 228.564 62.0218 228.518 61.7242C228.505 61.6401 228.492 61.5548 228.478 61.4703C228.454 61.3185 228.431 61.1665 228.407 61.0175C228.352 60.6768 228.296 60.3336 228.237 59.9852C228.221 59.8913 228.202 59.7988 228.186 59.7051C228.138 59.4314 228.089 59.1632 228.04 58.8985C227.972 58.5296 227.901 58.1632 227.827 57.7979C227.809 57.708 227.791 57.6187 227.773 57.5296C227.556 56.4718 227.318 55.4326 227.061 54.4167C227.041 54.3356 227.021 54.2544 227 54.1733C226.967 54.0462 226.937 53.9159 226.904 53.7895C226.867 53.6518 226.826 53.5115 226.789 53.3732C226.694 53.0174 226.597 52.6639 226.497 52.3118C226.485 52.2717 226.474 52.2317 226.462 52.1915C226.4 51.973 226.34 51.7527 226.276 51.5359C225.778 49.8521 225.271 48.3232 224.733 46.8841C224.192 45.3922 223.637 44.0256 222.883 42.8004C222.834 42.7193 222.785 42.6377 222.734 42.5577C222.684 42.4811 222.631 42.4067 222.58 42.3313C222.494 42.2041 222.406 42.0775 222.314 41.954C222.296 41.9298 222.28 41.9043 222.262 41.8802C222.223 41.8287 222.178 41.7796 222.137 41.7286C222.079 41.6556 222.025 41.58 221.965 41.5085C221.935 41.4728 221.901 41.439 221.87 41.4036C221.826 41.3528 221.78 41.3028 221.734 41.2527C221.621 41.1286 221.504 41.0065 221.383 40.8866C221.345 40.849 221.307 40.8115 221.268 40.7742C221.125 40.6376 220.977 40.5041 220.824 40.3732C220.8 40.3528 220.777 40.332 220.753 40.3117C220.203 39.8509 219.588 39.4253 218.908 39.0387C218.826 38.9926 218.742 38.9491 218.659 38.904C218.523 38.8302 218.386 38.7567 218.245 38.6858C218.14 38.6329 218.033 38.5821 217.925 38.5312C217.849 38.4948 217.775 38.4565 217.697 38.421C217.631 38.3908 217.562 38.3633 217.495 38.3339C217.451 38.3146 217.41 38.2931 217.365 38.2741C217.335 38.2614 217.304 38.2501 217.273 38.2382C217.18 38.1991 217.087 38.1606 216.992 38.1232C216.967 38.1106 216.945 38.0974 216.926 38.0837C216.795 37.9365 216.651 37.8072 216.517 37.6902C216.455 37.636 216.393 37.5824 216.335 37.5279C216.316 37.5109 216.297 37.4933 216.279 37.4762L216.277 37.4743C216.179 37.3832 216.075 37.2866 215.967 37.1876C215.937 37.1596 215.906 37.1317 215.876 37.1036C215.768 37.0047 215.656 36.904 215.541 36.8012C215.521 36.7828 215.501 36.7645 215.48 36.7463C215.359 36.6385 215.236 36.5302 215.11 36.422C215.098 36.412 215.086 36.4015 215.074 36.3915C215.06 36.3797 215.046 36.3683 215.033 36.3565C214.377 35.7979 213.592 35.1769 212.684 34.7177C210.819 33.7749 208.541 33.5557 206.877 33.3954C206.868 33.3945 206.858 33.3937 206.848 33.3928L206.841 33.3921C206.829 33.3909 206.816 33.39 206.804 33.3888C204.994 33.2165 203.038 33.1136 200.654 33.0662C199.678 33.0413 198.688 33.0241 197.695 33.0167C197.638 33.0163 197.581 33.0163 197.524 33.016C196.409 33.0042 195.299 33.0016 194.187 33.0167L193.886 33.0209C193.583 33.0251 193.277 33.0296 192.971 33.0339C192.957 33.034 192.943 33.0342 192.928 33.0343C192.914 33.0345 192.901 33.0349 192.887 33.035C191.125 33.0602 189.328 33.0914 187.552 33.1608C187.529 33.1617 187.506 33.1627 187.483 33.1636C186.517 33.1938 185.525 33.2348 184.481 33.2876C183.343 33.339 182.171 33.399 181.004 33.4742C180.628 33.4985 180.251 33.5208 179.873 33.5431C178.066 33.6505 176.199 33.7622 174.385 34.0827C174.382 34.0834 174.378 34.0837 174.374 34.0843L174.369 34.0853C174.352 34.0883 174.336 34.0906 174.319 34.0936C174.137 34.1263 173.963 34.1615 173.793 34.1979C173.769 34.2031 173.745 34.2085 173.721 34.2138C172.805 34.4148 172.053 34.6725 171.395 35.0129C171.348 35.0376 171.303 35.0648 171.256 35.0904C171.251 35.0931 171.246 35.0959 171.241 35.0986C171.118 35.1663 170.999 35.2369 170.882 35.3103C170.857 35.326 170.832 35.3416 170.807 35.3576C170.778 35.3768 170.747 35.3948 170.718 35.4142C170.685 35.4365 170.651 35.4622 170.618 35.4887C170.597 35.5031 170.576 35.5169 170.556 35.5315C170.497 35.5358 170.395 35.5265 170.323 35.5197C170.248 35.513 170.177 35.5069 170.112 35.5055L150.727 35.1143C150.713 35.1143 150.697 35.1149 150.682 35.1151L150.336 35.1071C150.278 34.9901 150.219 34.8734 150.161 34.7582L150.107 34.6531C150.352 33.6315 150.163 32.5777 149.844 31.677C149.661 31.1426 149.413 30.6162 149.108 30.1164C149.103 30.1077 149.097 30.0992 149.092 30.0904C149.036 29.9999 148.981 29.9087 148.922 29.82C148.581 29.3135 148.154 28.824 147.651 28.3543C147.615 28.3211 147.579 28.2883 147.543 28.2553C147.445 28.1664 147.344 28.0783 147.24 27.9909C147.184 27.9434 147.128 27.8956 147.07 27.8487C146.968 27.7662 146.863 27.6849 146.756 27.604C146.665 27.5355 146.574 27.4677 146.48 27.4005C146.384 27.3318 146.289 27.2628 146.19 27.1953C146.161 27.1762 146.132 27.1572 146.103 27.1381C146.09 27.129 146.077 27.1194 146.063 27.1104C146.027 27.0865 145.989 27.0621 145.952 27.0378C145.873 26.9866 145.793 26.9365 145.712 26.8863C145.691 26.8736 145.671 26.8609 145.65 26.8482C145.584 26.8079 145.517 26.7683 145.45 26.7293C145.445 26.7269 145.441 26.7247 145.437 26.7223C145.329 26.6604 145.219 26.6008 145.108 26.5438C144.229 26.0912 143.208 25.7837 142.305 26.1947C141.479 26.5709 141.307 27.3712 141.339 28.1161C141.34 28.129 141.34 28.1418 141.341 28.1547C141.346 28.2584 141.355 28.3606 141.367 28.4605C141.373 28.5103 141.38 28.5585 141.387 28.6073C141.394 28.6573 141.402 28.7054 141.411 28.7535C141.426 28.8432 141.442 28.9299 141.46 29.0149C141.466 29.0408 141.471 29.0656 141.477 29.0904C141.485 29.1283 141.493 29.1687 141.501 29.2054C141.536 29.3586 141.574 29.511 141.61 29.6639C141.717 30.1139 141.822 30.5641 141.928 31.0147C142.116 31.8223 142.31 32.6468 142.512 33.4707C142.631 33.9671 142.756 34.4647 142.889 34.96C142.893 34.9742 142.896 34.9886 142.9 35.0028C142.901 35.0059 142.902 35.009 142.902 35.012C142.877 35.0118 142.852 35.0118 142.825 35.0115L128.446 34.9595C127.441 34.9556 126.437 34.9607 125.432 34.9657L125.25 34.9665L109.543 35.0391L109.538 35.0393L109.219 35.0408C109.223 34.8825 109.196 34.7259 109.129 34.5761C109.06 34.4221 108.958 34.2878 108.838 34.1698C108.833 34.1647 108.829 34.1583 108.824 34.1533C108.509 33.8335 108.101 33.6627 107.692 33.5361L107.688 33.5348C107.684 33.5336 107.68 33.5327 107.676 33.5314C107.63 33.5174 107.584 33.5035 107.539 33.4904C107.516 33.4839 107.493 33.479 107.471 33.4726C107.326 33.4312 107.18 33.3933 107.034 33.3591C107.028 33.3577 107.022 33.3564 107.016 33.3551C106.867 33.3204 106.717 33.2889 106.567 33.2608C106.529 33.2535 106.492 33.2461 106.454 33.2393C106.385 33.2269 106.315 33.2156 106.245 33.2044C105.288 33.0445 104.328 32.9848 103.468 32.9531C103.438 32.9519 103.406 32.9526 103.375 32.9515C103.256 32.9477 103.135 32.9477 103.016 32.9457C102.841 32.9427 102.667 32.9381 102.488 32.9391C101.902 32.9417 101.305 32.9645 100.702 33.0081C100.672 33.0102 100.641 33.0132 100.612 33.0154C100.582 33.0176 100.551 33.0204 100.521 33.0227C99.696 33.0848 98.8358 33.1696 97.9816 33.3234C97.8248 33.3509 97.6729 33.3798 97.5246 33.4105C97.3961 33.4369 97.261 33.4675 97.1238 33.5011C96.5909 33.6295 95.8109 33.8558 95.4198 34.5214C95.3056 34.7156 95.2159 34.9511 95.1694 35.1938L76.1542 35.3891C75.095 34.7156 73.7877 34.4052 72.5107 34.1616C72.0414 34.069 71.5694 33.9899 71.0947 33.9217C71.0638 33.9171 71.0328 33.9122 71.0018 33.9078C70.929 33.8975 70.856 33.8876 70.783 33.8778C69.5732 33.71 68.4213 33.6072 67.4795 33.5342C67.4276 33.5302 67.371 33.526 67.3178 33.5218C66.0471 33.4162 64.8015 33.3379 63.5957 33.2884C63.3945 33.2796 63.1928 33.2717 62.9904 33.2645C62.9386 33.2628 62.8851 33.26 62.8334 33.2583L62.2014 33.2376C61.8978 33.2276 61.5941 33.2176 61.2905 33.2075C60.1824 33.17 59.074 33.1326 57.9656 33.1072L51.6186 32.9637C51.1841 32.9539 50.7495 32.9427 50.315 32.9316C49.2809 32.905 48.2116 32.8777 47.1582 32.8696L47.1292 32.8693C46.9885 32.8682 46.8454 32.8673 46.704 32.8663C46.1973 32.8601 45.6923 32.8553 45.1853 32.8542C44.208 32.8523 43.1287 32.8552 42.0095 32.8765C41.9929 32.8767 41.9761 32.8768 41.9595 32.8771C41.9356 32.8776 41.9105 32.8782 41.8866 32.8787C41.7773 32.8809 41.6681 32.8833 41.5581 32.8859C40.8163 32.9025 40.0249 32.9273 39.2091 32.9739C37.9884 33.0356 36.6643 33.1175 35.3843 33.3835C34.8463 33.4805 34.3104 33.6209 33.81 33.8442C33.7779 33.8586 33.7463 33.8738 33.7144 33.8889C33.5994 33.9433 33.4872 34.0029 33.3771 34.0674C33.3369 34.0909 33.2974 34.1151 33.2579 34.1398C33.2149 34.167 33.1697 34.1897 33.1276 34.2187C33.0916 34.2435 33.0593 34.2726 33.024 34.2982C32.9242 34.3689 32.8274 34.4437 32.7321 34.5222C32.7125 34.5386 32.6929 34.5548 32.6735 34.5714C32.0818 35.0738 31.5836 35.7175 31.2627 36.4421C31.0879 36.8362 30.9617 37.2592 30.8871 37.6988C30.8859 37.7058 30.8856 37.7137 30.8845 37.7206C30.8572 37.8836 30.8366 38.0521 30.8228 38.2238C30.822 38.2339 30.82 38.2428 30.8192 38.2529C30.8148 38.3115 30.8142 38.3701 30.8137 38.4274C30.8136 38.4365 30.8136 38.4467 30.8135 38.4567C30.8121 38.4906 30.8105 38.5244 30.8095 38.5586C30.7992 38.5697 30.788 38.5825 30.7776 38.5936C30.226 39.1326 29.774 39.7421 29.4013 40.3426C29.3963 40.3507 29.3908 40.3576 29.3858 40.3657C29.3778 40.3787 29.3708 40.3921 29.3628 40.4051C29.2629 40.5683 29.1688 40.729 29.0804 40.8882C29.044 40.953 29.0075 41.0177 28.9721 41.083C28.946 41.1319 28.922 41.1788 28.8968 41.227C28.1473 42.6403 27.6276 44.1225 27.2143 45.4276C27.1949 45.4891 27.1783 45.5511 27.1592 45.6126C27.051 45.9626 26.9494 46.3048 26.8542 46.6367C26.8186 46.7612 26.7825 46.8849 26.748 47.0094C26.7427 47.0286 26.7368 47.0487 26.7315 47.0677C26.3465 48.4402 26.0253 49.8082 25.7524 51.0564C25.7514 51.0609 25.7503 51.0656 25.7493 51.0701C25.5189 52.0962 25.3098 53.1223 25.109 54.1541C24.9505 54.9561 24.8037 55.7312 24.6679 56.4861C24.6519 56.5728 24.6357 56.6584 24.6197 56.7452C24.3479 58.2139 24.1128 59.7831 23.9151 61.4114C23.8972 61.5558 23.8794 61.7015 23.8618 61.848C23.8535 61.9198 23.844 61.9898 23.8358 62.0618C23.8334 62.0831 23.8313 62.1049 23.8289 62.1261C23.7935 62.4286 23.7585 62.734 23.7246 63.0459C23.551 64.6407 23.4163 66.23 23.3197 67.7805C23.3148 67.8528 23.3088 67.9249 23.3041 67.9972C23.1745 69.9581 23.098 71.9272 23.0346 73.7631C23.0261 74.0094 23.0182 74.2596 23.0107 74.5119C22.9769 75.6088 22.9564 76.6804 22.9428 77.6818C22.942 77.7441 22.9411 77.8077 22.9403 77.8708C22.9389 77.9799 22.9375 78.0881 22.9362 78.1954C22.932 78.544 22.9281 78.899 22.9248 79.2687C22.9075 81.2394 22.9075 83.0483 22.9248 84.7971C22.9248 84.8021 22.9248 84.8068 22.9248 84.8117C22.9249 84.8174 22.925 84.8228 22.925 84.8283C22.9252 84.8461 22.9252 84.8644 22.9254 84.8821C22.9255 84.8938 22.9257 84.9049 22.9258 84.9166C22.9412 86.7963 22.9721 88.4424 23.0206 89.9423C23.0258 90.106 23.0324 90.2691 23.0379 90.4327C23.0405 90.5096 23.0428 90.5875 23.0455 90.6639C23.1038 92.3618 23.1776 94.337 23.3166 96.291C23.3184 96.3153 23.3202 96.3389 23.3219 96.3631C23.4195 97.8821 23.5512 99.4434 23.7182 101.019C23.7787 101.589 23.8451 102.151 23.9142 102.708C24.079 104.081 24.2925 105.508 24.5503 106.965C24.7791 108.282 25.037 109.638 25.3206 111.015C25.3288 111.056 25.3372 111.097 25.3455 111.137C25.3748 111.279 25.4026 111.419 25.4323 111.561C25.4412 111.603 25.4508 111.648 25.4597 111.69C25.4926 111.848 25.5264 112.007 25.5602 112.166C25.5612 112.171 25.5622 112.175 25.5632 112.18C25.605 112.377 25.6472 112.573 25.6903 112.771C25.8548 113.527 26.0359 114.324 26.2341 115.136C26.2586 115.237 26.2832 115.338 26.3085 115.44C26.3239 115.502 26.3395 115.564 26.3551 115.626C26.5681 116.477 26.8052 117.356 27.073 118.231C27.3228 119.057 27.5726 119.796 27.8326 120.482C28.1224 121.26 28.4511 122.038 28.8452 122.795C29.1158 123.323 29.4485 123.893 29.8509 124.444C29.866 124.465 29.8815 124.484 29.8966 124.504C29.9953 124.637 30.0956 124.77 30.2031 124.9C30.2062 124.903 30.2093 124.908 30.2124 124.912C30.3258 125.049 30.4439 125.183 30.5662 125.313C30.5689 125.315 30.5725 125.318 30.5753 125.321C30.6497 125.4 30.7309 125.473 30.8092 125.549C30.8173 125.84 30.8394 126.125 30.8843 126.394C30.8899 126.428 30.9 126.46 30.9062 126.493C30.9113 126.525 30.913 126.556 30.9195 126.588C31.0114 127.043 31.1588 127.476 31.3574 127.874C31.6847 128.532 32.1485 129.109 32.6953 129.564C32.8332 129.682 32.9774 129.793 33.1276 129.897C33.8925 130.425 34.8136 130.649 35.7126 130.787C35.7168 130.788 35.7209 130.789 35.725 130.789C35.736 130.791 35.7472 130.793 35.7583 130.795C36.8717 130.994 38.0175 131.08 39.184 131.141C39.7004 131.17 40.2321 131.192 40.7856 131.209C42.1271 131.253 43.5767 131.27 45.266 131.261C45.5802 131.259 45.8928 131.256 46.2055 131.253C46.5143 131.251 46.8237 131.248 47.1292 131.246L47.1582 131.246C48.2116 131.238 49.2809 131.21 50.315 131.184C50.7176 131.173 51.12 131.163 51.5226 131.154L57.8151 131.012C57.8303 131.011 57.8458 131.011 57.8611 131.011L57.9656 131.008C58.5616 130.995 59.1576 130.977 59.7537 130.958C60.8094 130.927 61.8722 130.892 62.9535 130.854C63.0298 130.851 63.1081 130.847 63.1846 130.844C63.4352 130.834 63.6847 130.824 63.9324 130.812C64.9843 130.763 66.0652 130.694 67.1951 130.603C67.2903 130.596 67.3881 130.588 67.4795 130.581C68.2543 130.521 69.1719 130.44 70.1443 130.321C70.9777 130.223 71.8414 130.095 72.7053 129.916C73.9483 129.673 75.1356 129.372 76.1304 128.743C76.1329 128.742 76.1354 128.741 76.1379 128.739C76.1446 128.735 76.1498 128.731 76.1563 128.727L95.1694 128.922C95.1803 128.979 95.1942 129.034 95.2098 129.089C95.2124 129.099 95.215 129.109 95.2177 129.118C95.2316 129.165 95.2465 129.211 95.2634 129.257C95.271 129.277 95.2792 129.298 95.2875 129.318C95.3269 129.415 95.3701 129.509 95.4198 129.594C95.4889 129.711 95.5733 129.811 95.6634 129.903C95.682 129.923 95.7023 129.941 95.7218 129.959C95.7761 130.01 95.8318 130.058 95.8907 130.101C95.9136 130.118 95.9353 130.136 95.959 130.152C95.9664 130.157 95.9745 130.16 95.9819 130.165C96.0544 130.213 96.1284 130.255 96.2043 130.294C96.9598 130.699 97.8723 130.809 98.6885 130.904L98.7384 130.91C99.1635 130.968 99.5859 131.015 100.003 131.051C100.114 131.061 100.223 131.068 100.334 131.078C100.456 131.087 100.581 131.099 100.702 131.107C100.735 131.11 100.768 131.11 100.802 131.113C101.016 131.127 101.228 131.138 101.438 131.148C101.561 131.153 101.683 131.159 101.805 131.162C102.003 131.169 102.199 131.172 102.393 131.173C102.461 131.174 102.529 131.177 102.596 131.177C102.651 131.177 102.705 131.175 102.759 131.174C102.841 131.174 102.926 131.177 103.007 131.175C103.881 131.16 104.679 131.108 105.42 131.021C106.07 130.951 106.725 130.847 107.362 130.674C107.464 130.647 107.57 130.617 107.676 130.584C107.68 130.583 107.684 130.582 107.688 130.58C107.732 130.566 107.781 130.549 107.831 130.532C108.328 130.359 108.819 130.102 109.065 129.688C109.167 129.515 109.217 129.327 109.219 129.132C109.22 129.114 109.221 129.096 109.221 129.077L109.221 129.075L110.36 129.08L125.056 129.149C125.685 129.153 126.314 129.154 126.943 129.155C127.19 129.156 127.438 129.157 127.686 129.157C127.7 129.157 127.714 129.157 127.728 129.157C127.796 129.157 127.864 129.158 127.932 129.158L140.696 129.111C140.705 129.111 140.714 129.11 140.723 129.11L142.903 129.102C142.892 129.14 142.883 129.178 142.873 129.216C142.832 129.367 142.793 129.518 142.754 129.669C142.388 131.063 142.062 132.473 141.746 133.847L141.526 134.805C141.518 134.84 141.509 134.875 141.501 134.91C141.494 134.94 141.488 134.974 141.481 135.006C141.468 135.062 141.456 135.118 141.444 135.176C141.438 135.208 141.431 135.24 141.425 135.274C141.329 135.775 141.277 136.322 141.426 136.858C141.606 137.507 142.112 137.934 142.795 138.056C142.811 138.059 142.826 138.063 142.842 138.066C142.945 138.082 143.051 138.091 143.16 138.093C143.175 138.093 143.188 138.096 143.202 138.096C143.221 138.096 143.239 138.096 143.257 138.096ZM56.0275 121.926C53.9549 121.656 52.3653 121.423 50.8741 121.168C49.0471 120.857 47.5503 120.536 46.1629 120.157C45.021 119.846 43.5558 119.384 42.3491 118.57C41.8299 118.22 41.3624 117.79 40.9453 117.289L54.7916 112.223C55.1263 112.367 55.452 112.489 55.75 112.591C56.8932 112.985 58.0687 113.296 59.2427 113.515C60.6178 113.772 61.9777 113.913 63.0088 114.008C64.1099 114.109 65.3213 114.187 66.8215 114.255C68.0989 114.313 69.372 114.348 70.5578 114.377C71.7591 114.407 72.9507 114.423 74.1672 114.439C74.5755 114.444 74.9838 114.45 75.392 114.457C76.1974 114.469 77.0028 114.481 77.8079 114.486C77.947 114.487 78.0861 114.487 78.2254 114.487C78.3636 114.487 78.5019 114.487 78.6401 114.487L93.871 114.486L93.871 123.813L93.3993 123.811C92.8992 123.811 92.3987 123.81 91.8988 123.801C90.3839 123.772 88.8689 123.741 87.3536 123.711L85.649 123.676C84.3853 123.652 83.0703 123.617 81.6282 123.572C81.0979 123.555 80.5673 123.54 80.0367 123.525C78.9174 123.494 77.7602 123.461 76.6247 123.409L70.3857 123.123C69.2396 123.07 68.0729 122.994 66.9447 122.921C66.449 122.889 65.953 122.857 65.4571 122.826C63.8388 122.726 62.1855 122.576 60.727 122.443C59.1282 122.298 57.547 122.124 56.0275 121.926ZM35.2126 91.1886C35.1347 89.4109 35.0956 87.5915 35.0648 86.0257C35.0361 84.542 35.0271 83.0153 35.038 81.488L35.0442 80.4963C35.0526 79.0964 35.0612 77.649 35.102 76.2281C35.1525 74.4785 35.2059 72.767 35.3039 71.0643C35.3958 69.4739 35.505 67.7623 35.6798 66.0209C35.8661 64.1654 36.0794 62.51 36.3316 60.9601C36.6061 59.2748 36.9297 57.7458 37.321 56.2855C37.7069 54.8446 38.17 53.2838 38.7363 51.5141C38.8147 51.2689 38.8964 51.0163 38.9807 50.7614L51.2285 55.2734C51.1213 55.4961 51.025 55.7135 50.9397 55.9175C50.4599 57.0658 50.0737 58.2758 49.7191 59.4166C49.3624 60.5644 49.0639 61.7571 48.8318 62.9618C48.6073 64.1266 48.4233 65.3548 48.2686 66.7173C48.1273 67.9617 48.0144 69.2095 47.9332 70.4256C47.8477 71.7111 47.7779 73.0468 47.7257 74.3953C47.6765 75.6665 47.6506 76.9497 47.6299 78.1469C47.6084 79.3796 47.5967 80.6868 47.5953 82.0331C47.5944 83.2819 47.6034 84.4353 47.6229 85.559C47.6458 86.8713 47.6737 88.2771 47.7237 89.6667C47.7701 90.9571 47.8444 92.2242 47.9228 93.5166C47.9904 94.6333 48.0924 95.8138 48.2259 97.0246C48.3878 98.4888 48.5587 99.6857 48.764 100.791C49.0039 102.083 49.2876 103.267 49.6314 104.41C49.9271 105.393 50.3315 106.684 50.8394 107.952C50.955 108.24 51.0842 108.54 51.2289 108.842L38.9701 113.336C38.7335 112.638 38.5185 111.932 38.3076 111.238L38.2208 110.953C37.7821 109.513 37.2833 107.838 36.9175 106.182C36.5907 104.701 36.3034 103.072 36.0395 101.202C35.8398 99.7871 35.6787 98.2727 35.5323 96.4354C35.3975 94.7353 35.2897 92.97 35.2126 91.1886ZM43.5857 44.8599C44.8767 44.2693 46.2456 43.9006 47.9041 43.5287C49.6635 43.1338 51.3974 42.8509 52.8616 42.6261C54.6393 42.3535 56.3987 42.1385 57.8852 41.9645C59.3502 41.7925 60.8861 41.6417 62.5801 41.5032C64.3087 41.3619 66.0276 41.2532 67.9344 41.1359C69.3284 41.0502 70.8136 40.972 72.6086 40.8896C73.0608 40.869 73.5129 40.8469 73.9647 40.8251C75.0686 40.7715 76.21 40.7159 77.3312 40.6802L83.5649 40.4811C84.6412 40.4467 85.7378 40.4289 86.7982 40.4115C87.3103 40.4032 87.8225 40.3948 88.3341 40.3847C88.7466 40.3766 89.159 40.3666 89.5715 40.3565C90.4316 40.3359 91.3211 40.3146 92.1938 40.3107L93.871 40.3033L93.871 49.6298L78.7594 49.6288C78.4494 49.6283 78.1402 49.6277 77.8314 49.6294C77.1067 49.6327 76.3817 49.6442 75.6571 49.6553L73.9522 49.6791C72.9605 49.6914 71.9689 49.7037 70.9775 49.7282C69.7686 49.7581 68.3385 49.7969 66.8969 49.8573C65.6464 49.9095 64.383 49.9896 63.142 50.096C61.7541 50.2144 60.6027 50.3588 59.5186 50.5498C58.3423 50.757 57.1706 51.0525 56.0356 51.4275C55.6367 51.5594 55.2148 51.7101 54.7913 51.8917L40.9512 46.8065C41.6388 46.0015 42.52 45.3475 43.5857 44.8599ZM118.432 40.1932L144.846 40.1932C145.805 40.1937 146.764 40.1982 147.723 40.2027L150.246 40.2119C151.576 40.2149 152.952 40.2183 154.302 40.2457C155.555 40.271 156.66 40.3154 157.722 40.421C156.772 40.8052 155.823 41.1889 154.875 41.5761C152.964 42.356 151.012 43.1919 149.07 44.0604C146.776 45.0875 144.546 46.1121 142.444 47.1054C140.48 48.0337 138.504 49.014 136.591 49.9638C136.33 49.9471 136.072 49.9327 135.818 49.9198C134.698 49.8628 133.561 49.8352 132.462 49.8087L131.82 49.7927C131.042 49.7729 130.264 49.7631 129.486 49.7551L118.714 49.6425C118.309 49.6375 117.904 49.6325 117.5 49.6311C117.178 49.6299 116.856 49.6305 116.534 49.6305L116.053 49.6311L98.6181 49.6301L98.6181 42.2893C98.6181 42.1617 98.6221 42.0324 98.626 41.9025C98.6411 41.3922 98.6568 40.8216 98.4424 40.2828L118.427 40.1932L118.432 39.7642L118.432 40.1932ZM158.954 118.883C157.64 118.383 156.349 117.864 155.15 117.378C153.502 116.709 152.149 116.151 150.891 115.621C149.485 115.028 148.416 114.569 147.426 114.132L142.983 112.172C143.591 111.711 144.177 111.151 144.753 110.474C145.446 109.662 146.106 108.722 146.832 107.514C147.514 106.378 148.066 105.31 148.518 104.247C148.977 103.168 149.372 102.028 149.725 100.76C150.037 99.6357 150.302 98.4598 150.534 97.1646C150.749 95.9615 150.931 94.6886 151.09 93.2733C151.22 92.1133 151.324 90.9091 151.398 89.6941C151.488 88.2447 151.543 87.0492 151.572 85.9321C151.602 84.7696 151.62 83.5392 151.627 82.0596L151.627 82.0574C151.627 80.8943 151.612 79.7264 151.582 78.5859C151.547 77.2119 151.495 75.9835 151.424 74.831C151.339 73.4542 151.234 72.1853 151.102 70.9518C150.969 69.7116 150.794 68.4557 150.582 67.2192C150.369 65.977 150.103 64.7606 149.792 63.6039C149.459 62.3642 149.067 61.1941 148.626 60.126C148.187 59.0617 147.638 57.9687 146.996 56.8776C146.275 55.6516 145.614 54.6851 144.916 53.8356C144.288 53.0708 143.651 52.4478 142.984 51.9435L147.426 49.9835C148.426 49.5422 149.495 49.0829 150.891 48.4942C152.152 47.9628 153.505 47.4045 155.15 46.7376C156.349 46.2514 157.64 45.7323 158.954 45.2319C160.319 44.7119 162.956 43.9316 164.549 43.3564C165.144 43.9438 165.661 44.554 166.094 45.0928C167.029 46.2568 167.896 47.5743 168.672 49.0089C169.388 50.3326 170.08 51.8017 170.788 53.5005C171.359 54.8677 171.909 56.3464 172.572 58.2951C173.122 59.9098 173.602 61.5033 174 63.0317C174.395 64.5536 174.736 66.1775 175.014 67.8584C175.276 69.4457 175.49 71.1012 175.649 72.779C175.793 74.2956 175.901 75.9556 175.979 77.8542C176.041 79.369 176.064 80.9406 176.05 82.6592C176.034 84.5855 175.986 86.3008 175.903 87.9029C175.818 89.5578 175.685 91.168 175.51 92.6891C175.302 94.487 175.054 96.1305 174.754 97.7133C174.443 99.3478 174.06 100.959 173.615 102.503C173.179 104.017 172.664 105.606 172.041 107.359C171.464 108.983 170.842 110.546 170.191 112.006C169.451 113.666 168.727 115.08 167.979 116.326C167.17 117.675 166.233 118.937 165.196 120.078C164.945 120.354 164.698 120.606 164.454 120.842C162.853 120.261 160.291 119.393 158.954 118.883ZM98.626 122.213C98.6221 122.083 98.6181 121.954 98.6181 121.826L98.6181 114.486L112.62 114.485L116.4 114.485L117.457 114.485C117.801 114.484 118.146 114.48 118.491 114.475L129.597 114.36C130.215 114.354 130.834 114.348 131.452 114.332L132.23 114.313C133.311 114.287 134.428 114.26 135.529 114.209C135.876 114.193 136.231 114.174 136.589 114.151L136.997 114.354C139.318 115.506 141.457 116.544 143.536 117.527C145.505 118.456 147.503 119.368 149.473 120.235C151.546 121.147 153.725 122.07 155.949 122.978C156.539 123.219 157.132 123.454 157.725 123.689C157.683 123.693 157.639 123.698 157.597 123.702C156.3 123.821 154.885 123.881 153.143 123.891C151.742 123.901 150.341 123.905 148.939 123.908L146.501 123.916C145.77 123.919 145.04 123.922 144.31 123.922L119.36 123.922C118.971 123.922 118.582 123.923 118.192 123.921L107.537 123.873L98.442 123.833C98.6567 123.294 98.6412 122.723 98.626 122.213ZM217.592 120.738C216.974 121.587 216.245 122.274 215.426 122.781C214.279 123.49 213.034 123.774 211.925 123.582C210.947 123.411 210.06 122.836 209.49 122.004C208.814 121.016 208.547 119.676 208.737 118.23L208.738 118.221C208.761 118.086 208.917 117.322 208.939 117.239C209.234 116.159 209.765 115.115 210.474 114.22C211.138 113.382 211.909 112.722 212.764 112.259C213.965 111.609 215.231 111.426 216.33 111.743C217.306 112.025 218.144 112.729 218.631 113.673C219.182 114.745 219.324 116.113 219.031 117.528C218.796 118.66 218.298 119.77 217.592 120.738ZM219.031 46.5877C219.324 48.0021 219.182 49.3708 218.631 50.4418C218.144 51.3868 217.306 52.0905 216.33 52.3723C215.231 52.6895 213.965 52.5063 212.764 51.8559C211.909 51.3929 211.138 50.7336 210.474 49.8958C209.765 49.0002 209.234 47.9563 208.939 46.8781C208.917 46.7932 208.761 46.0292 208.738 45.8945L208.737 45.8851C208.547 44.4393 208.814 43.0989 209.49 42.1109C210.059 41.2789 210.947 40.7039 211.924 40.5336C213.035 40.3415 214.279 40.6249 215.426 41.3345C216.245 41.8416 216.974 42.5286 217.592 43.377C218.298 44.3455 218.796 45.4558 219.031 46.5877ZM34.0609 40.8891L34.2198 40.9215C35.131 41.1058 36.1635 41.3149 36.8153 41.8841C37.0892 42.1234 37.2235 42.4638 37.2372 42.9551C37.2481 43.3522 37.1873 43.7811 37.0334 44.367C36.9113 44.8336 36.7851 45.3162 36.5514 45.6979C36.2132 46.2514 35.5405 46.5871 34.8898 46.9116C34.6747 47.0189 34.4522 47.13 34.2452 47.2473C33.2082 47.8357 32.2383 48.4937 31.3702 49.1205C31.6328 47.8568 31.9551 46.3907 32.3717 44.9244C32.8266 43.3228 33.2924 42.0253 33.8351 40.8455C33.9103 40.86 33.9856 40.8737 34.0609 40.8891ZM34.2452 116.868C34.4519 116.985 34.6739 117.096 34.8886 117.203C35.5399 117.528 36.2129 117.864 36.5516 118.417C36.7851 118.799 36.9113 119.282 37.0389 119.77C37.1873 120.334 37.2481 120.763 37.2372 121.16C37.2235 121.652 37.0892 121.992 36.8153 122.231C36.1635 122.8 35.131 123.01 34.2198 123.194L34.0609 123.226C33.987 123.241 33.9122 123.256 33.8361 123.271C33.5737 122.699 33.3241 122.088 33.0852 121.426C32.6411 120.197 32.2466 118.839 31.8439 117.152C31.6724 116.434 31.512 115.712 31.363 114.99C32.2329 115.618 33.2053 116.278 34.2452 116.868Z" fill="#DEDFE6"/>
<path d="M203.694 135.079L203.694 141.806C203.694 142.91 202.799 143.806 201.694 143.806L183.878 143.806C182.774 143.806 181.878 142.91 181.878 141.806L181.878 135.079L203.694 135.079Z" fill="#DEDFE5"/>
<path d="M64.0723 135.079L64.0723 141.806C64.0723 142.91 63.1768 143.806 62.0723 143.806L44.256 143.806C43.1514 143.806 42.256 142.91 42.256 141.806L42.256 135.079L64.0723 135.079Z" fill="#DEDFE5"/>
<path d="M203.694 28.1807L203.694 21.4542C203.694 20.3496 202.799 19.4542 201.694 19.4542L183.878 19.4542C182.774 19.4542 181.878 20.3496 181.878 21.4542L181.878 28.1807L203.694 28.1807Z" fill="#DEDFE5"/>
<path d="M192.071 4.28964L191.571 4.28964L191.571 3.78964L192.071 3.78964L192.071 4.28964ZM242.733 3.93608C242.929 4.13134 242.929 4.44793 242.733 4.64319L239.551 7.82517C239.356 8.02043 239.04 8.02043 238.844 7.82517C238.649 7.62991 238.649 7.31332 238.844 7.11806L241.673 4.28963L238.844 1.46121C238.649 1.26595 238.649 0.949363 238.844 0.754101C239.04 0.558839 239.356 0.558839 239.551 0.754101L242.733 3.93608ZM191.571 15.3057L191.571 14.3877L192.571 14.3877L192.571 15.3057L191.571 15.3057ZM191.571 12.5517L191.571 10.7157L192.571 10.7157L192.571 12.5517L191.571 12.5517ZM191.571 8.87965L191.571 7.04364L192.571 7.04364L192.571 8.87965L191.571 8.87965ZM191.571 5.20764L191.571 4.28964L192.571 4.28964L192.571 5.20764L191.571 5.20764ZM192.071 3.78964L193.119 3.78964L193.119 4.78964L192.071 4.78964L192.071 3.78964ZM195.215 3.78964L197.311 3.78964L197.311 4.78964L195.215 4.78964L195.215 3.78964ZM199.408 3.78964L201.504 3.78964L201.504 4.78964L199.408 4.78964L199.408 3.78964ZM203.6 3.78964L205.696 3.78964L205.696 4.78964L203.6 4.78964L203.6 3.78964ZM207.792 3.78964L209.889 3.78964L209.889 4.78964L207.792 4.78964L207.792 3.78964ZM211.985 3.78964L214.081 3.78964L214.081 4.78964L211.985 4.78964L211.985 3.78964ZM216.177 3.78964L217.225 3.78964L217.225 4.78964L216.177 4.78964L216.177 3.78964ZM217.225 3.78964L218.273 3.78964L218.273 4.78964L217.225 4.78964L217.225 3.78964ZM220.37 3.78964L222.466 3.78964L222.466 4.78964L220.37 4.78964L220.37 3.78964ZM224.562 3.78964L226.658 3.78964L226.658 4.78964L224.562 4.78964L224.562 3.78964ZM228.755 3.78964L230.851 3.78964L230.851 4.78964L228.755 4.78964L228.755 3.78964ZM232.947 3.78964L235.043 3.78964L235.043 4.78964L232.947 4.78964L232.947 3.78964ZM237.139 3.78963L239.236 3.78963L239.236 4.78963L237.139 4.78963L237.139 3.78963ZM241.332 3.78963L242.38 3.78963L242.38 4.78963L241.332 4.78963L241.332 3.78963Z" fill="#8E9F9E"/>
<path d="M51.5347 160.203L52.0347 160.203L52.0347 160.703L51.5347 160.703L51.5347 160.203ZM0.872033 160.556C0.676771 160.361 0.676771 160.044 0.872033 159.849L4.05401 156.667C4.24928 156.472 4.56586 156.472 4.76112 156.667C4.95638 156.862 4.95638 157.179 4.76112 157.374L1.93269 160.203L4.76112 163.031C4.95638 163.226 4.95638 163.543 4.76112 163.738C4.56586 163.933 4.24928 163.933 4.05401 163.738L0.872033 160.556ZM52.0347 149.187L52.0347 150.105L51.0347 150.105L51.0347 149.187L52.0347 149.187ZM52.0347 151.941L52.0347 153.777L51.0347 153.777L51.0347 151.941L52.0347 151.941ZM52.0347 155.613L52.0347 157.449L51.0347 157.449L51.0347 155.613L52.0347 155.613ZM52.0347 159.285L52.0347 160.203L51.0347 160.203L51.0347 159.285L52.0347 159.285ZM51.5347 160.703L50.4866 160.703L50.4866 159.703L51.5347 159.703L51.5347 160.703ZM48.3904 160.703L46.2942 160.703L46.2942 159.703L48.3904 159.703L48.3904 160.703ZM44.1979 160.703L42.1017 160.703L42.1017 159.703L44.1979 159.703L44.1979 160.703ZM40.0055 160.703L37.9093 160.703L37.9093 159.703L40.0055 159.703L40.0055 160.703ZM35.8131 160.703L33.7169 160.703L33.7169 159.703L35.8131 159.703L35.8131 160.703ZM31.6207 160.703L29.5245 160.703L29.5245 159.703L31.6207 159.703L31.6207 160.703ZM27.4282 160.703L26.3801 160.703L26.3801 159.703L27.4282 159.703L27.4282 160.703ZM26.3801 160.703L25.332 160.703L25.332 159.703L26.3801 159.703L26.3801 160.703ZM23.2358 160.703L21.1396 160.703L21.1396 159.703L23.2358 159.703L23.2358 160.703ZM19.0434 160.703L16.9472 160.703L16.9472 159.703L19.0434 159.703L19.0434 160.703ZM14.851 160.703L12.7548 160.703L12.7548 159.703L14.851 159.703L14.851 160.703ZM10.6585 160.703L8.56233 160.703L8.56233 159.703L10.6585 159.703L10.6585 160.703ZM6.46612 160.703L4.3699 160.703L4.3699 159.703L6.46612 159.703L6.46612 160.703ZM2.27369 160.703L1.22559 160.703L1.22559 159.703L2.27369 159.703L2.27369 160.703Z" fill="#8E9F9E"/>
<path d="M193.256 160.203L192.756 160.203L192.756 160.703L193.256 160.703L193.256 160.203ZM243.919 160.556C244.114 160.361 244.114 160.044 243.919 159.849L240.737 156.667C240.542 156.472 240.225 156.472 240.03 156.667C239.835 156.862 239.835 157.179 240.03 157.374L242.858 160.203L240.03 163.031C239.835 163.226 239.835 163.543 240.03 163.738C240.225 163.933 240.542 163.933 240.737 163.738L243.919 160.556ZM192.756 149.187L192.756 150.105L193.756 150.105L193.756 149.187L192.756 149.187ZM192.756 151.941L192.756 153.777L193.756 153.777L193.756 151.941L192.756 151.941ZM192.756 155.613L192.756 157.449L193.756 157.449L193.756 155.613L192.756 155.613ZM192.756 159.285L192.756 160.203L193.756 160.203L193.756 159.285L192.756 159.285ZM193.256 160.703L194.304 160.703L194.304 159.703L193.256 159.703L193.256 160.703ZM196.401 160.703L198.497 160.703L198.497 159.703L196.401 159.703L196.401 160.703ZM200.593 160.703L202.689 160.703L202.689 159.703L200.593 159.703L200.593 160.703ZM204.785 160.703L206.882 160.703L206.882 159.703L204.785 159.703L204.785 160.703ZM208.978 160.703L211.074 160.703L211.074 159.703L208.978 159.703L208.978 160.703ZM213.17 160.703L215.267 160.703L215.267 159.703L213.17 159.703L213.17 160.703ZM217.363 160.703L218.411 160.703L218.411 159.703L217.363 159.703L217.363 160.703ZM218.411 160.703L219.459 160.703L219.459 159.703L218.411 159.703L218.411 160.703ZM221.555 160.703L223.651 160.703L223.651 159.703L221.555 159.703L221.555 160.703ZM225.748 160.703L227.844 160.703L227.844 159.703L225.748 159.703L225.748 160.703ZM229.94 160.703L232.036 160.703L232.036 159.703L229.94 159.703L229.94 160.703ZM234.132 160.703L236.229 160.703L236.229 159.703L234.132 159.703L234.132 160.703ZM238.325 160.703L240.421 160.703L240.421 159.703L238.325 159.703L238.325 160.703ZM242.517 160.703L243.565 160.703L243.565 159.703L242.517 159.703L242.517 160.703Z" fill="#8E9F9E"/>
<path d="M51.5347 4.28964L52.0347 4.28964L52.0347 3.78964L51.5347 3.78964L51.5347 4.28964ZM0.872033 3.93608C0.676771 4.13134 0.676771 4.44793 0.872033 4.64319L4.05401 7.82517C4.24928 8.02043 4.56586 8.02043 4.76112 7.82517C4.95638 7.62991 4.95638 7.31332 4.76112 7.11806L1.93269 4.28963L4.76112 1.46121C4.95638 1.26595 4.95638 0.949363 4.76112 0.754101C4.56586 0.558839 4.24928 0.558839 4.05401 0.754101L0.872033 3.93608ZM52.0347 15.3057L52.0347 14.3877L51.0347 14.3877L51.0347 15.3057L52.0347 15.3057ZM52.0347 12.5517L52.0347 10.7157L51.0347 10.7157L51.0347 12.5517L52.0347 12.5517ZM52.0347 8.87965L52.0347 7.04364L51.0347 7.04364L51.0347 8.87965L52.0347 8.87965ZM52.0347 5.20764L52.0347 4.28964L51.0347 4.28964L51.0347 5.20764L52.0347 5.20764ZM51.5347 3.78964L50.4866 3.78964L50.4866 4.78964L51.5347 4.78964L51.5347 3.78964ZM48.3904 3.78964L46.2942 3.78964L46.2942 4.78964L48.3904 4.78964L48.3904 3.78964ZM44.1979 3.78964L42.1017 3.78964L42.1017 4.78964L44.1979 4.78964L44.1979 3.78964ZM40.0055 3.78964L37.9093 3.78964L37.9093 4.78964L40.0055 4.78964L40.0055 3.78964ZM35.8131 3.78964L33.7169 3.78964L33.7169 4.78964L35.8131 4.78964L35.8131 3.78964ZM31.6207 3.78964L29.5245 3.78964L29.5245 4.78964L31.6207 4.78964L31.6207 3.78964ZM27.4282 3.78964L26.3801 3.78964L26.3801 4.78964L27.4282 4.78964L27.4282 3.78964ZM26.3801 3.78964L25.332 3.78964L25.332 4.78964L26.3801 4.78964L26.3801 3.78964ZM23.2358 3.78964L21.1396 3.78964L21.1396 4.78964L23.2358 4.78964L23.2358 3.78964ZM19.0434 3.78964L16.9472 3.78964L16.9472 4.78964L19.0434 4.78964L19.0434 3.78964ZM14.851 3.78964L12.7548 3.78964L12.7548 4.78964L14.851 4.78964L14.851 3.78964ZM10.6585 3.78964L8.56233 3.78964L8.56233 4.78964L10.6585 4.78964L10.6585 3.78964ZM6.46612 3.78963L4.3699 3.78963L4.3699 4.78963L6.46612 4.78963L6.46612 3.78963ZM2.27369 3.78963L1.22559 3.78963L1.22559 4.78963L2.27369 4.78963L2.27369 3.78963Z" fill="#8E9F9E"/>
<path d="M64.0723 28.1797L64.0723 21.4532C64.0723 20.3486 63.1768 19.4532 62.0723 19.4532L44.256 19.4532C43.1514 19.4532 42.256 20.3486 42.256 21.4532L42.256 28.1797L64.0723 28.1797Z" fill="#DEDFE5"/>
</svg>
