<svg width="113" height="59" viewBox="0 0 113 59" fill="none" xmlns="http://www.w3.org/2000/svg">
<g clip-path="url(#clip0_421_224)">
<path d="M48.4884 52.0044L48.0852 52.0327C40.8075 52.5013 33.8575 52.8815 28.0548 53.1156L27.6118 53.1468C20.2507 53.4427 14.8089 53.4903 13.0142 53.1681C11.6201 52.9489 10.2853 52.4606 9.0875 51.7316C7.88969 51.0026 6.85274 50.0475 6.03694 48.9219C3.55572 45.6132 2.23735 40.4811 1.74013 33.4146C1.2429 26.3482 1.8325 21.06 3.82565 17.4322C4.47627 16.2041 5.36952 15.1141 6.45347 14.2253C7.53743 13.3366 8.79048 12.6668 10.1398 12.255C11.8815 11.6971 17.2666 10.9698 24.5963 10.2277L25.0393 10.1965C30.8176 9.61575 37.7524 9.01894 45.024 8.46373L45.4271 8.43537C53.8016 7.79821 62.6125 7.22613 70.6037 6.77269L71.2195 6.72936L74.3244 6.56313C84.3236 6.04678 92.6176 5.78537 96.4905 5.96569C109.829 6.58591 111.173 25.6927 111.173 25.6927C111.173 25.6927 112.517 44.7952 99.3761 47.2917C95.5654 47.9952 87.318 48.9195 77.3448 49.8041L74.2475 50.0787L73.6317 50.122C65.6703 50.8085 56.8873 51.4613 48.4884 52.0044Z" fill="#21BC4D"/>
<path d="M45.6521 11.7068L45.249 11.7352L45.0176 8.44673L45.4207 8.41836L45.6521 11.7068Z" fill="#404958"/>
<path d="M48.4878 52.0044L48.0846 52.0328L47.8535 48.7487L48.2567 48.7203L48.4878 52.0044Z" fill="#404958"/>
<path d="M27.3917 14.4809L26.4501 13.0581L24.6035 10.2272L25.0466 10.1961L26.9209 13.0424L27.7389 14.291L27.3917 14.4809Z" fill="#404958"/>
<path d="M28.0668 53.1323L27.6238 53.1634L29.0737 50.105L29.8068 48.5643L30.1699 48.726L29.5348 50.0769L28.0668 53.1323Z" fill="#404958"/>
<path d="M6.03463 48.9003C3.57555 45.59 2.23947 40.4592 1.74224 33.3927C1.24502 26.3262 1.83141 21.0557 3.82073 17.4369C6.90315 16.2906 10.1844 15.749 13.4769 15.8431L13.3985 32.5725L15.8192 49.1305C12.5718 49.682 9.24716 49.6038 6.03463 48.9003Z" fill="#28D459"/>
<path d="M107.627 25.9248C107.627 25.9248 107.067 17.9658 103.925 18.6222L104.985 33.6911C108.186 33.8794 107.627 25.9248 107.627 25.9248Z" fill="#2B3545"/>
<path d="M98.6902 9.15926L95.6519 8.88103C94.7048 8.79343 93.7506 8.96447 92.8952 9.37515C92.0399 9.78584 91.317 10.4201 90.8068 11.2074L90.7706 11.2622L91.3248 19.1389L103.65 18.2716C103.939 18.2489 104.219 18.1609 104.467 18.0144C104.716 17.8679 104.926 17.6671 105.082 17.4276C105.238 17.1882 105.335 16.9169 105.365 16.6349C105.396 16.353 105.359 16.0682 105.257 15.803L104.34 13.3944C103.897 12.2422 103.134 11.2349 102.135 10.4865C101.137 9.73815 99.9436 9.27841 98.6902 9.15926Z" fill="white"/>
<path d="M101.1 43.4389L98.1311 44.1398C97.2056 44.3592 96.2368 44.3235 95.3324 44.0366C94.428 43.7498 93.6233 43.223 93.0079 42.5149L92.9644 42.4657L92.4102 34.589L104.735 33.7217C105.025 33.7038 105.314 33.7518 105.581 33.862C105.847 33.9722 106.084 34.1417 106.272 34.3569C106.459 34.5721 106.593 34.8272 106.663 35.1021C106.733 35.3771 106.736 35.6642 106.673 35.941L106.101 38.4543C105.824 39.6572 105.209 40.7614 104.326 41.6422C103.442 42.5231 102.325 43.1454 101.1 43.4389Z" fill="white"/>
<path d="M103.017 14.1884C102.459 12.8736 101.493 11.7647 100.254 11.0183C99.0148 10.2719 97.5664 9.92563 96.1128 10.0285L78.4844 11.2689L80.8266 44.5563L98.4551 43.3159C99.9097 43.2135 101.296 42.6665 102.418 41.7523C103.54 40.8381 104.342 39.603 104.708 38.2214C106.836 30.2358 106.242 21.7974 103.017 14.1884Z" fill="#28D459"/>
<path d="M103.553 33.1824C104.338 33.033 105.053 32.6377 105.59 32.0564C106.126 31.475 106.455 30.7392 106.527 29.9601C106.628 28.6555 106.625 27.3456 106.519 26.042C106.441 24.7365 106.261 23.4391 105.979 22.1614C105.798 21.3995 105.37 20.7164 104.757 20.2152C104.144 19.714 103.381 19.4219 102.582 19.383L78.9727 18.2011L80.3396 37.6285L103.553 33.1824Z" fill="#28D459"/>
<path d="M80.8241 44.5564L77.2429 44.2816L68.0389 43.5707L57.9669 42.7991L57.4823 38.5052C57.1214 35.3173 56.8386 32.121 56.6339 28.9163C56.437 26.1175 56.3035 23.3141 56.2336 20.5063L56.1122 16.1869L65.7268 14.0649L74.7361 12.0725L78.4977 11.2418C80.9215 16.4201 82.369 21.9866 82.7705 27.6738C82.7965 28.042 82.8224 28.4103 82.8486 28.7829C83.0867 34.112 82.4022 39.4449 80.8241 44.5564Z" fill="#2B3545"/>
<path d="M20.418 16.269C18.9112 15.6189 17.4966 14.782 16.209 13.7786L74.6899 9.66364L63.6564 12.4385L55.3442 14.5299C53.66 14.953 51.9492 15.2654 50.223 15.465L39.9114 16.6651L30.5539 17.759C27.0969 18.1628 23.5955 17.6481 20.418 16.269Z" fill="#2B3545"/>
<path d="M77.302 46.6722L57.4522 44.5639C55.7254 44.3794 53.9876 44.3082 52.2503 44.3508L32.4585 44.8378C29.897 44.8999 27.3718 45.4577 25.0288 46.479C22.6859 47.5003 20.5715 48.9648 18.8079 50.7881L77.2887 46.6731L77.302 46.6722Z" fill="#2B3545"/>
<path d="M15.8204 49.1304C9.89168 47.1311 7.92865 39.9239 7.31775 35.861C7.16646 34.9205 7.06707 33.9726 7.01999 33.0213C7.01999 33.0213 5.55226 19.8186 13.4781 15.843L15.0605 16.7548L17.6166 18.2165L21.5001 20.4468C21.5001 20.4468 19.6388 23.7344 19.7119 30.1515C19.7166 30.7869 19.7458 31.4554 19.7946 32.1486C20.3351 39.8303 23.1198 43.4659 23.1198 43.4659L19.6119 46.1946L18.299 47.2144L15.8204 49.1304Z" fill="#2B3545"/>
<path opacity="0.1" d="M53.357 16.4505C53.357 16.4505 53.0986 32.3305 55.1459 41.8742C55.1459 41.8742 33.6414 42.9519 26.4777 42.3196C26.4777 42.3196 34.5353 23.0694 53.357 16.4505Z" fill="white"/>
<path opacity="0.1" d="M78.4484 28.1042C71.2274 27.4802 63.7325 27.3937 56.6358 28.9162C56.4389 26.1173 56.3054 23.314 56.2355 20.5062L56.1141 16.1868L78.4837 11.2689C80.9075 16.4472 82.355 22.0137 82.7565 27.7009C82.7825 28.0691 82.8084 28.4374 82.8346 28.81C81.1998 28.5462 79.6444 28.2072 78.4484 28.1042Z" fill="white"/>
<path opacity="0.1" d="M80.8244 44.5564L77.2432 44.2816C78.0257 40.8476 78.4698 37.3491 78.5695 33.8343C78.6998 29.3529 78.2785 24.8742 77.3148 20.4946C76.7142 17.7808 75.3104 14.9144 74.7193 12.0824L78.4809 11.2516C80.9048 16.4299 82.3522 21.9964 82.7538 27.6836C82.7797 28.0519 82.8056 28.4202 82.8318 28.7928C83.0743 34.1176 82.3957 39.4471 80.8244 44.5564Z" fill="#080808"/>
<path opacity="0.05" d="M80.8247 44.5564L77.2435 44.2815L68.0396 43.5707C69.6966 33.6939 68.8979 23.5794 65.7109 14.0834L74.7202 12.091L78.4818 11.2603C80.9057 16.4386 82.3531 22.0051 82.7547 27.6923C82.7806 28.0605 82.8065 28.4288 82.8327 28.8014C83.074 34.1234 82.3952 39.4499 80.8247 44.5564Z" fill="white"/>
<path opacity="0.1" d="M7.29803 35.8712C7.14674 34.9307 7.04735 33.9827 7.00027 33.0315C7.00027 33.0315 5.55408 19.8185 13.4799 15.8429L21.5013 20.438C21.5013 20.438 19.6401 23.7257 19.7131 30.1428C19.3049 30.2064 18.9007 30.2929 18.5026 30.4021C14.4606 31.5437 10.6634 33.3971 7.29803 35.8712Z" fill="white"/>
<path opacity="0.1" d="M15.8204 49.1304C9.89168 47.1311 7.92865 39.9239 7.31775 35.861C7.16646 34.9205 7.06707 33.9726 7.01999 33.0213C7.01999 33.0213 5.55226 19.8186 13.4781 15.843L15.0605 16.7548C10.3525 20.3342 8.68529 27.3919 9.22692 32.8748C9.76944 38.4969 11.7408 44.9371 17.2816 48.0044L15.8204 49.1304Z" fill="#080808"/>
<path opacity="0.05" d="M15.8204 49.1304C9.89168 47.1311 7.92865 39.9239 7.31775 35.861C7.16646 34.9205 7.06707 33.9726 7.01999 33.0213C7.01999 33.0213 5.55226 19.8186 13.4781 15.843L15.0605 16.7548L17.6166 18.2165C14.9789 22.5266 13.7558 27.521 14.1126 32.5242C14.4694 37.5274 16.389 42.2978 19.6116 46.1902L18.299 47.2144L15.8204 49.1304Z" fill="white"/>
<path opacity="0.1" d="M20.418 16.269C18.9112 15.6189 17.4966 14.782 16.209 13.7786L74.6899 9.66364L63.6564 12.4385L20.418 16.269Z" fill="#080808"/>
<path opacity="0.05" d="M16.209 13.7786L36.6108 12.343L39.9114 16.6651L30.5539 17.759C28.0096 18.0546 25.4323 17.8551 22.9704 17.172C20.5084 16.4889 18.2105 15.3356 16.209 13.7786Z" fill="white"/>
<path opacity="0.1" d="M22.6291 47.7282C21.2293 48.5859 19.9461 49.614 18.8106 50.7878L77.2915 46.6729L65.9782 45.4704L22.6291 47.7282Z" fill="#080808"/>
<path opacity="0.05" d="M18.814 50.7876L39.2159 49.3521L41.8783 44.606L32.4599 44.8334C29.8987 44.8956 27.374 45.4539 25.0317 46.4759C22.6895 47.4979 20.5762 48.9634 18.814 50.7876Z" fill="white"/>
<path d="M77.3322 49.2301C77.4667 50.6358 77.2023 53.0796 73.8036 53.31L74.7245 46.8447C74.9236 46.8387 75.1226 46.8584 75.3163 46.9032C75.8605 47.0335 76.3483 47.3286 76.7103 47.7464C77.0722 48.1641 77.2898 48.6834 77.3322 49.2301Z" fill="#008726"/>
<path d="M73.8086 53.3185L74.7295 46.8532L74.1535 46.8937L73.1765 53.1931L73.8086 53.3185Z" fill="#404958"/>
<path d="M74.3698 7.11718C74.3062 5.70659 73.7019 3.31954 70.3047 3.57165L72.1218 9.84425C72.3198 9.82236 72.5141 9.77502 72.6996 9.70345C73.2203 9.49824 73.662 9.1378 73.9618 8.67344C74.2617 8.20909 74.4045 7.66449 74.3698 7.11718Z" fill="#008726"/>
<path d="M70.3097 3.57145L72.1268 9.84406L71.5509 9.88459L69.7013 3.78407L70.3097 3.57145Z" fill="#404958"/>
<path opacity="0.1" d="M80.4697 11.8213C80.4697 11.8213 97.0933 9.84178 99.1306 11.2702C101.168 12.6987 102.183 15.5488 102.183 15.5488C102.183 15.5488 99.868 12.0064 94.3921 12.3917C88.9162 12.7771 81.0726 13.9995 81.0726 13.9995L80.4697 11.8213Z" fill="white"/>
<path opacity="0.1" d="M82.7095 43.5791C82.7095 43.5791 99.4465 43.2113 101.264 41.5116C103.081 39.8119 103.687 36.852 103.687 36.852C103.687 36.852 101.891 40.6837 96.4151 41.069C90.9392 41.4544 83.0014 41.338 83.0014 41.338L82.7095 43.5791Z" fill="white"/>
</g>
<defs>
<clipPath id="clip0_421_224">
<rect width="109.714" height="49.87" fill="white" transform="translate(-0.00390625 8.51904) rotate(-4.02493)"/>
</clipPath>
</defs>
</svg>
