<svg width="55" height="25" viewBox="0 0 55 25" fill="none" xmlns="http://www.w3.org/2000/svg">
<path d="M43.5093 21.288L44.0093 21.288L44.0093 21.788L43.5093 21.788L43.5093 21.288ZM0.738244 21.6416C0.542982 21.4463 0.542982 21.1297 0.738244 20.9345L3.92022 17.7525C4.11549 17.5572 4.43207 17.5572 4.62733 17.7525C4.82259 17.9478 4.82259 18.2643 4.62733 18.4596L1.7989 21.288L4.62733 24.1165C4.82259 24.3117 4.82259 24.6283 4.62733 24.8236C4.43207 25.0188 4.11549 25.0188 3.92022 24.8236L0.738244 21.6416ZM44.0093 12L44.0093 13.161L43.0093 13.161L43.0093 12L44.0093 12ZM44.0093 15.483L44.0093 17.805L43.0093 17.805L43.0093 15.483L44.0093 15.483ZM44.0093 20.127L44.0093 21.288L43.0093 21.288L43.0093 20.127L44.0093 20.127ZM43.5093 21.788L42.4488 21.788L42.4488 20.788L43.5093 20.788L43.5093 21.788ZM40.328 21.788L38.2071 21.788L38.2071 20.788L40.328 20.788L40.328 21.788ZM36.0862 21.788L33.9653 21.788L33.9653 20.788L36.0862 20.788L36.0862 21.788ZM31.8445 21.788L29.7236 21.788L29.7236 20.788L31.8445 20.788L31.8445 21.788ZM27.6027 21.788L25.4818 21.788L25.4818 20.788L27.6027 20.788L27.6027 21.788ZM23.361 21.788L22.3005 21.788L22.3005 20.788L23.361 20.788L23.361 21.788ZM22.3005 21.788L21.2401 21.788L21.2401 20.788L22.3005 20.788L22.3005 21.788ZM19.1192 21.788L16.9984 21.788L16.9984 20.788L19.1192 20.788L19.1192 21.788ZM14.8775 21.788L12.7566 21.788L12.7566 20.788L14.8775 20.788L14.8775 21.788ZM10.6357 21.788L8.51485 21.788L8.51485 20.788L10.6357 20.788L10.6357 21.788ZM6.39398 21.788L4.27311 21.788L4.27311 20.788L6.39398 20.788L6.39398 21.788ZM2.15223 21.788L1.0918 21.788L1.0918 20.788L2.15223 20.788L2.15223 21.788Z" fill="#8E9F9E"/>
<path d="M54.0801 0.106445L54.0801 5.46408C54.0801 6.56865 53.1846 7.46408 52.0801 7.46408L37.686 7.46408C36.5814 7.46408 35.686 6.56865 35.686 5.46408L35.686 0.106445L54.0801 0.106445Z" fill="#FF7676"/>
</svg>
