<svg width="24" height="24" viewBox="0 0 24 24" fill="none" xmlns="http://www.w3.org/2000/svg">
<path d="M15.8355 4C16.8447 4 17.7815 4.50701 18.3348 5.34057L18.4402 5.51158L20.4336 9H21.5961C21.7894 9 21.9507 9.13712 21.988 9.31939L21.9961 9.4V9.87538C21.9961 10.2058 21.7938 10.498 21.4936 10.6181L21.3664 10.6574C21.7411 11.4354 21.908 12.2976 21.8505 13.1598L21.823 13.4471L21.0979 19.2481C20.9794 20.1962 20.2095 20.9202 19.2712 20.9938L19.1133 21H17.9961C16.9417 21 16.0779 20.1841 16.0016 19.1493L15.9961 19H7.99609C7.99609 20.0544 7.18022 20.9182 6.14536 20.9945L5.99609 21H4.87887C3.92332 21 3.10942 20.3259 2.92002 19.404L2.89432 19.2481L2.16919 13.4471C2.06154 12.5859 2.1803 11.7154 2.50859 10.9197L2.62576 10.6574L2.60206 10.6515C2.28155 10.5714 2.04712 10.3042 2.00345 9.98392L1.99609 9.87538V9.4C1.99609 9.2067 2.13321 9.04543 2.31548 9.00813L2.39609 9H3.55862L5.55201 5.51158C6.05275 4.63528 6.95771 4.07351 7.95594 4.00671L8.15674 4L15.8355 4ZM19.7553 12.0355C19.2618 12.5742 18.568 12.9402 17.7553 12.9933L17.5497 13H6.44245C5.54121 13 4.77152 12.6191 4.23685 12.0355C4.15452 12.3365 4.11938 12.6497 4.1337 12.9636L4.15375 13.199L4.87887 19H5.99609V18C5.99609 17.4872 6.38214 17.0645 6.87947 17.0067L6.99609 17H16.9961C17.5089 17 17.9316 17.386 17.9894 17.8834L17.9961 18V19H19.1133L19.8384 13.199C19.8874 12.807 19.8583 12.4118 19.7553 12.0355ZM5.73366 13.8983L8.47632 15.3793C8.84934 15.5808 8.69387 16.1479 8.27027 16.131L5.95612 16.0384C5.41981 16.0169 4.99609 15.5759 4.99609 15.0392V14.3382C4.99609 13.9596 5.40053 13.7184 5.73366 13.8983ZM18.9961 14.3382V15.0392C18.9961 15.5759 18.5724 16.0169 18.0361 16.0384L15.7219 16.131C15.2983 16.1479 15.1428 15.5808 15.5159 15.3793L18.2585 13.8983C18.5917 13.7184 18.9961 13.9596 18.9961 14.3382ZM15.8355 6L8.15674 6C7.79788 6 7.46653 6.19229 7.28849 6.50386L5.57421 9.50386C5.19365 10.1705 5.67477 11 6.44245 11H17.5497C18.3176 11 18.7989 10.1705 18.418 9.50386L16.7037 6.50386C16.5257 6.19229 16.1943 6 15.8355 6Z" fill="#09244B"/>
</svg>
