<svg width="55" height="24" viewBox="0 0 55 24" fill="none" xmlns="http://www.w3.org/2000/svg">
<path d="M43.5093 3.83307L44.0093 3.83307L44.0093 3.33307L43.5093 3.33307L43.5093 3.83307ZM0.738244 3.47952C0.542982 3.67478 0.542982 3.99136 0.738244 4.18662L3.92022 7.3686C4.11549 7.56386 4.43207 7.56386 4.62733 7.3686C4.82259 7.17334 4.82259 6.85676 4.62733 6.6615L1.7989 3.83307L4.62733 1.00464C4.82259 0.80938 4.82259 0.492797 4.62733 0.297535C4.43207 0.102273 4.11549 0.102273 3.92022 0.297535L0.738244 3.47952ZM44.0093 13.1211L44.0093 11.9601L43.0093 11.9601L43.0093 13.1211L44.0093 13.1211ZM44.0093 9.63809L44.0093 7.31608L43.0093 7.31608L43.0093 9.63809L44.0093 9.63809ZM44.0093 4.99407L44.0093 3.83307L43.0093 3.83307L43.0093 4.99407L44.0093 4.99407ZM43.5093 3.33307L42.4488 3.33307L42.4488 4.33307L43.5093 4.33307L43.5093 3.33307ZM40.328 3.33307L38.2071 3.33307L38.2071 4.33307L40.328 4.33307L40.328 3.33307ZM36.0862 3.33307L33.9653 3.33307L33.9653 4.33307L36.0862 4.33307L36.0862 3.33307ZM31.8445 3.33307L29.7236 3.33307L29.7236 4.33307L31.8445 4.33307L31.8445 3.33307ZM27.6027 3.33307L25.4818 3.33307L25.4818 4.33307L27.6027 4.33307L27.6027 3.33307ZM23.361 3.33307L22.3005 3.33307L22.3005 4.33307L23.361 4.33307L23.361 3.33307ZM22.3005 3.33307L21.2401 3.33307L21.2401 4.33307L22.3005 4.33307L22.3005 3.33307ZM19.1192 3.33307L16.9984 3.33307L16.9984 4.33307L19.1192 4.33307L19.1192 3.33307ZM14.8775 3.33307L12.7566 3.33307L12.7566 4.33307L14.8775 4.33307L14.8775 3.33307ZM10.6357 3.33307L8.51485 3.33307L8.51485 4.33307L10.6357 4.33307L10.6357 3.33307ZM6.39398 3.33307L4.27311 3.33307L4.27311 4.33307L6.39398 4.33307L6.39398 3.33307ZM2.15223 3.33307L1.0918 3.33307L1.0918 4.33307L2.15223 4.33307L2.15223 3.33307Z" fill="#8E9F9E"/>
<path d="M54.0801 23.9756L54.0801 18.6179C54.0801 17.5134 53.1846 16.6179 52.0801 16.6179L37.686 16.6179C36.5814 16.6179 35.686 17.5134 35.686 18.6179L35.686 23.9756L54.0801 23.9756Z" fill="#A6C9C6"/>
</svg>
