<svg width="175" height="95" viewBox="0 0 175 95" fill="none" xmlns="http://www.w3.org/2000/svg">
<path d="M101.844 94.6491C101.852 94.649 101.86 94.6474 101.868 94.6471C101.89 94.6465 101.912 94.6465 101.934 94.6451C101.985 94.6421 102.036 94.6344 102.086 94.6286C102.892 94.5393 103.632 94.1181 104.262 93.6939C104.358 93.6303 104.452 93.5631 104.546 93.496C104.602 93.4557 104.659 93.4155 104.714 93.3747C104.779 93.3264 104.843 93.277 104.907 93.2269C105.023 93.1362 105.136 93.0446 105.245 92.9518C105.253 92.9448 105.261 92.9382 105.269 92.9311C105.818 92.4599 106.272 91.9628 106.62 91.4448C106.65 91.3998 106.678 91.353 106.707 91.3073C106.717 91.2916 106.727 91.2756 106.737 91.2598C106.78 91.1911 106.823 91.1228 106.863 91.0529C107.399 90.1416 107.702 89.1447 107.71 88.1944C107.712 88.0244 107.702 87.8589 107.682 87.7025C107.673 87.6359 107.655 87.5643 107.636 87.4925C107.634 87.4848 107.632 87.4759 107.63 87.4672C107.624 87.4406 107.617 87.4141 107.611 87.3875L107.665 87.2813C107.714 87.1839 107.764 87.0854 107.813 86.9865L108.124 86.9793C108.135 86.9795 108.15 86.9805 108.161 86.9806L124.564 86.6496C124.61 86.6486 124.665 86.6437 124.722 86.6378C124.765 86.6336 124.83 86.6271 124.856 86.6247C124.908 86.6618 124.961 86.6956 125.014 86.7305C125.054 86.762 125.094 86.7921 125.131 86.8156C125.308 86.9276 125.497 87.0326 125.691 87.1278C126.075 87.3164 126.493 87.4718 126.967 87.6034C128.477 88.0225 130.063 88.1254 131.597 88.225L132.099 88.258C132.171 88.2628 132.239 88.2668 132.311 88.2716C132.496 88.2837 132.683 88.2958 132.874 88.3078C133.67 88.3588 134.448 88.4053 135.209 88.4463C135.537 88.4647 135.874 88.4833 136.228 88.5024C137.32 88.5612 138.461 88.6078 139.619 88.6406C139.693 88.6427 139.771 88.6449 139.846 88.647C141.034 88.6866 142.1 88.7126 143.109 88.7263C143.299 88.7289 143.494 88.7315 143.691 88.7339C143.773 88.7351 143.855 88.7365 143.937 88.7376C144.802 88.7496 145.619 88.7555 146.405 88.7555C146.868 88.7555 147.32 88.7534 147.765 88.7493C149.246 88.7359 150.455 88.7098 151.568 88.6672C152.542 88.63 153.568 88.5835 154.594 88.5055C156.075 88.4024 157.623 88.25 159.094 87.8098C159.151 87.793 159.208 87.7781 159.265 87.7604C159.306 87.748 159.345 87.7328 159.386 87.7195C159.425 87.7065 159.465 87.6962 159.504 87.6827C161.125 87.1292 162.392 85.9488 163.51 84.8975C163.528 84.8805 163.548 84.862 163.566 84.8453C163.692 84.7268 163.814 84.6112 163.93 84.4821C163.934 84.4791 163.938 84.4758 163.942 84.473C164.11 84.4073 164.276 84.3392 164.438 84.2679C164.439 84.2675 164.44 84.267 164.441 84.2665C164.443 84.2657 164.446 84.265 164.447 84.2642C164.476 84.2515 164.504 84.2369 164.533 84.224C164.707 84.1463 164.877 84.0666 165.043 83.9839C165.071 83.9698 165.098 83.9551 165.126 83.9409C166.324 83.3324 167.32 82.5909 168.086 81.7274C168.106 81.7052 168.123 81.6814 168.143 81.659C168.153 81.6464 168.163 81.6332 168.174 81.6205C168.309 81.4631 168.436 81.3007 168.557 81.1343C168.564 81.1247 168.57 81.1149 168.577 81.1052C168.699 80.9362 168.815 80.7638 168.924 80.5881C168.931 80.5764 168.939 80.5645 168.946 80.5527C169.052 80.3797 169.154 80.205 169.25 80.028C169.259 80.0121 169.268 79.9963 169.276 79.9804C169.369 79.8076 169.458 79.6342 169.542 79.4598C169.552 79.4399 169.562 79.4202 169.572 79.4003C169.655 79.2259 169.735 79.0517 169.811 78.8781C169.819 78.86 169.827 78.842 169.835 78.824C169.915 78.6419 169.99 78.461 170.063 78.2823C170.089 78.2199 170.113 78.1589 170.137 78.0968C170.175 78.0027 170.214 77.9077 170.25 77.8153C170.265 77.7781 170.279 77.74 170.294 77.7026C170.296 77.6962 170.299 77.6894 170.301 77.683C170.305 77.6725 170.309 77.6617 170.313 77.6512C170.535 77.0819 170.751 76.4912 170.967 75.8641C170.974 75.8441 170.981 75.8242 170.988 75.804C171.034 75.6698 171.08 75.5326 171.126 75.3949C171.275 74.9517 171.422 74.4971 171.567 74.0299C171.578 73.9975 171.588 73.966 171.598 73.9334C171.625 73.8448 171.652 73.7553 171.68 73.6657C171.715 73.5499 171.751 73.4361 171.786 73.3174C171.925 72.86 172.058 72.3945 172.187 71.9204C172.207 71.85 172.226 71.7795 172.245 71.7085C172.262 71.6473 172.278 71.5854 172.294 71.5239C172.441 70.9716 172.583 70.4023 172.721 69.8106C172.808 69.4403 172.893 69.0635 172.977 68.6775C173.115 68.0426 173.244 67.393 173.367 66.7238C173.654 65.1835 173.9 63.5467 174.115 61.7321C174.124 61.6534 174.132 61.5754 174.141 61.4968C174.18 61.1654 174.217 60.8338 174.252 60.5018C174.402 59.0889 174.52 57.692 174.604 56.3357C174.612 56.2049 174.618 56.0742 174.626 55.9434C174.654 55.4893 174.68 55.0339 174.704 54.5771C174.786 52.9607 174.835 51.4592 174.855 49.9869C174.856 49.9073 174.856 49.8311 174.857 49.752C174.879 48.3111 174.881 46.8108 174.861 45.2714C174.86 45.2284 174.859 45.1849 174.859 45.1417C174.858 45.1072 174.858 45.0723 174.858 45.0378C174.856 44.9171 174.853 44.8024 174.851 44.6833C174.851 44.6411 174.85 44.599 174.849 44.5568C174.825 43.114 174.782 41.7744 174.717 40.4886C174.71 40.3472 174.702 40.2114 174.695 40.0737C174.688 39.9377 174.682 39.8027 174.675 39.6652C174.629 38.7691 174.566 37.834 174.486 36.8474C174.455 36.4615 174.424 36.0866 174.39 35.7202C174.344 35.2191 174.297 34.7441 174.25 34.2866C174.249 34.2743 174.247 34.2625 174.246 34.2502C174.239 34.1834 174.232 34.1159 174.225 34.0488C174.214 33.9529 174.204 33.8559 174.194 33.7616C174.179 33.6255 174.164 33.4887 174.148 33.3517C174.137 33.2583 174.127 33.1656 174.116 33.0736C174.107 33.0006 174.098 32.9277 174.09 32.8545C174.013 32.2173 173.933 31.6108 173.847 31.0229C173.808 30.7624 173.77 30.5083 173.731 30.2574C173.72 30.1865 173.709 30.1146 173.697 30.0434C173.677 29.9154 173.657 29.7872 173.637 29.6616C173.591 29.3743 173.543 29.085 173.494 28.7912C173.48 28.712 173.465 28.6341 173.451 28.5551C173.41 28.3243 173.369 28.0982 173.328 27.8749C173.27 27.5639 173.21 27.255 173.148 26.947C173.133 26.8712 173.118 26.7959 173.102 26.7208C172.92 25.829 172.719 24.9527 172.503 24.0962C172.485 24.0278 172.468 23.9593 172.451 23.891C172.423 23.7838 172.398 23.674 172.37 23.5674C172.339 23.4513 172.305 23.333 172.273 23.2164C172.193 22.9164 172.111 22.6184 172.027 22.3215C172.017 22.2877 172.008 22.2539 171.998 22.2201C171.945 22.0358 171.894 21.8501 171.84 21.6673C171.42 20.2476 170.993 18.9586 170.54 17.7452C170.084 16.4873 169.615 15.3351 168.98 14.3021C168.938 14.2337 168.897 14.1649 168.854 14.0974C168.812 14.0329 168.768 13.9701 168.724 13.9066C168.652 13.7993 168.578 13.6926 168.5 13.5884C168.485 13.568 168.471 13.5465 168.456 13.5262C168.423 13.4828 168.385 13.4414 168.351 13.3984C168.302 13.3368 168.256 13.2731 168.206 13.2128C168.18 13.1827 168.152 13.1542 168.126 13.1244C168.088 13.0815 168.05 13.0394 168.011 12.9971C167.916 12.8925 167.817 12.7896 167.715 12.6885C167.683 12.6568 167.651 12.6251 167.618 12.5937C167.498 12.4785 167.373 12.3659 167.244 12.2556C167.223 12.2384 167.204 12.2209 167.184 12.2038C166.72 11.8153 166.202 11.4564 165.628 11.1304C165.56 11.0915 165.488 11.0549 165.419 11.0169C165.304 10.9547 165.188 10.8926 165.07 10.8329C164.981 10.7883 164.89 10.7455 164.8 10.7026C164.735 10.6719 164.673 10.6396 164.608 10.6096C164.552 10.5842 164.494 10.561 164.437 10.5362C164.4 10.5199 164.365 10.5018 164.327 10.4858C164.302 10.4751 164.276 10.4655 164.25 10.4555C164.172 10.4225 164.093 10.3901 164.013 10.3585C163.992 10.3479 163.973 10.3368 163.957 10.3252C163.847 10.2011 163.726 10.0921 163.612 9.99343C163.56 9.94775 163.508 9.90255 163.459 9.85663C163.443 9.84227 163.427 9.8275 163.412 9.81307C163.411 9.81254 163.41 9.81201 163.41 9.81143C163.327 9.73467 163.239 9.6532 163.149 9.56973C163.123 9.54607 163.097 9.52258 163.072 9.49892C162.981 9.41551 162.887 9.33057 162.79 9.24392C162.773 9.22844 162.756 9.21302 162.738 9.1976C162.636 9.10671 162.532 9.01541 162.426 8.92423C162.416 8.91575 162.406 8.90692 162.396 8.89845C162.384 8.88856 162.373 8.87891 162.361 8.86902C161.808 8.39799 161.146 7.8744 160.38 7.48725C158.808 6.69235 156.887 6.50752 155.485 6.37237C155.477 6.3716 155.468 6.37096 155.46 6.37013C155.458 6.37001 155.456 6.36978 155.454 6.36954C155.444 6.3686 155.433 6.36778 155.423 6.36678C153.897 6.2215 152.248 6.1348 150.238 6.09477C150.238 6.09477 150.237 6.09477 150.238 6.09477C149.415 6.07381 148.58 6.05933 147.743 6.05309C147.695 6.05274 147.646 6.05274 147.599 6.05244C146.659 6.04255 145.723 6.04032 144.785 6.05309L144.532 6.05662C144.276 6.06016 144.018 6.06392 143.76 6.06757C143.748 6.06769 143.736 6.06781 143.724 6.06793C143.712 6.0681 143.701 6.0684 143.689 6.06852C142.204 6.08971 140.688 6.11602 139.191 6.17459C139.172 6.17535 139.152 6.17617 139.133 6.17694C138.318 6.20237 137.482 6.23698 136.602 6.28148C135.642 6.32481 134.654 6.37537 133.67 6.43877C133.353 6.45925 133.035 6.47809 132.717 6.49693C131.193 6.58746 129.619 6.68164 128.09 6.95182C128.086 6.95241 128.083 6.9527 128.08 6.95323C128.079 6.95353 128.077 6.95382 128.076 6.95406C128.062 6.95653 128.048 6.95853 128.034 6.96101C127.88 6.98861 127.733 7.01828 127.59 7.04901C127.57 7.05336 127.55 7.0579 127.53 7.06237C126.757 7.2319 126.123 7.4491 125.569 7.73612C125.529 7.75696 125.49 7.77986 125.451 7.80146C125.447 7.80376 125.443 7.80611 125.438 7.80841C125.335 7.8655 125.234 7.92502 125.136 7.98688C125.115 8.00013 125.094 8.01331 125.073 8.02679C125.048 8.04292 125.022 8.05811 124.997 8.07447C124.97 8.09331 124.941 8.11497 124.913 8.13734C124.896 8.14941 124.878 8.16106 124.861 8.17336C124.811 8.17701 124.725 8.16918 124.664 8.16347C124.602 8.15782 124.541 8.15264 124.487 8.15147L108.142 7.82159C108.131 7.82159 108.117 7.82212 108.105 7.8223L107.813 7.81553C107.764 7.71687 107.714 7.61851 107.665 7.52139L107.62 7.43274C107.826 6.57139 107.667 5.68296 107.398 4.92349C107.244 4.47295 107.035 4.02912 106.777 3.60771C106.773 3.60036 106.768 3.59317 106.764 3.58582C106.716 3.50947 106.67 3.43259 106.62 3.35784C106.333 2.93072 105.973 2.51809 105.549 2.12205C105.519 2.09403 105.488 2.06637 105.458 2.03852C105.375 1.96359 105.29 1.8893 105.202 1.81567C105.155 1.77558 105.108 1.73532 105.059 1.6957C104.973 1.62619 104.884 1.55767 104.794 1.48939C104.718 1.43164 104.64 1.37448 104.561 1.3178C104.481 1.25993 104.401 1.20178 104.317 1.1448C104.293 1.12873 104.268 1.11271 104.244 1.09659C104.232 1.08893 104.222 1.08087 104.21 1.07322C104.18 1.05309 104.148 1.03248 104.116 1.012C104.05 0.968852 103.982 0.92659 103.914 0.884265C103.897 0.873554 103.88 0.862899 103.862 0.852184C103.806 0.81816 103.75 0.784844 103.693 0.751939C103.689 0.749939 103.686 0.748055 103.682 0.746052C103.591 0.69384 103.499 0.643572 103.404 0.595538C102.664 0.213927 101.803 -0.0453122 101.042 0.301163C100.345 0.618378 100.2 1.29313 100.227 1.92121C100.228 1.9321 100.228 1.94287 100.229 1.9537C100.233 2.04117 100.241 2.12735 100.251 2.21153C100.256 2.25355 100.261 2.29423 100.268 2.33538C100.274 2.37746 100.28 2.41808 100.287 2.45858C100.301 2.53422 100.314 2.60733 100.329 2.67902C100.334 2.7008 100.338 2.72176 100.343 2.74265C100.35 2.77462 100.357 2.80864 100.364 2.8396C100.393 2.96875 100.425 3.09731 100.455 3.22622C100.545 3.60559 100.635 3.98521 100.723 4.36512C100.882 5.04605 101.046 5.74123 101.216 6.43588C101.317 6.85434 101.422 7.27393 101.534 7.6915C101.537 7.70351 101.54 7.71564 101.543 7.72764C101.544 7.73024 101.545 7.73283 101.545 7.73542C101.524 7.73518 101.503 7.73518 101.48 7.73495L89.3566 7.69115C88.5088 7.68785 87.6625 7.69209 86.8151 7.69633L86.6616 7.69704L73.4187 7.75825C73.4174 7.75825 73.4161 7.75837 73.4148 7.75837L73.145 7.75967C73.1491 7.62616 73.1261 7.49413 73.0695 7.36787C73.0114 7.23802 72.9251 7.12476 72.824 7.02528C72.8199 7.02099 72.8168 7.01563 72.8126 7.01139C72.5472 6.74174 72.2024 6.59775 71.8576 6.49098C71.8566 6.49068 71.8553 6.49021 71.8543 6.48986C71.851 6.48886 71.8476 6.48809 71.8443 6.48703C71.8058 6.4752 71.7672 6.46349 71.7288 6.45242C71.7098 6.44701 71.6903 6.44283 71.6713 6.43747C71.5492 6.40256 71.4264 6.3706 71.3028 6.34176C71.298 6.34058 71.2931 6.33946 71.2882 6.33834C71.1624 6.30915 71.0361 6.2826 70.9093 6.25888C70.8776 6.25276 70.846 6.24652 70.8142 6.24075C70.7556 6.23033 70.697 6.22073 70.6383 6.21132C69.8309 6.07652 69.0217 6.02613 68.2966 5.9994C68.2709 5.99846 68.2439 5.99899 68.2181 5.99811C68.118 5.99493 68.0162 5.99487 67.9152 5.99317C67.7677 5.99063 67.6213 5.98681 67.4706 5.98763C66.9758 5.98981 66.4725 6.00906 65.9642 6.04579C65.9392 6.04761 65.9132 6.05009 65.8881 6.05197C65.8631 6.05379 65.8372 6.05615 65.8121 6.05809C65.1163 6.11048 64.391 6.18194 63.6707 6.31162C63.5386 6.33481 63.4104 6.35924 63.2854 6.38508C63.1771 6.40739 63.0632 6.43317 62.9475 6.46148C62.4982 6.56974 61.8406 6.76051 61.5108 7.32172C61.4145 7.48548 61.3389 7.68403 61.2997 7.8887L45.2673 8.05334C44.3743 7.48548 43.272 7.22377 42.1953 7.01834C41.7996 6.94028 41.4016 6.87365 41.0014 6.81608C40.9753 6.81219 40.9492 6.80813 40.9231 6.80437C40.8617 6.79571 40.8002 6.78735 40.7386 6.77911C39.7186 6.63761 38.7473 6.5509 37.9533 6.48939C37.9095 6.48603 37.8619 6.48244 37.817 6.47897C36.7456 6.38991 35.6954 6.32392 34.6787 6.28219C34.509 6.27471 34.339 6.26806 34.1683 6.262C34.1246 6.26052 34.0796 6.25817 34.036 6.25675L33.5032 6.23933C33.2471 6.23086 32.9911 6.22244 32.7351 6.2139C31.8008 6.18235 30.8663 6.1508 29.9318 6.12937L24.5804 6.00835C24.214 6.00011 23.8476 5.99069 23.4813 5.98127C22.6094 5.95891 21.7078 5.93583 20.8197 5.929L20.7952 5.92877C20.6766 5.92788 20.5559 5.92712 20.4367 5.92624C20.0095 5.921 19.5837 5.91699 19.1562 5.91605C18.3322 5.91446 17.4222 5.91693 16.4786 5.93483C16.4646 5.93507 16.4505 5.93513 16.4364 5.93536C16.4163 5.93577 16.3951 5.9363 16.3749 5.93671C16.2828 5.9386 16.1907 5.9406 16.098 5.94278C15.4725 5.95679 14.8053 5.97768 14.1175 6.01694C13.0883 6.06904 11.9718 6.13803 10.8926 6.36236C10.4391 6.44412 9.98723 6.56249 9.56529 6.75074C9.53822 6.76286 9.51155 6.7757 9.48465 6.78841C9.38776 6.83433 9.29311 6.88459 9.20027 6.93899C9.16643 6.95877 9.1331 6.97913 9.09979 6.99997C9.06354 7.02293 9.02539 7.04206 8.98996 7.06648C8.95958 7.08744 8.93233 7.11193 8.9026 7.13359C8.81842 7.19316 8.73685 7.25626 8.65643 7.32242C8.63995 7.33626 8.62341 7.34991 8.6071 7.36392C8.10818 7.78751 7.68813 8.33017 7.41759 8.94118C7.27019 9.2734 7.16376 9.63012 7.10091 10.0007C7.0999 10.0066 7.09959 10.0133 7.09866 10.0191C7.09866 10.019 7.0986 10.0193 7.09866 10.0191C7.0757 10.1565 7.05829 10.2986 7.04668 10.4434C7.04597 10.4519 7.04434 10.4594 7.04367 10.4679C7.03992 10.5173 7.03944 10.5668 7.03897 10.615C7.03892 10.6227 7.03892 10.6313 7.03886 10.6397C7.03761 10.6684 7.03633 10.6968 7.03545 10.7256C7.02679 10.735 7.0173 10.7458 7.00861 10.7552C6.54346 11.2096 6.16238 11.7235 5.84816 12.2298C5.84392 12.2366 5.83932 12.2425 5.8351 12.2493C5.82832 12.2603 5.82243 12.2716 5.81572 12.2825C5.73149 12.4201 5.65208 12.5556 5.57762 12.6899C5.54689 12.7445 5.51616 12.799 5.48627 12.854C5.46425 12.8953 5.444 12.9348 5.42281 12.9755C4.79085 14.1671 4.35266 15.4168 4.0042 16.5172C3.98784 16.569 3.97388 16.6213 3.95775 16.6731C3.86652 16.9683 3.78081 17.2567 3.70058 17.5366C3.67061 17.6415 3.64018 17.7459 3.6111 17.8509C3.60657 17.867 3.60156 17.884 3.59711 17.9C3.27252 19.0572 3.00174 20.2106 2.77165 21.263C2.77077 21.2668 2.76982 21.2708 2.769 21.2745C2.57475 22.1397 2.39845 23.0048 2.22916 23.8748C2.09547 24.551 1.97174 25.2045 1.85725 25.841C1.84376 25.9141 1.83012 25.9863 1.81659 26.0595C1.58742 27.2978 1.38924 28.6209 1.22253 29.9937C1.20741 30.1155 1.19244 30.2383 1.17761 30.3618C1.17061 30.4224 1.16255 30.4814 1.15567 30.5421C1.15359 30.5601 1.15184 30.5784 1.14984 30.5963C1.11999 30.8513 1.09048 31.1088 1.06195 31.3718C0.915541 32.7165 0.801939 34.0565 0.720488 35.3638C0.716353 35.4247 0.711363 35.4855 0.707365 35.5464C0.598112 37.1998 0.533583 38.86 0.480147 40.4078C0.47296 40.6156 0.466368 40.8265 0.460005 41.0392C0.431517 41.964 0.414213 42.8676 0.402739 43.7119C0.402037 43.7644 0.40132 43.8181 0.400618 43.8712C0.399427 43.9632 0.398252 44.0545 0.3972 44.1449C0.393614 44.4388 0.390318 44.7381 0.387602 45.0498C0.373014 46.7114 0.372953 48.2366 0.387541 49.7111C0.387541 49.7153 0.387602 49.7192 0.387602 49.7234C0.387663 49.7282 0.387724 49.7327 0.387724 49.7374C0.387892 49.7524 0.387953 49.7678 0.388075 49.7827C0.388197 49.7926 0.388303 49.8019 0.388426 49.8118C0.40138 51.3967 0.427457 52.7845 0.468366 54.0492C0.472776 54.1871 0.478254 54.3247 0.482969 54.4626C0.485075 54.5274 0.487089 54.5932 0.489316 54.6576C0.538541 56.0892 0.60069 57.7545 0.717954 59.402C0.719419 59.4225 0.720945 59.4424 0.72241 59.4628C0.804715 60.7435 0.915677 62.0599 1.05653 63.3883C1.10751 63.8692 1.1635 64.3427 1.22175 64.8121C1.36073 65.9704 1.54074 67.1734 1.75807 68.4019C1.95097 69.5123 2.16847 70.6556 2.40757 71.8167C2.41446 71.8507 2.42158 71.8852 2.42859 71.9194C2.45324 72.0386 2.47668 72.1569 2.50175 72.2764C2.50923 72.3121 2.5173 72.3498 2.52484 72.3857C2.55261 72.5188 2.58104 72.6526 2.6096 72.7868C2.61041 72.7908 2.61123 72.7947 2.61207 72.7987C2.64732 72.9643 2.68293 73.13 2.71931 73.2966C2.85794 73.9342 3.01063 74.6064 3.17775 75.2908C3.19845 75.3761 3.21919 75.4612 3.24049 75.5473C3.25345 75.5994 3.26663 75.6516 3.27975 75.7038C3.45935 76.4216 3.65925 77.1629 3.88505 77.9005C4.09567 78.5969 4.30629 79.2202 4.52554 79.7986C4.76989 80.4542 5.04696 81.1106 5.37925 81.7483C5.60746 82.1933 5.88795 82.6738 6.22725 83.139C6.23996 83.1566 6.25302 83.1723 6.26574 83.1896C6.34896 83.3019 6.43356 83.4136 6.52415 83.5229C6.52681 83.5261 6.52938 83.5299 6.53204 83.5331C6.62764 83.6489 6.72723 83.7617 6.83036 83.8712C6.83259 83.8736 6.83566 83.8761 6.83801 83.8785C6.90075 83.9447 6.9692 84.0063 7.0352 84.0702C7.04203 84.3158 7.06062 84.5561 7.09854 84.7829C7.10325 84.8112 7.11172 84.8386 7.11703 84.8668C7.12126 84.8937 7.12274 84.9197 7.12822 84.9467C7.20568 85.3301 7.32998 85.695 7.4974 86.031C7.77334 86.5858 8.16446 87.0717 8.62547 87.456C8.74173 87.5551 8.86328 87.6487 8.98996 87.7362C9.63487 88.1815 10.4114 88.3706 11.1694 88.4872C11.173 88.4878 11.1764 88.4883 11.1799 88.4889C11.1892 88.4904 11.1986 88.4921 11.2079 88.4935C12.1468 88.6613 13.1128 88.7343 14.0963 88.7849C14.5317 88.8097 14.98 88.8281 15.4467 88.8424C16.5777 88.88 17.8 88.8944 19.2242 88.8864C19.4892 88.885 19.7528 88.8821 20.0164 88.8794C20.2767 88.8777 20.5376 88.8759 20.7952 88.8739L20.8197 88.8737C21.7078 88.8668 22.6094 88.8438 23.4813 88.8214C23.8207 88.8127 24.16 88.8041 24.4994 88.7963L29.8049 88.6764C29.8177 88.6761 29.8308 88.6756 29.8437 88.6753L29.9318 88.6733C30.4343 88.6618 30.9368 88.6472 31.4394 88.6314C32.3295 88.6047 33.2256 88.5753 34.1372 88.5431C34.2016 88.5408 34.2676 88.5372 34.3321 88.5348C34.5434 88.5267 34.7538 88.5178 34.9626 88.5078C35.8495 88.4665 36.7609 88.4084 37.7135 88.3316C37.7938 88.3255 37.8763 88.3193 37.9533 88.3133C38.6066 88.2627 39.3802 88.1947 40.2001 88.094C40.9028 88.011 41.631 87.9032 42.3594 87.7526C43.4074 87.5475 44.4084 87.2936 45.2472 86.7639C45.2493 86.7626 45.2514 86.7615 45.2536 86.7602C45.2592 86.7568 45.2636 86.7533 45.269 86.7499L61.2997 86.9143C61.3089 86.9621 61.3206 87.0087 61.3337 87.0554C61.3359 87.0636 61.3381 87.0717 61.3404 87.0799C61.3521 87.1195 61.3647 87.1581 61.3789 87.1965C61.3854 87.2139 61.3922 87.2311 61.3993 87.2483C61.4325 87.3303 61.4689 87.4095 61.5108 87.4807C61.5691 87.58 61.6402 87.6639 61.7162 87.7416C61.7319 87.7581 61.749 87.7732 61.7654 87.7889C61.8112 87.8317 61.8582 87.8719 61.9079 87.9084C61.9272 87.9225 61.9454 87.938 61.9654 87.9512C61.9717 87.9553 61.9785 87.9583 61.9848 87.9624C62.0459 88.0025 62.1082 88.0386 62.1723 88.0712C62.8093 88.4128 63.5786 88.5054 64.2668 88.5857L64.3089 88.5908C64.6672 88.6395 65.0234 88.6788 65.375 88.7094C65.4689 88.7181 65.5608 88.7242 65.654 88.7319C65.7573 88.7401 65.8623 88.7495 65.9642 88.7569C65.9925 88.759 66.0204 88.7596 66.0487 88.7615C66.2294 88.7737 66.4078 88.783 66.5854 88.791C66.6887 88.7956 66.7917 88.8001 66.8945 88.8033C67.0617 88.8086 67.2266 88.8112 67.3906 88.8126C67.4472 88.813 67.5049 88.8158 67.5613 88.8158C67.6076 88.8158 67.6529 88.8138 67.699 88.8135C67.768 88.813 67.8393 88.8153 67.9076 88.8141C68.6445 88.8016 69.3178 88.7578 69.9422 88.6838C70.4902 88.6252 71.0424 88.5376 71.5801 88.3912C71.6661 88.369 71.7547 88.3435 71.8442 88.3156C71.8476 88.3145 71.8511 88.3137 71.8546 88.3126C71.8916 88.3009 71.9332 88.2866 71.9755 88.2715C72.3943 88.1264 72.8084 87.9091 73.0154 87.5598C73.1015 87.4146 73.1437 87.256 73.1454 87.0919C73.1459 87.0763 73.1473 87.061 73.1469 87.0454C73.1469 87.0447 73.147 87.0441 73.147 87.0434L74.1072 87.0478L86.4984 87.1059C87.0285 87.1093 87.5587 87.1097 88.0889 87.1108C88.2977 87.1114 88.5066 87.1129 88.7155 87.1129C88.7273 87.1129 88.739 87.1129 88.7508 87.1129C88.8082 87.1128 88.8657 87.1136 88.9232 87.1134L99.6846 87.0734C99.6923 87.0734 99.6999 87.0731 99.7076 87.0731L101.545 87.0663C101.537 87.0982 101.529 87.1305 101.52 87.1626C101.486 87.2898 101.453 87.4168 101.42 87.5444C101.112 88.7196 100.836 89.9085 100.57 91.0672L100.385 91.8748C100.378 91.9042 100.37 91.9335 100.364 91.9628C100.358 91.9887 100.352 92.0173 100.346 92.0439C100.336 92.0911 100.326 92.1387 100.316 92.1871C100.31 92.2147 100.305 92.2415 100.3 92.2696C100.218 92.6928 100.175 93.1533 100.3 93.6054C100.452 94.1525 100.879 94.5127 101.455 94.6157C101.468 94.6182 101.481 94.6218 101.494 94.6241C101.581 94.6375 101.67 94.645 101.763 94.6467C101.775 94.6469 101.786 94.6496 101.798 94.6496C101.813 94.6496 101.829 94.6494 101.844 94.6491ZM28.2977 81.0161C26.5502 80.7884 25.21 80.5913 23.9526 80.3768C22.4123 80.1143 21.1502 79.8435 19.9805 79.5245C19.0177 79.2619 17.7823 78.8725 16.7649 78.1861C16.3272 77.8907 15.933 77.5283 15.5813 77.106L27.2557 72.8351C27.5379 72.9561 27.8125 73.0589 28.0637 73.1455C29.0276 73.4775 30.0187 73.7396 31.0085 73.9244C32.1679 74.141 33.3146 74.2601 34.1839 74.3397C35.1123 74.4247 36.1337 74.4909 37.3985 74.5481C38.4755 74.5966 39.549 74.6263 40.5487 74.651C41.5616 74.676 42.5663 74.6899 43.5919 74.7033C43.9362 74.7078 44.2804 74.7129 44.6246 74.7181C45.3037 74.7287 45.9828 74.7391 46.6616 74.7431C46.7788 74.7438 46.8961 74.744 47.0136 74.744C47.1301 74.744 47.2467 74.7438 47.3632 74.7435L60.2049 74.7427L60.2049 82.6069L59.8073 82.6051C59.3856 82.6049 58.9636 82.6047 58.5422 82.5964C57.2648 82.572 55.9875 82.5463 54.7099 82.5206L53.2727 82.4917C52.2072 82.4707 51.0985 82.4417 49.8826 82.4034C49.4355 82.389 48.9881 82.3765 48.5407 82.3638C47.597 82.3374 46.6213 82.3099 45.664 82.2661L40.4037 82.025C39.4373 81.9807 38.4536 81.9167 37.5024 81.8548C37.0845 81.8277 36.6663 81.8004 36.2481 81.7747C34.8836 81.6906 33.4897 81.564 32.26 81.4521C30.912 81.3297 29.5788 81.1828 28.2977 81.0161ZM10.7478 55.1C10.6822 53.6011 10.6492 52.0671 10.6233 50.7469C10.5991 49.4959 10.5915 48.2087 10.6007 46.921L10.6059 46.0849C10.6129 44.9046 10.6203 43.6842 10.6546 42.4862C10.6972 41.0111 10.7422 39.568 10.8249 38.1324C10.9023 36.7915 10.9944 35.3484 11.1418 33.8801C11.2988 32.3157 11.4787 30.92 11.6913 29.6132C11.9228 28.1922 12.1957 26.9031 12.5255 25.6719C12.8509 24.457 13.2413 23.141 13.7188 21.6489C13.785 21.4422 13.8538 21.2292 13.9249 21.0143L24.2515 24.8185C24.1611 25.0063 24.0799 25.1896 24.008 25.3616C23.6035 26.3298 23.2778 27.35 22.9788 28.3118C22.6781 29.2795 22.4264 30.2852 22.2308 31.3009C22.0415 32.283 21.8863 33.3185 21.7558 34.4673C21.6367 35.5165 21.5416 36.5685 21.4731 37.5939C21.401 38.6777 21.3422 39.8039 21.2981 40.9409C21.2567 42.0127 21.2348 43.0946 21.2174 44.104C21.1992 45.1433 21.1893 46.2455 21.1882 47.3806C21.1875 48.4336 21.195 49.406 21.2115 50.3535C21.2308 51.4599 21.2543 52.6452 21.2965 53.8168C21.3356 54.9048 21.3982 55.9731 21.4644 57.0628C21.5213 58.0043 21.6073 58.9996 21.7198 60.0205C21.8564 61.255 22.0005 62.2642 22.1736 63.1964C22.3758 64.2858 22.615 65.2839 22.9049 66.2476C23.1542 67.0764 23.4952 68.1645 23.9234 69.2337C24.0209 69.4767 24.1298 69.7298 24.2518 69.9839L13.916 73.7729C13.7164 73.1844 13.5352 72.5894 13.3574 72.0043L13.2842 71.7639C12.9143 70.5499 12.4938 69.1376 12.1853 67.7413C11.9098 66.4925 11.6675 65.1191 11.445 63.5422C11.2767 62.3497 11.1408 61.0728 11.0175 59.5237C10.9037 58.0903 10.8128 56.602 10.7478 55.1ZM17.8075 16.0385C18.896 15.5405 20.0502 15.2297 21.4486 14.9161C22.9319 14.5831 24.3939 14.3446 25.6284 14.1551C27.1273 13.9253 28.6107 13.744 29.864 13.5973C31.0992 13.4523 32.3942 13.3251 33.8225 13.2083C35.2799 13.0892 36.7291 12.9976 38.3368 12.8987C39.5122 12.8264 40.7644 12.7605 42.2779 12.691C42.6591 12.6736 43.0403 12.655 43.4212 12.6366C44.352 12.5914 45.3143 12.5446 46.2597 12.5144L51.5155 12.3466C52.4229 12.3176 53.3476 12.3025 54.2416 12.2879C54.6734 12.2809 55.1052 12.2738 55.5366 12.2653C55.8844 12.2585 56.2321 12.25 56.5799 12.2416C57.3051 12.2241 58.055 12.2062 58.7908 12.2029L60.2049 12.1966L60.2049 20.0602L47.4638 20.0594C47.2024 20.0589 46.9418 20.0584 46.6813 20.0598C46.0703 20.0627 45.4591 20.0723 44.8481 20.0817L43.4106 20.1017C42.5746 20.1121 41.7384 20.1225 40.9026 20.1432C39.8833 20.1684 38.6775 20.2011 37.4621 20.252C36.4077 20.296 35.3425 20.3636 34.2962 20.4533C33.126 20.5531 32.1552 20.6748 31.2412 20.8359C30.2494 21.0106 29.2615 21.2597 28.3046 21.5759C27.9682 21.6871 27.6124 21.8142 27.2554 21.9673L15.5863 17.6798C16.1661 17.001 16.909 16.4496 17.8075 16.0385ZM80.9132 12.1038L103.184 12.1038C103.993 12.1043 104.801 12.1081 105.61 12.1118L107.736 12.1196C108.858 12.1222 110.018 12.125 111.157 12.1481C112.213 12.1694 113.145 12.2069 114.04 12.2959C113.239 12.6198 112.439 12.9434 111.64 13.2698C110.029 13.9274 108.382 14.6321 106.746 15.3644C104.811 16.2304 102.931 17.0943 101.159 17.9318C99.5024 18.7144 97.8367 19.541 96.2234 20.3418C96.004 20.3277 95.7863 20.3156 95.5719 20.3047C94.6275 20.2567 93.6692 20.2334 92.7425 20.211L92.2014 20.1976C91.5452 20.1809 90.8894 20.1726 90.233 20.1658L81.1508 20.0709C80.8094 20.0667 80.4682 20.0624 80.127 20.0612C79.8558 20.0603 79.5843 20.0608 79.3131 20.0608L78.9076 20.0612L64.2074 20.0604L64.2075 13.8711C64.2075 13.7635 64.2108 13.6545 64.214 13.545C64.2268 13.1147 64.24 12.6336 64.0592 12.1794L80.9092 12.1038L80.9132 11.7422L80.9132 12.1038ZM115.079 78.4506C113.971 78.0286 112.883 77.5909 111.872 77.181C110.482 76.6175 109.341 76.1469 108.281 75.6997C107.095 75.1999 106.194 74.8128 105.359 74.4443L101.613 72.7915C102.126 72.4031 102.619 71.9314 103.106 71.3605C103.689 70.6758 104.246 69.8828 104.858 68.8647C105.433 67.9069 105.899 67.006 106.28 66.1099C106.667 65.2006 107 64.2387 107.297 63.1698C107.561 62.2221 107.784 61.2305 107.979 60.1385C108.161 59.1242 108.314 58.051 108.448 56.8577C108.558 55.8796 108.646 54.8643 108.708 53.8399C108.784 52.6178 108.83 51.6099 108.855 50.668C108.88 49.6878 108.895 48.6504 108.901 47.403L108.901 47.4011C108.901 46.4204 108.889 45.4358 108.864 44.4742C108.833 43.3157 108.79 42.28 108.73 41.3082C108.659 40.1474 108.57 39.0775 108.459 38.0375C108.347 36.9919 108.199 35.933 108.02 34.8904C107.84 33.8431 107.616 32.8175 107.354 31.8422C107.073 30.7971 106.743 29.8105 106.371 28.9099C106 28.0126 105.538 27.091 104.997 26.1711C104.389 25.1374 103.831 24.3225 103.243 23.6063C102.713 22.9615 102.176 22.4362 101.614 22.0109L105.359 20.3584C106.202 19.9864 107.104 19.5991 108.281 19.1027C109.344 18.6546 110.485 18.184 111.872 17.6217C112.883 17.2118 113.971 16.7741 115.079 16.3521C116.23 15.9138 118.453 15.2559 119.796 14.7708C120.298 15.2661 120.734 15.7806 121.099 16.2349C121.887 17.2163 122.618 18.3271 123.273 19.5367C123.876 20.6527 124.459 21.8914 125.057 23.3237C125.538 24.4765 126.001 25.7232 126.561 27.3662C127.025 28.7276 127.429 30.0711 127.764 31.3598C128.098 32.643 128.385 34.0122 128.619 35.4294C128.84 36.7677 129.021 38.1635 129.155 39.5781C129.277 40.8569 129.368 42.2564 129.433 43.8573C129.486 45.1344 129.505 46.4595 129.493 47.9085C129.48 49.5327 129.439 50.9788 129.369 52.3296C129.297 53.725 129.186 55.0826 129.038 56.3651C128.862 57.881 128.654 59.2666 128.4 60.6012C128.138 61.9793 127.815 63.3381 127.44 64.6397C127.072 65.9163 126.638 67.2556 126.113 68.734C125.627 70.103 125.102 71.421 124.553 72.6515C123.929 74.0518 123.319 75.2434 122.688 76.294C122.006 77.4315 121.216 78.496 120.341 79.4578C120.13 79.6905 119.922 79.9027 119.716 80.1021C118.366 79.6119 116.206 78.8801 115.079 78.4506ZM64.214 81.2576C64.2108 81.1482 64.2074 81.0391 64.2074 80.9315L64.2074 74.7425L76.0127 74.7417L79.1998 74.7419L80.0908 74.7417C80.3813 74.7412 80.6719 74.7377 80.9627 74.7339L90.3267 74.6364C90.8482 74.6312 91.3695 74.6263 91.8908 74.6131L92.5471 74.5969C93.4583 74.575 94.4003 74.5521 95.328 74.5095C95.6212 74.4961 95.9204 74.4797 96.2219 74.4602L96.5663 74.6315C98.5229 75.6032 100.326 76.4781 102.079 77.3065C103.74 78.0905 105.424 78.8588 107.085 79.5901C108.833 80.3591 110.67 81.1371 112.545 81.9026C113.043 82.1057 113.543 82.304 114.043 82.5027C114.007 82.506 113.97 82.5101 113.935 82.5133C112.841 82.6132 111.648 82.664 110.18 82.673C108.998 82.6807 107.817 82.684 106.635 82.6873L104.58 82.6939C103.963 82.6965 103.348 82.6989 102.732 82.6989L81.6961 82.6991C81.3681 82.6991 81.0397 82.6993 80.7112 82.6979L71.7272 82.6574L64.0589 82.6238C64.24 82.1696 64.2269 81.6882 64.214 81.2576ZM164.519 80.0144C163.997 80.7298 163.383 81.3092 162.693 81.7366C161.725 82.3349 160.676 82.5741 159.74 82.4118C158.916 82.2682 158.168 81.7834 157.688 81.0818C157.118 80.2487 156.892 79.1188 157.053 77.8998L157.053 77.8921C157.073 77.7786 157.205 77.1341 157.223 77.0639C157.472 76.1534 157.919 75.2733 158.518 74.5182C159.077 73.8121 159.727 73.2559 160.448 72.8653C161.46 72.3174 162.528 72.1627 163.455 72.4302C164.277 72.6678 164.985 73.2611 165.394 74.0577C165.859 74.9609 165.979 76.1148 165.732 77.3074C165.534 78.2617 165.114 79.1979 164.519 80.0144ZM165.732 17.4953C165.979 18.6878 165.859 19.8418 165.394 20.7448C164.985 21.5416 164.277 22.1349 163.455 22.3725C162.528 22.64 161.461 22.4855 160.448 21.9371C159.727 21.5467 159.077 20.9908 158.518 20.2845C157.919 19.5294 157.472 18.6492 157.223 17.7401C157.205 17.6686 157.073 17.0244 157.053 16.9109L157.053 16.9029C156.892 15.6839 157.118 14.5537 157.688 13.7207C158.168 13.0193 158.916 12.5345 159.74 12.3908C160.677 12.2288 161.725 12.4678 162.693 13.0661C163.383 13.4937 163.998 14.0729 164.519 14.7882C165.114 15.6048 165.534 16.541 165.732 17.4953ZM9.77684 12.6906L9.91083 12.7179C10.6791 12.8733 11.5496 13.0496 12.0991 13.5295C12.3301 13.7313 12.4434 14.0183 12.4549 14.4325C12.4641 14.7673 12.4128 15.1289 12.283 15.6229C12.1801 16.0164 12.0737 16.4232 11.8766 16.7451C11.5915 17.2118 11.0243 17.4948 10.4757 17.7684C10.2944 17.8588 10.1067 17.9525 9.93225 18.0514C9.05789 18.5475 8.24016 19.1023 7.50818 19.6308C7.72963 18.5653 8.00134 17.3291 8.35257 16.0929C8.73614 14.7425 9.12888 13.6486 9.58643 12.6538C9.64989 12.6661 9.71338 12.6776 9.77684 12.6906ZM9.93225 76.7513C10.1065 76.8502 10.2937 76.9434 10.4747 77.0338C11.0238 77.3074 11.5913 77.5907 11.8769 78.0576C12.0737 78.3794 12.1801 78.7863 12.2877 79.1979C12.4128 79.6737 12.4641 80.0354 12.4549 80.3702C12.4434 80.7844 12.3301 81.0714 12.0991 81.2732C11.5496 81.753 10.6791 81.9294 9.91082 82.0848L9.77684 82.1121C9.7145 82.1249 9.65147 82.1371 9.58731 82.1494C9.36609 81.6679 9.15559 81.1527 8.95416 80.5946C8.57978 79.5577 8.2471 78.4126 7.90757 76.991C7.763 76.3856 7.62777 75.7764 7.5021 75.1676C8.23556 75.6974 9.05548 76.2539 9.93225 76.7513Z" fill="#BFF5F0"/>
</svg>
