<svg width="57" height="95" viewBox="0 0 57 95" fill="none" xmlns="http://www.w3.org/2000/svg">
<path d="M54.3809 39.7034C54.3808 39.699 54.3799 39.6948 54.3798 39.6904C54.3794 39.6785 54.3795 39.6667 54.3787 39.6546C54.3771 39.6266 54.3729 39.5994 54.3697 39.5718C54.3212 39.1336 54.0922 38.7316 53.8615 38.3887C53.827 38.3366 53.7905 38.2857 53.754 38.2347C53.7321 38.204 53.7102 38.1729 53.6881 38.1431C53.6617 38.1079 53.6349 38.0731 53.6077 38.0385C53.5584 37.9752 53.5086 37.914 53.4581 37.8548C53.4543 37.8504 53.4507 37.8458 53.4469 37.8413C53.1907 37.5428 52.9205 37.2962 52.6389 37.1069C52.6144 37.0905 52.5889 37.0757 52.5641 37.0599C52.5555 37.0544 52.5468 37.0491 52.5382 37.0436C52.5009 37.0203 52.4638 36.9967 52.4258 36.9748C51.9303 36.6837 51.3884 36.5189 50.8717 36.5142C50.7793 36.5135 50.6893 36.5186 50.6043 36.5296C50.5681 36.5343 50.5292 36.5441 50.4902 36.5544C50.486 36.5556 50.4811 36.5569 50.4764 36.5581C50.4619 36.5612 50.4475 36.5648 50.4331 36.5683L50.3753 36.5389C50.3224 36.5121 50.2688 36.4851 50.2151 36.4583L50.2111 36.2896C50.2113 36.2833 50.2118 36.2753 50.2119 36.2694L50.0319 27.352C50.0314 27.3266 50.0287 27.2971 50.0255 27.266C50.0232 27.2425 50.0197 27.2071 50.0184 27.1927C50.0385 27.1646 50.0569 27.1357 50.0759 27.1071C50.093 27.0851 50.1094 27.0635 50.1221 27.0434C50.1831 26.947 50.2402 26.8446 50.2919 26.7391C50.3944 26.5301 50.4789 26.3031 50.5504 26.0452C50.7783 25.2246 50.8342 24.3623 50.8884 23.5281L50.9063 23.2553C50.9089 23.2162 50.9111 23.1789 50.9137 23.1401C50.9203 23.0397 50.9268 22.9377 50.9334 22.834C50.9611 22.4013 50.9864 21.9781 51.0087 21.5648C51.0187 21.3864 51.0288 21.2031 51.0392 21.0107C51.0712 20.417 51.0965 19.7968 51.1143 19.1672C51.1155 19.1268 51.1166 19.0846 51.1178 19.0434C51.1393 18.3979 51.1534 17.8181 51.1609 17.2699C51.1623 17.1666 51.1637 17.0605 51.165 16.953C51.1657 16.9085 51.1664 16.8642 51.167 16.8195C51.1736 16.3494 51.1768 15.9053 51.1768 15.4775C51.1768 15.2261 51.1756 14.9803 51.1734 14.7383C51.1661 13.9331 51.1519 13.2762 51.1288 12.6709C51.1085 12.1416 51.0833 11.5838 51.0409 11.0259C50.9848 10.2207 50.902 9.37892 50.6626 8.57949C50.6535 8.54845 50.6454 8.51719 50.6358 8.48624C50.629 8.46429 50.6208 8.44265 50.6135 8.42076C50.6065 8.39939 50.6009 8.37763 50.5936 8.35631C50.2926 7.47515 49.6509 6.78632 49.0794 6.17842C49.0701 6.1686 49.0601 6.15775 49.051 6.14809C48.9866 6.07967 48.9237 6.01333 48.8535 5.95045C48.8519 5.94821 48.8501 5.94597 48.8486 5.94379C48.8129 5.85233 48.7758 5.76234 48.7371 5.67395C48.7369 5.67338 48.7366 5.67283 48.7363 5.67226C48.7359 5.67123 48.7355 5.66999 48.7351 5.66896C48.7282 5.65318 48.7202 5.63818 48.7132 5.6225C48.671 5.52803 48.6277 5.43529 48.5827 5.34501C48.5751 5.32987 48.567 5.31538 48.5593 5.30034C48.2285 4.64869 47.8254 4.10748 47.3559 3.69063C47.3439 3.67994 47.3309 3.67066 47.3188 3.66014C47.3119 3.65421 47.3047 3.64881 47.2978 3.64295C47.2122 3.56983 47.124 3.50067 47.0335 3.43491C47.0283 3.4311 47.023 3.42748 47.0177 3.42371C46.9258 3.3575 46.8321 3.29478 46.7366 3.23532C46.7302 3.23132 46.7237 3.22738 46.7173 3.22341C46.6233 3.16542 46.5283 3.11019 46.432 3.05793C46.4234 3.05323 46.4148 3.0484 46.4062 3.04372C46.3122 2.99326 46.218 2.945 46.1232 2.89917C46.1124 2.89392 46.1016 2.88839 46.0908 2.8832C45.996 2.83789 45.9013 2.79446 45.8069 2.75305C45.7971 2.74877 45.7873 2.74409 45.7775 2.73981C45.6785 2.69673 45.5802 2.65555 45.483 2.61596C45.4491 2.6021 45.4159 2.58908 45.3822 2.57561C45.331 2.55509 45.2794 2.53416 45.2291 2.51439C45.2089 2.50645 45.1882 2.49864 45.1679 2.49071C45.1643 2.48936 45.1607 2.48783 45.1572 2.48648C45.1515 2.48427 45.1456 2.48213 45.1399 2.47992C44.8304 2.35956 44.5093 2.24196 44.1684 2.12448C44.1575 2.12071 44.1466 2.1169 44.1357 2.11312C44.0627 2.08806 43.9881 2.06298 43.9132 2.03789C43.6723 1.95692 43.4252 1.87705 43.1712 1.79813C43.1536 1.79266 43.1364 1.78722 43.1187 1.78172C43.0706 1.76683 43.0219 1.75199 42.9732 1.73714C42.9102 1.71784 42.8484 1.69864 42.7838 1.67915C42.5352 1.60395 42.2821 1.53159 42.0243 1.46125C41.9861 1.45072 41.9478 1.44023 41.9092 1.4298C41.8759 1.42083 41.8422 1.41203 41.8088 1.40317C41.5085 1.32326 41.199 1.24592 40.8774 1.17094C40.676 1.12373 40.4712 1.07736 40.2613 1.03183C39.9162 0.957006 39.563 0.886731 39.1992 0.819912C38.3618 0.663585 37.472 0.529979 36.4854 0.413174C36.4427 0.408117 36.4002 0.403861 36.3575 0.398901C36.1773 0.37794 35.9971 0.357491 35.8166 0.338546C35.0484 0.257103 34.289 0.192748 33.5517 0.147562C33.4806 0.14321 33.4095 0.139689 33.3384 0.135529C33.0915 0.120168 32.8439 0.105832 32.5956 0.0931593C31.7168 0.0484854 30.9005 0.0216042 30.1001 0.0109795C30.0569 0.0104035 30.0154 0.0102116 29.9724 0.00966746C29.1891 -0.00233314 28.3734 -0.00338908 27.5365 0.00777942C27.5131 0.00809942 27.4895 0.00854731 27.466 0.00889951C27.4473 0.00912341 27.4283 0.00918772 27.4096 0.00944382C27.3439 0.0103398 27.2816 0.0118118 27.2168 0.0128358C27.1939 0.0132199 27.171 0.013604 27.148 0.01402C26.3637 0.0271404 25.6354 0.0504055 24.9364 0.0859912C24.8595 0.0898953 24.7856 0.0939274 24.7108 0.0978957C24.6369 0.101512 24.5635 0.104968 24.4887 0.108776C24.0016 0.133577 23.4932 0.167851 22.9568 0.211565C22.747 0.228142 22.5432 0.245422 22.344 0.263663C22.0716 0.288688 21.8133 0.314033 21.5646 0.339891C21.5579 0.340595 21.5515 0.341203 21.5448 0.341875C21.5085 0.345587 21.4718 0.349747 21.4353 0.353587C21.3832 0.359123 21.3304 0.36466 21.2792 0.37026C21.2052 0.378324 21.1308 0.386741 21.0564 0.395253C21.0056 0.401077 20.9552 0.406902 20.9051 0.41279C20.8655 0.417494 20.8258 0.422166 20.786 0.426998C20.4396 0.468664 20.1099 0.51225 19.7903 0.5591C19.6487 0.579869 19.5106 0.600862 19.3741 0.621951C19.3356 0.627872 19.2965 0.634144 19.2578 0.640192C19.1882 0.651137 19.1185 0.662049 19.0502 0.673058C18.894 0.698147 18.7368 0.723876 18.577 0.750981C18.534 0.758277 18.4916 0.766758 18.4486 0.774214C18.3232 0.796263 18.2003 0.8186 18.0789 0.841161C17.9098 0.872458 17.7419 0.905036 17.5744 0.938669C17.5332 0.946958 17.4923 0.955342 17.4515 0.963694C16.9666 1.06303 16.4902 1.17186 16.0246 1.28976C15.9874 1.2991 15.9502 1.30832 15.913 1.31779C15.8547 1.33277 15.795 1.34669 15.7371 1.36195C15.674 1.37859 15.6096 1.39741 15.5462 1.4145C15.3832 1.45805 15.2211 1.50276 15.0598 1.54849C15.0414 1.55374 15.023 1.55889 15.0046 1.5642C14.9045 1.59278 14.8035 1.62043 14.7041 1.64984C13.9323 1.87814 13.2315 2.1105 12.5718 2.35694C11.888 2.60476 11.2616 2.85936 10.7 3.20501C10.6628 3.22764 10.6254 3.24975 10.5887 3.27333C10.5536 3.29605 10.5195 3.32031 10.485 3.34386C10.4266 3.38342 10.3686 3.42355 10.312 3.46582C10.3009 3.47408 10.2892 3.48131 10.2782 3.48966C10.2546 3.50755 10.2321 3.52826 10.2087 3.54679C10.1752 3.57338 10.1406 3.59818 10.1078 3.62586C10.0914 3.63969 10.0759 3.65514 10.0597 3.66926C10.0364 3.68961 10.0135 3.7107 9.99054 3.73166C9.93364 3.78344 9.8777 3.83701 9.82275 3.89256C9.80551 3.91003 9.78829 3.92751 9.7712 3.94536C9.7086 4.01068 9.64739 4.07855 9.58742 4.14883C9.57804 4.15981 9.56853 4.17037 9.55922 4.18147C9.34801 4.43329 9.15293 4.71509 8.97571 5.0272C8.95456 5.06436 8.93462 5.10308 8.91398 5.141C8.88015 5.20344 8.84642 5.2661 8.81394 5.33074C8.78972 5.3789 8.76642 5.42812 8.74309 5.47737C8.72642 5.51251 8.70885 5.54617 8.69256 5.58192C8.67874 5.61226 8.66613 5.64381 8.65265 5.6745C8.64379 5.69475 8.63396 5.71383 8.62523 5.73424C8.6194 5.74794 8.61422 5.76221 8.60878 5.77626C8.59086 5.81892 8.57323 5.8619 8.55604 5.90526C8.55028 5.91678 8.54423 5.92686 8.53796 5.93563C8.47047 5.99547 8.4112 6.0614 8.35757 6.123C8.33273 6.15154 8.30816 6.17983 8.2832 6.20659C8.27539 6.21494 8.26736 6.22374 8.25952 6.23215C8.25923 6.23248 8.25894 6.23276 8.25862 6.23308C8.21689 6.27789 8.1726 6.3257 8.12722 6.37491C8.11436 6.3889 8.10159 6.40288 8.08872 6.41696C8.04338 6.46644 7.9972 6.51745 7.95009 6.57012C7.94168 6.57953 7.93329 6.58878 7.92491 6.59822C7.8755 6.65371 7.82586 6.7101 7.77629 6.76789C7.77169 6.77327 7.76689 6.77903 7.76228 6.78447C7.7569 6.79071 7.75165 6.79701 7.74628 6.80328C7.4902 7.10371 7.20555 7.46379 6.99507 7.88C6.56293 8.7347 6.46244 9.7791 6.38897 10.5415C6.38855 10.5459 6.3882 10.5505 6.38775 10.5549C6.38769 10.556 6.38756 10.5571 6.38743 10.5581C6.38692 10.5638 6.38647 10.5695 6.38593 10.5752C6.30695 11.4046 6.25981 12.3014 6.23805 13.3942C6.23805 13.3941 6.23805 13.3944 6.23805 13.3942C6.22666 13.8414 6.21878 14.2952 6.21539 14.7506C6.2152 14.7764 6.2152 14.8029 6.21504 14.8288C6.20966 15.3399 6.20845 15.8487 6.21539 16.3586L6.21731 16.4963C6.21923 16.6351 6.22128 16.7757 6.22326 16.9157C6.22333 16.9225 6.22339 16.9288 6.22346 16.9355C6.22355 16.9418 6.22371 16.9481 6.22378 16.9543C6.2353 17.7618 6.2496 18.5857 6.28144 19.3997C6.28186 19.4101 6.28231 19.421 6.28272 19.4314C6.29655 19.8744 6.31536 20.329 6.33956 20.8074C6.36311 21.3292 6.3906 21.8664 6.42507 22.4012C6.4362 22.5735 6.44644 22.7465 6.45668 22.9195C6.5059 23.7478 6.5571 24.6036 6.70399 25.435C6.70431 25.4368 6.70447 25.4385 6.70476 25.4402C6.70492 25.441 6.70508 25.4417 6.70521 25.4424C6.70655 25.4501 6.70764 25.4578 6.70898 25.4654C6.72399 25.549 6.74012 25.6287 6.75682 25.7068C6.75919 25.7177 6.76166 25.7284 6.76409 25.7393C6.85625 26.1595 6.97434 26.504 7.13038 26.8055C7.14171 26.8273 7.15415 26.8481 7.1659 26.8695C7.16715 26.8718 7.16843 26.874 7.16968 26.8763C7.20072 26.9327 7.23307 26.9874 7.2667 27.0407C7.2739 27.0522 7.28107 27.0637 7.2884 27.075C7.29717 27.0885 7.30543 27.1028 7.31432 27.1161C7.32456 27.1312 7.33634 27.1467 7.3485 27.1621C7.35506 27.1715 7.3614 27.1811 7.36808 27.1904C7.37007 27.2173 7.36581 27.2643 7.36271 27.2972C7.35964 27.3312 7.35682 27.3641 7.35618 27.3938L7.17684 36.2795C7.17684 36.2858 7.17713 36.2931 7.17723 36.2999L7.17355 36.4585C7.11991 36.4852 7.06644 36.5121 7.01364 36.5389L6.96544 36.5634C6.49717 36.4514 6.01417 36.538 5.60128 36.684C5.35635 36.768 5.11505 36.8816 4.88596 37.0215C4.88196 37.024 4.87805 37.0265 4.87405 37.029C4.83255 37.0546 4.79075 37.0796 4.75011 37.1069C4.51791 37.263 4.29358 37.4587 4.07827 37.6894C4.06304 37.7057 4.048 37.7224 4.03286 37.7389C3.99212 37.7839 3.95174 37.8301 3.9117 37.8777C3.88991 37.9035 3.86802 37.929 3.84648 37.9555C3.80869 38.0022 3.77144 38.0507 3.73432 38.0997C3.70293 38.1411 3.67185 38.1832 3.64104 38.2262C3.60958 38.2701 3.57796 38.3136 3.54698 38.3592C3.53825 38.3721 3.52954 38.3857 3.52077 38.3988C3.51661 38.4051 3.51223 38.4108 3.50807 38.417C3.49713 38.4337 3.48593 38.4512 3.47479 38.4683C3.45133 38.5043 3.42836 38.541 3.40535 38.5781C3.39952 38.5876 3.39373 38.5969 3.3879 38.6064C3.36941 38.6368 3.3513 38.6673 3.33341 38.6984C3.33232 38.7003 3.33129 38.7023 3.33021 38.7042C3.30182 38.7536 3.27449 38.8039 3.24838 38.8552C3.04091 39.2579 2.89998 39.726 3.08834 40.1398C3.2608 40.5185 3.62763 40.5973 3.96908 40.5824C3.975 40.5822 3.98086 40.582 3.98675 40.5818C4.0343 40.5793 4.08115 40.5752 4.12691 40.5697C4.14976 40.567 4.17188 40.5639 4.19425 40.5606C4.21713 40.5572 4.23921 40.5535 4.26122 40.5497C4.30235 40.5426 4.34209 40.5352 4.38107 40.5269C4.39291 40.5244 4.4043 40.522 4.41566 40.5195C4.43304 40.5157 4.45154 40.5122 4.46837 40.5083C4.53858 40.4921 4.60847 40.4749 4.67855 40.4584C4.8848 40.4095 5.09118 40.361 5.29772 40.3127C5.66791 40.2262 6.04585 40.1374 6.4235 40.0448C6.65099 39.9903 6.8791 39.9331 7.10612 39.872C7.11265 39.8703 7.11924 39.8687 7.12577 39.867C7.12718 39.8666 7.12859 39.8662 7.12999 39.8659C7.12987 39.8775 7.12987 39.8891 7.12974 39.9013L7.10593 46.4923C7.10414 46.9532 7.10644 47.4133 7.10875 47.874L7.10913 47.9574L7.14241 55.157C7.14241 55.1577 7.14247 55.1584 7.14247 55.1591L7.14318 55.3058C7.0706 55.3036 6.99882 55.316 6.93018 55.3468C6.85958 55.3785 6.79801 55.4253 6.74393 55.4803C6.74159 55.4825 6.73868 55.4842 6.73638 55.4865C6.58978 55.6308 6.5115 55.8182 6.45345 56.0057C6.45329 56.0063 6.45303 56.0069 6.45284 56.0075C6.4523 56.0093 6.45188 56.0111 6.45131 56.0129C6.44488 56.0339 6.43851 56.0548 6.43249 56.0757C6.42955 56.086 6.42727 56.0966 6.42436 56.107C6.40539 56.1734 6.38801 56.2401 6.37233 56.3073C6.37169 56.3099 6.37108 56.3126 6.37047 56.3153C6.3546 56.3836 6.34017 56.4523 6.32727 56.5212C6.32394 56.5385 6.32055 56.5557 6.31741 56.5729C6.31175 56.6048 6.30653 56.6367 6.30141 56.6686C6.22813 57.1075 6.20073 57.5474 6.18621 57.9416C6.1857 57.9556 6.18598 57.9703 6.1855 57.9843C6.18377 58.0387 6.18374 58.0941 6.18282 58.149C6.18144 58.2292 6.17936 58.3088 6.17981 58.3907C6.18099 58.6597 6.19146 58.9333 6.21142 59.2097C6.21242 59.2232 6.21376 59.2374 6.21478 59.251C6.21578 59.2646 6.21706 59.2787 6.21811 59.2924C6.24659 59.6706 6.28544 60.0649 6.35594 60.4565C6.36855 60.5283 6.38183 60.598 6.39588 60.666C6.40801 60.7249 6.42203 60.7868 6.43742 60.8497C6.49627 61.094 6.59998 61.4515 6.90509 61.6308C6.99412 61.6831 7.10206 61.7242 7.21333 61.7455L7.30283 70.4616C6.99412 70.9471 6.85184 71.5463 6.74015 72.1317C6.69772 72.3468 6.66149 72.5632 6.6302 72.7807C6.62808 72.7949 6.62587 72.8091 6.62383 72.8233C6.61912 72.8567 6.61458 72.8902 6.6101 72.9236C6.53317 73.4781 6.48603 74.0062 6.45259 74.4379C6.45076 74.4616 6.44881 74.4876 6.44692 74.512C6.3985 75.0944 6.36263 75.6654 6.33994 76.2181C6.33588 76.3103 6.33226 76.4028 6.32897 76.4956C6.32816 76.5193 6.32688 76.5438 6.32612 76.5675L6.31664 76.8572C6.31204 76.9964 6.30746 77.1356 6.30282 77.2747C6.28567 77.7827 6.26851 78.2907 6.25687 78.7988L6.19107 81.7081C6.18659 81.9073 6.18147 82.1064 6.17635 82.3056C6.16419 82.7796 6.15165 83.2698 6.14793 83.7526L6.14781 83.7659C6.14733 83.8304 6.14691 83.896 6.14643 83.9608C6.14358 84.1931 6.1414 84.4246 6.14089 84.657C6.14003 85.1049 6.14137 85.5996 6.1511 86.1126C6.15123 86.1203 6.15126 86.1279 6.15139 86.1356C6.15161 86.1465 6.1519 86.158 6.15213 86.169C6.15315 86.2191 6.15424 86.2691 6.15542 86.3195C6.16304 86.6596 6.1744 87.0223 6.19574 87.3963C6.22407 87.9558 6.26157 88.5628 6.38353 89.1495C6.42798 89.396 6.49233 89.6417 6.59467 89.8711C6.60126 89.8858 6.60824 89.9003 6.61515 89.9149C6.64012 89.9676 6.66744 90.0191 6.69701 90.0695C6.70777 90.0879 6.71884 90.106 6.73017 90.1241C6.74265 90.1439 6.75305 90.1646 6.76633 90.1839C6.77772 90.2004 6.79103 90.2152 6.80281 90.2313C6.8352 90.2771 6.8695 90.3215 6.90547 90.3652C6.91299 90.3741 6.92042 90.3831 6.92803 90.392C7.15832 90.6632 7.45334 90.8916 7.78551 91.0387C7.96613 91.1188 8.16005 91.1767 8.36154 91.2108C8.36474 91.2114 8.36835 91.2116 8.37152 91.2121C8.37146 91.2121 8.37162 91.2121 8.37152 91.2121C8.44624 91.2245 8.52346 91.234 8.60219 91.2403C8.6068 91.2407 8.61089 91.2416 8.6155 91.242C8.64238 91.244 8.66926 91.2443 8.6955 91.2445C8.69966 91.2445 8.70434 91.2445 8.70894 91.2446C8.7245 91.2453 8.73999 91.246 8.75563 91.2464C8.76072 91.2511 8.76658 91.2563 8.7717 91.261C9.01875 91.5139 9.29812 91.7211 9.57337 91.8919C9.57708 91.8942 9.58028 91.8967 9.58399 91.899C9.58994 91.9027 9.59609 91.9059 9.60204 91.9095C9.67683 91.9553 9.7505 91.9985 9.82349 92.039C9.85319 92.0557 9.88285 92.0724 9.91274 92.0886C9.93517 92.1006 9.95668 92.1116 9.97876 92.1231C10.6266 92.4667 11.306 92.7049 11.9042 92.8944C11.9324 92.9033 11.9608 92.9109 11.989 92.9196C12.1495 92.9692 12.3063 93.0158 12.4584 93.0594C12.5155 93.0757 12.5722 93.0923 12.6293 93.1081C12.6381 93.1105 12.6473 93.1133 12.656 93.1157C13.2851 93.2922 13.9122 93.4394 14.4843 93.5645C14.4864 93.5649 14.4885 93.5655 14.4906 93.5659C14.9609 93.6715 15.4313 93.7673 15.9042 93.8594C16.2718 93.9321 16.6271 93.9993 16.9732 94.0616C17.0129 94.0689 17.0521 94.0763 17.0919 94.0837C17.7651 94.2083 18.4844 94.316 19.2308 94.4066C19.297 94.4149 19.3638 94.423 19.4309 94.4311C19.4638 94.4349 19.4959 94.4392 19.5289 94.443C19.5387 94.4441 19.5486 94.4451 19.5584 94.4462C19.697 94.4624 19.837 94.4784 19.98 94.4939C20.711 94.5735 21.4395 94.6353 22.1502 94.6796C22.1833 94.6818 22.2164 94.6845 22.2495 94.6867C23.1484 94.7461 24.0509 94.7812 24.8925 94.8102C25.0054 94.8141 25.12 94.8177 25.2357 94.8212C25.7385 94.8367 26.2297 94.8461 26.6887 94.8523C26.7173 94.8527 26.7464 94.8531 26.7753 94.8535C26.8253 94.8541 26.8749 94.8548 26.9241 94.8553C27.0839 94.8573 27.2466 94.8591 27.4161 94.8605C28.3194 94.8685 29.1486 94.8685 29.9502 94.8606C29.9525 94.8606 29.9546 94.8605 29.9569 94.8605C29.9595 94.8605 29.9619 94.8605 29.9645 94.8605C29.9726 94.8604 29.981 94.8604 29.9891 94.8603C29.9945 94.8602 29.9996 94.8602 30.0049 94.8601C30.8666 94.8531 31.6211 94.8389 32.3086 94.8166C32.3836 94.8142 32.4584 94.8113 32.5334 94.8087C32.5686 94.8076 32.6044 94.8065 32.6394 94.8053C33.4176 94.7785 34.323 94.7447 35.2187 94.681C35.2298 94.6802 35.2406 94.6793 35.2517 94.6785C35.948 94.6338 36.6637 94.5735 37.3858 94.4969C37.6473 94.4692 37.9047 94.4387 38.1599 94.4071C38.7896 94.3315 39.4436 94.2336 40.1115 94.1155C40.7152 94.0106 41.3367 93.8924 41.968 93.7624C41.9865 93.7586 42.0052 93.7548 42.0238 93.751C42.0886 93.7376 42.1529 93.7248 42.2179 93.7112C42.2373 93.7071 42.2578 93.7027 42.2773 93.6986C42.3497 93.6835 42.4224 93.6681 42.4954 93.6526C42.4975 93.6521 42.4996 93.6517 42.5018 93.6512C42.5919 93.632 42.6819 93.6127 42.7725 93.5929C43.1191 93.5175 43.4846 93.4345 43.8567 93.3437C43.903 93.3324 43.9493 93.3212 43.9961 93.3096C44.0244 93.3025 44.0528 93.2954 44.0812 93.2882C44.4714 93.1906 44.8744 93.0819 45.2755 92.9592C45.654 92.8447 45.9929 92.7301 46.3073 92.6109C46.6638 92.4781 47.0206 92.3275 47.3673 92.1468C47.6093 92.0228 47.8705 91.8703 48.1234 91.6858C48.1329 91.6789 48.1415 91.6718 48.1509 91.6649C48.2119 91.6196 48.2726 91.5736 48.3321 91.5244C48.3338 91.523 48.3359 91.5216 48.3376 91.5201C48.4006 91.4681 48.4619 91.414 48.5214 91.3579C48.5227 91.3567 48.5241 91.355 48.5254 91.3538C48.5614 91.3197 48.5949 91.2824 48.6296 91.2466C48.7631 91.2429 48.8938 91.2327 49.0171 91.2121C49.0325 91.2096 49.0474 91.205 49.0627 91.2021C49.0773 91.1998 49.0914 91.199 49.1062 91.196C49.3145 91.1539 49.513 91.0863 49.6956 90.9953C49.9972 90.8453 50.2614 90.6326 50.4703 90.382C50.5242 90.3188 50.5751 90.2527 50.6226 90.1839C50.8648 89.8333 50.9675 89.4111 51.0309 88.999C51.0313 88.9971 51.0316 88.9952 51.0319 88.9933C51.0327 88.9882 51.0336 88.9831 51.0343 88.978C51.1256 88.4677 51.1653 87.9425 51.1928 87.4078C51.2063 87.1711 51.2163 86.9273 51.224 86.6737C51.2445 86.0587 51.2523 85.3943 51.2479 84.62C51.2472 84.4759 51.2456 84.3326 51.2442 84.1893C51.2432 84.0478 51.2422 83.9059 51.2412 83.7659L51.241 83.7526C51.2373 83.2698 51.2248 82.7796 51.2126 82.3056C51.2079 82.1211 51.2032 81.9366 51.199 81.7521L51.1338 78.8678C51.1336 78.8608 51.1334 78.8537 51.1332 78.8467L51.1321 78.7988C51.1259 78.5256 51.1179 78.2524 51.1093 77.9792C51.0948 77.4953 51.0788 77.0081 51.0613 76.5125C51.0601 76.4775 51.0581 76.4416 51.0568 76.4065C51.0524 76.2917 51.0476 76.1773 51.0421 76.0638C51.0196 75.5816 50.9881 75.0861 50.9464 74.5682C50.943 74.5246 50.9396 74.4797 50.9364 74.4379C50.9089 74.0827 50.8719 73.6621 50.8172 73.2164C50.7721 72.8344 50.7134 72.4385 50.6315 72.0425C50.52 71.4727 50.382 70.9285 50.094 70.4725C50.0933 70.4714 50.0928 70.4702 50.0921 70.4691C50.0902 70.466 50.0883 70.4636 50.0864 70.4606L50.1758 61.7455C50.2018 61.7405 50.2272 61.7342 50.2525 61.727C50.257 61.7258 50.2614 61.7246 50.2658 61.7234C50.2874 61.717 50.3084 61.7102 50.3292 61.7024C50.3387 61.699 50.348 61.6952 50.3574 61.6914C50.402 61.6733 50.4451 61.6535 50.4838 61.6308C50.5377 61.5991 50.5833 61.5604 50.6256 61.5191C50.6345 61.5106 50.6428 61.5013 50.6513 61.4923C50.6745 61.4674 50.6964 61.4419 50.7163 61.4149C50.7239 61.4044 50.7323 61.3945 50.7395 61.3836C50.7417 61.3802 50.7434 61.3765 50.7456 61.3731C50.7674 61.3399 50.787 61.306 50.8048 61.2711C50.9905 60.9248 51.0408 60.5066 51.0845 60.1325L51.0872 60.1096C51.1137 59.9147 51.1351 59.7211 51.1517 59.53C51.1565 59.4789 51.1597 59.4289 51.1639 59.3783C51.1684 59.3221 51.1735 59.2651 51.1775 59.2097C51.1787 59.1943 51.179 59.1791 51.1801 59.1637C51.1867 59.0655 51.1918 58.9685 51.1961 58.872C51.1986 58.8158 51.2011 58.7598 51.2028 58.7039C51.2056 58.613 51.2071 58.5234 51.2078 58.4342C51.2081 58.4034 51.2095 58.3721 51.2095 58.3414C51.2095 58.3162 51.2085 58.2916 51.2083 58.2665C51.2081 58.229 51.2093 58.1903 51.2086 58.1531C51.2019 57.7525 51.1781 57.3865 51.1378 57.047C51.106 56.7491 51.0583 56.4489 50.9787 56.1566C50.9667 56.1098 50.9528 56.0616 50.9376 56.013C50.9371 56.0111 50.9366 56.0092 50.936 56.0073C50.9297 55.9872 50.9218 55.9646 50.9137 55.9416C50.8348 55.7139 50.7167 55.4888 50.5268 55.3763C50.4478 55.3295 50.3616 55.3065 50.2724 55.3056C50.2639 55.3053 50.2556 55.3045 50.2471 55.3048C50.2467 55.3048 50.2464 55.3047 50.246 55.3047L50.2484 54.7827L50.28 48.0462C50.2818 47.758 50.282 47.4697 50.2826 47.1815C50.283 47.068 50.2838 46.9544 50.2838 46.8409C50.2838 46.8344 50.2838 46.8281 50.2838 46.8217C50.2837 46.7904 50.2842 46.7592 50.2841 46.728L50.2623 40.8774C50.2623 40.8733 50.2622 40.8691 50.2622 40.865L50.2584 39.8659C50.2758 39.8706 50.2934 39.8749 50.3108 39.8796C50.3799 39.8981 50.449 39.9163 50.5184 39.9341C51.1573 40.1016 51.8036 40.2513 52.4335 40.3959L52.8726 40.4969C52.8886 40.5006 52.9045 40.5046 52.9205 40.5083C52.9346 40.5115 52.9501 40.5145 52.9646 40.5177C52.9902 40.5234 53.0161 40.5289 53.0424 40.5343C53.0574 40.5373 53.072 40.5403 53.0873 40.5432C53.3173 40.5873 53.5677 40.6109 53.8134 40.5427C54.1109 40.4601 54.3067 40.2281 54.3627 39.9151C54.3641 39.9078 54.366 39.9009 54.3673 39.8935C54.3745 39.8466 54.3786 39.798 54.3795 39.7477C54.3797 39.7411 54.3811 39.7351 54.3811 39.7285C54.3811 39.7201 54.381 39.7117 54.3809 39.7034ZM46.9692 79.6871C46.8454 80.6372 46.7383 81.3658 46.6217 82.0493C46.479 82.8868 46.3318 83.5729 46.1583 84.2088C46.0156 84.7322 45.8039 85.4039 45.4307 85.957C45.2701 86.1949 45.0731 86.4092 44.8435 86.6004L42.5216 80.2537C42.5874 80.1002 42.6433 79.951 42.6904 79.8144C42.8709 79.2903 43.0133 78.7515 43.1138 78.2134C43.2316 77.5831 43.2964 76.9597 43.3396 76.4871C43.3858 75.9824 43.4218 75.4271 43.4529 74.7395C43.4793 74.154 43.4954 73.5704 43.5088 73.0269C43.5224 72.4762 43.53 71.93 43.5373 71.3724C43.5397 71.1852 43.5425 70.9981 43.5453 70.811C43.5511 70.4418 43.5567 70.0726 43.5589 69.7036C43.5593 69.6398 43.5594 69.5761 43.5594 69.5122C43.5594 69.4488 43.5593 69.3855 43.5592 69.3221L43.5587 62.3407H47.8341L47.8331 62.5569C47.833 62.7861 47.8329 63.0155 47.8284 63.2447C47.8151 63.9391 47.8011 64.6335 47.7872 65.3281L47.7714 66.1094C47.76 66.6887 47.7443 67.2914 47.7234 67.9525C47.7156 68.1955 47.7088 68.4388 47.7019 68.682C47.6876 69.195 47.6726 69.7255 47.6488 70.2459L47.5177 73.1057C47.4937 73.6311 47.4588 74.1659 47.4252 74.683C47.4105 74.9102 47.3956 75.1376 47.3817 75.3649C47.336 76.1067 47.2671 76.8645 47.2063 77.5331C47.1397 78.2659 47.0598 78.9907 46.9692 79.6871ZM32.8799 89.2282C32.065 89.2639 31.231 89.2818 30.5133 89.2959C29.8332 89.3091 29.1334 89.3132 28.4333 89.3082L27.9788 89.3054C27.3371 89.3015 26.6737 89.2975 26.0224 89.2789C25.2204 89.2557 24.4359 89.2312 23.6554 89.1863C22.9264 89.1442 22.1419 89.0941 21.3436 89.014C20.4932 88.9286 19.7343 88.8308 19.0239 88.7152C18.2514 88.5894 17.5506 88.4411 16.8812 88.2617C16.2207 88.0848 15.5053 87.8726 14.6941 87.613C14.5817 87.577 14.4659 87.5396 14.3491 87.501L16.4173 81.8869C16.5193 81.936 16.619 81.9802 16.7125 82.0193C17.2389 82.2392 17.7935 82.4162 18.3164 82.5788C18.8425 82.7422 19.3892 82.8791 19.9414 82.9855C20.4754 83.0884 21.0383 83.1727 21.6629 83.2436C22.2333 83.3084 22.8052 83.3601 23.3627 83.3974C23.9519 83.4365 24.5641 83.4686 25.1823 83.4925C25.7649 83.515 26.3531 83.5269 26.9019 83.5364C27.4669 83.5462 28.0661 83.5516 28.6832 83.5523C29.2557 83.5527 29.7843 83.5486 30.2994 83.5396C30.9009 83.5291 31.5453 83.5163 32.1823 83.4934C32.7738 83.4721 33.3545 83.4381 33.9469 83.4021C34.4588 83.3711 34.9999 83.3244 35.555 83.2632C36.2261 83.189 36.7747 83.1106 37.2815 83.0166C37.8738 82.9066 38.4164 82.7766 38.9403 82.619C39.3909 82.4834 39.9824 82.2981 40.5637 82.0652C40.6958 82.0123 40.8334 81.9531 40.9716 81.8867L43.0315 87.5058C42.7115 87.6143 42.388 87.7128 42.0699 87.8095L41.9392 87.8493C41.2792 88.0504 40.5115 88.279 39.7524 88.4467C39.0734 88.5965 38.3268 88.7282 37.4695 88.8491C36.8212 88.9407 36.127 89.0145 35.2849 89.0816C34.5056 89.1434 33.6964 89.1928 32.8799 89.2282ZM11.644 85.3902C11.3733 84.7984 11.2043 84.1709 11.0338 83.4107C10.8528 82.6043 10.7231 81.8095 10.6201 81.1383C10.4951 80.3234 10.3966 79.517 10.3168 78.8356C10.238 78.1641 10.1688 77.4601 10.1054 76.6836C10.0406 75.8913 9.99079 75.1034 9.93703 74.2293C9.89773 73.5903 9.86189 72.9096 9.82413 72.0868C9.81466 71.8795 9.80455 71.6723 9.79456 71.4652C9.76998 70.9592 9.74451 70.436 9.72813 69.9221L9.63686 67.0647C9.62111 66.5714 9.61292 66.0687 9.60498 65.5827C9.60114 65.3479 9.5973 65.1132 9.5927 64.8787C9.58898 64.6896 9.58437 64.5005 9.57977 64.3115C9.57029 63.9172 9.56057 63.5095 9.55877 63.1095L9.55535 62.3407H13.8304L13.8299 69.2675C13.8297 69.4095 13.8294 69.5513 13.8302 69.6928C13.8317 70.025 13.837 70.3573 13.8421 70.6895L13.853 71.471C13.8586 71.9255 13.8643 72.3801 13.8755 72.8345C13.8892 73.3886 13.907 74.0441 13.9347 74.7049C13.9586 75.2781 13.9953 75.8572 14.0441 76.4261C14.0984 77.0622 14.1646 77.59 14.2521 78.0869C14.3471 78.6261 14.4825 79.1632 14.6544 79.6834C14.7149 79.8663 14.7839 80.0597 14.8672 80.2538L12.5363 86.5978C12.1673 86.2825 11.8675 85.8786 11.644 85.3902ZM9.50488 51.0826V38.9749C9.50514 38.5353 9.50719 38.0958 9.50924 37.6562L9.51346 36.5C9.51487 35.8902 9.5164 35.2597 9.52895 34.6405C9.54057 34.0664 9.56092 33.5598 9.60934 33.0732C9.78541 33.5083 9.96132 33.9435 10.1388 34.3781C10.4963 35.2538 10.8794 36.1489 11.2775 37.0387C11.7483 38.0905 12.218 39.1125 12.6733 40.0761C13.0988 40.9765 13.5481 41.8821 13.9835 42.7591C13.9758 42.8784 13.9692 42.9968 13.9633 43.1133C13.9372 43.6268 13.9245 44.1477 13.9124 44.6516L13.9051 44.9457C13.896 45.3025 13.8915 45.659 13.8878 46.0159L13.8362 50.9534C13.8339 51.139 13.8316 51.3245 13.831 51.51C13.8305 51.6575 13.8307 51.805 13.8307 51.9525L13.831 52.1729L13.8305 60.1647H10.4657C10.4072 60.1647 10.3479 60.1629 10.2884 60.1611C10.0545 60.1542 9.79293 60.147 9.54597 60.2453L9.50488 51.0848L9.30827 51.0826H9.50488ZM45.5745 32.5084C45.3451 33.1106 45.1071 33.7022 44.8843 34.252C44.5779 35.0074 44.3221 35.6277 44.079 36.2041C43.8072 36.8486 43.5968 37.3385 43.3965 37.7925L42.4979 39.8291C42.2867 39.5502 42.0303 39.2819 41.72 39.0175C41.3477 38.7002 40.9166 38.3975 40.3631 38.0648C39.8424 37.7521 39.3526 37.4991 38.8654 37.2918C38.3711 37.0813 37.8482 36.9006 37.267 36.7389C36.7518 36.5955 36.2128 36.4742 35.6191 36.3679C35.0676 36.2692 34.4842 36.1859 33.8354 36.1131C33.3037 36.0534 32.7518 36.0058 32.1948 35.9716C31.5304 35.9307 30.9825 35.9054 30.4704 35.8921C29.9375 35.8782 29.3736 35.8701 28.6954 35.8668H28.6944C28.1612 35.8668 27.6259 35.8737 27.1031 35.8873C26.4733 35.9037 25.9102 35.9275 25.382 35.96C24.7509 35.9988 24.1692 36.047 23.6038 36.1074C23.0353 36.1684 22.4597 36.2486 21.8929 36.3459C21.3235 36.4436 20.7659 36.5653 20.2357 36.7078C19.6675 36.8605 19.1312 37.0403 18.6416 37.2425C18.1537 37.4438 17.6527 37.6951 17.1526 37.9894C16.5906 38.3201 16.1476 38.6231 15.7582 38.943C15.4077 39.2308 15.1221 39.5228 14.8909 39.8287L13.9925 37.7925C13.7903 37.334 13.5797 36.8441 13.3099 36.2041C13.0663 35.626 12.8104 35.0058 12.5047 34.252C12.2818 33.7022 12.0439 33.1106 11.8145 32.5084C11.5762 31.8828 11.2185 30.6738 10.9548 29.9438C11.2241 29.671 11.5038 29.4339 11.7507 29.2356C12.2843 28.807 12.8882 28.4094 13.5458 28.0538C14.1525 27.7259 14.826 27.4086 15.6046 27.0839C16.2313 26.8224 16.9091 26.5702 17.8023 26.266C18.5425 26.0139 19.2729 25.7939 19.9734 25.6119C20.6711 25.4306 21.4154 25.2742 22.1859 25.1469C22.9135 25.0269 23.6723 24.9288 24.4414 24.8556C25.1366 24.7896 25.8974 24.7401 26.7677 24.7047C27.462 24.676 28.1825 24.6654 28.9702 24.6719C29.8532 24.6792 30.6394 24.7012 31.3738 24.7393C32.1323 24.7784 32.8704 24.8391 33.5677 24.9196C34.3918 25.015 35.1451 25.1284 35.8706 25.2663C36.6198 25.4086 37.3586 25.5842 38.0662 25.7881C38.7602 25.9881 39.4883 26.2241 40.2921 26.5096C41.0363 26.7739 41.7529 27.0592 42.4218 27.3575C43.1831 27.697 43.8309 28.0286 44.4021 28.3714C45.0205 28.7424 45.5992 29.1717 46.1221 29.6474C46.2486 29.7624 46.3639 29.8752 46.4724 29.9872C46.2059 30.7211 45.808 31.8954 45.5745 32.5084ZM47.1006 60.1611C47.041 60.1629 46.9818 60.1647 46.9233 60.1647H43.5586L43.5581 53.7468L43.5583 52.0141L43.5581 51.5297C43.5579 51.3717 43.556 51.2138 43.5539 51.0557L43.5009 45.9649C43.4981 45.6814 43.4954 45.398 43.4882 45.1146L43.4794 44.7578C43.4675 44.2624 43.4551 43.7503 43.4319 43.2459C43.4246 43.0866 43.4157 42.9239 43.4051 42.76L43.4982 42.5728C44.0265 41.509 44.5022 40.5286 44.9525 39.5755C45.3787 38.6729 45.7964 37.7573 46.194 36.8542C46.6121 35.904 47.035 34.9053 47.4512 33.8856C47.5616 33.6152 47.6694 33.3434 47.7774 33.0717C47.7792 33.0911 47.7815 33.1112 47.7832 33.1304C47.8375 33.7249 47.8651 34.3735 47.87 35.1717C47.8742 35.8141 47.876 36.4565 47.8778 37.099L47.8814 38.2163C47.8828 38.5513 47.8841 38.8861 47.8841 39.2209L47.8842 50.657C47.8842 50.8353 47.8843 51.0138 47.8836 51.1924L47.8616 56.0766L47.8433 60.2455C47.5963 60.147 47.3346 60.1542 47.1006 60.1611ZM46.4247 5.63005C46.8136 5.91358 47.1286 6.24768 47.3609 6.62286C47.6862 7.14884 47.8162 7.71936 47.728 8.22792C47.65 8.6762 47.3864 9.08288 47.0049 9.34388C46.5521 9.65378 45.9378 9.77641 45.2751 9.68924L45.2708 9.68873C45.2091 9.67797 44.8588 9.60642 44.8206 9.59656C44.3256 9.46139 43.8472 9.21805 43.4366 8.89279C43.0528 8.58839 42.7504 8.23522 42.538 7.84301C42.2402 7.29284 42.1561 6.71246 42.3015 6.20876C42.4307 5.76138 42.7532 5.37698 43.1863 5.15412C43.6773 4.90131 44.3047 4.83628 44.953 4.97082C45.4718 5.07847 45.9808 5.30645 46.4247 5.63005ZM12.436 4.97082C13.0843 4.83628 13.7117 4.90131 14.2026 5.15412C14.6357 5.37698 14.9583 5.76138 15.0875 6.20876C15.2329 6.71234 15.1489 7.29271 14.8508 7.84301C14.6386 8.23522 14.3363 8.58839 13.9523 8.89279C13.5418 9.21805 13.0633 9.46139 12.5691 9.59643C12.5302 9.60642 12.1799 9.67797 12.1182 9.68873L12.1139 9.68924C11.4512 9.77641 10.8368 9.65378 10.3839 9.34388C10.0026 9.083 9.73901 8.6762 9.66092 8.22805C9.57285 7.71897 9.70278 7.14884 10.028 6.62286C10.2605 6.24742 10.5754 5.91345 10.9643 5.63005C11.4082 5.30645 11.9172 5.07847 12.436 4.97082ZM9.82387 89.7561L9.83872 89.6832C9.92321 89.2655 10.0191 88.7923 10.28 88.4935C10.3897 88.368 10.5457 88.3064 10.7709 88.3001C10.9529 88.2951 11.1495 88.323 11.4181 88.3936C11.632 88.4495 11.8531 88.5074 12.0281 88.6145C12.2818 88.7695 12.4357 89.0779 12.5844 89.3761C12.6336 89.4747 12.6845 89.5767 12.7383 89.6716C13.008 90.1469 13.3096 90.5915 13.5969 90.9894C13.0177 90.869 12.3457 90.7213 11.6736 90.5304C10.9394 90.3218 10.3447 90.1083 9.80391 89.8596C9.81056 89.8251 9.81683 89.7906 9.82387 89.7561ZM44.6507 89.6716C44.7044 89.5769 44.7551 89.4751 44.8043 89.3767C44.953 89.0781 45.107 88.7697 45.3608 88.6144C45.5358 88.5074 45.757 88.4495 45.9808 88.391C46.2395 88.323 46.4361 88.2951 46.6181 88.3001C46.8433 88.3064 46.9993 88.368 47.109 88.4935C47.3699 88.7923 47.4658 89.2655 47.5502 89.6832L47.5651 89.7561C47.5721 89.79 47.5787 89.8242 47.5854 89.8591C47.3236 89.9794 47.0435 90.0938 46.7401 90.2033C46.1764 90.4068 45.5539 90.5877 44.781 90.7723C44.4519 90.8509 44.1206 90.9244 43.7897 90.9927C44.0777 90.594 44.3802 90.1482 44.6507 89.6716Z" fill="#E7EAEE"/>
<path d="M53 12H55C56.1046 12 57 12.8954 57 14V20C57 21.1046 56.1046 22 55 22H53V12Z" fill="#2CA67E"/>
<path d="M53 76H55C56.1046 76 57 76.8954 57 78V84C57 85.1046 56.1046 86 55 86H53V76Z" fill="#2CA67E"/>
<path d="M4 12H2C0.895431 12 0 12.8954 0 14V20C0 21.1046 0.895431 22 2 22H4V12Z" fill="#2CA67E"/>
<path d="M4 76H2C0.895431 76 0 76.8954 0 78V84C0 85.1046 0.895431 86 2 86H4V76Z" fill="#2CA67E"/>
</svg>
