<svg width="29" height="338" viewBox="0 0 29 338" fill="none" xmlns="http://www.w3.org/2000/svg">
<line x1="15" y1="4.37113e-08" x2="15" y2="148" stroke="#C4C4C4" stroke-width="2" stroke-dasharray="10 10"/>
<line x1="13" y1="338" x2="13" y2="190" stroke="#C4C4C4" stroke-width="2" stroke-dasharray="10 10"/>
<path d="M7.56 175.108C3.744 175.108 0.936 172.372 0.936 168.7C0.936 165.028 3.744 162.292 7.56 162.292C11.34 162.292 14.166 165.01 14.166 168.7C14.166 172.39 11.34 175.108 7.56 175.108ZM7.56 173.92C10.584 173.92 12.834 171.706 12.834 168.7C12.834 165.694 10.584 163.48 7.56 163.48C4.518 163.48 2.25 165.694 2.25 168.7C2.25 171.706 4.518 173.92 7.56 173.92ZM27.2136 175H25.7556L22.8756 170.95C22.5516 170.986 22.2276 171.004 21.8676 171.004H18.4836V175H17.1516V162.4H21.8676C25.0716 162.4 27.0156 164.02 27.0156 166.72C27.0156 168.7 25.9716 170.086 24.1356 170.68L27.2136 175ZM21.8316 169.87C24.3516 169.87 25.6836 168.7 25.6836 166.72C25.6836 164.704 24.3516 163.552 21.8316 163.552H18.4836V169.87H21.8316Z" fill="black"/>
</svg>
