<svg width="230" height="43" viewBox="0 0 230 43" fill="none" xmlns="http://www.w3.org/2000/svg">
<g id="Group 57">
<g id="Group 56">
<path id="Vector" d="M19.9761 0H20.0829C21.2733 0 22.25 0.960704 22.25 2.1654V22.2944C22.25 23.4839 21.2885 24.4598 20.0829 24.4598H19.9761C18.7858 24.4598 17.8091 23.4991 17.8091 22.2944V2.1654C17.8091 0.975953 18.7705 0 19.9761 0Z" fill="#E07E27"/>
<path id="Vector_2" d="M28.9037 0.0151367H29.0105C30.2009 0.0151367 31.1623 0.97584 31.1623 2.16528V24.536C31.1623 25.7254 30.2009 26.6861 29.0105 26.6861H28.9037C27.7134 26.6861 26.752 25.7254 26.752 24.536V2.18053C26.752 0.991089 27.7134 0.0151367 28.9037 0.0151367Z" fill="#E07E27"/>
<path id="Vector_3" d="M11.0948 2.2876H11.2169C12.4225 2.2876 13.3839 3.26355 13.3839 4.45299V17.8419C13.3839 19.0465 12.4072 20.0072 11.2169 20.0072H11.0948C9.88916 20.0072 8.92773 19.0313 8.92773 17.8419V4.45299C8.92773 3.2483 9.90442 2.2876 11.0948 2.2876Z" fill="#E07E27"/>
<path id="Vector_4" d="M37.8162 6.70947H37.9688C39.1439 6.70947 40.1053 7.67018 40.1053 8.84437V17.8719C40.1053 19.0461 39.1439 20.0068 37.9688 20.0068H37.8162C36.6411 20.0068 35.6797 19.0461 35.6797 17.8719V8.84437C35.6797 7.65493 36.6259 6.70947 37.8162 6.70947Z" fill="#E07E27"/>
<path id="Vector_5" d="M2.13651 11.1626H2.24334C3.41842 11.1626 4.37985 12.1233 4.37985 13.2975V26.8083C4.37985 27.9825 3.41842 28.9432 2.24334 28.9432H2.13651C0.96143 28.9432 0 27.9825 0 26.8083V13.2975C0 12.1081 0.96143 11.1626 2.13651 11.1626Z" fill="#E07E27"/>
<path id="Vector_6" d="M46.6978 15.6152H46.8809C48.056 15.6152 49.0022 16.5607 49.0022 17.7196L49.0327 24.5666C49.0327 25.7407 48.0865 26.6862 46.9267 26.6862H46.7436C45.5685 26.6862 44.6223 25.7407 44.6223 24.5818L44.5918 17.7349C44.5918 16.5759 45.538 15.6152 46.6978 15.6152Z" fill="#E07E27"/>
<path id="Vector_7" d="M10.9571 24.521H11.2317C12.361 24.521 13.292 25.436 13.292 26.5644V29.0805C13.292 30.209 12.3763 31.1392 11.247 31.1392H10.9723C9.84302 31.1392 8.91211 30.2242 8.91211 29.0958V26.5796C8.91211 25.436 9.82776 24.521 10.9571 24.521Z" fill="#E07E27"/>
<path id="Vector_8" d="M37.7553 24.521H38.0452C39.1898 24.521 40.1054 25.4512 40.1054 26.5949L40.0902 29.05C40.0902 30.1937 39.1593 31.1087 38.0147 31.1087H37.7248C36.5802 31.1087 35.6646 30.1785 35.6646 29.0348L35.6798 26.5796C35.6798 25.4512 36.6107 24.521 37.7553 24.521Z" fill="#E07E27"/>
<path id="Vector_9" d="M19.9 28.9736H20.1747C21.304 28.9736 22.235 29.8886 22.235 31.0323V33.5332C22.235 34.6616 21.3193 35.5918 20.1747 35.5918H19.9C18.7708 35.5918 17.8398 34.6769 17.8398 33.5332V31.0323C17.8398 29.8886 18.7555 28.9736 19.9 28.9736Z" fill="#E07E27"/>
<path id="Vector_10" d="M28.8123 31.2153H29.1022C30.2468 31.2153 31.1624 32.1455 31.1624 33.2892V35.7596C31.1624 36.9033 30.2315 37.8183 29.087 37.8183H28.797C27.6525 37.8183 26.7368 36.8881 26.7368 35.7444V33.274C26.7368 32.1455 27.6677 31.2153 28.8123 31.2153Z" fill="#E07E27"/>
<path id="Vector_11" d="M46.6676 31.2153H46.9576C48.0869 31.2153 49.0178 32.1303 49.0178 33.274V35.7749C49.0178 36.9033 48.1021 37.8335 46.9576 37.8335H46.6676C45.5383 37.8335 44.6074 36.9186 44.6074 35.7749V33.274C44.6074 32.1303 45.5231 31.2153 46.6676 31.2153Z" fill="#E07E27"/>
<path id="Vector_12" d="M37.7705 35.6682H38.0605C39.2051 35.6834 40.1054 36.6136 40.1054 37.7421L40.0749 40.2277C40.0597 41.3714 39.1287 42.2711 37.9994 42.2711H37.7095C36.5649 42.2558 35.6646 41.3256 35.6646 40.1972L35.6951 37.7116C35.6951 36.5679 36.6412 35.6529 37.7705 35.6682Z" fill="#E07E27"/>
</g>
<g id="Group 55">
<path id="Vector_13" d="M77.6217 23.8998C76.6602 29.8318 71.4563 32.8054 65.7793 31.7684C59.5834 30.64 57.4469 24.586 58.1184 19.0201C58.7898 13.4388 62.7729 9.80949 68.511 10.0077C73.1045 10.1602 76.5229 13.1491 77.4843 17.5714C77.4996 17.6324 77.469 17.6629 77.408 17.6629H75.3478C75.2868 17.6629 75.241 17.6324 75.2257 17.5714C74.5085 15.0095 72.9366 13.3321 70.4949 12.5544C68.8314 12.0206 66.756 12.0816 65.1078 12.6916C61.4605 14.0183 60.0107 17.7239 60.1786 21.4294C60.2701 23.5948 60.7127 25.6077 62.1014 27.2547C63.3528 28.7491 65.0315 29.5878 67.1528 29.7555C71.2274 30.1063 74.5542 28.0171 75.3783 23.8998C75.3936 23.8541 75.4241 23.8236 75.4699 23.8236H77.5606C77.6064 23.8236 77.6369 23.8541 77.6217 23.8998Z" fill="black"/>
<path id="Vector_14" d="M81.9401 21.2772V29.3898C81.9401 29.4203 81.9706 29.4508 82.0011 29.4508H93.8893C93.9198 29.4508 93.9503 29.4813 93.9503 29.5118V31.4332C93.9503 31.4637 93.9198 31.4942 93.8893 31.4942H79.8189C79.7883 31.4942 79.7578 31.4637 79.7578 31.4332V10.5112C79.7578 10.4807 79.7883 10.4502 79.8189 10.4502H93.874C93.9046 10.4502 93.9351 10.4807 93.9351 10.5112V12.4783C93.9351 12.5088 93.9046 12.5393 93.874 12.5393H81.9859C81.9554 12.5393 81.9248 12.5698 81.9248 12.6003V19.0965C81.9248 19.127 81.9554 19.1575 81.9859 19.1575H91.9664C91.997 19.1575 92.0275 19.188 92.0275 19.2185V21.1857C92.0275 21.2162 91.997 21.2467 91.9664 21.2467L81.9859 21.1857C81.9706 21.2162 81.9401 21.2467 81.9401 21.2772Z" fill="black"/>
<path id="Vector_15" d="M99.1238 22.4053V31.4787C99.1238 31.5244 99.0933 31.5549 99.0475 31.5549H96.9415C96.8958 31.5549 96.8652 31.5244 96.8652 31.4787V10.5262C96.8652 10.4804 96.8958 10.4499 96.9415 10.4499C101.276 10.4347 104.251 10.4347 105.869 10.4499C107.12 10.4652 108.463 10.8769 109.562 11.4411C111.851 12.6306 112.752 14.857 112.492 17.3731C112.218 19.9655 110.707 21.6429 107.975 22.3748C107.929 22.3901 107.914 22.4206 107.945 22.4511L112.965 31.4634C112.996 31.5244 112.981 31.5549 112.904 31.5549H110.539C110.478 31.5549 110.447 31.5244 110.417 31.4787L105.365 22.3748C105.35 22.3443 105.32 22.3291 105.289 22.3291H99.1849C99.1391 22.3443 99.1238 22.3596 99.1238 22.4053ZM110.279 17.2816C110.753 14.674 108.738 12.6763 106.129 12.6458C104.816 12.6306 102.512 12.6306 99.1849 12.6458C99.1391 12.6458 99.1086 12.6763 99.1086 12.7221V20.0875C99.1086 20.1332 99.1391 20.1637 99.1849 20.1637C101.627 20.1637 104.068 20.1484 106.51 20.1179C108.479 20.1027 109.913 19.3402 110.279 17.2816Z" fill="black"/>
<path id="Vector_16" d="M117.04 21.2772V29.3898C117.04 29.4203 117.071 29.4508 117.101 29.4508H128.989C129.02 29.4508 129.05 29.4813 129.05 29.5118V31.4484C129.05 31.4789 129.02 31.5094 128.989 31.5094H114.919C114.888 31.5094 114.858 31.4789 114.858 31.4484V10.5112C114.858 10.4807 114.888 10.4502 114.919 10.4502H128.989C129.02 10.4502 129.05 10.4807 129.05 10.5112V12.4783C129.05 12.5088 129.02 12.5393 128.989 12.5393H117.101C117.071 12.5393 117.04 12.5698 117.04 12.6003V19.1118C117.04 19.1423 117.071 19.1728 117.101 19.1728H127.082C127.112 19.1728 127.143 19.2033 127.143 19.2338V21.2009C127.143 21.2314 127.112 21.2619 127.082 21.2619L117.101 21.2009C117.071 21.2162 117.04 21.2467 117.04 21.2772Z" fill="black"/>
<path id="Vector_17" d="M143.548 20.6668C145.257 20.9718 146.387 21.9325 146.921 23.5489C147.76 26.0651 147.302 29.2979 144.708 30.6246C143.609 31.1888 142.373 31.4786 140.984 31.4938C137.993 31.5091 135.017 31.5243 132.057 31.5243C132.011 31.5243 131.98 31.4938 131.98 31.4481V10.4803C131.98 10.4651 131.996 10.4346 132.026 10.4346C134.437 10.4346 136.864 10.4346 139.29 10.4346C140.298 10.4346 141.061 10.4956 141.61 10.6328C144.815 11.441 146.753 14.7806 145.761 18.0135C145.41 19.1419 144.677 20.0111 143.563 20.5753C143.472 20.6363 143.472 20.6516 143.548 20.6668ZM143.64 15.0551C143.09 13.2557 141.29 12.5695 139.565 12.5542C137.795 12.539 136.009 12.539 134.224 12.5542C134.178 12.5542 134.148 12.5847 134.148 12.6305V19.6299C134.148 19.6756 134.178 19.7061 134.224 19.7061C136.055 19.7214 137.886 19.7061 139.718 19.6909C140.862 19.6756 142.297 19.4469 143.075 18.5472C143.823 17.6627 143.975 16.1378 143.64 15.0551ZM145.12 26.2176C145.288 23.5947 143.289 21.8105 140.74 21.7953C138.573 21.78 136.406 21.78 134.224 21.7953C134.178 21.7953 134.148 21.8258 134.148 21.8715V29.3284C134.148 29.3742 134.178 29.4047 134.224 29.4047C136.376 29.4047 138.512 29.4047 140.664 29.4047C142.846 29.4199 144.967 28.6879 145.12 26.2176Z" fill="black"/>
<path id="Vector_18" d="M151.927 22.4054V31.4787C151.927 31.5245 151.896 31.555 151.85 31.555H149.744C149.698 31.555 149.668 31.5245 149.668 31.4787V10.5263C149.668 10.4805 149.683 10.4653 149.729 10.4653C154.429 10.4348 157.466 10.4348 158.809 10.4653C160.228 10.4958 161.541 10.9075 162.731 11.6852C164.654 12.9356 165.493 14.7503 165.295 17.0072C165.051 19.9046 163.54 21.6887 160.763 22.3597C160.702 22.3749 160.686 22.4054 160.717 22.4664L165.738 31.4787C165.768 31.5397 165.753 31.5702 165.677 31.5702H163.281C163.235 31.5702 163.204 31.555 163.189 31.5092L158.168 22.4054C158.138 22.3597 158.107 22.3444 158.046 22.3444H151.972C151.942 22.3444 151.927 22.3597 151.927 22.4054ZM163.082 17.3122C163.555 14.7198 161.571 12.6916 158.977 12.6612C157.802 12.6459 155.467 12.6459 151.988 12.6612C151.942 12.6612 151.911 12.6916 151.911 12.7374V20.0875C151.911 20.1485 151.942 20.1638 151.988 20.1638C154.445 20.1638 156.886 20.1485 159.343 20.118C159.969 20.1028 160.534 20.0113 161.037 19.8436C162.243 19.4318 162.853 18.5474 163.082 17.3122Z" fill="black"/>
<path id="Vector_19" d="M169.629 23.8695C169.629 28.7036 173.612 30.5487 177.839 29.5423C179.35 29.1915 180.51 28.3223 181.242 26.9347C181.685 26.0807 181.914 25.1962 181.914 24.2813C181.929 19.6912 181.929 15.1165 181.914 10.5264C181.914 10.4807 181.944 10.4502 181.99 10.4502H184.004C184.05 10.4502 184.081 10.4807 184.081 10.5264C184.081 14.903 184.081 19.2643 184.081 23.6408C184.081 27.3159 182.295 30.7012 178.556 31.6467C177.152 31.9974 175.642 32.0737 174.009 31.8602C172.04 31.6009 170.483 30.7622 169.308 29.3593C168.103 27.8954 167.447 25.6995 167.447 23.7933C167.431 19.371 167.431 14.9487 167.447 10.5264C167.447 10.4807 167.477 10.4502 167.523 10.4502H169.537C169.583 10.4502 169.614 10.4807 169.614 10.5264C169.629 14.964 169.629 19.4168 169.629 23.8695Z" fill="black"/>
<path id="Vector_20" d="M205.385 13.1794L198.228 31.4481C198.212 31.4938 198.167 31.5243 198.121 31.5243H196.289C196.228 31.5243 196.198 31.4938 196.183 31.4481L189.056 13.2862C188.995 13.1337 188.964 13.1337 188.964 13.3014V31.4481C188.964 31.4938 188.934 31.5243 188.888 31.5243H186.874C186.797 31.5243 186.751 31.4938 186.751 31.4023V10.5108C186.751 10.4651 186.782 10.4346 186.828 10.4346H190.155C190.216 10.4346 190.246 10.4651 190.261 10.5108L197.159 28.322C197.175 28.3525 197.19 28.3525 197.22 28.3525C197.236 28.3525 197.236 28.3372 197.251 28.322L204.118 10.4956C204.134 10.4651 204.164 10.4346 204.21 10.4346H207.552C207.598 10.4346 207.628 10.4651 207.628 10.5108V31.4328C207.628 31.4786 207.598 31.5091 207.552 31.5091H205.522C205.476 31.5091 205.446 31.4786 205.446 31.4328V13.1947C205.446 13.0727 205.431 13.0727 205.385 13.1794Z" fill="black"/>
<path id="Vector_21" d="M223.652 10.0057H229.39C229.421 10.0057 229.451 10.0362 229.451 10.0667C229.451 10.082 229.451 10.0972 229.436 10.1125L222.202 20.5125C222.187 20.5277 222.187 20.5735 222.202 20.5887L229.436 30.9887C229.451 31.0192 229.451 31.065 229.421 31.0802C229.405 31.0802 229.39 31.0955 229.39 31.0955H223.667C223.652 31.0955 223.622 31.0802 223.622 31.065L219.303 24.8585C219.287 24.828 219.242 24.828 219.211 24.8433L219.196 24.8585L214.877 31.065C214.862 31.0802 214.847 31.0955 214.816 31.0955H209.093C209.063 31.0955 209.032 31.065 209.032 31.0345C209.032 31.0192 209.032 31.004 209.047 31.004L216.281 20.604C216.296 20.5887 216.296 20.543 216.281 20.5277L209.047 10.1277C209.032 10.0972 209.032 10.0515 209.063 10.0362C209.078 10.021 209.093 10.021 209.109 10.021H214.847C214.862 10.021 214.892 10.0362 214.892 10.0515L219.211 16.2579C219.226 16.2884 219.272 16.2884 219.303 16.2732L219.318 16.2579L223.622 10.0515C223.622 10.0057 223.637 9.99047 223.652 10.0057Z" fill="black"/>
</g>
</g>
</svg>
