<svg width="42" height="42" viewBox="0 0 42 42" fill="none" xmlns="http://www.w3.org/2000/svg">
<path d="M11 11V29C11 29.5304 11.2107 30.0391 11.5858 30.4142C11.9609 30.7893 12.4696 31 13 31H31" stroke="#6C757E" stroke-width="2" stroke-linecap="round" stroke-linejoin="round"/>
<path d="M18 22.5C18 21.6716 17.3284 21 16.5 21C15.6716 21 15 21.6716 15 22.5V25.5C15 26.3284 15.6716 27 16.5 27C17.3284 27 18 26.3284 18 25.5V22.5Z" stroke="#6C757E" stroke-width="2" stroke-linecap="round" stroke-linejoin="round"/>
<path d="M24 17.5C24 16.6716 23.3284 16 22.5 16C21.6716 16 21 16.6716 21 17.5V20.5C21 21.3284 21.6716 22 22.5 22C23.3284 22 24 21.3284 24 20.5V17.5Z" stroke="#6C757E" stroke-width="2" stroke-linecap="round" stroke-linejoin="round"/>
<path d="M30 13.5C30 12.6716 29.3284 12 28.5 12C27.6716 12 27 12.6716 27 13.5V16.5C27 17.3284 27.6716 18 28.5 18C29.3284 18 30 17.3284 30 16.5V13.5Z" stroke="#6C757E" stroke-width="2" stroke-linecap="round" stroke-linejoin="round"/>
</svg>
