<?xml version="1.0" encoding="UTF-8"?>
<svg version="1.1" xmlns="http://www.w3.org/2000/svg" width="645" height="552">
<path d="M0 0 C212.85 0 425.7 0 645 0 C645 182.16 645 364.32 645 552 C432.15 552 219.3 552 0 552 C0 369.84 0 187.68 0 0 Z " fill="#FEFEFE" transform="translate(0,0)"/>
<path d="M0 0 C8.34483986 4.22393129 13.14347402 10.28880325 16.21484375 19.12109375 C16.46784341 21.68098712 16.46784341 21.68098712 16.47211266 24.45887375 C16.47856155 25.52223096 16.48501044 26.58558816 16.49165475 27.68116832 C16.48855755 28.84331331 16.48546035 30.00545831 16.48226929 31.20281982 C16.4868004 32.44214177 16.49133151 33.68146372 16.49599993 34.95834088 C16.50647347 38.39581638 16.50796922 41.8330827 16.50561118 45.27055931 C16.50520307 48.9789416 16.5162417 52.68729266 16.52572632 56.3956604 C16.54233903 63.66048853 16.547836 70.9252842 16.54895107 78.19012973 C16.54990151 84.0962123 16.55401158 90.00228416 16.56035233 95.90836334 C16.5779662 112.6558457 16.58719108 129.40330243 16.58569138 146.15079412 C16.58561147 147.05364925 16.58553155 147.95650438 16.58544922 148.88671875 C16.58536746 149.79067734 16.5852857 150.69463593 16.58520146 151.6259872 C16.58438872 166.2727824 16.6035228 180.91947472 16.63172595 195.56624016 C16.66046101 210.60804431 16.67426587 225.64979831 16.6725384 240.6916306 C16.67187467 249.13539425 16.67735947 257.57905008 16.6988945 266.022789 C16.71711458 273.21282849 16.72144696 280.40271128 16.70787565 287.59276387 C16.70134985 291.25975581 16.70121436 294.92644722 16.71858215 298.59341049 C16.73723584 302.57289014 16.72474791 306.55193204 16.70932007 310.53143311 C16.71960719 311.68465522 16.72989432 312.83787733 16.74049318 314.02604556 C16.65530849 323.97107456 13.90954582 331.08393764 7.15234375 338.39453125 C-0.45380435 345.17259065 -9.02769276 345.5473907 -18.78515625 345.12109375 C-26.02304827 344.03540995 -31.87563094 339.77737374 -36.3984375 334.09375 C-41.51769342 326.226103 -42.07857709 319.17502331 -42.05931091 309.96380615 C-42.06454759 308.7284189 -42.06978427 307.49303164 -42.07517964 306.22020841 C-42.08757694 302.79832802 -42.09102343 299.37665326 -42.09058273 295.9547646 C-42.09223326 292.26137372 -42.10530414 288.56802006 -42.11677551 284.87464905 C-42.13960596 276.80227682 -42.14754394 268.72993092 -42.15260196 260.65753078 C-42.15586109 255.61503903 -42.16238486 250.57255489 -42.16960335 245.53006744 C-42.18916631 231.56256227 -42.20557244 217.59506416 -42.20847988 203.6275444 C-42.20866745 202.73408454 -42.20885502 201.84062468 -42.20904827 200.92009027 C-42.20941452 199.10891708 -42.20977822 197.29774388 -42.21013939 195.48657069 C-42.2103222 194.58753068 -42.21050501 193.68849067 -42.21069336 192.76220703 C-42.21087391 191.86206687 -42.21105446 190.96192671 -42.21124048 190.03450957 C-42.21478194 175.44986343 -42.24180391 160.86536496 -42.27919125 146.28077003 C-42.31728919 131.29881948 -42.33663746 116.31694217 -42.33693939 101.3349421 C-42.33752361 92.92634333 -42.34599257 84.51792074 -42.37493706 76.10936737 C-42.3994708 68.94936886 -42.40672043 61.7896108 -42.39168953 54.6295816 C-42.38452881 50.97859464 -42.3853411 47.32808232 -42.40810013 43.67714882 C-42.4325722 39.71332846 -42.41803075 35.75018207 -42.39988708 31.78631592 C-42.41308705 30.64057972 -42.42628702 29.49484352 -42.43988699 28.31438804 C-42.34291999 19.02661841 -39.74034348 12.14726321 -33.47265625 5.24609375 C-23.94027551 -3.59795315 -11.76797215 -5.37273926 0 0 Z " fill="#E47925" transform="translate(389.78515625,2.87890625)"/>
<path d="M0 0 C8.35127828 4.33294062 13.24992091 10.08960648 16.28125 19.18359375 C16.37567818 20.73192434 16.41391836 22.28399712 16.41826439 23.8351984 C16.42333893 24.79642174 16.42841347 25.75764507 16.43364179 26.74799639 C16.43413955 27.8063384 16.43463731 28.86468041 16.43515015 29.95509338 C16.44172353 31.63894549 16.44172353 31.63894549 16.4484297 33.3568148 C16.46184081 37.1383502 16.4680018 40.91986228 16.47412109 44.70141602 C16.48149293 47.40481346 16.49028399 50.10820601 16.49890137 52.81159973 C16.52342481 60.93949283 16.53805344 69.06739203 16.55096143 77.19531074 C16.55467373 79.49148316 16.55864694 81.78765497 16.5627141 84.08382678 C16.5879535 98.34576519 16.61000452 112.60770456 16.62244225 126.86966038 C16.6253719 130.17327948 16.62833357 133.47689855 16.63134766 136.78051758 C16.63209371 137.60160765 16.63283976 138.42269771 16.63360842 139.2686693 C16.64625618 152.56343334 16.67947124 165.85806346 16.72114949 179.15276492 C16.76359948 192.8057189 16.78714091 206.45860439 16.79236281 220.11162418 C16.79577371 227.77581228 16.8074906 235.43979119 16.84046555 243.10391426 C16.86850958 249.63266899 16.87944648 256.16117166 16.86827008 262.68998194 C16.86309401 266.01907448 16.86864293 269.34721329 16.89073563 272.67630005 C16.91342383 276.29237451 16.90513166 279.90712696 16.88925171 283.52320862 C16.91007484 285.08729905 16.91007484 285.08729905 16.93131864 286.68298727 C16.84157788 294.99736057 14.4542816 301.42192555 9.0703125 307.8046875 C-0.03318094 315.44570636 -6.87868036 316.94023725 -18.71875 316.18359375 C-26.21138594 315.07812287 -32.10511956 310.68662244 -36.58984375 304.67578125 C-40.19056296 298.89045303 -41.83803109 294.19083355 -41.85297108 287.34556961 C-41.85742892 286.39368106 -41.86188676 285.44179251 -41.86647969 284.46105886 C-41.86629533 283.4234242 -41.86611097 282.38578955 -41.86592102 281.31671143 C-41.86959771 280.20806315 -41.8732744 279.09941488 -41.8770625 277.9571712 C-41.88809332 274.23478915 -41.89194215 270.51243501 -41.89575195 266.79003906 C-41.90201696 264.12413365 -41.9086511 261.45823121 -41.91566467 258.79232788 C-41.93540087 250.78837221 -41.94549061 242.78441532 -41.95439246 234.7804414 C-41.95877907 231.00900956 -41.96414483 227.23757912 -41.96938133 223.46614838 C-41.98638898 210.92612118 -42.00088338 198.38609485 -42.00813007 185.84605789 C-42.01003988 182.5939865 -42.01196023 179.34191511 -42.01391602 176.08984375 C-42.01439976 175.28158483 -42.0148835 174.47332592 -42.0153819 173.64057431 C-42.02368322 160.54574594 -42.04902391 147.45100889 -42.08149669 134.35622039 C-42.11457978 120.90547921 -42.13257987 107.45478442 -42.13577431 94.00400233 C-42.137938 86.45448689 -42.14666615 78.90510471 -42.17223549 71.35562897 C-42.19395939 64.92682726 -42.20198456 58.4981912 -42.19226871 52.06935695 C-42.18772912 48.79117765 -42.19177973 45.5134108 -42.20903015 42.23526382 C-42.22671089 38.6760248 -42.21966056 35.11765019 -42.20649719 31.55841064 C-42.21746644 30.52969888 -42.22843568 29.50098711 -42.23973733 28.44110227 C-42.15711352 19.17510782 -39.25341933 11.83113647 -32.890625 5.046875 C-22.89966508 -3.52450608 -11.92205006 -5.45169694 0 0 Z " fill="#E47925" transform="translate(273.71875,2.81640625)"/>
<path d="M0 0 C5.82138342 4.60178473 9.8337018 10.30976409 10.99609375 17.6796875 C11.09178996 20.2378488 11.13966783 22.76856906 11.13653564 25.32637024 C11.13950677 26.08862213 11.14247789 26.85087402 11.14553905 27.63622445 C11.15419945 30.18628647 11.15573203 32.7363014 11.15722656 35.28637695 C11.16185658 37.11647644 11.16688148 38.94657496 11.17227173 40.77667236 C11.18537906 45.74576286 11.1918373 50.71483986 11.19628239 55.68394494 C11.19921547 58.78949874 11.2033207 61.89504887 11.20778656 65.00060081 C11.22145637 74.72037053 11.23112586 84.44013184 11.23498845 94.1599105 C11.23946971 105.37428397 11.25702296 116.58853558 11.28598905 127.802872 C11.30761181 136.47564007 11.31769303 145.14837387 11.31902957 153.8211686 C11.32007706 158.99917201 11.32597317 164.17706079 11.34384918 169.35503578 C11.36034036 174.22649243 11.36248025 179.09774839 11.35371017 183.96922302 C11.3529404 185.75419846 11.35727471 187.53918474 11.36716843 189.32413292 C11.37991181 191.76701072 11.37399852 194.20918026 11.36358643 196.65205383 C11.37164283 197.35294783 11.37969923 198.05384184 11.38799977 198.77597505 C11.30357081 207.28620402 8.07715315 213.55201117 2.27734375 219.625 C-4.90458663 226.09365647 -11.79458085 227.50076534 -21.37109375 227.171875 C-26.66785936 226.45424869 -30.59800439 224.63121399 -35.00390625 221.6796875 C-35.93203125 221.0815625 -36.86015625 220.4834375 -37.81640625 219.8671875 C-43.80685378 213.87673997 -47.19614079 206.63718857 -47.28071725 198.10979438 C-47.27762005 197.41426719 -47.27452285 196.71874 -47.27133179 196.00213623 C-47.2758629 195.24860815 -47.28039401 194.49508008 -47.28506243 193.71871781 C-47.29768144 191.20401704 -47.29608769 188.68953354 -47.29443359 186.17480469 C-47.30042047 184.36750511 -47.30722638 182.5602081 -47.31478882 180.75291443 C-47.33244131 175.84984839 -47.33714393 170.94685218 -47.33842039 166.04375744 C-47.33984314 162.97787693 -47.34411512 159.91201411 -47.34941483 156.846138 C-47.36791365 146.14269384 -47.37608575 135.43929946 -47.37451172 124.73583984 C-47.37331084 114.77131396 -47.39440316 104.80700487 -47.42599905 94.84253383 C-47.45218587 86.27756127 -47.46287798 77.71265941 -47.4616009 69.14764714 C-47.46109191 64.03663462 -47.46674 58.92581474 -47.487957 53.81484222 C-47.50737952 49.0048645 -47.50743642 44.19526236 -47.49292374 39.38527107 C-47.49083942 37.62532309 -47.49551397 35.86535136 -47.50764465 34.10544395 C-47.5867455 21.82909873 -46.7860732 11.78747947 -38.00390625 2.4375 C-26.88180438 -7.33778484 -12.34110578 -8.13117691 0 0 Z " fill="#E47926" transform="translate(47.00390625,150.3203125)"/>
<path d="M0 0 C5.59330834 4.30900793 8.85752603 10.07648434 11.0703125 16.71484375 C11.17206643 19.1756902 11.21812425 21.60849562 11.21748352 24.06959534 C11.22116021 24.82464369 11.2248369 25.57969205 11.228625 26.35762066 C11.2396647 28.89540303 11.24350621 31.43314446 11.24731445 33.97094727 C11.25357903 35.78765493 11.26022582 37.60436131 11.26722717 39.42106628 C11.28827554 45.3952851 11.29863217 51.36950419 11.30859375 57.34375 C11.3126414 59.40114798 11.31675833 61.45854582 11.32094383 63.51594353 C11.33999938 73.18446403 11.35422809 82.85297689 11.3625558 92.52151257 C11.37232167 103.67536213 11.39862273 114.8290129 11.43905669 125.98279244 C11.46924581 134.60714337 11.48402745 143.23143742 11.48733681 151.85584015 C11.48968465 157.00491556 11.49861015 162.15377868 11.52379799 167.30279732 C11.54713172 172.15129427 11.55129062 176.99943998 11.54103661 181.84797859 C11.54054238 183.62244334 11.54682933 185.39692569 11.56059265 187.17133713 C11.64993363 199.37777914 10.96904185 209.70662796 2.09765625 218.953125 C-4.86638657 225.00473061 -11.46425727 226.44841827 -20.59765625 226.0625 C-29.2396044 225.1608196 -35.15910477 222.28683039 -40.9296875 215.71484375 C-47.72926918 205.96361619 -47.7919556 196.76194012 -47.70605469 185.37695312 C-47.71419994 183.55229949 -47.72489143 181.72765573 -47.73791504 179.9030304 C-47.76511107 174.97928931 -47.75472859 170.05630823 -47.73564053 165.13255501 C-47.72036846 159.96119377 -47.7345603 154.78989428 -47.74395752 149.61853027 C-47.75484987 140.93681244 -47.74054974 132.25540161 -47.71191406 123.57373047 C-47.6792649 113.56010822 -47.68984357 103.54721914 -47.7228725 93.53361464 C-47.75016769 84.9106877 -47.7539098 76.28798049 -47.73824048 67.66502428 C-47.72892313 62.52604703 -47.72753707 57.38741354 -47.74745941 52.24845886 C-47.76489047 47.4151881 -47.75259155 42.58285551 -47.71809387 37.74968529 C-47.7102125 35.98414347 -47.71234891 34.21852163 -47.72566986 32.45301247 C-47.80242515 21.2397483 -47.13507843 11.40833871 -39.06113815 2.69931793 C-37.42435265 1.20454894 -35.77100937 -0.05471999 -33.9296875 -1.28515625 C-33.0634375 -1.88328125 -32.1971875 -2.48140625 -31.3046875 -3.09765625 C-21.19637598 -8.15181201 -9.03420422 -6.01670686 0 0 Z " fill="#E47925" transform="translate(163.9296875,35.28515625)"/>
<path d="M0 0 C7.50326126 4.74553277 13.25390255 10.80467639 16.09375 19.32421875 C16.19228897 21.0672931 16.23301937 22.81388337 16.24092102 24.5597229 C16.24807632 25.64468048 16.25523163 26.72963806 16.26260376 27.84747314 C16.26529266 29.03814392 16.26798157 30.2288147 16.27075195 31.45556641 C16.28060875 33.33648483 16.28060875 33.33648483 16.29066467 35.25540161 C16.31041829 39.41636391 16.32206825 43.57728762 16.33203125 47.73828125 C16.3360799 49.17287592 16.34019685 50.60747039 16.34438133 52.04206467 C16.36343274 58.7851468 16.37766172 65.52821802 16.3859933 72.27132189 C16.39575443 80.04232023 16.42204443 87.81303288 16.46249419 95.58393061 C16.49271733 101.5976725 16.50746818 107.61133281 16.51077431 113.62514913 C16.51311851 117.21318645 16.52199535 120.80091856 16.54723549 124.38887405 C16.57498391 128.39826478 16.57066625 132.40702307 16.5637207 136.41650391 C16.57653076 137.5950293 16.58934082 138.77355469 16.60253906 139.98779297 C16.54009277 149.89705464 13.97780738 157.27923209 7.12109375 164.52734375 C0.21632701 170.64717554 -6.46171899 172.0569102 -15.57421875 171.671875 C-24.18978574 170.77294714 -30.17482895 167.91181077 -35.90625 161.32421875 C-41.22845786 153.09398038 -42.77822644 146.03597848 -42.63500977 136.35473633 C-42.6407048 135.11898361 -42.64639984 133.8832309 -42.65226746 132.61003113 C-42.66140304 129.25815684 -42.64406071 125.90855413 -42.61340833 122.55695176 C-42.58680188 119.02982157 -42.59234417 115.50271977 -42.5934906 111.97550964 C-42.5906929 106.05874511 -42.56480423 100.14244597 -42.52368164 94.22583008 C-42.47645218 87.40578507 -42.46069032 80.58624787 -42.4628883 73.76605111 C-42.46492118 66.47025666 -42.44407083 59.17465524 -42.41654849 51.87891936 C-42.41018484 49.7906334 -42.40802916 47.702379 -42.40683174 45.61408424 C-42.40323303 41.71104932 -42.37399975 37.80842779 -42.34204102 33.90551758 C-42.34340057 32.75983307 -42.34476013 31.61414856 -42.34616089 30.43374634 C-42.23649511 21.24525617 -41.03189145 13.80484403 -34.53125 6.94921875 C-33.78101563 6.13710937 -33.03078125 5.325 -32.2578125 4.48828125 C-23.44240125 -3.62424007 -10.72633178 -5.53805173 0 0 Z " fill="#E47925" transform="translate(505.90625,89.67578125)"/>
<path d="M0 0 C6.76692248 5.32828541 12.01077667 11.65738791 13.37254333 20.38863945 C13.51555489 22.94774718 13.540974 25.47974092 13.51757812 28.04272461 C13.5245874 29.00333298 13.53159668 29.96394135 13.53881836 30.95365906 C13.55630676 34.1035218 13.54480699 37.25247315 13.53125 40.40234375 C13.53394776 42.60755077 13.53783254 44.81275663 13.54284668 47.01795959 C13.54872955 51.63017143 13.54021845 56.24207247 13.52148438 60.85424805 C13.49870936 66.74636842 13.51181696 72.63775929 13.53577423 78.52985287 C13.55027628 83.08111497 13.54560576 87.63220614 13.53526306 92.18347359 C13.53260726 94.35504812 13.53582487 96.5266385 13.54518127 98.6981945 C13.55541797 101.74183721 13.53974563 104.78432357 13.51757812 107.82788086 C13.52567505 108.71286255 13.53377197 109.59784424 13.54211426 110.50964355 C13.41811575 119.76784855 10.26424717 127.55915442 3.9375 134.30859375 C-3.67925843 140.95790101 -12.2615336 141.60085998 -22 141 C-29.98445606 139.67935401 -35.71237789 135.29919815 -40.57421875 128.94140625 C-44.98584496 122.25444274 -45.15585074 116.2447258 -45.19287109 108.41137695 C-45.20104858 107.45135269 -45.20922607 106.49132843 -45.21765137 105.50221252 C-45.2424257 102.33090833 -45.25900138 99.15964867 -45.2734375 95.98828125 C-45.28142302 94.3589972 -45.28142302 94.3589972 -45.28956985 92.69679832 C-45.31626734 86.94704266 -45.3356528 81.19730845 -45.35009766 75.44750977 C-45.36343199 70.69959224 -45.39128094 65.95210496 -45.43212891 61.2043457 C-45.48154175 55.4602618 -45.50622925 49.71656785 -45.51332474 43.9722805 C-45.52002092 41.78949919 -45.53520013 39.60672602 -45.55921555 37.42406654 C-45.59099663 34.36078645 -45.59088412 31.29899881 -45.58349609 28.2355957 C-45.59990143 27.34432983 -45.61630676 26.45306396 -45.63320923 25.53479004 C-45.5555082 17.61441165 -42.74829059 11.35902183 -37.75 5.25 C-26.3930571 -4.04204419 -13.59901456 -8.27959643 0 0 Z " fill="#E47925" transform="translate(625,207)"/>
<path d="M0 0 C6.41504413 4.11531133 10.60554145 10.81662434 13 18 C13.11446086 19.36277686 13.17863457 20.73016828 13.20874023 22.09741211 C13.23767616 23.33031227 13.23767616 23.33031227 13.26719666 24.58811951 C13.32543846 28.37160448 13.37429685 32.15490493 13.4050293 35.9387207 C13.42650389 37.92197189 13.46047974 39.90513106 13.50756836 41.88793945 C14.05148973 65.02879369 14.05148973 65.02879369 5.25732422 74.9699707 C3.60438651 76.58100657 1.95677015 77.77904011 0 79 C-0.64453125 79.40992188 -1.2890625 79.81984375 -1.953125 80.2421875 C-8.61401612 83.81933273 -15.61378165 84.05748044 -23 83 C-31.63016084 80.1567689 -37.44444971 75.87143503 -42.09936523 68.18457031 C-46.14496828 59.84395787 -45.63818536 50.91113197 -45.57641602 41.85058594 C-45.56252917 39.0059751 -45.59672006 36.16464789 -45.63476562 33.3203125 C-45.70664426 15.91327336 -45.70664426 15.91327336 -40 8 C-39.443125 7.0925 -38.88625 6.185 -38.3125 5.25 C-27.26855481 -5.49546019 -13.58313895 -6.69218065 0 0 Z " fill="#E47926" transform="translate(509,468)"/>
<path d="M0 0 C5.1942116 5.43031213 9.82005386 12.20645609 9.92700195 19.91235352 C9.94625481 21.12490562 9.94625481 21.12490562 9.96589661 22.36195374 C9.97328354 23.23379807 9.98067047 24.1056424 9.98828125 25.00390625 C9.996353 25.90817856 10.00442474 26.81245087 10.01274109 27.74412537 C10.02657545 29.6615101 10.03730051 31.57891939 10.04516602 33.49633789 C10.05664858 35.44465417 10.07704088 37.39293993 10.10668945 39.34106445 C10.47786454 63.73286649 10.47786454 63.73286649 1.59765625 73.33984375 C-6.40176017 79.98629334 -15.16687007 81.5413415 -25.25 80.875 C-32.35142549 79.66930626 -37.51703641 76.24727458 -42.25 70.875 C-45.96586901 65.40723245 -48.33464965 60.36994742 -48.42700195 53.70825195 C-48.43983719 52.89673172 -48.45267242 52.08521149 -48.46589661 51.24909973 C-48.47328354 50.37927963 -48.48067047 49.50945953 -48.48828125 48.61328125 C-48.496353 47.70805222 -48.50442474 46.80282318 -48.51274109 45.87016296 C-48.5265577 43.95455832 -48.53729067 42.0389293 -48.54516602 40.12329102 C-48.55666959 38.17497486 -48.57709561 36.22668981 -48.60668945 34.27856445 C-48.64960062 31.45242048 -48.66556861 28.62721157 -48.67578125 25.80078125 C-48.69328934 24.94108231 -48.71079742 24.08138336 -48.72883606 23.19563293 C-48.70100553 15.32582008 -46.20190617 8.23432994 -40.87109375 2.2890625 C-28.45008917 -8.54564511 -13.62677993 -8.90981765 0 0 Z " fill="#E47926" transform="translate(628.25,412.125)"/>
<path d="M0 0 C5.1179853 5.47505404 9.73981598 12.19438559 9.88037109 19.88061523 C9.89643402 20.68252792 9.91249695 21.48444061 9.92904663 22.31065369 C9.97393474 26.00258266 10.01462848 29.69433529 10.03759766 33.38647461 C10.05406313 35.32116809 10.08122681 37.25580315 10.11962891 39.19018555 C10.59270696 63.17524301 10.59270696 63.17524301 2.50830078 72.34741211 C-3.98506132 78.70924238 -9.7620309 80.9785863 -18.75 81.25 C-27.68966111 80.99192664 -33.93787057 79.09770551 -40.51953125 72.91015625 C-45.4148751 67.3535677 -48.37036553 61.14688975 -48.50537109 53.72412109 C-48.52143402 52.91582855 -48.53749695 52.10753601 -48.55404663 51.27474976 C-48.5989609 47.57591989 -48.63958362 43.87726229 -48.66259766 40.17822266 C-48.6791089 38.23669406 -48.70633471 36.29522503 -48.74462891 34.35400391 C-48.98374592 22.15071884 -49.09759243 12.94566852 -41.0625 3.125 C-27.94947417 -7.60383932 -14.80917006 -9.50022231 0 0 Z " fill="#E47926" transform="translate(512.3125,325.125)"/>
<path d="M0 0 C6.12411768 4.52943496 10.23916113 11.6344576 11.39074707 19.13696289 C11.87670828 24.56773204 11.88984411 29.98945614 11.81738281 35.43798828 C11.78520385 38.31605533 11.81719493 41.18850956 11.85546875 44.06640625 C11.88103338 55.55063581 11.17438732 64.74170722 3.32470703 73.79248047 C-2.52479434 79.59745662 -10.27041781 82.02060587 -18.33984375 82.4453125 C-26.84083534 82.15425139 -34.57371804 78.78626218 -40.46484375 72.5703125 C-47.40448566 62.68962411 -47.56815151 53.15824303 -47.43139648 41.47045898 C-47.40237021 38.76028349 -47.41082984 36.05206231 -47.42382812 33.34179688 C-47.41759075 31.59374064 -47.40919982 29.84569048 -47.3984375 28.09765625 C-47.40284096 26.90196266 -47.40284096 26.90196266 -47.40733337 25.68211365 C-47.26952672 17.3395866 -45.04623948 8.83275817 -38.96484375 2.8203125 C-26.37355397 -6.53428615 -13.85410354 -8.31797072 0 0 Z " fill="#E47926" transform="translate(394.96484375,411.1796875)"/>
<path d="M0 0 C6.19342765 5.134291 9.85818334 10.44402884 11.5859375 18.30078125 C11.68681931 19.65133185 11.74360031 21.00568823 11.76293945 22.35986328 C11.78219231 23.54227097 11.78219231 23.54227097 11.80183411 24.74856567 C11.80922104 25.59337494 11.81660797 26.4381842 11.82421875 27.30859375 C11.8322905 28.18925507 11.84036224 29.06991638 11.84867859 29.9772644 C11.86249523 31.8415939 11.87322818 33.70594844 11.88110352 35.5703125 C11.89259476 37.46329236 11.91300107 39.35624054 11.94262695 41.24902344 C12.2856635 63.18036526 12.2856635 63.18036526 5.3359375 72.61328125 C-1.17849909 78.97966247 -8.08713976 82.31759907 -17.2265625 82.67578125 C-27.05192988 82.46931494 -33.70398467 78.26952421 -40.4140625 71.30078125 C-45.81828607 64.47439358 -46.7333483 57.49125964 -46.8203125 49.0703125 C-46.83171265 48.19863937 -46.84311279 47.32696625 -46.8548584 46.42887878 C-46.87366745 44.5908995 -46.88679002 42.75285415 -46.89453125 40.91479492 C-46.91389067 38.13792802 -46.97598452 35.36406093 -47.0390625 32.58789062 C-47.17337119 21.31070964 -46.64643434 11.98727473 -38.54443359 3.29492188 C-36.90954443 1.79159719 -35.25887103 0.53354742 -33.4140625 -0.69921875 C-32.5478125 -1.29734375 -31.6815625 -1.89546875 -30.7890625 -2.51171875 C-21.4999614 -7.1562693 -8.38262439 -5.90039096 0 0 Z " fill="#E47926" transform="translate(278.4140625,381.69921875)"/>
<path d="M0 0 C7.32773612 4.23494382 12.29173115 9.73402675 14.57019043 17.93501282 C15.3566142 21.71332561 15.3049922 25.48973588 15.30078125 29.3359375 C15.30506638 30.21472565 15.3093515 31.09351379 15.31376648 31.99893188 C15.31948374 33.84953962 15.32002935 35.70016981 15.31567383 37.55078125 C15.31251711 40.35977101 15.33599428 43.16770285 15.36132812 45.9765625 C15.36360194 47.78385285 15.36430423 49.59114601 15.36328125 51.3984375 C15.372491 52.2268515 15.38170074 53.0552655 15.39118958 53.90878296 C15.31751073 63.34312995 12.68202209 70.20156785 6.19140625 77.05078125 C-0.72528189 83.20305822 -8.44900032 84.49987078 -17.4765625 84.3984375 C-25.45727432 83.49596233 -31.96450691 79.79175475 -37.0625 73.625 C-42.12293978 66.74898259 -43.46306516 59.87183342 -43.43359375 51.56640625 C-43.4388356 50.68903305 -43.44407745 49.81165985 -43.44947815 48.90769958 C-43.45586492 47.06307019 -43.45460502 45.21839989 -43.44604492 43.3737793 C-43.43753285 40.57330849 -43.4663457 37.77487946 -43.49804688 34.97460938 C-43.49965931 33.1718756 -43.49908054 31.36913827 -43.49609375 29.56640625 C-43.50732773 28.7411293 -43.51856171 27.91585236 -43.53013611 27.06556702 C-43.42558343 18.21237388 -39.95969788 11.23757265 -34.00390625 4.79296875 C-24.10228706 -4.06637474 -12.01221215 -5.22953917 0 0 Z " fill="#E47926" transform="translate(159,322)"/>
</svg>
