<svg width="46" height="47" viewBox="0 0 46 47" fill="none" xmlns="http://www.w3.org/2000/svg">
<g clip-path="url(#clip0_5844_2449)">
<circle cx="10.2165" cy="29.0124" r="3.42584" stroke="black" stroke-width="1.8"/>
<path d="M3.61486 29.3526H6.61042M3.59521 10.92V10.92C5.15725 10.8998 6.67403 11.4444 7.86643 12.4536L13.5447 17.2597C14.0639 17.6991 14.722 17.9402 15.4021 17.9402H16.8246H17.863C18.6569 17.9402 19.3005 18.5838 19.3005 19.3777V20.8862C19.3005 21.4102 19.5857 21.8927 20.0448 22.1455L20.1501 22.2034C20.6093 22.4562 20.8945 22.9389 20.8943 23.463L20.8939 25.4961C20.8937 26.2139 20.6251 26.9057 20.1407 27.4355L19.2427 28.4176C18.6981 29.0134 17.9281 29.3527 17.1209 29.3527H13.8941" stroke="black" stroke-width="1.8" stroke-linecap="round"/>
<path d="M43.364 15.4183C43.7223 15.0739 43.7335 14.5041 43.389 14.1458C43.0445 13.7875 42.4748 13.7762 42.1165 14.1207L43.364 15.4183ZM39.1356 17.269L38.5561 17.9577L39.9334 19.1166L40.5129 18.4279L39.1356 17.269ZM42.1165 14.1207C41.1153 15.0833 39.5438 16.7839 39.1356 17.269L40.5129 18.4279C40.8779 17.9941 42.4057 16.3396 43.364 15.4183L42.1165 14.1207Z" fill="black"/>
<path d="M42.7951 18.0444C38.7765 17.9354 29.1503 18.6407 25.053 21.1038C23.8892 21.8034 23.5185 23.1989 23.5126 24.5568L23.4961 28.3249" stroke="black" stroke-width="1.8" stroke-linecap="round"/>
<path d="M27.311 23.5128C27.8081 23.5128 28.211 23.1098 28.211 22.6128C28.211 22.1157 27.8081 21.7128 27.311 21.7128V23.5128ZM24.2227 23.5128H27.311V21.7128H24.2227V23.5128Z" fill="black"/>
<path d="M16.314 21.8478C15.8169 21.8478 15.414 21.4448 15.414 20.9478C15.414 20.4507 15.8169 20.0478 16.314 20.0478V21.8478ZM19.4023 21.8478H16.314V20.0478H19.4023V21.8478Z" fill="black"/>
<path d="M25.1143 27.3243C25.6113 27.3243 26.0143 26.9214 26.0143 26.4243C26.0143 25.9273 25.6113 25.5243 25.1143 25.5243V27.3243ZM23.4609 27.3243H25.1143V25.5243H23.4609V27.3243Z" fill="black"/>
<path d="M42.7741 30.1402C43.2711 30.1402 43.6741 29.7373 43.6741 29.2402C43.6741 28.7432 43.2711 28.3402 42.7741 28.3402V30.1402ZM36.8008 30.1402H42.7741V28.3402H36.8008V30.1402Z" fill="black"/>
<path d="M40.6074 18.3755C40.1433 19.9233 39.6316 24.1799 41.2981 28.824" stroke="black" stroke-width="1.8" stroke-linecap="round"/>
<path d="M23.9653 27.578C23.5373 27.3253 22.9854 27.4675 22.7328 27.8955C22.4801 28.3236 22.6223 28.8754 23.0503 29.1281L23.9653 27.578ZM28.8622 30.1355L29.7618 30.1097L29.7102 28.3104L28.8105 28.3363L28.8622 30.1355ZM23.0503 29.1281C23.7622 29.5483 24.3332 29.865 25.2189 30.0257C26.0459 30.1757 27.1228 30.1855 28.8622 30.1355L28.8105 28.3363C27.0454 28.387 26.1535 28.3659 25.5402 28.2546C24.9857 28.154 24.6447 27.979 23.9653 27.578L23.0503 29.1281Z" fill="black"/>
<circle cx="33.1071" cy="29.0128" r="3.42584" stroke="black" stroke-width="1.8"/>
<path d="M25.2969 16.1729L30.4601 11.0777" stroke="black" stroke-width="1.8" stroke-linecap="round"/>
<path d="M22.9268 16.5364L22.927 8.90069" stroke="black" stroke-width="1.8" stroke-linecap="round"/>
<path d="M14.9954 18.8497L15.8953 18.8404L15.8769 17.0405L14.9769 17.0498L14.9954 18.8497ZM3.57672 17.1666C3.07969 17.1717 2.68089 17.5787 2.68598 18.0757C2.69108 18.5728 3.09813 18.9716 3.59516 18.9665L3.57672 17.1666ZM14.9769 17.0498L3.57672 17.1666L3.59516 18.9665L14.9954 18.8497L14.9769 17.0498Z" fill="black"/>
<path d="M33.0625 36.9717H14.375" stroke="black" stroke-width="1.8" stroke-linecap="round"/>
<path d="M15.7723 35.9248C16.1237 35.5734 16.1237 35.0035 15.7723 34.6521C15.4208 34.3006 14.8509 34.3006 14.4995 34.6521L15.7723 35.9248ZM13.5739 38.1232L15.7723 35.9248L14.4995 34.6521L12.3011 36.8504L13.5739 38.1232Z" fill="black"/>
<path d="M15.7723 38.0175C16.1237 38.369 16.1237 38.9389 15.7723 39.2903C15.4208 39.6418 14.8509 39.6418 14.4995 39.2903L15.7723 38.0175ZM13.5739 35.8192L15.7723 38.0175L14.4995 39.2903L12.3011 37.092L13.5739 35.8192Z" fill="black"/>
</g>
<defs>
<clipPath id="clip0_5844_2449">
<rect width="46" height="46" fill="white" transform="translate(0 0.275879)"/>
</clipPath>
</defs>
</svg>
