<svg width="262" height="186" viewBox="0 0 262 186" fill="none" xmlns="http://www.w3.org/2000/svg">
<path fill-rule="evenodd" clip-rule="evenodd" d="M129.502 3.82793C130.418 -0.1134 135.937 -0.358062 137.199 3.48669L146.494 31.8187L161.472 16.5C164.019 13.8954 168.438 15.7734 168.33 19.4145L167.66 42.1191L193.036 24.853C196.452 22.5291 200.72 26.2772 198.856 29.9643L179.001 69.2529C178.254 70.7316 176.449 71.3246 174.97 70.5772C173.491 69.8299 172.899 68.0253 173.646 66.5466L190.008 34.1707L167.796 49.2842C165.096 51.1213 161.451 49.1234 161.547 45.859L162.182 24.3563L148.481 38.3691C146.382 40.5152 142.755 39.6715 141.82 36.8196L133.727 12.1519L124.282 52.785C123.673 55.4028 120.707 56.6876 118.381 55.341L100.482 44.9783L116.444 74.0393C117.242 75.4915 116.711 77.3154 115.259 78.113C113.807 78.9107 111.983 78.38 111.185 76.9278L91.7693 41.5785C89.8196 38.0287 93.7745 34.1619 97.2794 36.1911L119.049 48.7946L129.502 3.82793ZM260.788 58.6652C261.671 60.0672 261.25 61.9195 259.848 62.8024L242.678 73.6159C233.724 79.2556 223.954 83.4815 213.712 86.1451L187.291 93.0162L187.202 93.0393L187.111 93.057L180.578 94.3347C169.782 96.4461 161.993 105.907 161.993 116.907V134.945C161.993 145.438 170.499 153.945 180.993 153.945H196.674C198.022 139.01 210.574 127.306 225.86 127.306C242.045 127.306 255.166 140.427 255.166 156.612C255.166 172.797 242.045 185.917 225.86 185.917C210.802 185.917 198.397 174.56 196.742 159.945H180.993C167.185 159.945 155.993 148.752 155.993 134.945V116.907C155.993 103.037 165.814 91.1085 179.426 88.4463L185.869 87.1862L212.202 80.3382C221.847 77.8298 231.048 73.85 239.481 68.5389L256.65 57.7254C258.052 56.8425 259.905 57.2632 260.788 58.6652ZM37.1978 171.762L1.23631 171.762L1.23635 165.762L37.1978 165.762L37.1978 171.762ZM1.66211 50.4947H6.67363C13.4639 50.4947 20.0228 52.9622 25.1293 57.4378L64.6869 92.1088C69.883 96.663 76.5795 99.1352 83.4884 99.0498L106.686 98.7632C125.069 98.5361 140.094 113.376 140.094 131.761V149.851C145.055 151.055 148.738 155.526 148.738 160.857C148.738 167.111 143.668 172.182 137.413 172.182H116.012C114.355 172.182 113.012 170.839 113.012 169.182C113.012 167.525 114.355 166.182 116.012 166.182H137.413C140.354 166.182 142.738 163.798 142.738 160.857C142.738 157.916 140.354 155.532 137.413 155.532H119.393C117.736 155.532 116.393 154.189 116.393 152.532C116.393 150.875 117.736 149.532 119.393 149.532H134.094V131.761C134.094 116.719 121.801 104.577 106.76 104.763L83.5625 105.049C75.1731 105.153 67.0417 102.151 60.7321 96.621L21.1745 61.95C17.1623 58.4334 12.0088 56.4947 6.67363 56.4947H1.66211V50.4947ZM4.45301 73.4029H0.850504V67.4029H4.45301C8.01928 67.4029 11.4511 68.7638 14.0481 71.208L40.8992 96.4796C43.537 98.9623 41.7802 103.392 38.1578 103.392H0.693359V97.3924H33.1146L9.93592 75.5772C8.45194 74.1806 6.49088 73.4029 4.45301 73.4029ZM1.23633 154.592H32.8926V148.592H1.23633V154.592ZM78.4834 179.917C91.3548 179.917 101.789 169.483 101.789 156.612C101.789 143.74 91.3548 133.306 78.4834 133.306C65.612 133.306 55.1777 143.74 55.1777 156.612C55.1777 169.483 65.612 179.917 78.4834 179.917ZM78.4834 185.917C94.6685 185.917 107.789 172.797 107.789 156.612C107.789 140.427 94.6685 127.306 78.4834 127.306C62.2983 127.306 49.1777 140.427 49.1777 156.612C49.1777 172.797 62.2983 185.917 78.4834 185.917ZM249.166 156.612C249.166 169.483 238.732 179.917 225.86 179.917C212.989 179.917 202.555 169.483 202.555 156.612C202.555 143.74 212.989 133.306 225.86 133.306C238.732 133.306 249.166 143.74 249.166 156.612ZM78.4827 165.169C83.2085 165.169 87.0396 161.338 87.0396 156.612C87.0396 151.886 83.2085 148.055 78.4827 148.055C73.7568 148.055 69.9258 151.886 69.9258 156.612C69.9258 161.338 73.7568 165.169 78.4827 165.169ZM78.4827 171.169C86.5222 171.169 93.0396 164.652 93.0396 156.612C93.0396 148.572 86.5222 142.055 78.4827 142.055C70.4431 142.055 63.9258 148.572 63.9258 156.612C63.9258 164.652 70.4431 171.169 78.4827 171.169ZM234.417 156.612C234.417 161.338 230.585 165.169 225.86 165.169C221.134 165.169 217.303 161.338 217.303 156.612C217.303 151.886 221.134 148.055 225.86 148.055C230.585 148.055 234.417 151.886 234.417 156.612ZM240.417 156.612C240.417 164.652 233.899 171.169 225.86 171.169C217.82 171.169 211.303 164.652 211.303 156.612C211.303 148.572 217.82 142.055 225.86 142.055C233.899 142.055 240.417 148.572 240.417 156.612Z" fill="#EB5252"/>
</svg>
