<svg width="26" height="26" viewBox="0 0 26 26" fill="none" xmlns="http://www.w3.org/2000/svg">
<path d="M9.31634 24.375L7.25801 20.9083L3.35801 20.0417L3.73717 16.0333L1.08301 13L3.73717 9.96667L3.35801 5.95833L7.25801 5.09167L9.31634 1.625L12.9997 3.19583L16.683 1.625L18.7413 5.09167L22.6413 5.95833L22.2622 9.96667L24.9163 13L22.2622 16.0333L22.6413 20.0417L18.7413 20.9083L16.683 24.375L12.9997 22.8042L9.31634 24.375ZM10.2372 21.6125L12.9997 20.4208L15.8163 21.6125L17.333 19.0125L20.3122 18.3083L20.0413 15.275L22.0455 13L20.0413 10.6708L20.3122 7.6375L17.333 6.9875L15.7622 4.3875L12.9997 5.57917L10.183 4.3875L8.66634 6.9875L5.68717 7.6375L5.95801 10.6708L3.95384 13L5.95801 15.275L5.68717 18.3625L8.66634 19.0125L10.2372 21.6125ZM11.8622 16.8458L17.983 10.725L16.4663 9.15417L11.8622 13.7583L9.53301 11.4833L8.01634 13L11.8622 16.8458Z" fill="black"/>
</svg>
