<svg width="70" height="70" viewBox="0 0 70 70" fill="none" xmlns="http://www.w3.org/2000/svg">
<path d="M35.035 40.947C38.2566 40.947 40.8479 38.2884 40.8479 35.1399C40.8479 31.9915 38.1866 29.3328 35.035 29.3328C31.8834 29.3328 29.2221 31.9915 29.2221 35.1399C29.2221 38.2884 31.8134 40.947 35.035 40.947ZM16.4757 53.4708C22.7089 24.7151 24.7399 22.6862 53.5943 16.4593C47.2911 45.2149 45.2601 47.2439 16.4757 53.4708ZM10.2426 59.7676C23.8995 73.4108 46.1006 73.4108 59.7574 59.7676C73.4142 46.0545 73.4142 23.8756 59.7574 10.2324C46.1006 -3.41079 23.8995 -3.41079 10.2426 10.2324C-3.41421 23.8756 -3.41421 46.0545 10.2426 59.7676Z" fill="#FA751A"/>
</svg>
