<svg width="49" height="49" viewBox="0 0 49 49" fill="none" xmlns="http://www.w3.org/2000/svg">
<path d="M26.582 5.22461V11.4915C26.582 12.5218 27.4172 13.357 28.4475 13.357H36.2757" stroke="black" stroke-width="2"/>
<path d="M33.8095 43.5345C34.3618 43.5345 34.8095 43.0868 34.8095 42.5345C34.8095 41.9822 34.3618 41.5345 33.8095 41.5345V43.5345ZM29.1286 6.38114L29.7374 5.58779V5.58779L29.1286 6.38114ZM32.4976 8.96633L31.8888 9.75968L31.9004 9.76854L31.9122 9.77706L32.4976 8.96633ZM34.3763 10.3229L34.9617 9.51221L34.3763 10.3229ZM33.8095 41.5345H11.0915V43.5345H33.8095V41.5345ZM7.42773 37.8707V8.9556H5.42773V37.8707H7.42773ZM10.1587 6.22461H21.563V4.22461H10.1587V6.22461ZM21.563 6.22461H25.7216V4.22461H21.563V6.22461ZM28.5198 7.17449L31.8888 9.75968L33.1064 8.17298L29.7374 5.58779L28.5198 7.17449ZM31.9122 9.77706L33.7909 11.1337L34.9617 9.51221L33.083 8.1556L31.9122 9.77706ZM35.6965 14.8602V25.6859H37.6965V14.8602H35.6965ZM33.7909 11.1337C34.9876 11.9978 35.6965 13.3841 35.6965 14.8602H37.6965C37.6965 12.7418 36.6791 10.7523 34.9617 9.51221L33.7909 11.1337ZM11.0915 41.5345C9.06804 41.5345 7.42773 39.8942 7.42773 37.8707H5.42773C5.42773 40.9987 7.96347 43.5345 11.0915 43.5345V41.5345ZM25.7216 6.22461C26.7335 6.22461 27.7171 6.5585 28.5198 7.17449L29.7374 5.58779C28.5853 4.70378 27.1737 4.22461 25.7216 4.22461V6.22461ZM7.42773 8.9556C7.42773 7.44732 8.65044 6.22461 10.1587 6.22461V4.22461C7.54587 4.22461 5.42773 6.34275 5.42773 8.9556H7.42773Z" fill="black"/>
<path d="M36.8058 44.2764C36.5786 44.4785 36.2361 44.4785 36.0089 44.2764L32.7558 41.3827C29.568 38.547 27.9073 34.3719 28.2764 30.1214V30.1214C28.2902 29.9629 28.405 29.8315 28.5603 29.7967L28.7408 29.7563C31.1959 29.2059 33.4608 28.0136 35.3041 26.3011L36.1549 25.5107C36.4479 25.2384 36.9036 25.2461 37.1874 25.528L38.0265 26.3617C39.7079 28.0323 41.8165 29.2082 44.1215 29.7608L44.2592 29.7938C44.4121 29.8304 44.5243 29.9608 44.5379 30.1174V30.1174C44.9074 34.3704 43.2457 38.548 40.056 41.3853L36.8058 44.2764Z" stroke="black" stroke-width="2"/>
<path d="M13.5117 17.7266H30.573" stroke="black" stroke-width="2" stroke-linecap="round"/>
<path d="M13.5117 21.9541H30.573" stroke="black" stroke-width="2" stroke-linecap="round"/>
<path d="M13.5117 26.1807H30.573" stroke="black" stroke-width="2" stroke-linecap="round"/>
<path d="M13.5117 30.4072L28.2192 30.4072" stroke="black" stroke-width="2" stroke-linecap="round"/>
<path d="M33.4141 34.7024L35.211 36.4046L39.4831 32.4502" stroke="black" stroke-width="1.39912" stroke-linecap="round"/>
</svg>
