<svg width="16" height="15" viewBox="0 0 16 15" fill="none" xmlns="http://www.w3.org/2000/svg">
<path d="M7.63493 0.454276C10.9287 0.23962 13.7727 2.73572 13.9875 6.02947C14.0912 7.62182 13.5596 9.10745 12.6125 10.2433L12.7726 14.5558L9.67009 12.1633C9.26754 12.2782 8.84702 12.3537 8.41228 12.382C5.1185 12.5966 2.27439 10.1006 2.05974 6.80682C1.84515 3.51309 4.34121 0.668992 7.63493 0.454276Z" fill="#FF808C"/>
<path d="M6.85352 3.54297H10.2155C10.4917 3.54297 10.7155 3.76683 10.7155 4.04297V8.58233" stroke="white" stroke-width="0.8" stroke-linecap="round"/>
<path d="M9.2067 4.76172C8.89767 4.76172 8.59168 4.82461 8.30617 4.9468C8.02067 5.069 7.76126 5.2481 7.54275 5.47388C7.32423 5.69967 7.1509 5.96771 7.03264 6.26272C6.91438 6.55772 6.85352 6.8739 6.85352 7.1932C6.85352 7.51251 6.91438 7.82869 7.03264 8.12369C7.1509 8.4187 7.32423 8.68674 7.54275 8.91253C7.76126 9.13831 8.02067 9.31741 8.30617 9.4396C8.59168 9.5618 8.89767 9.62469 9.2067 9.62469" stroke="white" stroke-width="0.8" stroke-linecap="round"/>
<path d="M5.61426 7.19141H4.2983" stroke="white" stroke-width="0.8" stroke-linecap="round"/>
<path d="M5.73547 6.0136L4.33715 5.63602" stroke="white" stroke-width="0.8" stroke-linecap="round"/>
<path d="M5.81152 8.30469L4.31989 8.77626" stroke="white" stroke-width="0.8" stroke-linecap="round"/>
</svg>
