<svg width="620" height="478" viewBox="0 0 620 478" fill="none" xmlns="http://www.w3.org/2000/svg">
<rect y="0.352478" width="620.005" height="477.648" fill="white"/>
<path d="M63.3397 405.154C63.3397 403.319 63.6384 401.89 64.2357 400.866C64.8331 399.831 65.8784 399.314 67.3717 399.314C68.8544 399.314 69.8944 399.831 70.4917 400.866C71.0891 401.89 71.3877 403.319 71.3877 405.154C71.3877 407.02 71.0891 408.471 70.4917 409.506C69.8944 410.54 68.8544 411.058 67.3717 411.058C65.8784 411.058 64.8331 410.54 64.2357 409.506C63.6384 408.471 63.3397 407.02 63.3397 405.154ZM69.9477 405.154C69.9477 404.226 69.8837 403.442 69.7557 402.802C69.6384 402.151 69.3877 401.628 69.0037 401.234C68.6304 400.839 68.0864 400.642 67.3717 400.642C66.6464 400.642 66.0917 400.839 65.7077 401.234C65.3344 401.628 65.0837 402.151 64.9557 402.802C64.8384 403.442 64.7797 404.226 64.7797 405.154C64.7797 406.114 64.8384 406.919 64.9557 407.57C65.0837 408.22 65.3344 408.743 65.7077 409.138C66.0917 409.532 66.6464 409.73 67.3717 409.73C68.0864 409.73 68.6304 409.532 69.0037 409.138C69.3877 408.743 69.6384 408.22 69.7557 407.57C69.8837 406.919 69.9477 406.114 69.9477 405.154Z" fill="#BAB5B5"/>
<path d="M63.0482 326.544V325.216H66.0562V336.784H64.5842V326.544H63.0482Z" fill="#BAB5B5"/>
<path d="M63.1032 253.227C64.2039 252.343 65.0662 251.62 65.6902 251.056C66.3142 250.484 66.8385 249.891 67.2632 249.275C67.6965 248.651 67.9132 248.04 67.9132 247.442C67.9132 246.879 67.7745 246.437 67.4972 246.116C67.2285 245.787 66.7909 245.622 66.1842 245.622C65.5949 245.622 65.1355 245.809 64.8062 246.181C64.4855 246.545 64.3122 247.035 64.2862 247.65H63.1422C63.1769 246.68 63.4715 245.93 64.0262 245.401C64.5809 244.873 65.2959 244.608 66.1712 244.608C67.0639 244.608 67.7702 244.855 68.2902 245.349C68.8189 245.843 69.0832 246.524 69.0832 247.39C69.0832 248.11 68.8665 248.812 68.4332 249.496C68.0085 250.172 67.5232 250.77 66.9772 251.29C66.4312 251.802 65.7335 252.4 64.8842 253.084H69.3562V254.072H63.1032V253.227Z" fill="#BAB5B5"/>
<path d="M61.6413 167.123C61.716 166.142 62.0947 165.374 62.7773 164.819C63.46 164.265 64.3453 163.987 65.4333 163.987C66.1587 163.987 66.7827 164.121 67.3053 164.387C67.8387 164.643 68.2387 164.995 68.5053 165.443C68.7827 165.891 68.9213 166.398 68.9213 166.963C68.9213 167.625 68.7293 168.195 68.3453 168.675C67.972 169.155 67.4813 169.465 66.8733 169.603V169.683C67.5667 169.854 68.116 170.19 68.5213 170.691C68.9267 171.193 69.1293 171.849 69.1293 172.659C69.1293 173.267 68.9907 173.817 68.7133 174.307C68.436 174.787 68.02 175.166 67.4653 175.443C66.9107 175.721 66.244 175.859 65.4653 175.859C64.3347 175.859 63.4067 175.566 62.6813 174.979C61.956 174.382 61.5507 173.539 61.4653 172.451H62.8733C62.948 173.091 63.2093 173.614 63.6573 174.019C64.1053 174.425 64.7027 174.627 65.4493 174.627C66.196 174.627 66.7613 174.435 67.1453 174.051C67.54 173.657 67.7373 173.15 67.7373 172.531C67.7373 171.731 67.4707 171.155 66.9373 170.803C66.404 170.451 65.5987 170.275 64.5213 170.275H64.1533V169.059H64.5373C65.5187 169.049 66.26 168.889 66.7613 168.579C67.2627 168.259 67.5133 167.769 67.5133 167.107C67.5133 166.542 67.3267 166.089 66.9533 165.747C66.5907 165.406 66.068 165.235 65.3853 165.235C64.724 165.235 64.1907 165.406 63.7853 165.747C63.38 166.089 63.14 166.547 63.0653 167.123H61.6413Z" fill="#BAB5B5"/>
<path d="M59.5625 88.2286V87.1246L65.1785 79.3486H66.9225V86.9646H68.5225V88.2286H66.9225V90.8046H65.4825V88.2286H59.5625ZM65.5465 80.8686L61.2425 86.9646H65.5465V80.8686Z" fill="#BAB5B5"/>
<path d="M67.2905 16.9932H61.6745V20.6412C61.9198 20.2998 62.2825 20.0225 62.7625 19.8092C63.2425 19.5852 63.7598 19.4732 64.3145 19.4732C65.1998 19.4732 65.9198 19.6598 66.4745 20.0332C67.0291 20.3958 67.4238 20.8705 67.6585 21.4572C67.9038 22.0332 68.0265 22.6465 68.0265 23.2972C68.0265 24.0652 67.8825 24.7532 67.5945 25.3612C67.3065 25.9692 66.8638 26.4492 66.2665 26.8012C65.6798 27.1532 64.9491 27.3292 64.0745 27.3292C62.9545 27.3292 62.0478 27.0412 61.3545 26.4652C60.6611 25.8892 60.2398 25.1212 60.0905 24.1612H61.5145C61.6531 24.7692 61.9465 25.2438 62.3945 25.5852C62.8425 25.9265 63.4078 26.0972 64.0905 26.0972C64.9331 26.0972 65.5678 25.8465 65.9945 25.3452C66.4211 24.8332 66.6345 24.1612 66.6345 23.3292C66.6345 22.4972 66.4211 21.8572 65.9945 21.4092C65.5678 20.9505 64.9385 20.7212 64.1065 20.7212C63.5411 20.7212 63.0451 20.8598 62.6185 21.1372C62.2025 21.4038 61.8985 21.7718 61.7065 22.2412H60.3305V15.7132H67.2905V16.9932Z" fill="#BAB5B5"/>
<path d="M188.25 226H183.7L165.4 198.25V226H160.85V191.1H165.4L183.7 218.8V191.1H188.25V226ZM207.956 226.45C205.39 226.45 203.056 225.867 200.956 224.7C198.89 223.533 197.256 221.883 196.056 219.75C194.89 217.583 194.306 215.083 194.306 212.25C194.306 209.45 194.906 206.983 196.106 204.85C197.34 202.683 199.006 201.033 201.106 199.9C203.206 198.733 205.556 198.15 208.156 198.15C210.756 198.15 213.106 198.733 215.206 199.9C217.306 201.033 218.956 202.667 220.156 204.8C221.39 206.933 222.006 209.417 222.006 212.25C222.006 215.083 221.373 217.583 220.106 219.75C218.873 221.883 217.19 223.533 215.056 224.7C212.923 225.867 210.556 226.45 207.956 226.45ZM207.956 222.45C209.59 222.45 211.123 222.067 212.556 221.3C213.99 220.533 215.14 219.383 216.006 217.85C216.906 216.317 217.356 214.45 217.356 212.25C217.356 210.05 216.923 208.183 216.056 206.65C215.19 205.117 214.056 203.983 212.656 203.25C211.256 202.483 209.74 202.1 208.106 202.1C206.44 202.1 204.906 202.483 203.506 203.25C202.14 203.983 201.04 205.117 200.206 206.65C199.373 208.183 198.956 210.05 198.956 212.25C198.956 214.483 199.356 216.367 200.156 217.9C200.99 219.433 202.09 220.583 203.456 221.35C204.823 222.083 206.323 222.45 207.956 222.45ZM252.169 191.15C255.969 191.15 259.252 191.867 262.019 193.3C264.819 194.7 266.952 196.717 268.419 199.35C269.919 201.983 270.669 205.083 270.669 208.65C270.669 212.217 269.919 215.317 268.419 217.95C266.952 220.55 264.819 222.55 262.019 223.95C259.252 225.317 255.969 226 252.169 226H241.319V191.15H252.169ZM252.169 222.25C256.669 222.25 260.102 221.067 262.469 218.7C264.835 216.3 266.019 212.95 266.019 208.65C266.019 204.317 264.819 200.933 262.419 198.5C260.052 196.067 256.635 194.85 252.169 194.85H245.869V222.25H252.169ZM274.97 212.2C274.97 209.4 275.537 206.95 276.67 204.85C277.804 202.717 279.354 201.067 281.32 199.9C283.32 198.733 285.537 198.15 287.97 198.15C290.37 198.15 292.454 198.667 294.22 199.7C295.987 200.733 297.304 202.033 298.17 203.6V198.6H302.77V226H298.17V220.9C297.27 222.5 295.92 223.833 294.12 224.9C292.354 225.933 290.287 226.45 287.92 226.45C285.487 226.45 283.287 225.85 281.32 224.65C279.354 223.45 277.804 221.767 276.67 219.6C275.537 217.433 274.97 214.967 274.97 212.2ZM298.17 212.25C298.17 210.183 297.754 208.383 296.92 206.85C296.087 205.317 294.954 204.15 293.52 203.35C292.12 202.517 290.57 202.1 288.87 202.1C287.17 202.1 285.62 202.5 284.22 203.3C282.82 204.1 281.704 205.267 280.87 206.8C280.037 208.333 279.62 210.133 279.62 212.2C279.62 214.3 280.037 216.133 280.87 217.7C281.704 219.233 282.82 220.417 284.22 221.25C285.62 222.05 287.17 222.45 288.87 222.45C290.57 222.45 292.12 222.05 293.52 221.25C294.954 220.417 296.087 219.233 296.92 217.7C297.754 216.133 298.17 214.317 298.17 212.25ZM316.009 202.35V218.5C316.009 219.833 316.293 220.783 316.859 221.35C317.426 221.883 318.409 222.15 319.809 222.15H323.159V226H319.059C316.526 226 314.626 225.417 313.359 224.25C312.093 223.083 311.459 221.167 311.459 218.5V202.35H307.909V198.6H311.459V191.7H316.009V198.6H323.159V202.35H316.009ZM326.972 212.2C326.972 209.4 327.539 206.95 328.672 204.85C329.806 202.717 331.356 201.067 333.322 199.9C335.322 198.733 337.539 198.15 339.972 198.15C342.372 198.15 344.456 198.667 346.222 199.7C347.989 200.733 349.306 202.033 350.172 203.6V198.6H354.772V226H350.172V220.9C349.272 222.5 347.922 223.833 346.122 224.9C344.356 225.933 342.289 226.45 339.922 226.45C337.489 226.45 335.289 225.85 333.322 224.65C331.356 223.45 329.806 221.767 328.672 219.6C327.539 217.433 326.972 214.967 326.972 212.2ZM350.172 212.25C350.172 210.183 349.756 208.383 348.922 206.85C348.089 205.317 346.956 204.15 345.522 203.35C344.122 202.517 342.572 202.1 340.872 202.1C339.172 202.1 337.622 202.5 336.222 203.3C334.822 204.1 333.706 205.267 332.872 206.8C332.039 208.333 331.622 210.133 331.622 212.2C331.622 214.3 332.039 216.133 332.872 217.7C333.706 219.233 334.822 220.417 336.222 221.25C337.622 222.05 339.172 222.45 340.872 222.45C342.572 222.45 344.122 222.05 345.522 221.25C346.956 220.417 348.089 219.233 348.922 217.7C349.756 216.133 350.172 214.317 350.172 212.25ZM395.491 191.15V194.85H380.341V206.6H392.641V210.3H380.341V226H375.791V191.15H395.491ZM412.937 226.45C410.37 226.45 408.037 225.867 405.937 224.7C403.87 223.533 402.237 221.883 401.037 219.75C399.87 217.583 399.287 215.083 399.287 212.25C399.287 209.45 399.887 206.983 401.087 204.85C402.32 202.683 403.987 201.033 406.087 199.9C408.187 198.733 410.537 198.15 413.137 198.15C415.737 198.15 418.087 198.733 420.187 199.9C422.287 201.033 423.937 202.667 425.137 204.8C426.37 206.933 426.987 209.417 426.987 212.25C426.987 215.083 426.353 217.583 425.087 219.75C423.853 221.883 422.17 223.533 420.037 224.7C417.903 225.867 415.537 226.45 412.937 226.45ZM412.937 222.45C414.57 222.45 416.103 222.067 417.537 221.3C418.97 220.533 420.12 219.383 420.987 217.85C421.887 216.317 422.337 214.45 422.337 212.25C422.337 210.05 421.903 208.183 421.037 206.65C420.17 205.117 419.037 203.983 417.637 203.25C416.237 202.483 414.72 202.1 413.087 202.1C411.42 202.1 409.887 202.483 408.487 203.25C407.12 203.983 406.02 205.117 405.187 206.65C404.353 208.183 403.937 210.05 403.937 212.25C403.937 214.483 404.337 216.367 405.137 217.9C405.97 219.433 407.07 220.583 408.437 221.35C409.803 222.083 411.303 222.45 412.937 222.45ZM457.269 198.6V226H452.719V221.95C451.852 223.35 450.636 224.45 449.069 225.25C447.536 226.017 445.836 226.4 443.969 226.4C441.836 226.4 439.919 225.967 438.219 225.1C436.519 224.2 435.169 222.867 434.169 221.1C433.202 219.333 432.719 217.183 432.719 214.65V198.6H437.219V214.05C437.219 216.75 437.902 218.833 439.269 220.3C440.636 221.733 442.502 222.45 444.869 222.45C447.302 222.45 449.219 221.7 450.619 220.2C452.019 218.7 452.719 216.517 452.719 213.65V198.6H457.269ZM478.302 198.1C481.635 198.1 484.335 199.117 486.402 201.15C488.468 203.15 489.502 206.05 489.502 209.85V226H485.002V210.5C485.002 207.767 484.318 205.683 482.952 204.25C481.585 202.783 479.718 202.05 477.352 202.05C474.952 202.05 473.035 202.8 471.602 204.3C470.202 205.8 469.502 207.983 469.502 210.85V226H464.952V198.6H469.502V202.5C470.402 201.1 471.618 200.017 473.152 199.25C474.718 198.483 476.435 198.1 478.302 198.1ZM495.234 212.2C495.234 209.4 495.801 206.95 496.934 204.85C498.067 202.717 499.617 201.067 501.584 199.9C503.584 198.733 505.817 198.15 508.284 198.15C510.417 198.15 512.401 198.65 514.234 199.65C516.067 200.617 517.467 201.9 518.434 203.5V189H523.034V226H518.434V220.85C517.534 222.483 516.201 223.833 514.434 224.9C512.667 225.933 510.601 226.45 508.234 226.45C505.801 226.45 503.584 225.85 501.584 224.65C499.617 223.45 498.067 221.767 496.934 219.6C495.801 217.433 495.234 214.967 495.234 212.2ZM518.434 212.25C518.434 210.183 518.017 208.383 517.184 206.85C516.351 205.317 515.217 204.15 513.784 203.35C512.384 202.517 510.834 202.1 509.134 202.1C507.434 202.1 505.884 202.5 504.484 203.3C503.084 204.1 501.967 205.267 501.134 206.8C500.301 208.333 499.884 210.133 499.884 212.2C499.884 214.3 500.301 216.133 501.134 217.7C501.967 219.233 503.084 220.417 504.484 221.25C505.884 222.05 507.434 222.45 509.134 222.45C510.834 222.45 512.384 222.05 513.784 221.25C515.217 220.417 516.351 219.233 517.184 217.7C518.017 216.133 518.434 214.317 518.434 212.25Z" fill="#BAB5B5"/>
<path d="M26.6723 334.202C25.4483 334.214 24.3472 333.942 23.3691 333.387C22.3907 332.821 21.6262 332.054 21.0755 331.087C20.5126 330.108 20.2247 329.037 20.2119 327.873C20.1971 326.541 20.514 325.356 21.1626 324.318C21.799 323.268 22.7146 322.503 23.9094 322.024L23.9366 324.49C23.2803 324.82 22.7933 325.274 22.4757 325.854C22.158 326.433 22.0034 327.1 22.0118 327.856C22.0209 328.684 22.2151 329.42 22.5942 330.065C22.9734 330.709 23.513 331.214 24.2131 331.579C24.9131 331.933 25.725 332.105 26.649 332.096C27.5729 332.087 28.3809 331.9 29.0729 331.533C29.7647 331.155 30.2991 330.64 30.6759 329.988C31.0407 329.336 31.2185 328.597 31.2094 327.769C31.201 327.013 31.0316 326.348 30.7013 325.775C30.3709 325.203 29.874 324.757 29.2104 324.44L29.1831 321.974C30.3883 322.43 31.3206 323.177 31.9801 324.215C32.6395 325.241 32.9765 326.42 32.9913 327.752C33.0043 328.928 32.7462 330.004 32.217 330.981C31.6757 331.959 30.9223 332.74 29.9568 333.325C28.991 333.898 27.8962 334.19 26.6723 334.202ZM32.9068 315.234C32.9171 316.17 32.7165 317.018 32.3049 317.778C31.8813 318.538 31.2879 319.138 30.5247 319.577C29.7495 320.016 28.8519 320.241 27.832 320.251C26.824 320.26 25.9276 320.047 25.1427 319.61C24.3579 319.173 23.7512 318.573 23.3227 317.809C22.8942 317.045 22.6747 316.189 22.6643 315.241C22.6538 314.293 22.8543 313.434 23.2658 312.662C23.6772 311.89 24.2705 311.278 25.0456 310.827C25.8206 310.375 26.7121 310.145 27.7201 310.135C28.728 310.126 29.6245 310.345 30.4095 310.794C31.1945 311.242 31.8074 311.861 32.2481 312.648C32.6768 313.424 32.8963 314.286 32.9068 315.234ZM31.1249 315.251C31.119 314.723 30.9876 314.232 30.7306 313.779C30.4734 313.313 30.0912 312.939 29.5841 312.656C29.0769 312.372 28.4633 312.234 27.7434 312.241C27.0234 312.248 26.419 312.392 25.93 312.672C25.4291 312.953 25.0552 313.323 24.8082 313.781C24.5613 314.239 24.4407 314.733 24.4466 315.26C24.4524 315.788 24.5839 316.279 24.8409 316.733C25.0978 317.174 25.4797 317.525 25.9866 317.784C26.4815 318.043 27.0889 318.17 27.8089 318.163C28.8768 318.153 29.7018 317.875 30.2838 317.329C30.8537 316.772 31.134 316.079 31.1249 315.251ZM22.6485 299.172L32.566 299.078L32.5887 301.13L31.4188 301.141C31.8304 301.461 32.1591 301.884 32.4049 302.41C32.6386 302.924 32.7587 303.475 32.7652 304.063C32.7738 304.843 32.6196 305.546 32.3025 306.173C31.9853 306.788 31.5107 307.279 30.8787 307.645C30.2466 307.999 29.4805 308.18 28.5806 308.188L22.7488 308.244L22.7263 306.21L28.2521 306.157C29.1401 306.149 29.8216 305.921 30.2966 305.472C30.7597 305.024 30.987 304.415 30.9785 303.647C30.97 302.88 30.7293 302.276 30.2564 301.836C29.7714 301.385 29.0849 301.163 28.1969 301.172L22.6712 301.224L22.6485 299.172ZM22.4012 291.463C22.3925 290.683 22.5468 289.985 22.864 289.37C23.1811 288.743 23.6557 288.253 24.2879 287.899C24.92 287.545 25.686 287.364 26.586 287.355L32.4357 287.3L32.4582 289.333L26.9145 289.386C26.0265 289.394 25.351 289.623 24.8879 290.071C24.4129 290.52 24.1796 291.128 24.1881 291.896C24.1966 292.664 24.4433 293.274 24.9283 293.725C25.4012 294.165 26.0817 294.38 26.9696 294.372L32.5134 294.319L32.5361 296.371L22.6185 296.465L22.5958 294.413L23.7298 294.402C23.3181 294.07 22.9954 293.647 22.7617 293.134C22.5278 292.608 22.4077 292.051 22.4012 291.463ZM24.1366 282.367L29.6264 282.314C29.9984 282.311 30.2674 282.224 30.4336 282.055C30.5876 281.873 30.6622 281.573 30.6576 281.153L30.6437 279.893L32.3536 279.877L32.3715 281.496C32.3817 282.42 32.1736 283.13 31.747 283.626C31.3205 284.122 30.6213 284.375 29.6493 284.384L24.1595 284.436L24.1725 285.606L22.4986 285.622L22.4856 284.452L20.0197 284.476L19.9968 282.406L22.4627 282.382L22.436 279.971L24.11 279.955L24.1366 282.367ZM32.3953 269.007C32.4057 269.943 32.2051 270.79 31.7934 271.55C31.3698 272.31 30.7764 272.91 30.0132 273.349C29.238 273.789 28.3405 274.013 27.3205 274.023C26.3126 274.033 25.4162 273.819 24.6313 273.382C23.8464 272.946 23.2397 272.346 22.8112 271.582C22.3828 270.818 22.1633 269.962 22.1528 269.014C22.1423 268.066 22.3428 267.206 22.7543 266.434C23.1658 265.662 23.759 265.05 24.5341 264.599C25.3091 264.148 26.2007 263.917 27.2086 263.908C28.2166 263.898 29.113 264.118 29.8981 264.566C30.6831 265.015 31.2959 265.633 31.7367 266.421C32.1653 267.197 32.3848 268.059 32.3953 269.007ZM30.6134 269.023C30.6076 268.496 30.4761 268.005 30.2191 267.551C29.9619 267.086 29.5798 266.711 29.0726 266.428C28.5654 266.145 27.9519 266.007 27.2319 266.013C26.5119 266.02 25.9075 266.164 25.4186 266.445C24.9176 266.725 24.5437 267.095 24.2968 267.553C24.0498 268.012 23.9293 268.505 23.9351 269.033C23.941 269.561 24.0724 270.052 24.3294 270.505C24.5863 270.947 24.9682 271.297 25.4751 271.556C25.97 271.816 26.5775 271.942 27.2974 271.935C28.3654 271.925 29.1904 271.647 29.7723 271.102C30.3422 270.544 30.6226 269.851 30.6134 269.023ZM23.8643 257.753L23.8846 259.588L32.1283 259.51L32.1512 261.58L23.9075 261.658L23.9205 262.828L22.2465 262.844L22.2336 261.674L21.5316 261.681C20.3917 261.692 19.5604 261.399 19.0378 260.804C18.503 260.197 18.2285 259.246 18.2142 257.95L19.9241 257.934C19.931 258.558 20.0558 258.995 20.2986 259.244C20.5294 259.494 20.9328 259.616 21.5087 259.611L22.2107 259.604L22.1904 257.768L23.8643 257.753ZM19.4452 243.937L21.1191 243.922L21.1779 249.231L24.8677 249.196L24.8219 245.057L26.4958 245.041L26.5416 249.18L32.0134 249.128L32.0361 251.18L19.5267 251.299L19.4452 243.937ZM21.9167 233.03L31.8342 232.936L31.8569 234.988L30.687 234.999C31.0986 235.319 31.4273 235.742 31.6731 236.267C31.9068 236.781 32.0269 237.332 32.0334 237.92C32.042 238.7 31.8878 239.404 31.5707 240.031C31.2535 240.646 30.7789 241.136 30.1469 241.502C29.5148 241.856 28.7487 242.037 27.8488 242.046L22.017 242.101L21.9945 240.067L27.5203 240.015C28.4083 240.007 29.0898 239.778 29.5648 239.33C30.0279 238.881 30.2552 238.273 30.2467 237.505C30.2382 236.737 29.9975 236.133 29.5246 235.694C29.0396 235.242 28.3531 235.021 27.4651 235.029L21.9394 235.082L21.9167 233.03ZM26.5019 221.188C26.8739 221.185 27.2102 221.206 27.5107 221.251L27.5945 228.828C28.3858 228.761 29.0186 228.461 29.4927 227.928C29.9668 227.396 30.1997 226.746 30.1912 225.978C30.1789 224.874 29.7083 224.098 28.7793 223.651L28.7548 221.437C29.6701 221.728 30.4261 222.267 31.0229 223.054C31.6075 223.828 31.9062 224.797 31.9191 225.961C31.9296 226.909 31.729 227.763 31.3174 228.523C30.8936 229.271 30.3002 229.865 29.537 230.304C28.7617 230.731 27.864 230.95 26.8441 230.96C25.8241 230.969 24.9279 230.774 24.1554 230.373C23.3708 229.961 22.7644 229.384 22.3362 228.644C21.9078 227.892 21.6883 227.03 21.6775 226.058C21.6672 225.122 21.8619 224.287 22.2618 223.551C22.6617 222.815 23.2314 222.239 23.9708 221.824C24.6983 221.41 25.542 221.198 26.5019 221.188ZM25.8777 223.336C25.1218 223.356 24.5189 223.631 24.0687 224.164C23.6186 224.696 23.3978 225.352 23.4065 226.132C23.4143 226.84 23.649 227.444 24.1105 227.943C24.5601 228.443 25.1694 228.737 25.9384 228.826L25.8777 223.336ZM18.3393 217.194L31.6587 217.068L31.6814 219.12L18.362 219.246L18.3393 217.194ZM18.9484 199.036L31.5098 203.615L31.5361 205.991L19.0788 210.825L19.0546 208.629L29.4171 204.823L18.9723 201.196L18.9484 199.036ZM26.1365 188.161C26.5085 188.158 26.8448 188.178 27.1453 188.224L27.2291 195.801C28.0204 195.734 28.6531 195.434 29.1273 194.901C29.6014 194.369 29.8342 193.718 29.8257 192.95C29.8135 191.846 29.3429 191.071 28.4139 190.624L28.3894 188.41C29.3047 188.701 30.0607 189.24 30.6574 190.026C31.242 190.801 31.5408 191.77 31.5537 192.934C31.5642 193.882 31.3636 194.736 30.952 195.496C30.5282 196.244 29.9348 196.837 29.1716 197.277C28.3962 197.704 27.4986 197.923 26.4787 197.932C25.4587 197.942 24.5625 197.746 23.79 197.346C23.0054 196.933 22.399 196.357 21.9708 195.617C21.5424 194.865 21.3229 194.003 21.3121 193.031C21.3018 192.095 21.4965 191.259 21.8964 190.523C22.2963 189.788 22.866 189.212 23.6054 188.797C24.3329 188.382 25.1766 188.17 26.1365 188.161ZM25.5123 190.309C24.7564 190.328 24.1534 190.604 23.7033 191.136C23.2532 191.669 23.0324 192.325 23.041 193.105C23.0489 193.813 23.2836 194.416 23.7451 194.916C24.1947 195.416 24.804 195.71 25.573 195.799L25.5123 190.309ZM21.1797 181.058C21.1713 180.303 21.3259 179.629 21.6433 179.038C21.9607 178.435 22.4355 177.962 23.0677 177.62C23.6999 177.266 24.4659 177.085 25.3659 177.077L31.2156 177.021L31.2381 179.055L25.6943 179.108C24.8064 179.116 24.1309 179.344 23.6678 179.793C23.1927 180.241 22.9595 180.85 22.968 181.618C22.9764 182.385 23.2232 182.995 23.7082 183.447C24.1811 183.886 24.8615 184.102 25.7495 184.093L31.2933 184.041L31.316 186.093L17.9966 186.219L17.9739 184.167L22.5277 184.124C22.1038 183.78 21.775 183.345 21.5412 182.819C21.3072 182.281 21.1867 181.694 21.1797 181.058ZM19.9436 173.466C19.9477 173.838 19.8252 174.152 19.576 174.406C19.3268 174.66 19.0162 174.789 18.6442 174.793C18.2722 174.796 17.9588 174.673 17.704 174.424C17.4493 174.174 17.3198 173.863 17.3157 173.491C17.3117 173.131 17.4343 172.824 17.6835 172.57C17.9327 172.315 18.2433 172.186 18.6153 172.183C18.9873 172.179 19.3007 172.302 19.5555 172.552C19.8102 172.802 19.9396 173.106 19.9436 173.466ZM21.2464 172.446L31.1639 172.352L31.1866 174.404L21.2691 174.498L21.2464 172.446ZM26.1739 170.389C25.154 170.399 24.2577 170.203 23.4853 169.803C22.7007 169.39 22.0943 168.82 21.6662 168.092C21.2382 167.364 21.0189 166.526 21.0084 165.578C20.9951 164.378 21.2721 163.385 21.8395 162.6C22.3947 161.803 23.1988 161.261 24.2517 160.975L24.2761 163.189C23.7862 163.373 23.4054 163.665 23.1338 164.064C22.8622 164.462 22.7297 164.962 22.7363 165.561C22.7456 166.401 23.053 167.071 23.6586 167.569C24.252 168.055 25.0827 168.293 26.1506 168.283C27.2186 168.273 28.0498 168.019 28.6443 167.522C29.2387 167.012 29.5313 166.337 29.522 165.497C29.5089 164.309 28.9782 163.528 27.93 163.154L27.9055 160.94C28.9166 161.219 29.7266 161.751 30.3353 162.537C30.932 163.324 31.2369 164.305 31.2499 165.481C31.2604 166.429 31.0597 167.271 30.6478 168.007C30.2239 168.743 29.6303 169.324 28.867 169.752C28.0916 170.167 27.1939 170.379 26.1739 170.389ZM17.6726 156.94L30.992 156.814L31.0147 158.866L17.6953 158.992L17.6726 156.94ZM25.6599 145.08C26.0319 145.076 26.3681 145.097 26.6686 145.142L26.7525 152.72C27.5438 152.652 28.1765 152.352 28.6506 151.82C29.1248 151.287 29.3576 150.637 29.3491 149.869C29.3369 148.765 28.8663 147.989 27.9373 147.542L27.9128 145.328C28.828 145.62 29.5841 146.159 30.1808 146.945C30.7654 147.719 31.0641 148.689 31.077 149.853C31.0875 150.801 30.8869 151.654 30.4753 152.414C30.0516 153.162 29.4581 153.756 28.6949 154.195C27.9196 154.623 27.022 154.841 26.002 154.851C24.9821 154.861 24.0858 154.665 23.3134 154.264C22.5287 153.852 21.9223 153.276 21.4941 152.536C21.0658 151.784 20.8462 150.922 20.8355 149.95C20.8251 149.014 21.0199 148.178 21.4198 147.442C21.8196 146.706 22.3893 146.131 23.1288 145.716C23.8562 145.301 24.6999 145.089 25.6599 145.08ZM25.0356 147.228C24.2798 147.247 23.6768 147.523 23.2267 148.055C22.7765 148.587 22.5558 149.243 22.5644 150.023C22.5722 150.731 22.8069 151.335 23.2685 151.835C23.718 152.335 24.3273 152.629 25.0963 152.717L25.0356 147.228ZM30.9615 139.41C30.9701 140.19 30.8399 140.893 30.5708 141.52C30.2896 142.134 29.911 142.624 29.435 142.989C28.947 143.353 28.4031 143.55 27.8034 143.58L27.7799 141.456C28.1995 141.416 28.5513 141.215 28.8353 140.852C29.1072 140.478 29.2401 140.014 29.234 139.462C29.2276 138.886 29.1147 138.443 28.8952 138.133C28.6637 137.812 28.3739 137.652 28.0259 137.656C27.6539 137.659 27.3799 137.842 27.2039 138.203C27.0278 138.553 26.8359 139.113 26.6284 139.883C26.4327 140.629 26.2414 141.237 26.0546 141.707C25.8678 142.176 25.5783 142.587 25.1862 142.939C24.7939 143.279 24.2738 143.451 23.6258 143.458C23.0978 143.463 22.6161 143.311 22.1807 143.003C21.7333 142.696 21.3804 142.255 21.122 141.681C20.8635 141.096 20.7301 140.425 20.7217 139.669C20.7092 138.541 20.9872 137.632 21.5556 136.943C22.1119 136.242 22.8817 135.862 23.8652 135.805L23.8879 137.857C23.4443 137.897 23.0923 138.08 22.8319 138.407C22.5715 138.733 22.4443 139.173 22.4504 139.725C22.4564 140.265 22.563 140.678 22.7702 140.964C22.9773 141.25 23.2489 141.391 23.5849 141.388C23.8489 141.385 24.0698 141.287 24.2477 141.094C24.4256 140.9 24.567 140.665 24.6719 140.388C24.7649 140.111 24.8863 139.702 25.0364 139.16C25.2204 138.438 25.4119 137.848 25.6108 137.391C25.7976 136.921 26.0812 136.516 26.4614 136.176C26.8417 135.837 27.3497 135.658 27.9856 135.64C28.5496 135.635 29.0553 135.786 29.5027 136.094C29.9501 136.401 30.303 136.842 30.5614 137.416C30.8196 137.977 30.953 138.642 30.9615 139.41Z" fill="#BAB5B5"/>
</svg>
