<svg width="81" height="81" viewBox="0 0 81 81" fill="none" xmlns="http://www.w3.org/2000/svg">
<circle opacity="0.5" cx="40.293" cy="40.1562" r="40" fill="#FAE7E7"/>
<path d="M49.0835 32.8848C49.6693 32.2991 49.6693 31.3493 49.0835 30.7635C48.4978 30.1777 47.548 30.1777 46.9622 30.7635L49.0835 32.8848ZM31.2127 46.513C30.6269 47.0988 30.6269 48.0485 31.2127 48.6343C31.7985 49.2201 32.7483 49.2201 33.3341 48.6343L31.2127 46.513ZM46.9622 48.6343C47.548 49.2201 48.4978 49.2201 49.0835 48.6343C49.6693 48.0485 49.6693 47.0988 49.0835 46.513L46.9622 48.6343ZM33.3341 30.7635C32.7483 30.1777 31.7985 30.1777 31.2127 30.7635C30.6269 31.3493 30.6269 32.299 31.2127 32.8848L33.3341 30.7635ZM62.4213 39.6989H60.9213C60.9213 51.1716 51.6208 60.4721 40.1481 60.4721V61.9721V63.4721C53.2777 63.4721 63.9213 52.8285 63.9213 39.6989H62.4213ZM40.1481 61.9721V60.4721C28.6755 60.4721 19.375 51.1716 19.375 39.6989H17.875H16.375C16.375 52.8285 27.0186 63.4721 40.1481 63.4721V61.9721ZM17.875 39.6989H19.375C19.375 28.2262 28.6755 18.9258 40.1481 18.9258V17.4258V15.9258C27.0186 15.9258 16.375 26.5694 16.375 39.6989H17.875ZM40.1481 17.4258V18.9258C51.6208 18.9258 60.9213 28.2262 60.9213 39.6989H62.4213H63.9213C63.9213 26.5694 53.2777 15.9258 40.1481 15.9258V17.4258ZM48.0229 31.8242L46.9622 30.7635L39.0875 38.6383L40.1481 39.6989L41.2088 40.7596L49.0835 32.8848L48.0229 31.8242ZM40.1481 39.6989L39.0875 38.6383L31.2127 46.513L32.2734 47.5737L33.3341 48.6343L41.2088 40.7596L40.1481 39.6989ZM48.0229 47.5737L49.0835 46.513L41.2088 38.6383L40.1481 39.6989L39.0875 40.7596L46.9622 48.6343L48.0229 47.5737ZM40.1481 39.6989L41.2088 38.6383L33.3341 30.7635L32.2734 31.8242L31.2127 32.8848L39.0875 40.7596L40.1481 39.6989Z" fill="#D92727"/>
</svg>
