<svg width="25" height="20" viewBox="0 0 25 20" fill="none" xmlns="http://www.w3.org/2000/svg">
<path d="M18.3345 10.1381L18.2051 10.6211L18.6881 10.7505L21.5043 11.5051L14.19 16.8858L16.0721 9.86189L16.2015 9.37893L15.7185 9.24952L12.9024 8.49493L20.2166 3.11419L18.3345 10.1381Z" stroke="#989EA5"/>
<path d="M12.1117 3.56744H5.184C4.81055 3.56744 4.50781 3.87018 4.50781 4.24363C4.50781 4.61708 4.81055 4.91982 5.184 4.91982H12.1117C12.4851 4.91982 12.7879 4.61708 12.7879 4.24363C12.7879 3.87018 12.4851 3.56744 12.1117 3.56744Z" fill="#989EA5"/>
<path d="M12.1117 14.3864H5.184C4.81055 14.3864 4.50781 14.6892 4.50781 15.0626C4.50781 15.4361 4.81055 15.7388 5.184 15.7388H12.1117C12.4851 15.7388 12.7879 15.4361 12.7879 15.0626C12.7879 14.6892 12.4851 14.3864 12.1117 14.3864Z" fill="#989EA5"/>
<path d="M7.60386 8.97693H0.676188C0.30274 8.97693 0 9.27967 0 9.65312C0 10.0266 0.30274 10.3293 0.676188 10.3293H7.60386C7.97731 10.3293 8.28005 10.0266 8.28005 9.65312C8.28005 9.27967 7.97731 8.97693 7.60386 8.97693Z" fill="#989EA5"/>
</svg>
