<svg width="25" height="20" viewBox="0 0 25 20" fill="none" xmlns="http://www.w3.org/2000/svg">
<path fill-rule="evenodd" clip-rule="evenodd" d="M18.8175 10.2675L21.0685 1.86678L11.7681 8.70864L15.5891 9.73248L13.3381 18.1332L22.6385 11.2914L18.8175 10.2675Z" fill="#989EA5"/>
<path d="M12.1117 3.56738H5.184C4.81055 3.56738 4.50781 3.87012 4.50781 4.24357C4.50781 4.61702 4.81055 4.91976 5.184 4.91976H12.1117C12.4851 4.91976 12.7879 4.61702 12.7879 4.24357C12.7879 3.87012 12.4851 3.56738 12.1117 3.56738Z" fill="#989EA5"/>
<path d="M12.1117 14.3865H5.184C4.81055 14.3865 4.50781 14.6892 4.50781 15.0627C4.50781 15.4361 4.81055 15.7389 5.184 15.7389H12.1117C12.4851 15.7389 12.7879 15.4361 12.7879 15.0627C12.7879 14.6892 12.4851 14.3865 12.1117 14.3865Z" fill="#989EA5"/>
<path d="M7.60386 8.97693H0.676188C0.30274 8.97693 0 9.27967 0 9.65312C0 10.0266 0.30274 10.3293 0.676188 10.3293H7.60386C7.97731 10.3293 8.28005 10.0266 8.28005 9.65312C8.28005 9.27967 7.97731 8.97693 7.60386 8.97693Z" fill="#989EA5"/>
</svg>
