<svg width="32" height="33" viewBox="0 0 32 33" fill="none" xmlns="http://www.w3.org/2000/svg">
<g clip-path="url(#clip0_5797_1453)">
<rect y="0.73291" width="32" height="32" rx="6" fill="white"/>
<path d="M17.3359 10.3331C17.3359 6.77868 14.4539 3.89502 10.8981 3.89502C8.87537 3.89502 6.66718 4.93856 4.54763 6.42981C1.83749 8.33659 1.83763 12.3294 4.54763 14.2364C6.66701 15.7278 8.87605 16.7728 10.8981 16.7728C14.4539 16.7728 17.3359 13.8907 17.3359 10.3331Z" fill="#FF0000"/>
<path d="M27.1099 8.14926C27.1099 5.99671 25.3647 4.25146 23.2141 4.25146C21.0598 4.25146 19.3164 5.99671 19.3164 8.14926C19.3164 10.3018 21.0598 12.0452 23.2141 12.0452C25.3647 12.0452 27.1099 10.3018 27.1099 8.14926Z" fill="#FF0000"/>
<path d="M24.1662 25.1504C23.2411 23.8917 22.316 22.6348 21.3927 21.3742C20.4584 20.1008 19.524 18.8291 18.5879 17.5557C18.4681 17.3916 18.328 17.2516 18.1788 17.1373C17.5853 16.6747 16.8206 16.601 16.2677 16.9862C15.7019 17.3843 15.1214 17.7639 14.5299 18.127C14.1687 18.3481 13.9438 18.7204 13.8701 19.148C13.7964 19.57 13.8756 20.0455 14.1281 20.4822C14.74 21.5327 15.3518 22.5832 15.9655 23.6337C16.9385 25.2942 17.9079 26.9583 18.8791 28.6225C19.3822 29.4997 20.5616 29.7909 21.4793 29.2252C22.2294 28.7663 22.9647 28.2834 23.6853 27.7784C24.568 27.1592 24.7689 25.9631 24.1662 25.1504Z" fill="#FF0000"/>
<path d="M18.8564 17.2577L21.6446 21.0597C23.6644 18.1165 25.0005 12.5601 22.6877 12.2136C20.9591 11.9519 19.2581 14.8029 18.3164 16.7269C18.5173 16.8744 18.6997 17.0513 18.8564 17.2577Z" fill="#FF0000"/>
<path d="M13.4421 19.0928C12.7345 19.1278 11.8941 19.1978 11.2141 19.3379C9.73979 19.6438 4.79906 27.2017 4.79906 27.2017C4.24988 27.8652 4.34387 28.8493 5.0073 29.3966L5.56385 29.8574C6.22729 30.4084 7.20952 30.3144 7.7587 29.651L7.92825 29.4464L7.95037 29.4188L11.0593 25.6628C11.0722 25.6463 11.0833 25.6315 11.0943 25.6149L12.893 23.4403C12.893 23.4403 14.0466 23.6467 15.5301 23.6467L13.7554 20.6058C13.4735 20.1156 13.374 19.5793 13.4421 19.0928Z" fill="#FF0000"/>
<path d="M29.247 14.2034L25.6405 16.1735C25.1724 16.4297 24.6122 16.3504 24.2344 16.0169C24.415 15.0272 24.4408 14.1205 24.2491 13.4589L27.7874 11.5293C28.3864 11.2013 29.1364 11.4224 29.4645 12.0214L29.7409 12.5245C30.0671 13.1253 29.8478 13.8754 29.247 14.2034Z" fill="#FF0000"/>
</g>
<defs>
<clipPath id="clip0_5797_1453">
<rect y="0.73291" width="32" height="32" rx="6" fill="white"/>
</clipPath>
</defs>
</svg>
