<svg width="22" height="17" viewBox="0 0 22 17" fill="none" xmlns="http://www.w3.org/2000/svg">
<rect x="1" y="1.98633" width="20" height="13.9557" rx="4" stroke="black" stroke-width="2"/>
<path d="M9.08398 13.1667L8.50065 12.5833L11.3757 9.69792L12.834 11.1563L14.9902 9L15.584 9.59375L12.834 12.3333L11.3757 10.875L9.08398 13.1667ZM7.66732 12.75C7.43815 12.75 7.24197 12.6684 7.07878 12.5052C6.91558 12.342 6.83398 12.1458 6.83398 11.9167V6.08333C6.83398 5.85417 6.91558 5.65799 7.07878 5.49479C7.24197 5.3316 7.43815 5.25 7.66732 5.25H13.5007C13.7298 5.25 13.926 5.3316 14.0892 5.49479C14.2524 5.65799 14.334 5.85417 14.334 6.08333V7.83333H7.66732V12.75ZM7.66732 7H13.5007V6.08333H7.66732V7Z" fill="black"/>
</svg>
