<svg width="26" height="26" viewBox="0 0 26 26" fill="none" xmlns="http://www.w3.org/2000/svg">
<path d="M2.88889 26C2.09444 26 1.41435 25.7171 0.848611 25.1514C0.28287 24.5856 0 23.9056 0 23.1111V2.88889C0 2.09444 0.28287 1.41435 0.848611 0.848611C1.41435 0.28287 2.09444 0 2.88889 0H23.1111C23.9056 0 24.5856 0.28287 25.1514 0.848611C25.7171 1.41435 26 2.09444 26 2.88889V23.1111C26 23.9056 25.7171 24.5856 25.1514 25.1514C24.5856 25.7171 23.9056 26 23.1111 26H2.88889ZM10.1111 23.1111V14.4444H2.88889V23.1111H10.1111ZM13 23.1111H23.1111V14.4444H13V23.1111ZM2.88889 11.5556H23.1111V2.88889H2.88889V11.5556Z" fill="white"/>
</svg>
