<svg width="16" height="17" viewBox="0 0 16 17" fill="none" xmlns="http://www.w3.org/2000/svg">
<g clip-path="url(#clip0_7620_2612)">
<path d="M6.1827 5.86296C6.31587 5.73585 6.52691 5.74073 6.65406 5.87386L8.4957 7.80205L9.53163 8.88666L10.3373 9.73023C10.4645 9.86336 10.4596 10.0743 10.3264 10.2014L5.85166 14.4724C5.05262 15.2351 3.78642 15.2058 3.0235 14.407L1.64253 12.9611C0.879614 12.1624 0.908892 10.8966 1.70792 10.134L6.1827 5.86296Z" stroke="#59646B" stroke-width="0.8"/>
<path d="M9.4441 9.07069L10.6858 7.82829C10.9417 7.5722 10.9464 7.15871 10.6963 6.89689L9.64305 5.7941C9.3846 5.5235 8.95403 5.5185 8.68936 5.78301L7.4935 6.97818" stroke="#59646B" stroke-width="0.8"/>
<path d="M9.99676 1.34656C10.7343 1.25262 11.4836 1.34939 12.1731 1.6276C12.8626 1.90582 13.4692 2.3562 13.935 2.9357C14.4008 3.5152 14.7102 4.20447 14.8337 4.93765C14.9572 5.67083 14.8906 6.42342 14.6403 7.12352" stroke="#59646B" stroke-width="0.8" stroke-linecap="round" stroke-linejoin="round"/>
<path d="M10.3268 3.17028C10.7458 3.11691 11.1715 3.17188 11.5632 3.32994C11.9549 3.488 12.2996 3.74386 12.5642 4.07309C12.8288 4.40231 13.0046 4.79389 13.0747 5.21042C13.1449 5.62694 13.1071 6.0545 12.9648 6.45223" stroke="#59646B" stroke-width="0.8" stroke-linecap="round" stroke-linejoin="round"/>
<circle cx="11.0414" cy="5.26662" r="0.606978" transform="rotate(-127.258 11.0414 5.26662)" fill="#59646B"/>
</g>
<defs>
<clipPath id="clip0_7620_2612">
<rect width="16" height="16" fill="white" transform="translate(0 0.09375)"/>
</clipPath>
</defs>
</svg>
