<svg width="21" height="20" viewBox="0 0 21 20" fill="none" xmlns="http://www.w3.org/2000/svg">
<g clip-path="url(#clip0_7611_2539)">
<path d="M12.5806 2.05511C13.5069 1.93713 14.448 2.05866 15.3139 2.40809C16.1799 2.75751 16.9418 3.32316 17.5268 4.05099C18.1118 4.77881 18.5004 5.6445 18.6555 6.56533C18.8106 7.48617 18.7269 8.43138 18.4125 9.31067" stroke="#09244B" stroke-width="1.00476" stroke-linejoin="round"/>
<path d="M12.995 4.345C13.5212 4.27797 14.0559 4.34701 14.5478 4.54552C15.0398 4.74404 15.4726 5.06539 15.805 5.47887C16.1373 5.89236 16.3581 6.38416 16.4462 6.9073C16.5343 7.43044 16.4868 7.96742 16.3082 8.46695" stroke="#09244B" stroke-width="1.00476" stroke-linejoin="round"/>
<circle cx="13.8933" cy="6.9786" r="0.762332" transform="rotate(-127.258 13.8933 6.9786)" fill="#09244B"/>
<path d="M12.7881 9.50684L11.4014 10.6191L11.0088 10.9336L11.3242 11.3252L11.7246 11.8242L5.87891 16.5166C4.78286 17.396 3.213 17.2868 2.24805 16.3066L2.06348 16.0986C1.18396 15.0025 1.29372 13.4319 2.27441 12.4668L2.48145 12.2822L8.32617 7.59082L8.72461 8.08691L9.03906 8.47852L9.43066 8.16406L10.8174 7.05176L12.7881 9.50684Z" fill="#09244B" stroke="#09244B" stroke-width="1.00476"/>
</g>
<defs>
<clipPath id="clip0_7611_2539">
<rect width="20" height="20" fill="white" transform="translate(0.09375)"/>
</clipPath>
</defs>
</svg>
