<svg width="60" height="60" viewBox="0 0 60 60" fill="none" xmlns="http://www.w3.org/2000/svg">
<path d="M0 10C0 4.47715 4.47715 0 10 0H50C55.5228 0 60 4.47715 60 10V50C60 55.5228 55.5228 60 50 60H10C4.47715 60 0 55.5228 0 50V10Z" fill="#102C52"/>
<path d="M36.2647 28.5718L30.6323 33.2654M30.6323 33.2654L25 28.5718M30.6323 33.2654V21.7148" stroke="#FA751A" stroke-width="2" stroke-linecap="round" stroke-linejoin="round"/>
<path d="M22 32V35V35C22 36.6569 23.3431 38 25 38H36C37.6569 38 39 36.6569 39 35V32" stroke="#FA751A" stroke-width="2" stroke-linecap="round"/>
</svg>
