<svg width="56" height="56" viewBox="0 0 56 56" fill="none" xmlns="http://www.w3.org/2000/svg">
<path d="M7 0.5H48.9951C52.585 0.5 55.4951 3.41015 55.4951 7V48.9951C55.4951 52.585 52.585 55.4951 48.9951 55.4951H7C3.41015 55.4951 0.5 52.585 0.5 48.9951V7C0.5 3.41015 3.41015 0.5 7 0.5Z" fill="#102C52" stroke="#102C52"/>
<path d="M33.8516 26.6664L28.5947 31.0471M28.5947 31.0471L23.3379 26.6664M28.5947 31.0471V20.2666" stroke="#FA751A" stroke-width="1.5" stroke-linecap="round" stroke-linejoin="round"/>
<path d="M20.5371 29.8643V32.6642V32.6642C20.5371 34.2105 21.7907 35.4641 23.337 35.4641H33.4032C35.0601 35.4641 36.4032 34.1209 36.4032 32.4641V29.8643" stroke="#FA751A" stroke-width="1.5" stroke-linecap="round"/>
</svg>
