<svg width="29" height="30" viewBox="0 0 29 30" fill="none" xmlns="http://www.w3.org/2000/svg">
<path d="M1.0202 25.9314C-0.117803 24.858 -0.329803 23.1234 0.515864 21.807L2.94653 18.0247C4.2332 16.023 6.3162 14.68 8.6682 14.3334H19.4952C20.1932 14.4364 20.8665 14.629 21.5035 14.8984L17.8965 21.2647C16.7169 20.9367 15.4302 20.7544 14.0819 20.7544C11.0405 20.7544 8.30753 21.6744 6.43553 23.13C6.3382 23.1784 6.24986 23.2467 6.17786 23.3367C4.73753 24.547 3.87186 26.0927 3.87186 27.7747C3.87186 27.9774 3.8862 28.1784 3.91053 28.3784C3.3262 28.011 2.77353 27.586 2.2622 27.1034L1.0202 25.9314Z" fill="#102C53"/>
<path d="M12.6013 29.9999C12.3303 29.8173 12.166 29.5996 12.166 29.3949C12.166 28.9183 12.985 28.3853 14.081 28.3853C15.177 28.3853 15.996 28.9183 15.996 29.3949C15.996 29.5996 15.832 29.8173 15.561 29.9999H12.6013Z" fill="#102C53"/>
<path d="M15.6159 27.1137C15.1559 26.9487 14.6379 26.8544 14.0829 26.8544C13.5282 26.8544 13.0099 26.9491 12.5499 27.1137L8.07422 23.8191C9.63489 22.8704 11.7522 22.2854 14.0826 22.2854C15.4942 22.2854 16.8269 22.5011 18.0062 22.8807C18.0379 22.8921 18.0689 22.9044 18.1012 22.9114C18.8319 23.1541 19.5012 23.4604 20.0912 23.8191L15.6159 27.1137Z" fill="#102C53"/>
<path d="M5.75768 29.2998C5.52668 28.8044 5.40234 28.2934 5.40234 27.7744C5.40234 26.6731 5.91968 25.6474 6.80568 24.7871L11.1813 28.0078C10.8363 28.4044 10.6357 28.8788 10.6357 29.3944C10.6357 29.6021 10.6683 29.8048 10.7303 29.9994H9.55301C8.23868 29.9998 6.95634 29.7578 5.75768 29.2998Z" fill="#102C53"/>
<path d="M17.4334 29.9998C17.4954 29.8051 17.5281 29.6024 17.5281 29.3948C17.5281 28.8788 17.3274 28.4044 16.9824 28.0078L21.3578 24.7871C22.2441 25.6474 22.7611 26.6731 22.7611 27.7744C22.7611 28.2931 22.6371 28.8041 22.4058 29.2998C21.2074 29.7578 19.9251 29.9998 18.6108 29.9998H17.4334Z" fill="#102C53"/>
<path d="M27.1435 25.9313L25.9011 27.103C25.3901 27.5853 24.8371 28.0106 24.2531 28.3776C24.2775 28.1776 24.2918 27.9766 24.2918 27.7743C24.2918 26.092 23.4258 24.5463 21.9851 23.336C21.9135 23.2466 21.8258 23.1783 21.7288 23.1303C21.0471 22.6003 20.2528 22.1403 19.3691 21.771L22.8515 15.6246C23.7858 16.2463 24.5948 17.058 25.2165 18.025L27.6471 21.8073C28.4931 23.1233 28.2808 24.858 27.1435 25.9313Z" fill="#102C53"/>
<path d="M9.38086 4.701C9.38086 2.109 11.4895 0 14.0819 0C16.6742 0 18.7829 2.109 18.7829 4.701V7.50767C18.7829 10.1 16.6739 12.2087 14.0819 12.2087C11.4899 12.2087 9.38086 10.1 9.38086 7.50767V4.701Z" fill="#102C53"/>
</svg>
