<?xml version="1.0" standalone="no"?>
<!DOCTYPE svg PUBLIC "-//W3C//DTD SVG 20010904//EN"
 "http://www.w3.org/TR/2001/REC-SVG-20010904/DTD/svg10.dtd">
<svg version="1.0" xmlns="http://www.w3.org/2000/svg"
 width="512.000000pt" height="512.000000pt" viewBox="0 0 512.000000 512.000000"
 preserveAspectRatio="xMidYMid meet">

<g transform="translate(0.000000,512.000000) scale(0.100000,-0.100000)"
fill="#000000" stroke="none">
<path d="M1641 5104 c-253 -68 -410 -331 -346 -579 67 -256 329 -415 580 -350
256 67 415 329 350 578 -67 259 -333 419 -584 351z m182 -318 c103 -43 128
-177 48 -257 -65 -65 -157 -65 -222 0 -124 123 13 325 174 257z"/>
<path d="M2655 5106 c-41 -18 -83 -69 -90 -109 -4 -18 -5 -118 -3 -224 3 -210
5 -218 72 -267 39 -29 133 -29 172 0 68 51 69 53 69 294 0 205 -1 220 -21 246
-11 15 -32 37 -46 47 -33 25 -113 32 -153 13z"/>
<path d="M2655 4146 c-101 -44 -125 -178 -46 -257 112 -113 296 -12 267 146
-18 94 -131 151 -221 111z"/>
<path d="M1055 3826 c-42 -18 -83 -69 -91 -114 -6 -30 53 -279 321 -1351 302
-1210 331 -1317 358 -1347 16 -19 45 -39 65 -44 24 -7 160 -10 394 -8 342 3
358 4 384 24 53 39 69 71 69 134 0 63 -16 95 -69 134 -26 20 -43 21 -314 24
l-287 3 -309 1235 c-334 1336 -317 1279 -393 1310 -40 17 -89 17 -128 0z"/>
<path d="M1855 3826 c-42 -18 -83 -69 -91 -114 -11 -55 478 -2011 512 -2052
49 -57 66 -60 366 -60 l273 0 178 -733 c99 -402 189 -752 200 -777 67 -140
278 -103 294 51 3 34 -42 233 -197 864 -121 495 -208 830 -218 844 -10 14 -31
34 -46 45 -26 20 -43 21 -314 24 l-287 3 -229 915 c-247 989 -238 959 -313
990 -40 17 -89 17 -128 0z"/>
<path d="M2655 3506 c-42 -18 -83 -69 -91 -112 -5 -26 16 -152 75 -447 45
-227 87 -426 92 -444 6 -18 26 -46 44 -62 65 -57 155 -53 216 8 51 51 56 88
30 219 -11 59 -21 113 -21 119 0 10 120 13 529 15 517 3 530 3 557 24 53 39
69 71 69 134 0 63 -16 95 -69 134 -27 21 -40 21 -592 24 -310 1 -564 4 -564 6
0 37 -65 308 -78 325 -46 62 -133 87 -197 57z"/>
</g>
</svg>
