<svg width="16" height="17" viewBox="0 0 16 17" fill="none" xmlns="http://www.w3.org/2000/svg">
<g opacity="0.9">
<path d="M0.576734 14.6584C-0.066596 14.0516 -0.186443 13.0709 0.291626 12.3268L1.66572 10.1884C2.39309 9.05681 3.57065 8.29755 4.90027 8.10156H11.0209C11.4155 8.15979 11.7962 8.26872 12.1563 8.42098L10.1172 12.0202C9.45031 11.8347 8.72294 11.7316 7.9607 11.7316C6.24139 11.7316 4.69638 12.2518 3.63811 13.0747C3.58308 13.102 3.53315 13.1407 3.49245 13.1915C2.6782 13.8758 2.18883 14.7496 2.18883 15.7005C2.18883 15.8151 2.19693 15.9288 2.21069 16.0418C1.88035 15.8342 1.56792 15.5939 1.27886 15.321L0.576734 14.6584Z" fill="#A1A1A1" fill-opacity="0.8"/>
<path d="M7.12305 16.9597C6.96985 16.8564 6.87695 16.7334 6.87695 16.6177C6.87695 16.3482 7.33995 16.0469 7.95953 16.0469C8.57912 16.0469 9.04211 16.3482 9.04211 16.6177C9.04211 16.7334 8.9494 16.8564 8.7962 16.9597H7.12305Z" fill="#A1A1A1" fill-opacity="0.8"/>
<path d="M8.82934 15.3273C8.5693 15.234 8.27646 15.1807 7.96271 15.1807C7.64915 15.1807 7.35613 15.2342 7.09608 15.3273L4.56592 13.4647C5.44819 12.9284 6.64515 12.5977 7.96252 12.5977C8.76056 12.5977 9.51394 12.7196 10.1806 12.9342C10.1985 12.9406 10.2161 12.9476 10.2343 12.9516C10.6474 13.0888 11.0258 13.2619 11.3593 13.4647L8.82934 15.3273Z" fill="#A1A1A1" fill-opacity="0.8"/>
<path d="M3.2541 16.5629C3.12351 16.2829 3.05322 15.994 3.05322 15.7006C3.05322 15.078 3.34568 14.4981 3.84655 14.0117L6.32018 15.8325C6.12515 16.0568 6.01171 16.3249 6.01171 16.6164C6.01171 16.7339 6.03018 16.8484 6.06523 16.9585H5.39966C4.65665 16.9587 3.93172 16.8219 3.2541 16.5629Z" fill="#A1A1A1" fill-opacity="0.8"/>
<path d="M9.85506 16.9587C9.8901 16.8486 9.90857 16.734 9.90857 16.6166C9.90857 16.3249 9.79513 16.0568 9.6001 15.8325L12.0735 14.0117C12.5746 14.4981 12.8669 15.078 12.8669 15.7006C12.8669 15.9938 12.7968 16.2827 12.666 16.5629C11.9886 16.8219 11.2636 16.9587 10.5206 16.9587H9.85506Z" fill="#A1A1A1" fill-opacity="0.8"/>
<path d="M15.3452 14.6588L14.6428 15.3212C14.354 15.5939 14.0413 15.8344 13.7112 16.0419C13.725 15.9288 13.7331 15.8152 13.7331 15.7008C13.7331 14.7497 13.2435 13.8758 12.4291 13.1916C12.3885 13.1411 12.339 13.1025 12.2842 13.0753C11.8988 12.7757 11.4497 12.5156 10.9502 12.3068L12.9188 8.83203C13.447 9.18349 13.9043 9.64236 14.2558 10.189L15.6299 12.3274C16.1081 13.0714 15.9881 14.052 15.3452 14.6588Z" fill="#A1A1A1" fill-opacity="0.8"/>
<path d="M5.30273 2.65769C5.30273 1.19231 6.4948 0 7.96028 0C9.42577 0 10.6178 1.19231 10.6178 2.65769V4.24442C10.6178 5.70998 9.42558 6.9021 7.96028 6.9021C6.49499 6.9021 5.30273 5.70998 5.30273 4.24442V2.65769Z" fill="#A1A1A1" fill-opacity="0.8"/>
</g>
</svg>
