<svg width="23" height="24" viewBox="0 0 23 24" fill="none" xmlns="http://www.w3.org/2000/svg">
<path d="M0.816157 20.7452C-0.0942425 19.8865 -0.263842 18.4988 0.41269 17.4457L2.35722 14.4199C3.38655 12.8185 5.05295 11.7441 6.93455 11.4668H15.5961C16.1545 11.5492 16.6932 11.7033 17.2028 11.9188L14.3172 17.0119C13.3735 16.7495 12.3441 16.6036 11.2655 16.6036C8.83242 16.6036 6.64602 17.3396 5.14842 18.5041C5.07055 18.5428 4.99989 18.5975 4.94229 18.6695C3.79002 19.6377 3.09749 20.8743 3.09749 22.2199C3.09749 22.382 3.10896 22.5428 3.12842 22.7028C2.66096 22.4089 2.21882 22.0689 1.80976 21.6828L0.816157 20.7452Z" fill="#FA751A"/>
<path d="M10.0817 24.0007C9.86486 23.8546 9.7334 23.6805 9.7334 23.5167C9.7334 23.1354 10.3886 22.709 11.2654 22.709C12.1422 22.709 12.7974 23.1354 12.7974 23.5167C12.7974 23.6805 12.6662 23.8546 12.4494 24.0007H10.0817Z" fill="#FA751A"/>
<path d="M12.4923 21.6908C12.1243 21.5588 11.7099 21.4833 11.2659 21.4833C10.8222 21.4833 10.4075 21.5591 10.0395 21.6908L6.45898 19.0551C7.70752 18.2961 9.40138 17.8281 11.2656 17.8281C12.395 17.8281 13.4611 18.0007 14.4046 18.3044C14.4299 18.3135 14.4547 18.3233 14.4806 18.3289C15.0651 18.5231 15.6006 18.7681 16.0726 19.0551L12.4923 21.6908Z" fill="#FA751A"/>
<path d="M4.60653 23.4402C4.42173 23.0439 4.32227 22.6351 4.32227 22.2199C4.32227 21.3389 4.73613 20.5183 5.44493 19.8301L8.94546 22.4066C8.66946 22.7239 8.50893 23.1034 8.50893 23.5159C8.50893 23.6821 8.53506 23.8442 8.58466 23.9999H7.6428C6.59133 24.0002 5.56546 23.8066 4.60653 23.4402Z" fill="#FA751A"/>
<path d="M13.9467 24.0002C13.9963 23.8445 14.0225 23.6823 14.0225 23.5162C14.0225 23.1034 13.8619 22.7239 13.5859 22.4066L17.0862 19.8301C17.7953 20.5183 18.2089 21.3389 18.2089 22.2199C18.2089 22.6349 18.1097 23.0437 17.9246 23.4402C16.9659 23.8066 15.9401 24.0002 14.8886 24.0002H13.9467Z" fill="#FA751A"/>
<path d="M21.7146 20.7453L20.7207 21.6827C20.3119 22.0685 19.8695 22.4088 19.4023 22.7024C19.4218 22.5424 19.4332 22.3816 19.4332 22.2197C19.4332 20.8739 18.7404 19.6373 17.5879 18.6691C17.5306 18.5976 17.4604 18.5429 17.3828 18.5045C16.8375 18.0805 16.2021 17.7125 15.4951 17.4171L18.281 12.5C19.0284 12.9973 19.6756 13.6467 20.173 14.4203L22.1175 17.4461C22.7943 18.4989 22.6244 19.8867 21.7146 20.7453Z" fill="#FA751A"/>
<path d="M7.50488 3.7608C7.50488 1.6872 9.19182 0 11.2657 0C13.3395 0 15.0265 1.6872 15.0265 3.7608V6.00613C15.0265 8.08 13.3393 9.76693 11.2657 9.76693C9.19208 9.76693 7.50488 8.08 7.50488 6.00613V3.7608Z" fill="#FA751A"/>
</svg>
