<svg width="29" height="30" viewBox="0 0 29 30" fill="none" xmlns="http://www.w3.org/2000/svg">
<path d="M1.0202 25.9315C-0.117803 24.8582 -0.329803 23.1235 0.515864 21.8072L2.94653 18.0248C4.2332 16.0232 6.3162 14.6802 8.6682 14.3335H19.4952C20.1932 14.4365 20.8665 14.6292 21.5035 14.8985L17.8965 21.2648C16.7169 20.9368 15.4302 20.7545 14.0819 20.7545C11.0405 20.7545 8.30753 21.6745 6.43553 23.1302C6.3382 23.1785 6.24986 23.2468 6.17786 23.3368C4.73753 24.5472 3.87186 26.0928 3.87186 27.7748C3.87186 27.9775 3.8862 28.1785 3.91053 28.3785C3.3262 28.0112 2.77353 27.5862 2.2622 27.1035L1.0202 25.9315Z" fill="#102C53"/>
<path d="M12.6022 29.9999C12.3312 29.8173 12.1668 29.5996 12.1668 29.3949C12.1668 28.9183 12.9858 28.3853 14.0818 28.3853C15.1778 28.3853 15.9968 28.9183 15.9968 29.3949C15.9968 29.5996 15.8328 29.8173 15.5618 29.9999H12.6022Z" fill="#102C53"/>
<path d="M15.6149 27.1135C15.1549 26.9485 14.6369 26.8542 14.0819 26.8542C13.5272 26.8542 13.0089 26.9488 12.5489 27.1135L8.07324 23.8188C9.63391 22.8702 11.7512 22.2852 14.0816 22.2852C15.4932 22.2852 16.8259 22.5008 18.0052 22.8805C18.0369 22.8918 18.0679 22.9042 18.1002 22.9112C18.8309 23.1538 19.5002 23.4602 20.0902 23.8188L15.6149 27.1135Z" fill="#102C53"/>
<path d="M5.75768 29.2998C5.52668 28.8044 5.40234 28.2934 5.40234 27.7744C5.40234 26.6731 5.91968 25.6474 6.80568 24.7871L11.1813 28.0078C10.8363 28.4044 10.6357 28.8788 10.6357 29.3944C10.6357 29.6021 10.6683 29.8048 10.7303 29.9994H9.55301C8.23868 29.9998 6.95634 29.7578 5.75768 29.2998Z" fill="#102C53"/>
<path d="M17.4334 29.9998C17.4954 29.8051 17.5281 29.6024 17.5281 29.3948C17.5281 28.8788 17.3274 28.4044 16.9824 28.0078L21.3578 24.7871C22.2441 25.6474 22.7611 26.6731 22.7611 27.7744C22.7611 28.2931 22.6371 28.8041 22.4058 29.2998C21.2074 29.7578 19.9251 29.9998 18.6108 29.9998H17.4334Z" fill="#102C53"/>
<path d="M27.1435 25.9312L25.9011 27.1028C25.3901 27.5852 24.8371 28.0105 24.2531 28.3775C24.2775 28.1775 24.2918 27.9765 24.2918 27.7742C24.2918 26.0918 23.4258 24.5462 21.9851 23.3358C21.9135 23.2465 21.8258 23.1782 21.7288 23.1302C21.0471 22.6002 20.2528 22.1402 19.3691 21.7708L22.8515 15.6245C23.7858 16.2462 24.5948 17.0578 25.2165 18.0248L27.6471 21.8072C28.4931 23.1232 28.2808 24.8578 27.1435 25.9312Z" fill="#102C53"/>
<path d="M9.38086 4.701C9.38086 2.109 11.4895 0 14.0819 0C16.6742 0 18.7829 2.109 18.7829 4.701V7.50767C18.7829 10.1 16.6739 12.2087 14.0819 12.2087C11.4899 12.2087 9.38086 10.1 9.38086 7.50767V4.701Z" fill="#102C53"/>
</svg>
