<svg width="46" height="47" viewBox="0 0 46 47" fill="none" xmlns="http://www.w3.org/2000/svg">
<g clip-path="url(#clip0_5844_2347)">
<path d="M7.41472 35.0438C4.97383 31.6855 3.6376 27.6514 3.5911 23.5C3.5446 19.3487 4.79013 15.2856 7.15519 11.8735" stroke="black" stroke-width="1.8" stroke-linecap="round"/>
<path d="M38.5657 34.9271C41.0066 31.5688 42.3429 27.5347 42.3894 23.3833C42.4359 19.232 41.1903 15.1689 38.8253 11.7568" stroke="black" stroke-width="1.8" stroke-linecap="round"/>
<circle cx="23.0009" cy="23.2758" r="15.0424" stroke="black" stroke-width="1.8"/>
<path d="M24.8438 16.2251C24.8438 15.2082 24.0194 14.3838 23.0025 14.3838C21.9856 14.3838 21.1612 15.2082 21.1612 16.2251V18.25C21.1612 19.1799 21.2451 20.1079 21.4118 21.0226L21.4576 21.2744C21.5795 21.9432 21.6415 22.6216 21.6429 23.3014L21.6492 26.4518L24.3758 26.4533L24.3631 23.323C24.3603 22.6289 24.4222 21.9361 24.5479 21.2535L24.5886 21.0329C24.7583 20.1113 24.8438 19.1762 24.8438 18.2391V16.2251Z" fill="black"/>
<circle cx="1.83999" cy="1.83999" r="1.83999" transform="matrix(-1 0 0 1 24.8398 28.4878)" fill="black"/>
</g>
<defs>
<clipPath id="clip0_5844_2347">
<rect width="46" height="46" fill="white" transform="translate(0 0.275879)"/>
</clipPath>
</defs>
</svg>
