<svg width="32" height="24" viewBox="0 0 32 24" fill="none" xmlns="http://www.w3.org/2000/svg">
<g clip-path="url(#clip0_354_137)">
<path d="M16.8108 2.44218C16.6111 2.24253 16.3772 2.1441 16.1061 2.1441C15.8353 2.1441 15.598 2.24253 15.4017 2.44218L14.3277 3.51258C14.0397 3.32632 13.7351 3.16352 13.4166 3.01789C13.0983 2.87226 12.773 2.74732 12.4443 2.63879V0.992165C12.4443 0.714531 12.3497 0.480813 12.1564 0.28773C11.9638 0.0946482 11.7301 0 11.4522 0H9.38582C9.12156 0 8.89163 0.0946482 8.69173 0.28773C8.49537 0.480813 8.39693 0.714531 8.39693 0.992165V2.49972C8.05166 2.58074 7.71622 2.68246 7.39417 2.8079C7.06933 2.93308 6.76116 3.07569 6.46964 3.2347L5.28061 2.06257C5.09434 1.86621 4.86744 1.76449 4.59309 1.76449C4.32176 1.76449 4.0883 1.86621 3.8884 2.06257L2.44218 3.51258C2.24253 3.71223 2.1441 3.9462 2.1441 4.21677C2.1441 4.48784 2.24253 4.72509 2.44218 4.92145L3.51284 5.99539C3.32657 6.28312 3.16403 6.58802 3.01839 6.90604C2.87251 7.22456 2.74757 7.55015 2.63879 7.87851H0.99267C0.714531 7.87851 0.480813 7.97316 0.287983 8.16624C0.0949006 8.35958 0 8.5933 0 8.87118V10.9375C0 11.2013 0.0949006 11.432 0.28773 11.6319C0.48056 11.828 0.714531 11.9264 0.992418 11.9264H2.49947C2.58074 12.2715 2.6822 12.6069 2.8079 12.9287C2.93359 13.254 3.07569 13.569 3.2347 13.8737L2.06257 15.0422C1.86596 15.2288 1.76449 15.4557 1.76449 15.7303C1.76449 16.0011 1.86596 16.2351 2.06257 16.435L3.51258 17.9016C3.71223 18.0879 3.94595 18.1798 4.21727 18.1798C4.48784 18.1798 4.72484 18.0882 4.9217 17.9016L5.99539 16.811C6.28312 16.997 6.58827 17.1596 6.90654 17.3057C7.22506 17.4509 7.55015 17.5765 7.87877 17.6848V19.3312C7.87877 19.6088 7.97367 19.8423 8.1665 20.0351C8.35958 20.2287 8.59355 20.3236 8.87118 20.3236H10.9373C11.2015 20.3236 11.4317 20.2287 11.6316 20.0351C11.8277 19.8423 11.9262 19.6088 11.9262 19.3312V17.8236C12.2717 17.7426 12.6069 17.6409 12.9287 17.5152C13.254 17.39 13.5693 17.2474 13.8737 17.0884L15.0422 18.2608C15.2288 18.4571 15.4587 18.5589 15.7371 18.5589C16.0178 18.5589 16.2482 18.4574 16.435 18.2608L17.9016 16.811C18.0879 16.6109 18.1798 16.3772 18.1798 16.1063C18.1798 15.8355 18.0882 15.5983 17.9016 15.4019L16.811 14.328C16.9973 14.04 17.1598 13.7353 17.3057 13.4171C17.4509 13.0988 17.5763 12.7732 17.6848 12.4448H19.3312C19.6088 12.4448 19.8423 12.3494 20.0351 12.1569C20.2285 11.9635 20.3234 11.7301 20.3234 11.4522V9.38607C20.3234 9.12181 20.2285 8.89188 20.0351 8.69148C19.8423 8.49512 19.6088 8.39693 19.3312 8.39693H17.8236C17.7424 8.06503 17.6407 7.73313 17.5152 7.40477C17.39 7.07262 17.2474 6.76116 17.0884 6.46939L18.2608 5.28086C18.4571 5.0946 18.5589 4.86744 18.5589 4.59334C18.5589 4.32201 18.4574 4.08855 18.2608 3.88865L16.8108 2.44218ZM28.2476 13.5407C28.1198 13.4511 27.9841 13.4198 27.8369 13.4458C27.6898 13.4713 27.5701 13.5471 27.4833 13.674L27.0017 14.356C26.8281 14.2823 26.6479 14.2232 26.4606 14.174C26.2746 14.125 26.086 14.0874 25.8975 14.0602L25.742 13.1672C25.7155 13.0168 25.6423 12.8989 25.5189 12.8123C25.3962 12.7258 25.2605 12.6965 25.1098 12.723L23.9889 12.9183C23.846 12.9433 23.7302 13.0168 23.6398 13.1402C23.5515 13.2631 23.5199 13.3994 23.5467 13.5503L23.689 14.3676C23.5091 14.4441 23.337 14.5311 23.1749 14.6296C23.0099 14.7285 22.8561 14.8345 22.7135 14.9486L21.9576 14.4254C21.8375 14.3365 21.7055 14.3032 21.5563 14.3287C21.4092 14.3547 21.2923 14.4314 21.2025 14.5569L20.5553 15.4804C20.466 15.6076 20.4344 15.7439 20.4602 15.89C20.4859 16.0377 20.5616 16.1568 20.6886 16.2444L21.3708 16.7257C21.2971 16.8991 21.2378 17.0796 21.1888 17.2669C21.1396 17.4531 21.1023 17.6414 21.0747 17.8299L20.1818 17.9854C20.0313 18.0117 19.9135 18.0854 19.8269 18.2085C19.7401 18.3312 19.7113 18.4672 19.7376 18.6177L19.9327 19.7386C19.9576 19.8814 20.0306 19.9975 20.1548 20.0876C20.2777 20.176 20.414 20.2073 20.5646 20.1808L21.3822 20.0384C21.4589 20.2184 21.5457 20.3902 21.6441 20.553C21.7431 20.7176 21.8498 20.8746 21.9652 21.0248L21.44 21.7698C21.3509 21.8897 21.3175 22.022 21.3433 22.1711C21.369 22.3183 21.4458 22.4354 21.5715 22.525L22.4965 23.183C22.6224 23.265 22.758 23.293 22.9049 23.2673C23.052 23.2418 23.1721 23.1691 23.2607 23.0497L23.74 22.3567C23.9137 22.4306 24.0941 22.4899 24.2812 22.5386C24.4674 22.5876 24.6557 22.6252 24.844 22.6522L25 23.5457C25.0262 23.6964 25.0999 23.814 25.2229 23.9001C25.3455 23.9869 25.4816 24.0162 25.632 23.9899L26.7524 23.7943C26.896 23.7691 27.0118 23.6961 27.1022 23.5724C27.1903 23.4493 27.2218 23.3137 27.1951 23.1626L27.0525 22.3445C27.2324 22.2681 27.4048 22.1815 27.5674 22.0828C27.7317 21.9836 27.8889 21.8774 28.0393 21.7623L28.7841 22.2875C28.904 22.3763 29.0386 22.4094 29.189 22.3829C29.3414 22.3567 29.4568 22.2797 29.5393 22.1555L30.1978 21.2305C30.2796 21.1043 30.3076 20.969 30.2816 20.8221C30.2561 20.6749 30.1839 20.5548 30.0645 20.4662L29.371 19.9869C29.4452 19.8133 29.5042 19.6328 29.5532 19.4458C29.6022 19.2595 29.6395 19.0712 29.6673 18.8824L30.56 18.727C30.7107 18.7007 30.8283 18.6275 30.9146 18.5041C31.0014 18.3809 31.0305 18.2456 31.0042 18.095L30.8086 16.9741C30.7836 16.831 30.7104 16.7154 30.5868 16.6248C30.4638 16.5362 30.3275 16.5054 30.1769 16.5316L29.3594 16.6742C29.2839 16.5016 29.1973 16.3315 29.0981 16.1651C28.9984 15.9968 28.8922 15.8413 28.7783 15.6982L29.3018 14.9423C29.3909 14.8224 29.424 14.6904 29.3977 14.541C29.3722 14.3938 29.2955 14.2772 29.1696 14.1874L28.2476 13.5407ZM25.0275 16.3878C25.2978 16.3403 25.5621 16.3469 25.8218 16.4067C26.0805 16.4688 26.3147 16.5725 26.5227 16.7174C26.7309 16.8643 26.9071 17.0495 27.053 17.2722C27.1976 17.4965 27.2927 17.7429 27.3404 18.0132C27.3876 18.2838 27.3808 18.548 27.3213 18.8082C27.2592 19.0664 27.1559 19.3001 27.0101 19.5089C26.8632 19.7166 26.6784 19.893 26.4558 20.0389C26.2314 20.1835 25.9851 20.2789 25.7145 20.3264C25.4445 20.3733 25.1802 20.3665 24.92 20.307C24.6613 20.2449 24.4278 20.1416 24.2191 19.996C24.0116 19.8491 23.8349 19.6644 23.689 19.4417C23.5447 19.2174 23.4488 18.9708 23.4018 18.7005C23.3544 18.4304 23.3609 18.1661 23.4208 17.9059C23.4828 17.6472 23.5866 17.4135 23.7315 17.2048C23.8786 16.9975 24.0636 16.8209 24.2862 16.675C24.5111 16.5304 24.7574 16.435 25.0275 16.3878ZM10.1619 6.11402C10.7175 6.11402 11.2422 6.21927 11.7399 6.42901C12.2349 6.64253 12.6652 6.93027 13.0309 7.29245C13.3931 7.65817 13.6808 8.08901 13.8944 8.58295C14.1046 9.08092 14.2093 9.60616 14.2093 10.1614C14.2093 10.7169 14.1046 11.2422 13.8944 11.7399C13.6808 12.2343 13.3931 12.6652 13.0309 13.0309C12.6652 13.3933 12.2349 13.6808 11.7399 13.8944C11.2422 14.1046 10.7175 14.2093 10.1619 14.2093C9.60641 14.2093 9.08118 14.1046 8.5832 13.8944C8.08901 13.6808 7.65843 13.3933 7.29296 13.0309C6.93027 12.6652 6.64253 12.2346 6.42901 11.7399C6.21927 11.2422 6.11402 10.7169 6.11402 10.1614C6.11402 9.60616 6.21927 9.08092 6.42901 8.58295C6.64253 8.08876 6.93027 7.65817 7.29296 7.29245C7.65843 6.93027 8.08901 6.64228 8.5832 6.42901C9.08092 6.21927 9.60641 6.11402 10.1619 6.11402Z" fill="#102C53"/>
</g>
<defs>
<clipPath id="clip0_354_137">
<rect width="31.0143" height="24" fill="white"/>
</clipPath>
</defs>
</svg>
