<svg width="92" height="92" viewBox="0 0 92 92" fill="none" xmlns="http://www.w3.org/2000/svg">
<path d="M58.3715 28.6009C59.7674 27.3246 61.9172 27.3615 63.2685 28.6848V28.6848C64.6386 30.0266 64.701 32.2121 63.4095 33.6298L36.8472 62.7884C34.8266 65.0064 31.3797 65.1362 29.1981 63.0763V63.0763C26.9311 60.9357 26.9601 57.3201 29.2612 55.2162L58.3715 28.6009Z" fill="#FF0000"/>
<path d="M58.3715 63.5398C59.7674 64.816 61.9172 64.7792 63.2685 63.4558V63.4558C64.6386 62.114 64.701 59.9285 63.4095 58.5109L36.8472 29.3523C34.8266 27.1342 31.3797 27.0045 29.1981 29.0643V29.0643C26.9311 31.2049 26.9601 34.8205 29.2612 36.9244L58.3715 63.5398Z" fill="#FF0000"/>
<circle cx="46" cy="46" r="42" stroke="#FF0000" stroke-width="8"/>
</svg>
