<svg width="33" height="33" viewBox="0 0 33 33" fill="none" xmlns="http://www.w3.org/2000/svg">
<g clip-path="url(#clip0_4256_2291)">
<path d="M3.33984 18.7724L5.68287 16.5641C6.05397 16.2143 6.54466 16.0195 7.05461 16.0195H12.0928H17.2684C17.6949 16.0195 18.1103 16.1559 18.4539 16.4087L23.4795 20.1074L26.1385 20.5734C26.5752 20.6499 26.9741 20.8694 27.2725 21.1973L28.4816 22.526C29.0056 23.1018 29.1478 23.9293 28.8462 24.647L28.383 25.749C28.071 26.4912 27.3444 26.974 26.5392 26.974H24.9123" stroke="black" stroke-width="2" stroke-linecap="round"/>
<path d="M19.1963 26.9739H16.2038H11.8239M5.80053 26.8298L4.35706 26.8434C3.80113 26.8487 3.34766 26.3994 3.34766 25.8435V24.7109" stroke="black" stroke-width="2" stroke-linecap="round"/>
<circle cx="9.15049" cy="27.4122" r="2.48252" stroke="black" stroke-width="2"/>
<circle cx="22.4747" cy="27.3771" r="2.48252" stroke="black" stroke-width="2"/>
<path d="M8.27734 3.89453H16.3936C17.222 3.89453 17.8936 4.5661 17.8936 5.39453V5.39453C17.8936 6.22296 17.222 6.89453 16.3936 6.89453H13.4404C12.5861 6.89453 11.8936 7.58704 11.8936 8.4413V8.4413C11.8936 9.29556 12.5861 9.98807 13.4404 9.98807H22.8936" stroke="black" stroke-width="2" stroke-linecap="round"/>
<path d="M28.7217 5.04638C28.7217 6.23482 27.9883 8.44364 26.5698 9.86209C25.0664 8.35864 24.418 6.23482 24.418 5.04638C24.418 3.85795 25.3814 2.89453 26.5698 2.89453C27.7583 2.89453 28.7217 3.85795 28.7217 5.04638Z" stroke="black" stroke-width="2"/>
<circle cx="5.34448" cy="3.8894" r="1.00464" fill="black"/>
<path d="M15.5256 18.2254L12.2437 21.7982C12.177 21.8708 12.2193 21.9884 12.317 22.0019L13.7204 22.1963C13.7977 22.207 13.85 22.2805 13.8348 22.357L13.3855 24.6166C13.3576 24.757 13.4342 24.8972 13.5674 24.9496C13.682 24.9946 13.8124 24.9639 13.8949 24.8727L17.0942 21.3351C17.1411 21.2833 17.1682 21.2166 17.1707 21.1467C17.1767 20.9769 17.0392 20.8367 16.8693 20.8396L15.6655 20.8598C15.5275 20.8622 15.4237 20.7348 15.4538 20.6L15.9366 18.4401C15.9545 18.36 15.9301 18.2762 15.8721 18.2181C15.7755 18.1215 15.618 18.1249 15.5256 18.2254Z" fill="black"/>
</g>
<defs>
<clipPath id="clip0_4256_2291">
<rect width="32" height="32" fill="white" transform="translate(0.339844 0.894531)"/>
</clipPath>
</defs>
</svg>
