<svg width="23" height="24" viewBox="0 0 23 24" fill="none" xmlns="http://www.w3.org/2000/svg">
<path fill-rule="evenodd" clip-rule="evenodd" d="M5.64513 0H15.0509C16.419 0 17.5381 1.11881 17.5381 2.48721V12.3397H18.6091V14.1562H20.1591V10.3995C19.3446 10.1956 18.7372 9.45543 18.7372 8.58009V6.25651H19.1525V4.48928C19.1525 3.91279 20.0552 3.91279 20.0552 4.48928V6.25651H21.3243V4.48928C21.3243 3.91279 22.2274 3.91279 22.2274 4.48928V6.25651H22.6428V8.58009C22.6428 9.30187 22.2295 9.93158 21.6279 10.2448V15.6253H18.6091V16.8095H17.5381V18.3642H20.6961V24H0V18.3642H3.15792V2.48721C3.15792 1.11881 4.2771 0 5.64513 0ZM12.1009 7.21061L9.17456 12.144L10.1492 8.26433L8.42904 8.25606L8.8793 4.46806L12.267 4.36089L10.6336 7.17285L12.1009 7.21061ZM5.48977 3.15397H15.2059V12.9482H5.48977V3.15397Z" fill="#102C53"/>
</svg>
