<svg width="44" height="44" viewBox="0 0 44 44" fill="none" xmlns="http://www.w3.org/2000/svg">
<rect width="44" height="33" fill="white" fill-opacity="0.09"/>
<mask id="path-1-inside-1_6415_2101" fill="white">
<path fill-rule="evenodd" clip-rule="evenodd" d="M24.1446 43.8614C35.1105 43.8614 44.0001 34.9718 44.0001 24.0059C44.0001 13.04 35.1105 4.15039 24.1446 4.15039C13.1787 4.15039 4.28906 13.04 4.28906 24.0059C4.28906 28.1942 5.58584 32.0796 7.79979 35.2825L6.88034 42.2683C6.78048 43.0271 7.53513 43.6122 8.2451 43.3265L13.933 41.0377C16.9167 42.8305 20.4102 43.8614 24.1446 43.8614Z"/>
</mask>
<path d="M7.79979 35.2825L9.78269 35.5435L9.88327 34.7793L9.445 34.1453L7.79979 35.2825ZM6.88034 42.2683L4.89744 42.0073H4.89744L6.88034 42.2683ZM8.2451 43.3265L8.99171 45.1819H8.99171L8.2451 43.3265ZM13.933 41.0377L14.963 39.3234L14.1098 38.8107L13.1864 39.1823L13.933 41.0377ZM42.0001 24.0059C42.0001 33.8672 34.0059 41.8614 24.1446 41.8614V45.8614C36.215 45.8614 46.0001 36.0764 46.0001 24.0059H42.0001ZM24.1446 6.15039C34.0059 6.15039 42.0001 14.1446 42.0001 24.0059H46.0001C46.0001 11.9354 36.215 2.15039 24.1446 2.15039V6.15039ZM6.28906 24.0059C6.28906 14.1446 14.2832 6.15039 24.1446 6.15039V2.15039C12.0741 2.15039 2.28906 11.9354 2.28906 24.0059H6.28906ZM9.445 34.1453C7.45466 31.2658 6.28906 27.775 6.28906 24.0059H2.28906C2.28906 28.6134 3.71702 32.8933 6.15458 36.4197L9.445 34.1453ZM8.86324 42.5293L9.78269 35.5435L5.81689 35.0215L4.89744 42.0073L8.86324 42.5293ZM7.49849 41.4711C8.20845 41.1854 8.9631 41.7705 8.86324 42.5293L4.89744 42.0073C4.59785 44.2836 6.86181 46.039 8.99171 45.1819L7.49849 41.4711ZM13.1864 39.1823L7.49848 41.4711L8.99171 45.1819L14.6796 42.8931L13.1864 39.1823ZM24.1446 41.8614C20.7832 41.8614 17.6444 40.9345 14.963 39.3234L12.9029 42.7521C16.189 44.7265 20.0373 45.8614 24.1446 45.8614V41.8614Z" fill="black" mask="url(#path-1-inside-1_6415_2101)"/>
<path d="M22.618 27.4984C22.618 26.3714 22.8059 25.4284 23.1815 24.6694C23.5649 23.9104 24.0862 23.2472 24.7455 22.6799C25.2132 22.2352 25.631 21.7637 25.999 21.2654C26.367 20.7594 26.551 20.1154 26.551 19.3334C26.551 18.5514 26.3555 17.9457 25.9645 17.5164C25.5812 17.087 24.8989 16.8724 23.9175 16.8724C22.9899 16.8724 22.2884 17.1254 21.813 17.6314C21.3454 18.1297 21.1115 18.9577 21.1115 20.1154H18.846C18.846 18.3444 19.2677 17.11 20.111 16.4124C20.9544 15.7147 22.2117 15.3659 23.883 15.3659C25.7154 15.3659 26.9995 15.6879 27.7355 16.3319C28.4792 16.9759 28.851 17.9112 28.851 19.1379C28.851 20.2342 28.6172 21.1082 28.1495 21.7599C27.6895 22.4115 27.1912 22.975 26.6545 23.4504C26.0335 24.0024 25.585 24.6157 25.309 25.2904C25.0407 25.9574 24.9027 26.6934 24.895 27.4984H22.618ZM22.6755 28.9589H24.872V31.0979H22.6755V28.9589Z" fill="black"/>
</svg>
