<svg width="126" height="13" viewBox="0 0 126 13" fill="none" xmlns="http://www.w3.org/2000/svg">
<path d="M0.409091 12V0.363636H7.38636V1.61364H1.81818V5.54545H6.86364V6.79545H1.81818V12H0.409091ZM12.6797 12V0.363636H14.0888V10.75H19.4979V12H12.6797ZM24.5597 12V0.363636H31.5824V1.61364H25.9688V5.54545H31.2188V6.79545H25.9688V10.75H31.6734V12H24.5597ZM37.0022 12V0.363636H44.0249V1.61364H38.4113V5.54545H43.6613V6.79545H38.4113V10.75H44.1159V12H37.0022ZM48.8084 1.61364V0.363636H57.5356V1.61364H53.8765V12H52.4674V1.61364H48.8084ZM61.954 1.61364V0.363636H70.6813V1.61364H67.0222V12H65.6131V1.61364H61.954ZM75.736 12V0.363636H79.6678C80.5769 0.363636 81.3231 0.518939 81.9064 0.829545C82.4898 1.13636 82.9216 1.55871 83.2019 2.09659C83.4822 2.63447 83.6223 3.24621 83.6223 3.93182C83.6223 4.61742 83.4822 5.22538 83.2019 5.75568C82.9216 6.28598 82.4916 6.70265 81.9121 7.00568C81.3326 7.30492 80.592 7.45455 79.6905 7.45455H76.5087V6.18182H79.6451C80.2663 6.18182 80.7663 6.09091 81.1451 5.90909C81.5276 5.72727 81.8041 5.4697 81.9746 5.13636C82.1488 4.79924 82.236 4.39773 82.236 3.93182C82.236 3.46591 82.1488 3.05871 81.9746 2.71023C81.8004 2.36174 81.5219 2.0928 81.1394 1.90341C80.7568 1.71023 80.2511 1.61364 79.6223 1.61364H77.1451V12H75.736ZM81.2132 6.77273L84.0769 12H82.4405L79.6223 6.77273H81.2132ZM89.3276 12H87.8503L92.1231 0.363636H93.5776L97.8503 12H96.3731L92.8958 2.20455H92.8049L89.3276 12ZM89.8731 7.45455H95.8276V8.70455H89.8731V7.45455ZM111.36 4H109.951C109.867 3.5947 109.721 3.23864 109.513 2.93182C109.308 2.625 109.058 2.36742 108.763 2.15909C108.471 1.94697 108.147 1.78788 107.791 1.68182C107.435 1.57576 107.064 1.52273 106.678 1.52273C105.973 1.52273 105.335 1.70076 104.763 2.05682C104.195 2.41288 103.742 2.9375 103.405 3.63068C103.072 4.32386 102.905 5.17424 102.905 6.18182C102.905 7.18939 103.072 8.03977 103.405 8.73295C103.742 9.42614 104.195 9.95076 104.763 10.3068C105.335 10.6629 105.973 10.8409 106.678 10.8409C107.064 10.8409 107.435 10.7879 107.791 10.6818C108.147 10.5758 108.471 10.4186 108.763 10.2102C109.058 9.99811 109.308 9.73864 109.513 9.43182C109.721 9.12121 109.867 8.76515 109.951 8.36364H111.36C111.254 8.95833 111.06 9.49053 110.78 9.96023C110.5 10.4299 110.151 10.8295 109.735 11.1591C109.318 11.4848 108.85 11.733 108.331 11.9034C107.816 12.0739 107.265 12.1591 106.678 12.1591C105.685 12.1591 104.803 11.9167 104.03 11.4318C103.257 10.947 102.649 10.2576 102.206 9.36364C101.763 8.4697 101.541 7.40909 101.541 6.18182C101.541 4.95455 101.763 3.89394 102.206 3C102.649 2.10606 103.257 1.41667 104.03 0.931818C104.803 0.446969 105.685 0.204545 106.678 0.204545C107.265 0.204545 107.816 0.289772 108.331 0.460227C108.85 0.630682 109.318 0.880682 109.735 1.21023C110.151 1.53598 110.5 1.93371 110.78 2.40341C111.06 2.86932 111.254 3.40151 111.36 4ZM116.517 12V0.363636H117.926V6.13636H118.062L123.289 0.363636H125.13L120.244 5.61364L125.13 12H123.426L119.38 6.59091L117.926 8.22727V12H116.517Z" fill="#2B2B2B"/>
</svg>
