<svg width="282" height="60" viewBox="0 0 282 60" fill="none" xmlns="http://www.w3.org/2000/svg">
<path d="M0.75 30C0.75 13.8457 13.8457 0.75 30 0.75H252C268.154 0.75 281.25 13.8457 281.25 30C281.25 46.1543 268.154 59.25 252 59.25H30C13.8457 59.25 0.75 46.1543 0.75 30Z" stroke="#FA751A" stroke-width="1.5"/>
<path d="M161.652 25.636V26.524H158.016V29.344H160.968V30.232H158.016V34H156.924V25.636H161.652ZM168.263 33.112H171.191V34H167.171V25.636H168.263V33.112ZM177.643 26.524V29.32H180.691V30.22H177.643V33.1H181.051V34H176.551V25.624H181.051V26.524H177.643ZM187.995 26.524V29.32H191.043V30.22H187.995V33.1H191.403V34H186.903V25.624H191.403V26.524H187.995ZM202.403 25.636V26.524H200.123V34H199.031V26.524H196.739V25.636H202.403ZM212.351 34L210.359 30.58H209.039V34H207.947V25.636H210.647C211.279 25.636 211.811 25.744 212.243 25.96C212.683 26.176 213.011 26.468 213.227 26.836C213.443 27.204 213.551 27.624 213.551 28.096C213.551 28.672 213.383 29.18 213.047 29.62C212.719 30.06 212.223 30.352 211.559 30.496L213.659 34H212.351ZM209.039 29.704H210.647C211.239 29.704 211.683 29.56 211.979 29.272C212.275 28.976 212.423 28.584 212.423 28.096C212.423 27.6 212.275 27.216 211.979 26.944C211.691 26.672 211.247 26.536 210.647 26.536H209.039V29.704ZM220.54 26.524V29.32H223.588V30.22H220.54V33.1H223.948V34H219.448V25.624H223.948V26.524H220.54ZM234.745 32.14H231.097L230.425 34H229.273L232.297 25.684H233.557L236.569 34H235.417L234.745 32.14ZM234.433 31.252L232.921 27.028L231.409 31.252H234.433ZM244.69 25.636C245.602 25.636 246.39 25.808 247.054 26.152C247.726 26.488 248.238 26.972 248.59 27.604C248.95 28.236 249.13 28.98 249.13 29.836C249.13 30.692 248.95 31.436 248.59 32.068C248.238 32.692 247.726 33.172 247.054 33.508C246.39 33.836 245.602 34 244.69 34H242.086V25.636H244.69ZM244.69 33.1C245.77 33.1 246.594 32.816 247.162 32.248C247.73 31.672 248.014 30.868 248.014 29.836C248.014 28.796 247.726 27.984 247.15 27.4C246.582 26.816 245.762 26.524 244.69 26.524H243.178V33.1H244.69ZM260.627 25.636L257.903 30.844V34H256.811V30.844L254.075 25.636H255.287L257.351 29.872L259.415 25.636H260.627Z" fill="black"/>
<path d="M31.2968 18H31.3572C32.0304 18 32.5827 18.5426 32.5827 19.223V30.5916C32.5827 31.2634 32.039 31.8146 31.3572 31.8146H31.2968C30.6236 31.8146 30.0713 31.272 30.0713 30.5916V19.223C30.0713 18.5512 30.615 18 31.2968 18Z" fill="#E07E27"/>
<path d="M36.3458 18.0085H36.4062C37.0794 18.0085 37.6231 18.5511 37.6231 19.2229V31.8576C37.6231 32.5294 37.0794 33.072 36.4062 33.072H36.3458C35.6726 33.072 35.1289 32.5294 35.1289 31.8576V19.2315C35.1289 18.5598 35.6726 18.0085 36.3458 18.0085Z" fill="#E07E27"/>
<path d="M26.2743 19.292H26.3434C27.0252 19.292 27.5689 19.8432 27.5689 20.515V28.0768C27.5689 28.7572 27.0165 29.2998 26.3434 29.2998H26.2743C25.5925 29.2998 25.0488 28.7486 25.0488 28.0768V20.515C25.0488 19.8346 25.6012 19.292 26.2743 19.292Z" fill="#E07E27"/>
<path d="M41.386 21.7896H41.4723C42.1368 21.7896 42.6805 22.3321 42.6805 22.9953V28.094C42.6805 28.7571 42.1368 29.2997 41.4723 29.2997H41.386C40.7214 29.2997 40.1777 28.7571 40.1777 28.094V22.9953C40.1777 22.3235 40.7128 21.7896 41.386 21.7896Z" fill="#E07E27"/>
<path d="M63.5741 31.7113C63.0303 35.0616 60.0874 36.741 56.8769 36.1554C53.373 35.518 52.1647 32.0988 52.5445 28.9552C52.9242 25.803 55.1767 23.7532 58.4217 23.8652C61.0195 23.9513 62.9527 25.6394 63.4964 28.1371C63.505 28.1715 63.4877 28.1887 63.4532 28.1887H62.2881C62.2536 28.1887 62.2277 28.1715 62.2191 28.1371C61.8135 26.6901 60.9245 25.7428 59.5437 25.3035C58.603 25.0021 57.4292 25.0365 56.4972 25.381C54.4345 26.1303 53.6146 28.2232 53.7096 30.316C53.7614 31.539 54.0116 32.6759 54.797 33.606C55.5047 34.4501 56.454 34.9238 57.6536 35.0185C59.9579 35.2166 61.8394 34.0367 62.3054 31.7113C62.314 31.6854 62.3313 31.6682 62.3572 31.6682H63.5395C63.5654 31.6682 63.5827 31.6854 63.5741 31.7113Z" fill="black"/>
<path d="M66.0173 30.2299V34.8118C66.0173 34.8291 66.0346 34.8463 66.0519 34.8463H72.7749C72.7922 34.8463 72.8094 34.8635 72.8094 34.8807V35.9659C72.8094 35.9831 72.7922 36.0004 72.7749 36.0004H64.8177C64.8005 36.0004 64.7832 35.9831 64.7832 35.9659V24.1494C64.7832 24.1322 64.8005 24.115 64.8177 24.115H72.7663C72.7835 24.115 72.8008 24.1322 72.8008 24.1494V25.2605C72.8008 25.2777 72.7835 25.2949 72.7663 25.2949H66.0432C66.026 25.2949 66.0087 25.3121 66.0087 25.3294V28.9983C66.0087 29.0156 66.026 29.0328 66.0432 29.0328H71.6875C71.7047 29.0328 71.722 29.05 71.722 29.0672V30.1783C71.722 30.1955 71.7047 30.2127 71.6875 30.2127L66.0432 30.1783C66.0346 30.1955 66.0173 30.2127 66.0173 30.2299Z" fill="black"/>
<path d="M75.7353 30.8674V35.9919C75.7353 36.0177 75.718 36.0349 75.6921 36.0349H74.5012C74.4753 36.0349 74.458 36.0177 74.458 35.9919V24.1582C74.458 24.1323 74.4753 24.1151 74.5012 24.1151C76.9522 24.1065 78.6351 24.1065 79.5499 24.1151C80.2576 24.1237 81.0171 24.3563 81.6384 24.6749C82.933 25.3467 83.4422 26.6041 83.2955 28.0252C83.1401 29.4894 82.2857 30.4367 80.7409 30.8501C80.715 30.8588 80.7064 30.876 80.7236 30.8932L83.563 35.9833C83.5803 36.0177 83.5716 36.0349 83.5285 36.0349H82.1908C82.1563 36.0349 82.139 36.0177 82.1217 35.9919L79.2651 30.8501C79.2565 30.8329 79.2392 30.8243 79.222 30.8243H75.7698C75.7439 30.8329 75.7353 30.8415 75.7353 30.8674ZM82.0441 27.9735C82.3116 26.5008 81.1724 25.3725 79.6966 25.3553C78.9544 25.3467 77.6512 25.3467 75.7698 25.3553C75.7439 25.3553 75.7267 25.3725 75.7267 25.3984V29.5583C75.7267 29.5841 75.7439 29.6013 75.7698 29.6013C77.1507 29.6013 78.5315 29.5927 79.9124 29.5755C81.0257 29.5669 81.8369 29.1362 82.0441 27.9735Z" fill="black"/>
<path d="M85.8669 30.2299V34.8118C85.8669 34.8291 85.8842 34.8463 85.9015 34.8463H92.6245C92.6418 34.8463 92.659 34.8635 92.659 34.8807V35.9745C92.659 35.9918 92.6418 36.009 92.6245 36.009H84.6673C84.6501 36.009 84.6328 35.9918 84.6328 35.9745V24.1494C84.6328 24.1322 84.6501 24.115 84.6673 24.115H92.6245C92.6418 24.115 92.659 24.1322 92.659 24.1494V25.2605C92.659 25.2777 92.6418 25.2949 92.6245 25.2949H85.9015C85.8842 25.2949 85.8669 25.3121 85.8669 25.3294V29.0069C85.8669 29.0242 85.8842 29.0414 85.9015 29.0414H91.5457C91.563 29.0414 91.5802 29.0586 91.5802 29.0758V30.1869C91.5802 30.2041 91.563 30.2213 91.5457 30.2213L85.9015 30.1869C85.8842 30.1955 85.8669 30.2127 85.8669 30.2299Z" fill="black"/>
<path d="M100.858 29.8855C101.825 30.0577 102.463 30.6003 102.766 31.5133C103.24 32.9344 102.981 34.7602 101.514 35.5095C100.893 35.8282 100.194 35.9918 99.4083 36.0004C97.7168 36.009 96.0338 36.0177 94.3596 36.0177C94.3337 36.0177 94.3164 36.0004 94.3164 35.9746V24.1323C94.3164 24.1237 94.325 24.1064 94.3423 24.1064C95.7059 24.1064 97.0781 24.1064 98.4503 24.1064C99.0199 24.1064 99.4515 24.1409 99.7622 24.2184C101.575 24.6749 102.671 26.561 102.11 28.3869C101.911 29.0242 101.497 29.5152 100.867 29.8338C100.815 29.8683 100.815 29.8769 100.858 29.8855ZM100.91 26.7161C100.599 25.6998 99.5809 25.3122 98.6057 25.3036C97.6046 25.295 96.5948 25.295 95.5851 25.3036C95.5592 25.3036 95.5419 25.3208 95.5419 25.3467V29.2998C95.5419 29.3257 95.5592 29.3429 95.5851 29.3429C96.6207 29.3515 97.6563 29.3429 98.692 29.3343C99.3393 29.3257 100.151 29.1965 100.591 28.6883C101.014 28.1888 101.1 27.3276 100.91 26.7161ZM101.747 33.0205C101.842 31.5391 100.711 30.5314 99.2702 30.5228C98.0447 30.5142 96.8192 30.5142 95.5851 30.5228C95.5592 30.5228 95.5419 30.54 95.5419 30.5659V34.7774C95.5419 34.8033 95.5592 34.8205 95.5851 34.8205C96.8019 34.8205 98.0102 34.8205 99.2271 34.8205C100.461 34.8291 101.661 34.4157 101.747 33.0205Z" fill="black"/>
<path d="M105.596 30.8672V35.9917C105.596 36.0175 105.578 36.0347 105.552 36.0347H104.362C104.336 36.0347 104.318 36.0175 104.318 35.9917V24.158C104.318 24.1321 104.327 24.1235 104.353 24.1235C107.011 24.1063 108.728 24.1063 109.488 24.1235C110.291 24.1407 111.033 24.3733 111.706 24.8125C112.793 25.5188 113.268 26.5437 113.156 27.8183C113.018 29.4547 112.163 30.4624 110.593 30.8413C110.558 30.8499 110.549 30.8672 110.567 30.9016L113.406 35.9917C113.423 36.0261 113.415 36.0433 113.372 36.0433H112.017C111.991 36.0433 111.973 36.0347 111.965 36.0089L109.125 30.8672C109.108 30.8413 109.091 30.8327 109.056 30.8327H105.622C105.604 30.8327 105.596 30.8413 105.596 30.8672ZM111.904 27.9906C112.172 26.5264 111.05 25.381 109.583 25.3637C108.918 25.3551 107.598 25.3551 105.63 25.3637C105.604 25.3637 105.587 25.381 105.587 25.4068V29.5581C105.587 29.5925 105.604 29.6011 105.63 29.6011C107.02 29.6011 108.401 29.5925 109.79 29.5753C110.144 29.5667 110.463 29.515 110.748 29.4203C111.43 29.1877 111.775 28.6882 111.904 27.9906Z" fill="black"/>
<path d="M115.607 31.6941C115.607 34.4243 117.859 35.4664 120.25 34.898C121.104 34.6999 121.76 34.2089 122.175 33.4252C122.425 32.9429 122.554 32.4434 122.554 31.9266C122.563 29.3342 122.563 26.7504 122.554 24.1581C122.554 24.1322 122.572 24.115 122.597 24.115H123.737C123.762 24.115 123.78 24.1322 123.78 24.1581C123.78 26.6299 123.78 29.0931 123.78 31.5649C123.78 33.6405 122.77 35.5525 120.656 36.0865C119.862 36.2846 119.007 36.3276 118.084 36.2071C116.97 36.0607 116.09 35.587 115.426 34.7946C114.744 33.9678 114.373 32.7276 114.373 31.651C114.364 29.1534 114.364 26.6557 114.373 24.1581C114.373 24.1322 114.39 24.115 114.416 24.115H115.555C115.581 24.115 115.598 24.1322 115.598 24.1581C115.607 26.6643 115.607 29.1792 115.607 31.6941Z" fill="black"/>
<path d="M135.828 25.6567L131.78 35.9746C131.771 36.0004 131.746 36.0177 131.72 36.0177H130.684C130.649 36.0177 130.632 36.0004 130.624 35.9746L126.593 25.717C126.559 25.6309 126.541 25.6309 126.541 25.7256V35.9746C126.541 36.0004 126.524 36.0177 126.498 36.0177H125.359C125.316 36.0177 125.29 36.0004 125.29 35.9488V24.1495C125.29 24.1237 125.307 24.1064 125.333 24.1064H127.215C127.249 24.1064 127.266 24.1237 127.275 24.1495L131.176 34.209C131.185 34.2262 131.193 34.2262 131.21 34.2262C131.219 34.2262 131.219 34.2176 131.228 34.209L135.111 24.1409C135.12 24.1237 135.137 24.1064 135.163 24.1064H137.053C137.079 24.1064 137.096 24.1237 137.096 24.1495V35.966C137.096 35.9918 137.079 36.009 137.053 36.009H135.905C135.879 36.009 135.862 35.9918 135.862 35.966V25.6653C135.862 25.5964 135.854 25.5964 135.828 25.6567Z" fill="black"/>
<path d="M146.158 24.115H149.403C149.421 24.115 149.438 24.1323 149.438 24.1495C149.438 24.1581 149.438 24.1667 149.429 24.1753L145.339 30.0491C145.33 30.0577 145.33 30.0836 145.339 30.0922L149.429 35.966C149.438 35.9832 149.438 36.009 149.421 36.0176C149.412 36.0176 149.403 36.0263 149.403 36.0263H146.167C146.158 36.0263 146.141 36.0176 146.141 36.009L143.699 32.5037C143.69 32.4865 143.664 32.4865 143.647 32.4951L143.638 32.5037L141.196 36.009C141.187 36.0176 141.179 36.0263 141.162 36.0263H137.925C137.908 36.0263 137.891 36.009 137.891 35.9918C137.891 35.9832 137.891 35.9746 137.899 35.9746L141.99 30.1008C141.999 30.0922 141.999 30.0663 141.99 30.0577L137.899 24.1839C137.891 24.1667 137.891 24.1409 137.908 24.1323C137.917 24.1237 137.925 24.1237 137.934 24.1237H141.179C141.187 24.1237 141.205 24.1323 141.205 24.1409L143.647 27.6462C143.656 27.6634 143.682 27.6634 143.699 27.6548L143.707 27.6462L146.141 24.1409C146.141 24.115 146.15 24.1064 146.158 24.115Z" fill="black"/>
<path d="M21.2082 24.3044H21.2687C21.9332 24.3044 22.4769 24.847 22.4769 25.5102V33.141C22.4769 33.8041 21.9332 34.3467 21.2687 34.3467H21.2082C20.5437 34.3467 20 33.8041 20 33.141V25.5102C20 24.8384 20.5437 24.3044 21.2082 24.3044Z" fill="#E07E27"/>
<path d="M46.4088 26.8193H46.5123C47.1769 26.8193 47.7119 27.3533 47.7119 28.0079L47.7292 31.8749C47.7292 32.5381 47.1941 33.0721 46.5382 33.0721H46.4346C45.7701 33.0721 45.235 32.5381 45.235 31.8835L45.2178 28.0165C45.2178 27.3619 45.7529 26.8193 46.4088 26.8193Z" fill="#E07E27"/>
<path d="M26.1965 31.8491H26.3519C26.9905 31.8491 27.5169 32.3659 27.5169 33.0032V34.4243C27.5169 35.0616 26.9991 35.587 26.3605 35.587H26.2051C25.5665 35.587 25.04 35.0702 25.04 34.4329V33.0118C25.04 32.3659 25.5579 31.8491 26.1965 31.8491Z" fill="#E07E27"/>
<path d="M41.3513 31.8491H41.5153C42.1626 31.8491 42.6804 32.3745 42.6804 33.0204L42.6717 34.4071C42.6717 35.053 42.1453 35.5698 41.498 35.5698H41.334C40.6868 35.5698 40.1689 35.0444 40.1689 34.3984L40.1776 33.0118C40.1776 32.3745 40.704 31.8491 41.3513 31.8491Z" fill="#E07E27"/>
<path d="M31.254 34.364H31.4093C32.048 34.364 32.5744 34.8808 32.5744 35.5267V36.9392C32.5744 37.5765 32.0566 38.1019 31.4093 38.1019H31.254C30.6153 38.1019 30.0889 37.5851 30.0889 36.9392V35.5267C30.0889 34.8808 30.6067 34.364 31.254 34.364Z" fill="#E07E27"/>
<path d="M36.2938 35.6299H36.4578C37.1051 35.6299 37.6229 36.1553 37.6229 36.8012V38.1964C37.6229 38.8424 37.0965 39.3591 36.4492 39.3591H36.2852C35.6379 39.3591 35.1201 38.8338 35.1201 38.1878V36.7926C35.1201 36.1553 35.6466 35.6299 36.2938 35.6299Z" fill="#E07E27"/>
<path d="M46.3917 35.6299H46.5556C47.1943 35.6299 47.7207 36.1466 47.7207 36.7926V38.205C47.7207 38.8424 47.2029 39.3677 46.5556 39.3677H46.3917C45.753 39.3677 45.2266 38.851 45.2266 38.205V36.7926C45.2266 36.1466 45.7444 35.6299 46.3917 35.6299Z" fill="#E07E27"/>
<path d="M41.3599 38.1449H41.5239C42.1712 38.1535 42.6804 38.6789 42.6804 39.3162L42.6631 40.72C42.6545 41.366 42.128 41.8741 41.4894 41.8741H41.3254C40.6781 41.8655 40.1689 41.3402 40.1689 40.7028L40.1862 39.299C40.1862 38.653 40.7213 38.1363 41.3599 38.1449Z" fill="#E07E27"/>
</svg>
