<svg width="42" height="42" viewBox="0 0 42 42" fill="none" xmlns="http://www.w3.org/2000/svg">
<circle cx="21" cy="21" r="21" fill="#DCF4FA"/>
<rect width="22" height="19" transform="translate(10 11)" fill="#DCF4FA"/>
<path d="M13 27H29" stroke="#333333" stroke-width="1.5" stroke-linecap="round" stroke-linejoin="round"/>
<path d="M15 27V29C15 29.55 14.55 30 14 30H12C11.45 30 11 29.55 11 29V22.18C11 21.4 11.18 20.64 11.53 19.94L13.9 15.21C14.58 13.85 15.96 13 17.48 13H24.54C26.06 13 27.44 13.86 28.12 15.21L30.49 19.94C30.84 20.63 31.02 21.4 31.02 22.18V29C31.02 29.55 30.57 30 30.02 30H28.02C27.47 30 27.02 29.55 27.02 29V27" stroke="#333333" stroke-width="1.5" stroke-linecap="round" stroke-linejoin="round"/>
<path d="M32 19.0098H29.5C29.5 19.0098 26 19.9998 21 19.9998C16 19.9998 12.5 19.0098 12.5 19.0098H10" stroke="#333333" stroke-width="1.5" stroke-linecap="round" stroke-linejoin="round"/>
<path d="M28 22C28 22.55 27.55 23 27 23H25" stroke="#333333" stroke-width="1.5" stroke-linecap="round" stroke-linejoin="round"/>
<path d="M14 22C14 22.55 14.45 23 15 23H17" stroke="#333333" stroke-width="1.5" stroke-linecap="round" stroke-linejoin="round"/>
<path d="M19 25H23" stroke="#333333" stroke-width="1.5" stroke-linecap="round" stroke-linejoin="round"/>
<path d="M18 13L18.72 11.55C18.89 11.21 19.24 11 19.61 11H22.37C22.75 11 23.1 11.21 23.26 11.55L23.98 13" stroke="#333333" stroke-width="1.5" stroke-linecap="round" stroke-linejoin="round"/>
</svg>
