<svg width="118" height="12" viewBox="0 0 118 12" fill="none" xmlns="http://www.w3.org/2000/svg">
<path d="M0.676492 11.2959V0.386807H7.21768V1.55868H1.99751V5.24476H6.72763V6.41664H1.99751V11.2959H0.676492ZM12.1802 11.2959V0.386807H13.5012V10.124H18.5722V11.2959H12.1802ZM23.3177 11.2959V0.386807H29.9015V1.55868H24.6387V5.24476H29.5606V6.41664H24.6387V10.124H29.9867V11.2959H23.3177ZM34.9825 11.2959V0.386807H41.5664V1.55868H36.3036V5.24476H41.2254V6.41664H36.3036V10.124H41.6516V11.2959H34.9825ZM46.0508 1.55868V0.386807H54.2326V1.55868H50.8022V11.2959H49.4812V1.55868H46.0508ZM58.3748 1.55868V0.386807H66.5566V1.55868H63.1262V11.2959H61.8052V1.55868H58.3748ZM71.2954 11.2959V0.386807H74.9815C75.8338 0.386807 76.5334 0.532404 77.0802 0.823597C77.6271 1.11124 78.0319 1.50719 78.2947 2.01145C78.5575 2.51571 78.6889 3.08922 78.6889 3.73198C78.6889 4.37473 78.5575 4.94469 78.2947 5.44185C78.0319 5.93901 77.6289 6.32963 77.0856 6.61372C76.5422 6.89426 75.848 7.03453 75.0028 7.03453H72.0199V5.84135H74.9602C75.5426 5.84135 76.0113 5.75613 76.3665 5.58567C76.7251 5.41522 76.9844 5.17374 77.1442 4.86124C77.3075 4.54519 77.3892 4.16877 77.3892 3.73198C77.3892 3.29519 77.3075 2.91344 77.1442 2.58674C76.9808 2.26003 76.7198 2.0079 76.3611 1.83034C76.0025 1.64924 75.5284 1.55868 74.9389 1.55868H72.6165V11.2959H71.2954ZM76.4304 6.39533L79.115 11.2959H77.5809L74.9389 6.39533H76.4304ZM84.0376 11.2959H82.6527L86.6583 0.386807H88.022L92.0277 11.2959H90.6427L87.3828 2.11266H87.2976L84.0376 11.2959ZM84.549 7.03453H90.1314V8.20641H84.549V7.03453ZM104.693 3.7959H103.372C103.293 3.41593 103.157 3.08212 102.961 2.79448C102.77 2.50684 102.535 2.26536 102.258 2.07005C101.985 1.87118 101.681 1.72203 101.347 1.6226C101.014 1.52317 100.666 1.47346 100.303 1.47346C99.6429 1.47346 99.0445 1.64036 98.5083 1.97417C97.9756 2.30797 97.5513 2.7998 97.2352 3.44966C96.9227 4.09952 96.7665 4.89675 96.7665 5.84135C96.7665 6.78596 96.9227 7.58319 97.2352 8.23304C97.5513 8.8829 97.9756 9.37473 98.5083 9.70854C99.0445 10.0423 99.6429 10.2093 100.303 10.2093C100.666 10.2093 101.014 10.1595 101.347 10.0601C101.681 9.96067 101.985 9.8133 102.258 9.61799C102.535 9.41912 102.77 9.17587 102.961 8.88823C103.157 8.59703 103.293 8.26323 103.372 7.88681H104.693C104.593 8.44434 104.412 8.94327 104.149 9.38361C103.886 9.82395 103.56 10.1986 103.169 10.5075C102.779 10.8129 102.34 11.0455 101.853 11.2053C101.371 11.3651 100.854 11.445 100.303 11.445C99.373 11.445 98.5456 11.2178 97.8211 10.7632C97.0967 10.3087 96.5268 9.66238 96.1113 8.82431C95.6958 7.98624 95.488 6.99192 95.488 5.84135C95.488 4.69078 95.6958 3.69647 96.1113 2.8584C96.5268 2.02033 97.0967 1.37402 97.8211 0.919478C98.5456 0.464932 99.373 0.237659 100.303 0.237659C100.854 0.237659 101.371 0.31756 101.853 0.477361C102.34 0.637163 102.779 0.871538 103.169 1.18049C103.56 1.48588 103.886 1.85875 104.149 2.29909C104.412 2.73588 104.593 3.23482 104.693 3.7959ZM109.527 11.2959V0.386807H110.848V5.79874H110.976L115.877 0.386807H117.603L113.022 5.30868L117.603 11.2959H116.005L112.212 6.22488L110.848 7.75897V11.2959H109.527Z" fill="#2F2F2F"/>
</svg>
