<svg width="705" height="534" viewBox="0 0 705 534" fill="none" xmlns="http://www.w3.org/2000/svg">
<rect width="705" height="534" fill="white"/>
<path d="M56.8868 451.132C56.8868 449.298 57.1854 447.868 57.7828 446.844C58.3801 445.81 59.4254 445.292 60.9188 445.292C62.4014 445.292 63.4414 445.81 64.0388 446.844C64.6361 447.868 64.9348 449.298 64.9348 451.132C64.9348 452.999 64.6361 454.45 64.0388 455.484C63.4414 456.519 62.4014 457.036 60.9188 457.036C59.4254 457.036 58.3801 456.519 57.7828 455.484C57.1854 454.45 56.8868 452.999 56.8868 451.132ZM63.4948 451.132C63.4948 450.204 63.4308 449.42 63.3028 448.78C63.1854 448.13 62.9348 447.607 62.5508 447.212C62.1774 446.818 61.6334 446.62 60.9188 446.62C60.1934 446.62 59.6388 446.818 59.2548 447.212C58.8814 447.607 58.6308 448.13 58.5028 448.78C58.3854 449.42 58.3268 450.204 58.3268 451.132C58.3268 452.092 58.3854 452.898 58.5028 453.548C58.6308 454.199 58.8814 454.722 59.2548 455.116C59.6388 455.511 60.1934 455.708 60.9188 455.708C61.6334 455.708 62.1774 455.511 62.5508 455.116C62.9348 454.722 63.1854 454.199 63.3028 453.548C63.4308 452.898 63.4948 452.092 63.4948 451.132Z" fill="#BAB5B5"/>
<path d="M56.608 363.76V362.432H59.616V374H58.144V363.76H56.608Z" fill="#BAB5B5"/>
<path d="M56.663 281.051C57.7637 280.167 58.626 279.443 59.25 278.88C59.874 278.308 60.3983 277.714 60.823 277.099C61.2563 276.475 61.473 275.864 61.473 275.266C61.473 274.703 61.3343 274.261 61.057 273.94C60.7883 273.611 60.3507 273.446 59.744 273.446C59.1547 273.446 58.6953 273.632 58.366 274.005C58.0453 274.369 57.872 274.859 57.846 275.474H56.702C56.7367 274.503 57.0313 273.754 57.586 273.225C58.1407 272.696 58.8557 272.432 59.731 272.432C60.6237 272.432 61.33 272.679 61.85 273.173C62.3787 273.667 62.643 274.347 62.643 275.214C62.643 275.933 62.4263 276.635 61.993 277.32C61.5683 277.996 61.083 278.594 60.537 279.114C59.991 279.625 59.2933 280.223 58.444 280.908H62.916V281.896H56.663V281.051Z" fill="#BAB5B5"/>
<path d="M56.96 185.344C57.0347 184.363 57.4133 183.595 58.096 183.04C58.7787 182.485 59.664 182.208 60.752 182.208C61.4773 182.208 62.1013 182.341 62.624 182.608C63.1573 182.864 63.5573 183.216 63.824 183.664C64.1013 184.112 64.24 184.619 64.24 185.184C64.24 185.845 64.048 186.416 63.664 186.896C63.2907 187.376 62.8 187.685 62.192 187.824V187.904C62.8853 188.075 63.4347 188.411 63.84 188.912C64.2453 189.413 64.448 190.069 64.448 190.88C64.448 191.488 64.3093 192.037 64.032 192.528C63.7547 193.008 63.3387 193.387 62.784 193.664C62.2293 193.941 61.5627 194.08 60.784 194.08C59.6533 194.08 58.7253 193.787 58 193.2C57.2747 192.603 56.8693 191.76 56.784 190.672H58.192C58.2667 191.312 58.528 191.835 58.976 192.24C59.424 192.645 60.0213 192.848 60.768 192.848C61.5147 192.848 62.08 192.656 62.464 192.272C62.8587 191.877 63.056 191.371 63.056 190.752C63.056 189.952 62.7893 189.376 62.256 189.024C61.7227 188.672 60.9173 188.496 59.84 188.496H59.472V187.28H59.856C60.8373 187.269 61.5787 187.109 62.08 186.8C62.5813 186.48 62.832 185.989 62.832 185.328C62.832 184.763 62.6453 184.309 62.272 183.968C61.9093 183.627 61.3867 183.456 60.704 183.456C60.0427 183.456 59.5093 183.627 59.104 183.968C58.6987 184.309 58.4587 184.768 58.384 185.344H56.96Z" fill="#BAB5B5"/>
<path d="M56.64 96.424V95.32L62.256 87.544H64V95.16H65.6V96.424H64V99H62.56V96.424H56.64ZM62.624 89.064L58.32 95.16H62.624V89.064Z" fill="#BAB5B5"/>
<path d="M64.368 17.696H58.752V21.344C58.9973 21.0027 59.36 20.7253 59.84 20.512C60.32 20.288 60.8373 20.176 61.392 20.176C62.2773 20.176 62.9973 20.3627 63.552 20.736C64.1067 21.0987 64.5013 21.5733 64.736 22.16C64.9813 22.736 65.104 23.3493 65.104 24C65.104 24.768 64.96 25.456 64.672 26.064C64.384 26.672 63.9413 27.152 63.344 27.504C62.7573 27.856 62.0267 28.032 61.152 28.032C60.032 28.032 59.1253 27.744 58.432 27.168C57.7387 26.592 57.3173 25.824 57.168 24.864H58.592C58.7307 25.472 59.024 25.9467 59.472 26.288C59.92 26.6293 60.4853 26.8 61.168 26.8C62.0107 26.8 62.6453 26.5493 63.072 26.048C63.4987 25.536 63.712 24.864 63.712 24.032C63.712 23.2 63.4987 22.56 63.072 22.112C62.6453 21.6533 62.016 21.424 61.184 21.424C60.6187 21.424 60.1227 21.5627 59.696 21.84C59.28 22.1067 58.976 22.4747 58.784 22.944H57.408V16.416H64.368V17.696Z" fill="#BAB5B5"/>
<path d="M219.25 251H214.7L196.4 223.25V251H191.85V216.1H196.4L214.7 243.8V216.1H219.25V251ZM238.956 251.45C236.39 251.45 234.056 250.867 231.956 249.7C229.89 248.533 228.256 246.883 227.056 244.75C225.89 242.583 225.306 240.083 225.306 237.25C225.306 234.45 225.906 231.983 227.106 229.85C228.34 227.683 230.006 226.033 232.106 224.9C234.206 223.733 236.556 223.15 239.156 223.15C241.756 223.15 244.106 223.733 246.206 224.9C248.306 226.033 249.956 227.667 251.156 229.8C252.39 231.933 253.006 234.417 253.006 237.25C253.006 240.083 252.373 242.583 251.106 244.75C249.873 246.883 248.19 248.533 246.056 249.7C243.923 250.867 241.556 251.45 238.956 251.45ZM238.956 247.45C240.59 247.45 242.123 247.067 243.556 246.3C244.99 245.533 246.14 244.383 247.006 242.85C247.906 241.317 248.356 239.45 248.356 237.25C248.356 235.05 247.923 233.183 247.056 231.65C246.19 230.117 245.056 228.983 243.656 228.25C242.256 227.483 240.74 227.1 239.106 227.1C237.44 227.1 235.906 227.483 234.506 228.25C233.14 228.983 232.04 230.117 231.206 231.65C230.373 233.183 229.956 235.05 229.956 237.25C229.956 239.483 230.356 241.367 231.156 242.9C231.99 244.433 233.09 245.583 234.456 246.35C235.823 247.083 237.323 247.45 238.956 247.45ZM283.169 216.15C286.969 216.15 290.252 216.867 293.019 218.3C295.819 219.7 297.952 221.717 299.419 224.35C300.919 226.983 301.669 230.083 301.669 233.65C301.669 237.217 300.919 240.317 299.419 242.95C297.952 245.55 295.819 247.55 293.019 248.95C290.252 250.317 286.969 251 283.169 251H272.319V216.15H283.169ZM283.169 247.25C287.669 247.25 291.102 246.067 293.469 243.7C295.835 241.3 297.019 237.95 297.019 233.65C297.019 229.317 295.819 225.933 293.419 223.5C291.052 221.067 287.635 219.85 283.169 219.85H276.869V247.25H283.169ZM305.97 237.2C305.97 234.4 306.537 231.95 307.67 229.85C308.804 227.717 310.354 226.067 312.32 224.9C314.32 223.733 316.537 223.15 318.97 223.15C321.37 223.15 323.454 223.667 325.22 224.7C326.987 225.733 328.304 227.033 329.17 228.6V223.6H333.77V251H329.17V245.9C328.27 247.5 326.92 248.833 325.12 249.9C323.354 250.933 321.287 251.45 318.92 251.45C316.487 251.45 314.287 250.85 312.32 249.65C310.354 248.45 308.804 246.767 307.67 244.6C306.537 242.433 305.97 239.967 305.97 237.2ZM329.17 237.25C329.17 235.183 328.754 233.383 327.92 231.85C327.087 230.317 325.954 229.15 324.52 228.35C323.12 227.517 321.57 227.1 319.87 227.1C318.17 227.1 316.62 227.5 315.22 228.3C313.82 229.1 312.704 230.267 311.87 231.8C311.037 233.333 310.62 235.133 310.62 237.2C310.62 239.3 311.037 241.133 311.87 242.7C312.704 244.233 313.82 245.417 315.22 246.25C316.62 247.05 318.17 247.45 319.87 247.45C321.57 247.45 323.12 247.05 324.52 246.25C325.954 245.417 327.087 244.233 327.92 242.7C328.754 241.133 329.17 239.317 329.17 237.25ZM347.009 227.35V243.5C347.009 244.833 347.293 245.783 347.859 246.35C348.426 246.883 349.409 247.15 350.809 247.15H354.159V251H350.059C347.526 251 345.626 250.417 344.359 249.25C343.093 248.083 342.459 246.167 342.459 243.5V227.35H338.909V223.6H342.459V216.7H347.009V223.6H354.159V227.35H347.009ZM357.972 237.2C357.972 234.4 358.539 231.95 359.672 229.85C360.806 227.717 362.356 226.067 364.322 224.9C366.322 223.733 368.539 223.15 370.972 223.15C373.372 223.15 375.456 223.667 377.222 224.7C378.989 225.733 380.306 227.033 381.172 228.6V223.6H385.772V251H381.172V245.9C380.272 247.5 378.922 248.833 377.122 249.9C375.356 250.933 373.289 251.45 370.922 251.45C368.489 251.45 366.289 250.85 364.322 249.65C362.356 248.45 360.806 246.767 359.672 244.6C358.539 242.433 357.972 239.967 357.972 237.2ZM381.172 237.25C381.172 235.183 380.756 233.383 379.922 231.85C379.089 230.317 377.956 229.15 376.522 228.35C375.122 227.517 373.572 227.1 371.872 227.1C370.172 227.1 368.622 227.5 367.222 228.3C365.822 229.1 364.706 230.267 363.872 231.8C363.039 233.333 362.622 235.133 362.622 237.2C362.622 239.3 363.039 241.133 363.872 242.7C364.706 244.233 365.822 245.417 367.222 246.25C368.622 247.05 370.172 247.45 371.872 247.45C373.572 247.45 375.122 247.05 376.522 246.25C377.956 245.417 379.089 244.233 379.922 242.7C380.756 241.133 381.172 239.317 381.172 237.25ZM426.491 216.15V219.85H411.341V231.6H423.641V235.3H411.341V251H406.791V216.15H426.491ZM443.937 251.45C441.37 251.45 439.037 250.867 436.937 249.7C434.87 248.533 433.237 246.883 432.037 244.75C430.87 242.583 430.287 240.083 430.287 237.25C430.287 234.45 430.887 231.983 432.087 229.85C433.32 227.683 434.987 226.033 437.087 224.9C439.187 223.733 441.537 223.15 444.137 223.15C446.737 223.15 449.087 223.733 451.187 224.9C453.287 226.033 454.937 227.667 456.137 229.8C457.37 231.933 457.987 234.417 457.987 237.25C457.987 240.083 457.353 242.583 456.087 244.75C454.853 246.883 453.17 248.533 451.037 249.7C448.903 250.867 446.537 251.45 443.937 251.45ZM443.937 247.45C445.57 247.45 447.103 247.067 448.537 246.3C449.97 245.533 451.12 244.383 451.987 242.85C452.887 241.317 453.337 239.45 453.337 237.25C453.337 235.05 452.903 233.183 452.037 231.65C451.17 230.117 450.037 228.983 448.637 228.25C447.237 227.483 445.72 227.1 444.087 227.1C442.42 227.1 440.887 227.483 439.487 228.25C438.12 228.983 437.02 230.117 436.187 231.65C435.353 233.183 434.937 235.05 434.937 237.25C434.937 239.483 435.337 241.367 436.137 242.9C436.97 244.433 438.07 245.583 439.437 246.35C440.803 247.083 442.303 247.45 443.937 247.45ZM488.269 223.6V251H483.719V246.95C482.852 248.35 481.636 249.45 480.069 250.25C478.536 251.017 476.836 251.4 474.969 251.4C472.836 251.4 470.919 250.967 469.219 250.1C467.519 249.2 466.169 247.867 465.169 246.1C464.202 244.333 463.719 242.183 463.719 239.65V223.6H468.219V239.05C468.219 241.75 468.902 243.833 470.269 245.3C471.636 246.733 473.502 247.45 475.869 247.45C478.302 247.45 480.219 246.7 481.619 245.2C483.019 243.7 483.719 241.517 483.719 238.65V223.6H488.269ZM509.302 223.1C512.635 223.1 515.335 224.117 517.402 226.15C519.468 228.15 520.502 231.05 520.502 234.85V251H516.002V235.5C516.002 232.767 515.318 230.683 513.952 229.25C512.585 227.783 510.718 227.05 508.352 227.05C505.952 227.05 504.035 227.8 502.602 229.3C501.202 230.8 500.502 232.983 500.502 235.85V251H495.952V223.6H500.502V227.5C501.402 226.1 502.618 225.017 504.152 224.25C505.718 223.483 507.435 223.1 509.302 223.1ZM526.234 237.2C526.234 234.4 526.801 231.95 527.934 229.85C529.067 227.717 530.617 226.067 532.584 224.9C534.584 223.733 536.817 223.15 539.284 223.15C541.417 223.15 543.401 223.65 545.234 224.65C547.067 225.617 548.467 226.9 549.434 228.5V214H554.034V251H549.434V245.85C548.534 247.483 547.201 248.833 545.434 249.9C543.667 250.933 541.601 251.45 539.234 251.45C536.801 251.45 534.584 250.85 532.584 249.65C530.617 248.45 529.067 246.767 527.934 244.6C526.801 242.433 526.234 239.967 526.234 237.2ZM549.434 237.25C549.434 235.183 549.017 233.383 548.184 231.85C547.351 230.317 546.217 229.15 544.784 228.35C543.384 227.517 541.834 227.1 540.134 227.1C538.434 227.1 536.884 227.5 535.484 228.3C534.084 229.1 532.967 230.267 532.134 231.8C531.301 233.333 530.884 235.133 530.884 237.2C530.884 239.3 531.301 241.133 532.134 242.7C532.967 244.233 534.084 245.417 535.484 246.25C536.884 247.05 538.434 247.45 540.134 247.45C541.834 247.45 543.384 247.05 544.784 246.25C546.217 245.417 547.351 244.233 548.184 242.7C549.017 241.133 549.434 239.317 549.434 237.25Z" fill="#BAB5B5"/>
<path d="M25.2313 313.496C24.0073 313.507 22.9062 313.236 21.9279 312.681C20.9495 312.114 20.1848 311.347 19.6339 310.38C19.0708 309.401 18.7827 308.33 18.7696 307.166C18.7547 305.834 19.0713 304.649 19.7197 303.611C20.3559 302.561 21.2714 301.796 22.4661 301.317L22.4938 303.783C21.8375 304.113 21.3506 304.568 21.0331 305.147C20.7156 305.726 20.5611 306.393 20.5696 307.149C20.5789 307.977 20.7732 308.713 21.1525 309.358C21.5317 310.002 22.0714 310.507 22.7716 310.873C23.4716 311.226 24.2836 311.399 25.2076 311.39C26.1315 311.381 26.9395 311.194 27.6314 310.827C28.3232 310.449 28.8574 309.934 29.2341 309.282C29.5988 308.631 29.7765 307.891 29.7672 307.063C29.7587 306.307 29.5892 305.643 29.2587 305.07C28.9282 304.497 28.4312 304.052 27.7676 303.734L27.7398 301.268C28.945 301.725 29.8775 302.472 30.5372 303.51C31.1968 304.536 31.5341 305.715 31.5491 307.047C31.5623 308.223 31.3044 309.299 30.7754 310.276C30.2343 311.253 29.4811 312.034 28.5156 312.619C27.55 313.192 26.4552 313.484 25.2313 313.496ZM31.4622 294.529C31.4728 295.465 31.2723 296.313 30.8608 297.073C30.4373 297.833 29.8441 298.432 29.0809 298.872C28.3058 299.311 27.4083 299.535 26.3884 299.545C25.3804 299.554 24.4839 299.34 23.699 298.904C22.914 298.467 22.3072 297.867 21.8786 297.103C21.45 296.339 21.2303 295.483 21.2197 294.535C21.209 293.587 21.4093 292.727 21.8207 291.955C22.232 291.183 22.8252 290.572 23.6001 290.12C24.3751 289.669 25.2666 289.439 26.2745 289.429C27.2825 289.42 28.179 289.64 28.9641 290.088C29.7492 290.537 30.3622 291.155 30.8031 291.943C31.2319 292.719 31.4516 293.581 31.4622 294.529ZM29.6803 294.546C29.6744 294.018 29.5428 293.527 29.2857 293.073C29.0285 292.608 28.6462 292.233 28.139 291.95C27.6318 291.667 27.0182 291.528 26.2982 291.535C25.5783 291.542 24.9738 291.686 24.485 291.966C23.9841 292.247 23.6102 292.616 23.3634 293.075C23.1165 293.533 22.9961 294.026 23.002 294.554C23.0079 295.082 23.1395 295.573 23.3966 296.026C23.6536 296.468 24.0355 296.818 24.5425 297.078C25.0374 297.337 25.6449 297.463 26.3649 297.457C27.4328 297.447 28.2577 297.169 28.8396 296.624C29.4094 296.066 29.6896 295.374 29.6803 294.546ZM21.2009 278.466L31.1184 278.373L31.1415 280.425L29.9716 280.436C30.3832 280.756 30.712 281.179 30.9579 281.705C31.1917 282.219 31.3119 282.77 31.3185 283.357C31.3273 284.137 31.1732 284.841 30.8562 285.468C30.5391 286.083 30.0646 286.573 29.4327 286.939C28.8006 287.293 28.0346 287.474 27.1347 287.483L21.3029 287.537L21.28 285.503L26.8058 285.452C27.6938 285.443 28.3752 285.215 28.8502 284.767C29.3132 284.318 29.5404 283.71 29.5317 282.942C29.5231 282.174 29.2823 281.57 28.8093 281.131C28.3242 280.679 27.6377 280.458 26.7497 280.466L21.2239 280.518L21.2009 278.466ZM20.9521 270.756C20.9433 269.976 21.0975 269.279 21.4146 268.664C21.7315 268.037 22.206 267.546 22.8381 267.192C23.4702 266.839 24.2362 266.657 25.1361 266.649L30.9859 266.594L31.0088 268.628L25.465 268.68C24.577 268.688 23.9016 268.917 23.4386 269.365C22.9636 269.813 22.7304 270.422 22.7391 271.19C22.7477 271.957 22.9946 272.567 23.4797 273.019C23.9527 273.458 24.6331 273.674 25.5211 273.666L31.0649 273.614L31.088 275.666L21.1704 275.758L21.1473 273.706L22.2812 273.696C21.8695 273.364 21.5467 272.941 21.3129 272.427C21.079 271.901 20.9587 271.344 20.9521 270.756ZM22.6858 261.66L28.1756 261.609C28.5476 261.606 28.8166 261.519 28.9827 261.349C29.1367 261.168 29.2113 260.867 29.2066 260.447L29.1924 259.187L30.9023 259.171L30.9206 260.791C30.931 261.715 30.7229 262.425 30.2965 262.921C29.8701 263.417 29.1709 263.67 28.1989 263.679L22.7091 263.73L22.7223 264.9L21.0484 264.916L21.0352 263.746L18.5693 263.769L18.546 261.699L21.0119 261.676L20.9848 259.264L22.6587 259.248L22.6858 261.66ZM30.942 248.302C30.9526 249.238 30.7521 250.085 30.3406 250.845C29.9171 251.605 29.3239 252.205 28.5607 252.644C27.7856 253.083 26.8881 253.308 25.8682 253.317C24.8602 253.327 23.9637 253.113 23.1788 252.676C22.3938 252.239 21.787 251.639 21.3584 250.875C20.9298 250.111 20.7101 249.255 20.6995 248.307C20.6888 247.359 20.8891 246.499 21.3005 245.727C21.7118 244.956 22.305 244.344 23.0799 243.893C23.8549 243.441 24.7464 243.211 25.7543 243.202C26.7623 243.192 27.6588 243.412 28.4439 243.861C29.229 244.309 29.842 244.928 30.2829 245.716C30.7117 246.492 30.9314 247.354 30.942 248.302ZM29.1601 248.318C29.1542 247.79 29.0226 247.299 28.7655 246.846C28.5083 246.38 28.126 246.006 27.6188 245.722C27.1116 245.439 26.498 245.301 25.778 245.308C25.0581 245.314 24.4536 245.458 23.9648 245.739C23.4639 246.019 23.09 246.389 22.8432 246.847C22.5963 247.305 22.4758 247.799 22.4818 248.326C22.4877 248.854 22.6193 249.345 22.8764 249.799C23.1334 250.24 23.5153 250.591 24.0223 250.85C24.5172 251.11 25.1247 251.236 25.8447 251.229C26.9126 251.219 27.7375 250.942 28.3194 250.396C28.8892 249.839 29.1694 249.146 29.1601 248.318ZM22.4089 237.046L22.4295 238.882L30.6732 238.805L30.6964 240.875L22.4528 240.952L22.466 242.122L20.792 242.137L20.7789 240.968L20.0769 240.974C18.937 240.985 18.1056 240.692 17.5829 240.097C17.048 239.49 16.7733 238.539 16.7587 237.243L18.4686 237.227C18.4757 237.851 18.6006 238.288 18.8434 238.537C19.0742 238.787 19.4776 238.91 20.0536 238.904L20.7556 238.898L20.7349 237.062L22.4089 237.046ZM17.9486 219.811L30.511 224.392L30.5377 226.768L18.0813 231.6L18.0566 229.404L28.4184 225.599L17.9729 221.971L17.9486 219.811ZM25.1347 208.937C25.5067 208.934 25.843 208.955 26.1435 209L26.2288 216.577C27.0201 216.51 27.6527 216.21 28.1268 215.678C28.6008 215.145 28.8335 214.495 28.8249 213.727C28.8124 212.623 28.3417 211.847 27.4126 211.4L27.3877 209.186C28.303 209.478 29.0591 210.017 29.656 210.803C30.2408 211.578 30.5397 212.547 30.5528 213.711C30.5634 214.659 30.363 215.513 29.9516 216.273C29.528 217.021 28.9346 217.614 28.1715 218.053C27.3963 218.48 26.4987 218.699 25.4787 218.708C24.4587 218.718 23.5625 218.522 22.7899 218.121C22.0052 217.709 21.3987 217.132 20.9704 216.392C20.5419 215.64 20.3222 214.778 20.3112 213.806C20.3007 212.87 20.4953 212.035 20.895 211.299C21.2948 210.563 21.8644 209.988 22.6037 209.573C23.3311 209.158 24.1748 208.946 25.1347 208.937ZM24.5109 211.085C23.755 211.104 23.1521 211.38 22.7021 211.912C22.252 212.444 22.0314 213.1 22.0402 213.88C22.0481 214.588 22.2829 215.192 22.7446 215.692C23.1942 216.192 23.8036 216.486 24.5726 216.575L24.5109 211.085ZM20.1765 201.834C20.168 201.078 20.3224 200.404 20.6398 199.813C20.957 199.21 21.4317 198.738 22.0639 198.396C22.696 198.042 23.462 197.861 24.362 197.853L30.2117 197.798L30.2346 199.832L24.6908 199.884C23.8029 199.892 23.1274 200.12 22.6644 200.569C22.1894 201.017 21.9563 201.625 21.9649 202.393C21.9735 203.161 22.2204 203.771 22.7055 204.222C23.1785 204.662 23.859 204.878 24.7469 204.869L30.2907 204.818L30.3138 206.869L16.9944 206.994L16.9713 204.942L21.5251 204.899C21.1012 204.555 20.7723 204.12 20.5383 203.594C20.3043 203.057 20.1837 202.47 20.1765 201.834ZM18.939 194.242C18.9432 194.614 18.8207 194.927 18.5715 195.181C18.3224 195.435 18.0118 195.564 17.6398 195.568C17.2678 195.571 16.9544 195.448 16.6996 195.198C16.4448 194.949 16.3153 194.638 16.3111 194.266C16.3071 193.906 16.4296 193.599 16.6788 193.345C16.9279 193.09 17.2385 192.961 17.6105 192.958C17.9824 192.954 18.2958 193.077 18.5507 193.327C18.8055 193.577 18.9349 193.882 18.939 194.242ZM20.2416 193.221L30.1592 193.129L30.1822 195.181L20.2647 195.273L20.2416 193.221ZM25.1688 191.165C24.1488 191.175 23.2525 190.979 22.48 190.578C21.6953 190.166 21.0888 189.595 20.6606 188.867C20.2324 188.139 20.013 187.301 20.0023 186.353C19.9888 185.153 20.2656 184.161 20.8328 183.375C21.3879 182.578 22.1919 182.037 23.2447 181.751L23.2696 183.965C22.7797 184.149 22.3989 184.441 22.1274 184.839C21.8559 185.238 21.7235 185.737 21.7302 186.337C21.7397 187.177 22.0472 187.846 22.6529 188.345C23.2464 188.831 24.0771 189.069 25.1451 189.059C26.213 189.049 27.0442 188.796 27.6386 188.298C28.2329 187.788 28.5254 187.114 28.5159 186.274C28.5026 185.086 27.9717 184.305 26.9235 183.931L26.8985 181.717C27.9097 181.995 28.7198 182.528 29.3287 183.314C29.9256 184.101 30.2306 185.082 30.2438 186.258C30.2545 187.206 30.054 188.048 29.6422 188.783C29.2185 189.519 28.625 190.101 27.8618 190.528C27.0864 190.943 26.1887 191.156 25.1688 191.165ZM16.6649 177.715L29.9843 177.591L30.0074 179.643L16.688 179.767L16.6649 177.715ZM24.6499 165.856C25.0219 165.852 25.3582 165.873 25.6587 165.919L25.744 173.496C26.5353 173.429 27.1679 173.129 27.642 172.596C28.116 172.064 28.3487 171.414 28.3401 170.646C28.3276 169.542 27.8569 168.766 26.9278 168.319L26.9029 166.105C27.8182 166.396 28.5743 166.935 29.1712 167.722C29.756 168.496 30.0549 169.466 30.068 170.63C30.0786 171.578 29.8782 172.431 29.4668 173.191C29.0432 173.939 28.4498 174.533 27.6867 174.972C26.9115 175.399 26.0139 175.618 24.9939 175.627C23.9739 175.637 23.0777 175.441 22.3051 175.04C21.5204 174.627 20.9139 174.051 20.4856 173.311C20.0571 172.559 19.8374 171.697 19.8264 170.725C19.8159 169.789 20.0105 168.953 20.4102 168.218C20.81 167.482 21.3796 166.906 22.1189 166.492C22.8463 166.077 23.69 165.865 24.6499 165.856ZM24.0261 168.004C23.2702 168.023 22.6673 168.299 22.2173 168.831C21.7672 169.363 21.5466 170.019 21.5554 170.799C21.5633 171.507 21.7981 172.111 22.2598 172.611C22.7094 173.11 23.3188 173.405 24.0878 173.493L24.0261 168.004Z" fill="#BAB5B5"/>
</svg>
