<svg width="31" height="24" viewBox="0 0 31 24" fill="none" xmlns="http://www.w3.org/2000/svg">
<path d="M19.3758 21.1387H14.0488" stroke="#2D3748" stroke-width="1.2" stroke-miterlimit="10" stroke-linecap="round"/>
<path d="M7 17V20.7635C6.99996 20.8251 7.03834 20.8842 7.10698 20.9284C7.17561 20.9726 7.2691 20.9982 7.36757 21H9" stroke="#2D3748" stroke-width="1.2" stroke-miterlimit="10" stroke-linecap="round"/>
<path d="M22.5 11.5L25.4992 16.4388C25.5349 16.5158 25.5946 16.5792 25.6693 16.6195L27.126 17.3107C27.1902 17.3382 27.2448 17.3842 27.2827 17.443C27.3206 17.5017 27.3401 17.5704 27.3386 17.6403V20.7663C27.3386 20.865 27.2994 20.9596 27.2297 21.0294C27.1599 21.0992 27.0652 21.1384 26.9665 21.1384H25.8288" stroke="#2D3748" stroke-width="1.2" stroke-miterlimit="10" stroke-linecap="round"/>
<path d="M10.9341 22.6377C11.7445 22.6377 12.4014 21.9808 12.4014 21.1704C12.4014 20.3601 11.7445 19.7031 10.9341 19.7031C10.1237 19.7031 9.4668 20.3601 9.4668 21.1704C9.4668 21.9808 10.1237 22.6377 10.9341 22.6377Z" stroke="#2D3748" stroke-width="1.2" stroke-miterlimit="10" stroke-linecap="round"/>
<path d="M22.481 22.6377C23.2913 22.6377 23.9483 21.9808 23.9483 21.1704C23.9483 20.3601 23.2913 19.7031 22.481 19.7031C21.6706 19.7031 21.0137 20.3601 21.0137 21.1704C21.0137 21.9808 21.6706 22.6377 22.481 22.6377Z" stroke="#2D3748" stroke-width="1.2" stroke-miterlimit="10" stroke-linecap="round"/>
<path d="M7.84141 13H6.15859C6.071 13 6 13.0746 6 13.1667V16.8333C6 16.9254 6.071 17 6.15859 17H7.84141C7.929 17 8 16.9254 8 16.8333V13.1667C8 13.0746 7.929 13 7.84141 13Z" stroke="#2D3748" stroke-width="1.2" stroke-miterlimit="9" stroke-linecap="round"/>
<path d="M11.8414 11H10.1586C10.071 11 10 11.1623 10 11.3624V16.6376C10 16.8377 10.071 17 10.1586 17H11.8414C11.929 17 12 16.8377 12 16.6376V11.3624C12 11.1623 11.929 11 11.8414 11Z" stroke="#2D3748" stroke-width="1.2" stroke-miterlimit="9" stroke-linecap="round"/>
<path d="M15.8414 9H14.1586C14.071 9 14 9.15958 14 9.35644V16.6436C14 16.8404 14.071 17 14.1586 17H15.8414C15.929 17 16 16.8404 16 16.6436V9.35644C16 9.15958 15.929 9 15.8414 9Z" stroke="#2D3748" stroke-width="1.2" stroke-miterlimit="9" stroke-linecap="round"/>
<path d="M19.8414 8H18.1586C18.071 8 18 8.13975 18 8.31214V16.6879C18 16.8603 18.071 17 18.1586 17H19.8414C19.929 17 20 16.8603 20 16.6879V8.31214C20 8.13975 19.929 8 19.8414 8Z" stroke="#2D3748" stroke-width="1.2" stroke-miterlimit="9" stroke-linecap="round"/>
<path d="M12.8804 5.93352C12.8395 6.55286 12.5646 7.13347 12.1115 7.55766C11.6583 7.98184 11.0609 8.21786 10.4402 8.21786C9.8195 8.21786 9.22203 7.98184 8.76891 7.55766C8.31578 7.13347 8.0409 6.55286 8 5.93352C8 4.87025 9.44604 2.66929 10.1265 1.68046C10.1627 1.62783 10.2111 1.58478 10.2676 1.55504C10.3241 1.52531 10.387 1.50977 10.4508 1.50977C10.5147 1.50977 10.5776 1.52531 10.6341 1.55504C10.6906 1.58478 10.739 1.62783 10.7751 1.68046C11.4237 2.66929 12.8804 4.89152 12.8804 5.93352Z" stroke="#2D3748" stroke-width="1.2" stroke-miterlimit="10" stroke-linecap="round"/>
<path d="M18.6795 3.3728C19.0163 4.13007 19.1732 5.09005 18.5644 5.65232V5.65232C18.254 5.93891 17.8471 6.09806 17.4246 6.09806C17.0022 6.09806 16.5953 5.93891 16.2849 5.65232C16.278 5.64588 16.271 5.63939 16.2642 5.63284C15.6785 5.07337 15.8325 4.14035 16.1579 3.39863C16.4307 2.77663 16.779 2.18886 17.196 1.64893C17.2201 1.61163 17.2532 1.58095 17.2922 1.55971C17.3312 1.53847 17.3749 1.52734 17.4193 1.52734C17.4637 1.52734 17.5074 1.53847 17.5464 1.55971C17.5855 1.58095 17.6185 1.61163 17.6426 1.64893C18.0587 2.18006 18.4066 2.75923 18.6795 3.3728Z" stroke="#2D3748" stroke-width="1.2" stroke-miterlimit="10" stroke-linecap="round"/>
</svg>
