<svg width="75" height="75" viewBox="0 0 75 75" fill="none" xmlns="http://www.w3.org/2000/svg">
<g clip-path="url(#clip0_3334_2036)">
<path d="M41.9167 70.8332H12.2917C11.5073 70.8583 10.7258 70.7255 9.99375 70.4425C9.26171 70.1596 8.59402 69.7324 8.0304 69.1862C7.46677 68.6401 7.01871 67.9862 6.71286 67.2635C6.407 66.5407 6.2496 65.7638 6.25 64.979V10.1248C6.3097 8.52584 7.00129 7.01582 8.17301 5.92612C9.34473 4.83642 10.9009 4.25605 12.5 4.31234H42.125C42.892 4.29515 43.6546 4.43391 44.3664 4.7202C45.0782 5.0065 45.7245 5.43435 46.266 5.97784C46.8076 6.52134 47.2331 7.16914 47.5168 7.88198C47.8006 8.59482 47.9366 9.35786 47.9167 10.1248V64.979C47.9141 65.7594 47.756 66.5314 47.4518 67.2501C47.1475 67.9687 46.7031 68.6195 46.1445 69.1645C45.586 69.7095 44.9244 70.1378 44.1985 70.4243C43.4726 70.7108 42.6969 70.8498 41.9167 70.8332ZM12.2917 8.33317C12.0502 8.32482 11.8095 8.36485 11.5837 8.45088C11.3579 8.53692 11.1516 8.66724 10.9769 8.83417C10.8022 9.0011 10.6626 9.20128 10.5664 9.42293C10.4702 9.64458 10.4193 9.88322 10.4167 10.1248V64.979C10.4167 65.4597 10.6076 65.9207 10.9475 66.2606C11.2874 66.6005 11.7485 66.7915 12.2292 66.7915H41.9167C42.4153 66.7982 42.8977 66.6144 43.2655 66.2776C43.6333 65.9408 43.8587 65.4763 43.8958 64.979V10.1248C43.8537 9.63125 43.6261 9.17195 43.2589 8.83949C42.8916 8.50703 42.412 8.32611 41.9167 8.33317H12.2917Z" fill="#161616"/>
<path d="M61.5208 70.834C60.558 70.8422 59.6031 70.6597 58.7112 70.297C57.8193 69.9342 57.0081 69.3984 56.3244 68.7205C55.6407 68.0426 55.098 67.236 54.7276 66.3472C54.3573 65.4585 54.1666 64.5052 54.1667 63.5423V47.9173C54.1667 46.8122 53.7277 45.7524 52.9463 44.971C52.1649 44.1896 51.1051 43.7507 50 43.7507H47.0208C46.4683 43.7507 45.9384 43.5312 45.5477 43.1405C45.157 42.7498 44.9375 42.2199 44.9375 41.6673C44.9375 41.1148 45.157 40.5849 45.5477 40.1942C45.9384 39.8035 46.4683 39.584 47.0208 39.584H50C52.2101 39.584 54.3298 40.462 55.8926 42.0248C57.4554 43.5876 58.3333 45.7072 58.3333 47.9173V63.5423C58.3333 64.3711 58.6626 65.166 59.2486 65.752C59.8347 66.3381 60.6295 66.6673 61.4583 66.6673C62.2871 66.6673 63.082 66.3381 63.668 65.752C64.2541 65.166 64.5833 64.3711 64.5833 63.5423V36.0423L58.0625 21.459C57.6729 20.6463 57.061 19.9606 56.2978 19.4813C55.5346 19.002 54.6512 18.7487 53.75 18.7507H52.2292C51.6766 18.7507 51.1467 18.5312 50.756 18.1405C50.3653 17.7498 50.1458 17.2199 50.1458 16.6673C50.1458 16.1148 50.3653 15.5849 50.756 15.1942C51.1467 14.8035 51.6766 14.584 52.2292 14.584H53.75C55.4822 14.5831 57.1776 15.0844 58.6307 16.0273C60.0839 16.9702 61.2325 18.3142 61.9375 19.8965L68.625 34.8132C68.7472 35.0814 68.8111 35.3725 68.8125 35.6673V63.5423C68.8125 65.4762 68.0443 67.3308 66.6768 68.6983C65.3094 70.0658 63.4547 70.834 61.5208 70.834Z" fill="#161616"/>
<path d="M37.5007 18.7507H16.6673C16.1148 18.7507 15.5849 18.5312 15.1942 18.1405C14.8035 17.7498 14.584 17.2199 14.584 16.6673C14.584 16.1148 14.8035 15.5849 15.1942 15.1942C15.5849 14.8035 16.1148 14.584 16.6673 14.584H37.5007C38.0532 14.584 38.5831 14.8035 38.9738 15.1942C39.3645 15.5849 39.584 16.1148 39.584 16.6673C39.584 17.2199 39.3645 17.7498 38.9738 18.1405C38.5831 18.5312 38.0532 18.7507 37.5007 18.7507Z" fill="#161616"/>
<path d="M37.5007 27.0827H16.6673C16.1148 27.0827 15.5849 26.8632 15.1942 26.4725C14.8035 26.0818 14.584 25.5519 14.584 24.9993C14.584 24.4468 14.8035 23.9169 15.1942 23.5262C15.5849 23.1355 16.1148 22.916 16.6673 22.916H37.5007C38.0532 22.916 38.5831 23.1355 38.9738 23.5262C39.3645 23.9169 39.584 24.4468 39.584 24.9993C39.584 25.5519 39.3645 26.0818 38.9738 26.4725C38.5831 26.8632 38.0532 27.0827 37.5007 27.0827Z" fill="#161616"/>
<path d="M52.0833 25.1667C51.5308 25.1667 51.0009 24.9472 50.6102 24.5565C50.2195 24.1658 50 23.6359 50 23.0833V10.5833C50 10.0308 50.2195 9.5009 50.6102 9.11019C51.0009 8.71949 51.5308 8.5 52.0833 8.5C52.6359 8.5 53.1658 8.71949 53.5565 9.11019C53.9472 9.5009 54.1667 10.0308 54.1667 10.5833V23.0833C54.1667 23.6359 53.9472 24.1658 53.5565 24.5565C53.1658 24.9472 52.6359 25.1667 52.0833 25.1667Z" fill="#161616"/>
</g>
<defs>
<clipPath id="clip0_3334_2036">
<rect width="75" height="75" fill="white"/>
</clipPath>
</defs>
</svg>
