<svg width="1054" height="416" viewBox="0 0 1054 416" fill="none" xmlns="http://www.w3.org/2000/svg">
<rect width="1054" height="416" fill="white"/>
<path d="M63.3397 342.154C63.3397 340.319 63.6384 338.89 64.2357 337.866C64.8331 336.831 65.8784 336.314 67.3717 336.314C68.8544 336.314 69.8944 336.831 70.4917 337.866C71.0891 338.89 71.3877 340.319 71.3877 342.154C71.3877 344.02 71.0891 345.471 70.4917 346.506C69.8944 347.54 68.8544 348.058 67.3717 348.058C65.8784 348.058 64.8331 347.54 64.2357 346.506C63.6384 345.471 63.3397 344.02 63.3397 342.154ZM69.9477 342.154C69.9477 341.226 69.8837 340.442 69.7557 339.802C69.6384 339.151 69.3877 338.628 69.0037 338.234C68.6304 337.839 68.0864 337.642 67.3717 337.642C66.6464 337.642 66.0917 337.839 65.7077 338.234C65.3344 338.628 65.0837 339.151 64.9557 339.802C64.8384 340.442 64.7797 341.226 64.7797 342.154C64.7797 343.114 64.8384 343.919 64.9557 344.57C65.0837 345.22 65.3344 345.743 65.7077 346.138C66.0917 346.532 66.6464 346.73 67.3717 346.73C68.0864 346.73 68.6304 346.532 69.0037 346.138C69.3877 345.743 69.6384 345.22 69.7557 344.57C69.8837 343.919 69.9477 343.114 69.9477 342.154Z" fill="#BAB5B5"/>
<path d="M63.0482 281.544V280.216H66.0562V291.784H64.5842V281.544H63.0482Z" fill="#BAB5B5"/>
<path d="M63.1032 221.227C64.2039 220.343 65.0662 219.62 65.6902 219.056C66.3142 218.484 66.8385 217.891 67.2632 217.275C67.6965 216.651 67.9132 216.04 67.9132 215.442C67.9132 214.879 67.7745 214.437 67.4972 214.116C67.2285 213.787 66.7909 213.622 66.1842 213.622C65.5949 213.622 65.1355 213.809 64.8062 214.181C64.4855 214.545 64.3122 215.035 64.2862 215.65H63.1422C63.1769 214.68 63.4715 213.93 64.0262 213.401C64.5809 212.873 65.2959 212.608 66.1712 212.608C67.0639 212.608 67.7702 212.855 68.2902 213.349C68.8189 213.843 69.0832 214.524 69.0832 215.39C69.0832 216.11 68.8665 216.812 68.4332 217.496C68.0085 218.172 67.5232 218.77 66.9772 219.29C66.4312 219.802 65.7335 220.4 64.8842 221.084H69.3562V222.072H63.1032V221.227Z" fill="#BAB5B5"/>
<path d="M61.6413 152.123C61.716 151.142 62.0947 150.374 62.7773 149.819C63.46 149.265 64.3453 148.987 65.4333 148.987C66.1587 148.987 66.7827 149.121 67.3053 149.387C67.8387 149.643 68.2387 149.995 68.5053 150.443C68.7827 150.891 68.9213 151.398 68.9213 151.963C68.9213 152.625 68.7293 153.195 68.3453 153.675C67.972 154.155 67.4813 154.465 66.8733 154.603V154.683C67.5667 154.854 68.116 155.19 68.5213 155.691C68.9267 156.193 69.1293 156.849 69.1293 157.659C69.1293 158.267 68.9907 158.817 68.7133 159.307C68.436 159.787 68.02 160.166 67.4653 160.443C66.9107 160.721 66.244 160.859 65.4653 160.859C64.3347 160.859 63.4067 160.566 62.6813 159.979C61.956 159.382 61.5507 158.539 61.4653 157.451H62.8733C62.948 158.091 63.2093 158.614 63.6573 159.019C64.1053 159.425 64.7027 159.627 65.4493 159.627C66.196 159.627 66.7613 159.435 67.1453 159.051C67.54 158.657 67.7373 158.15 67.7373 157.531C67.7373 156.731 67.4707 156.155 66.9373 155.803C66.404 155.451 65.5987 155.275 64.5213 155.275H64.1533V154.059H64.5373C65.5187 154.049 66.26 153.889 66.7613 153.579C67.2627 153.259 67.5133 152.769 67.5133 152.107C67.5133 151.542 67.3267 151.089 66.9533 150.747C66.5907 150.406 66.068 150.235 65.3853 150.235C64.724 150.235 64.1907 150.406 63.7853 150.747C63.38 151.089 63.14 151.547 63.0653 152.123H61.6413Z" fill="#BAB5B5"/>
<path d="M59.5625 91.2286V90.1246L65.1785 82.3486H66.9225V89.9646H68.5225V91.2286H66.9225V93.8046H65.4825V91.2286H59.5625ZM65.5465 83.8686L61.2425 89.9646H65.5465V83.8686Z" fill="#BAB5B5"/>
<path d="M67.2905 28.9932H61.6745V32.6412C61.9198 32.2998 62.2825 32.0225 62.7625 31.8092C63.2425 31.5852 63.7598 31.4732 64.3145 31.4732C65.1998 31.4732 65.9198 31.6598 66.4745 32.0332C67.0291 32.3958 67.4238 32.8705 67.6585 33.4572C67.9038 34.0332 68.0265 34.6465 68.0265 35.2972C68.0265 36.0652 67.8825 36.7532 67.5945 37.3612C67.3065 37.9692 66.8638 38.4492 66.2665 38.8012C65.6798 39.1532 64.9491 39.3292 64.0745 39.3292C62.9545 39.3292 62.0478 39.0412 61.3545 38.4652C60.6611 37.8892 60.2398 37.1212 60.0905 36.1612H61.5145C61.6531 36.7692 61.9465 37.2438 62.3945 37.5852C62.8425 37.9265 63.4078 38.0972 64.0905 38.0972C64.9331 38.0972 65.5678 37.8465 65.9945 37.3452C66.4211 36.8332 66.6345 36.1612 66.6345 35.3292C66.6345 34.4972 66.4211 33.8572 65.9945 33.4092C65.5678 32.9505 64.9385 32.7212 64.1065 32.7212C63.5411 32.7212 63.0451 32.8598 62.6185 33.1372C62.2025 33.4038 61.8985 33.7718 61.7065 34.2412H60.3305V27.7132H67.2905V28.9932Z" fill="#BAB5B5"/>
<path d="M97.7147 359.915C96.68 359.915 95.736 359.675 94.8827 359.195C94.0294 358.704 93.352 358.027 92.8507 357.163C92.36 356.288 92.1147 355.307 92.1147 354.219C92.1147 353.131 92.36 352.155 92.8507 351.291C93.352 350.416 94.0294 349.739 94.8827 349.259C95.736 348.768 96.68 348.523 97.7147 348.523C98.76 348.523 99.7094 348.768 100.563 349.259C101.416 349.739 102.088 350.411 102.579 351.275C103.069 352.139 103.315 353.12 103.315 354.219C103.315 355.317 103.069 356.299 102.579 357.163C102.088 358.027 101.416 358.704 100.563 359.195C99.7094 359.675 98.76 359.915 97.7147 359.915ZM97.7147 358.651C98.4934 358.651 99.192 358.469 99.8107 358.107C100.44 357.744 100.931 357.227 101.283 356.555C101.645 355.883 101.827 355.104 101.827 354.219C101.827 353.323 101.645 352.544 101.283 351.883C100.931 351.211 100.445 350.693 99.8267 350.331C99.208 349.968 98.504 349.787 97.7147 349.787C96.9254 349.787 96.2214 349.968 95.6027 350.331C94.984 350.693 94.4934 351.211 94.1307 351.883C93.7787 352.544 93.6027 353.323 93.6027 354.219C93.6027 355.104 93.7787 355.883 94.1307 356.555C94.4934 357.227 94.984 357.744 95.6027 358.107C96.232 358.469 96.936 358.651 97.7147 358.651ZM104.693 355.403C104.693 354.496 104.874 353.707 105.237 353.035C105.599 352.352 106.101 351.824 106.741 351.451C107.391 351.077 108.133 350.891 108.965 350.891C110.042 350.891 110.927 351.152 111.621 351.675C112.325 352.197 112.789 352.923 113.013 353.851H111.445C111.295 353.317 111.002 352.896 110.565 352.587C110.138 352.277 109.605 352.123 108.965 352.123C108.133 352.123 107.461 352.411 106.949 352.987C106.437 353.552 106.181 354.357 106.181 355.403C106.181 356.459 106.437 357.275 106.949 357.851C107.461 358.427 108.133 358.715 108.965 358.715C109.605 358.715 110.138 358.565 110.565 358.267C110.991 357.968 111.285 357.541 111.445 356.987H113.013C112.778 357.883 112.309 358.603 111.605 359.147C110.901 359.68 110.021 359.947 108.965 359.947C108.133 359.947 107.391 359.76 106.741 359.387C106.101 359.013 105.599 358.485 105.237 357.803C104.874 357.12 104.693 356.32 104.693 355.403ZM116.732 352.235V357.403C116.732 357.829 116.822 358.133 117.004 358.315C117.185 358.485 117.5 358.571 117.948 358.571H119.02V359.803H117.708C116.897 359.803 116.289 359.616 115.884 359.243C115.478 358.869 115.276 358.256 115.276 357.403V352.235H114.14V351.035H115.276V348.827H116.732V351.035H119.02V352.235H116.732ZM121.008 348.651H122.624L121.088 352.283H120.064L121.008 348.651ZM128.133 358.635C129.488 357.547 130.549 356.656 131.317 355.963C132.085 355.259 132.731 354.528 133.253 353.771C133.787 353.003 134.053 352.251 134.053 351.515C134.053 350.821 133.883 350.277 133.541 349.883C133.211 349.477 132.672 349.275 131.925 349.275C131.2 349.275 130.635 349.504 130.229 349.963C129.835 350.411 129.621 351.013 129.589 351.771H128.181C128.224 350.576 128.587 349.653 129.269 349.003C129.952 348.352 130.832 348.027 131.909 348.027C133.008 348.027 133.877 348.331 134.517 348.939C135.168 349.547 135.493 350.384 135.493 351.451C135.493 352.336 135.227 353.2 134.693 354.043C134.171 354.875 133.573 355.611 132.901 356.251C132.229 356.88 131.371 357.616 130.325 358.459H135.829V359.675H128.133V358.635ZM137.48 351.147C137.555 350.165 137.934 349.397 138.616 348.843C139.299 348.288 140.184 348.011 141.272 348.011C141.998 348.011 142.622 348.144 143.144 348.411C143.678 348.667 144.078 349.019 144.344 349.467C144.622 349.915 144.76 350.421 144.76 350.987C144.76 351.648 144.568 352.219 144.184 352.699C143.811 353.179 143.32 353.488 142.712 353.627V353.707C143.406 353.877 143.955 354.213 144.36 354.715C144.766 355.216 144.968 355.872 144.968 356.683C144.968 357.291 144.83 357.84 144.552 358.331C144.275 358.811 143.859 359.189 143.304 359.467C142.75 359.744 142.083 359.883 141.304 359.883C140.174 359.883 139.246 359.589 138.52 359.003C137.795 358.405 137.39 357.563 137.304 356.475H138.712C138.787 357.115 139.048 357.637 139.496 358.043C139.944 358.448 140.542 358.651 141.288 358.651C142.035 358.651 142.6 358.459 142.984 358.075C143.379 357.68 143.576 357.173 143.576 356.555C143.576 355.755 143.31 355.179 142.776 354.827C142.243 354.475 141.438 354.299 140.36 354.299H139.992V353.083H140.376C141.358 353.072 142.099 352.912 142.6 352.603C143.102 352.283 143.352 351.792 143.352 351.131C143.352 350.565 143.166 350.112 142.792 349.771C142.43 349.429 141.907 349.259 141.224 349.259C140.563 349.259 140.03 349.429 139.624 349.771C139.219 350.112 138.979 350.571 138.904 351.147H137.48Z" fill="#BAB5B5"/>
<path d="M283 361H281.544L275.688 352.12V361H274.232V349.832H275.688L281.544 358.696V349.832H283V361ZM289.306 361.144C288.485 361.144 287.738 360.957 287.066 360.584C286.405 360.211 285.882 359.683 285.498 359C285.125 358.307 284.938 357.507 284.938 356.6C284.938 355.704 285.13 354.915 285.514 354.232C285.909 353.539 286.442 353.011 287.114 352.648C287.786 352.275 288.538 352.088 289.37 352.088C290.202 352.088 290.954 352.275 291.626 352.648C292.298 353.011 292.826 353.533 293.21 354.216C293.605 354.899 293.802 355.693 293.802 356.6C293.802 357.507 293.599 358.307 293.194 359C292.799 359.683 292.261 360.211 291.578 360.584C290.895 360.957 290.138 361.144 289.306 361.144ZM289.306 359.864C289.829 359.864 290.319 359.741 290.778 359.496C291.237 359.251 291.605 358.883 291.882 358.392C292.17 357.901 292.314 357.304 292.314 356.6C292.314 355.896 292.175 355.299 291.898 354.808C291.621 354.317 291.258 353.955 290.81 353.72C290.362 353.475 289.877 353.352 289.354 353.352C288.821 353.352 288.33 353.475 287.882 353.72C287.445 353.955 287.093 354.317 286.826 354.808C286.559 355.299 286.426 355.896 286.426 356.6C286.426 357.315 286.554 357.917 286.81 358.408C287.077 358.899 287.429 359.267 287.866 359.512C288.303 359.747 288.783 359.864 289.306 359.864ZM298.98 359.656L301.7 352.232H303.252L299.812 361H298.116L294.676 352.232H296.244L298.98 359.656ZM304.909 349.848H306.525L304.989 353.48H303.965L304.909 349.848ZM312.035 359.832C313.389 358.744 314.451 357.853 315.219 357.16C315.987 356.456 316.632 355.725 317.155 354.968C317.688 354.2 317.955 353.448 317.955 352.712C317.955 352.019 317.784 351.475 317.443 351.08C317.112 350.675 316.573 350.472 315.827 350.472C315.101 350.472 314.536 350.701 314.131 351.16C313.736 351.608 313.523 352.211 313.491 352.968H312.083C312.125 351.773 312.488 350.851 313.171 350.2C313.853 349.549 314.733 349.224 315.811 349.224C316.909 349.224 317.779 349.528 318.419 350.136C319.069 350.744 319.395 351.581 319.395 352.648C319.395 353.533 319.128 354.397 318.595 355.24C318.072 356.072 317.475 356.808 316.803 357.448C316.131 358.077 315.272 358.813 314.227 359.656H319.731V360.872H312.035V359.832ZM321.382 352.344C321.457 351.363 321.835 350.595 322.518 350.04C323.201 349.485 324.086 349.208 325.174 349.208C325.899 349.208 326.523 349.341 327.046 349.608C327.579 349.864 327.979 350.216 328.246 350.664C328.523 351.112 328.662 351.619 328.662 352.184C328.662 352.845 328.47 353.416 328.086 353.896C327.713 354.376 327.222 354.685 326.614 354.824V354.904C327.307 355.075 327.857 355.411 328.262 355.912C328.667 356.413 328.87 357.069 328.87 357.88C328.87 358.488 328.731 359.037 328.454 359.528C328.177 360.008 327.761 360.387 327.206 360.664C326.651 360.941 325.985 361.08 325.206 361.08C324.075 361.08 323.147 360.787 322.422 360.2C321.697 359.603 321.291 358.76 321.206 357.672H322.614C322.689 358.312 322.95 358.835 323.398 359.24C323.846 359.645 324.443 359.848 325.19 359.848C325.937 359.848 326.502 359.656 326.886 359.272C327.281 358.877 327.478 358.371 327.478 357.752C327.478 356.952 327.211 356.376 326.678 356.024C326.145 355.672 325.339 355.496 324.262 355.496H323.894V354.28H324.278C325.259 354.269 326.001 354.109 326.502 353.8C327.003 353.48 327.254 352.989 327.254 352.328C327.254 351.763 327.067 351.309 326.694 350.968C326.331 350.627 325.809 350.456 325.126 350.456C324.465 350.456 323.931 350.627 323.526 350.968C323.121 351.309 322.881 351.768 322.806 352.344H321.382Z" fill="#BAB5B5"/>
<path d="M493.704 350.848C494.92 350.848 495.971 351.077 496.856 351.536C497.752 351.984 498.435 352.629 498.904 353.472C499.384 354.315 499.624 355.307 499.624 356.448C499.624 357.589 499.384 358.581 498.904 359.424C498.435 360.256 497.752 360.896 496.856 361.344C495.971 361.781 494.92 362 493.704 362H490.232V350.848H493.704ZM493.704 360.8C495.144 360.8 496.243 360.421 497 359.664C497.757 358.896 498.136 357.824 498.136 356.448C498.136 355.061 497.752 353.979 496.984 353.2C496.227 352.421 495.133 352.032 493.704 352.032H491.688V360.8H493.704ZM509.545 357.28C509.545 357.557 509.529 357.851 509.497 358.16H502.489C502.542 359.024 502.835 359.701 503.369 360.192C503.913 360.672 504.569 360.912 505.337 360.912C505.966 360.912 506.489 360.768 506.905 360.48C507.331 360.181 507.63 359.787 507.801 359.296H509.369C509.134 360.139 508.665 360.827 507.961 361.36C507.257 361.883 506.382 362.144 505.337 362.144C504.505 362.144 503.758 361.957 503.097 361.584C502.446 361.211 501.934 360.683 501.561 360C501.187 359.307 501.001 358.507 501.001 357.6C501.001 356.693 501.182 355.899 501.545 355.216C501.907 354.533 502.414 354.011 503.065 353.648C503.726 353.275 504.483 353.088 505.337 353.088C506.169 353.088 506.905 353.269 507.545 353.632C508.185 353.995 508.675 354.496 509.017 355.136C509.369 355.765 509.545 356.48 509.545 357.28ZM508.041 356.976C508.041 356.421 507.918 355.947 507.673 355.552C507.427 355.147 507.091 354.843 506.665 354.64C506.249 354.427 505.785 354.32 505.273 354.32C504.537 354.32 503.907 354.555 503.385 355.024C502.873 355.493 502.579 356.144 502.505 356.976H508.041ZM510.922 357.6C510.922 356.693 511.104 355.904 511.466 355.232C511.829 354.549 512.33 354.021 512.97 353.648C513.621 353.275 514.362 353.088 515.194 353.088C516.272 353.088 517.157 353.349 517.85 353.872C518.554 354.395 519.018 355.12 519.242 356.048H517.674C517.525 355.515 517.232 355.093 516.794 354.784C516.368 354.475 515.834 354.32 515.194 354.32C514.362 354.32 513.69 354.608 513.178 355.184C512.666 355.749 512.41 356.555 512.41 357.6C512.41 358.656 512.666 359.472 513.178 360.048C513.69 360.624 514.362 360.912 515.194 360.912C515.834 360.912 516.368 360.763 516.794 360.464C517.221 360.165 517.514 359.739 517.674 359.184H519.242C519.008 360.08 518.538 360.8 517.834 361.344C517.13 361.877 516.25 362.144 515.194 362.144C514.362 362.144 513.621 361.957 512.97 361.584C512.33 361.211 511.829 360.683 511.466 360C511.104 359.317 510.922 358.517 510.922 357.6ZM521.409 350.848H523.025L521.489 354.48H520.465L521.409 350.848ZM532.8 360.832C534.155 359.744 535.216 358.853 535.984 358.16C536.752 357.456 537.398 356.725 537.92 355.968C538.454 355.2 538.72 354.448 538.72 353.712C538.72 353.019 538.55 352.475 538.208 352.08C537.878 351.675 537.339 351.472 536.592 351.472C535.867 351.472 535.302 351.701 534.896 352.16C534.502 352.608 534.288 353.211 534.256 353.968H532.848C532.891 352.773 533.254 351.851 533.936 351.2C534.619 350.549 535.499 350.224 536.576 350.224C537.675 350.224 538.544 350.528 539.184 351.136C539.835 351.744 540.16 352.581 540.16 353.648C540.16 354.533 539.894 355.397 539.36 356.24C538.838 357.072 538.24 357.808 537.568 358.448C536.896 359.077 536.038 359.813 534.992 360.656H540.496V361.872H532.8V360.832ZM542.148 353.344C542.222 352.363 542.601 351.595 543.284 351.04C543.966 350.485 544.852 350.208 545.94 350.208C546.665 350.208 547.289 350.341 547.812 350.608C548.345 350.864 548.745 351.216 549.012 351.664C549.289 352.112 549.428 352.619 549.428 353.184C549.428 353.845 549.236 354.416 548.852 354.896C548.478 355.376 547.988 355.685 547.38 355.824V355.904C548.073 356.075 548.622 356.411 549.028 356.912C549.433 357.413 549.635 358.069 549.635 358.88C549.635 359.488 549.497 360.037 549.22 360.528C548.942 361.008 548.526 361.387 547.972 361.664C547.417 361.941 546.75 362.08 545.972 362.08C544.841 362.08 543.913 361.787 543.188 361.2C542.462 360.603 542.057 359.76 541.972 358.672H543.38C543.454 359.312 543.716 359.835 544.164 360.24C544.612 360.645 545.209 360.848 545.956 360.848C546.702 360.848 547.268 360.656 547.652 360.272C548.046 359.877 548.244 359.371 548.244 358.752C548.244 357.952 547.977 357.376 547.444 357.024C546.91 356.672 546.105 356.496 545.028 356.496H544.66V355.28H545.044C546.025 355.269 546.766 355.109 547.268 354.8C547.769 354.48 548.02 353.989 548.02 353.328C548.02 352.763 547.833 352.309 547.46 351.968C547.097 351.627 546.574 351.456 545.891 351.456C545.23 351.456 544.697 351.627 544.292 351.968C543.886 352.309 543.646 352.768 543.572 353.344H542.148Z" fill="#BAB5B5"/>
<path d="M687.848 349.848V358.088C687.848 359.005 687.565 359.741 687 360.296C686.435 360.84 685.688 361.112 684.76 361.112C683.821 361.112 683.069 360.835 682.504 360.28C681.939 359.715 681.656 358.947 681.656 357.976H683.112C683.123 358.52 683.261 358.963 683.528 359.304C683.805 359.645 684.216 359.816 684.76 359.816C685.304 359.816 685.709 359.656 685.976 359.336C686.243 359.005 686.376 358.589 686.376 358.088V349.848H687.848ZM690.172 356.584C690.172 355.688 690.354 354.904 690.716 354.232C691.079 353.549 691.575 353.021 692.204 352.648C692.844 352.275 693.554 352.088 694.332 352.088C695.1 352.088 695.767 352.253 696.332 352.584C696.898 352.915 697.319 353.331 697.596 353.832V352.232H699.068V361H697.596V359.368C697.308 359.88 696.876 360.307 696.3 360.648C695.735 360.979 695.074 361.144 694.316 361.144C693.538 361.144 692.834 360.952 692.204 360.568C691.575 360.184 691.079 359.645 690.716 358.952C690.354 358.259 690.172 357.469 690.172 356.584ZM697.596 356.6C697.596 355.939 697.463 355.363 697.196 354.872C696.93 354.381 696.567 354.008 696.108 353.752C695.66 353.485 695.164 353.352 694.62 353.352C694.076 353.352 693.58 353.48 693.132 353.736C692.684 353.992 692.327 354.365 692.06 354.856C691.794 355.347 691.66 355.923 691.66 356.584C691.66 357.256 691.794 357.843 692.06 358.344C692.327 358.835 692.684 359.213 693.132 359.48C693.58 359.736 694.076 359.864 694.62 359.864C695.164 359.864 695.66 359.736 696.108 359.48C696.567 359.213 696.93 358.835 697.196 358.344C697.463 357.843 697.596 357.261 697.596 356.6ZM705.801 352.072C706.868 352.072 707.732 352.397 708.393 353.048C709.054 353.688 709.385 354.616 709.385 355.832V361H707.945V356.04C707.945 355.165 707.726 354.499 707.289 354.04C706.852 353.571 706.254 353.336 705.497 353.336C704.729 353.336 704.116 353.576 703.657 354.056C703.209 354.536 702.985 355.235 702.985 356.152V361H701.529V352.232H702.985V353.48C703.273 353.032 703.662 352.685 704.153 352.44C704.654 352.195 705.204 352.072 705.801 352.072ZM711.987 349.848H713.603L712.067 353.48H711.043L711.987 349.848ZM723.379 359.832C724.733 358.744 725.795 357.853 726.562 357.16C727.331 356.456 727.976 355.725 728.499 354.968C729.032 354.2 729.299 353.448 729.299 352.712C729.299 352.019 729.128 351.475 728.787 351.08C728.456 350.675 727.917 350.472 727.171 350.472C726.445 350.472 725.88 350.701 725.475 351.16C725.08 351.608 724.867 352.211 724.835 352.968H723.427C723.469 351.773 723.832 350.851 724.515 350.2C725.197 349.549 726.077 349.224 727.155 349.224C728.253 349.224 729.123 349.528 729.763 350.136C730.413 350.744 730.739 351.581 730.739 352.648C730.739 353.533 730.472 354.397 729.939 355.24C729.416 356.072 728.819 356.808 728.147 357.448C727.475 358.077 726.616 358.813 725.571 359.656H731.075V360.872H723.379V359.832ZM732.406 358.424V357.32L738.022 349.544H739.766V357.16H741.366V358.424H739.766V361H738.326V358.424H732.406ZM738.39 351.064L734.086 357.16H738.39V351.064Z" fill="#BAB5B5"/>
<path d="M887.536 349.848V351.032H882.688V354.792H886.624V355.976H882.688V361H881.232V349.848H887.536ZM897.295 356.28C897.295 356.557 897.279 356.851 897.247 357.16H890.239C890.292 358.024 890.585 358.701 891.119 359.192C891.663 359.672 892.319 359.912 893.087 359.912C893.716 359.912 894.239 359.768 894.655 359.48C895.081 359.181 895.38 358.787 895.551 358.296H897.119C896.884 359.139 896.415 359.827 895.711 360.36C895.007 360.883 894.132 361.144 893.087 361.144C892.255 361.144 891.508 360.957 890.847 360.584C890.196 360.211 889.684 359.683 889.311 359C888.937 358.307 888.751 357.507 888.751 356.6C888.751 355.693 888.932 354.899 889.295 354.216C889.657 353.533 890.164 353.011 890.815 352.648C891.476 352.275 892.233 352.088 893.087 352.088C893.919 352.088 894.655 352.269 895.295 352.632C895.935 352.995 896.425 353.496 896.767 354.136C897.119 354.765 897.295 355.48 897.295 356.28ZM895.791 355.976C895.791 355.421 895.668 354.947 895.423 354.552C895.177 354.147 894.841 353.843 894.415 353.64C893.999 353.427 893.535 353.32 893.023 353.32C892.287 353.32 891.657 353.555 891.135 354.024C890.623 354.493 890.329 355.144 890.255 355.976H895.791ZM900.672 353.864C900.971 353.341 901.408 352.915 901.984 352.584C902.56 352.253 903.216 352.088 903.952 352.088C904.742 352.088 905.451 352.275 906.08 352.648C906.71 353.021 907.206 353.549 907.568 354.232C907.931 354.904 908.112 355.688 908.112 356.584C908.112 357.469 907.931 358.259 907.568 358.952C907.206 359.645 906.704 360.184 906.064 360.568C905.435 360.952 904.731 361.144 903.952 361.144C903.195 361.144 902.528 360.979 901.952 360.648C901.387 360.317 900.96 359.896 900.672 359.384V361H899.216V349.16H900.672V353.864ZM906.624 356.584C906.624 355.923 906.491 355.347 906.224 354.856C905.958 354.365 905.595 353.992 905.136 353.736C904.688 353.48 904.192 353.352 903.648 353.352C903.115 353.352 902.619 353.485 902.16 353.752C901.712 354.008 901.35 354.387 901.072 354.888C900.806 355.379 900.672 355.949 900.672 356.6C900.672 357.261 900.806 357.843 901.072 358.344C901.35 358.835 901.712 359.213 902.16 359.48C902.619 359.736 903.115 359.864 903.648 359.864C904.192 359.864 904.688 359.736 905.136 359.48C905.595 359.213 905.958 358.835 906.224 358.344C906.491 357.843 906.624 357.256 906.624 356.584ZM910.253 349.848H911.869L910.333 353.48H909.309L910.253 349.848ZM921.644 359.832C922.999 358.744 924.06 357.853 924.828 357.16C925.596 356.456 926.241 355.725 926.764 354.968C927.297 354.2 927.564 353.448 927.564 352.712C927.564 352.019 927.393 351.475 927.052 351.08C926.721 350.675 926.183 350.472 925.436 350.472C924.711 350.472 924.145 350.701 923.74 351.16C923.345 351.608 923.132 352.211 923.1 352.968H921.692C921.735 351.773 922.097 350.851 922.78 350.2C923.463 349.549 924.343 349.224 925.42 349.224C926.519 349.224 927.388 349.528 928.028 350.136C928.679 350.744 929.004 351.581 929.004 352.648C929.004 353.533 928.737 354.397 928.204 355.24C927.681 356.072 927.084 356.808 926.412 357.448C925.74 358.077 924.881 358.813 923.836 359.656H929.34V360.872H921.644V359.832ZM930.671 358.424V357.32L936.287 349.544H938.031V357.16H939.631V358.424H938.031V361H936.591V358.424H930.671ZM936.655 351.064L932.351 357.16H936.655V351.064Z" fill="#BAB5B5"/>
<path d="M377.25 193H372.7L354.4 165.25V193H349.85V158.1H354.4L372.7 185.8V158.1H377.25V193ZM396.956 193.45C394.39 193.45 392.056 192.867 389.956 191.7C387.89 190.533 386.256 188.883 385.056 186.75C383.89 184.583 383.306 182.083 383.306 179.25C383.306 176.45 383.906 173.983 385.106 171.85C386.34 169.683 388.006 168.033 390.106 166.9C392.206 165.733 394.556 165.15 397.156 165.15C399.756 165.15 402.106 165.733 404.206 166.9C406.306 168.033 407.956 169.667 409.156 171.8C410.39 173.933 411.006 176.417 411.006 179.25C411.006 182.083 410.373 184.583 409.106 186.75C407.873 188.883 406.19 190.533 404.056 191.7C401.923 192.867 399.556 193.45 396.956 193.45ZM396.956 189.45C398.59 189.45 400.123 189.067 401.556 188.3C402.99 187.533 404.14 186.383 405.006 184.85C405.906 183.317 406.356 181.45 406.356 179.25C406.356 177.05 405.923 175.183 405.056 173.65C404.19 172.117 403.056 170.983 401.656 170.25C400.256 169.483 398.74 169.1 397.106 169.1C395.44 169.1 393.906 169.483 392.506 170.25C391.14 170.983 390.04 172.117 389.206 173.65C388.373 175.183 387.956 177.05 387.956 179.25C387.956 181.483 388.356 183.367 389.156 184.9C389.99 186.433 391.09 187.583 392.456 188.35C393.823 189.083 395.323 189.45 396.956 189.45ZM441.169 158.15C444.969 158.15 448.252 158.867 451.019 160.3C453.819 161.7 455.952 163.717 457.419 166.35C458.919 168.983 459.669 172.083 459.669 175.65C459.669 179.217 458.919 182.317 457.419 184.95C455.952 187.55 453.819 189.55 451.019 190.95C448.252 192.317 444.969 193 441.169 193H430.319V158.15H441.169ZM441.169 189.25C445.669 189.25 449.102 188.067 451.469 185.7C453.835 183.3 455.019 179.95 455.019 175.65C455.019 171.317 453.819 167.933 451.419 165.5C449.052 163.067 445.635 161.85 441.169 161.85H434.869V189.25H441.169ZM463.97 179.2C463.97 176.4 464.537 173.95 465.67 171.85C466.804 169.717 468.354 168.067 470.32 166.9C472.32 165.733 474.537 165.15 476.97 165.15C479.37 165.15 481.454 165.667 483.22 166.7C484.987 167.733 486.304 169.033 487.17 170.6V165.6H491.77V193H487.17V187.9C486.27 189.5 484.92 190.833 483.12 191.9C481.354 192.933 479.287 193.45 476.92 193.45C474.487 193.45 472.287 192.85 470.32 191.65C468.354 190.45 466.804 188.767 465.67 186.6C464.537 184.433 463.97 181.967 463.97 179.2ZM487.17 179.25C487.17 177.183 486.754 175.383 485.92 173.85C485.087 172.317 483.954 171.15 482.52 170.35C481.12 169.517 479.57 169.1 477.87 169.1C476.17 169.1 474.62 169.5 473.22 170.3C471.82 171.1 470.704 172.267 469.87 173.8C469.037 175.333 468.62 177.133 468.62 179.2C468.62 181.3 469.037 183.133 469.87 184.7C470.704 186.233 471.82 187.417 473.22 188.25C474.62 189.05 476.17 189.45 477.87 189.45C479.57 189.45 481.12 189.05 482.52 188.25C483.954 187.417 485.087 186.233 485.92 184.7C486.754 183.133 487.17 181.317 487.17 179.25ZM505.009 169.35V185.5C505.009 186.833 505.293 187.783 505.859 188.35C506.426 188.883 507.409 189.15 508.809 189.15H512.159V193H508.059C505.526 193 503.626 192.417 502.359 191.25C501.093 190.083 500.459 188.167 500.459 185.5V169.35H496.909V165.6H500.459V158.7H505.009V165.6H512.159V169.35H505.009ZM515.972 179.2C515.972 176.4 516.539 173.95 517.672 171.85C518.806 169.717 520.356 168.067 522.322 166.9C524.322 165.733 526.539 165.15 528.972 165.15C531.372 165.15 533.456 165.667 535.222 166.7C536.989 167.733 538.306 169.033 539.172 170.6V165.6H543.772V193H539.172V187.9C538.272 189.5 536.922 190.833 535.122 191.9C533.356 192.933 531.289 193.45 528.922 193.45C526.489 193.45 524.289 192.85 522.322 191.65C520.356 190.45 518.806 188.767 517.672 186.6C516.539 184.433 515.972 181.967 515.972 179.2ZM539.172 179.25C539.172 177.183 538.756 175.383 537.922 173.85C537.089 172.317 535.956 171.15 534.522 170.35C533.122 169.517 531.572 169.1 529.872 169.1C528.172 169.1 526.622 169.5 525.222 170.3C523.822 171.1 522.706 172.267 521.872 173.8C521.039 175.333 520.622 177.133 520.622 179.2C520.622 181.3 521.039 183.133 521.872 184.7C522.706 186.233 523.822 187.417 525.222 188.25C526.622 189.05 528.172 189.45 529.872 189.45C531.572 189.45 533.122 189.05 534.522 188.25C535.956 187.417 537.089 186.233 537.922 184.7C538.756 183.133 539.172 181.317 539.172 179.25ZM584.491 158.15V161.85H569.341V173.6H581.641V177.3H569.341V193H564.791V158.15H584.491ZM601.937 193.45C599.37 193.45 597.037 192.867 594.937 191.7C592.87 190.533 591.237 188.883 590.037 186.75C588.87 184.583 588.287 182.083 588.287 179.25C588.287 176.45 588.887 173.983 590.087 171.85C591.32 169.683 592.987 168.033 595.087 166.9C597.187 165.733 599.537 165.15 602.137 165.15C604.737 165.15 607.087 165.733 609.187 166.9C611.287 168.033 612.937 169.667 614.137 171.8C615.37 173.933 615.987 176.417 615.987 179.25C615.987 182.083 615.353 184.583 614.087 186.75C612.853 188.883 611.17 190.533 609.037 191.7C606.903 192.867 604.537 193.45 601.937 193.45ZM601.937 189.45C603.57 189.45 605.103 189.067 606.537 188.3C607.97 187.533 609.12 186.383 609.987 184.85C610.887 183.317 611.337 181.45 611.337 179.25C611.337 177.05 610.903 175.183 610.037 173.65C609.17 172.117 608.037 170.983 606.637 170.25C605.237 169.483 603.72 169.1 602.087 169.1C600.42 169.1 598.887 169.483 597.487 170.25C596.12 170.983 595.02 172.117 594.187 173.65C593.353 175.183 592.937 177.05 592.937 179.25C592.937 181.483 593.337 183.367 594.137 184.9C594.97 186.433 596.07 187.583 597.437 188.35C598.803 189.083 600.303 189.45 601.937 189.45ZM646.269 165.6V193H641.719V188.95C640.852 190.35 639.636 191.45 638.069 192.25C636.536 193.017 634.836 193.4 632.969 193.4C630.836 193.4 628.919 192.967 627.219 192.1C625.519 191.2 624.169 189.867 623.169 188.1C622.202 186.333 621.719 184.183 621.719 181.65V165.6H626.219V181.05C626.219 183.75 626.902 185.833 628.269 187.3C629.636 188.733 631.502 189.45 633.869 189.45C636.302 189.45 638.219 188.7 639.619 187.2C641.019 185.7 641.719 183.517 641.719 180.65V165.6H646.269ZM667.302 165.1C670.635 165.1 673.335 166.117 675.402 168.15C677.468 170.15 678.502 173.05 678.502 176.85V193H674.002V177.5C674.002 174.767 673.318 172.683 671.952 171.25C670.585 169.783 668.718 169.05 666.352 169.05C663.952 169.05 662.035 169.8 660.602 171.3C659.202 172.8 658.502 174.983 658.502 177.85V193H653.952V165.6H658.502V169.5C659.402 168.1 660.618 167.017 662.152 166.25C663.718 165.483 665.435 165.1 667.302 165.1ZM684.234 179.2C684.234 176.4 684.801 173.95 685.934 171.85C687.067 169.717 688.617 168.067 690.584 166.9C692.584 165.733 694.817 165.15 697.284 165.15C699.417 165.15 701.401 165.65 703.234 166.65C705.067 167.617 706.467 168.9 707.434 170.5V156H712.034V193H707.434V187.85C706.534 189.483 705.201 190.833 703.434 191.9C701.667 192.933 699.601 193.45 697.234 193.45C694.801 193.45 692.584 192.85 690.584 191.65C688.617 190.45 687.067 188.767 685.934 186.6C684.801 184.433 684.234 181.967 684.234 179.2ZM707.434 179.25C707.434 177.183 707.017 175.383 706.184 173.85C705.351 172.317 704.217 171.15 702.784 170.35C701.384 169.517 699.834 169.1 698.134 169.1C696.434 169.1 694.884 169.5 693.484 170.3C692.084 171.1 690.967 172.267 690.134 173.8C689.301 175.333 688.884 177.133 688.884 179.2C688.884 181.3 689.301 183.133 690.134 184.7C690.967 186.233 692.084 187.417 693.484 188.25C694.884 189.05 696.434 189.45 698.134 189.45C699.834 189.45 701.384 189.05 702.784 188.25C704.217 187.417 705.351 186.233 706.184 184.7C707.017 183.133 707.434 181.317 707.434 179.25Z" fill="#BAB5B5"/>
<path d="M505.24 382.796V395.306H503.188V386.738L499.372 395.306H497.95L494.116 386.738V395.306H492.064V382.796H494.278L498.67 392.606L503.044 382.796H505.24ZM512.239 395.468C511.303 395.468 510.457 395.258 509.701 394.838C508.945 394.406 508.351 393.806 507.919 393.038C507.487 392.258 507.271 391.358 507.271 390.338C507.271 389.33 507.493 388.436 507.937 387.656C508.381 386.876 508.987 386.276 509.755 385.856C510.523 385.436 511.381 385.226 512.329 385.226C513.277 385.226 514.135 385.436 514.903 385.856C515.671 386.276 516.277 386.876 516.721 387.656C517.165 388.436 517.387 389.33 517.387 390.338C517.387 391.346 517.159 392.24 516.703 393.02C516.247 393.8 515.623 394.406 514.831 394.838C514.051 395.258 513.187 395.468 512.239 395.468ZM512.239 393.686C512.767 393.686 513.259 393.56 513.715 393.308C514.183 393.056 514.561 392.678 514.849 392.174C515.137 391.67 515.281 391.058 515.281 390.338C515.281 389.618 515.143 389.012 514.867 388.52C514.591 388.016 514.225 387.638 513.769 387.386C513.313 387.134 512.821 387.008 512.293 387.008C511.765 387.008 511.273 387.134 510.817 387.386C510.373 387.638 510.019 388.016 509.755 388.52C509.491 389.012 509.359 389.618 509.359 390.338C509.359 391.406 509.629 392.234 510.169 392.822C510.721 393.398 511.411 393.686 512.239 393.686ZM524.42 385.226C525.2 385.226 525.896 385.388 526.508 385.712C527.132 386.036 527.618 386.516 527.966 387.152C528.314 387.788 528.488 388.556 528.488 389.456V395.306H526.454V389.762C526.454 388.874 526.232 388.196 525.788 387.728C525.344 387.248 524.738 387.008 523.97 387.008C523.202 387.008 522.59 387.248 522.134 387.728C521.69 388.196 521.468 388.874 521.468 389.762V395.306H519.416V385.388H521.468V386.522C521.804 386.114 522.23 385.796 522.746 385.568C523.274 385.34 523.832 385.226 524.42 385.226ZM533.499 387.062V392.552C533.499 392.924 533.583 393.194 533.751 393.362C533.931 393.518 534.231 393.596 534.651 393.596H535.911V395.306H534.291C533.367 395.306 532.659 395.09 532.167 394.658C531.675 394.226 531.429 393.524 531.429 392.552V387.062H530.259V385.388H531.429V382.922H533.499V385.388H535.911V387.062H533.499ZM542.932 385.226C543.688 385.226 544.36 385.388 544.948 385.712C545.548 386.036 546.016 386.516 546.352 387.152C546.7 387.788 546.874 388.556 546.874 389.456V395.306H544.84V389.762C544.84 388.874 544.618 388.196 544.174 387.728C543.73 387.248 543.124 387.008 542.356 387.008C541.588 387.008 540.976 387.248 540.52 387.728C540.076 388.196 539.854 388.874 539.854 389.762V395.306H537.802V381.986H539.854V386.54C540.202 386.12 540.64 385.796 541.168 385.568C541.708 385.34 542.296 385.226 542.932 385.226Z" fill="#BAB5B5"/>
<path d="M20.3555 275.216L22.0295 275.2L22.0882 280.509L25.778 280.474L25.7322 276.335L27.4062 276.319L27.452 280.459L32.9237 280.407L32.9464 282.459L20.437 282.577L20.3555 275.216ZM22.827 264.308L32.7446 264.214L32.7673 266.266L31.5973 266.277C32.0089 266.597 32.3376 267.02 32.5834 267.546C32.8171 268.059 32.9372 268.61 32.9437 269.198C32.9523 269.978 32.7981 270.682 32.481 271.309C32.1638 271.924 31.6892 272.414 31.0572 272.78C30.4251 273.134 29.6591 273.316 28.7591 273.324L22.9274 273.379L22.9049 271.346L28.4306 271.293C29.3186 271.285 30.0001 271.056 30.4752 270.608C30.9382 270.159 31.1655 269.551 31.157 268.783C31.1485 268.015 30.9078 267.412 30.4349 266.972C29.9499 266.521 29.2634 266.299 28.3755 266.308L22.8497 266.36L22.827 264.308ZM27.4123 252.467C27.7843 252.463 28.1205 252.484 28.421 252.529L28.5049 260.107C29.2962 260.039 29.9289 259.739 30.403 259.207C30.8772 258.674 31.11 258.024 31.1015 257.256C31.0893 256.152 30.6187 255.376 29.6897 254.929L29.6652 252.715C30.5804 253.007 31.3364 253.545 31.9332 254.332C32.5178 255.106 32.8165 256.075 32.8294 257.239C32.8399 258.187 32.6393 259.041 32.2277 259.801C31.804 260.549 31.2105 261.143 30.4473 261.582C29.672 262.01 28.7743 262.228 27.7544 262.238C26.7344 262.247 25.8382 262.052 25.0657 261.651C24.2811 261.239 23.6747 260.662 23.2465 259.922C22.8182 259.17 22.5986 258.309 22.5879 257.337C22.5775 256.401 22.7723 255.565 23.1722 254.829C23.572 254.093 24.1417 253.518 24.8812 253.103C25.6086 252.688 26.4523 252.476 27.4123 252.467ZM26.788 254.615C26.0322 254.634 25.4292 254.91 24.979 255.442C24.5289 255.974 24.3081 256.63 24.3168 257.41C24.3246 258.118 24.5593 258.722 25.0209 259.222C25.4704 259.721 26.0797 260.016 26.8487 260.104L26.788 254.615ZM19.2496 248.472L32.569 248.346L32.5917 250.398L19.2723 250.524L19.2496 248.472ZM19.8323 227.92L32.3417 227.801L32.3644 229.853L23.7968 229.935L32.4066 233.669L32.4223 235.091L23.8971 239.006L32.4648 238.925L32.4875 240.977L19.978 241.095L19.9535 238.881L29.7145 234.397L19.8565 230.116L19.8323 227.92ZM21.0688 224.167C21.0729 224.539 20.9504 224.852 20.7012 225.107C20.452 225.361 20.1414 225.49 19.7694 225.494C19.3974 225.497 19.084 225.374 18.8293 225.125C18.5745 224.875 18.445 224.564 18.4409 224.192C18.4369 223.832 18.5596 223.525 18.8088 223.271C19.058 223.016 19.3685 222.887 19.7405 222.884C20.1125 222.88 20.4259 223.003 20.6807 223.253C20.9354 223.502 21.0648 223.807 21.0688 224.167ZM22.3716 223.147L32.2892 223.053L32.3119 225.105L22.3943 225.199L22.3716 223.147ZM18.9172 218.433L32.2366 218.307L32.2593 220.359L18.9399 220.485L18.9172 218.433ZM26.9045 206.573C27.2765 206.569 27.6127 206.59 27.9133 206.635L27.9971 214.213C28.7884 214.145 29.4211 213.845 29.8953 213.313C30.3694 212.78 30.6022 212.13 30.5937 211.362C30.5815 210.258 30.1109 209.483 29.1819 209.035L29.1574 206.822C30.0727 207.113 30.8287 207.652 31.4254 208.438C32.01 209.213 32.3088 210.182 32.3216 211.346C32.3321 212.294 32.1316 213.148 31.7199 213.908C31.2962 214.656 30.7027 215.249 29.9395 215.689C29.1642 216.116 28.2666 216.334 27.2466 216.344C26.2267 216.354 25.3305 216.158 24.558 215.758C23.7734 215.345 23.167 214.769 22.7387 214.029C22.3104 213.277 22.0908 212.415 22.0801 211.443C22.0697 210.507 22.2645 209.671 22.6644 208.935C23.0643 208.199 23.6339 207.624 24.3734 207.209C25.1008 206.794 25.9445 206.582 26.9045 206.573ZM26.2802 208.721C25.5244 208.74 24.9214 209.016 24.4713 209.548C24.0211 210.08 23.8004 210.737 23.809 211.516C23.8168 212.224 24.0515 212.828 24.5131 213.328C24.9627 213.828 25.5719 214.122 26.341 214.211L26.2802 208.721ZM27.0877 205.236C26.0918 205.245 25.2076 205.05 24.4351 204.649C23.6625 204.236 23.0622 203.678 22.6344 202.974C22.1945 202.258 21.9697 201.468 21.9602 200.604C21.9515 199.824 22.1 199.145 22.4057 198.566C22.6991 197.975 23.0719 197.503 23.5241 197.151L22.0841 197.165L22.0612 195.095L31.9788 195.001L32.0017 197.071L30.5258 197.085C30.9976 197.428 31.3928 197.899 31.7114 198.496C32.0301 199.093 32.1936 199.775 32.2021 200.543C32.2115 201.395 32.0042 202.177 31.58 202.889C31.1439 203.601 30.5382 204.171 29.7628 204.598C28.9754 205.014 28.0837 205.226 27.0877 205.236ZM27.0339 197.118C26.3499 197.124 25.7576 197.274 25.2568 197.567C24.7558 197.848 24.3759 198.217 24.117 198.676C23.858 199.134 23.7315 199.627 23.7373 200.155C23.7432 200.683 23.8806 201.174 24.1496 201.627C24.4067 202.081 24.7888 202.449 25.2959 202.733C25.791 203.004 26.3805 203.136 27.0644 203.13C27.7484 203.123 28.3468 202.98 28.8598 202.699C29.3726 202.406 29.7644 202.03 30.0354 201.572C30.2942 201.101 30.4207 200.608 30.415 200.092C30.4092 199.564 30.2717 199.073 30.0027 198.62C29.7337 198.166 29.3456 197.804 28.8386 197.533C28.3194 197.25 27.7179 197.111 27.0339 197.118ZM21.8252 188.406C21.8167 187.638 21.9652 186.958 22.2707 186.367C22.564 185.765 22.9368 185.293 23.3891 184.953L21.9492 184.966L21.9263 182.897L32.0058 182.801C32.9178 182.792 33.7299 182.977 34.4421 183.354C35.1663 183.731 35.7364 184.284 36.1525 185.012C36.5685 185.728 36.782 186.59 36.7932 187.598C36.808 188.942 36.5024 190.061 35.8763 190.955C35.2621 191.848 34.4157 192.36 33.3371 192.491L33.3146 190.457C33.8288 190.296 34.2392 189.962 34.5456 189.455C34.8639 188.936 35.0191 188.323 35.0113 187.615C35.0021 186.787 34.7427 186.123 34.2332 185.624C33.7235 185.113 32.9887 184.862 32.0287 184.871L30.3728 184.886C30.8446 185.23 31.2458 185.7 31.5765 186.297C31.895 186.882 32.0584 187.553 32.0668 188.309C32.0763 189.172 31.8691 189.966 31.4451 190.691C31.0089 191.403 30.4032 191.972 29.6279 192.4C28.8404 192.815 27.9487 193.028 26.9528 193.037C25.9568 193.047 25.0726 192.851 24.3001 192.45C23.5275 192.038 22.9273 191.479 22.4995 190.775C22.0595 190.06 21.8348 189.27 21.8252 188.406ZM26.8989 184.919C26.215 184.926 25.6226 185.076 25.1218 185.368C24.6209 185.649 24.2409 186.019 23.982 186.477C23.7231 186.936 23.5965 187.429 23.6024 187.957C23.6082 188.485 23.7456 188.976 24.0147 189.429C24.2717 189.883 24.6538 190.251 25.161 190.534C25.656 190.805 26.2455 190.938 26.9295 190.931C27.6134 190.925 28.2119 190.781 28.7248 190.5C29.2376 190.207 29.6295 189.832 29.9004 189.373C30.1592 188.903 30.2858 188.409 30.2801 187.893C30.2742 187.366 30.1368 186.875 29.8677 186.421C29.5987 185.968 29.2107 185.606 28.7036 185.334C28.1845 185.051 27.5829 184.913 26.8989 184.919ZM26.5117 171.067C26.8837 171.064 27.2199 171.085 27.5204 171.13L27.6043 178.707C28.3956 178.64 29.0283 178.34 29.5024 177.807C29.9766 177.275 30.2094 176.624 30.2009 175.856C30.1887 174.753 29.7181 173.977 28.7891 173.53L28.7646 171.316C29.6798 171.607 30.4358 172.146 31.0326 172.932C31.6172 173.707 31.9159 174.676 31.9288 175.84C31.9393 176.788 31.7387 177.642 31.3271 178.402C30.9034 179.15 30.3099 179.744 29.5467 180.183C28.7714 180.61 27.8737 180.829 26.8538 180.838C25.8338 180.848 24.9376 180.653 24.1651 180.252C23.3805 179.839 22.7741 179.263 22.3459 178.523C21.9176 177.771 21.698 176.909 21.6873 175.937C21.6769 175.001 21.8717 174.165 22.2716 173.43C22.6714 172.694 23.2411 172.118 23.9806 171.703C24.708 171.288 25.5517 171.076 26.5117 171.067ZM25.8874 173.215C25.1316 173.234 24.5286 173.51 24.0784 174.042C23.6283 174.575 23.4075 175.231 23.4162 176.011C23.424 176.719 23.6587 177.323 24.1203 177.822C24.5698 178.322 25.1791 178.616 25.9481 178.705L25.8874 173.215ZM34.937 159.756C33.8221 160.942 32.3982 161.862 30.6653 162.514C28.9323 163.155 27.0698 163.484 25.0779 163.503C23.038 163.523 21.1084 163.205 19.289 162.55C17.4695 161.883 15.9645 160.896 14.774 159.587L14.7505 157.463L14.9484 157.461C16.2357 158.829 17.7711 159.853 19.5547 160.532C21.3383 161.211 23.1721 161.541 25.056 161.524C26.8679 161.506 28.6163 161.166 30.301 160.502C31.9858 159.838 33.4573 158.882 34.7155 157.634L34.9135 157.632L34.937 159.756ZM21.329 143.555C21.3204 142.775 21.4746 142.077 21.7919 141.462C22.1089 140.835 22.5835 140.345 23.2157 139.991C23.8477 139.625 24.6136 139.437 25.5136 139.429L31.3633 139.373L31.3858 141.407L25.8421 141.46C24.9541 141.468 24.2786 141.697 23.8155 142.145C23.3405 142.594 23.1072 143.202 23.1157 143.97C23.1242 144.738 23.3709 145.347 23.856 145.799C24.3289 146.238 25.0093 146.454 25.8972 146.445L31.441 146.393L31.4635 148.427L25.9197 148.479C25.0318 148.488 24.3563 148.716 23.8932 149.165C23.4181 149.613 23.1848 150.221 23.1933 150.989C23.2018 151.757 23.4486 152.367 23.9336 152.818C24.4065 153.258 25.0869 153.473 25.9749 153.465L31.5187 153.412L31.5414 155.464L21.6238 155.558L21.6011 153.507L22.735 153.496C22.3233 153.164 22.0006 152.741 21.767 152.227C21.5333 151.713 21.4132 151.162 21.4066 150.574C21.3979 149.782 21.558 149.073 21.8871 148.446C22.2162 147.818 22.6969 147.334 23.3291 146.992C22.7258 146.698 22.2467 146.234 21.8917 145.601C21.5246 144.969 21.3371 144.287 21.329 143.555ZM22.8521 134.791C22.3923 134.447 22.0031 133.977 21.6844 133.38C21.3658 132.783 21.2023 132.106 21.194 131.35C21.1844 130.486 21.3917 129.698 21.8158 128.986C22.2279 128.262 22.8156 127.693 23.579 127.278C24.3425 126.862 25.2222 126.65 26.2181 126.64C27.2141 126.631 28.1103 126.827 28.9068 127.227C29.6913 127.628 30.3095 128.186 30.7614 128.901C31.2012 129.605 31.4259 130.389 31.4355 131.253C31.4439 132.009 31.3013 132.682 31.0078 133.273C30.7023 133.864 30.3237 134.348 29.8718 134.724L36.0275 134.666L36.0502 136.718L21.4169 136.856L21.3942 134.805L22.8521 134.791ZM26.2412 128.728C25.5573 128.735 24.9709 128.884 24.4821 129.177C23.9812 129.458 23.6073 129.833 23.3605 130.304C23.1016 130.762 22.975 131.255 22.9808 131.783C22.9866 132.299 23.124 132.79 23.3932 133.256C23.6622 133.709 24.0503 134.077 24.5575 134.361C25.0645 134.632 25.66 134.764 26.344 134.758C27.0279 134.751 27.6264 134.607 28.1393 134.327C28.6401 134.034 29.02 133.658 29.2789 133.2C29.5377 132.729 29.6643 132.236 29.6586 131.72C29.6527 131.192 29.5153 130.701 29.2462 130.248C28.9651 129.783 28.565 129.414 28.0459 129.143C27.5268 128.86 26.9252 128.722 26.2412 128.728ZM21.0757 120.664C21.0672 119.896 21.2157 119.216 21.5212 118.625C21.8145 118.023 22.1873 117.551 22.6396 117.211L21.1997 117.224L21.1768 115.155L31.2563 115.059C32.1683 115.05 32.9804 115.235 33.6926 115.612C34.4168 115.989 34.9869 116.542 35.403 117.27C35.819 117.986 36.0325 118.848 36.0437 119.856C36.0585 121.2 35.7529 122.319 35.1268 123.213C34.5126 124.106 33.6662 124.618 32.5876 124.749L32.5651 122.715C33.0793 122.554 33.4897 122.22 33.7961 121.713C34.1144 121.194 34.2696 120.581 34.2618 119.873C34.2526 119.045 33.9932 118.381 33.4837 117.882C32.974 117.371 32.2392 117.12 31.2792 117.129L29.6233 117.145C30.0951 117.488 30.4963 117.958 30.827 118.555C31.1455 119.14 31.3089 119.811 31.3173 120.567C31.3268 121.431 31.1196 122.225 30.6956 122.949C30.2594 123.661 29.6537 124.231 28.8784 124.658C28.0909 125.073 27.1992 125.286 26.2033 125.295C25.2073 125.305 24.3231 125.109 23.5506 124.708C22.778 124.296 22.1778 123.737 21.75 123.033C21.31 122.318 21.0853 121.528 21.0757 120.664ZM26.1495 117.177C25.4655 117.184 24.8731 117.334 24.3723 117.626C23.8714 117.907 23.4915 118.277 23.2325 118.735C22.9736 119.194 22.847 119.687 22.8529 120.215C22.8587 120.743 22.9961 121.234 23.2652 121.687C23.5222 122.141 23.9043 122.509 24.4115 122.792C24.9065 123.064 25.496 123.196 26.18 123.189C26.8639 123.183 27.4624 123.039 27.9753 122.758C28.4881 122.466 28.88 122.09 29.1509 121.631C29.4097 121.161 29.5363 120.667 29.5306 120.152C29.5247 119.624 29.3873 119.133 29.1182 118.679C28.8492 118.226 28.4612 117.864 27.9541 117.592C27.435 117.309 26.8334 117.171 26.1495 117.177ZM34.4179 112.838L34.2199 112.84C32.9343 111.616 31.442 110.688 29.7429 110.056C28.0438 109.424 26.2883 109.117 24.4764 109.134C22.5924 109.152 20.7664 109.517 18.9982 110.23C17.2299 110.943 15.7175 111.995 14.4608 113.387L14.2628 113.389L14.2393 111.265C15.4007 109.934 16.8836 108.924 18.6881 108.235C20.4924 107.533 22.4145 107.173 24.4545 107.154C26.4464 107.135 28.3158 107.435 30.0628 108.055C31.8096 108.662 33.2535 109.549 34.3944 110.714L34.4179 112.838Z" fill="#BAB5B5"/>
</svg>
