<svg width="32" height="32" viewBox="0 0 32 32" fill="none" xmlns="http://www.w3.org/2000/svg">
<path d="M8.11133 15.8586V9.05566C8.11133 7.9511 9.00676 7.05566 10.1113 7.05566H17.6026C18.1628 7.05566 18.6973 7.2906 19.0761 7.70331L23.1404 12.1316C23.479 12.5006 23.6669 12.9832 23.6669 13.484V25.0557C23.6669 26.1602 22.7715 27.0557 21.6669 27.0557H19.2224" stroke="black" stroke-width="2" stroke-linecap="round"/>
<rect x="9.22266" y="2.61133" width="5.55556" height="1.11111" rx="0.555556" stroke="black"/>
<path d="M22 9.83344L23.44 8.07336C23.478 8.02693 23.5348 8 23.5948 8H25" stroke="black" stroke-width="2" stroke-linecap="round"/>
<path d="M16 24.8993C16 27.4693 14.1232 29.3895 12 29.3895C9.87682 29.3895 8 27.4693 8 24.8993C8 23.8022 8.51414 22.2635 9.33707 20.6205C10.1205 19.0563 11.1202 17.5215 12 16.3919C12.8798 17.5215 13.8795 19.0563 14.6629 20.6205C15.4859 22.2635 16 23.8022 16 24.8993Z" stroke="black" stroke-width="2"/>
</svg>
