<svg width="25" height="21" viewBox="0 0 25 21" fill="none" xmlns="http://www.w3.org/2000/svg">
<path d="M24.761 5.75771L20.9282 1.92494C20.609 1.6058 20.0917 1.6058 19.7725 1.92494C19.4534 2.24407 19.4534 2.76151 19.7725 3.08053L22.1695 5.47747V14.6791C22.1695 15.4782 21.5194 16.1283 20.7203 16.1283C19.9213 16.1283 19.2711 15.4782 19.2711 14.6791V12.4284C19.2711 11.0111 18.3096 9.81471 17.0047 9.45559V4.53837V3.05308C17.0047 1.36959 15.6351 0 13.9516 0H8.36988C6.68639 0 5.31681 1.36959 5.31681 3.05308V4.53848V10.0747V18.6899H4.24882C3.79741 18.6899 3.43164 19.0558 3.43164 19.5071C3.43164 19.9584 3.79741 20.3242 4.24882 20.3242H18.0726C18.524 20.3242 18.8898 19.9584 18.8898 19.5071C18.8898 19.0558 18.524 18.6899 18.0726 18.6899H17.0047V11.2328C17.3859 11.4941 17.6368 11.9324 17.6368 12.4286V14.6793C17.6368 16.3796 19.02 17.7629 20.7203 17.7629C22.4206 17.7629 23.8038 16.3796 23.8038 14.6793V7.05952C23.9223 7.12163 24.0527 7.15268 24.1831 7.15268C24.3922 7.15268 24.6014 7.07292 24.761 6.9133C25.0801 6.59428 25.0801 6.07684 24.761 5.75771ZM6.95116 5.35555H15.3705V9.25739H6.95116V5.35555ZM8.36988 1.63424H13.9516C14.7339 1.63424 15.3704 2.27066 15.3704 3.05297V3.7212H6.95116V3.05297C6.95116 2.27066 7.58768 1.63424 8.36988 1.63424ZM6.95116 18.6898V10.8917H15.3705V18.6898H6.95116Z" fill="#2D3748"/>
<path d="M3.97834 12.4771C3.97834 12.4569 3.97768 12.4368 3.97616 12.417L3.97605 7.79375C3.97605 7.46318 3.77698 7.16518 3.47158 7.03879C3.16628 6.91229 2.81479 6.98224 2.58097 7.21596L0.239269 9.55754C0.0860758 9.71085 0 9.91863 0 10.1354C0 10.3522 0.0860758 10.5601 0.239378 10.7132L2.58118 13.0549C2.73754 13.2113 2.94652 13.2943 3.1592 13.2943C3.16258 13.2943 3.16606 13.2943 3.16944 13.2942C3.61693 13.2897 3.97834 12.9257 3.97834 12.4771Z" fill="#2D3748"/>
</svg>
