<svg width="88" height="88" viewBox="0 0 88 88" fill="none" xmlns="http://www.w3.org/2000/svg">
<circle cx="44" cy="44" r="44" fill="#CCFFEE"/>
<path d="M56.3011 27.4688H37.0155L27.9399 36.5208V55.8335C27.9399 57.4689 28.5895 59.0373 29.7458 60.1937C30.902 61.35 32.4702 61.9997 34.1054 61.9997H53.8349C55.4701 61.9997 57.0383 61.35 58.1946 60.1937C59.3508 59.0373 60.0004 57.4689 60.0004 55.8335V31.1685C60.0004 30.1873 59.6107 29.2462 58.9169 28.5524C58.2232 27.8585 57.2822 27.4688 56.3011 27.4688ZM55.068 43.501C55.0668 43.7445 54.9936 43.9821 54.8575 44.184C54.7215 44.3859 54.5287 44.543 54.3035 44.6356C54.1572 44.7046 53.9967 44.7384 53.8349 44.7342C53.6727 44.7352 53.5118 44.7041 53.3615 44.6427C53.2113 44.5813 53.0747 44.4909 52.9594 44.3766L43.0947 34.5106C42.9236 34.3372 42.8077 34.1169 42.7616 33.8777C42.7155 33.6385 42.7413 33.3909 42.8357 33.1664C42.9282 32.9411 43.0853 32.7484 43.2872 32.6123C43.4891 32.4762 43.7267 32.403 43.9702 32.4017H53.8349C54.162 32.4017 54.4756 32.5317 54.7069 32.763C54.9381 32.9942 55.068 33.3079 55.068 33.635V43.501Z" fill="black"/>
<path d="M52.6018 40.5317V34.8711H46.9419L52.6018 40.5317Z" fill="black"/>
<path d="M37.0645 39.2062C36.615 40.1363 36.4456 41.1772 36.5769 42.2019C36.7083 43.2266 37.1347 44.1911 37.8043 44.9778C38.4199 45.7326 39.2559 46.2763 40.1955 46.5328C41.1351 46.7893 42.1313 46.7458 43.045 46.4083C43.5 45.4846 43.677 44.4486 43.5545 43.4262C43.4319 42.4038 43.015 41.439 42.3544 40.6491C41.7347 39.8849 40.8908 39.3346 39.9417 39.0757C38.9927 38.8168 37.9862 38.8625 37.0645 39.2062Z" fill="black"/>
<path d="M29.8015 25.1752C29.5659 25.0341 29.29 24.9757 29.0175 25.0092C28.745 25.0427 28.4915 25.1662 28.2971 25.3602L23.3647 30.2932C23.2492 30.4078 23.1574 30.5442 23.0948 30.6945C23.0322 30.8448 23 31.006 23 31.1688C23 31.3316 23.0322 31.4928 23.0948 31.6431C23.1574 31.7933 23.2492 31.9297 23.3647 32.0444L26.1639 34.8685L33.5624 27.469L29.8015 25.1752Z" fill="black"/>
</svg>
