<svg width="28" height="30" viewBox="0 0 28 30" fill="none" xmlns="http://www.w3.org/2000/svg">
<path d="M20.0795 1.53068L25.2273 6.04091V20.2807C25.2101 20.6194 25.0634 20.9386 24.8175 21.1723C24.5717 21.406 24.2454 21.5363 23.9062 21.5363C23.5671 21.5363 23.2408 21.406 22.995 21.1723C22.7491 20.9386 22.6024 20.6194 22.5852 20.2807V10.6909C22.5852 9.87718 22.262 9.09677 21.6866 8.52138C21.1112 7.94598 20.3308 7.62273 19.517 7.62273H18.75V0.235227H0V30H18.75V9.66818H19.517C19.7883 9.66818 20.0484 9.77593 20.2402 9.96773C20.432 10.1595 20.5398 10.4197 20.5398 10.6909V20.2807C20.5676 21.155 20.9345 21.9842 21.5628 22.5928C22.1911 23.2014 23.0315 23.5417 23.9062 23.5417C24.781 23.5417 25.6214 23.2014 26.2497 22.5928C26.878 21.9842 27.2449 21.155 27.2727 20.2807V5.11364L21.4261 0L20.0795 1.53068ZM15.3068 13.2955H3.44318V3.98864H15.3068V13.2955Z" fill="#4680FF"/>
</svg>
