<svg width="42" height="42" viewBox="0 0 42 42" fill="none" xmlns="http://www.w3.org/2000/svg">
<path d="M13.7273 11C12.2318 11 11 12.2318 11 13.7273V31H23.7273V24.6364H25.5455V28.2727C25.5455 29.7682 26.7773 31 28.2727 31C29.7682 31 31 29.7682 31 28.2727V19.0114C31 18.2868 30.7155 17.6189 30.2045 17.108L25.9148 12.8182L24.6364 14.0966L27.2216 16.6818C26.2452 17.0973 25.5455 18.06 25.5455 19.1818C25.5455 20.6773 26.7773 21.9091 28.2727 21.9091C28.5927 21.9091 28.8945 21.8423 29.1818 21.7386V28.2727C29.1818 28.7873 28.7873 29.1818 28.2727 29.1818C27.7582 29.1818 27.3636 28.7873 27.3636 28.2727V24.6364C27.3636 23.6418 26.54 22.8182 25.5455 22.8182H23.7273V13.7273C23.7273 12.2318 22.4955 11 21 11H13.7273ZM13.7273 12.8182H21C21.5145 12.8182 21.9091 13.2127 21.9091 13.7273V16.4545V17.3636V19.1818V22.8182V29.1818H12.8182V22.8182V19.1818V17.3636V16.4545V13.7273C12.8182 13.2127 13.2127 12.8182 13.7273 12.8182ZM17.4453 16.055L15.2365 20.4904L16.055 20.9183L17.0547 21.3995L15.6271 24.2369L17.282 25.0359L19.4908 20.6005L18.6722 20.1726L17.6726 19.6914L19.1001 16.854L17.4453 16.055ZM28.2727 18.2727C28.7836 18.2727 29.1818 18.6709 29.1818 19.1818C29.1818 19.6927 28.7836 20.0909 28.2727 20.0909C27.7609 20.0909 27.3636 19.6927 27.3636 19.1818C27.3636 18.6709 27.7609 18.2727 28.2727 18.2727Z" fill="#6C757E"/>
</svg>
