<svg width="24" height="24" viewBox="0 0 24 24" fill="none" xmlns="http://www.w3.org/2000/svg">
<path d="M19.2035 10.0731V6.40137H15.5317L19.2035 10.0731Z" fill="#102C53"/>
<path d="M9.12411 9.21739C8.83251 9.82076 8.72263 10.4959 8.80784 11.1606C8.89306 11.8253 9.1697 12.4508 9.60407 12.9611C10.0034 13.4508 10.5457 13.8034 11.1553 13.9698C11.7648 14.1362 12.4111 14.1079 13.0038 13.8891C13.2991 13.2899 13.4139 12.6179 13.3344 11.9547C13.2548 11.2915 12.9844 10.6657 12.5559 10.1533C12.1539 9.65767 11.6064 9.3007 10.9907 9.13278C10.375 8.96486 9.7221 8.99446 9.12411 9.21739Z" fill="#102C53"/>
<path d="M4.41233 0.113635C4.25952 0.0221305 4.08054 -0.0157559 3.90376 0.00597983C3.72697 0.0277156 3.5625 0.10783 3.4364 0.233626L0.236622 3.43341C0.161645 3.50777 0.102133 3.59625 0.0615213 3.69373C0.0209092 3.79121 0 3.89576 0 4.00137C0 4.10697 0.0209092 4.21153 0.0615213 4.30901C0.102133 4.40649 0.161645 4.49496 0.236622 4.56933L2.0525 6.4012L6.85217 1.60153L4.41233 0.113635Z" fill="#102C53"/>
<path d="M21.6031 1.60156H9.09194L3.20435 7.47316V20.0003C3.20435 21.0611 3.62574 22.0784 4.37584 22.8285C5.12593 23.5786 6.14328 24 7.20407 24H20.0032C21.064 24 22.0813 23.5786 22.8314 22.8285C23.5815 22.0784 24.0029 21.0611 24.0029 20.0003V4.0014C24.0029 3.36492 23.7501 2.75451 23.3 2.30446C22.85 1.8544 22.2396 1.60156 21.6031 1.60156ZM20.8031 12.0008C20.8023 12.1588 20.7548 12.3129 20.6666 12.4439C20.5783 12.5749 20.4533 12.6768 20.3072 12.7368C20.2122 12.7816 20.1081 12.8035 20.0032 12.8008C19.8979 12.8014 19.7935 12.7812 19.6961 12.7414C19.5986 12.7016 19.51 12.6429 19.4352 12.5688L13.0357 6.16925C12.9247 6.05676 12.8495 5.91391 12.8196 5.75873C12.7897 5.60355 12.8064 5.44299 12.8677 5.29731C12.9277 5.15122 13.0296 5.02617 13.1606 4.93791C13.2915 4.84965 13.4457 4.80213 13.6036 4.80134H20.0032C20.2153 4.80134 20.4188 4.88562 20.5688 5.03564C20.7189 5.18566 20.8031 5.38913 20.8031 5.60129V12.0008Z" fill="#102C53"/>
</svg>
