<svg width="22" height="22" viewBox="0 0 22 22" fill="none" xmlns="http://www.w3.org/2000/svg">
<path d="M17.5997 9.23254V5.86719H14.2344L17.5997 9.23254Z" fill="#2D3748"/>
<path d="M8.36246 8.44844C8.0952 9.00145 7.99449 9.62025 8.07259 10.2295C8.1507 10.8387 8.40425 11.4121 8.80238 11.8798C9.16839 12.3286 9.66547 12.6518 10.2241 12.8043C10.7828 12.9568 11.3752 12.9309 11.9184 12.7303C12.189 12.1811 12.2943 11.5652 12.2214 10.9573C12.1485 10.3495 11.9006 9.77589 11.5079 9.30627C11.1394 8.85197 10.6376 8.5248 10.0733 8.37089C9.50896 8.21698 8.91055 8.24411 8.36246 8.44844Z" fill="#2D3748"/>
<path d="M4.04414 0.104152C3.90408 0.0202837 3.74003 -0.0144411 3.578 0.00548083C3.41597 0.0254028 3.26522 0.0988319 3.14964 0.214131L0.216877 3.1469C0.148156 3.21506 0.0936107 3.29615 0.0563875 3.38549C0.0191643 3.47484 0 3.57067 0 3.66746C0 3.76425 0.0191643 3.86009 0.0563875 3.94943C0.0936107 4.03878 0.148156 4.11987 0.216877 4.18803L1.88122 5.86704L6.28037 1.46789L4.04414 0.104152Z" fill="#2D3748"/>
<path d="M19.8009 1.46777H8.33379L2.9375 6.8494V18.3312C2.9375 19.3035 3.32373 20.2359 4.01123 20.9234C4.69873 21.6109 5.63119 21.9971 6.60346 21.9971H18.3345C19.3068 21.9971 20.2392 21.6109 20.9267 20.9234C21.6142 20.2359 22.0005 19.3035 22.0005 18.3312V3.66735C22.0005 3.08398 21.7687 2.52451 21.3562 2.11201C20.9437 1.69951 20.3843 1.46777 19.8009 1.46777ZM19.0677 10.9993C19.067 11.144 19.0234 11.2853 18.9425 11.4054C18.8616 11.5254 18.747 11.6188 18.6131 11.6738C18.5261 11.7148 18.4307 11.7349 18.3345 11.7325C18.238 11.733 18.1424 11.7145 18.053 11.678C17.9637 11.6415 17.8825 11.5878 17.814 11.5198L11.9484 5.6543C11.8467 5.55119 11.7778 5.42026 11.7504 5.27803C11.723 5.1358 11.7383 4.98864 11.7945 4.85512C11.8495 4.72122 11.9429 4.60661 12.0629 4.52571C12.1829 4.44482 12.3242 4.40126 12.469 4.40054H18.3345C18.529 4.40054 18.7155 4.47779 18.853 4.61529C18.9905 4.75279 19.0677 4.93928 19.0677 5.13373V10.9993Z" fill="#2D3748"/>
</svg>
