<?xml version="1.0" standalone="no"?>
<!DOCTYPE svg PUBLIC "-//W3C//DTD SVG 20010904//EN"
 "http://www.w3.org/TR/2001/REC-SVG-20010904/DTD/svg10.dtd">
<svg version="1.0" xmlns="http://www.w3.org/2000/svg"
 width="256.000000pt" height="256.000000pt" viewBox="0 0 256.000000 256.000000"
 preserveAspectRatio="xMidYMid meet">

<g transform="translate(0.000000,256.000000) scale(0.100000,-0.100000)"
fill="#000000" stroke="none">
<path d="M349 2412 c-97 -4 -114 -19 -111 -95 1 -42 7 -56 27 -74 l26 -23 704
0 c495 0 711 3 728 11 50 23 63 109 24 154 l-22 27 -650 1 c-358 1 -684 1
-726 -1z"/>
<path d="M1982 2358 c-27 -27 -13 -63 49 -123 69 -68 98 -121 99 -181 0 -37
-3 -43 -31 -54 -16 -7 -42 -29 -57 -48 -26 -34 -27 -41 -30 -173 -4 -164 6
-197 75 -238 l42 -26 1 -463 c0 -475 -1 -490 -39 -519 -27 -21 -79 -15 -106
12 l-25 24 0 363 c0 235 -4 377 -11 403 -26 93 -76 127 -194 135 l-80 5 -3
133 -3 132 -669 0 -670 0 0 -645 0 -645 670 0 670 0 2 463 3 462 68 0 c63 0
71 -2 93 -28 l24 -28 0 -376 c0 -363 1 -378 21 -421 25 -51 77 -88 137 -98 84
-13 178 48 201 133 7 24 11 208 11 499 l0 461 37 24 c71 47 78 65 81 215 3
129 2 136 -21 177 -14 24 -41 51 -60 62 -32 17 -35 23 -41 78 -9 86 -37 140
-118 223 -71 74 -100 88 -126 62z m-901 -828 c135 -25 256 -119 316 -247 105
-220 10 -480 -214 -586 -64 -30 -74 -32 -183 -32 -108 0 -119 2 -180 31 -122
58 -213 165 -245 289 -81 313 190 604 506 545z"/>
<path d="M966 1404 c-9 -8 -16 -24 -16 -35 0 -10 -6 -19 -14 -19 -23 0 -84
-77 -92 -115 -14 -77 48 -168 124 -180 20 -3 48 -11 62 -18 31 -16 39 -61 14
-88 -35 -38 -104 -13 -104 39 0 12 -11 29 -24 37 -30 20 -63 7 -72 -29 -9 -37
29 -111 70 -138 19 -13 36 -32 38 -43 2 -10 15 -26 30 -34 24 -14 28 -14 47 3
12 11 21 27 21 36 0 9 11 22 24 28 13 6 36 27 51 46 74 97 16 229 -110 251
-49 9 -75 30 -75 62 0 27 33 63 58 63 29 0 62 -29 62 -55 0 -28 24 -55 50 -55
25 0 50 26 50 53 0 35 -38 101 -70 122 -17 11 -38 35 -45 53 -16 36 -52 44
-79 16z"/>
<path d="M330 1985 l0 -145 670 0 670 0 0 145 0 145 -670 0 -670 0 0 -145z
m1064 29 c22 -22 20 -50 -6 -68 -19 -14 -73 -16 -388 -16 -315 0 -369 2 -388
16 -26 18 -28 46 -6 68 13 14 63 16 394 16 331 0 381 -2 394 -16z"/>
<path d="M265 346 c-11 -8 -21 -31 -24 -57 l-6 -44 -48 -6 c-48 -5 -67 -19
-67 -50 0 -42 -20 -41 1160 -41 877 0 1134 3 1145 12 19 16 19 45 -1 64 -13
14 -58 16 -333 16 l-318 0 -6 42 c-11 84 43 78 -766 78 -588 0 -721 -2 -736
-14z"/>
</g>
</svg>
