<svg width="24" height="24" viewBox="0 0 24 24" fill="none" xmlns="http://www.w3.org/2000/svg">
<path d="M19.2035 10.0741V6.40234H15.5317L19.2035 10.0741Z" fill="black"/>
<path d="M9.12411 9.21739C8.83251 9.82076 8.72263 10.4959 8.80784 11.1606C8.89306 11.8253 9.1697 12.4508 9.60407 12.9611C10.0034 13.4508 10.5457 13.8034 11.1553 13.9698C11.7648 14.1362 12.4111 14.1079 13.0038 13.8891C13.2991 13.2899 13.4139 12.6179 13.3344 11.9547C13.2548 11.2915 12.9844 10.6657 12.5559 10.1533C12.1539 9.65767 11.6064 9.3007 10.9907 9.13278C10.375 8.96486 9.7221 8.99446 9.12411 9.21739Z" fill="black"/>
<path d="M4.41233 0.113635C4.25952 0.0221305 4.08054 -0.0157559 3.90376 0.00597983C3.72697 0.0277156 3.5625 0.10783 3.4364 0.233626L0.236622 3.43341C0.161645 3.50777 0.102133 3.59625 0.0615213 3.69373C0.0209092 3.79121 0 3.89576 0 4.00137C0 4.10697 0.0209092 4.21153 0.0615213 4.30901C0.102133 4.40649 0.161645 4.49496 0.236622 4.56933L2.0525 6.4012L6.85217 1.60153L4.41233 0.113635Z" fill="black"/>
<path d="M21.6033 1.60156H9.09218L3.20459 7.47316V20.0003C3.20459 21.0611 3.62599 22.0784 4.37608 22.8285C5.12618 23.5786 6.14352 24 7.20431 24H20.0034C21.0642 24 22.0816 23.5786 22.8317 22.8285C23.5818 22.0784 24.0032 21.0611 24.0032 20.0003V4.0014C24.0032 3.36492 23.7503 2.75451 23.3003 2.30446C22.8502 1.8544 22.2398 1.60156 21.6033 1.60156ZM20.8034 12.0008C20.8026 12.1588 20.7551 12.3129 20.6668 12.4439C20.5785 12.5749 20.4535 12.6768 20.3074 12.7368C20.2125 12.7816 20.1084 12.8035 20.0034 12.8008C19.8982 12.8014 19.7938 12.7812 19.6963 12.7414C19.5989 12.7016 19.5102 12.6429 19.4355 12.5688L13.0359 6.16925C12.9249 6.05676 12.8497 5.91391 12.8198 5.75873C12.7899 5.60355 12.8067 5.44299 12.8679 5.29731C12.9279 5.15122 13.0298 5.02617 13.1608 4.93791C13.2918 4.84965 13.4459 4.80213 13.6039 4.80134H20.0034C20.2156 4.80134 20.4191 4.88562 20.5691 5.03564C20.7191 5.18566 20.8034 5.38913 20.8034 5.60129V12.0008Z" fill="black"/>
</svg>
