<svg width="24" height="24" viewBox="0 0 24 24" fill="none" xmlns="http://www.w3.org/2000/svg">
<path d="M19.2034 10.0731V6.40137H15.5316L19.2034 10.0731Z" fill="#FA751A"/>
<path d="M9.12399 9.21739C8.83238 9.82076 8.7225 10.4959 8.80772 11.1606C8.89294 11.8253 9.16958 12.4508 9.60395 12.9611C10.0033 13.4508 10.5456 13.8034 11.1552 13.9698C11.7647 14.1362 12.411 14.1079 13.0037 13.8891C13.2989 13.2899 13.4138 12.6179 13.3342 11.9547C13.2547 11.2915 12.9843 10.6657 12.5557 10.1533C12.1537 9.65767 11.6063 9.3007 10.9906 9.13278C10.3749 8.96486 9.72198 8.99446 9.12399 9.21739Z" fill="#FA751A"/>
<path d="M4.41233 0.113635C4.25952 0.0221305 4.08054 -0.0157559 3.90376 0.00597983C3.72697 0.0277156 3.5625 0.10783 3.4364 0.233626L0.236622 3.43341C0.161645 3.50777 0.102133 3.59625 0.0615213 3.69373C0.0209092 3.79121 0 3.89576 0 4.00137C0 4.10697 0.0209092 4.21153 0.0615213 4.30901C0.102133 4.40649 0.161645 4.49496 0.236622 4.56933L2.0525 6.4012L6.85217 1.60153L4.41233 0.113635Z" fill="#FA751A"/>
<path d="M21.6032 1.60156H9.09206L3.20447 7.47316V20.0003C3.20447 21.0611 3.62587 22.0784 4.37596 22.8285C5.12605 23.5786 6.1434 24 7.20419 24H20.0033C21.0641 24 22.0814 23.5786 22.8315 22.8285C23.5816 22.0784 24.003 21.0611 24.003 20.0003V4.0014C24.003 3.36492 23.7502 2.75451 23.3001 2.30446C22.8501 1.8544 22.2397 1.60156 21.6032 1.60156ZM20.8033 12.0008C20.8025 12.1588 20.7549 12.3129 20.6667 12.4439C20.5784 12.5749 20.4534 12.6768 20.3073 12.7368C20.2124 12.7816 20.1082 12.8035 20.0033 12.8008C19.898 12.8014 19.7937 12.7812 19.6962 12.7414C19.5987 12.7016 19.5101 12.6429 19.4353 12.5688L13.0358 6.16925C12.9248 6.05676 12.8496 5.91391 12.8197 5.75873C12.7898 5.60355 12.8065 5.44299 12.8678 5.29731C12.9278 5.15122 13.0297 5.02617 13.1607 4.93791C13.2917 4.84965 13.4458 4.80213 13.6038 4.80134H20.0033C20.2155 4.80134 20.4189 4.88562 20.569 5.03564C20.719 5.18566 20.8033 5.38913 20.8033 5.60129V12.0008Z" fill="#FA751A"/>
</svg>
