<svg width="26" height="26" viewBox="0 0 26 26" fill="none" xmlns="http://www.w3.org/2000/svg">
<path d="M12.9996 15.5996L12.3434 16.3542C12.7197 16.6814 13.2795 16.6814 13.6558 16.3542L12.9996 15.5996ZM7.42279 16.4449C7.95407 16.2941 8.26244 15.7411 8.11157 15.2098C7.9607 14.6785 7.4077 14.3701 6.87643 14.521L7.42279 16.4449ZM19.1228 14.521C18.5915 14.3701 18.0385 14.6785 17.8876 15.2098C17.7368 15.7411 18.0451 16.2941 18.5764 16.4449L19.1228 14.521ZM17.1996 7.68657C17.1996 8.29635 16.9593 9.04319 16.5076 9.87773C16.0632 10.6989 15.4581 11.5253 14.8325 12.2733C14.2097 13.0179 13.5841 13.6643 13.1128 14.1253C12.8778 14.3552 12.6827 14.5375 12.5475 14.6613C12.48 14.7232 12.4275 14.7704 12.3926 14.8015C12.3752 14.817 12.3622 14.8285 12.3539 14.8359C12.3497 14.8395 12.3467 14.8421 12.345 14.8436C12.3441 14.8444 12.3435 14.8449 12.3433 14.8451C12.3431 14.8453 12.3431 14.8453 12.3431 14.8453C12.3431 14.8453 12.3432 14.8452 12.3432 14.8452C12.3433 14.8451 12.3434 14.845 12.9996 15.5996C13.6558 16.3542 13.6559 16.3541 13.6561 16.3539C13.6562 16.3538 13.6564 16.3537 13.6566 16.3535C13.6569 16.3532 13.6573 16.3529 13.6578 16.3524C13.6588 16.3516 13.6601 16.3504 13.6618 16.349C13.665 16.3462 13.6695 16.3422 13.6752 16.3372C13.6866 16.3272 13.7027 16.3129 13.7234 16.2945C13.7647 16.2577 13.8239 16.2044 13.8986 16.136C14.0478 15.9993 14.2589 15.8019 14.5114 15.5549C15.0151 15.0621 15.6895 14.3661 16.3667 13.5564C17.0411 12.75 17.736 11.8101 18.2666 10.8296C18.7899 9.86255 19.1996 8.77243 19.1996 7.68657H17.1996ZM12.9996 15.5996C13.6558 14.845 13.6559 14.8451 13.656 14.8452C13.656 14.8452 13.6561 14.8453 13.6561 14.8453C13.6561 14.8453 13.6561 14.8453 13.6559 14.8451C13.6557 14.8449 13.6551 14.8444 13.6542 14.8436C13.6525 14.8421 13.6495 14.8395 13.6454 14.8359C13.637 14.8285 13.624 14.817 13.6066 14.8015C13.5717 14.7704 13.5192 14.7232 13.4517 14.6613C13.3165 14.5375 13.1214 14.3552 12.8864 14.1253C12.4151 13.6643 11.7895 13.0179 11.1667 12.2733C10.5411 11.5253 9.93597 10.6989 9.49158 9.87773C9.03994 9.04319 8.79961 8.29635 8.79961 7.68657H6.79961C6.79961 8.77243 7.20928 9.86255 7.73264 10.8296C8.26325 11.8101 8.9581 12.75 9.63253 13.5564C10.3097 14.3661 10.9841 15.0621 11.4878 15.5549C11.7403 15.8019 11.9514 15.9993 12.1007 16.136C12.1753 16.2044 12.2345 16.2577 12.2758 16.2945C12.2965 16.3129 12.3127 16.3272 12.324 16.3372C12.3297 16.3422 12.3342 16.3462 12.3374 16.349C12.3391 16.3504 12.3404 16.3516 12.3414 16.3524C12.3419 16.3529 12.3423 16.3532 12.3426 16.3535C12.3428 16.3537 12.343 16.3538 12.3431 16.3539C12.3433 16.3541 12.3434 16.3542 12.9996 15.5996ZM8.79961 7.68657C8.79961 5.45001 10.6592 3.59961 12.9996 3.59961V1.59961C9.59628 1.59961 6.79961 4.30423 6.79961 7.68657H8.79961ZM12.9996 3.59961C15.34 3.59961 17.1996 5.45001 17.1996 7.68657H19.1996C19.1996 4.30423 16.4029 1.59961 12.9996 1.59961V3.59961ZM22.3996 19.0663C22.3996 19.3162 22.2823 19.6449 21.8805 20.0406C21.4753 20.4398 20.8376 20.8454 19.9689 21.2073C18.2359 21.9294 15.7725 22.3996 12.9996 22.3996V24.3996C15.9705 24.3996 18.7071 23.8998 20.7381 23.0535C21.7515 22.6313 22.6368 22.103 23.2841 21.4654C23.9349 20.8243 24.3996 20.0129 24.3996 19.0663H22.3996ZM12.9996 22.3996C10.2268 22.3996 7.76332 21.9294 6.03031 21.2073C5.16163 20.8454 4.52392 20.4398 4.11868 20.0406C3.71695 19.6449 3.59961 19.3162 3.59961 19.0663H1.59961C1.59961 20.0129 2.0643 20.8243 2.71511 21.4654C3.3624 22.103 4.24774 22.6313 5.26108 23.0535C7.29213 23.8998 10.0287 24.3996 12.9996 24.3996V22.3996ZM3.59961 19.0663C3.59961 18.758 3.78533 18.3169 4.45512 17.8006C5.11489 17.2921 6.12257 16.8142 7.42279 16.4449L6.87643 14.521C5.43004 14.9318 4.16272 15.5008 3.23414 16.2166C2.31559 16.9246 1.59961 17.8851 1.59961 19.0663H3.59961ZM18.5764 16.4449C19.8766 16.8142 20.8843 17.2921 21.5441 17.8006C22.2139 18.3169 22.3996 18.758 22.3996 19.0663H24.3996C24.3996 17.8851 23.6836 16.9246 22.7651 16.2166C21.8365 15.5008 20.5692 14.9318 19.1228 14.521L18.5764 16.4449Z" fill="black"/>
</svg>
