<svg width="16" height="17" viewBox="0 0 16 17" fill="none" xmlns="http://www.w3.org/2000/svg">
<path d="M11.8032 7.29352V7.15599C11.8032 4.45728 9.61548 2.26953 6.91677 2.26953H6.73197C4.11426 2.26953 1.99219 4.3916 1.99219 7.00931C1.99219 7.91436 2.27717 8.79643 2.8067 9.5304L6.89771 15.2008L7.74469 14.3249" stroke="#A81212" stroke-width="0.8" stroke-linecap="round"/>
<path d="M10.9006 9.16978C11.1465 8.75991 11.7388 8.75423 11.9866 9.16294C12.7264 10.3842 13.2964 11.4003 14.0276 12.6112C14.2874 13.0415 13.9804 13.5955 13.4778 13.5956H9.37523C8.878 13.5954 8.57076 13.0533 8.82641 12.6268L10.9006 9.16978ZM11.4387 12.3299C11.2179 12.33 11.0394 12.5085 11.0393 12.7294C11.0393 12.9502 11.2179 13.1297 11.4387 13.1297C11.6596 13.1297 11.8391 12.9503 11.8391 12.7294C11.839 12.5085 11.6596 12.3299 11.4387 12.3299ZM11.4387 9.70591C11.2621 9.706 11.1185 9.8496 11.1184 10.0262V11.704L11.1252 11.7684C11.1552 11.914 11.2843 12.0232 11.4387 12.0233C11.5932 12.0233 11.7222 11.9141 11.7522 11.7684L11.759 11.704V10.0262C11.759 9.84955 11.6154 9.70591 11.4387 9.70591Z" fill="#A81212"/>
<path d="M6.90234 5.17383C7.85512 5.17383 8.62773 5.94571 8.62793 6.89844C8.62793 7.85133 7.85524 8.62402 6.90234 8.62402C5.94962 8.62382 5.17773 7.85121 5.17773 6.89844C5.17794 5.94584 5.94974 5.17403 6.90234 5.17383Z" stroke="#A81212" stroke-width="0.8"/>
</svg>
