<svg width="21" height="21" viewBox="0 0 21 21" fill="none" xmlns="http://www.w3.org/2000/svg">
<path d="M10.4579 12.6019L9.9531 13.1823C10.2425 13.434 10.6732 13.434 10.9626 13.1823L10.4579 12.6019ZM5.92528 13.2473C6.33396 13.1312 6.57117 12.7058 6.45511 12.2972C6.33906 11.8885 5.91368 11.6513 5.505 11.7673L5.92528 13.2473ZM15.4107 11.7673C15.002 11.6513 14.5767 11.8885 14.4606 12.2972C14.3445 12.7058 14.5818 13.1312 14.9904 13.2473L15.4107 11.7673ZM14.6736 6.1866H13.9044C13.9044 6.69084 13.706 7.30344 13.3384 7.98277C12.9763 8.65181 12.4838 9.32415 11.9757 9.93175C11.4696 10.5368 10.9614 11.0618 10.5786 11.4362C10.3878 11.623 10.2292 11.7711 10.1194 11.8718C10.0645 11.9221 10.0218 11.9605 9.99338 11.9858C9.97918 11.9984 9.96855 12.0078 9.96175 12.0138C9.95835 12.0168 9.95591 12.0189 9.95446 12.0202C9.95373 12.0209 9.95325 12.0213 9.95303 12.0215C9.95291 12.0216 9.95286 12.0216 9.95288 12.0216C9.95288 12.0216 9.95294 12.0215 9.95294 12.0215C9.95302 12.0215 9.9531 12.0214 10.4579 12.6019C10.9626 13.1823 10.9627 13.1822 10.9629 13.1821C10.9629 13.182 10.9631 13.1819 10.9632 13.1818C10.9635 13.1816 10.9638 13.1813 10.9642 13.1809C10.965 13.1802 10.9661 13.1793 10.9674 13.1782C10.97 13.1759 10.9736 13.1727 10.9782 13.1687C10.9873 13.1607 11.0004 13.1491 11.017 13.1343C11.0504 13.1045 11.0983 13.0615 11.1586 13.0062C11.2793 12.8956 11.4502 12.7359 11.6545 12.536C12.0622 12.1371 12.6079 11.5739 13.1558 10.9188C13.7016 10.2662 14.263 9.50658 14.6914 8.715C15.1142 7.93372 15.4428 7.05705 15.4428 6.1866H14.6736ZM10.4579 12.6019C10.9626 12.0214 10.9627 12.0215 10.9628 12.0215C10.9628 12.0215 10.9628 12.0216 10.9628 12.0216C10.9629 12.0216 10.9628 12.0216 10.9627 12.0215C10.9625 12.0213 10.962 12.0209 10.9613 12.0202C10.9598 12.0189 10.9574 12.0168 10.954 12.0138C10.9472 12.0078 10.9365 11.9984 10.9223 11.9858C10.8939 11.9605 10.8512 11.9221 10.7963 11.8718C10.6865 11.7711 10.528 11.623 10.3371 11.4362C9.95434 11.0618 9.44608 10.5368 8.94004 9.93175C8.43187 9.32415 7.93941 8.65181 7.57734 7.98277C7.2097 7.30344 7.01134 6.69084 7.01134 6.1866H6.24211H5.47288C5.47288 7.05705 5.80149 7.93372 6.22431 8.715C6.65269 9.50658 7.21416 10.2662 7.75993 10.9188C8.30783 11.5739 8.85351 12.1371 9.26123 12.536C9.46556 12.7359 9.6364 12.8956 9.75708 13.0062C9.81745 13.0615 9.86535 13.1045 9.89869 13.1343C9.91536 13.1491 9.92841 13.1607 9.93756 13.1687C9.94214 13.1727 9.94574 13.1759 9.94834 13.1782C9.94965 13.1793 9.9507 13.1802 9.95149 13.1809C9.95189 13.1813 9.95222 13.1816 9.95249 13.1818C9.95262 13.1819 9.95278 13.182 9.95285 13.1821C9.95298 13.1822 9.9531 13.1823 10.4579 12.6019ZM6.24211 6.1866H7.01134C7.01134 4.34961 8.53837 2.83173 10.4579 2.83173V2.0625V1.29327C7.72076 1.29327 5.47288 3.46824 5.47288 6.1866H6.24211ZM10.4579 2.0625V2.83173C12.3773 2.83173 13.9044 4.34961 13.9044 6.1866H14.6736H15.4428C15.4428 3.46824 13.195 1.29327 10.4579 1.29327V2.0625ZM18.8893 15.4124H18.1201C18.1201 15.6295 18.0178 15.9059 17.6869 16.2318C17.3534 16.5604 16.8312 16.8918 16.124 17.1865C14.7128 17.7744 12.71 18.1562 10.4579 18.1562V18.9255V19.6947C12.8623 19.6947 15.0752 19.2901 16.7157 18.6066C17.5342 18.2655 18.2468 17.8398 18.7666 17.3278C19.2891 16.8131 19.6586 16.1654 19.6586 15.4124H18.8893ZM10.4579 18.9255V18.1562C8.20574 18.1562 6.20292 17.7744 4.79175 17.1865C4.08449 16.8918 3.56235 16.5604 3.22879 16.2318C2.89794 15.9059 2.7956 15.6295 2.7956 15.4124H2.02637H1.25714C1.25714 16.1654 1.62666 16.8131 2.14912 17.3278C2.66887 17.8398 3.3815 18.2655 4.20004 18.6066C5.84047 19.2901 8.05339 19.6947 10.4579 19.6947V18.9255ZM2.02637 15.4124H2.7956C2.7956 15.1443 2.95717 14.7759 3.50534 14.3534C4.04581 13.9368 4.86814 13.5475 5.92528 13.2473L5.71514 12.5073L5.505 11.7673C4.33542 12.0995 3.31337 12.5589 2.56612 13.1349C1.82659 13.7049 1.25714 14.4729 1.25714 15.4124H2.02637ZM15.2006 12.5073L14.9904 13.2473C16.0476 13.5475 16.8699 13.9368 17.4104 14.3534C17.9585 14.7759 18.1201 15.1443 18.1201 15.4124H18.8893H19.6586C19.6586 14.4729 19.0891 13.7049 18.3496 13.1349C17.6023 12.5589 16.5803 12.0995 15.4107 11.7673L15.2006 12.5073Z" fill="#434343"/>
</svg>
