<svg width="31" height="31" viewBox="0 0 31 31" fill="none" xmlns="http://www.w3.org/2000/svg">
<path d="M19.1664 27.3402C16.5594 28.2298 13.73 28.2236 11.1269 27.3226C8.52385 26.4215 6.29608 24.6773 4.79687 22.3664C3.29766 20.0555 2.61284 17.3102 2.851 14.566C3.08916 11.8217 4.23666 9.23542 6.11155 7.21734C7.98644 5.19926 10.4814 3.86486 13.2008 3.42574C15.9202 2.98662 18.7083 3.46791 21.1231 4.7933C23.5379 6.11869 25.4411 8.21231 26.5309 10.7422C27.6207 13.272 27.8348 16.0933 27.1391 18.7586" stroke="#FA751A" stroke-width="0.960449"/>
<path d="M19.1664 27.3402C16.5594 28.2298 13.73 28.2236 11.1269 27.3226C8.52385 26.4215 6.29608 24.6773 4.79687 22.3664C3.29766 20.0555 2.61284 17.3102 2.851 14.566C3.08916 11.8217 4.23666 9.23542 6.11155 7.21734C7.98644 5.19926 10.4814 3.86486 13.2008 3.42574C15.9202 2.98662 18.7083 3.46791 21.1231 4.7933C23.5379 6.11869 25.4411 8.21231 26.5309 10.7422C27.6207 13.272 27.8348 16.0933 27.1391 18.7586" stroke="#FA751A" stroke-width="0.960449" stroke-linecap="round"/>
<circle cx="23.2905" cy="23.1206" r="4.40206" stroke="#FA751A" stroke-width="0.960449"/>
<path d="M4.26953 9.76491L26.0307 9.76465" stroke="#FA751A" stroke-width="0.960449"/>
<path d="M16.9136 22.0331C17.1788 22.0331 17.3938 21.8181 17.3938 21.5529C17.3938 21.2877 17.1788 21.0727 16.9136 21.0727V22.0331ZM3.03516 16.1514L27.4583 16.1511L27.4583 15.1907L3.03515 15.1909L3.03516 16.1514ZM4.1002 22.0331H16.9136V21.0727H4.1002V22.0331Z" fill="#FA751A"/>
<line x1="15.6521" y1="3.88672" x2="15.6521" y2="28.003" stroke="#FA751A" stroke-width="0.960449"/>
<path d="M14.6718 28.0031C13.461 27.6481 12.3337 26.4523 11.4828 24.4851C10.6319 22.518 10.1019 19.9628 9.97878 17.2341C9.85567 14.5053 10.1467 11.7632 10.8046 9.45266C11.4625 7.1421 12.4487 5.39868 13.6032 4.50529C14.7577 3.6119 16.0127 3.62096 17.1646 4.531C18.3165 5.44104 19.2977 7.19866 19.949 9.51866C20.6003 11.8387 20.8834 14.5849 20.7525 17.3118" stroke="#FA751A" stroke-width="0.960449" stroke-linecap="round"/>
<path d="M23.5076 20.9814V23.9803H21.793" stroke="#FA751A" stroke-width="0.960449" stroke-linecap="round"/>
</svg>
