<svg width="16" height="15" viewBox="0 0 16 15" fill="none" xmlns="http://www.w3.org/2000/svg">
<path d="M7.64665 0.455253C10.9404 0.240596 13.7845 2.73669 13.9992 6.03045C14.103 7.62279 13.5713 9.10843 12.6242 10.2443L12.7843 14.5568L9.68181 12.1642C9.27926 12.2792 8.85874 12.3547 8.424 12.383C5.13022 12.5976 2.28611 10.1016 2.07146 6.80779C1.85687 3.51406 4.35293 0.669969 7.64665 0.455253Z" fill="#EB2C3E"/>
<path d="M6.7793 2.62207C7.57108 2.62219 8.27969 2.97134 8.76465 3.52246L7.37891 5.92383C7.20543 6.22491 7.42292 6.60156 7.77051 6.60156H9.10938C8.60709 7.94029 7.62487 9.59459 7.06348 10.3604C6.91606 10.5614 6.64284 10.5618 6.49609 10.3604C5.73103 9.30778 4.1319 6.53716 4.13184 5.26855C4.13184 3.80679 5.31753 2.62207 6.7793 2.62207Z" fill="#D9D9D9"/>
<circle cx="6.74094" cy="5.36399" r="1.61496" fill="#EB2C3E"/>
<path d="M9.49264 2.87581C9.6665 2.57467 10.1012 2.57467 10.275 2.87581L11.8895 5.67211C12.0633 5.97325 11.846 6.34968 11.4983 6.34968H8.26939C7.92166 6.34968 7.70433 5.97325 7.8782 5.67211L9.49264 2.87581Z" fill="#D9D9D9"/>
<path d="M9.68197 4.12027C9.67648 4.00481 9.7686 3.9082 9.88418 3.9082V3.9082C9.99961 3.9082 10.0917 4.00458 10.0864 4.1199L10.0413 5.10575C10.0374 5.18923 9.96865 5.25494 9.88508 5.25494V5.25494C9.80162 5.25494 9.73288 5.1894 9.72891 5.10603L9.68197 4.12027Z" fill="#EB2C3E"/>
<circle cx="9.88397" cy="5.56756" r="0.156427" fill="#EB2C3E"/>
</svg>
