<svg width="16" height="15" viewBox="0 0 16 15" fill="none" xmlns="http://www.w3.org/2000/svg">
<path d="M7.63493 0.454276C10.9287 0.23962 13.7727 2.73572 13.9875 6.02947C14.0912 7.62182 13.5596 9.10745 12.6125 10.2433L12.7726 14.5539L9.67204 12.1623C9.26887 12.2776 8.84776 12.3536 8.41228 12.382C5.1185 12.5966 2.27439 10.1006 2.05974 6.80682C1.84515 3.51309 4.34121 0.668992 7.63493 0.454276Z" fill="#EB2C3E"/>
<path d="M6.7666 2.62109C7.55879 2.62109 8.26788 2.97096 8.75293 3.52246L7.36816 5.92383C7.19457 6.22484 7.41132 6.60036 7.75879 6.60059H9.09766C8.59538 7.93951 7.61318 9.5946 7.05176 10.3604C6.90431 10.5614 6.63109 10.5609 6.48438 10.3594C5.7193 9.30678 4.12012 6.53615 4.12012 5.26758C4.12026 3.80603 5.30505 2.62124 6.7666 2.62109Z" fill="#D9D9D9"/>
<circle cx="6.72922" cy="5.36496" r="1.61496" fill="#EB2C3E"/>
<path d="M9.48092 2.87679C9.65479 2.57565 10.0894 2.57565 10.2633 2.87679L11.8778 5.67309C12.0516 5.97423 11.8343 6.35065 11.4866 6.35065H8.25767C7.90994 6.35065 7.69261 5.97423 7.86648 5.67308L9.48092 2.87679Z" fill="#D9D9D9"/>
<path d="M9.67025 4.12222C9.66476 4.00677 9.75688 3.91016 9.87246 3.91016C9.9879 3.91016 10.08 4.00653 10.0747 4.12185L10.0295 5.1077C10.0257 5.19118 9.95693 5.2569 9.87336 5.2569C9.7899 5.2569 9.72116 5.19135 9.71719 5.10799L9.67025 4.12222Z" fill="#EB2C3E"/>
<circle cx="9.87225" cy="5.57049" r="0.156427" fill="#EB2C3E"/>
</svg>
