<svg width="36" height="32" viewBox="0 0 36 32" fill="none" xmlns="http://www.w3.org/2000/svg">
<g clip-path="url(#clip0_393_293)">
<path d="M16.3674 8.60968L16.4668 8.53968C18.2676 7.28724 19.9978 6.10852 21.4553 5.14582L21.5646 5.0689C23.4137 3.84794 24.8073 2.98938 25.3195 2.79322C25.7125 2.63287 26.1321 2.55101 26.5539 2.55241C26.9756 2.55381 27.3911 2.63844 27.7762 2.80138C28.9296 3.26735 30.0671 4.38362 31.2941 6.12561C32.5211 7.8676 33.1917 9.32076 33.2427 10.5647C33.2662 10.9821 33.2057 11.4017 33.0649 11.799C32.924 12.1964 32.7056 12.5637 32.4222 12.8796C32.0606 13.2941 30.7872 14.3188 29.0156 15.6498L28.9064 15.7267C27.509 16.7748 25.8164 18.007 24.0306 19.2808L23.9312 19.3508C21.8743 20.8172 19.6948 22.3347 17.7079 23.6942L17.5561 23.8011L16.7826 24.3268C14.2885 26.0148 12.1938 27.372 11.1687 27.9278C7.6382 29.8425 4.32064 25.1324 4.32064 25.1324C4.32064 25.1324 1.00383 20.4233 3.99888 17.7369C4.87055 16.9632 6.85016 15.4426 9.28027 13.6638L10.035 13.1114L10.1868 13.0045C12.1298 11.5897 14.2895 10.0557 16.3674 8.60968Z" fill="#21BC4D"/>
<path d="M23.3648 18.5436L23.4642 18.4736L24.0352 19.2842L23.9358 19.3542L23.3648 18.5436Z" fill="#404958"/>
<path d="M16.3675 8.60965L16.4669 8.53964L17.0371 9.34923L16.9377 9.41923L16.3675 8.60965Z" fill="#404958"/>
<path d="M27.6363 14.989L28.1 15.2089L29.0156 15.6505L28.9064 15.7274L27.9812 15.2861L27.5764 15.0919L27.6363 14.989Z" fill="#404958"/>
<path d="M21.4508 5.14305L21.56 5.06612L21.6624 6.07903L21.7132 6.58969L21.5946 6.60454L21.548 6.15796L21.4508 5.14305Z" fill="#404958"/>
<path d="M27.781 2.80667C28.9289 3.27649 30.0708 4.38968 31.2978 6.13167C32.5248 7.87366 33.1935 9.32178 33.2441 10.5629C32.6288 11.3373 31.8682 11.9871 31.0059 12.4749L28.4244 8.15559L25.2261 4.26906C25.9764 3.62203 26.8445 3.12514 27.781 2.80667Z" fill="#28D459"/>
<path d="M5.1974 24.5212C5.1974 24.5212 6.57935 26.4832 7.2861 25.8256L4.66966 22.1109C3.81622 22.5602 5.1974 24.5212 5.1974 24.5212Z" fill="#2B3545"/>
<path d="M10.1076 27.4472L10.9331 27.0464C11.1906 26.9216 11.4096 26.7292 11.566 26.4904C11.7223 26.2517 11.8098 25.976 11.8187 25.6939L11.8195 25.6742L10.4519 23.7325L7.41352 25.8725C7.34267 25.9233 7.28434 25.9895 7.24313 26.0658C7.20192 26.1422 7.17897 26.2267 7.17607 26.3125C7.17317 26.3984 7.19042 26.4834 7.22644 26.5607C7.26246 26.638 7.31628 26.7056 7.38364 26.758L7.99442 27.2355C8.28757 27.4633 8.64081 27.6039 9.01423 27.6413C9.38766 27.6787 9.76638 27.6115 10.1076 27.4472Z" fill="white"/>
<path d="M4.15584 18.9968L4.81132 18.3546C5.01549 18.1541 5.27047 18.0127 5.54792 17.9459C5.82538 17.8791 6.11446 17.8896 6.38303 17.9762L6.40188 17.9821L7.76953 19.9238L4.73117 22.0639C4.6595 22.1135 4.57754 22.1461 4.49176 22.1592C4.40598 22.1723 4.31873 22.1654 4.2369 22.1392C4.15507 22.113 4.08089 22.0682 4.02022 22.0082C3.95955 21.9483 3.91406 21.8748 3.88732 21.7937L3.64351 21.0579C3.52773 20.7051 3.51435 20.3251 3.60488 19.9609C3.69542 19.5967 3.88626 19.2628 4.15584 18.9968Z" fill="white"/>
<path d="M8.21027 26.8258C8.55841 27.0776 8.97974 27.2127 9.41477 27.2122C9.8498 27.2117 10.2766 27.0756 10.6348 26.8231L14.9805 23.7622L9.20069 15.5564L4.85502 18.6172C4.49642 18.8698 4.22454 19.2263 4.07781 19.6361C3.93108 20.046 3.91693 20.4886 4.03736 20.9013C4.73157 23.2881 6.19676 25.3683 8.21027 26.8258Z" fill="#28D459"/>
<path d="M5.11916 22.0189C4.94023 22.1795 4.81762 22.3924 4.76987 22.6256C4.72211 22.8587 4.75182 23.0993 4.85448 23.3111C5.03153 23.6626 5.23598 23.9994 5.46601 24.3185C5.68901 24.6426 5.93727 24.9485 6.20859 25.2336C6.37344 25.4017 6.59007 25.5109 6.82577 25.5447C7.06147 25.5784 7.30346 25.5349 7.51518 25.4206L13.7773 22.0533L10.4041 17.2642L5.11916 22.0189Z" fill="#28D459"/>
<path d="M9.20119 15.5564L10.1659 15.0702L12.6461 13.8218L15.3592 12.4541L16.1518 13.4842C16.7404 14.2489 17.3103 15.0278 17.8614 15.821C18.3474 16.511 18.8177 17.212 19.2724 17.924L19.9754 19.0172L17.83 21.0588L15.8204 22.9728L14.9811 23.7717C13.5518 22.8154 12.3134 21.6074 11.3256 20.2056C11.2616 20.1149 11.1977 20.0241 11.133 19.9322C10.2429 18.5972 9.5898 17.1178 9.20119 15.5564Z" fill="#2B3545"/>
<path d="M29.1521 13.4445C29.6411 13.3775 30.1355 13.373 30.623 13.4311L16.2067 23.5853L18.6158 21.155L20.4306 19.3239C20.7984 18.953 21.1903 18.6065 21.6036 18.2867L24.0718 16.3741L26.3108 14.6372C27.138 13.9956 28.1196 13.5836 29.1521 13.4445Z" fill="#2B3545"/>
<path d="M9.77903 14.4635L15.2174 11.9194C15.6907 11.6983 16.1492 11.4464 16.5898 11.1652L21.6096 7.96188C22.2594 7.54754 22.8228 7.01123 23.2672 6.38392C23.7116 5.75661 24.0282 5.05073 24.1987 4.30704L9.78231 14.4612L9.77903 14.4635Z" fill="#2B3545"/>
<path d="M25.2264 4.26906C27.0637 3.8618 28.69 5.41205 29.4791 6.36307C29.6643 6.58168 29.8373 6.81027 29.9974 7.04786C29.9974 7.04786 32.4285 10.2187 31.0062 12.4749L30.457 12.4862L29.5716 12.5074L28.2249 12.5372C28.2249 12.5372 28.1928 11.4013 27.176 9.76052C27.076 9.59766 26.9646 9.4301 26.8442 9.25921C25.5104 7.36556 24.228 6.86261 24.228 6.86261L24.7068 5.61457L24.8862 5.14784L25.2264 4.26906Z" fill="#2B3545"/>
<path opacity="0.1" d="M20.6436 18.5209C20.6436 18.5209 18.2405 14.3923 16.2292 12.2535C16.2292 12.2535 21.5981 8.63176 23.5408 7.68048C23.5408 7.68048 24.46 13.8897 20.6436 18.5209Z" fill="white"/>
<path opacity="0.1" d="M12.3716 19.4223C14.3277 18.46 16.2708 17.3167 17.8611 15.8211C18.3471 16.511 18.8174 17.212 19.272 17.924L19.975 19.0172L14.9806 23.7622C13.5513 22.806 12.3129 21.5979 11.3251 20.1962C11.2612 20.1054 11.1972 20.0146 11.1325 19.9227C11.5944 19.7364 12.0476 19.5818 12.3716 19.4223Z" fill="white"/>
<path opacity="0.1" d="M9.20007 15.5564L10.1648 15.0702C10.4974 16.076 10.9271 17.0458 11.4481 17.9662C12.1115 19.1402 12.9164 20.2278 13.8457 21.2054C14.4223 21.8108 15.2295 22.3304 15.8221 22.9676L14.9829 23.7665C13.5535 22.8102 12.3152 21.6022 11.3273 20.2004C11.2634 20.1097 11.1994 20.0189 11.1347 19.927C10.2442 18.5938 9.59011 17.1162 9.20007 15.5564Z" fill="#080808"/>
<path opacity="0.05" d="M9.20134 15.5564L10.1661 15.0702L12.6463 13.8218C13.7556 16.6224 15.5342 19.1022 17.8316 21.0514L15.8219 22.9655L14.9826 23.7643C13.5533 22.8081 12.3149 21.6001 11.3271 20.1983C11.2632 20.1075 11.1992 20.0167 11.1345 19.9249C10.2447 18.5922 9.59116 17.1153 9.20134 15.5564Z" fill="white"/>
<path opacity="0.1" d="M29.4817 6.35709C29.6669 6.57569 29.8399 6.80429 30 7.04187C30 7.04187 32.4271 10.2187 31.0048 12.4749L28.2251 12.5393C28.2251 12.5393 28.193 11.4034 27.1762 9.76265C27.2714 9.6828 27.362 9.59765 27.4475 9.50762C28.3107 8.58513 29 7.51743 29.4817 6.35709Z" fill="white"/>
<path opacity="0.1" d="M25.2264 4.26906C27.0637 3.8618 28.69 5.41205 29.4791 6.36307C29.6643 6.58168 29.8373 6.81027 29.9974 7.04786C29.9974 7.04786 32.4285 10.2187 31.0062 12.4749L30.457 12.4862C31.1125 10.8325 30.4441 8.75617 29.452 7.42881C28.438 6.06573 26.9289 4.71422 25.0253 4.78622L25.2264 4.26906Z" fill="#080808"/>
<path opacity="0.05" d="M25.2264 4.26906C27.0637 3.8618 28.69 5.41205 29.4791 6.36307C29.6643 6.58168 29.8373 6.81027 29.9974 7.04786C29.9974 7.04786 32.4285 10.2187 31.0062 12.4749L30.457 12.4862L29.5716 12.5074C29.5804 10.9876 29.1186 9.51148 28.2486 8.27887C27.3787 7.04626 26.1426 6.1166 24.7076 5.61564L24.8862 5.14784L25.2264 4.26906Z" fill="white"/>
<path opacity="0.1" d="M29.1521 13.4445C29.6411 13.3775 30.1355 13.373 30.623 13.4311L16.2067 23.5853L18.6158 21.155L29.1521 13.4445Z" fill="#080808"/>
<path opacity="0.05" d="M30.623 13.4311L25.5937 16.9735L24.0718 16.3741L26.3108 14.6372C26.9199 14.1654 27.6145 13.816 28.3545 13.609C29.0946 13.402 29.8656 13.3415 30.623 13.4311Z" fill="white"/>
<path opacity="0.1" d="M23.6902 5.68938C23.9172 5.25086 24.0877 4.7866 24.1975 4.30781L9.78108 14.462L12.8808 13.0122L23.6902 5.68938Z" fill="#080808"/>
<path opacity="0.05" d="M24.198 4.30781L19.1686 7.85024L19.2212 9.4862L21.6107 7.96295C22.2604 7.54862 22.8236 7.01224 23.2677 6.38485C23.7118 5.75746 24.028 5.05151 24.198 4.30781Z" fill="white"/>
<path d="M9.37213 13.8101C9.11891 13.4692 8.80691 12.7989 9.6461 12.211L10.4145 14.0187C10.3642 14.0513 10.3099 14.0771 10.253 14.0957C10.0926 14.1468 9.92115 14.1467 9.763 14.0954C9.60484 14.0442 9.46806 13.9443 9.37213 13.8101Z" fill="#008726"/>
<path d="M9.64554 12.2089L10.4139 14.0166L10.5559 13.9166L9.82778 12.1428L9.64554 12.2089Z" fill="#404958"/>
<path d="M16.6852 24.1916C16.921 24.5449 17.4478 25.0655 18.2832 24.4722L16.8399 23.1399C16.7923 23.1763 16.7496 23.2187 16.713 23.266C16.6109 23.3998 16.5532 23.5613 16.5482 23.7275C16.5432 23.8937 16.5912 24.0561 16.6852 24.1916Z" fill="#008726"/>
<path d="M18.2826 24.4722L16.8393 23.1399L16.9813 23.0399L18.4062 24.3229L18.2826 24.4722Z" fill="#404958"/>
<path opacity="0.1" d="M14.3819 23.9293C14.3819 23.9293 10.4099 27.0242 9.66325 26.9733C8.91659 26.9223 8.21194 26.3465 8.21194 26.3465C8.21194 26.3465 9.35889 26.8984 10.7088 25.9476C12.0587 24.9968 13.888 23.4623 13.888 23.4623L14.3819 23.9293Z" fill="white"/>
<path opacity="0.1" d="M8.86814 16.1005C8.86814 16.1005 4.61627 18.7981 4.41275 19.5183C4.20924 20.2385 4.51341 21.0949 4.51341 21.0949C4.51341 21.0949 4.37997 19.829 5.72987 18.8782C7.07977 17.9274 9.1415 16.7229 9.1415 16.7229L8.86814 16.1005Z" fill="white"/>
</g>
<defs>
<clipPath id="clip0_393_293">
<rect width="33" height="15" fill="white" transform="translate(35.6172 12.2634) rotate(144.841)"/>
</clipPath>
</defs>
</svg>
