<svg width="28" height="26" viewBox="0 0 28 26" fill="none" xmlns="http://www.w3.org/2000/svg">
<path d="M2.11872 23.636V23.636C1.49439 23.636 0.988281 23.1299 0.988281 22.5056V20.6724C0.988281 19.5678 1.88371 18.6724 2.98828 18.6724H3.02999C3.53964 18.6724 4.03607 18.5101 4.44735 18.2091L6.4899 16.7144C7.68948 15.8365 9.13739 15.3633 10.6239 15.3633H14.3279C15.2159 15.3633 16.0878 15.5997 16.8541 16.0484L20.1989 18.0066C20.9481 18.4452 21.7836 18.716 22.6476 18.8003L24.2796 18.9596C25.8163 19.1095 26.9883 20.4014 26.9883 21.9454V22.136C26.9883 22.9644 26.3167 23.636 25.4883 23.636H24.7274" stroke="#D9D9D9" stroke-width="1.5" stroke-linecap="round"/>
<circle cx="5.71715" cy="23.6371" r="1.61364" stroke="#D9D9D9" stroke-width="1.5"/>
<circle cx="21.0785" cy="23.6371" r="1.61364" stroke="#D9D9D9" stroke-width="1.5"/>
<path d="M9.26172 23.6367H17.5344" stroke="#D9D9D9" stroke-width="1.5" stroke-linecap="round"/>
<path d="M13.8662 1.02734C14.3279 0.873474 14.8274 0.873558 15.2891 1.02734L18.291 2.02832C18.8014 2.19843 19.1464 2.67589 19.1465 3.21387V7.20703C19.1464 8.06886 18.8037 8.89546 18.1943 9.50488L15.4619 12.2373C14.9738 12.7254 14.1825 12.7253 13.6943 12.2373L10.9619 9.50488C10.3525 8.89546 10.0098 8.06887 10.0098 7.20703V3.21387C10.0098 2.67599 10.354 2.19851 10.8643 2.02832L13.8662 1.02734Z" stroke="#D9D9D9" stroke-width="1.5"/>
<path d="M14.5781 3.54688V7.09233" stroke="#D9D9D9" stroke-width="1.5" stroke-linecap="round"/>
<path d="M14.5781 9.45312V9.45322" stroke="#D9D9D9" stroke-width="1.5" stroke-linecap="round"/>
</svg>
