<svg width="585" height="575" viewBox="0 0 585 575" fill="none" xmlns="http://www.w3.org/2000/svg">
<rect y="0.957672" width="585" height="574.014" fill="white"/>
<path d="M47.347 476.132C47.347 474.298 47.6456 472.868 48.243 471.844C48.8403 470.81 49.8856 470.292 51.379 470.292C52.8616 470.292 53.9016 470.81 54.499 471.844C55.0963 472.868 55.395 474.298 55.395 476.132C55.395 477.999 55.0963 479.45 54.499 480.484C53.9016 481.519 52.8616 482.036 51.379 482.036C49.8856 482.036 48.8403 481.519 48.243 480.484C47.6456 479.45 47.347 477.999 47.347 476.132ZM53.955 476.132C53.955 475.204 53.891 474.42 53.763 473.78C53.6456 473.13 53.395 472.607 53.011 472.212C52.6376 471.818 52.0936 471.62 51.379 471.62C50.6536 471.62 50.099 471.818 49.715 472.212C49.3416 472.607 49.091 473.13 48.963 473.78C48.8456 474.42 48.787 475.204 48.787 476.132C48.787 477.092 48.8456 477.898 48.963 478.548C49.091 479.199 49.3416 479.722 49.715 480.116C50.099 480.511 50.6536 480.708 51.379 480.708C52.0936 480.708 52.6376 480.511 53.011 480.116C53.395 479.722 53.6456 479.199 53.763 478.548C53.891 477.898 53.955 477.092 53.955 476.132Z" fill="#BAB5B5"/>
<path d="M46.963 377.145V375.817H49.971V387.385H48.499V377.145H46.963Z" fill="#BAB5B5"/>
<path d="M47.018 292.856C48.1186 291.972 48.981 291.248 49.605 290.685C50.229 290.113 50.7533 289.519 51.178 288.904C51.6113 288.28 51.828 287.669 51.828 287.071C51.828 286.508 51.6893 286.066 51.412 285.745C51.1433 285.416 50.7056 285.251 50.099 285.251C49.5096 285.251 49.0503 285.437 48.721 285.81C48.4003 286.174 48.227 286.664 48.201 287.279H47.057C47.0916 286.308 47.3863 285.559 47.941 285.03C48.4956 284.501 49.2106 284.237 50.086 284.237C50.9786 284.237 51.685 284.484 52.205 284.978C52.7336 285.472 52.998 286.152 52.998 287.019C52.998 287.738 52.7813 288.44 52.348 289.125C51.9233 289.801 51.438 290.399 50.892 290.919C50.346 291.43 49.6483 292.028 48.799 292.713H53.271V293.701H47.018V292.856Z" fill="#BAB5B5"/>
<path d="M47.315 204.693C47.3896 203.712 47.7683 202.944 48.451 202.389C49.1336 201.834 50.019 201.557 51.107 201.557C51.8323 201.557 52.4563 201.69 52.979 201.957C53.5123 202.213 53.9123 202.565 54.179 203.013C54.4563 203.461 54.595 203.968 54.595 204.533C54.595 205.194 54.403 205.765 54.019 206.245C53.6456 206.725 53.155 207.034 52.547 207.173V207.253C53.2403 207.424 53.7896 207.76 54.195 208.261C54.6003 208.762 54.803 209.418 54.803 210.229C54.803 210.837 54.6643 211.386 54.387 211.877C54.1096 212.357 53.6936 212.736 53.139 213.013C52.5843 213.29 51.9176 213.429 51.139 213.429C50.0083 213.429 49.0803 213.136 48.355 212.549C47.6296 211.952 47.2243 211.109 47.139 210.021H48.547C48.6216 210.661 48.883 211.184 49.331 211.589C49.779 211.994 50.3763 212.197 51.123 212.197C51.8696 212.197 52.435 212.005 52.819 211.621C53.2136 211.226 53.411 210.72 53.411 210.101C53.411 209.301 53.1443 208.725 52.611 208.373C52.0776 208.021 51.2723 207.845 50.195 207.845H49.827V206.629H50.211C51.1923 206.618 51.9336 206.458 52.435 206.149C52.9363 205.829 53.187 205.338 53.187 204.677C53.187 204.112 53.0003 203.658 52.627 203.317C52.2643 202.976 51.7416 202.805 51.059 202.805C50.3976 202.805 49.8643 202.976 49.459 203.317C49.0536 203.658 48.8136 204.117 48.739 204.693H47.315Z" fill="#BAB5B5"/>
<path d="M46.995 118.157V117.053L52.611 109.277H54.355V116.893H55.955V118.157H54.355V120.733H52.915V118.157H46.995ZM52.979 110.797L48.675 116.893H52.979V110.797Z" fill="#BAB5B5"/>
<path d="M54.723 40.2041H49.107V43.8521C49.3523 43.5108 49.715 43.2334 50.195 43.0201C50.675 42.7961 51.1923 42.6841 51.747 42.6841C52.6323 42.6841 53.3523 42.8708 53.907 43.2441C54.4616 43.6068 54.8563 44.0814 55.091 44.6681C55.3363 45.2441 55.459 45.8574 55.459 46.5081C55.459 47.2761 55.315 47.9641 55.027 48.5721C54.739 49.1801 54.2963 49.6601 53.699 50.0121C53.1123 50.3641 52.3816 50.5401 51.507 50.5401C50.387 50.5401 49.4803 50.2521 48.787 49.6761C48.0936 49.1001 47.6723 48.3321 47.523 47.3721H48.947C49.0856 47.9801 49.379 48.4548 49.827 48.7961C50.275 49.1374 50.8403 49.3081 51.523 49.3081C52.3656 49.3081 53.0003 49.0574 53.427 48.5561C53.8536 48.0441 54.067 47.3721 54.067 46.5401C54.067 45.7081 53.8536 45.0681 53.427 44.6201C53.0003 44.1614 52.371 43.9321 51.539 43.9321C50.9736 43.9321 50.4776 44.0708 50.051 44.3481C49.635 44.6148 49.331 44.9828 49.139 45.4521H47.763V38.9241H54.723V40.2041Z" fill="#BAB5B5"/>
<path d="M76.7476 496.397C75.7129 496.397 74.7689 496.157 73.9156 495.677C73.0623 495.186 72.3849 494.509 71.8836 493.645C71.3929 492.77 71.1476 491.789 71.1476 490.701C71.1476 489.613 71.3929 488.637 71.8836 487.773C72.3849 486.898 73.0623 486.221 73.9156 485.741C74.7689 485.25 75.7129 485.005 76.7476 485.005C77.7929 485.005 78.7423 485.25 79.5956 485.741C80.4489 486.221 81.1209 486.893 81.6116 487.757C82.1023 488.621 82.3476 489.602 82.3476 490.701C82.3476 491.8 82.1023 492.781 81.6116 493.645C81.1209 494.509 80.4489 495.186 79.5956 495.677C78.7423 496.157 77.7929 496.397 76.7476 496.397ZM76.7476 495.133C77.5263 495.133 78.2249 494.952 78.8436 494.589C79.4729 494.226 79.9636 493.709 80.3156 493.037C80.6783 492.365 80.8596 491.586 80.8596 490.701C80.8596 489.805 80.6783 489.026 80.3156 488.365C79.9636 487.693 79.4783 487.176 78.8596 486.813C78.2409 486.45 77.5369 486.269 76.7476 486.269C75.9583 486.269 75.2543 486.45 74.6356 486.813C74.0169 487.176 73.5263 487.693 73.1636 488.365C72.8116 489.026 72.6356 489.805 72.6356 490.701C72.6356 491.586 72.8116 492.365 73.1636 493.037C73.5263 493.709 74.0169 494.226 74.6356 494.589C75.2649 494.952 75.9689 495.133 76.7476 495.133ZM83.7257 491.885C83.7257 490.978 83.9071 490.189 84.2697 489.517C84.6324 488.834 85.1337 488.306 85.7737 487.933C86.4244 487.56 87.1657 487.373 87.9977 487.373C89.0751 487.373 89.9604 487.634 90.6537 488.157C91.3577 488.68 91.8217 489.405 92.0457 490.333H90.4777C90.3284 489.8 90.0351 489.378 89.5977 489.069C89.1711 488.76 88.6377 488.605 87.9977 488.605C87.1657 488.605 86.4937 488.893 85.9817 489.469C85.4697 490.034 85.2137 490.84 85.2137 491.885C85.2137 492.941 85.4697 493.757 85.9817 494.333C86.4937 494.909 87.1657 495.197 87.9977 495.197C88.6377 495.197 89.1711 495.048 89.5977 494.749C90.0244 494.45 90.3177 494.024 90.4777 493.469H92.0457C91.8111 494.365 91.3417 495.085 90.6377 495.629C89.9337 496.162 89.0537 496.429 87.9977 496.429C87.1657 496.429 86.4244 496.242 85.7737 495.869C85.1337 495.496 84.6324 494.968 84.2697 494.285C83.9071 493.602 83.7257 492.802 83.7257 491.885ZM95.7645 488.717V493.885C95.7645 494.312 95.8551 494.616 96.0365 494.797C96.2178 494.968 96.5325 495.053 96.9805 495.053H98.0525V496.285H96.7405C95.9298 496.285 95.3218 496.098 94.9165 495.725C94.5111 495.352 94.3085 494.738 94.3085 493.885V488.717H93.1725V487.517H94.3085V485.309H95.7645V487.517H98.0525V488.717H95.7645ZM100.041 485.133H101.657L100.121 488.765H99.0966L100.041 485.133ZM107.166 495.117C108.521 494.029 109.582 493.138 110.35 492.445C111.118 491.741 111.764 491.01 112.286 490.253C112.82 489.485 113.086 488.733 113.086 487.997C113.086 487.304 112.916 486.76 112.574 486.365C112.244 485.96 111.705 485.757 110.958 485.757C110.233 485.757 109.668 485.986 109.262 486.445C108.868 486.893 108.654 487.496 108.622 488.253H107.214C107.257 487.058 107.62 486.136 108.302 485.485C108.985 484.834 109.865 484.509 110.942 484.509C112.041 484.509 112.91 484.813 113.55 485.421C114.201 486.029 114.526 486.866 114.526 487.933C114.526 488.818 114.26 489.682 113.726 490.525C113.204 491.357 112.606 492.093 111.934 492.733C111.262 493.362 110.404 494.098 109.358 494.941H114.862V496.157H107.166V495.117ZM116.513 487.629C116.588 486.648 116.967 485.88 117.649 485.325C118.332 484.77 119.217 484.493 120.305 484.493C121.031 484.493 121.655 484.626 122.177 484.893C122.711 485.149 123.111 485.501 123.377 485.949C123.655 486.397 123.793 486.904 123.793 487.469C123.793 488.13 123.601 488.701 123.217 489.181C122.844 489.661 122.353 489.97 121.745 490.109V490.189C122.439 490.36 122.988 490.696 123.393 491.197C123.799 491.698 124.001 492.354 124.001 493.165C124.001 493.773 123.863 494.322 123.585 494.813C123.308 495.293 122.892 495.672 122.337 495.949C121.783 496.226 121.116 496.365 120.337 496.365C119.207 496.365 118.279 496.072 117.553 495.485C116.828 494.888 116.423 494.045 116.337 492.957H117.745C117.82 493.597 118.081 494.12 118.529 494.525C118.977 494.93 119.575 495.133 120.321 495.133C121.068 495.133 121.633 494.941 122.017 494.557C122.412 494.162 122.609 493.656 122.609 493.037C122.609 492.237 122.343 491.661 121.809 491.309C121.276 490.957 120.471 490.781 119.393 490.781H119.025V489.565H119.409C120.391 489.554 121.132 489.394 121.633 489.085C122.135 488.765 122.385 488.274 122.385 487.613C122.385 487.048 122.199 486.594 121.825 486.253C121.463 485.912 120.94 485.741 120.257 485.741C119.596 485.741 119.063 485.912 118.657 486.253C118.252 486.594 118.012 487.053 117.937 487.629H116.513Z" fill="#BAB5B5"/>
<path d="M179.659 496.285H178.203L172.347 487.405V496.285H170.891V485.117H172.347L178.203 493.981V485.117H179.659V496.285ZM185.965 496.429C185.144 496.429 184.397 496.242 183.725 495.869C183.064 495.496 182.541 494.968 182.157 494.285C181.784 493.592 181.597 492.792 181.597 491.885C181.597 490.989 181.789 490.2 182.173 489.517C182.568 488.824 183.101 488.296 183.773 487.933C184.445 487.56 185.197 487.373 186.029 487.373C186.861 487.373 187.613 487.56 188.285 487.933C188.957 488.296 189.485 488.818 189.869 489.501C190.264 490.184 190.461 490.978 190.461 491.885C190.461 492.792 190.259 493.592 189.853 494.285C189.459 494.968 188.92 495.496 188.237 495.869C187.555 496.242 186.797 496.429 185.965 496.429ZM185.965 495.149C186.488 495.149 186.979 495.026 187.437 494.781C187.896 494.536 188.264 494.168 188.541 493.677C188.829 493.186 188.973 492.589 188.973 491.885C188.973 491.181 188.835 490.584 188.557 490.093C188.28 489.602 187.917 489.24 187.469 489.005C187.021 488.76 186.536 488.637 186.013 488.637C185.48 488.637 184.989 488.76 184.541 489.005C184.104 489.24 183.752 489.602 183.485 490.093C183.219 490.584 183.085 491.181 183.085 491.885C183.085 492.6 183.213 493.202 183.469 493.693C183.736 494.184 184.088 494.552 184.525 494.797C184.963 495.032 185.443 495.149 185.965 495.149ZM195.64 494.941L198.36 487.517H199.912L196.472 496.285H194.776L191.336 487.517H192.904L195.64 494.941ZM201.568 485.133H203.184L201.648 488.765H200.624L201.568 485.133ZM208.694 495.117C210.049 494.029 211.11 493.138 211.878 492.445C212.646 491.741 213.291 491.01 213.814 490.253C214.347 489.485 214.614 488.733 214.614 487.997C214.614 487.304 214.443 486.76 214.102 486.365C213.771 485.96 213.233 485.757 212.486 485.757C211.761 485.757 211.195 485.986 210.79 486.445C210.395 486.893 210.182 487.496 210.15 488.253H208.742C208.785 487.058 209.147 486.136 209.83 485.485C210.513 484.834 211.393 484.509 212.47 484.509C213.569 484.509 214.438 484.813 215.078 485.421C215.729 486.029 216.054 486.866 216.054 487.933C216.054 488.818 215.787 489.682 215.254 490.525C214.731 491.357 214.134 492.093 213.462 492.733C212.79 493.362 211.931 494.098 210.886 494.941H216.39V496.157H208.694V495.117ZM218.041 487.629C218.116 486.648 218.495 485.88 219.177 485.325C219.86 484.77 220.745 484.493 221.833 484.493C222.559 484.493 223.183 484.626 223.705 484.893C224.239 485.149 224.639 485.501 224.905 485.949C225.183 486.397 225.321 486.904 225.321 487.469C225.321 488.13 225.129 488.701 224.745 489.181C224.372 489.661 223.881 489.97 223.273 490.109V490.189C223.967 490.36 224.516 490.696 224.921 491.197C225.327 491.698 225.529 492.354 225.529 493.165C225.529 493.773 225.391 494.322 225.113 494.813C224.836 495.293 224.42 495.672 223.865 495.949C223.311 496.226 222.644 496.365 221.865 496.365C220.735 496.365 219.807 496.072 219.081 495.485C218.356 494.888 217.951 494.045 217.865 492.957H219.273C219.348 493.597 219.609 494.12 220.057 494.525C220.505 494.93 221.103 495.133 221.849 495.133C222.596 495.133 223.161 494.941 223.545 494.557C223.94 494.162 224.137 493.656 224.137 493.037C224.137 492.237 223.871 491.661 223.337 491.309C222.804 490.957 221.999 490.781 220.921 490.781H220.553V489.565H220.937C221.919 489.554 222.66 489.394 223.161 489.085C223.663 488.765 223.913 488.274 223.913 487.613C223.913 487.048 223.727 486.594 223.353 486.253C222.991 485.912 222.468 485.741 221.785 485.741C221.124 485.741 220.591 485.912 220.185 486.253C219.78 486.594 219.54 487.053 219.465 487.629H218.041Z" fill="#BAB5B5"/>
<path d="M280.704 484.848C281.92 484.848 282.971 485.077 283.856 485.536C284.752 485.984 285.435 486.629 285.904 487.472C286.384 488.315 286.624 489.307 286.624 490.448C286.624 491.589 286.384 492.581 285.904 493.424C285.435 494.256 284.752 494.896 283.856 495.344C282.971 495.781 281.92 496 280.704 496H277.232V484.848H280.704ZM280.704 494.8C282.144 494.8 283.243 494.421 284 493.664C284.757 492.896 285.136 491.824 285.136 490.448C285.136 489.061 284.752 487.979 283.984 487.2C283.227 486.421 282.133 486.032 280.704 486.032H278.688V494.8H280.704ZM296.545 491.28C296.545 491.557 296.529 491.851 296.497 492.16H289.489C289.542 493.024 289.835 493.701 290.369 494.192C290.913 494.672 291.569 494.912 292.337 494.912C292.966 494.912 293.489 494.768 293.905 494.48C294.331 494.181 294.63 493.787 294.801 493.296H296.369C296.134 494.139 295.665 494.827 294.961 495.36C294.257 495.883 293.382 496.144 292.337 496.144C291.505 496.144 290.758 495.957 290.097 495.584C289.446 495.211 288.934 494.683 288.561 494C288.187 493.307 288.001 492.507 288.001 491.6C288.001 490.693 288.182 489.899 288.545 489.216C288.907 488.533 289.414 488.011 290.065 487.648C290.726 487.275 291.483 487.088 292.337 487.088C293.169 487.088 293.905 487.269 294.545 487.632C295.185 487.995 295.675 488.496 296.017 489.136C296.369 489.765 296.545 490.48 296.545 491.28ZM295.041 490.976C295.041 490.421 294.918 489.947 294.673 489.552C294.427 489.147 294.091 488.843 293.665 488.64C293.249 488.427 292.785 488.32 292.273 488.32C291.537 488.32 290.907 488.555 290.385 489.024C289.873 489.493 289.579 490.144 289.505 490.976H295.041ZM297.922 491.6C297.922 490.693 298.104 489.904 298.466 489.232C298.829 488.549 299.33 488.021 299.97 487.648C300.621 487.275 301.362 487.088 302.194 487.088C303.272 487.088 304.157 487.349 304.85 487.872C305.554 488.395 306.018 489.12 306.242 490.048H304.674C304.525 489.515 304.232 489.093 303.794 488.784C303.368 488.475 302.834 488.32 302.194 488.32C301.362 488.32 300.69 488.608 300.178 489.184C299.666 489.749 299.41 490.555 299.41 491.6C299.41 492.656 299.666 493.472 300.178 494.048C300.69 494.624 301.362 494.912 302.194 494.912C302.834 494.912 303.368 494.763 303.794 494.464C304.221 494.165 304.514 493.739 304.674 493.184H306.242C306.008 494.08 305.538 494.8 304.834 495.344C304.13 495.877 303.25 496.144 302.194 496.144C301.362 496.144 300.621 495.957 299.97 495.584C299.33 495.211 298.829 494.683 298.466 494C298.104 493.317 297.922 492.517 297.922 491.6ZM308.409 484.848H310.025L308.489 488.48H307.465L308.409 484.848ZM319.8 494.832C321.155 493.744 322.216 492.853 322.984 492.16C323.752 491.456 324.398 490.725 324.92 489.968C325.454 489.2 325.72 488.448 325.72 487.712C325.72 487.019 325.55 486.475 325.208 486.08C324.878 485.675 324.339 485.472 323.592 485.472C322.867 485.472 322.302 485.701 321.896 486.16C321.502 486.608 321.288 487.211 321.256 487.968H319.848C319.891 486.773 320.254 485.851 320.936 485.2C321.619 484.549 322.499 484.224 323.576 484.224C324.675 484.224 325.544 484.528 326.184 485.136C326.835 485.744 327.16 486.581 327.16 487.648C327.16 488.533 326.894 489.397 326.36 490.24C325.838 491.072 325.24 491.808 324.568 492.448C323.896 493.077 323.038 493.813 321.992 494.656H327.496V495.872H319.8V494.832ZM329.148 487.344C329.222 486.363 329.601 485.595 330.284 485.04C330.966 484.485 331.852 484.208 332.94 484.208C333.665 484.208 334.289 484.341 334.812 484.608C335.345 484.864 335.745 485.216 336.012 485.664C336.289 486.112 336.428 486.619 336.428 487.184C336.428 487.845 336.236 488.416 335.852 488.896C335.478 489.376 334.988 489.685 334.38 489.824V489.904C335.073 490.075 335.622 490.411 336.028 490.912C336.433 491.413 336.635 492.069 336.635 492.88C336.635 493.488 336.497 494.037 336.22 494.528C335.942 495.008 335.526 495.387 334.972 495.664C334.417 495.941 333.75 496.08 332.972 496.08C331.841 496.08 330.913 495.787 330.188 495.2C329.462 494.603 329.057 493.76 328.972 492.672H330.38C330.454 493.312 330.716 493.835 331.164 494.24C331.612 494.645 332.209 494.848 332.956 494.848C333.702 494.848 334.268 494.656 334.652 494.272C335.046 493.877 335.244 493.371 335.244 492.752C335.244 491.952 334.977 491.376 334.444 491.024C333.91 490.672 333.105 490.496 332.028 490.496H331.66V489.28H332.044C333.025 489.269 333.766 489.109 334.268 488.8C334.769 488.48 335.02 487.989 335.02 487.328C335.02 486.763 334.833 486.309 334.46 485.968C334.097 485.627 333.574 485.456 332.891 485.456C332.23 485.456 331.697 485.627 331.292 485.968C330.886 486.309 330.646 486.768 330.572 487.344H329.148Z" fill="#BAB5B5"/>
<path d="M382.323 485.133V493.373C382.323 494.29 382.041 495.026 381.475 495.581C380.91 496.125 380.163 496.397 379.235 496.397C378.297 496.397 377.545 496.12 376.979 495.565C376.414 495 376.131 494.232 376.131 493.261H377.587C377.598 493.805 377.737 494.248 378.003 494.589C378.281 494.93 378.691 495.101 379.235 495.101C379.779 495.101 380.185 494.941 380.451 494.621C380.718 494.29 380.851 493.874 380.851 493.373V485.133H382.323ZM384.648 491.869C384.648 490.973 384.829 490.189 385.192 489.517C385.554 488.834 386.05 488.306 386.68 487.933C387.32 487.56 388.029 487.373 388.808 487.373C389.576 487.373 390.242 487.538 390.808 487.869C391.373 488.2 391.794 488.616 392.072 489.117V487.517H393.544V496.285H392.072V494.653C391.784 495.165 391.352 495.592 390.776 495.933C390.21 496.264 389.549 496.429 388.792 496.429C388.013 496.429 387.309 496.237 386.68 495.853C386.05 495.469 385.554 494.93 385.192 494.237C384.829 493.544 384.648 492.754 384.648 491.869ZM392.072 491.885C392.072 491.224 391.938 490.648 391.672 490.157C391.405 489.666 391.042 489.293 390.584 489.037C390.136 488.77 389.64 488.637 389.096 488.637C388.552 488.637 388.056 488.765 387.608 489.021C387.16 489.277 386.802 489.65 386.536 490.141C386.269 490.632 386.136 491.208 386.136 491.869C386.136 492.541 386.269 493.128 386.536 493.629C386.802 494.12 387.16 494.498 387.608 494.765C388.056 495.021 388.552 495.149 389.096 495.149C389.64 495.149 390.136 495.021 390.584 494.765C391.042 494.498 391.405 494.12 391.672 493.629C391.938 493.128 392.072 492.546 392.072 491.885ZM400.276 487.357C401.343 487.357 402.207 487.682 402.868 488.333C403.53 488.973 403.86 489.901 403.86 491.117V496.285H402.42V491.325C402.42 490.45 402.202 489.784 401.764 489.325C401.327 488.856 400.73 488.621 399.972 488.621C399.204 488.621 398.591 488.861 398.132 489.341C397.684 489.821 397.46 490.52 397.46 491.437V496.285H396.004V487.517H397.46V488.765C397.748 488.317 398.138 487.97 398.628 487.725C399.13 487.48 399.679 487.357 400.276 487.357ZM406.463 485.133H408.079L406.543 488.765H405.519L406.463 485.133ZM417.854 495.117C419.209 494.029 420.27 493.138 421.038 492.445C421.806 491.741 422.451 491.01 422.974 490.253C423.507 489.485 423.774 488.733 423.774 487.997C423.774 487.304 423.603 486.76 423.262 486.365C422.931 485.96 422.393 485.757 421.646 485.757C420.921 485.757 420.355 485.986 419.95 486.445C419.555 486.893 419.342 487.496 419.31 488.253H417.902C417.945 487.058 418.307 486.136 418.99 485.485C419.673 484.834 420.553 484.509 421.63 484.509C422.729 484.509 423.598 484.813 424.238 485.421C424.889 486.029 425.214 486.866 425.214 487.933C425.214 488.818 424.947 489.682 424.414 490.525C423.891 491.357 423.294 492.093 422.622 492.733C421.95 493.362 421.091 494.098 420.046 494.941H425.55V496.157H417.854V495.117ZM426.881 493.709V492.605L432.497 484.829H434.241V492.445H435.841V493.709H434.241V496.285H432.801V493.709H426.881ZM432.865 486.349L428.561 492.445H432.865V486.349Z" fill="#BAB5B5"/>
<path d="M488.701 485.133V486.317H483.853V490.077H487.789V491.261H483.853V496.285H482.397V485.133H488.701ZM498.459 491.565C498.459 491.842 498.443 492.136 498.411 492.445H491.403C491.457 493.309 491.75 493.986 492.283 494.477C492.827 494.957 493.483 495.197 494.251 495.197C494.881 495.197 495.403 495.053 495.819 494.765C496.246 494.466 496.545 494.072 496.715 493.581H498.283C498.049 494.424 497.579 495.112 496.875 495.645C496.171 496.168 495.297 496.429 494.251 496.429C493.419 496.429 492.673 496.242 492.011 495.869C491.361 495.496 490.849 494.968 490.475 494.285C490.102 493.592 489.915 492.792 489.915 491.885C489.915 490.978 490.097 490.184 490.459 489.501C490.822 488.818 491.329 488.296 491.979 487.933C492.641 487.56 493.398 487.373 494.251 487.373C495.083 487.373 495.819 487.554 496.459 487.917C497.099 488.28 497.59 488.781 497.931 489.421C498.283 490.05 498.459 490.765 498.459 491.565ZM496.955 491.261C496.955 490.706 496.833 490.232 496.587 489.837C496.342 489.432 496.006 489.128 495.579 488.925C495.163 488.712 494.699 488.605 494.187 488.605C493.451 488.605 492.822 488.84 492.299 489.309C491.787 489.778 491.494 490.429 491.419 491.261H496.955ZM501.837 489.149C502.136 488.626 502.573 488.2 503.149 487.869C503.725 487.538 504.381 487.373 505.117 487.373C505.907 487.373 506.616 487.56 507.245 487.933C507.875 488.306 508.371 488.834 508.733 489.517C509.096 490.189 509.277 490.973 509.277 491.869C509.277 492.754 509.096 493.544 508.733 494.237C508.371 494.93 507.869 495.469 507.229 495.853C506.6 496.237 505.896 496.429 505.117 496.429C504.36 496.429 503.693 496.264 503.117 495.933C502.552 495.602 502.125 495.181 501.837 494.669V496.285H500.381V484.445H501.837V489.149ZM507.789 491.869C507.789 491.208 507.656 490.632 507.389 490.141C507.123 489.65 506.76 489.277 506.301 489.021C505.853 488.765 505.357 488.637 504.813 488.637C504.28 488.637 503.784 488.77 503.325 489.037C502.877 489.293 502.515 489.672 502.237 490.173C501.971 490.664 501.837 491.234 501.837 491.885C501.837 492.546 501.971 493.128 502.237 493.629C502.515 494.12 502.877 494.498 503.325 494.765C503.784 495.021 504.28 495.149 504.813 495.149C505.357 495.149 505.853 495.021 506.301 494.765C506.76 494.498 507.123 494.12 507.389 493.629C507.656 493.128 507.789 492.541 507.789 491.869ZM511.418 485.133H513.034L511.498 488.765H510.474L511.418 485.133ZM522.809 495.117C524.164 494.029 525.225 493.138 525.993 492.445C526.761 491.741 527.406 491.01 527.929 490.253C528.462 489.485 528.729 488.733 528.729 487.997C528.729 487.304 528.558 486.76 528.217 486.365C527.886 485.96 527.348 485.757 526.601 485.757C525.876 485.757 525.31 485.986 524.905 486.445C524.51 486.893 524.297 487.496 524.265 488.253H522.857C522.9 487.058 523.262 486.136 523.945 485.485C524.628 484.834 525.508 484.509 526.585 484.509C527.684 484.509 528.553 484.813 529.193 485.421C529.844 486.029 530.169 486.866 530.169 487.933C530.169 488.818 529.902 489.682 529.369 490.525C528.846 491.357 528.249 492.093 527.577 492.733C526.905 493.362 526.046 494.098 525.001 494.941H530.505V496.157H522.809V495.117ZM531.836 493.709V492.605L537.452 484.829H539.196V492.445H540.796V493.709H539.196V496.285H537.756V493.709H531.836ZM537.82 486.349L533.516 492.445H537.82V486.349Z" fill="#BAB5B5"/>
<path d="M151.25 229H146.7L128.4 201.25V229H123.85V194.1H128.4L146.7 221.8V194.1H151.25V229ZM170.956 229.45C168.39 229.45 166.056 228.867 163.956 227.7C161.89 226.533 160.256 224.883 159.056 222.75C157.89 220.583 157.306 218.083 157.306 215.25C157.306 212.45 157.906 209.983 159.106 207.85C160.34 205.683 162.006 204.033 164.106 202.9C166.206 201.733 168.556 201.15 171.156 201.15C173.756 201.15 176.106 201.733 178.206 202.9C180.306 204.033 181.956 205.667 183.156 207.8C184.39 209.933 185.006 212.417 185.006 215.25C185.006 218.083 184.373 220.583 183.106 222.75C181.873 224.883 180.19 226.533 178.056 227.7C175.923 228.867 173.556 229.45 170.956 229.45ZM170.956 225.45C172.59 225.45 174.123 225.067 175.556 224.3C176.99 223.533 178.14 222.383 179.006 220.85C179.906 219.317 180.356 217.45 180.356 215.25C180.356 213.05 179.923 211.183 179.056 209.65C178.19 208.117 177.056 206.983 175.656 206.25C174.256 205.483 172.74 205.1 171.106 205.1C169.44 205.1 167.906 205.483 166.506 206.25C165.14 206.983 164.04 208.117 163.206 209.65C162.373 211.183 161.956 213.05 161.956 215.25C161.956 217.483 162.356 219.367 163.156 220.9C163.99 222.433 165.09 223.583 166.456 224.35C167.823 225.083 169.323 225.45 170.956 225.45ZM215.169 194.15C218.969 194.15 222.252 194.867 225.019 196.3C227.819 197.7 229.952 199.717 231.419 202.35C232.919 204.983 233.669 208.083 233.669 211.65C233.669 215.217 232.919 218.317 231.419 220.95C229.952 223.55 227.819 225.55 225.019 226.95C222.252 228.317 218.969 229 215.169 229H204.319V194.15H215.169ZM215.169 225.25C219.669 225.25 223.102 224.067 225.469 221.7C227.835 219.3 229.019 215.95 229.019 211.65C229.019 207.317 227.819 203.933 225.419 201.5C223.052 199.067 219.635 197.85 215.169 197.85H208.869V225.25H215.169ZM237.97 215.2C237.97 212.4 238.537 209.95 239.67 207.85C240.804 205.717 242.354 204.067 244.32 202.9C246.32 201.733 248.537 201.15 250.97 201.15C253.37 201.15 255.454 201.667 257.22 202.7C258.987 203.733 260.304 205.033 261.17 206.6V201.6H265.77V229H261.17V223.9C260.27 225.5 258.92 226.833 257.12 227.9C255.354 228.933 253.287 229.45 250.92 229.45C248.487 229.45 246.287 228.85 244.32 227.65C242.354 226.45 240.804 224.767 239.67 222.6C238.537 220.433 237.97 217.967 237.97 215.2ZM261.17 215.25C261.17 213.183 260.754 211.383 259.92 209.85C259.087 208.317 257.954 207.15 256.52 206.35C255.12 205.517 253.57 205.1 251.87 205.1C250.17 205.1 248.62 205.5 247.22 206.3C245.82 207.1 244.704 208.267 243.87 209.8C243.037 211.333 242.62 213.133 242.62 215.2C242.62 217.3 243.037 219.133 243.87 220.7C244.704 222.233 245.82 223.417 247.22 224.25C248.62 225.05 250.17 225.45 251.87 225.45C253.57 225.45 255.12 225.05 256.52 224.25C257.954 223.417 259.087 222.233 259.92 220.7C260.754 219.133 261.17 217.317 261.17 215.25ZM279.009 205.35V221.5C279.009 222.833 279.293 223.783 279.859 224.35C280.426 224.883 281.409 225.15 282.809 225.15H286.159V229H282.059C279.526 229 277.626 228.417 276.359 227.25C275.093 226.083 274.459 224.167 274.459 221.5V205.35H270.909V201.6H274.459V194.7H279.009V201.6H286.159V205.35H279.009ZM289.972 215.2C289.972 212.4 290.539 209.95 291.672 207.85C292.806 205.717 294.356 204.067 296.322 202.9C298.322 201.733 300.539 201.15 302.972 201.15C305.372 201.15 307.456 201.667 309.222 202.7C310.989 203.733 312.306 205.033 313.172 206.6V201.6H317.772V229H313.172V223.9C312.272 225.5 310.922 226.833 309.122 227.9C307.356 228.933 305.289 229.45 302.922 229.45C300.489 229.45 298.289 228.85 296.322 227.65C294.356 226.45 292.806 224.767 291.672 222.6C290.539 220.433 289.972 217.967 289.972 215.2ZM313.172 215.25C313.172 213.183 312.756 211.383 311.922 209.85C311.089 208.317 309.956 207.15 308.522 206.35C307.122 205.517 305.572 205.1 303.872 205.1C302.172 205.1 300.622 205.5 299.222 206.3C297.822 207.1 296.706 208.267 295.872 209.8C295.039 211.333 294.622 213.133 294.622 215.2C294.622 217.3 295.039 219.133 295.872 220.7C296.706 222.233 297.822 223.417 299.222 224.25C300.622 225.05 302.172 225.45 303.872 225.45C305.572 225.45 307.122 225.05 308.522 224.25C309.956 223.417 311.089 222.233 311.922 220.7C312.756 219.133 313.172 217.317 313.172 215.25ZM358.491 194.15V197.85H343.341V209.6H355.641V213.3H343.341V229H338.791V194.15H358.491ZM375.937 229.45C373.37 229.45 371.037 228.867 368.937 227.7C366.87 226.533 365.237 224.883 364.037 222.75C362.87 220.583 362.287 218.083 362.287 215.25C362.287 212.45 362.887 209.983 364.087 207.85C365.32 205.683 366.987 204.033 369.087 202.9C371.187 201.733 373.537 201.15 376.137 201.15C378.737 201.15 381.087 201.733 383.187 202.9C385.287 204.033 386.937 205.667 388.137 207.8C389.37 209.933 389.987 212.417 389.987 215.25C389.987 218.083 389.353 220.583 388.087 222.75C386.853 224.883 385.17 226.533 383.037 227.7C380.903 228.867 378.537 229.45 375.937 229.45ZM375.937 225.45C377.57 225.45 379.103 225.067 380.537 224.3C381.97 223.533 383.12 222.383 383.987 220.85C384.887 219.317 385.337 217.45 385.337 215.25C385.337 213.05 384.903 211.183 384.037 209.65C383.17 208.117 382.037 206.983 380.637 206.25C379.237 205.483 377.72 205.1 376.087 205.1C374.42 205.1 372.887 205.483 371.487 206.25C370.12 206.983 369.02 208.117 368.187 209.65C367.353 211.183 366.937 213.05 366.937 215.25C366.937 217.483 367.337 219.367 368.137 220.9C368.97 222.433 370.07 223.583 371.437 224.35C372.803 225.083 374.303 225.45 375.937 225.45ZM420.269 201.6V229H415.719V224.95C414.852 226.35 413.636 227.45 412.069 228.25C410.536 229.017 408.836 229.4 406.969 229.4C404.836 229.4 402.919 228.967 401.219 228.1C399.519 227.2 398.169 225.867 397.169 224.1C396.202 222.333 395.719 220.183 395.719 217.65V201.6H400.219V217.05C400.219 219.75 400.902 221.833 402.269 223.3C403.636 224.733 405.502 225.45 407.869 225.45C410.302 225.45 412.219 224.7 413.619 223.2C415.019 221.7 415.719 219.517 415.719 216.65V201.6H420.269ZM441.302 201.1C444.635 201.1 447.335 202.117 449.402 204.15C451.468 206.15 452.502 209.05 452.502 212.85V229H448.002V213.5C448.002 210.767 447.318 208.683 445.952 207.25C444.585 205.783 442.718 205.05 440.352 205.05C437.952 205.05 436.035 205.8 434.602 207.3C433.202 208.8 432.502 210.983 432.502 213.85V229H427.952V201.6H432.502V205.5C433.402 204.1 434.618 203.017 436.152 202.25C437.718 201.483 439.435 201.1 441.302 201.1ZM458.234 215.2C458.234 212.4 458.801 209.95 459.934 207.85C461.067 205.717 462.617 204.067 464.584 202.9C466.584 201.733 468.817 201.15 471.284 201.15C473.417 201.15 475.401 201.65 477.234 202.65C479.067 203.617 480.467 204.9 481.434 206.5V192H486.034V229H481.434V223.85C480.534 225.483 479.201 226.833 477.434 227.9C475.667 228.933 473.601 229.45 471.234 229.45C468.801 229.45 466.584 228.85 464.584 227.65C462.617 226.45 461.067 224.767 459.934 222.6C458.801 220.433 458.234 217.967 458.234 215.2ZM481.434 215.25C481.434 213.183 481.017 211.383 480.184 209.85C479.351 208.317 478.217 207.15 476.784 206.35C475.384 205.517 473.834 205.1 472.134 205.1C470.434 205.1 468.884 205.5 467.484 206.3C466.084 207.1 464.967 208.267 464.134 209.8C463.301 211.333 462.884 213.133 462.884 215.2C462.884 217.3 463.301 219.133 464.134 220.7C464.967 222.233 466.084 223.417 467.484 224.25C468.884 225.05 470.434 225.45 472.134 225.45C473.834 225.45 475.384 225.05 476.784 224.25C478.217 223.417 479.351 222.233 480.184 220.7C481.017 219.133 481.434 217.317 481.434 215.25Z" fill="#BAB5B5"/>
<path d="M292.219 525.467V537.977H290.167V529.409L286.351 537.977H284.929L281.095 529.409V537.977H279.043V525.467H281.257L285.649 535.277L290.023 525.467H292.219ZM299.218 538.139C298.282 538.139 297.436 537.929 296.68 537.509C295.924 537.077 295.33 536.477 294.898 535.709C294.466 534.929 294.25 534.029 294.25 533.009C294.25 532.001 294.472 531.107 294.916 530.327C295.36 529.547 295.966 528.947 296.734 528.527C297.502 528.107 298.36 527.897 299.308 527.897C300.256 527.897 301.114 528.107 301.882 528.527C302.65 528.947 303.256 529.547 303.7 530.327C304.144 531.107 304.366 532.001 304.366 533.009C304.366 534.017 304.138 534.911 303.682 535.691C303.226 536.471 302.602 537.077 301.81 537.509C301.03 537.929 300.166 538.139 299.218 538.139ZM299.218 536.357C299.746 536.357 300.238 536.231 300.694 535.979C301.162 535.727 301.54 535.349 301.828 534.845C302.116 534.341 302.26 533.729 302.26 533.009C302.26 532.289 302.122 531.683 301.846 531.191C301.57 530.687 301.204 530.309 300.748 530.057C300.292 529.805 299.8 529.679 299.272 529.679C298.744 529.679 298.252 529.805 297.796 530.057C297.352 530.309 296.998 530.687 296.734 531.191C296.47 531.683 296.338 532.289 296.338 533.009C296.338 534.077 296.608 534.905 297.148 535.493C297.7 536.069 298.39 536.357 299.218 536.357ZM311.398 527.897C312.178 527.897 312.874 528.059 313.486 528.383C314.11 528.707 314.596 529.187 314.944 529.823C315.292 530.459 315.466 531.227 315.466 532.127V537.977H313.432V532.433C313.432 531.545 313.21 530.867 312.766 530.399C312.322 529.919 311.716 529.679 310.948 529.679C310.18 529.679 309.568 529.919 309.112 530.399C308.668 530.867 308.446 531.545 308.446 532.433V537.977H306.394V528.059H308.446V529.193C308.782 528.785 309.208 528.467 309.724 528.239C310.252 528.011 310.81 527.897 311.398 527.897ZM320.478 529.733V535.223C320.478 535.595 320.562 535.865 320.73 536.033C320.91 536.189 321.21 536.267 321.63 536.267H322.89V537.977H321.27C320.346 537.977 319.638 537.761 319.146 537.329C318.654 536.897 318.408 536.195 318.408 535.223V529.733H317.238V528.059H318.408V525.593H320.478V528.059H322.89V529.733H320.478ZM329.911 527.897C330.667 527.897 331.339 528.059 331.927 528.383C332.527 528.707 332.995 529.187 333.331 529.823C333.679 530.459 333.853 531.227 333.853 532.127V537.977H331.819V532.433C331.819 531.545 331.597 530.867 331.153 530.399C330.709 529.919 330.103 529.679 329.335 529.679C328.567 529.679 327.955 529.919 327.499 530.399C327.055 530.867 326.833 531.545 326.833 532.433V537.977H324.781V524.657H326.833V529.211C327.181 528.791 327.619 528.467 328.147 528.239C328.687 528.011 329.275 527.897 329.911 527.897Z" fill="#BAB5B5"/>
<path d="M14.2617 217.611L15.9356 217.592L15.9666 220.922L26.802 220.8L26.8211 222.852L15.9858 222.974L16.017 226.322L14.3431 226.34L14.2617 217.611ZM18.2549 213.435C17.7481 213.141 17.3544 212.75 17.0739 212.261C16.7812 211.76 16.6316 211.168 16.6253 210.484L18.7491 210.46L18.754 210.982C18.7615 211.786 18.9712 212.395 19.3831 212.811C19.7949 213.214 20.5047 213.41 21.5127 213.399L26.7323 213.34L26.7515 215.392L16.8341 215.504L16.815 213.452L18.2549 213.435ZM15.446 207.566C15.4495 207.938 15.3264 208.252 15.0767 208.507C14.8271 208.762 14.5163 208.891 14.1443 208.895C13.7724 208.899 13.4592 208.777 13.2049 208.528C12.9505 208.279 12.8216 207.968 12.8182 207.596C12.8148 207.236 12.9379 206.929 13.1876 206.674C13.4372 206.419 13.748 206.29 14.12 206.285C14.492 206.281 14.8051 206.404 15.0594 206.653C15.3138 206.902 15.4426 207.207 15.446 207.566ZM16.7505 206.544L26.6679 206.432L26.687 208.484L16.7697 208.596L16.7505 206.544ZM18.1641 201.781C17.7049 201.439 17.3165 200.969 16.9989 200.372C16.6813 199.776 16.519 199.1 16.512 198.344C16.5039 197.48 16.7126 196.691 17.1379 195.979C17.5512 195.254 18.1399 194.683 18.904 194.267C19.6682 193.85 20.5482 193.636 21.5441 193.625C22.5401 193.614 23.4359 193.808 24.2317 194.207C25.0154 194.606 25.6327 195.163 26.0834 195.878C26.5219 196.581 26.7453 197.365 26.7533 198.229C26.7604 198.985 26.6167 199.658 26.3222 200.25C26.0157 200.841 25.6362 201.325 25.1837 201.703L31.3393 201.633L31.3584 203.685L16.7254 203.85L16.7062 201.798L18.1641 201.781ZM21.5636 195.713C20.8797 195.721 20.2931 195.871 19.8038 196.165C19.3024 196.446 18.9279 196.823 18.6803 197.293C18.4205 197.752 18.2931 198.246 18.2981 198.774C18.3029 199.29 18.4395 199.78 18.7078 200.245C18.976 200.698 19.3635 201.066 19.8701 201.348C20.3767 201.619 20.9719 201.75 21.6559 201.742C22.3399 201.735 22.9385 201.59 23.4519 201.308C23.9532 201.014 24.3337 200.638 24.5934 200.179C24.853 199.708 24.9804 199.215 24.9756 198.699C24.9707 198.171 24.8341 197.68 24.5659 197.227C24.2855 196.762 23.8861 196.395 23.3675 196.125C22.8489 195.842 22.2476 195.705 21.5636 195.713ZM26.6573 187.938C26.6646 188.718 26.5331 189.421 26.263 190.048C25.9807 190.664 25.6013 191.154 25.1246 191.519C24.636 191.885 24.0919 192.083 23.4921 192.114L23.4723 189.99C23.8919 189.949 24.2441 189.747 24.5287 189.384C24.8012 189.009 24.9349 188.545 24.9297 187.993C24.9244 187.417 24.8122 186.975 24.5933 186.665C24.3623 186.344 24.0728 186.185 23.7248 186.189C23.3529 186.193 23.0786 186.376 22.9019 186.738C22.7252 187.088 22.5324 187.648 22.3236 188.419C22.1265 189.165 21.9342 189.773 21.7466 190.243C21.559 190.713 21.2688 191.125 20.8761 191.477C20.4832 191.818 19.9628 191.991 19.3149 191.999C18.7869 192.005 18.3055 191.854 17.8706 191.547C17.4237 191.24 17.0716 190.8 16.8142 190.227C16.5568 189.642 16.4245 188.971 16.4174 188.215C16.4069 187.087 16.6864 186.178 17.256 185.487C17.8135 184.785 18.584 184.404 19.5675 184.345L19.5866 186.397C19.143 186.438 18.7907 186.622 18.5297 186.949C18.2688 187.276 18.1409 187.716 18.146 188.268C18.151 188.808 18.2569 189.22 18.4636 189.506C18.6703 189.792 18.9416 189.933 19.2776 189.929C19.5415 189.926 19.7626 189.828 19.9408 189.634C20.119 189.44 20.2608 189.204 20.3662 188.927C20.4597 188.65 20.5819 188.24 20.7328 187.699C20.9181 186.976 21.1106 186.386 21.3103 185.928C21.4979 185.458 21.7822 185.053 22.163 184.712C22.5438 184.372 23.0522 184.192 23.688 184.173C24.252 184.167 24.7574 184.317 25.2043 184.624C25.6512 184.931 26.0033 185.371 26.2607 185.944C26.5179 186.505 26.6501 187.17 26.6573 187.938Z" fill="#BAB5B5"/>
</svg>
