<svg width="16" height="15" viewBox="0 0 16 15" fill="none" xmlns="http://www.w3.org/2000/svg">
<path d="M7.64665 0.455242C10.9403 0.240674 13.7844 2.73677 13.9992 6.03044C14.103 7.6227 13.5712 9.10844 12.6242 10.2443L12.7843 14.5568L9.6818 12.1642C9.27922 12.2792 8.85877 12.3546 8.42399 12.383C5.13017 12.5976 2.28611 10.1016 2.07145 6.80778C1.8569 3.51405 4.35289 0.669897 7.64665 0.455242Z" fill="#EB2C3E"/>
<path d="M6.86523 3.54199H10.2272C10.5034 3.54199 10.7272 3.76585 10.7272 4.04199V8.58136" stroke="white" stroke-width="0.8" stroke-linecap="round"/>
<path d="M9.21842 4.76074C8.90939 4.76074 8.60339 4.82363 8.31789 4.94583C8.03239 5.06802 7.77298 5.24712 7.55447 5.47291C7.33595 5.69869 7.16262 5.96674 7.04436 6.26174C6.9261 6.55674 6.86523 6.87292 6.86523 7.19223C6.86523 7.51154 6.9261 7.82772 7.04436 8.12272C7.16262 8.41772 7.33595 8.68576 7.55447 8.91155C7.77298 9.13733 8.03239 9.31643 8.31789 9.43863C8.60339 9.56082 8.90939 9.62371 9.21842 9.62371" stroke="white" stroke-width="0.8" stroke-linecap="round"/>
<path d="M5.62598 7.19238H4.31002" stroke="white" stroke-width="0.8" stroke-linecap="round"/>
<path d="M5.74718 6.01262L4.34887 5.63505" stroke="white" stroke-width="0.8" stroke-linecap="round"/>
<path d="M5.82324 8.30273L4.33161 8.7743" stroke="white" stroke-width="0.8" stroke-linecap="round"/>
</svg>
