<svg width="16" height="16" viewBox="0 0 16 16" fill="none" xmlns="http://www.w3.org/2000/svg">
<path d="M7.63493 0.751151C10.9287 0.536495 13.7727 3.03259 13.9875 6.32635C14.0912 7.91869 13.5596 9.40433 12.6125 10.5402L12.7726 14.8527L9.67009 12.4601C9.26754 12.5751 8.84702 12.6506 8.41228 12.6789C5.1185 12.8935 2.27439 10.3975 2.05974 7.10369C1.84515 3.80996 4.34121 0.965867 7.63493 0.751151Z" fill="#EB2C3E"/>
<path d="M5.72474 9.26122C5.27004 8.80652 4.96039 8.2272 4.83493 7.59651C4.70948 6.96583 4.77387 6.3121 5.01995 5.71801C5.26603 5.12391 5.68276 4.61613 6.21743 4.25888C6.7521 3.90162 7.3807 3.71094 8.02374 3.71094C8.66679 3.71094 9.29539 3.90162 9.83006 4.25888C10.3647 4.61613 10.7815 5.12391 11.0275 5.71801C11.2736 6.3121 11.338 6.96583 11.2126 7.59651C11.0871 8.2272 10.7774 8.80652 10.3227 9.26122" stroke="white" stroke-width="0.8" stroke-linecap="round" stroke-linejoin="round"/>
<path d="M8.02441 6.96424L9.64039 6.15625" stroke="white" stroke-width="0.8" stroke-linecap="round" stroke-linejoin="round"/>
</svg>
