<svg width="84" height="85" viewBox="0 0 84 85" fill="none" xmlns="http://www.w3.org/2000/svg">
<g filter="url(#filter0_d_4085_2112)">
<rect y="3.90234" width="60" height="60" rx="30" transform="rotate(-3.72871 0 3.90234)" fill="#EB2C3E"/>
</g>
<g opacity="0.9">
<path d="M21.5996 38.3388L24.1877 37.4362C26.4743 36.6387 28.996 36.8884 31.0818 38.1188C33.2006 39.3687 35.7674 39.6056 38.0792 38.7646L42.3996 37.1929M21.5996 32.1228L24.1877 31.2202C26.4743 30.4227 28.996 30.6724 31.0818 31.9028C33.2006 33.1527 35.7674 33.3896 38.0792 32.5486L42.3996 30.9769M21.5996 25.9068L24.1877 25.0041C26.4743 24.2067 28.996 24.4564 31.0818 25.6868C33.2006 26.9367 35.7674 27.1736 38.0792 26.3326L42.3996 24.7609" stroke="white" stroke-width="2" stroke-linecap="round" stroke-linejoin="round"/>
</g>
<path d="M55.7297 72.6327L36.1508 57.5346L36.3689 52.8135L54.8281 48.2593L55.7297 72.6327Z" fill="#EB2C3E"/>
<defs>
<filter id="filter0_d_4085_2112" x="1.88672" y="1.88672" width="82.102" height="83.102" filterUnits="userSpaceOnUse" color-interpolation-filters="sRGB">
<feFlood flood-opacity="0" result="BackgroundImageFix"/>
<feColorMatrix in="SourceAlpha" type="matrix" values="0 0 0 0 0 0 0 0 0 0 0 0 0 0 0 0 0 0 127 0" result="hardAlpha"/>
<feOffset dx="13" dy="14"/>
<feGaussianBlur stdDeviation="4.55"/>
<feComposite in2="hardAlpha" operator="out"/>
<feColorMatrix type="matrix" values="0 0 0 0 0 0 0 0 0 0 0 0 0 0 0 0 0 0 0.16 0"/>
<feBlend mode="normal" in2="BackgroundImageFix" result="effect1_dropShadow_4085_2112"/>
<feBlend mode="normal" in="SourceGraphic" in2="effect1_dropShadow_4085_2112" result="shape"/>
</filter>
</defs>
</svg>
