<svg width="25" height="24" viewBox="0 0 25 24" fill="none" xmlns="http://www.w3.org/2000/svg">
<path fill-rule="evenodd" clip-rule="evenodd" d="M7.97705 0.976347C7.97806 1.51555 8.43695 1.95265 9.00202 1.95265L22.5208 1.95261V14.4835C22.5208 15.0227 22.9789 15.4605 23.544 15.4615C24.1091 15.4625 24.5671 15.0261 24.5671 14.4869V0.978038L24.5671 0L23.5422 3.1613e-06L8.99838 4.07134e-05C8.43332 4.20035e-05 7.97605 0.43715 7.97705 0.976347ZM17.0531 8.10125C17.7817 7.69181 18.031 6.78931 17.6098 6.08281C17.1877 5.37478 16.2519 5.13171 15.5197 5.53989L16.284 6.82189C15.5197 5.53989 15.5181 5.54079 15.5181 5.54079L15.5163 5.54182L15.5119 5.54428L15.5004 5.55079L15.4668 5.57015C15.4398 5.58586 15.4037 5.60722 15.3594 5.63417C15.2709 5.68802 15.1495 5.76447 15.0026 5.86313C14.7097 6.05994 14.3114 6.34802 13.8707 6.72476C12.999 7.46989 11.908 8.60692 11.1679 10.1198C10.4148 11.659 10.0371 13.5684 10.5992 15.7617C11.1548 17.9301 12.5947 20.2441 15.2237 22.6868C15.8331 23.253 16.8019 23.2343 17.3874 22.645C17.973 22.0557 17.9537 21.1189 17.3442 20.5527C14.9961 18.371 13.9475 16.5231 13.57 15.0499C13.1988 13.6015 13.4433 12.3895 13.9345 11.3854C14.4387 10.3548 15.2141 9.52652 15.8978 8.94217C16.2347 8.65415 16.5364 8.43645 16.7489 8.29366C16.8548 8.22252 16.9375 8.17071 16.99 8.13877C17.0162 8.12282 17.0347 8.11189 17.0448 8.10604L17.0531 8.10125ZM7.53426 11.3324C8.09321 11.6215 8.78869 11.4176 9.08765 10.8772C9.38661 10.3367 9.17584 9.66416 8.61689 9.37507L3.21916 6.58341C2.66021 6.29432 1.96474 6.49813 1.66578 7.03862C1.36682 7.57912 1.57759 8.25162 2.13654 8.54071L7.53426 11.3324ZM8.41667 14.2148C8.42009 14.8278 7.90901 15.3273 7.27514 15.3306L1.15394 15.3626C0.520069 15.3659 0.00344024 14.8717 1.70959e-05 14.2588C-0.00340605 13.6458 0.507672 13.1463 1.14154 13.143L7.26274 13.111C7.89662 13.1077 8.41324 13.6019 8.41667 14.2148ZM7.92095 19.6571C8.49108 19.3892 8.72868 18.7252 8.45163 18.1739C8.17459 17.6226 7.48782 17.3928 6.91769 17.6607L1.412 20.2477C0.841864 20.5156 0.604268 21.1797 0.881311 21.731C1.15835 22.2823 1.84512 22.512 2.41526 22.2442L7.92095 19.6571Z" fill="#384444"/>
</svg>
