<svg width="27" height="27" viewBox="0 0 27 27" fill="none" xmlns="http://www.w3.org/2000/svg">
<path d="M10.458 2.61621H24.8992V20.8531" stroke="#EB2C3E" stroke-width="1.2" stroke-linecap="round"/>
<path d="M20.5141 7.02539C19.3586 7.02539 18.2144 7.25299 17.1468 7.6952C16.0792 8.1374 15.1092 8.78555 14.2921 9.60264C13.475 10.4197 12.8269 11.3898 12.3846 12.4573C11.9424 13.5249 11.7148 14.6691 11.7148 15.8247C11.7148 16.9802 11.9424 18.1244 12.3846 19.192C12.8269 20.2596 13.475 21.2296 14.2921 22.0467C15.1092 22.8638 16.0792 23.5119 17.1468 23.9542C18.2144 24.3964 19.3586 24.624 20.5141 24.624" stroke="#EB2C3E" stroke-width="1.2" stroke-linecap="round"/>
<path d="M8.57227 15.8252H2.15939" stroke="#EB2C3E" stroke-width="1.2" stroke-linecap="round"/>
<path d="M8.63574 12.7285L2.29653 10.1862" stroke="#EB2C3E" stroke-width="1.2" stroke-linecap="round"/>
<path d="M8.59766 19.0576L2.23389 21.5533" stroke="#EB2C3E" stroke-width="1.2" stroke-linecap="round"/>
</svg>
