<svg width="17" height="17" viewBox="0 0 17 17" fill="none" xmlns="http://www.w3.org/2000/svg">
<path d="M6.10547 0.996094H15.6313V13.426" stroke="#EB2C3E" stroke-width="1.2" stroke-linecap="round"/>
<path d="M12.7379 4.00098C11.9756 4.00098 11.2209 4.1561 10.5167 4.4575C9.81245 4.7589 9.1726 5.20066 8.63362 5.75757C8.09465 6.31448 7.66711 6.97563 7.37542 7.70327C7.08373 8.43091 6.93359 9.21079 6.93359 9.99838C6.93359 10.786 7.08373 11.5658 7.37542 12.2935C7.66711 13.0211 8.09465 13.6823 8.63362 14.2392C9.1726 14.7961 9.81245 15.2379 10.5167 15.5393C11.2209 15.8406 11.9756 15.9958 12.7379 15.9958" stroke="#EB2C3E" stroke-width="1.2" stroke-linecap="round"/>
<path d="M4.86133 9.99902H0.631213" stroke="#EB2C3E" stroke-width="1.2" stroke-linecap="round"/>
<path d="M4.90332 7.88867L0.721792 6.15589" stroke="#EB2C3E" stroke-width="1.2" stroke-linecap="round"/>
<path d="M4.87793 12.2021L0.680207 13.9031" stroke="#EB2C3E" stroke-width="1.2" stroke-linecap="round"/>
</svg>
