<svg width="26" height="26" viewBox="0 0 26 26" fill="none" xmlns="http://www.w3.org/2000/svg">
<path d="M11.3747 16.792H14.6247V14.0837H17.333V10.8337H14.6247V8.12533H11.3747V10.8337H8.66634V14.0837H11.3747V16.792ZM12.9997 23.8337C10.49 23.2017 8.41808 21.7618 6.78405 19.5139C5.15002 17.2659 4.33301 14.7698 4.33301 12.0253V5.41699L12.9997 2.16699L21.6663 5.41699V12.0253C21.6663 14.7698 20.8493 17.2659 19.2153 19.5139C17.5813 21.7618 15.5094 23.2017 12.9997 23.8337ZM12.9997 21.5587C14.8775 20.9628 16.4302 19.7712 17.658 17.9837C18.8858 16.1962 19.4997 14.21 19.4997 12.0253V6.90658L12.9997 4.46908L6.49967 6.90658V12.0253C6.49967 14.21 7.11356 16.1962 8.34134 17.9837C9.56912 19.7712 11.1219 20.9628 12.9997 21.5587Z" fill="black"/>
</svg>
