<svg width="27" height="25" viewBox="0 0 27 25" fill="none" xmlns="http://www.w3.org/2000/svg">
<path d="M2.88451 13.2333C3.21615 13.6245 3.78874 13.735 4.21392 13.4232L7.61539 10.8721C8.0349 10.5575 8.11994 9.96224 7.8053 9.54272C7.49067 9.12321 6.89541 9.03817 6.4759 9.35281L4.81201 10.6028C5.14649 8.97014 5.88631 7.44515 6.96061 6.1696C8.87393 3.87361 11.7113 2.54987 14.7018 2.55554C17.4003 2.55554 19.9401 3.60716 21.8505 5.51482C25.7934 9.45769 25.7934 15.8723 21.8505 19.8152C19.9401 21.7257 17.4003 22.7744 14.7018 22.7744C12.0033 22.7744 9.46069 21.7228 7.55303 19.8152C6.68282 18.9478 5.98268 17.9273 5.4838 16.802C5.27121 16.323 4.70997 16.1076 4.23093 16.3202C3.75189 16.5327 3.53646 17.094 3.74905 17.573C5.67655 21.8957 9.96807 24.6764 14.7018 24.6708C17.8878 24.6764 20.9406 23.4122 23.1913 21.1587C27.874 16.4761 27.874 8.85959 23.1913 4.1769C18.2818 -0.789242 9.96807 -0.432087 5.50931 4.94507C4.23943 6.45305 3.36639 8.25016 2.96388 10.1777L1.8499 8.68952C1.53526 8.27001 0.940005 8.18497 0.52049 8.49961C0.100976 8.81424 0.0159388 9.4095 0.330575 9.82901L2.88451 13.2333ZM14.3588 8.20198C13.8344 8.20198 13.4092 8.62716 13.4092 9.15155V12.8081C13.4092 13.1653 13.6105 13.4941 13.928 13.6557L17.5845 15.5038C18.0522 15.7419 18.6248 15.5548 18.8601 15.0871C19.0982 14.6194 18.9111 14.0497 18.4434 13.8116L15.3055 12.2242V9.15155C15.3055 8.62716 14.8832 8.20198 14.3588 8.20198Z" fill="#102C53"/>
</svg>
