<?xml version="1.0" standalone="no"?>
<!DOCTYPE svg PUBLIC "-//W3C//DTD SVG 20010904//EN"
 "http://www.w3.org/TR/2001/REC-SVG-20010904/DTD/svg10.dtd">
<svg version="1.0" xmlns="http://www.w3.org/2000/svg"
 width="626.000000pt" height="626.000000pt" viewBox="0 0 626.000000 626.000000"
 preserveAspectRatio="xMidYMid meet">

<g transform="translate(0.000000,626.000000) scale(0.100000,-0.100000)"
fill="#000000" stroke="none">
<path d="M3550 4435 c156 -55 341 -163 454 -266 35 -31 64 -48 91 -53 82 -16
281 -87 385 -140 144 -72 276 -163 378 -261 l84 -80 -36 -30 c-33 -27 -37 -37
-44 -97 l-8 -68 129 -161 c118 -147 142 -189 107 -189 -22 0 -8 -39 28 -80
l37 -42 55 44 c214 167 600 492 600 504 0 18 -59 94 -73 94 -6 0 -19 -7 -29
-17 -10 -9 -20 -14 -21 -12 -2 2 -59 74 -127 159 -68 85 -126 158 -129 161 -3
4 -35 10 -71 13 l-66 7 -63 -50 c-35 -28 -66 -51 -70 -51 -4 0 -33 27 -66 61
-342 347 -868 556 -1455 575 l-165 5 75 -26z"/>
<path d="M2917 4435 c-378 -62 -691 -265 -897 -581 -427 -657 -194 -1544 500
-1898 500 -256 1090 -167 1495 225 194 188 319 414 377 682 28 134 31 379 5
510 -108 539 -503 942 -1032 1052 -111 23 -337 28 -448 10z m433 -296 c298
-76 545 -274 679 -545 80 -162 106 -281 105 -474 -1 -123 -5 -160 -28 -245
-30 -115 -97 -261 -160 -349 -61 -85 -197 -214 -285 -271 -392 -253 -903 -206
-1245 115 -286 268 -398 672 -290 1048 110 385 434 673 829 738 110 18 287 11
395 -17z"/>
<path d="M3005 3909 c-316 -46 -571 -279 -650 -594 -28 -111 -24 -287 9 -398
84 -284 281 -475 561 -547 82 -21 232 -28 311 -15 268 47 494 229 595 480 191
477 -118 1009 -624 1075 -84 11 -120 11 -202 -1z m140 -356 c16 -32 79 -132
139 -223 143 -216 176 -285 176 -365 0 -92 -24 -150 -89 -216 -74 -75 -143
-102 -261 -102 -195 0 -335 119 -347 293 -7 92 15 143 157 359 65 101 134 212
152 247 18 35 35 64 38 64 3 0 18 -26 35 -57z"/>
<path d="M3287 3068 c-52 -40 -48 -201 6 -230 17 -9 24 -7 43 15 42 49 43 150
3 202 -23 29 -29 30 -52 13z"/>
<path d="M732 3514 c-40 -28 -28 -59 64 -173 48 -58 90 -107 95 -109 9 -4 79
49 79 60 0 13 -179 225 -195 232 -21 8 -17 9 -43 -10z"/>
<path d="M5716 3355 l-38 -34 92 -116 c76 -96 96 -115 119 -115 15 0 32 5 39
12 28 28 12 63 -78 176 -50 61 -92 112 -93 112 -1 -1 -19 -16 -41 -35z"/>
<path d="M814 3074 c-159 -130 -304 -248 -321 -262 -41 -31 -41 -52 -2 -97 32
-36 56 -44 77 -23 7 7 15 8 20 3 5 -6 64 -78 130 -162 130 -162 119 -154 222
-167 29 -3 43 2 81 34 l46 39 39 -41 c64 -67 213 -188 309 -251 319 -210 722
-328 1170 -343 l160 -5 -60 21 c-162 58 -320 148 -451 258 -41 35 -86 63 -105
67 -97 20 -270 84 -394 145 -148 73 -286 168 -388 268 l-58 57 58 51 c57 51
57 51 61 117 l4 66 -118 148 c-64 81 -122 154 -127 161 -7 8 -5 18 7 30 9 10
16 24 16 31 0 16 -62 91 -76 91 -5 0 -140 -106 -300 -236z"/>
<path d="M343 3200 c-17 -7 -23 -17 -23 -42 0 -27 17 -54 87 -141 47 -59 91
-107 97 -107 6 1 26 14 45 30 l34 29 -92 114 c-75 95 -111 131 -124 126 -1 0
-12 -4 -24 -9z"/>
<path d="M5326 3035 l-39 -33 92 -116 c77 -97 97 -116 120 -116 33 0 51 17 51
48 0 21 -136 210 -174 241 -7 6 -24 -2 -50 -24z"/>
</g>
</svg>
