<svg width="31" height="50" viewBox="0 0 31 50" fill="none" xmlns="http://www.w3.org/2000/svg">
<mask id="path-1-inside-1_517_887" fill="white">
<path d="M12.7134 49.8807C9.54437 49.3038 6.77176 47.8407 4.45363 45.5246C2.44473 43.5157 1.28047 41.5338 0.47732 38.7591C0.0041481 37.1237 0 37.0137 0 25.1782C0 14.2994 0.0332 13.0999 0.383928 11.6077C1.09784 8.56118 2.99676 5.53745 5.46638 3.51817C9.61079 0.131256 15.1436 -0.887723 20.2447 0.799508C22.5815 1.5736 24.2832 2.65899 26.2859 4.65129C27.7926 6.15174 28.2346 6.75566 29.0378 8.40554C30.6005 11.6181 30.6026 11.6451 30.6067 25.0931C30.6109 36.2853 30.5881 37.0324 30.1937 38.5702C28.8303 43.9079 24.6713 48.1001 19.3004 49.559C17.8394 49.9554 14.1204 50.138 12.7134 49.8807ZM14.4234 25.0745V1.72717H13.8673C13.5601 1.72717 12.5806 1.92433 11.6882 2.16506L10.0653 2.60296V24.9686V47.3343L10.636 47.5688C11.1776 47.7929 13.612 48.3699 14.164 48.4052C14.3695 48.4176 14.4234 43.6236 14.4234 25.0745ZM19.1967 47.8116L20.3381 47.4713L20.39 25.0226L20.4439 2.5739L19.3523 2.25015C18.7525 2.07168 17.773 1.86829 17.1732 1.79773L16.0837 1.66906V25.0413V48.4134L17.0695 48.2848C17.6111 48.2121 18.5699 48.0005 19.1967 47.8116ZM8.31163 3.64061C8.17674 3.50572 6.35669 4.8775 5.52864 5.74083L4.82926 6.46512L5.47676 6.79924C6.16784 7.1562 6.22179 7.26826 5.9271 7.73106C5.77145 7.97802 5.5992 7.98632 4.92058 7.78294C4.47023 7.64805 4.05517 7.53805 3.99914 7.53805C3.85179 7.53805 2.41359 10.4746 2.34303 10.9229C2.29529 11.2176 2.68131 11.4625 4.15063 12.0664C5.61995 12.6703 6.01841 12.9235 6.01841 13.2472C6.01841 13.8823 5.33563 13.8532 3.66708 13.1414C2.8411 12.7907 2.0857 12.552 1.99023 12.6122C1.77025 12.7471 1.47762 16.0987 1.64157 16.6051C1.71835 16.8458 2.5132 17.2817 3.83518 17.8109C5.94162 18.6534 6.36084 19.0104 5.85447 19.5168C5.61581 19.7554 5.30036 19.6849 3.82896 19.0644C2.87224 18.6597 1.97363 18.3297 1.83251 18.3297C1.64573 18.3297 1.58969 18.9149 1.61874 20.5586L1.66025 22.7875L3.67745 23.6197C5.88144 24.5287 6.24047 24.7777 6.05161 25.2675C5.87313 25.7365 5.53071 25.6805 3.6318 24.8669C2.69791 24.4664 1.84288 24.1406 1.73082 24.1406C1.6063 24.1406 1.55233 24.9977 1.59384 26.3487C1.64572 28.0463 1.73289 28.5983 1.97155 28.7332C2.1438 28.8308 3.12335 29.2624 4.15063 29.692C5.6075 30.3022 6.01841 30.5657 6.01841 30.8853C6.01841 31.5225 5.48506 31.483 3.60897 30.7048C2.65641 30.3105 1.80968 30.0262 1.73082 30.076C1.65196 30.1258 1.59592 31.1385 1.60837 32.3256L1.62912 34.4881L3.82273 35.3971C5.54109 36.111 6.01841 36.3953 6.01841 36.7108C6.01841 37.3499 5.30866 37.296 3.4637 36.5177L1.76402 35.8018V36.36C1.76402 37.0968 2.3036 39.1472 2.78093 40.2284C3.11713 40.9838 3.31428 41.1436 4.42873 41.5608C5.94786 42.1294 6.32971 42.4926 5.88145 42.9408C5.63656 43.1857 5.44771 43.2044 4.98699 43.028C4.66739 42.9076 4.37891 42.8329 4.34571 42.8641C4.20251 43.0093 5.98521 44.8107 7.08513 45.6346L8.30126 46.5436L8.35314 25.1388C8.3822 13.3676 8.36351 3.6925 8.31163 3.64061ZM24.8789 44.4579C26.2756 43.0923 26.5765 42.5196 25.6343 43.0239C25.296 43.2044 25.1175 43.2023 24.8913 43.0156C24.3351 42.5528 24.5904 42.2435 26.1261 41.513C27.6266 40.8012 27.6702 40.7597 28.1143 39.5705C28.6207 38.2154 29.044 36.2002 28.8593 36.0155C28.7929 35.9512 28.0001 36.2002 27.0974 36.5738C25.3188 37.3084 24.6962 37.3396 24.6962 36.6962C24.6962 36.3725 25.1321 36.1089 26.7716 35.4365L28.8469 34.5856L28.905 32.2696L28.9652 29.9515L27.8673 30.3976C25.3541 31.4208 25.0304 31.51 24.7793 31.2589C24.3185 30.7982 24.773 30.4225 26.8566 29.5447L28.9506 28.6606V26.3778C28.9506 24.2921 28.9195 24.1074 28.5875 24.2319C28.3882 24.3066 27.5 24.6615 26.6159 25.0205C25.3458 25.5373 24.9536 25.6223 24.7523 25.421C24.2936 24.9624 24.8643 24.4996 26.9438 23.6466L28.9506 22.8227V20.5752C28.9506 19.3404 28.8656 18.3297 28.7618 18.3297C28.658 18.3297 27.8009 18.6597 26.8566 19.0644C25.3541 19.7077 25.1051 19.7617 24.8394 19.496C24.3165 18.973 24.6859 18.6659 26.8649 17.8109L28.9776 16.9807L28.9112 14.8701C28.8759 13.71 28.7805 12.6931 28.6995 12.6122C28.6165 12.5313 27.8632 12.7658 27.0227 13.1373C25.3749 13.8595 24.6962 13.8947 24.6962 13.2514C24.6962 12.9442 25.1092 12.6745 26.4603 12.1037C27.4294 11.6949 28.2471 11.2217 28.2782 11.0557C28.3094 10.8897 27.9815 10.0533 27.5498 9.19831C26.728 7.56296 26.6906 7.54013 25.3728 7.8618C24.5032 8.07349 24.3455 7.40523 25.1175 6.78887C25.7111 6.31569 25.7132 6.31362 25.3105 5.86743C24.7896 5.29256 22.5338 3.59496 22.2889 3.59496C22.1789 3.59496 22.1021 12.4711 22.1021 25.0807V46.5643L22.7641 46.2219C23.1273 46.0351 24.0799 45.2403 24.8789 44.4579Z"/>
</mask>
<path d="M12.7134 49.8807C9.54437 49.3038 6.77176 47.8407 4.45363 45.5246C2.44473 43.5157 1.28047 41.5338 0.47732 38.7591C0.0041481 37.1237 0 37.0137 0 25.1782C0 14.2994 0.0332 13.0999 0.383928 11.6077C1.09784 8.56118 2.99676 5.53745 5.46638 3.51817C9.61079 0.131256 15.1436 -0.887723 20.2447 0.799508C22.5815 1.5736 24.2832 2.65899 26.2859 4.65129C27.7926 6.15174 28.2346 6.75566 29.0378 8.40554C30.6005 11.6181 30.6026 11.6451 30.6067 25.0931C30.6109 36.2853 30.5881 37.0324 30.1937 38.5702C28.8303 43.9079 24.6713 48.1001 19.3004 49.559C17.8394 49.9554 14.1204 50.138 12.7134 49.8807ZM14.4234 25.0745V1.72717H13.8673C13.5601 1.72717 12.5806 1.92433 11.6882 2.16506L10.0653 2.60296V24.9686V47.3343L10.636 47.5688C11.1776 47.7929 13.612 48.3699 14.164 48.4052C14.3695 48.4176 14.4234 43.6236 14.4234 25.0745ZM19.1967 47.8116L20.3381 47.4713L20.39 25.0226L20.4439 2.5739L19.3523 2.25015C18.7525 2.07168 17.773 1.86829 17.1732 1.79773L16.0837 1.66906V25.0413V48.4134L17.0695 48.2848C17.6111 48.2121 18.5699 48.0005 19.1967 47.8116ZM8.31163 3.64061C8.17674 3.50572 6.35669 4.8775 5.52864 5.74083L4.82926 6.46512L5.47676 6.79924C6.16784 7.1562 6.22179 7.26826 5.9271 7.73106C5.77145 7.97802 5.5992 7.98632 4.92058 7.78294C4.47023 7.64805 4.05517 7.53805 3.99914 7.53805C3.85179 7.53805 2.41359 10.4746 2.34303 10.9229C2.29529 11.2176 2.68131 11.4625 4.15063 12.0664C5.61995 12.6703 6.01841 12.9235 6.01841 13.2472C6.01841 13.8823 5.33563 13.8532 3.66708 13.1414C2.8411 12.7907 2.0857 12.552 1.99023 12.6122C1.77025 12.7471 1.47762 16.0987 1.64157 16.6051C1.71835 16.8458 2.5132 17.2817 3.83518 17.8109C5.94162 18.6534 6.36084 19.0104 5.85447 19.5168C5.61581 19.7554 5.30036 19.6849 3.82896 19.0644C2.87224 18.6597 1.97363 18.3297 1.83251 18.3297C1.64573 18.3297 1.58969 18.9149 1.61874 20.5586L1.66025 22.7875L3.67745 23.6197C5.88144 24.5287 6.24047 24.7777 6.05161 25.2675C5.87313 25.7365 5.53071 25.6805 3.6318 24.8669C2.69791 24.4664 1.84288 24.1406 1.73082 24.1406C1.6063 24.1406 1.55233 24.9977 1.59384 26.3487C1.64572 28.0463 1.73289 28.5983 1.97155 28.7332C2.1438 28.8308 3.12335 29.2624 4.15063 29.692C5.6075 30.3022 6.01841 30.5657 6.01841 30.8853C6.01841 31.5225 5.48506 31.483 3.60897 30.7048C2.65641 30.3105 1.80968 30.0262 1.73082 30.076C1.65196 30.1258 1.59592 31.1385 1.60837 32.3256L1.62912 34.4881L3.82273 35.3971C5.54109 36.111 6.01841 36.3953 6.01841 36.7108C6.01841 37.3499 5.30866 37.296 3.4637 36.5177L1.76402 35.8018V36.36C1.76402 37.0968 2.3036 39.1472 2.78093 40.2284C3.11713 40.9838 3.31428 41.1436 4.42873 41.5608C5.94786 42.1294 6.32971 42.4926 5.88145 42.9408C5.63656 43.1857 5.44771 43.2044 4.98699 43.028C4.66739 42.9076 4.37891 42.8329 4.34571 42.8641C4.20251 43.0093 5.98521 44.8107 7.08513 45.6346L8.30126 46.5436L8.35314 25.1388C8.3822 13.3676 8.36351 3.6925 8.31163 3.64061ZM24.8789 44.4579C26.2756 43.0923 26.5765 42.5196 25.6343 43.0239C25.296 43.2044 25.1175 43.2023 24.8913 43.0156C24.3351 42.5528 24.5904 42.2435 26.1261 41.513C27.6266 40.8012 27.6702 40.7597 28.1143 39.5705C28.6207 38.2154 29.044 36.2002 28.8593 36.0155C28.7929 35.9512 28.0001 36.2002 27.0974 36.5738C25.3188 37.3084 24.6962 37.3396 24.6962 36.6962C24.6962 36.3725 25.1321 36.1089 26.7716 35.4365L28.8469 34.5856L28.905 32.2696L28.9652 29.9515L27.8673 30.3976C25.3541 31.4208 25.0304 31.51 24.7793 31.2589C24.3185 30.7982 24.773 30.4225 26.8566 29.5447L28.9506 28.6606V26.3778C28.9506 24.2921 28.9195 24.1074 28.5875 24.2319C28.3882 24.3066 27.5 24.6615 26.6159 25.0205C25.3458 25.5373 24.9536 25.6223 24.7523 25.421C24.2936 24.9624 24.8643 24.4996 26.9438 23.6466L28.9506 22.8227V20.5752C28.9506 19.3404 28.8656 18.3297 28.7618 18.3297C28.658 18.3297 27.8009 18.6597 26.8566 19.0644C25.3541 19.7077 25.1051 19.7617 24.8394 19.496C24.3165 18.973 24.6859 18.6659 26.8649 17.8109L28.9776 16.9807L28.9112 14.8701C28.8759 13.71 28.7805 12.6931 28.6995 12.6122C28.6165 12.5313 27.8632 12.7658 27.0227 13.1373C25.3749 13.8595 24.6962 13.8947 24.6962 13.2514C24.6962 12.9442 25.1092 12.6745 26.4603 12.1037C27.4294 11.6949 28.2471 11.2217 28.2782 11.0557C28.3094 10.8897 27.9815 10.0533 27.5498 9.19831C26.728 7.56296 26.6906 7.54013 25.3728 7.8618C24.5032 8.07349 24.3455 7.40523 25.1175 6.78887C25.7111 6.31569 25.7132 6.31362 25.3105 5.86743C24.7896 5.29256 22.5338 3.59496 22.2889 3.59496C22.1789 3.59496 22.1021 12.4711 22.1021 25.0807V46.5643L22.7641 46.2219C23.1273 46.0351 24.0799 45.2403 24.8789 44.4579Z" fill="black" stroke="black" stroke-width="2" mask="url(#path-1-inside-1_517_887)"/>
</svg>
