<svg width="45" height="50" viewBox="0 0 45 50" fill="none" xmlns="http://www.w3.org/2000/svg">
<path d="M2.53371 49.6197C0.890804 48.8785 -0.245312 46.834 0.045467 45.1333C0.294706 43.6694 0.980114 42.7737 2.73933 41.6228C4.92848 40.1877 5.25457 39.8583 6.03552 38.2853L6.70224 36.9449L6.80609 20.4673C6.90994 4.05142 6.91201 3.98966 7.36064 3.15785C7.92559 2.11191 8.94747 1.10304 10.0254 0.524477C10.8417 0.0879838 11.0369 0.0797479 21.7376 0.0220978C33.969 -0.0437879 33.8299 -0.0582003 35.5392 1.43247C36.0523 1.87925 36.6899 2.6843 36.9578 3.22168L37.4418 4.19761L37.5456 20.5661L37.6495 36.9346L38.2103 38.067C38.9455 39.5495 39.9778 40.5172 42.0112 41.6269C43.3446 42.3537 43.7953 42.7285 44.2958 43.5273C45.594 45.5986 44.8712 48.4235 42.7568 49.5291C41.4981 50.19 39.7182 50.1591 35.5642 49.4117C29.2543 48.2752 27.1773 48.0673 22.1758 48.0673C17.1267 48.0693 15.8099 48.2031 10.067 49.3006C5.83405 50.1118 3.81521 50.1962 2.53371 49.6197ZM8.46768 47.9417C9.49995 47.7255 9.77204 47.5402 11.2882 46.0248C12.5303 44.7833 13.1638 43.9453 13.7266 42.8026C15.2927 39.6236 15.2179 40.7457 15.2179 20.1543V1.72689H13.332C11.5956 1.72689 11.3651 1.77631 10.4429 2.34457C9.44802 2.95813 8.746 3.94024 8.62969 4.87912C8.57776 5.30326 8.80416 5.45356 10.6485 6.22566C12.2457 6.89275 12.7401 7.19336 12.7878 7.52484C12.8917 8.23517 12.3911 8.20429 10.3764 7.37248L8.45522 6.57979L8.51338 8.88168L8.57153 11.1836L10.6485 12.0463C12.2478 12.7092 12.7401 13.0078 12.792 13.3413C12.9 14.0434 12.4119 14.0249 10.58 13.259C9.62872 12.8616 8.76469 12.5363 8.65877 12.5363C8.55284 12.5363 8.46768 13.5369 8.46768 14.7599V16.9815L10.6485 17.871C12.3517 18.5628 12.8294 18.8448 12.8294 19.1537C12.8294 19.8187 12.2831 19.8125 10.6361 19.1331C9.76996 18.7748 8.9267 18.431 8.76262 18.3692C8.51961 18.2766 8.46768 18.6451 8.46768 20.5167V22.7753L10.5966 23.6813C12.3018 24.406 12.738 24.6778 12.792 25.0463C12.873 25.6084 12.4036 25.6537 11.2862 25.1925C10.8666 25.0175 10.0587 24.6943 9.48956 24.4719L8.45314 24.0663L8.51338 26.3661L8.57153 28.6639L10.6485 29.508C12.2686 30.1648 12.7401 30.4449 12.7878 30.7846C12.8896 31.4887 12.387 31.4784 10.6361 30.7475C9.72842 30.3687 8.87062 30.0537 8.72731 30.0475C8.53415 30.0393 8.46768 30.6096 8.46976 32.2505L8.47184 34.4639L10.5987 35.3184C12.2561 35.9834 12.7401 36.2675 12.792 36.6052C12.9021 37.3279 12.3247 37.3114 10.5509 36.5393C9.62249 36.1337 8.79169 35.8022 8.70654 35.8022C8.62138 35.8022 8.43653 36.354 8.29529 37.0293C8.15406 37.7026 7.76566 38.7712 7.42918 39.4033L6.82062 40.5542L7.27964 40.7292C9.36702 41.5301 9.50618 41.6146 9.50618 42.1046C9.50618 42.747 9.05963 42.7429 7.5538 42.0819C6.90786 41.7978 6.27645 41.5672 6.15391 41.5672C5.90882 41.5672 3.06749 43.3914 3.06749 43.5479C3.06749 43.6014 3.58882 44.1265 4.22438 44.7153C5.08218 45.508 5.34596 45.8827 5.24211 46.1483C5.00741 46.7434 4.51724 46.5642 3.33127 45.4524C2.07054 44.2706 1.8026 44.3097 1.78391 45.6768C1.76937 46.7104 2.26162 47.4743 3.28973 48.0158C3.86922 48.3205 4.31161 48.372 5.66374 48.2855C6.57762 48.2258 7.83835 48.0714 8.46768 47.9417ZM41.8865 48.0631C42.2064 47.8984 42.6259 47.5258 42.8191 47.2354C43.2449 46.5889 43.3051 45.0962 42.9271 44.4971C42.6571 44.0668 42.6197 44.0853 41.3611 45.2836C40.0172 46.5622 39.2072 46.8628 39.2072 46.0824C39.2072 45.8271 39.6683 45.2383 40.3496 44.6206C40.9789 44.0503 41.4919 43.517 41.4919 43.4347C41.4919 43.3523 41.2344 43.1546 40.9207 42.9982C40.6071 42.8417 39.9591 42.4546 39.4814 42.1396C38.42 41.4396 38.3079 41.4375 36.8394 42.0819C35.4167 42.7058 34.8455 42.7429 34.8455 42.2096C34.8455 41.7216 35.1218 41.5096 36.3576 41.0504C36.9038 40.8486 37.3961 40.6098 37.4522 40.5213C37.5082 40.4307 37.2818 39.9324 36.9474 39.4115C36.6151 38.8906 36.2205 37.8653 36.0751 37.1323C35.9276 36.4014 35.7511 35.8022 35.6846 35.8022C35.6161 35.8022 34.7749 36.1296 33.8174 36.5311C31.9834 37.297 31.4496 37.3176 31.5597 36.6155C31.6096 36.2922 32.1267 35.9813 33.7032 35.3225L35.7802 34.4536L35.8383 32.2444C35.884 30.5499 35.8362 30.0393 35.6306 30.0475C35.4852 30.0537 34.6233 30.3687 33.7156 30.7475C31.9647 31.4784 31.4621 31.4887 31.5639 30.7846C31.6116 30.4449 32.0831 30.1648 33.7032 29.508L35.7802 28.6639L35.8383 26.3661L35.8986 24.0663L34.8621 24.4719C34.293 24.6943 33.4851 25.0175 33.0655 25.1925C32.0291 25.6208 31.5223 25.5981 31.5223 25.1205C31.5223 24.6037 31.7238 24.476 33.9628 23.5598L35.884 22.7753V20.5373C35.884 19.3081 35.8549 18.3013 35.8196 18.3013C35.7864 18.3013 34.9328 18.6307 33.9254 19.0343C32.0208 19.7961 31.5223 19.8208 31.5223 19.1578C31.5223 18.8531 32.0083 18.5669 33.7032 17.8792L35.884 16.9939V14.7661C35.884 13.539 35.7989 12.5363 35.6929 12.5363C35.587 12.5363 34.723 12.8616 33.7717 13.259C31.9398 14.0249 31.4517 14.0434 31.5597 13.3413C31.6116 13.0078 32.1039 12.7092 33.7032 12.0463L35.7802 11.1836L35.8383 8.97639C35.884 7.28601 35.8362 6.77333 35.6306 6.77951C35.4852 6.78157 34.6191 7.09659 33.7094 7.47543C31.9481 8.20635 31.4621 8.2187 31.5639 7.52484C31.6116 7.19336 32.0956 6.89893 33.6409 6.25654C34.75 5.79534 35.7158 5.36091 35.7885 5.28884C36.0398 5.03765 35.1155 3.36786 34.3637 2.71518C33.3709 1.85043 32.3864 1.58277 30.4838 1.66101L28.9261 1.72689V20.1543C28.9261 37.1014 28.9552 38.6888 29.2916 39.9201C29.9334 42.2672 30.9823 44.0915 32.727 45.891L34.3263 47.5381L36.611 47.9314C39.4149 48.4152 41.116 48.4585 41.8865 48.0631ZM18.8007 46.4057L21.1374 46.2575V23.9407V1.62395H19.0666H16.9958L16.9377 20.5146L16.8795 39.4053L16.192 41.3593C15.5025 43.3152 14.7485 44.7236 13.6332 46.1257C13.305 46.5395 13.0371 46.9143 13.0371 46.9616C13.0371 47.0069 13.8076 46.9348 14.7506 46.799C15.6935 46.6651 17.5151 46.4881 18.8007 46.4057ZM30.9532 46.6631C29.3186 44.6103 28.33 42.7511 27.6425 40.4348C27.306 39.3024 27.2707 37.6491 27.2105 20.4117L27.144 1.62395H25.0753H23.0066V23.9345V46.2472L25.3433 46.3954C26.6289 46.4757 28.2407 46.6157 28.9261 46.7042C30.9117 46.9616 31.1879 46.9575 30.9532 46.6631Z" fill="black"/>
</svg>
