<svg width="31" height="50" viewBox="0 0 31 50" fill="none" xmlns="http://www.w3.org/2000/svg">
<path d="M4.26668 49.8223C2.64663 49.3343 1.32228 48.2698 0.56223 46.8469L0 45.7926V24.9954C0 4.25796 0.00207929 4.19618 0.439367 3.25722C0.953701 2.16176 2.10107 0.992179 3.19012 0.456805C3.9002 0.108813 4.78726 0.0758663 15.1593 0.022329C25.7438 -0.0312083 26.4101 -0.012676 27.2472 0.353849C28.5174 0.909813 29.5648 1.89614 30.1791 3.11514L30.7143 4.17559L30.7122 24.8822L30.7101 45.5867L30.2166 46.6328C29.5669 48.0165 28.4175 49.0852 27.0348 49.5979C25.9562 49.9953 25.4647 50.0138 15.3488 49.9953C9.54121 49.9871 4.55404 49.9068 4.26668 49.8223ZM8.43341 24.9769V1.58521L6.38649 1.65728C4.56862 1.71905 4.24378 1.79112 3.4754 2.29355C2.61124 2.85981 1.76998 4.13853 1.76998 4.88805C1.76998 5.19692 2.2385 5.48108 3.85438 6.15647C5.00175 6.63419 5.98668 7.09955 6.0429 7.1881C6.20949 7.45578 5.9138 8.00763 5.60145 8.00763C5.44528 8.00763 4.52281 7.68435 3.55453 7.28693C2.58625 6.89158 1.74082 6.56624 1.67835 6.56624C1.6138 6.56624 1.56174 7.53609 1.56174 8.72421C1.56174 11.2219 1.39516 11.0078 4.20838 12.13C5.82009 12.7725 6.29695 13.1534 6.02625 13.5858C5.81385 13.9276 5.01424 13.7691 3.43584 13.0669C2.57792 12.686 1.80121 12.4409 1.70959 12.5254C1.62005 12.6077 1.57424 13.627 1.60547 14.7904L1.66586 16.9051L3.64407 17.7164C6.00542 18.6863 6.38232 18.9787 5.89922 19.4543C5.5952 19.755 5.42237 19.722 3.83981 19.0425C2.89027 18.6368 1.98654 18.3033 1.83036 18.3033C1.60547 18.3033 1.55966 18.7604 1.60755 20.5148L1.66586 22.7263L3.68988 23.552C6.08455 24.528 6.374 24.7525 5.88465 25.2364C5.56397 25.5514 5.41196 25.5226 3.70653 24.8204C2.69869 24.4024 1.80329 24.0647 1.71792 24.0668C1.4368 24.0709 1.53676 28.323 1.82203 28.5371C1.96571 28.6442 2.9444 29.0828 4.00014 29.5132C5.88256 30.2812 6.17617 30.5036 5.98668 31.0184C5.83884 31.4117 5.35366 31.3231 3.53995 30.5695C2.62373 30.1886 1.80329 29.9188 1.71792 29.9703C1.63254 30.0218 1.56174 30.9834 1.56174 32.1077C1.56174 34.4757 1.41806 34.2986 4.20838 35.4064C5.82426 36.0488 6.29487 36.4236 6.02625 36.854C5.82634 37.1752 5.21414 37.064 3.64407 36.4236C2.81114 36.0838 1.99903 35.8059 1.83869 35.8059C1.60339 35.8059 1.55966 36.23 1.60755 37.9885L1.66586 40.1733L3.64407 40.9846C5.99501 41.9503 6.38232 42.2468 5.90755 42.7163C5.61395 43.0066 5.41404 42.9675 3.79191 42.3045C2.80697 41.9009 1.89075 41.5714 1.75332 41.5714C1.38475 41.5714 1.6138 45.2078 2.03235 46.0006C2.89235 47.6294 4.34165 48.3439 6.81961 48.3583L8.43341 48.3665V24.9769ZM14.4722 24.9954V1.62433H12.2857H10.0993V24.9954V48.3665H12.2857H14.4722V24.9954ZM20.4588 24.944L20.513 1.62433H18.3245H16.138V25.0016V48.381L18.2724 48.3212L20.4068 48.2636L20.4588 24.944ZM26.6933 47.8662C27.4388 47.5223 27.9531 47.0981 28.3592 46.4927C28.8818 45.7103 28.9526 45.4055 29.0151 43.5955C29.0547 42.4816 29.0047 41.5714 28.9047 41.5714C28.8048 41.5714 27.9531 41.8926 27.0119 42.2859C25.2294 43.0293 24.6089 43.0437 24.7172 42.3395C24.7651 42.0244 25.2919 41.7217 26.912 41.0793L29.0422 40.233L29.0463 37.9144L29.0484 35.5938L28.3717 35.8759C27.9989 36.0303 27.2097 36.3639 26.6184 36.6172C25.3856 37.1443 24.7797 37.1155 24.7797 36.5266C24.7797 36.2053 25.2169 35.9438 26.862 35.2767L28.9443 34.4324L29.0026 32.1138C29.0359 30.8392 28.9839 29.8282 28.8881 29.8673C25.0629 31.4282 24.6755 31.5043 24.6755 30.7054C24.6755 30.4212 25.2107 30.1124 26.862 29.4411L29.0484 28.5536V26.3112C29.0484 25.0778 29.0026 24.0688 28.9464 24.0688C28.8902 24.0688 28.0385 24.4004 27.0515 24.8039C25.1857 25.5658 24.6755 25.5926 24.6755 24.9213C24.6755 24.6124 25.1545 24.3303 26.862 23.6385L29.0484 22.7489V20.5271C29.0484 19.304 28.9735 18.3033 28.8798 18.3033C28.7881 18.3033 27.9261 18.6183 26.964 19.0013C25.1378 19.7282 24.6755 19.7508 24.6755 19.1146C24.6755 18.7233 25.3002 18.3877 27.8074 17.4343L29.0422 16.9648L29.0463 14.6566L29.0484 12.3483L27.2868 13.0772C25.4023 13.8576 24.7797 13.905 24.7797 13.2625C24.7797 12.9495 25.2357 12.6736 26.862 11.9982L28.9443 11.1334L29.0026 8.84981C29.0359 7.59374 29.0214 6.56624 28.9693 6.56624C28.9193 6.56624 28.1114 6.89158 27.1743 7.28693C25.2669 8.09411 24.9254 8.14971 24.7443 7.68229C24.5589 7.20457 24.9837 6.91423 27.1223 6.0494C28.2571 5.59227 29.0484 5.15368 29.0484 4.98483C29.0484 4.52976 28.303 3.21192 27.7636 2.71567C26.9078 1.92496 25.8541 1.62433 23.953 1.62433H22.1768V24.9954V48.3665L23.8947 48.3645C25.2711 48.3624 25.8271 48.2636 26.6933 47.8662Z" fill="black"/>
</svg>
