<svg width="31" height="32" viewBox="0 0 31 32" fill="none" xmlns="http://www.w3.org/2000/svg">
<ellipse cx="15.8262" cy="15.6094" rx="15" ry="15.5" fill="#F4F4F4"/>
<path d="M17.5098 11.6466L18.3804 8.8048C18.4928 8.3682 18.7883 8.10938 19.1621 8.10938C19.1621 8.10938 20.119 8.10938 20.0902 8.10938C20.4693 8.10938 20.4981 8.37081 20.2026 8.8048L19.0419 10.661H19.7948C20.0275 10.661 20.1112 10.8937 19.9412 11.21L17.3608 14.6323L18.2001 11.9107H17.651C17.5098 11.9055 17.4523 11.8506 17.5098 11.6466ZM23.8262 16.9773V21.4139V21.9917C23.8262 22.2244 23.651 22.3996 23.4471 22.3996H21.4497C21.2458 22.3996 21.0706 22.1957 21.0706 21.9917V21.4139V20.7734H10.553V21.4139V21.9917C10.553 22.2244 10.3778 22.3996 10.1739 22.3996H8.20526C8.00134 22.3996 7.82617 22.1957 7.82617 21.9917V21.4139V16.9826C7.82617 16.5198 7.88369 16.1434 8.11375 15.6466L10.5765 10.4911C10.8641 9.87931 11.617 9.38781 12.2863 9.38781L17.5909 9.41656L17.0706 11.0689H13.0706C12.3464 11.0689 12.0562 11.2153 11.7059 11.9081L10.0223 15.4715H21.6223L20.0275 12.1094L20.4641 11.4976C20.6105 11.2362 20.7255 10.9486 20.6105 10.627C20.5242 10.3943 20.2941 10.2192 20.0615 10.1355L20.3229 9.69892C20.6105 9.90284 20.8719 10.1904 21.0183 10.4806L23.5098 15.6362C23.7687 16.1407 23.8262 16.5146 23.8262 16.9773ZM11.6275 18.0519C11.6275 17.3564 11.0785 16.8074 10.383 16.8074C9.68761 16.8074 9.16735 17.3564 9.16735 18.0519C9.16735 18.7473 9.71637 19.2963 10.383 19.2963C11.0497 19.2963 11.6275 18.7499 11.6275 18.0519ZM22.4353 18.0519C22.4353 17.3564 21.9151 16.8074 21.2196 16.8074C20.5242 16.8074 19.9752 17.3564 19.9752 18.0519C19.9752 18.7473 20.5242 19.2963 21.2196 19.2963C21.8837 19.2989 22.4353 18.7499 22.4353 18.0519Z" fill="#5279DB"/>
</svg>
