<svg width="30" height="31" viewBox="0 0 30 31" fill="none" xmlns="http://www.w3.org/2000/svg">
<ellipse cx="15" cy="15.5" rx="15" ry="15.5" fill="#F4F4F4"/>
<path d="M16.6837 11.5373L17.5542 8.69542C17.6667 8.25882 17.9621 8 18.3359 8C18.3359 8 19.2928 8 19.264 8C19.6431 8 19.6719 8.26144 19.3765 8.69542L18.2157 10.5516H18.9686C19.2013 10.5516 19.285 10.7843 19.1151 11.1007L16.5347 14.5229L17.3739 11.8013H16.8249C16.6837 11.7961 16.6261 11.7412 16.6837 11.5373ZM23 16.868V21.3046V21.8824C23 22.115 22.8248 22.2902 22.6209 22.2902H20.6235C20.4196 22.2902 20.2444 22.0863 20.2444 21.8824V21.3046V20.6641H9.7268V21.3046V21.8824C9.7268 22.115 9.55163 22.2902 9.34771 22.2902H7.37908C7.17516 22.2902 7 22.0863 7 21.8824V21.3046V16.8732C7 16.4105 7.05752 16.034 7.28758 15.5373L9.75033 10.3817C10.0379 9.76993 10.7908 9.27843 11.4601 9.27843L16.7647 9.30719L16.2444 10.9595H12.2444C11.5203 10.9595 11.2301 11.1059 10.8797 11.7987L9.19608 15.3621H20.7961L19.2013 12L19.6379 11.3882C19.7843 11.1268 19.8993 10.8392 19.7843 10.5176C19.698 10.285 19.468 10.1098 19.2353 10.0261L19.4967 9.58954C19.7843 9.79346 20.0458 10.081 20.1922 10.3712L22.6837 15.5268C22.9425 16.0314 23 16.4052 23 16.868ZM10.8013 17.9425C10.8013 17.2471 10.2523 16.698 9.55686 16.698C8.86144 16.698 8.34118 17.2471 8.34118 17.9425C8.34118 18.6379 8.8902 19.1869 9.55686 19.1869C10.2235 19.1869 10.8013 18.6405 10.8013 17.9425ZM21.6091 17.9425C21.6091 17.2471 21.0889 16.698 20.3935 16.698C19.698 16.698 19.149 17.2471 19.149 17.9425C19.149 18.6379 19.698 19.1869 20.3935 19.1869C21.0575 19.1895 21.6091 18.6405 21.6091 17.9425Z" fill="#EC3131"/>
</svg>
