<svg width="24" height="22" viewBox="0 0 24 22" fill="none" xmlns="http://www.w3.org/2000/svg">
<path d="M4.09524 2.84765L4.09283 2.85488L4.09065 2.86217L3.17898 5.90297L3.15703 5.8903L3.15698 5.89027C2.56712 5.54976 1.81282 5.75181 1.47224 6.34174C1.13167 6.93162 1.33374 7.68593 1.92367 8.0265C1.92368 8.0265 1.92369 8.02651 1.9237 8.02651L2.26864 8.22567C1.19959 8.97931 0.5 10.2244 0.5 11.6335V16.0335C0.5 17.9297 2.03717 19.4669 3.93337 19.4669C5.53034 19.4669 6.87211 18.377 7.25631 16.9002H11.6762H12.2382L12.1728 16.342C12.1468 16.1207 12.1335 15.8955 12.1335 15.6669C12.1335 12.5004 14.7004 9.93344 17.8669 9.93344C19.4365 9.93344 20.8579 10.5635 21.8938 11.5857L22.8952 12.5738L22.742 11.1753C22.6069 9.94186 21.9343 8.87165 20.9649 8.20239L21.2696 8.02652C21.8595 7.68595 22.0616 6.93161 21.721 6.34174C21.3881 5.76511 20.66 5.5591 20.0765 5.86803L19.1763 2.86232L19.1741 2.85495L19.1717 2.84765C18.7044 1.44566 17.3924 0.5 15.9145 0.5H7.35244C5.87459 0.5 4.56257 1.44565 4.09524 2.84765ZM15.9145 2.96669C16.3288 2.96669 16.6967 3.23057 16.8298 3.62244L18.0068 7.46676H5.26016L6.4371 3.62244C6.57021 3.23057 6.93817 2.96669 7.35244 2.96669H15.9145ZM7.46676 12.3668C7.46676 12.4957 7.3623 12.6002 7.23341 12.6002H5.76673C5.63785 12.6002 5.53339 12.4957 5.53339 12.3668C5.53339 12.2379 5.63785 12.1335 5.76673 12.1335H7.23341C7.3623 12.1335 7.46676 12.2379 7.46676 12.3668Z" stroke="#2D3748"/>
<path d="M19.1451 16.916L19.1451 16.916C19.0626 17.015 18.9155 17.0284 18.8165 16.9459L18.8164 16.9459L17.7164 16.0292C17.6632 15.9848 17.6325 15.9192 17.6325 15.8499V13.8332C17.6325 13.7044 17.7369 13.5999 17.8658 13.5999C17.9947 13.5999 18.0992 13.7044 18.0992 13.8332V15.5064V15.7406L18.2791 15.8905L19.1152 16.5874L19.4353 16.2033L19.1152 16.5874C19.2142 16.6699 19.2276 16.817 19.1451 16.916ZM17.8658 10.0332C14.7546 10.0332 12.2324 12.5554 12.2324 15.6666C12.2324 18.7778 14.7546 21.3 17.8658 21.3C20.9771 21.3 23.4992 18.7778 23.4992 15.6666C23.4992 12.5554 20.9771 10.0332 17.8658 10.0332Z" stroke="#2D3748"/>
</svg>
