<svg width="34" height="30" viewBox="0 0 34 30" fill="none" xmlns="http://www.w3.org/2000/svg">
<path fill-rule="evenodd" clip-rule="evenodd" d="M5.40839 3.039C6.01333 1.22413 7.71172 0 9.62478 0H22.5975C24.5105 0 26.2089 1.22413 26.8138 3.039L28.4522 8.50955L29.2212 8.0655C29.7527 7.75872 30.4322 7.94078 30.739 8.47222C31.0458 9.00367 30.8638 9.68322 30.3323 9.99L29.1694 10.6614L29.3673 11.255C30.9017 12.1102 31.9887 13.6714 32.1889 15.4994C30.4835 13.8166 28.1408 12.7778 25.5556 12.7778C20.3396 12.7778 16.1111 17.0062 16.1111 22.2222C16.1111 22.5981 16.1331 22.9689 16.1758 23.3333H8.8545C8.58111 25.5257 6.71089 27.2222 4.44444 27.2222C1.98984 27.2222 0 25.2324 0 22.7778V16.1111C0 14.0231 1.15191 12.2041 2.85491 11.255L3.03475 10.7154L1.77827 9.99C1.24683 9.68322 1.06474 9.00367 1.37157 8.47222C1.67839 7.94078 2.35794 7.75872 2.88938 8.0655L3.75204 8.56361L5.40839 3.039ZM24.7057 3.74172L26.7918 10.5556H5.4305L7.51656 3.74172C7.81906 2.83428 8.66822 2.22222 9.62478 2.22222H22.5975C23.554 2.22222 24.4032 2.83428 24.7057 3.74172ZM9.44444 18.3333C10.0581 18.3333 10.5556 17.8359 10.5556 17.2222C10.5556 16.6086 10.0581 16.1111 9.44444 16.1111H7.22222C6.60856 16.1111 6.11111 16.6086 6.11111 17.2222C6.11111 17.8359 6.60856 18.3333 7.22222 18.3333H9.44444Z" fill="#102C53"/>
<path fill-rule="evenodd" clip-rule="evenodd" d="M25.5556 14.4443C21.2601 14.4443 17.7778 17.9266 17.7778 22.2221C17.7778 26.5177 21.2601 29.9999 25.5556 29.9999C29.8512 29.9999 33.3334 26.5177 33.3334 22.2221C33.3334 17.9266 29.8512 14.4443 25.5556 14.4443ZM28.0758 24.6001C27.683 25.0715 26.9824 25.1352 26.5109 24.7423L24.8443 23.3534C24.5909 23.1423 24.4445 22.8297 24.4445 22.4999V19.4443C24.4445 18.8307 24.9419 18.3332 25.5556 18.3332C26.1693 18.3332 26.6667 18.8307 26.6667 19.4443V21.9794L27.9336 23.0352C28.405 23.4281 28.4687 24.1287 28.0758 24.6001Z" fill="#102C53"/>
</svg>
