<svg width="20" height="20" viewBox="0 0 20 20" fill="none" xmlns="http://www.w3.org/2000/svg">
<path fill-rule="evenodd" clip-rule="evenodd" d="M10 1.39535C5.24779 1.39535 1.39535 5.24779 1.39535 10C1.39535 14.7522 5.24779 18.6047 10 18.6047C14.7522 18.6047 18.6047 14.7522 18.6047 10C18.6047 5.24779 14.7522 1.39535 10 1.39535ZM0 10C0 4.47715 4.47715 0 10 0C15.5229 0 20 4.47715 20 10C20 15.5229 15.5229 20 10 20C4.47715 20 0 15.5229 0 10ZM10 5.5814C10.3853 5.5814 10.6977 5.89376 10.6977 6.27907V9.71098L12.8189 11.8323C13.0913 12.1047 13.0913 12.5464 12.8189 12.8189C12.5464 13.0913 12.1047 13.0913 11.8323 12.8189L9.5067 10.4933C9.37581 10.3625 9.30233 10.185 9.30233 10V6.27907C9.30233 5.89376 9.6147 5.5814 10 5.5814Z" fill="#989EA5"/>
</svg>
