<svg width="705" height="534" viewBox="0 0 705 534" fill="none" xmlns="http://www.w3.org/2000/svg">
<rect width="705" height="534" fill="white"/>
<path d="M56.8868 451.132C56.8868 449.298 57.1854 447.868 57.7828 446.844C58.3801 445.81 59.4254 445.292 60.9188 445.292C62.4014 445.292 63.4414 445.81 64.0388 446.844C64.6361 447.868 64.9348 449.298 64.9348 451.132C64.9348 452.999 64.6361 454.45 64.0388 455.484C63.4414 456.519 62.4014 457.036 60.9188 457.036C59.4254 457.036 58.3801 456.519 57.7828 455.484C57.1854 454.45 56.8868 452.999 56.8868 451.132ZM63.4948 451.132C63.4948 450.204 63.4308 449.42 63.3028 448.78C63.1854 448.13 62.9348 447.607 62.5508 447.212C62.1774 446.818 61.6334 446.62 60.9188 446.62C60.1934 446.62 59.6388 446.818 59.2548 447.212C58.8814 447.607 58.6308 448.13 58.5028 448.78C58.3854 449.42 58.3268 450.204 58.3268 451.132C58.3268 452.092 58.3854 452.898 58.5028 453.548C58.6308 454.199 58.8814 454.722 59.2548 455.116C59.6388 455.511 60.1934 455.708 60.9188 455.708C61.6334 455.708 62.1774 455.511 62.5508 455.116C62.9348 454.722 63.1854 454.199 63.3028 453.548C63.4308 452.898 63.4948 452.092 63.4948 451.132Z" fill="#BAB5B5"/>
<path d="M56.608 363.76V362.432H59.616V374H58.144V363.76H56.608Z" fill="#BAB5B5"/>
<path d="M56.663 281.051C57.7637 280.167 58.626 279.443 59.25 278.88C59.874 278.308 60.3983 277.714 60.823 277.099C61.2563 276.475 61.473 275.864 61.473 275.266C61.473 274.703 61.3343 274.261 61.057 273.94C60.7883 273.611 60.3507 273.446 59.744 273.446C59.1547 273.446 58.6953 273.632 58.366 274.005C58.0453 274.369 57.872 274.859 57.846 275.474H56.702C56.7367 274.503 57.0313 273.754 57.586 273.225C58.1407 272.696 58.8557 272.432 59.731 272.432C60.6237 272.432 61.33 272.679 61.85 273.173C62.3787 273.667 62.643 274.347 62.643 275.214C62.643 275.933 62.4263 276.635 61.993 277.32C61.5683 277.996 61.083 278.594 60.537 279.114C59.991 279.625 59.2933 280.223 58.444 280.908H62.916V281.896H56.663V281.051Z" fill="#BAB5B5"/>
<path d="M56.96 185.344C57.0347 184.363 57.4133 183.595 58.096 183.04C58.7787 182.485 59.664 182.208 60.752 182.208C61.4773 182.208 62.1013 182.341 62.624 182.608C63.1573 182.864 63.5573 183.216 63.824 183.664C64.1013 184.112 64.24 184.619 64.24 185.184C64.24 185.845 64.048 186.416 63.664 186.896C63.2907 187.376 62.8 187.685 62.192 187.824V187.904C62.8853 188.075 63.4347 188.411 63.84 188.912C64.2453 189.413 64.448 190.069 64.448 190.88C64.448 191.488 64.3093 192.037 64.032 192.528C63.7547 193.008 63.3387 193.387 62.784 193.664C62.2293 193.941 61.5627 194.08 60.784 194.08C59.6533 194.08 58.7253 193.787 58 193.2C57.2747 192.603 56.8693 191.76 56.784 190.672H58.192C58.2667 191.312 58.528 191.835 58.976 192.24C59.424 192.645 60.0213 192.848 60.768 192.848C61.5147 192.848 62.08 192.656 62.464 192.272C62.8587 191.877 63.056 191.371 63.056 190.752C63.056 189.952 62.7893 189.376 62.256 189.024C61.7227 188.672 60.9173 188.496 59.84 188.496H59.472V187.28H59.856C60.8373 187.269 61.5787 187.109 62.08 186.8C62.5813 186.48 62.832 185.989 62.832 185.328C62.832 184.763 62.6453 184.309 62.272 183.968C61.9093 183.627 61.3867 183.456 60.704 183.456C60.0427 183.456 59.5093 183.627 59.104 183.968C58.6987 184.309 58.4587 184.768 58.384 185.344H56.96Z" fill="#BAB5B5"/>
<path d="M56.64 96.424V95.32L62.256 87.544H64V95.16H65.6V96.424H64V99H62.56V96.424H56.64ZM62.624 89.064L58.32 95.16H62.624V89.064Z" fill="#BAB5B5"/>
<path d="M64.368 17.696H58.752V21.344C58.9973 21.0027 59.36 20.7253 59.84 20.512C60.32 20.288 60.8373 20.176 61.392 20.176C62.2773 20.176 62.9973 20.3627 63.552 20.736C64.1067 21.0987 64.5013 21.5733 64.736 22.16C64.9813 22.736 65.104 23.3493 65.104 24C65.104 24.768 64.96 25.456 64.672 26.064C64.384 26.672 63.9413 27.152 63.344 27.504C62.7573 27.856 62.0267 28.032 61.152 28.032C60.032 28.032 59.1253 27.744 58.432 27.168C57.7387 26.592 57.3173 25.824 57.168 24.864H58.592C58.7307 25.472 59.024 25.9467 59.472 26.288C59.92 26.6293 60.4853 26.8 61.168 26.8C62.0107 26.8 62.6453 26.5493 63.072 26.048C63.4987 25.536 63.712 24.864 63.712 24.032C63.712 23.2 63.4987 22.56 63.072 22.112C62.6453 21.6533 62.016 21.424 61.184 21.424C60.6187 21.424 60.1227 21.5627 59.696 21.84C59.28 22.1067 58.976 22.4747 58.784 22.944H57.408V16.416H64.368V17.696Z" fill="#BAB5B5"/>
<path d="M623.992 446.096C623.992 444.261 624.291 442.832 624.888 441.808C625.485 440.773 626.531 440.256 628.024 440.256C629.507 440.256 630.547 440.773 631.144 441.808C631.741 442.832 632.04 444.261 632.04 446.096C632.04 447.963 631.741 449.413 631.144 450.448C630.547 451.483 629.507 452 628.024 452C626.531 452 625.485 451.483 624.888 450.448C624.291 449.413 623.992 447.963 623.992 446.096ZM630.6 446.096C630.6 445.168 630.536 444.384 630.408 443.744C630.291 443.093 630.04 442.571 629.656 442.176C629.283 441.781 628.739 441.584 628.024 441.584C627.299 441.584 626.744 441.781 626.36 442.176C625.987 442.571 625.736 443.093 625.608 443.744C625.491 444.384 625.432 445.168 625.432 446.096C625.432 447.056 625.491 447.861 625.608 448.512C625.736 449.163 625.987 449.685 626.36 450.08C626.744 450.475 627.299 450.672 628.024 450.672C628.739 450.672 629.283 450.475 629.656 450.08C630.04 449.685 630.291 449.163 630.408 448.512C630.536 447.861 630.6 447.056 630.6 446.096Z" fill="#BAB5B5"/>
<path d="M623.608 363.76V362.432H626.616V374H625.144V363.76H623.608Z" fill="#BAB5B5"/>
<path d="M623.663 277.051C624.764 276.167 625.626 275.443 626.25 274.88C626.874 274.308 627.398 273.714 627.823 273.099C628.256 272.475 628.473 271.864 628.473 271.266C628.473 270.703 628.334 270.261 628.057 269.94C627.788 269.611 627.351 269.446 626.744 269.446C626.155 269.446 625.695 269.632 625.366 270.005C625.045 270.369 624.872 270.859 624.846 271.474H623.702C623.737 270.503 624.031 269.754 624.586 269.225C625.141 268.696 625.856 268.432 626.731 268.432C627.624 268.432 628.33 268.679 628.85 269.173C629.379 269.667 629.643 270.347 629.643 271.214C629.643 271.933 629.426 272.635 628.993 273.32C628.568 273.996 628.083 274.594 627.537 275.114C626.991 275.625 626.293 276.223 625.444 276.908H629.916V277.896H623.663V277.051Z" fill="#BAB5B5"/>
<path d="M623.96 185.344C624.035 184.363 624.413 183.595 625.096 183.04C625.779 182.485 626.664 182.208 627.752 182.208C628.477 182.208 629.101 182.341 629.624 182.608C630.157 182.864 630.557 183.216 630.824 183.664C631.101 184.112 631.24 184.619 631.24 185.184C631.24 185.845 631.048 186.416 630.664 186.896C630.291 187.376 629.8 187.685 629.192 187.824V187.904C629.885 188.075 630.435 188.411 630.84 188.912C631.245 189.413 631.448 190.069 631.448 190.88C631.448 191.488 631.309 192.037 631.032 192.528C630.755 193.008 630.339 193.387 629.784 193.664C629.229 193.941 628.563 194.08 627.784 194.08C626.653 194.08 625.725 193.787 625 193.2C624.275 192.603 623.869 191.76 623.784 190.672H625.192C625.267 191.312 625.528 191.835 625.976 192.24C626.424 192.645 627.021 192.848 627.768 192.848C628.515 192.848 629.08 192.656 629.464 192.272C629.859 191.877 630.056 191.371 630.056 190.752C630.056 189.952 629.789 189.376 629.256 189.024C628.723 188.672 627.917 188.496 626.84 188.496H626.472V187.28H626.856C627.837 187.269 628.579 187.109 629.08 186.8C629.581 186.48 629.832 185.989 629.832 185.328C629.832 184.763 629.645 184.309 629.272 183.968C628.909 183.627 628.387 183.456 627.704 183.456C627.043 183.456 626.509 183.627 626.104 183.968C625.699 184.309 625.459 184.768 625.384 185.344H623.96Z" fill="#BAB5B5"/>
<path d="M623.64 95.424V94.32L629.256 86.544H631V94.16H632.6V95.424H631V98H629.56V95.424H623.64ZM629.624 88.064L625.32 94.16H629.624V88.064Z" fill="#BAB5B5"/>
<path d="M631.368 16.696H625.752V20.344C625.997 20.0027 626.36 19.7253 626.84 19.512C627.32 19.288 627.837 19.176 628.392 19.176C629.277 19.176 629.997 19.3627 630.552 19.736C631.107 20.0987 631.501 20.5733 631.736 21.16C631.981 21.736 632.104 22.3493 632.104 23C632.104 23.768 631.96 24.456 631.672 25.064C631.384 25.672 630.941 26.152 630.344 26.504C629.757 26.856 629.027 27.032 628.152 27.032C627.032 27.032 626.125 26.744 625.432 26.168C624.739 25.592 624.317 24.824 624.168 23.864H625.592C625.731 24.472 626.024 24.9467 626.472 25.288C626.92 25.6293 627.485 25.8 628.168 25.8C629.011 25.8 629.645 25.5493 630.072 25.048C630.499 24.536 630.712 23.864 630.712 23.032C630.712 22.2 630.499 21.56 630.072 21.112C629.645 20.6533 629.016 20.424 628.184 20.424C627.619 20.424 627.123 20.5627 626.696 20.84C626.28 21.1067 625.976 21.4747 625.784 21.944H624.408V15.416H631.368V16.696Z" fill="#BAB5B5"/>
<path d="M91.2481 471.397C90.2135 471.397 89.2695 471.157 88.4161 470.677C87.5628 470.186 86.8855 469.509 86.3841 468.645C85.8935 467.77 85.6481 466.789 85.6481 465.701C85.6481 464.613 85.8935 463.637 86.3841 462.773C86.8855 461.898 87.5628 461.221 88.4161 460.741C89.2695 460.25 90.2135 460.005 91.2481 460.005C92.2935 460.005 93.2428 460.25 94.0961 460.741C94.9495 461.221 95.6215 461.893 96.1121 462.757C96.6028 463.621 96.8481 464.602 96.8481 465.701C96.8481 466.8 96.6028 467.781 96.1121 468.645C95.6215 469.509 94.9495 470.186 94.0961 470.677C93.2428 471.157 92.2935 471.397 91.2481 471.397ZM91.2481 470.133C92.0268 470.133 92.7255 469.952 93.3441 469.589C93.9735 469.226 94.4641 468.709 94.8161 468.037C95.1788 467.365 95.3601 466.586 95.3601 465.701C95.3601 464.805 95.1788 464.026 94.8161 463.365C94.4641 462.693 93.9788 462.176 93.3601 461.813C92.7415 461.45 92.0375 461.269 91.2481 461.269C90.4588 461.269 89.7548 461.45 89.1361 461.813C88.5175 462.176 88.0268 462.693 87.6641 463.365C87.3121 464.026 87.1361 464.805 87.1361 465.701C87.1361 466.586 87.3121 467.365 87.6641 468.037C88.0268 468.709 88.5175 469.226 89.1361 469.589C89.7655 469.952 90.4695 470.133 91.2481 470.133ZM98.2263 466.885C98.2263 465.978 98.4076 465.189 98.7703 464.517C99.1329 463.834 99.6343 463.306 100.274 462.933C100.925 462.56 101.666 462.373 102.498 462.373C103.576 462.373 104.461 462.634 105.154 463.157C105.858 463.68 106.322 464.405 106.546 465.333H104.978C104.829 464.8 104.536 464.378 104.098 464.069C103.672 463.76 103.138 463.605 102.498 463.605C101.666 463.605 100.994 463.893 100.482 464.469C99.9703 465.034 99.7143 465.84 99.7143 466.885C99.7143 467.941 99.9703 468.757 100.482 469.333C100.994 469.909 101.666 470.197 102.498 470.197C103.138 470.197 103.672 470.048 104.098 469.749C104.525 469.45 104.818 469.024 104.978 468.469H106.546C106.312 469.365 105.842 470.085 105.138 470.629C104.434 471.162 103.554 471.429 102.498 471.429C101.666 471.429 100.925 471.242 100.274 470.869C99.6343 470.496 99.1329 469.968 98.7703 469.285C98.4076 468.602 98.2263 467.802 98.2263 466.885ZM110.265 463.717V468.885C110.265 469.312 110.356 469.616 110.537 469.797C110.718 469.968 111.033 470.053 111.481 470.053H112.553V471.285H111.241C110.43 471.285 109.822 471.098 109.417 470.725C109.012 470.352 108.809 469.738 108.809 468.885V463.717H107.673V462.517H108.809V460.309H110.265V462.517H112.553V463.717H110.265ZM114.541 460.133H116.157L114.621 463.765H113.597L114.541 460.133ZM121.667 470.117C123.021 469.029 124.083 468.138 124.851 467.445C125.619 466.741 126.264 466.01 126.787 465.253C127.32 464.485 127.587 463.733 127.587 462.997C127.587 462.304 127.416 461.76 127.075 461.365C126.744 460.96 126.205 460.757 125.459 460.757C124.733 460.757 124.168 460.986 123.763 461.445C123.368 461.893 123.155 462.496 123.123 463.253H121.715C121.757 462.058 122.12 461.136 122.803 460.485C123.485 459.834 124.365 459.509 125.443 459.509C126.541 459.509 127.411 459.813 128.051 460.421C128.701 461.029 129.027 461.866 129.027 462.933C129.027 463.818 128.76 464.682 128.227 465.525C127.704 466.357 127.107 467.093 126.435 467.733C125.763 468.362 124.904 469.098 123.859 469.941H129.363V471.157H121.667V470.117ZM131.014 462.629C131.089 461.648 131.467 460.88 132.15 460.325C132.833 459.77 133.718 459.493 134.806 459.493C135.531 459.493 136.155 459.626 136.678 459.893C137.211 460.149 137.611 460.501 137.878 460.949C138.155 461.397 138.294 461.904 138.294 462.469C138.294 463.13 138.102 463.701 137.718 464.181C137.345 464.661 136.854 464.97 136.246 465.109V465.189C136.939 465.36 137.489 465.696 137.894 466.197C138.299 466.698 138.502 467.354 138.502 468.165C138.502 468.773 138.363 469.322 138.086 469.813C137.809 470.293 137.393 470.672 136.838 470.949C136.283 471.226 135.617 471.365 134.838 471.365C133.707 471.365 132.779 471.072 132.054 470.485C131.329 469.888 130.923 469.045 130.838 467.957H132.246C132.321 468.597 132.582 469.12 133.03 469.525C133.478 469.93 134.075 470.133 134.822 470.133C135.569 470.133 136.134 469.941 136.518 469.557C136.913 469.162 137.11 468.656 137.11 468.037C137.11 467.237 136.843 466.661 136.31 466.309C135.777 465.957 134.971 465.781 133.894 465.781H133.526V464.565H133.91C134.891 464.554 135.633 464.394 136.134 464.085C136.635 463.765 136.886 463.274 136.886 462.613C136.886 462.048 136.699 461.594 136.326 461.253C135.963 460.912 135.441 460.741 134.758 460.741C134.097 460.741 133.563 460.912 133.158 461.253C132.753 461.594 132.513 462.053 132.438 462.629H131.014Z" fill="#BAB5B5"/>
<path d="M198.575 471.285H197.119L191.263 462.405V471.285H189.807V460.117H191.263L197.119 468.981V460.117H198.575V471.285ZM204.881 471.429C204.06 471.429 203.313 471.242 202.641 470.869C201.98 470.496 201.457 469.968 201.073 469.285C200.7 468.592 200.513 467.792 200.513 466.885C200.513 465.989 200.705 465.2 201.089 464.517C201.484 463.824 202.017 463.296 202.689 462.933C203.361 462.56 204.113 462.373 204.945 462.373C205.777 462.373 206.529 462.56 207.201 462.933C207.873 463.296 208.401 463.818 208.785 464.501C209.18 465.184 209.377 465.978 209.377 466.885C209.377 467.792 209.174 468.592 208.769 469.285C208.374 469.968 207.836 470.496 207.153 470.869C206.47 471.242 205.713 471.429 204.881 471.429ZM204.881 470.149C205.404 470.149 205.894 470.026 206.353 469.781C206.812 469.536 207.18 469.168 207.457 468.677C207.745 468.186 207.889 467.589 207.889 466.885C207.889 466.181 207.75 465.584 207.473 465.093C207.196 464.602 206.833 464.24 206.385 464.005C205.937 463.76 205.452 463.637 204.929 463.637C204.396 463.637 203.905 463.76 203.457 464.005C203.02 464.24 202.668 464.602 202.401 465.093C202.134 465.584 202.001 466.181 202.001 466.885C202.001 467.6 202.129 468.202 202.385 468.693C202.652 469.184 203.004 469.552 203.441 469.797C203.878 470.032 204.358 470.149 204.881 470.149ZM214.555 469.941L217.275 462.517H218.827L215.387 471.285H213.691L210.251 462.517H211.819L214.555 469.941ZM220.484 460.133H222.1L220.564 463.765H219.54L220.484 460.133ZM227.61 470.117C228.964 469.029 230.026 468.138 230.794 467.445C231.562 466.741 232.207 466.01 232.73 465.253C233.263 464.485 233.53 463.733 233.53 462.997C233.53 462.304 233.359 461.76 233.018 461.365C232.687 460.96 232.148 460.757 231.402 460.757C230.676 460.757 230.111 460.986 229.706 461.445C229.311 461.893 229.098 462.496 229.066 463.253H227.658C227.7 462.058 228.063 461.136 228.746 460.485C229.428 459.834 230.308 459.509 231.386 459.509C232.484 459.509 233.354 459.813 233.994 460.421C234.644 461.029 234.97 461.866 234.97 462.933C234.97 463.818 234.703 464.682 234.17 465.525C233.647 466.357 233.05 467.093 232.378 467.733C231.706 468.362 230.847 469.098 229.802 469.941H235.306V471.157H227.61V470.117ZM236.957 462.629C237.032 461.648 237.41 460.88 238.093 460.325C238.776 459.77 239.661 459.493 240.749 459.493C241.474 459.493 242.098 459.626 242.621 459.893C243.154 460.149 243.554 460.501 243.821 460.949C244.098 461.397 244.237 461.904 244.237 462.469C244.237 463.13 244.045 463.701 243.661 464.181C243.288 464.661 242.797 464.97 242.189 465.109V465.189C242.882 465.36 243.432 465.696 243.837 466.197C244.242 466.698 244.445 467.354 244.445 468.165C244.445 468.773 244.306 469.322 244.029 469.813C243.752 470.293 243.336 470.672 242.781 470.949C242.226 471.226 241.56 471.365 240.781 471.365C239.65 471.365 238.722 471.072 237.997 470.485C237.272 469.888 236.866 469.045 236.781 467.957H238.189C238.264 468.597 238.525 469.12 238.973 469.525C239.421 469.93 240.018 470.133 240.765 470.133C241.512 470.133 242.077 469.941 242.461 469.557C242.856 469.162 243.053 468.656 243.053 468.037C243.053 467.237 242.786 466.661 242.253 466.309C241.72 465.957 240.914 465.781 239.837 465.781H239.469V464.565H239.853C240.834 464.554 241.576 464.394 242.077 464.085C242.578 463.765 242.829 463.274 242.829 462.613C242.829 462.048 242.642 461.594 242.269 461.253C241.906 460.912 241.384 460.741 240.701 460.741C240.04 460.741 239.506 460.912 239.101 461.253C238.696 461.594 238.456 462.053 238.381 462.629H236.957Z" fill="#BAB5B5"/>
<path d="M310.505 459.848C311.721 459.848 312.771 460.077 313.657 460.536C314.553 460.984 315.235 461.629 315.705 462.472C316.185 463.315 316.425 464.307 316.425 465.448C316.425 466.589 316.185 467.581 315.705 468.424C315.235 469.256 314.553 469.896 313.657 470.344C312.771 470.781 311.721 471 310.505 471H307.033V459.848H310.505ZM310.505 469.8C311.945 469.8 313.043 469.421 313.801 468.664C314.558 467.896 314.937 466.824 314.937 465.448C314.937 464.061 314.553 462.979 313.785 462.2C313.027 461.421 311.934 461.032 310.505 461.032H308.489V469.8H310.505ZM326.345 466.28C326.345 466.557 326.329 466.851 326.297 467.16H319.289C319.342 468.024 319.636 468.701 320.169 469.192C320.713 469.672 321.369 469.912 322.137 469.912C322.766 469.912 323.289 469.768 323.705 469.48C324.132 469.181 324.43 468.787 324.601 468.296H326.169C325.934 469.139 325.465 469.827 324.761 470.36C324.057 470.883 323.182 471.144 322.137 471.144C321.305 471.144 320.558 470.957 319.897 470.584C319.246 470.211 318.734 469.683 318.361 469C317.988 468.307 317.801 467.507 317.801 466.6C317.801 465.693 317.982 464.899 318.345 464.216C318.708 463.533 319.214 463.011 319.865 462.648C320.526 462.275 321.284 462.088 322.137 462.088C322.969 462.088 323.705 462.269 324.345 462.632C324.985 462.995 325.476 463.496 325.817 464.136C326.169 464.765 326.345 465.48 326.345 466.28ZM324.841 465.976C324.841 465.421 324.718 464.947 324.473 464.552C324.228 464.147 323.892 463.843 323.465 463.64C323.049 463.427 322.585 463.32 322.073 463.32C321.337 463.32 320.708 463.555 320.185 464.024C319.673 464.493 319.38 465.144 319.305 465.976H324.841ZM327.723 466.6C327.723 465.693 327.904 464.904 328.267 464.232C328.63 463.549 329.131 463.021 329.771 462.648C330.422 462.275 331.163 462.088 331.995 462.088C333.072 462.088 333.958 462.349 334.651 462.872C335.355 463.395 335.819 464.12 336.043 465.048H334.475C334.326 464.515 334.032 464.093 333.595 463.784C333.168 463.475 332.635 463.32 331.995 463.32C331.163 463.32 330.491 463.608 329.979 464.184C329.467 464.749 329.211 465.555 329.211 466.6C329.211 467.656 329.467 468.472 329.979 469.048C330.491 469.624 331.163 469.912 331.995 469.912C332.635 469.912 333.168 469.763 333.595 469.464C334.022 469.165 334.315 468.739 334.475 468.184H336.043C335.808 469.08 335.339 469.8 334.635 470.344C333.931 470.877 333.051 471.144 331.995 471.144C331.163 471.144 330.422 470.957 329.771 470.584C329.131 470.211 328.63 469.683 328.267 469C327.904 468.317 327.723 467.517 327.723 466.6ZM338.21 459.848H339.826L338.29 463.48H337.266L338.21 459.848ZM349.601 469.832C350.956 468.744 352.017 467.853 352.785 467.16C353.553 466.456 354.198 465.725 354.721 464.968C355.254 464.2 355.521 463.448 355.521 462.712C355.521 462.019 355.35 461.475 355.009 461.08C354.678 460.675 354.14 460.472 353.393 460.472C352.668 460.472 352.102 460.701 351.697 461.16C351.302 461.608 351.089 462.211 351.057 462.968H349.649C349.692 461.773 350.054 460.851 350.737 460.2C351.42 459.549 352.3 459.224 353.377 459.224C354.476 459.224 355.345 459.528 355.985 460.136C356.636 460.744 356.961 461.581 356.961 462.648C356.961 463.533 356.694 464.397 356.161 465.24C355.638 466.072 355.041 466.808 354.369 467.448C353.697 468.077 352.838 468.813 351.793 469.656H357.297V470.872H349.601V469.832ZM358.948 462.344C359.023 461.363 359.401 460.595 360.084 460.04C360.767 459.485 361.652 459.208 362.74 459.208C363.465 459.208 364.089 459.341 364.612 459.608C365.145 459.864 365.545 460.216 365.812 460.664C366.089 461.112 366.228 461.619 366.228 462.184C366.228 462.845 366.036 463.416 365.652 463.896C365.279 464.376 364.788 464.685 364.18 464.824V464.904C364.873 465.075 365.423 465.411 365.828 465.912C366.233 466.413 366.436 467.069 366.436 467.88C366.436 468.488 366.297 469.037 366.02 469.528C365.743 470.008 365.327 470.387 364.772 470.664C364.217 470.941 363.551 471.08 362.772 471.08C361.641 471.08 360.713 470.787 359.988 470.2C359.263 469.603 358.857 468.76 358.772 467.672H360.18C360.255 468.312 360.516 468.835 360.964 469.24C361.412 469.645 362.009 469.848 362.756 469.848C363.503 469.848 364.068 469.656 364.452 469.272C364.847 468.877 365.044 468.371 365.044 467.752C365.044 466.952 364.777 466.376 364.244 466.024C363.711 465.672 362.905 465.496 361.828 465.496H361.46V464.28H361.844C362.825 464.269 363.567 464.109 364.068 463.8C364.569 463.48 364.82 462.989 364.82 462.328C364.82 461.763 364.633 461.309 364.26 460.968C363.897 460.627 363.375 460.456 362.692 460.456C362.031 460.456 361.497 460.627 361.092 460.968C360.687 461.309 360.447 461.768 360.372 462.344H358.948Z" fill="#BAB5B5"/>
<path d="M421.848 460.848V469.088C421.848 470.005 421.565 470.741 421 471.296C420.435 471.84 419.688 472.112 418.76 472.112C417.821 472.112 417.069 471.835 416.504 471.28C415.939 470.715 415.656 469.947 415.656 468.976H417.112C417.123 469.52 417.261 469.963 417.528 470.304C417.805 470.645 418.216 470.816 418.76 470.816C419.304 470.816 419.709 470.656 419.976 470.336C420.243 470.005 420.376 469.589 420.376 469.088V460.848H421.848ZM424.172 467.584C424.172 466.688 424.354 465.904 424.716 465.232C425.079 464.549 425.575 464.021 426.204 463.648C426.844 463.275 427.554 463.088 428.332 463.088C429.1 463.088 429.767 463.253 430.332 463.584C430.898 463.915 431.319 464.331 431.596 464.832V463.232H433.068V472H431.596V470.368C431.308 470.88 430.876 471.307 430.3 471.648C429.735 471.979 429.074 472.144 428.316 472.144C427.538 472.144 426.834 471.952 426.204 471.568C425.575 471.184 425.079 470.645 424.716 469.952C424.354 469.259 424.172 468.469 424.172 467.584ZM431.596 467.6C431.596 466.939 431.463 466.363 431.196 465.872C430.93 465.381 430.567 465.008 430.108 464.752C429.66 464.485 429.164 464.352 428.62 464.352C428.076 464.352 427.58 464.48 427.132 464.736C426.684 464.992 426.327 465.365 426.06 465.856C425.794 466.347 425.66 466.923 425.66 467.584C425.66 468.256 425.794 468.843 426.06 469.344C426.327 469.835 426.684 470.213 427.132 470.48C427.58 470.736 428.076 470.864 428.62 470.864C429.164 470.864 429.66 470.736 430.108 470.48C430.567 470.213 430.93 469.835 431.196 469.344C431.463 468.843 431.596 468.261 431.596 467.6ZM439.801 463.072C440.868 463.072 441.732 463.397 442.393 464.048C443.054 464.688 443.385 465.616 443.385 466.832V472H441.945V467.04C441.945 466.165 441.726 465.499 441.289 465.04C440.852 464.571 440.254 464.336 439.497 464.336C438.729 464.336 438.116 464.576 437.657 465.056C437.209 465.536 436.985 466.235 436.985 467.152V472H435.529V463.232H436.985V464.48C437.273 464.032 437.662 463.685 438.153 463.44C438.654 463.195 439.204 463.072 439.801 463.072ZM445.987 460.848H447.603L446.067 464.48H445.043L445.987 460.848ZM457.379 470.832C458.733 469.744 459.795 468.853 460.562 468.16C461.331 467.456 461.976 466.725 462.499 465.968C463.032 465.2 463.299 464.448 463.299 463.712C463.299 463.019 463.128 462.475 462.787 462.08C462.456 461.675 461.917 461.472 461.171 461.472C460.445 461.472 459.88 461.701 459.475 462.16C459.08 462.608 458.867 463.211 458.835 463.968H457.427C457.469 462.773 457.832 461.851 458.515 461.2C459.197 460.549 460.077 460.224 461.155 460.224C462.253 460.224 463.123 460.528 463.763 461.136C464.413 461.744 464.739 462.581 464.739 463.648C464.739 464.533 464.472 465.397 463.939 466.24C463.416 467.072 462.819 467.808 462.147 468.448C461.475 469.077 460.616 469.813 459.571 470.656H465.075V471.872H457.379V470.832ZM466.406 469.424V468.32L472.022 460.544H473.766V468.16H475.366V469.424H473.766V472H472.326V469.424H466.406ZM472.39 462.064L468.086 468.16H472.39V462.064Z" fill="#BAB5B5"/>
<path d="M558.536 459.848V461.032H553.688V464.792H557.624V465.976H553.688V471H552.232V459.848H558.536ZM568.295 466.28C568.295 466.557 568.279 466.851 568.247 467.16H561.239C561.292 468.024 561.585 468.701 562.119 469.192C562.663 469.672 563.319 469.912 564.087 469.912C564.716 469.912 565.239 469.768 565.655 469.48C566.081 469.181 566.38 468.787 566.551 468.296H568.119C567.884 469.139 567.415 469.827 566.711 470.36C566.007 470.883 565.132 471.144 564.087 471.144C563.255 471.144 562.508 470.957 561.847 470.584C561.196 470.211 560.684 469.683 560.311 469C559.937 468.307 559.751 467.507 559.751 466.6C559.751 465.693 559.932 464.899 560.295 464.216C560.657 463.533 561.164 463.011 561.815 462.648C562.476 462.275 563.233 462.088 564.087 462.088C564.919 462.088 565.655 462.269 566.295 462.632C566.935 462.995 567.425 463.496 567.767 464.136C568.119 464.765 568.295 465.48 568.295 466.28ZM566.791 465.976C566.791 465.421 566.668 464.947 566.423 464.552C566.177 464.147 565.841 463.843 565.415 463.64C564.999 463.427 564.535 463.32 564.023 463.32C563.287 463.32 562.657 463.555 562.135 464.024C561.623 464.493 561.329 465.144 561.255 465.976H566.791ZM571.672 463.864C571.971 463.341 572.408 462.915 572.984 462.584C573.56 462.253 574.216 462.088 574.952 462.088C575.742 462.088 576.451 462.275 577.08 462.648C577.71 463.021 578.206 463.549 578.568 464.232C578.931 464.904 579.112 465.688 579.112 466.584C579.112 467.469 578.931 468.259 578.568 468.952C578.206 469.645 577.704 470.184 577.064 470.568C576.435 470.952 575.731 471.144 574.952 471.144C574.195 471.144 573.528 470.979 572.952 470.648C572.387 470.317 571.96 469.896 571.672 469.384V471H570.216V459.16H571.672V463.864ZM577.624 466.584C577.624 465.923 577.491 465.347 577.224 464.856C576.958 464.365 576.595 463.992 576.136 463.736C575.688 463.48 575.192 463.352 574.648 463.352C574.115 463.352 573.619 463.485 573.16 463.752C572.712 464.008 572.35 464.387 572.072 464.888C571.806 465.379 571.672 465.949 571.672 466.6C571.672 467.261 571.806 467.843 572.072 468.344C572.35 468.835 572.712 469.213 573.16 469.48C573.619 469.736 574.115 469.864 574.648 469.864C575.192 469.864 575.688 469.736 576.136 469.48C576.595 469.213 576.958 468.835 577.224 468.344C577.491 467.843 577.624 467.256 577.624 466.584ZM581.253 459.848H582.869L581.333 463.48H580.309L581.253 459.848ZM592.644 469.832C593.999 468.744 595.06 467.853 595.828 467.16C596.596 466.456 597.241 465.725 597.764 464.968C598.297 464.2 598.564 463.448 598.564 462.712C598.564 462.019 598.393 461.475 598.052 461.08C597.721 460.675 597.183 460.472 596.436 460.472C595.711 460.472 595.145 460.701 594.74 461.16C594.345 461.608 594.132 462.211 594.1 462.968H592.692C592.735 461.773 593.097 460.851 593.78 460.2C594.463 459.549 595.343 459.224 596.42 459.224C597.519 459.224 598.388 459.528 599.028 460.136C599.679 460.744 600.004 461.581 600.004 462.648C600.004 463.533 599.737 464.397 599.204 465.24C598.681 466.072 598.084 466.808 597.412 467.448C596.74 468.077 595.881 468.813 594.836 469.656H600.34V470.872H592.644V469.832ZM601.671 468.424V467.32L607.287 459.544H609.031V467.16H610.631V468.424H609.031V471H607.591V468.424H601.671ZM607.655 461.064L603.351 467.16H607.655V461.064Z" fill="#BAB5B5"/>
<path d="M175.946 204H171.396L153.096 176.25V204H148.546V169.1H153.096L171.396 196.8V169.1H175.946V204ZM195.652 204.45C193.086 204.45 190.752 203.867 188.652 202.7C186.586 201.533 184.952 199.883 183.752 197.75C182.586 195.583 182.002 193.083 182.002 190.25C182.002 187.45 182.602 184.983 183.802 182.85C185.036 180.683 186.702 179.033 188.802 177.9C190.902 176.733 193.252 176.15 195.852 176.15C198.452 176.15 200.802 176.733 202.902 177.9C205.002 179.033 206.652 180.667 207.852 182.8C209.086 184.933 209.702 187.417 209.702 190.25C209.702 193.083 209.069 195.583 207.802 197.75C206.569 199.883 204.886 201.533 202.752 202.7C200.619 203.867 198.252 204.45 195.652 204.45ZM195.652 200.45C197.286 200.45 198.819 200.067 200.252 199.3C201.686 198.533 202.836 197.383 203.702 195.85C204.602 194.317 205.052 192.45 205.052 190.25C205.052 188.05 204.619 186.183 203.752 184.65C202.886 183.117 201.752 181.983 200.352 181.25C198.952 180.483 197.436 180.1 195.802 180.1C194.136 180.1 192.602 180.483 191.202 181.25C189.836 181.983 188.736 183.117 187.902 184.65C187.069 186.183 186.652 188.05 186.652 190.25C186.652 192.483 187.052 194.367 187.852 195.9C188.686 197.433 189.786 198.583 191.152 199.35C192.519 200.083 194.019 200.45 195.652 200.45ZM239.865 169.15C243.665 169.15 246.948 169.867 249.715 171.3C252.515 172.7 254.648 174.717 256.115 177.35C257.615 179.983 258.365 183.083 258.365 186.65C258.365 190.217 257.615 193.317 256.115 195.95C254.648 198.55 252.515 200.55 249.715 201.95C246.948 203.317 243.665 204 239.865 204H229.015V169.15H239.865ZM239.865 200.25C244.365 200.25 247.798 199.067 250.165 196.7C252.531 194.3 253.715 190.95 253.715 186.65C253.715 182.317 252.515 178.933 250.115 176.5C247.748 174.067 244.331 172.85 239.865 172.85H233.565V200.25H239.865ZM262.666 190.2C262.666 187.4 263.233 184.95 264.366 182.85C265.5 180.717 267.05 179.067 269.016 177.9C271.016 176.733 273.233 176.15 275.666 176.15C278.066 176.15 280.15 176.667 281.916 177.7C283.683 178.733 285 180.033 285.866 181.6V176.6H290.466V204H285.866V198.9C284.966 200.5 283.616 201.833 281.816 202.9C280.05 203.933 277.983 204.45 275.616 204.45C273.183 204.45 270.983 203.85 269.016 202.65C267.05 201.45 265.5 199.767 264.366 197.6C263.233 195.433 262.666 192.967 262.666 190.2ZM285.866 190.25C285.866 188.183 285.45 186.383 284.616 184.85C283.783 183.317 282.65 182.15 281.216 181.35C279.816 180.517 278.266 180.1 276.566 180.1C274.866 180.1 273.316 180.5 271.916 181.3C270.516 182.1 269.4 183.267 268.566 184.8C267.733 186.333 267.316 188.133 267.316 190.2C267.316 192.3 267.733 194.133 268.566 195.7C269.4 197.233 270.516 198.417 271.916 199.25C273.316 200.05 274.866 200.45 276.566 200.45C278.266 200.45 279.816 200.05 281.216 199.25C282.65 198.417 283.783 197.233 284.616 195.7C285.45 194.133 285.866 192.317 285.866 190.25ZM303.705 180.35V196.5C303.705 197.833 303.989 198.783 304.555 199.35C305.122 199.883 306.105 200.15 307.505 200.15H310.855V204H306.755C304.222 204 302.322 203.417 301.055 202.25C299.789 201.083 299.155 199.167 299.155 196.5V180.35H295.605V176.6H299.155V169.7H303.705V176.6H310.855V180.35H303.705ZM314.668 190.2C314.668 187.4 315.235 184.95 316.368 182.85C317.502 180.717 319.052 179.067 321.018 177.9C323.018 176.733 325.235 176.15 327.668 176.15C330.068 176.15 332.152 176.667 333.918 177.7C335.685 178.733 337.002 180.033 337.868 181.6V176.6H342.468V204H337.868V198.9C336.968 200.5 335.618 201.833 333.818 202.9C332.052 203.933 329.985 204.45 327.618 204.45C325.185 204.45 322.985 203.85 321.018 202.65C319.052 201.45 317.502 199.767 316.368 197.6C315.235 195.433 314.668 192.967 314.668 190.2ZM337.868 190.25C337.868 188.183 337.452 186.383 336.618 184.85C335.785 183.317 334.652 182.15 333.218 181.35C331.818 180.517 330.268 180.1 328.568 180.1C326.868 180.1 325.318 180.5 323.918 181.3C322.518 182.1 321.402 183.267 320.568 184.8C319.735 186.333 319.318 188.133 319.318 190.2C319.318 192.3 319.735 194.133 320.568 195.7C321.402 197.233 322.518 198.417 323.918 199.25C325.318 200.05 326.868 200.45 328.568 200.45C330.268 200.45 331.818 200.05 333.218 199.25C334.652 198.417 335.785 197.233 336.618 195.7C337.452 194.133 337.868 192.317 337.868 190.25ZM383.187 169.15V172.85H368.037V184.6H380.337V188.3H368.037V204H363.487V169.15H383.187ZM400.633 204.45C398.066 204.45 395.733 203.867 393.633 202.7C391.566 201.533 389.933 199.883 388.733 197.75C387.566 195.583 386.983 193.083 386.983 190.25C386.983 187.45 387.583 184.983 388.783 182.85C390.016 180.683 391.683 179.033 393.783 177.9C395.883 176.733 398.233 176.15 400.833 176.15C403.433 176.15 405.783 176.733 407.883 177.9C409.983 179.033 411.633 180.667 412.833 182.8C414.066 184.933 414.683 187.417 414.683 190.25C414.683 193.083 414.049 195.583 412.783 197.75C411.549 199.883 409.866 201.533 407.733 202.7C405.599 203.867 403.233 204.45 400.633 204.45ZM400.633 200.45C402.266 200.45 403.799 200.067 405.233 199.3C406.666 198.533 407.816 197.383 408.683 195.85C409.583 194.317 410.033 192.45 410.033 190.25C410.033 188.05 409.599 186.183 408.733 184.65C407.866 183.117 406.733 181.983 405.333 181.25C403.933 180.483 402.416 180.1 400.783 180.1C399.116 180.1 397.583 180.483 396.183 181.25C394.816 181.983 393.716 183.117 392.883 184.65C392.049 186.183 391.633 188.05 391.633 190.25C391.633 192.483 392.033 194.367 392.833 195.9C393.666 197.433 394.766 198.583 396.133 199.35C397.499 200.083 398.999 200.45 400.633 200.45ZM444.965 176.6V204H440.415V199.95C439.548 201.35 438.332 202.45 436.765 203.25C435.232 204.017 433.532 204.4 431.665 204.4C429.532 204.4 427.615 203.967 425.915 203.1C424.215 202.2 422.865 200.867 421.865 199.1C420.898 197.333 420.415 195.183 420.415 192.65V176.6H424.915V192.05C424.915 194.75 425.598 196.833 426.965 198.3C428.332 199.733 430.198 200.45 432.565 200.45C434.998 200.45 436.915 199.7 438.315 198.2C439.715 196.7 440.415 194.517 440.415 191.65V176.6H444.965ZM465.997 176.1C469.331 176.1 472.031 177.117 474.097 179.15C476.164 181.15 477.197 184.05 477.197 187.85V204H472.697V188.5C472.697 185.767 472.014 183.683 470.647 182.25C469.281 180.783 467.414 180.05 465.047 180.05C462.647 180.05 460.731 180.8 459.297 182.3C457.897 183.8 457.197 185.983 457.197 188.85V204H452.647V176.6H457.197V180.5C458.097 179.1 459.314 178.017 460.847 177.25C462.414 176.483 464.131 176.1 465.997 176.1ZM482.93 190.2C482.93 187.4 483.497 184.95 484.63 182.85C485.763 180.717 487.313 179.067 489.28 177.9C491.28 176.733 493.513 176.15 495.98 176.15C498.113 176.15 500.097 176.65 501.93 177.65C503.763 178.617 505.163 179.9 506.13 181.5V167H510.73V204H506.13V198.85C505.23 200.483 503.897 201.833 502.13 202.9C500.363 203.933 498.297 204.45 495.93 204.45C493.497 204.45 491.28 203.85 489.28 202.65C487.313 201.45 485.763 199.767 484.63 197.6C483.497 195.433 482.93 192.967 482.93 190.2ZM506.13 190.25C506.13 188.183 505.713 186.383 504.88 184.85C504.047 183.317 502.913 182.15 501.48 181.35C500.08 180.517 498.53 180.1 496.83 180.1C495.13 180.1 493.58 180.5 492.18 181.3C490.78 182.1 489.663 183.267 488.83 184.8C487.997 186.333 487.58 188.133 487.58 190.2C487.58 192.3 487.997 194.133 488.83 195.7C489.663 197.233 490.78 198.417 492.18 199.25C493.58 200.05 495.13 200.45 496.83 200.45C498.53 200.45 500.08 200.05 501.48 199.25C502.913 198.417 504.047 197.233 504.88 195.7C505.713 194.133 506.13 192.317 506.13 190.25Z" fill="#BAB5B5"/>
<path d="M349.367 500.467V512.977H347.315V504.409L343.499 512.977H342.077L338.243 504.409V512.977H336.191V500.467H338.405L342.797 510.277L347.171 500.467H349.367ZM356.367 513.139C355.431 513.139 354.585 512.929 353.829 512.509C353.073 512.077 352.479 511.477 352.047 510.709C351.615 509.929 351.399 509.029 351.399 508.009C351.399 507.001 351.621 506.107 352.065 505.327C352.509 504.547 353.115 503.947 353.883 503.527C354.651 503.107 355.509 502.897 356.457 502.897C357.405 502.897 358.263 503.107 359.031 503.527C359.799 503.947 360.405 504.547 360.849 505.327C361.293 506.107 361.515 507.001 361.515 508.009C361.515 509.017 361.287 509.911 360.831 510.691C360.375 511.471 359.751 512.077 358.959 512.509C358.179 512.929 357.315 513.139 356.367 513.139ZM356.367 511.357C356.895 511.357 357.387 511.231 357.843 510.979C358.311 510.727 358.689 510.349 358.977 509.845C359.265 509.341 359.409 508.729 359.409 508.009C359.409 507.289 359.271 506.683 358.995 506.191C358.719 505.687 358.353 505.309 357.897 505.057C357.441 504.805 356.949 504.679 356.421 504.679C355.893 504.679 355.401 504.805 354.945 505.057C354.501 505.309 354.147 505.687 353.883 506.191C353.619 506.683 353.487 507.289 353.487 508.009C353.487 509.077 353.757 509.905 354.297 510.493C354.849 511.069 355.539 511.357 356.367 511.357ZM368.547 502.897C369.327 502.897 370.023 503.059 370.635 503.383C371.259 503.707 371.745 504.187 372.093 504.823C372.441 505.459 372.615 506.227 372.615 507.127V512.977H370.581V507.433C370.581 506.545 370.359 505.867 369.915 505.399C369.471 504.919 368.865 504.679 368.097 504.679C367.329 504.679 366.717 504.919 366.261 505.399C365.817 505.867 365.595 506.545 365.595 507.433V512.977H363.543V503.059H365.595V504.193C365.931 503.785 366.357 503.467 366.873 503.239C367.401 503.011 367.959 502.897 368.547 502.897ZM377.626 504.733V510.223C377.626 510.595 377.71 510.865 377.878 511.033C378.058 511.189 378.358 511.267 378.778 511.267H380.038V512.977H378.418C377.494 512.977 376.786 512.761 376.294 512.329C375.802 511.897 375.556 511.195 375.556 510.223V504.733H374.386V503.059H375.556V500.593H377.626V503.059H380.038V504.733H377.626ZM387.06 502.897C387.816 502.897 388.488 503.059 389.076 503.383C389.676 503.707 390.144 504.187 390.48 504.823C390.828 505.459 391.002 506.227 391.002 507.127V512.977H388.968V507.433C388.968 506.545 388.746 505.867 388.302 505.399C387.858 504.919 387.252 504.679 386.484 504.679C385.716 504.679 385.104 504.919 384.648 505.399C384.204 505.867 383.982 506.545 383.982 507.433V512.977H381.93V499.657H383.982V504.211C384.33 503.791 384.768 503.467 385.296 503.239C385.836 503.011 386.424 502.897 387.06 502.897Z" fill="#BAB5B5"/>
<path d="M18.9728 324.818L31.4822 324.701L31.5053 326.753L18.9958 326.87L18.9728 324.818ZM26.4558 322.738C25.4599 322.747 24.5756 322.552 23.803 322.151C23.0303 321.738 22.43 321.18 22.0021 320.476C21.562 319.76 21.337 318.964 21.3272 318.088C21.3199 317.44 21.4567 316.803 21.7377 316.176C22.0065 315.537 22.3728 315.03 22.8366 314.654L18.0488 314.698L18.0255 312.628L31.345 312.504L31.3682 314.574L29.8743 314.588C30.3581 314.919 30.7593 315.384 31.0781 315.981C31.3967 316.566 31.5603 317.242 31.5689 318.01C31.5786 318.874 31.3716 319.668 30.9477 320.392C30.5117 321.104 29.906 321.674 29.1308 322.101C28.3434 322.517 27.4518 322.729 26.4558 322.738ZM26.4005 314.62C25.7165 314.627 25.1241 314.776 24.6234 315.069C24.1225 315.35 23.7427 315.719 23.4838 316.178C23.2249 316.636 23.0985 317.129 23.1044 317.657C23.1104 318.185 23.2479 318.676 23.517 319.129C23.7741 319.583 24.1563 319.952 24.6635 320.235C25.1586 320.506 25.7481 320.639 26.4321 320.632C27.1161 320.626 27.7145 320.482 28.2274 320.202C28.7401 319.909 29.1319 319.533 29.4028 319.075C29.6615 318.604 29.7879 318.111 29.7821 317.595C29.7762 317.067 29.6387 316.576 29.3696 316.123C29.1004 315.669 28.7123 315.307 28.2052 315.036C27.686 314.752 27.0844 314.614 26.4005 314.62ZM17.9721 307.881L31.2915 307.757L31.3146 309.809L17.9952 309.933L17.9721 307.881ZM20.018 304.124C20.0221 304.496 19.8997 304.809 19.6505 305.064C19.4014 305.318 19.0908 305.447 18.7188 305.45C18.3468 305.454 18.0334 305.331 17.7786 305.081C17.5238 304.831 17.3943 304.521 17.3901 304.149C17.386 303.789 17.5086 303.482 17.7577 303.227C18.0069 302.973 18.3175 302.844 18.6894 302.84C19.0614 302.837 19.3748 302.96 19.6296 303.21C19.8845 303.459 20.0139 303.764 20.018 304.124ZM21.3206 303.104L31.2381 303.011L31.2612 305.063L21.3437 305.156L21.3206 303.104ZM21.0719 295.408C21.0632 294.628 21.2173 293.93 21.5344 293.315C21.8514 292.688 22.3259 292.198 22.958 291.844C23.59 291.49 24.356 291.309 25.256 291.301L31.1057 291.246L31.1286 293.28L25.5849 293.332C24.6969 293.34 24.0214 293.568 23.5584 294.017C23.0835 294.465 22.8503 295.073 22.8589 295.841C22.8676 296.609 23.1145 297.219 23.5996 297.67C24.0725 298.11 24.753 298.326 25.641 298.317L31.1847 298.266L31.2078 300.318L21.2902 300.41L21.2672 298.358L22.4011 298.348C21.9893 298.015 21.6666 297.592 21.4328 297.079C21.1988 296.553 21.0786 295.996 21.0719 295.408ZM20.9518 284.727C20.9431 283.959 21.0915 283.28 21.3968 282.689C21.6901 282.086 22.0628 281.615 22.515 281.274L21.0751 281.288L21.0518 279.218L31.1313 279.124C32.0433 279.115 32.8554 279.3 33.5677 279.677C34.292 280.054 34.8623 280.607 35.2785 281.335C35.6946 282.051 35.9083 282.913 35.9196 283.921C35.9347 285.265 35.6293 286.384 35.0033 287.278C34.3893 288.172 33.5431 288.684 32.4645 288.814L32.4416 286.78C32.9558 286.619 33.3661 286.285 33.6724 285.778C33.9906 285.259 34.1457 284.646 34.1377 283.938C34.1284 283.11 33.8689 282.446 33.3592 281.947C32.8495 281.436 32.1146 281.185 31.1546 281.194L29.4987 281.209C29.9706 281.553 30.3719 282.023 30.7026 282.62C31.0213 283.205 31.1848 283.876 31.1933 284.632C31.203 285.495 30.996 286.289 30.5721 287.013C30.1361 287.726 29.5304 288.295 28.7552 288.722C27.9678 289.138 27.0762 289.35 26.0802 289.359C25.0842 289.369 24.2 289.173 23.4274 288.772C22.6547 288.359 22.0544 287.801 21.6265 287.097C21.1864 286.381 20.9615 285.591 20.9518 284.727ZM26.0248 281.242C25.3409 281.248 24.7485 281.398 24.2478 281.69C23.7469 281.971 23.3671 282.34 23.1082 282.799C22.8493 283.257 22.7229 283.751 22.7288 284.278C22.7348 284.806 22.8723 285.297 23.1414 285.751C23.3985 286.204 23.7807 286.573 24.2879 286.856C24.783 287.127 25.3725 287.26 26.0565 287.254C26.7405 287.247 27.3389 287.104 27.8518 286.823C28.3645 286.53 28.7563 286.154 29.0272 285.696C29.2859 285.225 29.4123 284.732 29.4065 284.216C29.4006 283.688 29.2631 283.197 28.9939 282.744C28.7248 282.29 28.3367 281.928 27.8296 281.657C27.3104 281.374 26.7088 281.235 26.0248 281.242ZM18.331 267.786C18.316 266.454 18.5609 265.288 19.0656 264.287C19.5583 263.274 20.2815 262.493 21.2354 261.944C22.1772 261.384 23.284 261.097 24.556 261.085C25.8279 261.074 26.935 261.339 27.8771 261.883C28.8192 262.414 29.5478 263.181 30.0632 264.184C30.5663 265.176 30.8254 266.337 30.8404 267.669L30.8864 271.755L18.3769 271.872L18.331 267.786ZM29.1665 267.685C29.15 266.221 28.7414 265.103 27.9407 264.33C27.1399 263.557 26.0196 263.178 24.5797 263.191C23.1277 263.205 21.9982 263.605 21.191 264.393C20.3838 265.181 19.9884 266.306 20.0049 267.77L20.0278 269.804L29.1894 269.719L29.1665 267.685ZM20.7242 250.105L30.6417 250.013L30.6648 252.064L29.4949 252.075C29.9065 252.395 30.2353 252.818 30.4812 253.344C30.715 253.858 30.8352 254.409 30.8418 254.997C30.8506 255.777 30.6965 256.48 30.3795 257.107C30.0624 257.722 29.5879 258.213 28.956 258.579C28.324 258.933 27.558 259.114 26.658 259.122L20.8262 259.176L20.8034 257.143L26.3291 257.091C27.2171 257.083 27.8986 256.854 28.3735 256.406C28.8365 255.958 29.0637 255.349 29.055 254.582C29.0464 253.814 28.8056 253.21 28.3326 252.77C27.8475 252.319 27.161 252.097 26.273 252.105L20.7473 252.157L20.7242 250.105ZM22.1105 245.332C21.6032 245.037 21.2088 244.645 20.9272 244.155C20.6336 243.654 20.4829 243.062 20.4752 242.378L22.5991 242.358L22.605 242.88C22.614 243.684 22.8249 244.294 23.2376 244.71C23.6502 245.114 24.3604 245.311 25.3684 245.302L30.5882 245.253L30.6113 247.305L20.6937 247.398L20.6706 245.346L22.1105 245.332ZM25.5374 241.128C24.5415 241.137 23.6572 240.942 22.8847 240.541C22.112 240.128 21.5117 239.57 21.0837 238.866C20.6436 238.15 20.4187 237.36 20.409 236.496C20.4002 235.716 20.5486 235.036 20.8541 234.458C21.1475 233.867 21.5202 233.395 21.9723 233.043L20.5323 233.056L20.509 230.987L30.4266 230.894L30.4499 232.964L28.9739 232.978C29.4458 233.321 29.8412 233.792 30.1599 234.389C30.4786 234.986 30.6423 235.668 30.651 236.436C30.6606 237.288 30.4533 238.07 30.0293 238.782C29.5933 239.494 28.9877 240.064 28.2124 240.491C27.4251 240.906 26.5334 241.119 25.5374 241.128ZM25.4821 233.01C24.7981 233.017 24.2058 233.166 23.705 233.459C23.2042 233.74 22.8243 234.109 22.5654 234.568C22.3066 235.026 22.1801 235.519 22.1861 236.047C22.192 236.575 22.3295 237.066 22.5987 237.519C22.8558 237.973 23.2379 238.341 23.7452 238.625C24.2403 238.896 24.8298 239.029 25.5137 239.022C26.1977 239.016 26.7961 238.872 27.309 238.591C27.8217 238.299 28.2135 237.923 28.4844 237.464C28.7431 236.994 28.8696 236.501 28.8638 235.985C28.8578 235.457 28.7203 234.966 28.4512 234.513C28.1821 234.059 27.794 233.697 27.2869 233.425C26.7677 233.142 26.1661 233.004 25.4821 233.01ZM22.1257 225.882L27.6154 225.831C27.9874 225.827 28.2565 225.741 28.4226 225.571C28.5765 225.39 28.6512 225.089 28.6464 224.669L28.6323 223.409L30.3422 223.393L30.3604 225.013C30.3708 225.937 30.1628 226.647 29.7363 227.143C29.3099 227.639 28.6107 227.892 27.6387 227.901L22.149 227.952L22.1621 229.122L20.4882 229.137L20.475 227.968L18.0092 227.991L17.9859 225.921L20.4518 225.898L20.4246 223.486L22.0985 223.47L22.1257 225.882ZM19.0776 220.563C19.0818 220.935 18.9593 221.248 18.7102 221.502C18.461 221.757 18.1505 221.886 17.7785 221.889C17.4065 221.893 17.0931 221.77 16.8383 221.52C16.5834 221.27 16.4539 220.96 16.4498 220.588C16.4457 220.228 16.5683 219.92 16.8174 219.666C17.0666 219.412 17.3771 219.283 17.7491 219.279C18.1211 219.276 18.4345 219.399 18.6893 219.649C18.9442 219.898 19.0736 220.203 19.0776 220.563ZM20.3802 219.543L30.2978 219.45L30.3209 221.502L20.4033 221.595L20.3802 219.543ZM30.3811 212.453C30.3916 213.389 30.1911 214.237 29.7797 214.997C29.3562 215.757 28.7629 216.356 27.9998 216.796C27.2247 217.235 26.3272 217.459 25.3072 217.469C24.2993 217.478 23.4028 217.264 22.6178 216.828C21.8329 216.391 21.2261 215.791 20.7975 215.027C20.3688 214.263 20.1492 213.407 20.1385 212.459C20.1278 211.511 20.3282 210.651 20.7395 209.879C21.1509 209.107 21.744 208.496 22.519 208.044C23.294 207.593 24.1854 207.363 25.1934 207.353C26.2013 207.344 27.0979 207.564 27.883 208.012C28.6681 208.461 29.2811 209.079 29.7219 209.867C30.1507 210.643 30.3704 211.505 30.3811 212.453ZM28.5992 212.47C28.5932 211.942 28.4617 211.451 28.2046 210.997C27.9473 210.532 27.5651 210.157 27.0579 209.874C26.5506 209.591 25.937 209.452 25.2171 209.459C24.4971 209.466 23.8927 209.61 23.4038 209.89C22.9029 210.171 22.5291 210.54 22.2822 210.999C22.0354 211.457 21.9149 211.95 21.9208 212.478C21.9268 213.006 22.0583 213.497 22.3154 213.95C22.5724 214.392 22.9544 214.743 23.4613 215.002C23.9563 215.261 24.5637 215.388 25.2837 215.381C26.3517 215.371 27.1766 215.093 27.7585 214.548C28.3283 213.99 28.6085 213.298 28.5992 212.47ZM20.0025 200.369C19.9937 199.589 20.1479 198.892 20.465 198.277C20.7819 197.65 21.2564 197.159 21.8885 196.805C22.5205 196.451 23.2865 196.27 24.1865 196.262L30.0363 196.207L30.0591 198.241L24.5154 198.293C23.6274 198.301 22.9519 198.529 22.489 198.978C22.014 199.426 21.7808 200.034 21.7895 200.802C21.7981 201.57 22.045 202.18 22.5301 202.631C23.0031 203.071 23.6835 203.287 24.5715 203.278L30.1152 203.227L30.1383 205.279L20.2208 205.371L20.1977 203.319L21.3316 203.309C20.9199 202.976 20.5971 202.553 20.3633 202.04C20.1294 201.514 20.0091 200.957 20.0025 200.369ZM33.251 184.347C32.1363 185.534 30.7125 186.453 28.9798 187.105C27.2469 187.746 25.3845 188.075 23.3925 188.094C21.3526 188.113 19.4229 187.795 17.6035 187.14C15.7838 186.472 14.2786 185.484 13.0878 184.176L13.0639 182.052L13.2619 182.05C14.5494 183.418 16.085 184.442 17.8688 185.121C19.6525 185.8 21.4864 186.131 23.3703 186.114C25.1822 186.097 26.9305 185.756 28.6151 185.093C30.2997 184.429 31.7711 183.473 33.0291 182.225L33.2271 182.224L33.251 184.347ZM17.2326 170.183L29.7421 170.066L29.7652 172.118L24.2934 172.169L24.3596 178.055L29.8314 178.004L29.8545 180.056L17.345 180.172L17.322 178.12L22.6857 178.07L22.6195 172.185L17.2557 172.235L17.2326 170.183ZM29.8253 163.062C29.8358 163.998 29.6353 164.846 29.2239 165.605C28.8004 166.365 28.2071 166.965 27.444 167.404C26.6689 167.843 25.7714 168.068 24.7514 168.077C23.7434 168.087 22.847 167.873 22.062 167.436C21.2771 167 20.6703 166.399 20.2416 165.635C19.813 164.871 19.5934 164.015 19.5827 163.067C19.572 162.119 19.7724 161.259 20.1837 160.488C20.5951 159.716 21.1882 159.104 21.9632 158.653C22.7382 158.202 23.6296 157.971 24.6376 157.962C25.6455 157.953 26.5421 158.172 27.3272 158.621C28.1122 159.07 28.7252 159.688 29.1661 160.476C29.5949 161.252 29.8146 162.114 29.8253 163.062ZM28.0434 163.078C28.0374 162.55 27.9059 162.06 27.6488 161.606C27.3915 161.14 27.0093 160.766 26.5021 160.483C25.9948 160.199 25.3812 160.061 24.6613 160.068C23.9413 160.075 23.3369 160.218 22.848 160.499C22.3471 160.779 21.9733 161.149 21.7264 161.607C21.4796 162.066 21.3591 162.559 21.365 163.087C21.371 163.615 21.5025 164.105 21.7596 164.559C22.0166 165.001 22.3986 165.351 22.9055 165.61C23.4005 165.87 24.0079 165.996 24.7279 165.989C25.7959 165.979 26.6208 165.702 27.2027 165.156C27.7724 164.599 28.0527 163.906 28.0434 163.078ZM19.5639 146.998L29.4815 146.906L29.5046 148.958L28.3346 148.969C28.7462 149.289 29.075 149.712 29.3209 150.237C29.5547 150.751 29.6749 151.302 29.6816 151.89C29.6903 152.67 29.5362 153.374 29.2193 154.001C28.9022 154.615 28.4277 155.106 27.7957 155.472C27.1637 155.826 26.3977 156.007 25.4977 156.015L19.666 156.07L19.6431 154.036L25.1688 153.984C26.0568 153.976 26.7383 153.748 27.2133 153.299C27.6762 152.851 27.9034 152.243 27.8948 151.475C27.8861 150.707 27.6453 150.103 27.1724 149.663C26.6872 149.212 26.0007 148.99 25.1127 148.999L19.587 149.05L19.5639 146.998ZM20.9503 142.226C20.4429 141.93 20.0485 141.538 19.767 141.049C19.4733 140.547 19.3226 139.955 19.3149 139.271L21.4388 139.251L21.4447 139.773C21.4538 140.577 21.6646 141.187 22.0773 141.603C22.4899 142.007 23.2002 142.205 24.2081 142.195L29.4279 142.147L29.451 144.198L19.5334 144.291L19.5103 142.239L20.9503 142.226ZM29.4947 133.689C29.5035 134.469 29.3734 135.173 29.1045 135.799C28.8234 136.414 28.4448 136.903 27.9689 137.268C27.481 137.632 26.9372 137.829 26.3375 137.859L26.3136 135.735C26.7331 135.695 27.0849 135.494 27.3688 135.131C27.6406 134.757 27.7734 134.294 27.7672 133.742C27.7607 133.166 27.6478 132.723 27.4283 132.413C27.1966 132.091 26.9068 131.932 26.5588 131.935C26.1868 131.938 25.9129 132.121 25.7369 132.482C25.5609 132.832 25.3691 133.392 25.1618 134.162C24.9662 134.908 24.775 135.516 24.5883 135.985C24.4016 136.455 24.1122 136.866 23.7201 137.217C23.3279 137.557 22.8078 137.73 22.1598 137.736C21.6319 137.741 21.1501 137.589 20.7146 137.281C20.2671 136.974 19.9142 136.533 19.6557 135.959C19.3971 135.374 19.2635 134.703 19.255 133.947C19.2423 132.819 19.5201 131.91 20.0884 131.221C20.6445 130.52 21.4143 130.141 22.3977 130.083L22.4208 132.135C21.9772 132.175 21.6253 132.359 21.3649 132.685C21.1046 133.012 20.9775 133.451 20.9838 134.003C20.9898 134.543 21.0965 134.956 21.3037 135.242C21.5109 135.528 21.7826 135.669 22.1185 135.666C22.3825 135.664 22.6034 135.566 22.7813 135.372C22.9591 135.178 23.1005 134.943 23.2054 134.666C23.2982 134.389 23.4196 133.98 23.5696 133.439C23.7535 132.717 23.9448 132.127 24.1437 131.669C24.3304 131.2 24.6139 130.795 24.9941 130.455C25.3743 130.116 25.8823 129.937 26.5181 129.919C27.0821 129.914 27.5878 130.065 28.0353 130.373C28.4828 130.681 28.8358 131.121 29.0943 131.695C29.3526 132.257 29.4861 132.921 29.4947 133.689ZM32.6186 128.149L32.4206 128.151C31.1348 126.927 29.6422 125.999 27.943 125.366C26.2438 124.734 24.4882 124.427 22.6763 124.443C20.7924 124.461 18.9664 124.826 17.1983 125.539C15.4302 126.251 13.9179 127.303 12.6615 128.695L12.4635 128.697L12.4396 126.573C13.6007 125.242 15.0834 124.232 16.8878 123.543C18.692 122.843 20.6141 122.483 22.654 122.464C24.6459 122.445 26.5154 122.746 28.2625 123.365C30.0094 123.973 31.4535 124.86 32.5947 126.025L32.6186 128.149Z" fill="#BAB5B5"/>
<path d="M674.5 118.525L661.99 118.485L661.993 116.433L674.503 116.473L674.5 118.525ZM666.992 120.511C667.988 120.514 668.87 120.721 669.637 121.132C670.405 121.554 670.998 122.12 671.417 122.829C671.848 123.551 672.063 124.349 672.062 125.225C672.061 125.873 671.916 126.509 671.628 127.132C671.351 127.767 670.978 128.27 670.51 128.64L675.298 128.656L675.295 130.726L661.975 130.683L661.978 128.613L663.472 128.618C662.992 128.28 662.597 127.811 662.285 127.21C661.974 126.621 661.819 125.943 661.82 125.175C661.821 124.311 662.038 123.519 662.471 122.801C662.916 122.094 663.529 121.532 664.309 121.115C665.102 120.709 665.996 120.508 666.992 120.511ZM666.946 128.629C667.63 128.631 668.224 128.489 668.728 128.203C669.233 127.928 669.617 127.564 669.882 127.108C670.146 126.653 670.279 126.162 670.279 125.634C670.28 125.106 670.149 124.613 669.885 124.156C669.634 123.7 669.256 123.326 668.753 123.037C668.261 122.759 667.673 122.619 666.989 122.617C666.305 122.615 665.705 122.751 665.189 123.025C664.672 123.312 664.276 123.683 663.999 124.138C663.735 124.605 663.602 125.096 663.601 125.612C663.601 126.14 663.732 126.633 663.996 127.09C664.259 127.546 664.643 127.914 665.146 128.191C665.662 128.481 666.262 128.627 666.946 128.629ZM675.289 135.473L661.969 135.43L661.972 133.378L675.292 133.421L675.289 135.473ZM673.196 139.204C673.197 138.832 673.323 138.521 673.576 138.27C673.828 138.018 674.14 137.893 674.512 137.894C674.884 137.896 675.196 138.023 675.448 138.275C675.699 138.528 675.825 138.841 675.824 139.213C675.824 139.573 675.698 139.878 675.445 140.129C675.193 140.381 674.881 140.506 674.509 140.504C674.137 140.503 673.825 140.376 673.573 140.124C673.322 139.871 673.196 139.564 673.196 139.204ZM671.881 140.208L661.963 140.177L661.966 138.125L671.884 138.156L671.881 140.208ZM672.033 147.907C672.032 148.687 671.87 149.382 671.545 149.993C671.22 150.616 670.739 151.101 670.103 151.447C669.467 151.793 668.698 151.964 667.798 151.961L661.948 151.943L661.951 149.909L667.495 149.926C668.383 149.929 669.061 149.709 669.53 149.267C670.01 148.824 670.251 148.219 670.252 147.451C670.253 146.683 670.014 146.07 669.534 145.613C669.067 145.167 668.389 144.943 667.501 144.94L661.957 144.923L661.96 142.871L671.878 142.902L671.875 144.954L670.741 144.951C671.149 145.288 671.466 145.715 671.694 146.232C671.921 146.76 672.034 147.319 672.033 147.907ZM672.02 158.588C672.019 159.356 671.862 160.034 671.549 160.621C671.249 161.22 670.87 161.687 670.414 162.021L671.854 162.026L671.851 164.096L661.771 164.064C660.859 164.061 660.049 163.866 659.342 163.48C658.622 163.094 658.059 162.534 657.652 161.8C657.245 161.079 657.042 160.214 657.043 159.206C657.045 157.862 657.364 156.747 658.001 155.862C658.627 154.976 659.479 154.474 660.559 154.358L660.557 156.392C660.041 156.546 659.626 156.875 659.313 157.378C658.989 157.893 658.826 158.504 658.825 159.212C658.824 160.04 659.075 160.707 659.579 161.213C660.082 161.73 660.814 161.99 661.774 161.994L663.43 161.999C662.962 161.649 662.567 161.174 662.243 160.573C661.932 159.984 661.777 159.312 661.778 158.556C661.779 157.692 661.996 156.9 662.429 156.182C662.874 155.475 663.487 154.913 664.267 154.495C665.06 154.09 665.954 153.889 666.95 153.892C667.946 153.895 668.828 154.102 669.595 154.512C670.363 154.935 670.956 155.501 671.375 156.21C671.806 156.931 672.021 157.724 672.02 158.588ZM666.904 162.01C667.588 162.012 668.182 161.87 668.686 161.584C669.191 161.309 669.575 160.944 669.84 160.489C670.104 160.034 670.237 159.542 670.237 159.014C670.238 158.486 670.107 157.994 669.843 157.537C669.592 157.08 669.214 156.707 668.711 156.418C668.219 156.14 667.631 156 666.947 155.998C666.263 155.996 665.663 156.132 665.147 156.406C664.63 156.693 664.234 157.063 663.957 157.518C663.693 157.986 663.56 158.477 663.559 158.993C663.559 159.521 663.69 160.014 663.954 160.47C664.217 160.927 664.601 161.295 665.104 161.572C665.62 161.862 666.22 162.008 666.904 162.01ZM674.424 179.557L672.75 179.552L672.754 176.222L661.918 176.187L661.92 174.135L672.756 174.17L672.761 170.822L674.435 170.827L674.424 179.557ZM670.386 183.674C670.89 183.976 671.28 184.373 671.555 184.866C671.842 185.371 671.986 185.965 671.985 186.649L669.861 186.643L669.861 186.121C669.862 185.317 669.659 184.704 669.252 184.283C668.844 183.873 668.136 183.667 667.128 183.664L661.908 183.647L661.911 181.595L671.829 181.627L671.826 183.679L670.386 183.674ZM673.133 189.583C673.133 189.211 673.26 188.9 673.512 188.648C673.764 188.397 674.077 188.272 674.449 188.273C674.821 188.275 675.132 188.402 675.384 188.654C675.636 188.907 675.761 189.22 675.761 189.592C675.76 189.952 675.634 190.257 675.382 190.508C675.129 190.76 674.817 190.885 674.445 190.883C674.073 190.882 673.761 190.755 673.51 190.502C673.258 190.25 673.132 189.943 673.133 189.583ZM671.818 190.587L661.9 190.555L661.902 188.503L671.82 188.535L671.818 190.587ZM670.354 195.328C670.809 195.678 671.193 196.153 671.504 196.754C671.815 197.355 671.97 198.034 671.969 198.79C671.968 199.654 671.751 200.439 671.318 201.146C670.897 201.864 670.303 202.426 669.534 202.832C668.766 203.237 667.884 203.439 666.888 203.435C665.892 203.432 664.998 203.225 664.206 202.815C663.427 202.404 662.816 201.838 662.372 201.117C661.941 200.408 661.726 199.621 661.727 198.757C661.728 198.001 661.879 197.329 662.18 196.742C662.493 196.155 662.877 195.677 663.334 195.306L657.178 195.286L657.18 193.234L671.814 193.281L671.812 195.333L670.354 195.328ZM666.89 201.347C667.574 201.35 668.162 201.207 668.655 200.921C669.159 200.647 669.537 200.276 669.79 199.809C670.055 199.353 670.187 198.862 670.188 198.334C670.189 197.818 670.057 197.325 669.794 196.857C669.53 196.4 669.147 196.027 668.643 195.737C668.14 195.459 667.546 195.319 666.862 195.317C666.178 195.315 665.578 195.451 665.061 195.726C664.557 196.012 664.172 196.383 663.908 196.838C663.643 197.305 663.511 197.797 663.51 198.313C663.509 198.841 663.641 199.333 663.904 199.79C664.18 200.259 664.575 200.632 665.091 200.91C665.606 201.199 666.206 201.345 666.89 201.347ZM674.38 214.25C674.378 215.582 674.119 216.745 673.602 217.74C673.096 218.746 672.363 219.518 671.403 220.055C670.454 220.604 669.344 220.876 668.072 220.872C666.8 220.868 665.696 220.589 664.761 220.034C663.825 219.491 663.106 218.714 662.604 217.705C662.113 216.707 661.868 215.542 661.87 214.21L661.875 210.124L674.385 210.164L674.38 214.25ZM663.544 214.216C663.542 215.68 663.937 216.803 664.728 217.586C665.519 218.368 666.634 218.762 668.074 218.766C669.526 218.771 670.661 218.384 671.478 217.607C672.295 216.83 672.704 215.709 672.706 214.245L672.708 212.211L663.547 212.182L663.544 214.216ZM671.766 231.9L661.848 231.868L661.85 229.816L663.02 229.82C662.613 229.495 662.289 229.068 662.05 228.539C661.823 228.022 661.709 227.47 661.71 226.882C661.711 226.102 661.874 225.4 662.199 224.777C662.523 224.166 663.004 223.682 663.64 223.324C664.277 222.978 665.045 222.806 665.945 222.809L671.777 222.828L671.775 224.862L666.249 224.844C665.361 224.841 664.676 225.061 664.196 225.504C663.727 225.946 663.492 226.551 663.491 227.319C663.49 228.087 663.724 228.694 664.191 229.14C664.671 229.597 665.354 229.827 666.242 229.83L671.768 229.848L671.766 231.9ZM670.32 236.655C670.823 236.956 671.213 237.353 671.488 237.846C671.776 238.351 671.919 238.946 671.918 239.63L669.794 239.623L669.795 239.101C669.796 238.297 669.592 237.684 669.185 237.263C668.777 236.854 668.07 236.647 667.062 236.644L661.842 236.628L661.844 234.576L671.762 234.607L671.76 236.659L670.32 236.655ZM666.84 240.816C667.836 240.819 668.718 241.026 669.486 241.436C670.253 241.859 670.846 242.425 671.266 243.134C671.697 243.855 671.912 244.648 671.911 245.512C671.91 246.292 671.753 246.969 671.44 247.544C671.139 248.131 670.761 248.598 670.304 248.945L671.744 248.949L671.742 251.019L661.824 250.988L661.826 248.918L663.302 248.923C662.835 248.573 662.445 248.098 662.134 247.497C661.823 246.896 661.668 246.211 661.669 245.443C661.67 244.591 661.887 243.812 662.32 243.105C662.764 242.399 663.377 241.837 664.158 241.419C664.95 241.014 665.844 240.813 666.84 240.816ZM666.794 248.934C667.478 248.936 668.072 248.794 668.577 248.507C669.081 248.233 669.466 247.868 669.73 247.413C669.995 246.958 670.127 246.466 670.128 245.938C670.129 245.41 669.997 244.918 669.734 244.461C669.482 244.004 669.105 243.631 668.601 243.341C668.11 243.064 667.522 242.924 666.838 242.922C666.154 242.92 665.554 243.056 665.037 243.33C664.521 243.616 664.124 243.987 663.848 244.442C663.583 244.909 663.451 245.401 663.45 245.917C663.449 246.445 663.581 246.937 663.844 247.394C664.108 247.851 664.491 248.218 664.995 248.496C665.51 248.786 666.11 248.931 666.794 248.934ZM670.061 256.103L664.571 256.086C664.199 256.085 663.929 256.168 663.761 256.335C663.605 256.515 663.526 256.814 663.526 257.234L663.524 258.494L661.814 258.489L661.816 256.869C661.817 255.945 662.034 255.238 662.467 254.747C662.9 254.256 663.602 254.013 664.574 254.016L670.064 254.033L670.065 252.863L671.739 252.869L671.738 254.039L674.204 254.046L674.201 256.116L671.735 256.109L671.732 258.521L670.058 258.515L670.061 256.103ZM673.042 261.46C673.043 261.088 673.169 260.776 673.422 260.525C673.674 260.274 673.986 260.149 674.358 260.15C674.73 260.151 675.042 260.278 675.294 260.531C675.545 260.784 675.671 261.096 675.67 261.468C675.67 261.828 675.544 262.134 675.291 262.385C675.039 262.636 674.727 262.761 674.355 262.76C673.983 262.759 673.671 262.632 673.419 262.379C673.168 262.126 673.042 261.82 673.042 261.46ZM671.727 262.464L661.809 262.432L661.812 260.38L671.73 260.412L671.727 262.464ZM661.638 269.428C661.64 268.492 661.851 267.647 662.272 266.892C662.705 266.137 663.305 265.545 664.074 265.116C664.854 264.686 665.755 264.473 666.775 264.476C667.783 264.479 668.676 264.704 669.456 265.151C670.235 265.597 670.835 266.205 671.254 266.974C671.673 267.744 671.881 268.602 671.88 269.55C671.879 270.498 671.668 271.356 671.247 272.122C670.826 272.889 670.225 273.493 669.445 273.935C668.664 274.376 667.77 274.595 666.762 274.592C665.754 274.589 664.86 274.358 664.081 273.9C663.301 273.441 662.696 272.815 662.265 272.022C661.846 271.241 661.637 270.376 661.638 269.428ZM663.42 269.434C663.42 269.962 663.545 270.454 663.797 270.911C664.048 271.38 664.426 271.759 664.929 272.048C665.433 272.338 666.045 272.484 666.765 272.486C667.485 272.489 668.091 272.352 668.583 272.078C669.087 271.804 669.466 271.439 669.719 270.984C669.971 270.528 670.098 270.037 670.098 269.509C670.099 268.981 669.974 268.488 669.722 268.032C669.471 267.587 669.093 267.232 668.59 266.966C668.098 266.7 667.492 266.567 666.772 266.564C665.704 266.561 664.876 266.828 664.287 267.366C663.71 267.916 663.422 268.606 663.42 269.434ZM671.865 281.641C671.864 282.421 671.701 283.116 671.376 283.727C671.052 284.35 670.571 284.835 669.935 285.181C669.298 285.527 668.53 285.698 667.63 285.696L661.78 285.677L661.783 283.643L667.327 283.661C668.215 283.663 668.893 283.444 669.361 283.001C669.842 282.559 670.083 281.953 670.084 281.185C670.085 280.417 669.845 279.805 669.366 279.347C668.899 278.902 668.221 278.677 667.333 278.675L661.789 278.657L661.791 276.605L671.709 276.636L671.707 278.688L670.573 278.685C670.98 279.022 671.298 279.449 671.525 279.966C671.753 280.495 671.866 281.053 671.865 281.641ZM658.417 297.495C659.547 296.323 660.982 295.422 662.723 294.791C664.463 294.173 666.33 293.867 668.322 293.873C670.362 293.879 672.287 294.222 674.098 294.899C675.91 295.589 677.402 296.596 678.577 297.92L678.574 300.044L678.376 300.043C677.106 298.659 675.583 297.616 673.808 296.914C672.033 296.213 670.203 295.859 668.319 295.853C666.507 295.847 664.755 296.166 663.062 296.808C661.369 297.451 659.886 298.388 658.612 299.62L658.414 299.619L658.417 297.495ZM671.714 301.267C672.59 301.27 673.274 301.524 673.765 302.03C674.269 302.547 674.52 303.208 674.519 304.012C674.518 304.816 674.265 305.469 673.76 305.972C673.268 306.486 672.583 306.742 671.708 306.739C670.832 306.736 670.142 306.476 669.638 305.959C669.135 305.453 668.884 304.798 668.885 303.994C668.886 303.19 669.139 302.531 669.643 302.017C670.148 301.514 670.838 301.264 671.714 301.267ZM674.275 312.255L661.756 305.033L661.758 303.017L674.277 310.239L674.275 312.255ZM673.277 304.008C673.278 303.252 672.756 302.873 671.712 302.869C670.656 302.866 670.128 303.242 670.127 303.998C670.126 304.358 670.252 304.635 670.504 304.827C670.768 305.032 671.17 305.135 671.71 305.137C672.754 305.141 673.276 304.764 673.277 304.008ZM664.343 308.57C665.219 308.573 665.903 308.827 666.394 309.332C666.898 309.85 667.149 310.511 667.148 311.315C667.147 312.107 666.894 312.754 666.389 313.256C665.897 313.771 665.212 314.027 664.336 314.024C663.46 314.021 662.771 313.761 662.267 313.243C661.764 312.738 661.513 312.089 661.514 311.297C661.515 310.493 661.768 309.834 662.272 309.319C662.777 308.817 663.467 308.567 664.343 308.57ZM665.906 311.293C665.907 310.537 665.385 310.157 664.341 310.154C663.297 310.15 662.775 310.527 662.774 311.283C662.773 312.039 663.294 312.418 664.338 312.422C665.382 312.425 665.905 312.049 665.906 311.293ZM658.394 315.606L658.592 315.606C659.863 316.847 661.344 317.793 663.035 318.447C664.726 319.1 666.478 319.43 668.29 319.435C670.174 319.441 672.004 319.099 673.781 318.409C675.558 317.718 677.083 316.685 678.357 315.309L678.555 315.31L678.552 317.434C677.374 318.75 675.879 319.742 674.066 320.408C672.253 321.086 670.327 321.422 668.287 321.415C666.295 321.409 664.429 321.085 662.69 320.444C660.951 319.814 659.518 318.909 658.392 317.73L658.394 315.606Z" fill="#BAB5B5"/>
</svg>
