<svg width="13" height="21" viewBox="0 0 13 21" fill="none" xmlns="http://www.w3.org/2000/svg">
<path d="M9.00285 12.0798L8.21851 11.627L12.066 4.96294C12.152 4.81608 12.2118 4.6558 12.242 4.49142C12.2722 4.32705 12.2722 4.16186 12.2419 4.00545C12.2117 3.84904 12.1518 3.70453 12.0658 3.58033C11.9798 3.45612 11.8693 3.3547 11.7408 3.28194L12.7984 1.45026C12.8232 1.41095 12.8409 1.36751 12.8501 1.32267C12.8594 1.27782 12.8601 1.23253 12.8522 1.18964C12.8443 1.14675 12.8279 1.10719 12.8042 1.07344C12.7804 1.03968 12.7497 1.01246 12.7141 0.993484L11.6505 0.379385C11.6158 0.357452 11.5764 0.343903 11.5348 0.339558C11.4931 0.335214 11.45 0.340163 11.4081 0.354107C11.3661 0.368051 11.3263 0.3907 11.2908 0.420684C11.2554 0.450667 11.2251 0.487362 11.2019 0.528548L10.1544 2.34283L10.0768 2.29801C9.54095 1.98863 8.81323 2.26141 8.45662 2.87908L4.60914 9.5431L3.8248 9.09026C3.67147 9.00174 3.45687 9.0543 3.35482 9.23105L2.36195 10.9508C2.31409 11.04 2.2978 11.1415 2.3164 11.2344C2.335 11.3274 2.38708 11.4047 2.46201 11.4507L3.03812 11.7833L2.30497 13.0532C2.20292 13.2299 2.22779 13.4492 2.38112 13.5377L2.84301 13.8044L1.01105 16.9774C0.986078 17.0167 0.968349 17.0602 0.958977 17.1051C0.949604 17.15 0.948788 17.1953 0.95658 17.2383C0.964372 17.2813 0.980605 17.321 1.00426 17.3549C1.02792 17.3889 1.0585 17.4163 1.09408 17.4354L1.80523 17.846L1.59734 18.2061C1.54833 18.291 1.53059 18.3893 1.548 18.4794C1.56541 18.5694 1.61656 18.6439 1.6902 18.6864C1.76384 18.729 1.85392 18.736 1.94065 18.7061C2.02737 18.6761 2.10362 18.6116 2.15263 18.5267L2.36051 18.1666L2.84639 18.4471L2.19158 19.5813C2.16617 19.6253 2.13935 19.6392 2.10107 19.6171L1.40728 19.2166C1.33364 19.174 1.24355 19.167 1.15683 19.197C1.07011 19.2269 0.993858 19.2914 0.944849 19.3763C0.895842 19.4612 0.878092 19.5595 0.895506 19.6496C0.91292 19.7397 0.964072 19.8142 1.03771 19.8567L1.7315 20.2572C1.81136 20.3048 1.90134 20.3333 1.99612 20.3411C2.09091 20.3489 2.18855 20.3359 2.28325 20.3027C2.37796 20.2696 2.4678 20.217 2.54744 20.1482C2.62708 20.0793 2.6949 19.9956 2.74686 19.9019L5.41121 15.2871L5.8731 15.5538C6.02643 15.6423 6.22874 15.5542 6.33079 15.3775L7.06395 14.1076L7.64006 14.4402C7.71733 14.4821 7.81036 14.4886 7.90013 14.4582C7.9899 14.4279 8.06964 14.363 8.12304 14.2769L9.11592 12.5572C9.21796 12.3805 9.15604 12.1683 9.00285 12.0798ZM1.75833 16.9655L2.45127 15.7653L3.9089 16.6068L3.21596 17.807L1.75833 16.9655ZM4.27847 15.9667L2.82084 15.1251L3.3983 14.125L4.85592 14.9665L4.27847 15.9667ZM5.95431 14.7472L3.03905 13.0641L3.59341 12.1039L6.50866 13.787L5.95431 14.7472ZM11.5644 1.18316L12.0502 1.46368L11.1956 2.94395L10.7097 2.66343L11.5644 1.18316ZM9.01191 3.19967C9.16475 2.93495 9.47759 2.80554 9.70723 2.93812L11.3895 3.9094C11.6192 4.04199 11.6635 4.37762 11.5107 4.64235L7.66322 11.3064L5.16443 9.8637L9.01191 3.19967ZM7.74587 13.6478L3.09534 10.9629L3.71899 9.88266L8.36952 12.5676L7.74587 13.6478Z" fill="#989EA5" stroke="#989EA5" stroke-width="0.25"/>
</svg>
