<svg width="531" height="420" viewBox="0 0 531 420" fill="none" xmlns="http://www.w3.org/2000/svg">
<rect width="531" height="420" fill="white"/>
<ellipse cx="262.5" cy="211" rx="217.5" ry="203" fill="#D9D9D9"/>
<ellipse cx="262.5" cy="209" rx="180.5" ry="166" fill="white"/>
<path d="M141 208H137.36L122.72 185.8V208H119.08V180.08H122.72L137.36 202.24V180.08H141V208ZM156.765 208.36C154.712 208.36 152.845 207.893 151.165 206.96C149.512 206.027 148.205 204.707 147.245 203C146.312 201.267 145.845 199.267 145.845 197C145.845 194.76 146.325 192.787 147.285 191.08C148.272 189.347 149.605 188.027 151.285 187.12C152.965 186.187 154.845 185.72 156.925 185.72C159.005 185.72 160.885 186.187 162.565 187.12C164.245 188.027 165.565 189.333 166.525 191.04C167.512 192.747 168.005 194.733 168.005 197C168.005 199.267 167.498 201.267 166.485 203C165.498 204.707 164.152 206.027 162.445 206.96C160.738 207.893 158.845 208.36 156.765 208.36ZM156.765 205.16C158.072 205.16 159.298 204.853 160.445 204.24C161.592 203.627 162.512 202.707 163.205 201.48C163.925 200.253 164.285 198.76 164.285 197C164.285 195.24 163.938 193.747 163.245 192.52C162.552 191.293 161.645 190.387 160.525 189.8C159.405 189.187 158.192 188.88 156.885 188.88C155.552 188.88 154.325 189.187 153.205 189.8C152.112 190.387 151.232 191.293 150.565 192.52C149.898 193.747 149.565 195.24 149.565 197C149.565 198.787 149.885 200.293 150.525 201.52C151.192 202.747 152.072 203.667 153.165 204.28C154.258 204.867 155.458 205.16 156.765 205.16ZM192.135 180.12C195.175 180.12 197.802 180.693 200.015 181.84C202.255 182.96 203.962 184.573 205.135 186.68C206.335 188.787 206.935 191.267 206.935 194.12C206.935 196.973 206.335 199.453 205.135 201.56C203.962 203.64 202.255 205.24 200.015 206.36C197.802 207.453 195.175 208 192.135 208H183.455V180.12H192.135ZM192.135 205C195.735 205 198.482 204.053 200.375 202.16C202.268 200.24 203.215 197.56 203.215 194.12C203.215 190.653 202.255 187.947 200.335 186C198.442 184.053 195.708 183.08 192.135 183.08H187.095V205H192.135ZM210.376 196.96C210.376 194.72 210.83 192.76 211.736 191.08C212.643 189.373 213.883 188.053 215.456 187.12C217.056 186.187 218.83 185.72 220.776 185.72C222.696 185.72 224.363 186.133 225.776 186.96C227.19 187.787 228.243 188.827 228.936 190.08V186.08H232.616V208H228.936V203.92C228.216 205.2 227.136 206.267 225.696 207.12C224.283 207.947 222.63 208.36 220.736 208.36C218.79 208.36 217.03 207.88 215.456 206.92C213.883 205.96 212.643 204.613 211.736 202.88C210.83 201.147 210.376 199.173 210.376 196.96ZM228.936 197C228.936 195.347 228.603 193.907 227.936 192.68C227.27 191.453 226.363 190.52 225.216 189.88C224.096 189.213 222.856 188.88 221.496 188.88C220.136 188.88 218.896 189.2 217.776 189.84C216.656 190.48 215.763 191.413 215.096 192.64C214.43 193.867 214.096 195.307 214.096 196.96C214.096 198.64 214.43 200.107 215.096 201.36C215.763 202.587 216.656 203.533 217.776 204.2C218.896 204.84 220.136 205.16 221.496 205.16C222.856 205.16 224.096 204.84 225.216 204.2C226.363 203.533 227.27 202.587 227.936 201.36C228.603 200.107 228.936 198.653 228.936 197ZM243.208 189.08V202C243.208 203.067 243.434 203.827 243.888 204.28C244.341 204.707 245.128 204.92 246.247 204.92H248.928V208H245.648C243.621 208 242.101 207.533 241.088 206.6C240.074 205.667 239.568 204.133 239.568 202V189.08H236.728V186.08H239.568V180.56H243.208V186.08H248.928V189.08H243.208ZM251.978 196.96C251.978 194.72 252.431 192.76 253.338 191.08C254.244 189.373 255.484 188.053 257.058 187.12C258.658 186.187 260.431 185.72 262.378 185.72C264.298 185.72 265.964 186.133 267.378 186.96C268.791 187.787 269.844 188.827 270.538 190.08V186.08H274.218V208H270.538V203.92C269.818 205.2 268.738 206.267 267.298 207.12C265.884 207.947 264.231 208.36 262.338 208.36C260.391 208.36 258.631 207.88 257.058 206.92C255.484 205.96 254.244 204.613 253.338 202.88C252.431 201.147 251.978 199.173 251.978 196.96ZM270.538 197C270.538 195.347 270.204 193.907 269.538 192.68C268.871 191.453 267.964 190.52 266.818 189.88C265.698 189.213 264.458 188.88 263.098 188.88C261.738 188.88 260.498 189.2 259.378 189.84C258.258 190.48 257.364 191.413 256.698 192.64C256.031 193.867 255.698 195.307 255.698 196.96C255.698 198.64 256.031 200.107 256.698 201.36C257.364 202.587 258.258 203.533 259.378 204.2C260.498 204.84 261.738 205.16 263.098 205.16C264.458 205.16 265.698 204.84 266.818 204.2C267.964 203.533 268.871 202.587 269.538 201.36C270.204 200.107 270.538 198.653 270.538 197ZM306.793 180.12V183.08H294.673V192.48H304.513V195.44H294.673V208H291.033V180.12H306.793ZM320.749 208.36C318.696 208.36 316.829 207.893 315.149 206.96C313.496 206.027 312.189 204.707 311.229 203C310.296 201.267 309.829 199.267 309.829 197C309.829 194.76 310.309 192.787 311.269 191.08C312.256 189.347 313.589 188.027 315.269 187.12C316.949 186.187 318.829 185.72 320.909 185.72C322.989 185.72 324.869 186.187 326.549 187.12C328.229 188.027 329.549 189.333 330.509 191.04C331.496 192.747 331.989 194.733 331.989 197C331.989 199.267 331.483 201.267 330.469 203C329.483 204.707 328.136 206.027 326.429 206.96C324.723 207.893 322.829 208.36 320.749 208.36ZM320.749 205.16C322.056 205.16 323.283 204.853 324.429 204.24C325.576 203.627 326.496 202.707 327.189 201.48C327.909 200.253 328.269 198.76 328.269 197C328.269 195.24 327.923 193.747 327.229 192.52C326.536 191.293 325.629 190.387 324.509 189.8C323.389 189.187 322.176 188.88 320.869 188.88C319.536 188.88 318.309 189.187 317.189 189.8C316.096 190.387 315.216 191.293 314.549 192.52C313.883 193.747 313.549 195.24 313.549 197C313.549 198.787 313.869 200.293 314.509 201.52C315.176 202.747 316.056 203.667 317.149 204.28C318.243 204.867 319.443 205.16 320.749 205.16ZM356.215 186.08V208H352.575V204.76C351.882 205.88 350.909 206.76 349.655 207.4C348.429 208.013 347.069 208.32 345.575 208.32C343.869 208.32 342.335 207.973 340.975 207.28C339.615 206.56 338.535 205.493 337.735 204.08C336.962 202.667 336.575 200.947 336.575 198.92V186.08H340.175V198.44C340.175 200.6 340.722 202.267 341.815 203.44C342.909 204.587 344.402 205.16 346.295 205.16C348.242 205.16 349.775 204.56 350.895 203.36C352.015 202.16 352.575 200.413 352.575 198.12V186.08H356.215ZM373.041 185.68C375.708 185.68 377.868 186.493 379.521 188.12C381.175 189.72 382.001 192.04 382.001 195.08V208H378.401V195.6C378.401 193.413 377.855 191.747 376.761 190.6C375.668 189.427 374.175 188.84 372.281 188.84C370.361 188.84 368.828 189.44 367.681 190.64C366.561 191.84 366.001 193.587 366.001 195.88V208H362.361V186.08H366.001V189.2C366.721 188.08 367.695 187.213 368.921 186.6C370.175 185.987 371.548 185.68 373.041 185.68ZM386.587 196.96C386.587 194.72 387.041 192.76 387.947 191.08C388.854 189.373 390.094 188.053 391.667 187.12C393.267 186.187 395.054 185.72 397.027 185.72C398.734 185.72 400.321 186.12 401.787 186.92C403.254 187.693 404.374 188.72 405.147 190V178.4H408.827V208H405.147V203.88C404.427 205.187 403.361 206.267 401.947 207.12C400.534 207.947 398.881 208.36 396.987 208.36C395.041 208.36 393.267 207.88 391.667 206.92C390.094 205.96 388.854 204.613 387.947 202.88C387.041 201.147 386.587 199.173 386.587 196.96ZM405.147 197C405.147 195.347 404.814 193.907 404.147 192.68C403.481 191.453 402.574 190.52 401.427 189.88C400.307 189.213 399.067 188.88 397.707 188.88C396.347 188.88 395.107 189.2 393.987 189.84C392.867 190.48 391.974 191.413 391.307 192.64C390.641 193.867 390.307 195.307 390.307 196.96C390.307 198.64 390.641 200.107 391.307 201.36C391.974 202.587 392.867 203.533 393.987 204.2C395.107 204.84 396.347 205.16 397.707 205.16C399.067 205.16 400.307 204.84 401.427 204.2C402.574 203.533 403.481 202.587 404.147 201.36C404.814 200.107 405.147 198.653 405.147 197Z" fill="#BAB5B5"/>
</svg>
