<svg width="92" height="92" viewBox="0 0 92 92" fill="none" xmlns="http://www.w3.org/2000/svg">
<path d="M46.55 32.8C45.65 32.8 44.9167 32.5167 44.35 31.95C43.7833 31.3833 43.5 30.6667 43.5 29.8C43.5 28.6333 43.9333 27.6333 44.8 26.8C45.7 25.9333 46.7167 25.5 47.85 25.5C48.75 25.5 49.4667 25.7833 50 26.35C50.5667 26.9167 50.85 27.6333 50.85 28.5C50.85 29.6667 50.4167 30.6833 49.55 31.55C48.6833 32.3833 47.6833 32.8 46.55 32.8ZM48.7 36.45L43.85 64H38.15L43 36.45H48.7Z" fill="#DCD8D8"/>
<circle cx="46" cy="46" r="42" stroke="#DCD8D8" stroke-width="8"/>
</svg>
