<svg width="28" height="28" viewBox="0 0 28 28" fill="none" xmlns="http://www.w3.org/2000/svg">
<path fill-rule="evenodd" clip-rule="evenodd" d="M14.0007 25.6663C20.444 25.6663 25.6673 20.443 25.6673 13.9997C25.6673 7.55635 20.444 2.33301 14.0007 2.33301C7.55733 2.33301 2.33398 7.55635 2.33398 13.9997C2.33398 20.443 7.55733 25.6663 14.0007 25.6663ZM11.2972 16.0997H13.5007C13.7364 16.0997 13.8542 16.0997 13.9274 16.1729C14.0007 16.2461 14.0007 16.364 14.0007 16.5997V22.2295C14.0007 23.1202 14.0007 23.5655 14.1969 23.6088C14.3931 23.652 14.5802 23.2479 14.9544 22.4396L18.5191 14.7399C19.1108 13.4618 19.4066 12.8228 19.1117 12.3612C18.8168 11.8997 18.1126 11.8997 16.7041 11.8997H14.5007C14.2649 11.8997 14.1471 11.8997 14.0739 11.8265C14.0007 11.7532 14.0007 11.6354 14.0007 11.3997V5.7698C14.0007 4.87914 14.0007 4.43381 13.8044 4.39059C13.6082 4.34737 13.4211 4.75149 13.0469 5.55974L9.48225 13.2594C8.89053 14.5375 8.59467 15.1766 8.8896 15.6381C9.18453 16.0997 9.88874 16.0997 11.2972 16.0997Z" fill="#8D9FFD"/>
</svg>
