<svg width="202" height="190" viewBox="0 0 202 190" fill="none" xmlns="http://www.w3.org/2000/svg">
<path fill-rule="evenodd" clip-rule="evenodd" d="M14.4053 140.538C14.5343 140.82 14.6648 141.102 14.7965 141.383L12.0807 142.657L9.36484 143.932C9.22479 143.633 9.08615 143.334 8.94891 143.034C8.79199 142.691 8.63706 142.347 8.48414 142.002L11.2261 140.785L13.9681 139.568C14.1119 139.892 14.2577 140.215 14.4053 140.538ZM6.40593 127.373L9.29544 126.567C9.10466 125.883 8.92167 125.198 8.7464 124.511L5.83956 125.253L2.93271 125.995C3.11903 126.725 3.31361 127.454 3.51642 128.18L6.40593 127.373ZM3.32898 111.224L6.31267 110.912C6.23883 110.207 6.17286 109.501 6.11482 108.794L3.12488 109.04L0.13495 109.285C0.196659 110.036 0.266774 110.787 0.345288 111.537L3.32898 111.224ZM2.99394 94.7884L5.98788 94.979C6.0329 94.2717 6.08588 93.5645 6.1468 92.8577L3.15787 92.6001L0.168948 92.3425C0.10419 93.094 0.0478673 93.8458 0 94.5978L2.99394 94.7884ZM5.41082 78.5276L8.33079 79.216C8.41213 78.8709 8.49545 78.5261 8.58074 78.1816C8.66603 77.8371 8.7532 77.4933 8.84224 77.1501L5.93842 76.3966L3.03459 75.6431C2.93993 76.0079 2.84724 76.3734 2.75657 76.7396C2.66592 77.1059 2.57734 77.4724 2.49085 77.8393L5.41082 78.5276ZM10.5114 62.8985L13.2753 64.0652C13.5512 63.4116 13.8343 62.7614 14.1245 62.1147L11.3874 60.8864L8.6504 59.6582C8.34188 60.3457 8.04091 61.0369 7.74758 61.7318L10.5114 62.8985ZM18.1523 48.3426L20.6823 49.9548C21.0634 49.3568 21.4511 48.7631 21.8455 48.1737L19.3522 46.5053L16.8589 44.8369C16.4397 45.4635 16.0274 46.0947 15.6223 46.7305L18.1523 48.3426ZM28.1181 35.2684L30.3431 37.2807C30.8186 36.755 31.3001 36.2344 31.7876 35.719L29.6083 33.6574L27.4289 31.5957C26.9106 32.1437 26.3986 32.6972 25.8932 33.256L28.1181 35.2684ZM40.1291 24.0437L41.9864 26.3996C42.2649 26.1801 42.5446 25.9621 42.8258 25.7455C43.1069 25.5289 43.3891 25.314 43.6724 25.1008L41.8682 22.7039L40.0641 20.307C39.763 20.5337 39.4629 20.7622 39.1641 20.9924C38.8652 21.2227 38.5678 21.4545 38.2718 21.6878L40.1291 24.0437ZM53.8477 14.9837L55.2852 17.6169C55.9079 17.2769 56.5341 16.9441 57.1637 16.6185L55.7855 13.9538L54.4074 11.2891C53.7381 11.6353 53.0723 11.9891 52.4103 12.3505L53.8477 14.9837ZM68.8869 8.34454L69.8641 11.1809C70.5345 10.95 71.2076 10.7265 71.883 10.5106L70.9696 7.65303L70.0561 4.79547C69.338 5.02501 68.6225 5.26259 67.9098 5.50814L68.8869 8.34454ZM84.8241 4.31198L85.3135 7.27179C86.0128 7.15616 86.7137 7.04831 87.416 6.94828L86.993 3.97825L86.57 1.00822C85.8233 1.11458 85.0782 1.22924 84.3347 1.35217L84.8241 4.31198ZM101.211 2.99997L101.199 5.99995C101.553 6.00139 101.908 6.00482 102.263 6.01023C102.618 6.01564 102.972 6.02304 103.327 6.03242L103.406 3.03347L103.486 0.0345134C103.109 0.0245466 102.732 0.0166823 102.355 0.0109278C101.977 0.00517178 101.6 0.00153089 101.223 0L101.211 2.99997ZM117.588 4.44503L117.074 7.40077C117.773 7.52218 118.471 7.65137 119.166 7.78828L119.746 4.84478L120.325 1.90127C119.586 1.75572 118.844 1.61837 118.101 1.48929L117.588 4.44503ZM133.492 8.60692L132.492 11.4353C133.16 11.6717 133.826 11.9156 134.489 12.1669L135.552 9.36164L136.616 6.55638C135.911 6.28919 135.203 6.0299 134.492 5.77856L133.492 8.60692ZM148.476 15.368L147.018 17.9894C147.637 18.3341 148.253 18.6858 148.865 19.0446L150.382 16.4565L151.899 13.8684C151.248 13.4869 150.594 13.113 149.935 12.7465L148.476 15.368ZM162.12 24.5386L160.244 26.8793C160.521 27.1011 160.796 27.3245 161.07 27.5496C161.345 27.7746 161.618 28.0011 161.889 28.229L163.818 25.9308L165.746 23.6327C165.457 23.3904 165.167 23.1496 164.875 22.9104C164.584 22.6711 164.291 22.4336 163.997 22.1979L162.12 24.5386ZM174.04 35.861L171.799 37.8552C172.271 38.3852 172.736 38.9202 173.195 39.4602L175.481 37.5167L177.766 35.5731C177.278 34.9991 176.783 34.4303 176.282 33.8668L174.04 35.861ZM183.9 49.0158L181.357 50.6074C181.733 51.2085 182.102 51.8138 182.465 52.4231L185.043 50.8889L187.621 49.3546C187.236 48.7068 186.843 48.0633 186.443 47.4242L183.9 49.0158ZM191.422 63.6332L188.649 64.7774C188.919 65.4326 189.182 66.0912 189.438 66.7529L192.236 65.671L195.035 64.5892C194.763 63.8857 194.483 63.1856 194.195 62.489L191.422 63.6332ZM196.395 79.3024L193.47 79.9669C193.549 80.3127 193.625 80.659 193.7 81.0059C193.775 81.3529 193.847 81.7 193.918 82.0474L196.858 81.4485L199.797 80.8495C199.722 80.4802 199.645 80.1111 199.565 79.7423C199.486 79.3735 199.404 79.0053 199.321 78.6378L196.395 79.3024ZM198.68 95.5832L195.685 95.7494C195.724 96.4578 195.756 97.1663 195.779 97.8747L198.777 97.7755L201.776 97.6763C201.751 96.9232 201.718 96.17 201.676 95.4169L198.68 95.5832ZM191.853 129.454C192.057 128.773 192.253 128.089 192.442 127.402L195.004 128.139L197.887 128.969C197.678 129.694 197.461 130.416 197.237 131.136L194.373 130.241L191.853 129.454ZM186.016 144.22C186.314 143.622 186.606 143.02 186.891 142.415L189.146 143.5L191.849 144.8C191.686 145.14 191.521 145.479 191.353 145.817C191.207 146.112 191.059 146.407 190.91 146.701L188.235 145.345L186.016 144.22ZM178.841 156.269C179.2 155.758 179.553 155.244 179.902 154.726L181.9 156.084L184.382 157.769C184.012 158.315 183.636 158.857 183.255 159.394L180.807 157.661L178.841 156.269ZM169.943 167.119C170.374 166.667 170.8 166.211 171.222 165.751L172.969 167.357L175.177 169.387C174.731 169.873 174.28 170.354 173.824 170.83L171.656 168.757L169.943 167.119ZM159.527 176.526C160.021 176.144 160.51 175.756 160.996 175.364L162.484 177.202L164.371 179.534C163.859 179.949 163.342 180.358 162.822 180.763L160.98 178.395L159.527 176.526ZM195.331 111.691L198.212 112.016L201.193 112.353C201.108 113.102 201.015 113.85 200.914 114.597L197.941 114.194L195.102 113.808C195.186 113.105 195.262 112.399 195.331 111.691ZM147.858 184.258C148.393 183.959 148.924 183.654 149.453 183.345L150.671 185.407L152.197 187.99C151.913 188.157 151.628 188.324 151.343 188.489C150.904 188.742 150.455 188.969 149.997 189.168L148.799 186.418L147.858 184.258ZM50.2449 184.914L51.5267 182.202C51.28 182.085 51.0366 181.953 50.7977 181.805C50.5338 181.642 50.2709 181.477 50.0088 181.311L48.4048 183.847L46.8008 186.382C47.0794 186.558 47.3589 186.733 47.6394 186.907C48.0699 187.173 48.5117 187.413 48.9631 187.626L50.2449 184.914ZM38.3141 176.524L40.2271 174.213C39.7492 173.817 39.2753 173.417 38.8054 173.012L36.8476 175.285L34.8898 177.558C35.3893 177.989 35.8931 178.414 36.4012 178.835L38.3141 176.524ZM28.9372 163.163C29.3429 163.632 29.7531 164.097 30.1679 164.558L27.9374 166.564L25.7069 168.571C25.266 168.08 24.8298 167.586 24.3985 167.087L26.6678 165.125L28.9372 163.163ZM19.1295 155.194L21.6296 153.536C21.2869 153.019 20.9492 152.499 20.6164 151.975L18.0843 153.584L15.5522 155.193C15.906 155.75 16.2651 156.303 16.6294 156.852L19.1295 155.194Z" fill="url(#paint0_linear_113_613)"/>
<defs>
<linearGradient id="paint0_linear_113_613" x1="201.206" y1="67.2553" x2="1.30496" y2="190.649" gradientUnits="userSpaceOnUse">
<stop stop-color="#2CA87F"/>
<stop offset="0.388632" stop-color="#FA751A"/>
<stop offset="0.721" stop-color="#FA751A"/>
<stop offset="0.922334" stop-color="#E50000"/>
</linearGradient>
</defs>
</svg>
