<svg width="69" height="33" viewBox="0 0 69 33" fill="none" xmlns="http://www.w3.org/2000/svg">
<rect x="1.10938" y="0.394531" width="67.5" height="31.5" rx="15.75" stroke="#E6E6E6" stroke-width="0.5"/>
<path d="M15.5618 12.1622V12.7622C15.7752 12.7622 15.9726 12.6488 16.0801 12.4645L15.5618 12.1622ZM16.6818 10.2422V9.64219C16.4684 9.64219 16.2711 9.75553 16.1635 9.93986L16.6818 10.2422ZM20.8418 10.2422L21.3601 9.93986C21.2526 9.75553 21.0552 9.64219 20.8418 9.64219V10.2422ZM21.9618 12.1622L21.4435 12.4645C21.5511 12.6488 21.7484 12.7622 21.9618 12.7622V12.1622ZM12.3618 20.3222H12.9618V13.7622H12.3618H11.7618V20.3222H12.3618ZM13.9618 12.1622V12.7622H15.5618V12.1622V11.5622H13.9618V12.1622ZM15.5618 12.1622L16.0801 12.4645L17.2001 10.5445L16.6818 10.2422L16.1635 9.93986L15.0435 11.8599L15.5618 12.1622ZM16.6818 10.2422V10.8422H20.8418V10.2422V9.64219H16.6818V10.2422ZM20.8418 10.2422L20.3235 10.5445L21.4435 12.4645L21.9618 12.1622L22.4801 11.8599L21.3601 9.93986L20.8418 10.2422ZM21.9618 12.1622V12.7622H23.5618V12.1622V11.5622H21.9618V12.1622ZM25.1618 13.7622H24.5618V20.3222H25.1618H25.7618V13.7622H25.1618ZM25.1618 20.3222H24.5618C24.5618 20.8745 24.1141 21.3222 23.5618 21.3222V21.9222V22.5222C24.7768 22.5222 25.7618 21.5372 25.7618 20.3222H25.1618ZM23.5618 12.1622V12.7622C24.1141 12.7622 24.5618 13.2099 24.5618 13.7622H25.1618H25.7618C25.7618 12.5472 24.7768 11.5622 23.5618 11.5622V12.1622ZM12.3618 13.7622H12.9618C12.9618 13.2099 13.4095 12.7622 13.9618 12.7622V12.1622V11.5622C12.7468 11.5622 11.7618 12.5472 11.7618 13.7622H12.3618ZM13.9618 21.9222V21.3222C13.4095 21.3222 12.9618 20.8745 12.9618 20.3222H12.3618H11.7618C11.7618 21.5372 12.7468 22.5222 13.9618 22.5222V21.9222ZM21.1618 16.6422H20.5618C20.5618 17.6363 19.7559 18.4422 18.7618 18.4422V19.0422V19.6422C20.4187 19.6422 21.7618 18.299 21.7618 16.6422H21.1618ZM18.7618 19.0422V18.4422C17.7677 18.4422 16.9618 17.6363 16.9618 16.6422H16.3618H15.7618C15.7618 18.299 17.105 19.6422 18.7618 19.6422V19.0422ZM16.3618 16.6422H16.9618C16.9618 15.6481 17.7677 14.8422 18.7618 14.8422V14.2422V13.6422C17.105 13.6422 15.7618 14.9853 15.7618 16.6422H16.3618ZM18.7618 14.2422V14.8422C19.7559 14.8422 20.5618 15.6481 20.5618 16.6422H21.1618H21.7618C21.7618 14.9853 20.4187 13.6422 18.7618 13.6422V14.2422ZM23.5618 21.9222V21.3222H13.9618V21.9222V22.5222H23.5618V21.9222Z" fill="#373737"/>
<circle cx="18.7619" cy="16.7839" r="2.07682" fill="#FF0000" stroke="#FF0000" stroke-width="2"/>
<path d="M32.3781 20.6445V11.9173H33.4349V19.707H37.4917V20.6445H32.3781ZM38.9917 20.6445V14.0991H39.9974V20.6445H38.9917ZM39.5031 13.0082C39.3071 13.0082 39.1381 12.9414 38.996 12.8079C38.8568 12.6744 38.7872 12.5138 38.7872 12.3263C38.7872 12.1388 38.8568 11.9783 38.996 11.8448C39.1381 11.7113 39.3071 11.6445 39.5031 11.6445C39.6991 11.6445 39.8667 11.7113 40.0059 11.8448C40.148 11.9783 40.219 12.1388 40.219 12.3263C40.219 12.5138 40.148 12.6744 40.0059 12.8079C39.8667 12.9414 39.6991 13.0082 39.5031 13.0082ZM47.1917 14.0991L44.7712 20.6445H43.7485L41.328 14.0991H42.4189L44.2258 19.315H44.2939L46.1008 14.0991H47.1917ZM51.029 20.7809C50.3983 20.7809 49.8543 20.6417 49.3969 20.3633C48.9424 20.082 48.5915 19.69 48.3444 19.1871C48.1001 18.6815 47.9779 18.0934 47.9779 17.4229C47.9779 16.7525 48.1001 16.1616 48.3444 15.6502C48.5915 15.136 48.9353 14.7354 49.3756 14.4485C49.8188 14.1587 50.3358 14.0138 50.9268 14.0138C51.2677 14.0138 51.6043 14.0707 51.9367 14.1843C52.2691 14.2979 52.5716 14.4826 52.8444 14.7383C53.1171 14.9911 53.3344 15.3263 53.4964 15.744C53.6583 16.1616 53.7393 16.6758 53.7393 17.2866V17.7127H48.6938V16.8434H52.7165C52.7165 16.4741 52.6427 16.1445 52.4949 15.8548C52.3501 15.565 52.1427 15.3363 51.8728 15.1687C51.6057 15.0011 51.2904 14.9173 50.9268 14.9173C50.5262 14.9173 50.1796 15.0167 49.887 15.2156C49.5972 15.4116 49.3742 15.6673 49.218 15.9826C49.0617 16.2979 48.9836 16.636 48.9836 16.9968V17.5763C48.9836 18.0707 49.0688 18.4897 49.2393 18.8335C49.4126 19.1744 49.6526 19.4343 49.9594 19.6133C50.2662 19.7894 50.6228 19.8775 51.029 19.8775C51.2932 19.8775 51.5319 19.8406 51.7449 19.7667C51.9608 19.69 52.1469 19.5763 52.3032 19.4258C52.4594 19.2724 52.5802 19.082 52.6654 18.8548L53.637 19.1275C53.5347 19.457 53.3628 19.7468 53.1214 19.9968C52.8799 20.244 52.5816 20.4371 52.2265 20.5763C51.8714 20.7127 51.4722 20.7809 51.029 20.7809Z" fill="#FF0000"/>
</svg>
