<svg width="68" height="32" viewBox="0 0 68 32" fill="none" xmlns="http://www.w3.org/2000/svg">
<rect x="0.25" y="0.25" width="67.5" height="31.5" rx="15.75" fill="#FF0000" stroke="#FFF5F5" stroke-width="0.5"/>
<path d="M14.7024 12.0177V12.6177C14.9158 12.6177 15.1132 12.5043 15.2207 12.32L14.7024 12.0177ZM15.8224 10.0977V9.49766C15.609 9.49766 15.4117 9.611 15.3042 9.79533L15.8224 10.0977ZM19.9824 10.0977L20.5007 9.79533C20.3932 9.611 20.1958 9.49766 19.9824 9.49766V10.0977ZM21.1024 12.0177L20.5842 12.32C20.6917 12.5043 20.889 12.6177 21.1024 12.6177V12.0177ZM11.5024 20.1777H12.1024V13.6177H11.5024H10.9024V20.1777H11.5024ZM13.1024 12.0177V12.6177H14.7024V12.0177V11.4177H13.1024V12.0177ZM14.7024 12.0177L15.2207 12.32L16.3407 10.4L15.8224 10.0977L15.3042 9.79533L14.1842 11.7153L14.7024 12.0177ZM15.8224 10.0977V10.6977H19.9824V10.0977V9.49766H15.8224V10.0977ZM19.9824 10.0977L19.4642 10.4L20.5842 12.32L21.1024 12.0177L21.6207 11.7153L20.5007 9.79533L19.9824 10.0977ZM21.1024 12.0177V12.6177H22.7024V12.0177V11.4177H21.1024V12.0177ZM24.3024 13.6177H23.7024V20.1777H24.3024H24.9024V13.6177H24.3024ZM24.3024 20.1777H23.7024C23.7024 20.7299 23.2547 21.1777 22.7024 21.1777V21.7777V22.3777C23.9175 22.3777 24.9024 21.3927 24.9024 20.1777H24.3024ZM22.7024 12.0177V12.6177C23.2547 12.6177 23.7024 13.0654 23.7024 13.6177H24.3024H24.9024C24.9024 12.4026 23.9175 11.4177 22.7024 11.4177V12.0177ZM11.5024 13.6177H12.1024C12.1024 13.0654 12.5502 12.6177 13.1024 12.6177V12.0177V11.4177C11.8874 11.4177 10.9024 12.4026 10.9024 13.6177H11.5024ZM13.1024 21.7777V21.1777C12.5502 21.1777 12.1024 20.7299 12.1024 20.1777H11.5024H10.9024C10.9024 21.3927 11.8874 22.3777 13.1024 22.3777V21.7777ZM20.3024 16.4977H19.7024C19.7024 17.4918 18.8966 18.2977 17.9024 18.2977V18.8977V19.4977C19.5593 19.4977 20.9024 18.1545 20.9024 16.4977H20.3024ZM17.9024 18.8977V18.2977C16.9083 18.2977 16.1024 17.4918 16.1024 16.4977H15.5024H14.9024C14.9024 18.1545 16.2456 19.4977 17.9024 19.4977V18.8977ZM15.5024 16.4977H16.1024C16.1024 15.5035 16.9083 14.6977 17.9024 14.6977V14.0977V13.4977C16.2456 13.4977 14.9024 14.8408 14.9024 16.4977H15.5024ZM17.9024 14.0977V14.6977C18.8966 14.6977 19.7024 15.5035 19.7024 16.4977H20.3024H20.9024C20.9024 14.8408 19.5593 13.4977 17.9024 13.4977V14.0977ZM22.7024 21.7777V21.1777H13.1024V21.7777V22.3777H22.7024V21.7777Z" fill="white"/>
<circle cx="17.9025" cy="16.6393" r="2.07682" fill="white" stroke="white" stroke-width="2"/>
<path d="M31.5187 20.5V11.7727H32.5756V19.5625H36.6324V20.5H31.5187ZM38.1324 20.5V13.9545H39.1381V20.5H38.1324ZM38.6437 12.8636C38.4477 12.8636 38.2787 12.7969 38.1366 12.6634C37.9974 12.5298 37.9278 12.3693 37.9278 12.1818C37.9278 11.9943 37.9974 11.8338 38.1366 11.7003C38.2787 11.5668 38.4477 11.5 38.6437 11.5C38.8398 11.5 39.0074 11.5668 39.1466 11.7003C39.2886 11.8338 39.3596 11.9943 39.3596 12.1818C39.3596 12.3693 39.2886 12.5298 39.1466 12.6634C39.0074 12.7969 38.8398 12.8636 38.6437 12.8636ZM46.3323 13.9545L43.9118 20.5H42.8891L40.4687 13.9545H41.5596L43.3664 19.1705H43.4346L45.2414 13.9545H46.3323ZM50.1697 20.6364C49.539 20.6364 48.9949 20.4972 48.5376 20.2188C48.083 19.9375 47.7322 19.5455 47.485 19.0426C47.2407 18.5369 47.1185 17.9489 47.1185 17.2784C47.1185 16.608 47.2407 16.017 47.485 15.5057C47.7322 14.9915 48.0759 14.5909 48.5162 14.304C48.9594 14.0142 49.4765 13.8693 50.0674 13.8693C50.4083 13.8693 50.7449 13.9261 51.0773 14.0398C51.4097 14.1534 51.7123 14.3381 51.985 14.5938C52.2577 14.8466 52.4751 15.1818 52.637 15.5994C52.7989 16.017 52.8799 16.5312 52.8799 17.142V17.5682H47.8344V16.6989H51.8572C51.8572 16.3295 51.7833 16 51.6356 15.7102C51.4907 15.4205 51.2833 15.1918 51.0134 15.0241C50.7464 14.8565 50.431 14.7727 50.0674 14.7727C49.6668 14.7727 49.3202 14.8722 49.0276 15.071C48.7378 15.267 48.5148 15.5227 48.3586 15.8381C48.2023 16.1534 48.1242 16.4915 48.1242 16.8523V17.4318C48.1242 17.9261 48.2094 18.3452 48.3799 18.6889C48.5532 19.0298 48.7932 19.2898 49.1001 19.4688C49.4069 19.6449 49.7634 19.733 50.1697 19.733C50.4339 19.733 50.6725 19.696 50.8856 19.6222C51.1015 19.5455 51.2876 19.4318 51.4438 19.2812C51.6001 19.1278 51.7208 18.9375 51.806 18.7102L52.7776 18.983C52.6753 19.3125 52.5035 19.6023 52.262 19.8523C52.0205 20.0994 51.7222 20.2926 51.3671 20.4318C51.012 20.5682 50.6128 20.6364 50.1697 20.6364Z" fill="white"/>
</svg>
