<svg width="18" height="22" viewBox="0 0 18 22" fill="none" xmlns="http://www.w3.org/2000/svg">
<path d="M9.02951 4.8396C6.78594 4.8396 4.96094 6.6646 4.96094 8.90817C4.96094 11.1517 6.78594 12.9767 9.02951 12.9767C11.2731 12.9767 13.0981 11.1517 13.0981 8.90817C13.0981 6.6646 11.2731 4.8396 9.02951 4.8396ZM9.02951 12.2625C7.17987 12.2625 5.67522 10.7578 5.67522 8.90817C5.67522 7.05853 7.17987 5.55389 9.02951 5.55389C10.8792 5.55389 12.3838 7.05853 12.3838 8.90817C12.3838 10.7578 10.8792 12.2625 9.02951 12.2625Z" fill="#989EA5" stroke="#989EA5" stroke-width="0.5"/>
<path d="M9.03036 0.997101C4.6025 0.997101 1 4.5996 1 9.02746C1 13.3675 8.46536 20.5917 8.78286 20.8975C8.85179 20.9639 8.94107 20.9971 9.03036 20.9971C9.11964 20.9971 9.20893 20.9639 9.27786 20.8975C9.59571 20.5921 17.0607 13.3675 17.0607 9.02746C17.0607 4.5996 13.4582 0.997101 9.03036 0.997101ZM9.03036 20.1385C7.72536 18.8375 1.71429 12.6464 1.71429 9.02746C1.71429 4.99317 4.99607 1.71139 9.03036 1.71139C13.0646 1.71139 16.3464 4.99317 16.3464 9.02746C16.3464 12.6446 10.335 18.8371 9.03036 20.1385Z" fill="#989EA5" stroke="#989EA5" stroke-width="0.5"/>
</svg>
