<svg width="18" height="24" viewBox="0 0 18 24" fill="none" xmlns="http://www.w3.org/2000/svg">
<path d="M8.83596 20.0014C9.4231 19.4143 10.8074 17.9914 12.2645 16.2514C14.446 13.6329 16.7774 10.2857 16.7774 7.94143C16.7774 3.56143 13.216 0 8.83596 0C4.45596 0 0.894531 3.56143 0.894531 7.94143C0.894531 10.2857 3.22596 13.6329 5.40739 16.2514C6.86453 17.9914 8.24882 19.4143 8.83596 20.0014ZM8.83596 4.19143C10.8331 4.19143 12.4531 5.81571 12.4531 7.80857C12.4531 9.80143 10.8331 11.43 8.83596 11.43C6.83882 11.43 5.21882 9.80572 5.21882 7.80857C5.21882 5.81143 6.83882 4.19143 8.83596 4.19143Z" fill="#FA751A"/>
<path d="M12.7438 17.0186C10.9395 19.17 9.28522 20.7686 9.13094 20.9143C9.04951 20.9914 8.94237 21.0343 8.83523 21.0343C8.72808 21.0343 8.62094 20.9914 8.53951 20.9143C8.38522 20.7686 6.73094 19.17 4.92665 17.0186C2.20522 17.6657 0.460938 18.9386 0.460938 20.2843C0.460938 22.2986 4.29665 24 8.83523 24C13.3738 24 17.2095 22.2986 17.2095 20.2843C17.2095 18.9386 15.4652 17.6657 12.7438 17.0186Z" fill="#FA751A"/>
</svg>
