<?xml version="1.0" standalone="no"?>
<!DOCTYPE svg PUBLIC "-//W3C//DTD SVG 20010904//EN"
 "http://www.w3.org/TR/2001/REC-SVG-20010904/DTD/svg10.dtd">
<svg version="1.0" xmlns="http://www.w3.org/2000/svg"
 width="512.000000pt" height="512.000000pt" viewBox="0 0 512.000000 512.000000"
 preserveAspectRatio="xMidYMid meet">

<g transform="translate(0.000000,512.000000) scale(0.100000,-0.100000)"
fill="#000000" stroke="none">
<path d="M1652 5038 l3 -83 123 -3 122 -3 0 -44 0 -45 -42 0 c-56 0 -200 -33
-288 -64 -93 -34 -200 -89 -286 -147 l-71 -48 -31 32 -32 32 72 72 73 73 -58
57 -57 58 -205 -205 -205 -205 57 -57 57 -58 76 75 76 75 28 -29 29 -30 -45
-53 c-194 -228 -298 -503 -298 -785 l0 -103 -210 0 -210 0 0 -1239 0 -1239
-72 -4 c-95 -5 -158 -35 -203 -97 -89 -121 -54 -288 75 -361 44 -25 49 -25
330 -30 l285 -5 7 -63 c30 -276 255 -490 533 -509 309 -20 576 206 611 519 l7
58 782 0 783 0 6 -63 c24 -224 186 -422 401 -490 103 -32 264 -30 357 5 100
38 173 86 237 155 89 97 151 240 151 350 l0 43 153 0 c131 0 158 3 197 21 153
69 196 253 89 382 -46 55 -100 79 -191 85 l-78 5 0 453 0 454 -170 0 c-93 0
-170 3 -170 8 0 4 -18 185 -40 402 -22 217 -40 401 -40 408 0 9 -81 12 -370
12 l-370 0 0 370 0 370 -203 0 -204 0 -6 123 c-15 307 -100 518 -319 789 l-22
28 29 30 29 30 73 -72 73 -73 57 58 58 57 -205 205 -205 205 -57 -57 -58 -57
70 -71 c38 -39 70 -75 70 -81 0 -6 -13 -23 -29 -38 l-30 -29 -38 30 c-146 114
-384 209 -578 230 l-70 8 -3 43 -3 42 125 0 126 0 0 85 0 85 -330 0 -331 0 3
-82z m433 -339 c254 -26 476 -130 655 -309 310 -310 401 -772 232 -1170 -217
-513 -768 -772 -1302 -613 -445 132 -760 556 -760 1024 0 549 421 1016 965
1068 44 5 85 9 91 10 6 0 60 -4 119 -10z m-1305 -1351 c41 -158 91 -272 175
-398 109 -163 237 -285 406 -386 298 -179 699 -217 1031 -98 189 68 350 174
493 326 140 149 232 311 288 508 l25 85 136 3 136 3 0 -1326 0 -1325 -798 0
-798 0 -13 37 c-45 129 -156 251 -284 313 -100 48 -149 59 -252 60 -160 0
-290 -54 -405 -170 -69 -68 -119 -147 -144 -223 -5 -16 -19 -17 -143 -15
l-138 3 -3 1310 c-1 721 0 1316 3 1323 3 9 41 12 139 12 l135 0 11 -42z m3444
-740 c3 -18 17 -152 31 -298 14 -146 28 -280 31 -297 l5 -33 -331 0 -330 0 0
330 0 330 295 0 294 0 5 -32z m404 -1331 c2 -497 1 -538 -14 -535 -10 2 -23
20 -30 41 -24 68 -82 153 -147 213 -209 196 -525 206 -755 25 l-52 -41 0 413
c0 228 3 417 7 420 3 4 227 6 497 5 l491 -3 3 -538z m-3187 -306 c112 -35 197
-108 252 -217 122 -240 -32 -535 -305 -585 -175 -32 -361 68 -440 237 -148
317 159 668 493 565z m2783 -25 c89 -44 155 -111 199 -204 29 -61 32 -75 32
-167 0 -92 -3 -106 -32 -168 -81 -170 -267 -270 -441 -238 -174 32 -308 165
-343 340 -29 148 44 316 176 406 124 86 276 97 409 31z m-3894 -122 l0 -86
-61 4 c-71 5 -99 28 -99 82 0 57 38 85 113 86 l47 0 0 -86z m4575 76 c34 -13
59 -69 46 -104 -15 -38 -49 -56 -108 -56 l-53 0 0 85 0 85 44 0 c25 0 56 -4
71 -10z"/>
<path d="M1400 4371 c-50 -45 -53 -50 -40 -67 8 -10 109 -128 224 -262 l208
-244 -27 -60 c-73 -163 26 -335 200 -346 78 -5 126 10 177 56 109 98 115 256
13 357 -47 47 -128 79 -185 73 -27 -2 -46 17 -260 267 -127 149 -236 271 -243
272 -7 2 -37 -19 -67 -46z m656 -707 c35 -85 -65 -152 -130 -88 -31 32 -34 71
-6 107 38 48 112 38 136 -19z"/>
<path d="M1254 4168 c-183 -248 -226 -582 -113 -868 91 -227 282 -418 509
-509 70 -28 246 -69 254 -60 2 2 6 39 9 81 l7 77 -38 6 c-142 24 -259 75 -362
159 -89 71 -154 154 -206 261 -116 240 -95 515 56 734 28 40 50 74 50 77 0 5
-89 87 -106 97 -9 5 -27 -11 -60 -55z"/>
<path d="M1212 794 c-85 -42 -132 -121 -132 -219 0 -67 20 -118 63 -164 41
-43 121 -81 173 -81 107 0 209 73 238 171 20 66 20 82 1 147 -43 143 -208 213
-343 146z m162 -156 c43 -39 36 -107 -14 -133 -37 -19 -74 -11 -100 22 -61 78
41 176 114 111z"/>
<path d="M3950 799 c-84 -38 -136 -108 -147 -198 -16 -140 105 -271 251 -271
84 0 187 73 222 156 20 47 17 141 -5 189 -55 122 -201 179 -321 124z m133
-151 c50 -26 61 -77 27 -121 -54 -68 -153 -21 -141 68 3 26 46 65 72 65 11 0
30 -5 42 -12z"/>
</g>
</svg>
