<svg width="282" height="228" viewBox="0 0 282 228" fill="none" xmlns="http://www.w3.org/2000/svg">
<path d="M161.888 189.014C217.592 184.14 237.901 131.86 241.092 106.329L242.833 111.551L241.092 146.366L242.833 179.44L230.648 190.755L155.796 192.496C134.617 193.366 106.185 193.888 161.888 189.014Z" fill="#EEEEEE"/>
<ellipse cx="141" cy="195.977" rx="141" ry="31.3333" fill="#FBB687" fill-opacity="0.12"/>
<rect x="37.8145" y="37.0879" width="206.37" height="155.889" rx="15" fill="white" stroke="#FA751A" stroke-width="6"/>
<line x1="38" y1="75" x2="240" y2="75" stroke="#FA751A" stroke-width="6"/>
<path d="M41 52C41 45.3726 46.3726 40 53 40H234C240.627 40 246 45.3726 246 52V72H41V52Z" fill="#FBB687" fill-opacity="0.12"/>
<circle cx="110.537" cy="118.514" r="6.09259" fill="#FA751A"/>
<circle cx="173.204" cy="118.514" r="6.09259" fill="#FA751A"/>
<path d="M158.407 145.496C156.235 147.704 153.657 149.455 150.82 150.649C147.982 151.844 144.941 152.459 141.87 152.459C138.799 152.459 135.758 151.844 132.92 150.649C130.083 149.455 127.505 147.704 125.333 145.496" stroke="#FA751A" stroke-width="6" stroke-linecap="round"/>
<path d="M39.1141 9.74824C31.9682 10.8479 25.3089 14.0419 19.9783 18.9263C14.6476 23.8107 10.8851 30.1661 9.16641 37.1888" stroke="#DCDCDC" stroke-width="6" stroke-linecap="round"/>
<path d="M40.6048 22.0332C35.8424 22.776 31.4072 24.9143 27.86 28.1777C24.3129 31.4412 21.8131 35.6832 20.6768 40.3674" stroke="#DCDCDC" stroke-width="6" stroke-linecap="round"/>
<rect x="55.7041" y="51.4961" width="6.96296" height="6.96296" fill="#FA751A"/>
<rect x="67.8887" y="51.4961" width="6.96296" height="6.96296" fill="#FA751A"/>
<rect x="80.0742" y="51.4961" width="6.96296" height="6.96296" fill="#FA751A"/>
<path fill-rule="evenodd" clip-rule="evenodd" d="M221.897 81.7619C238.543 85.0866 255.694 76.1434 262.145 59.7961C269.398 41.4162 260.378 20.6366 241.998 13.3836C223.618 6.13067 202.838 15.1509 195.585 33.5308C189.713 48.4112 194.507 64.8644 206.299 74.4392L203.284 90.8749C203.208 91.2876 203.644 91.6044 204.013 91.4052L221.897 81.7619Z" fill="white"/>
<path d="M221.897 81.7619L222.484 78.82L221.424 78.6083L220.473 79.1213L221.897 81.7619ZM206.299 74.4392L209.25 74.9805L209.571 73.2313L208.19 72.1102L206.299 74.4392ZM203.284 90.8749L200.333 90.3335L200.333 90.3336L203.284 90.8749ZM204.013 91.4052L202.589 88.7647L202.589 88.7647L204.013 91.4052ZM259.354 58.6949C253.445 73.6684 237.733 81.8656 222.484 78.82L221.309 84.7038C239.353 88.3077 257.942 78.6183 264.935 60.8973L259.354 58.6949ZM240.896 16.1742C257.735 22.819 265.999 41.8562 259.354 58.6949L264.935 60.8973C272.796 40.9762 263.02 18.4542 243.099 10.5931L240.896 16.1742ZM198.376 34.632C205.02 17.7933 224.058 9.52943 240.896 16.1742L243.099 10.5931C223.178 2.73191 200.656 12.5085 192.795 32.4296L198.376 34.632ZM208.19 72.1102C197.385 63.3365 192.998 48.2604 198.376 34.632L192.795 32.4296C186.428 48.5619 191.63 66.3923 204.408 76.7681L208.19 72.1102ZM206.234 91.4163L209.25 74.9805L203.348 73.8978L200.333 90.3335L206.234 91.4163ZM202.589 88.7647C204.435 87.7691 206.613 89.353 206.234 91.4163L200.333 90.3336C199.803 93.2221 202.852 95.4397 205.437 94.0458L202.589 88.7647ZM220.473 79.1213L202.589 88.7647L205.437 94.0458L223.321 84.4025L220.473 79.1213Z" fill="#FA751A"/>
<path d="M226.296 53.2371H217.592V61.9408M233.259 39.3111H241.962V30.6074M216.866 41.0578C217.842 38.6421 219.476 36.5486 221.583 35.0154C223.689 33.4821 226.186 32.5701 228.785 32.3839C231.383 32.1976 233.981 32.744 236.284 33.9612C238.588 35.1783 240.502 37.0178 241.813 39.2696M242.689 51.4912C241.713 53.9069 240.079 56.0004 237.973 57.5336C235.866 59.0669 233.372 59.9777 230.773 60.164C228.175 60.3503 225.575 59.8039 223.272 58.5868C220.968 57.3696 219.052 55.5305 217.742 53.2787" stroke="#FA751A" stroke-opacity="0.46" stroke-width="4" stroke-linecap="round" stroke-linejoin="round"/>
</svg>
