<svg width="16" height="15" viewBox="0 0 16 15" fill="none" xmlns="http://www.w3.org/2000/svg">
<path d="M7.63493 0.454276C10.9287 0.23962 13.7727 2.73572 13.9875 6.02947C14.0912 7.62182 13.5596 9.10745 12.6125 10.2433L12.7726 14.5539L9.67204 12.1623C9.26887 12.2776 8.84776 12.3536 8.41228 12.382C5.1185 12.5966 2.27439 10.1006 2.05974 6.80682C1.84515 3.51309 4.34121 0.668992 7.63493 0.454276Z" fill="#FF808C"/>
<path d="M7.83547 4.65234H8.34363H11.2618C11.7037 4.65234 12.0618 5.01052 12.0618 5.45234V8.1436C12.0618 8.58543 11.7037 8.9436 11.2618 8.9436H5.42598C4.98415 8.9436 4.62598 8.58543 4.62598 8.1436V6.79797L4.62598 5.53384" stroke="white" stroke-width="0.8"/>
<path d="M3.50391 6.25313C3.50391 6.08744 3.63822 5.95312 3.80391 5.95312H4.42001V7.6381H3.80391C3.63822 7.6381 3.50391 7.50379 3.50391 7.3381V6.25313Z" fill="white"/>
<rect x="10.1426" y="5.64453" width="0.8" height="2.26296" rx="0.4" fill="#FFFDFD"/>
<path d="M5.80433 2.4875C5.88131 2.35417 6.07376 2.35417 6.15074 2.4875L7.48987 4.80693C7.56685 4.94027 7.47062 5.10693 7.31666 5.10693H4.63841C4.48445 5.10693 4.38823 4.94027 4.46521 4.80693L5.80433 2.4875Z" fill="white"/>
<path d="M5.73757 3.62132C5.73 3.48327 5.83989 3.36719 5.97814 3.36719C6.11619 3.36719 6.22601 3.48295 6.21874 3.62081L6.16764 4.58976C6.16235 4.68999 6.07954 4.76855 5.97916 4.76855C5.87894 4.76855 5.7962 4.69022 5.79071 4.59015L5.73757 3.62132Z" fill="#FF808C"/>
</svg>
