<svg width="22" height="22" viewBox="0 0 22 22" fill="none" xmlns="http://www.w3.org/2000/svg">
<rect width="22" height="22" rx="3" fill="#2D3748"/>
<path d="M16.925 18.4992L12.8188 14.393L14.3938 12.818L18.5 16.9242L16.925 18.4992ZM6.575 18.4992L5 16.9242L10.175 11.7492L8.9 10.4742L8.375 10.9992L7.41875 10.043V11.5805L6.89375 12.1055L4.625 9.83672L5.15 9.31172H6.6875L5.75 8.37422L8.4125 5.71172C8.6625 5.46172 8.93125 5.28047 9.21875 5.16797C9.50625 5.05547 9.8 4.99922 10.1 4.99922C10.4 4.99922 10.6938 5.05547 10.9813 5.16797C11.2688 5.28047 11.5375 5.46172 11.7875 5.71172L10.0625 7.43672L11 8.37422L10.475 8.89922L11.75 10.1742L13.4375 8.48672C13.3875 8.34922 13.3469 8.20547 13.3156 8.05547C13.2844 7.90547 13.2688 7.75547 13.2688 7.60547C13.2688 6.86797 13.5219 6.24609 14.0281 5.73984C14.5344 5.23359 15.1562 4.98047 15.8938 4.98047C16.0813 4.98047 16.2594 4.99922 16.4281 5.03672C16.5969 5.07422 16.7688 5.13047 16.9438 5.20547L15.0875 7.06172L16.4375 8.41172L18.2938 6.55547C18.3813 6.73047 18.4406 6.90234 18.4719 7.07109C18.5031 7.23984 18.5188 7.41797 18.5188 7.60547C18.5188 8.34297 18.2656 8.96484 17.7594 9.47109C17.2531 9.97734 16.6313 10.2305 15.8938 10.2305C15.7438 10.2305 15.5938 10.218 15.4438 10.193C15.2938 10.168 15.15 10.1242 15.0125 10.0617L6.575 18.4992Z" fill="white"/>
</svg>
