<svg width="26" height="26" viewBox="0 0 26 26" fill="none" xmlns="http://www.w3.org/2000/svg">
<path d="M20.4747 22.7497L14.5434 16.8185L16.8184 14.5435L22.7497 20.4747L20.4747 22.7497ZM5.52467 22.7497L3.24967 20.4747L10.7247 12.9997L8.88301 11.1581L8.12467 11.9164L6.74342 10.5352V12.756L5.98509 13.5143L2.70801 10.2372L3.46634 9.47891H5.68717L4.33301 8.12474L8.17884 4.27891C8.53995 3.9178 8.92815 3.65599 9.34342 3.49349C9.7587 3.33099 10.183 3.24974 10.6163 3.24974C11.0497 3.24974 11.474 3.33099 11.8893 3.49349C12.3045 3.65599 12.6927 3.9178 13.0538 4.27891L10.5622 6.77057L11.9163 8.12474L11.158 8.88307L12.9997 10.7247L15.4372 8.28724C15.365 8.08863 15.3063 7.88099 15.2611 7.66432C15.216 7.44766 15.1934 7.23099 15.1934 7.01432C15.1934 5.94904 15.559 5.05078 16.2903 4.31953C17.0215 3.58828 17.9198 3.22266 18.9851 3.22266C19.2559 3.22266 19.5132 3.24974 19.757 3.30391C20.0007 3.35807 20.249 3.43932 20.5018 3.54766L17.8205 6.22891L19.7705 8.17891L22.4518 5.49766C22.5781 5.75043 22.6639 5.9987 22.709 6.24245C22.7542 6.4862 22.7768 6.74349 22.7768 7.01432C22.7768 8.0796 22.4111 8.97786 21.6799 9.70911C20.9486 10.4404 20.0504 10.806 18.9851 10.806C18.7684 10.806 18.5518 10.7879 18.3351 10.7518C18.1184 10.7157 17.9108 10.6525 17.7122 10.5622L5.52467 22.7497Z" fill="black"/>
</svg>
