<svg width="25" height="25" viewBox="0 0 25 25" fill="none" xmlns="http://www.w3.org/2000/svg">
<circle cx="12.0913" cy="12.0943" r="9.47698" stroke="black" stroke-width="1.77562"/>
<path d="M15.2442 8.26783C15.7461 8.11491 16.2001 8.6139 16.0001 9.09889L12.9561 16.4749C12.7105 17.0696 11.8344 16.9447 11.7647 16.3049L11.419 13.1253C11.3901 12.8606 11.1955 12.6439 10.9356 12.5862L7.53329 11.8323C6.90981 11.6937 6.87624 10.8173 7.4874 10.6311L15.2442 8.26783Z" fill="black"/>
<rect x="18.8984" y="10.9553" width="5.32685" height="2.08939" rx="0.887808" fill="black"/>
<rect x="0.0136719" y="10.9553" width="5.32685" height="2.08939" rx="0.887808" fill="black"/>
<rect x="13.0254" y="19.0125" width="5.32685" height="2.08939" rx="0.887808" transform="rotate(90 13.0254 19.0125)" fill="black"/>
<rect x="13.0254" y="0.100098" width="5.32685" height="2.08939" rx="0.887808" transform="rotate(90 13.0254 0.100098)" fill="black"/>
</svg>
