<svg width="27" height="26" viewBox="0 0 27 26" fill="none" xmlns="http://www.w3.org/2000/svg">
<path fill-rule="evenodd" clip-rule="evenodd" d="M15.2146 3.66712C14.6939 1.53544 11.6518 1.53544 11.1311 3.66712C11.0534 3.98744 10.9009 4.28494 10.6861 4.53539C10.4713 4.78584 10.2002 4.98218 9.89492 5.10843C9.58964 5.23468 9.25879 5.28726 8.92928 5.26191C8.59977 5.23656 8.28091 5.13398 7.99867 4.96253C6.11864 3.82017 3.9673 5.96552 5.11285 7.84031C5.8528 9.051 5.19644 10.6306 3.8152 10.9654C1.67619 11.4833 1.67619 14.5182 3.8152 15.0347C4.1365 15.1124 4.43487 15.2646 4.68602 15.4789C4.93718 15.6933 5.13401 15.9638 5.26049 16.2684C5.38696 16.573 5.43952 16.9031 5.41386 17.2318C5.38821 17.5605 5.28507 17.8784 5.11285 18.1599C3.9673 20.0346 6.11864 22.18 7.99867 21.0376C8.28086 20.8659 8.59974 20.763 8.92934 20.7375C9.25894 20.7119 9.58994 20.7643 9.89538 20.8904C10.2008 21.0165 10.4721 21.2128 10.6871 21.4633C10.902 21.7137 11.0547 22.0113 11.1325 22.3317C11.6518 24.4647 14.6952 24.4647 15.2132 22.3317C15.2913 22.0114 15.4441 21.7141 15.6591 21.4638C15.8741 21.2135 16.1453 21.0174 16.4507 20.8913C16.756 20.7652 17.0869 20.7127 17.4164 20.7382C17.7459 20.7636 18.0648 20.8662 18.347 21.0376C20.2271 22.18 22.3784 20.0346 21.2329 18.1599C21.0609 17.8784 20.9581 17.5604 20.9326 17.2318C20.9071 16.9032 20.9597 16.5733 21.0861 16.2688C21.2125 15.9643 21.4092 15.6938 21.6602 15.4794C21.9112 15.265 22.2094 15.1126 22.5305 15.0347C24.6695 14.5169 24.6695 11.4819 22.5305 10.9654C22.2092 10.8878 21.9108 10.7356 21.6597 10.5212C21.4085 10.3068 21.2117 10.0363 21.0852 9.73174C20.9587 9.42715 20.9062 9.09707 20.9318 8.76839C20.9575 8.43971 21.0606 8.12172 21.2329 7.84031C22.3784 5.96552 20.2271 3.82017 18.347 4.96253C18.0648 5.13427 17.746 5.23712 17.4164 5.2627C17.0868 5.28829 16.7558 5.23588 16.4503 5.10975C16.1449 4.98363 15.8736 4.78735 15.6586 4.53689C15.4437 4.28644 15.291 3.9889 15.2132 3.66849L15.2146 3.66712Z" stroke="black" stroke-width="2"/>
<path d="M15.6088 12.9999C15.6088 14.3415 14.5182 15.4291 13.1729 15.4291C11.8275 15.4291 10.7369 14.3415 10.7369 12.9999C10.7369 11.6583 11.8275 10.5707 13.1729 10.5707C14.5182 10.5707 15.6088 11.6583 15.6088 12.9999Z" stroke="black" stroke-width="2"/>
</svg>
