<svg width="32" height="32" viewBox="0 0 32 32" fill="none" xmlns="http://www.w3.org/2000/svg">
<path d="M4.23058 19.6741L3.2498 19.8692L4.23058 19.6741ZM27.7694 19.6741L28.7502 19.8692V19.8692L27.7694 19.6741ZM27.0866 12.7408L28.0104 12.3581V12.3581L27.0866 12.7408ZM22.6668 7.35537L23.2224 6.5239V6.5239L22.6668 7.35537ZM9.33316 7.35537L9.88873 8.18684L9.33316 7.35537ZM4.91345 12.7408L3.98957 12.3581H3.98957L4.91345 12.7408ZM18.7205 20.2656L18.0402 19.5327L18.7205 20.2656ZM13.0654 20.2676L12.3583 19.5605L13.0654 20.2676ZM13.2795 20.2656L13.9598 19.5327L13.2795 20.2656ZM24.5907 25.7115L23.8748 25.0133L24.5907 25.7115ZM7.4093 25.7115L6.69341 26.4098L7.4093 25.7115ZM7.62079 25.7122L8.3279 26.4193L7.62079 25.7122ZM8.12519 25.0133C6.63956 23.4901 5.62686 21.5678 5.21137 19.479L3.2498 19.8692C3.74083 22.3378 4.93766 24.6096 6.69341 26.4098L8.12519 25.0133ZM12.3583 19.5605L6.91368 25.0051L8.3279 26.4193L13.7725 20.9747L12.3583 19.5605ZM16 20.3332C15.2115 20.3332 14.4959 20.0303 13.9598 19.5327L12.5992 20.9985C13.4906 21.8259 14.6872 22.3332 16 22.3332V20.3332ZM18.0402 19.5327C17.5041 20.0303 16.7885 20.3332 16 20.3332V22.3332C17.3128 22.3332 18.5094 21.8259 19.4008 20.9985L18.0402 19.5327ZM25.0863 25.0051L19.6417 19.5605L18.2275 20.9747L23.6721 26.4193L25.0863 25.0051ZM26.7886 19.479C26.3732 21.5678 25.3605 23.4901 23.8748 25.0133L25.3066 26.4098C27.0624 24.6096 28.2592 22.3378 28.7502 19.8692L26.7886 19.479ZM26.1627 13.1235C26.9952 15.1335 27.2131 17.3452 26.7886 19.479L28.7502 19.8692C29.2518 17.3474 28.9944 14.7336 28.0104 12.3581L26.1627 13.1235ZM22.1113 8.18684C23.9202 9.39554 25.3301 11.1135 26.1627 13.1235L28.0104 12.3581C27.0265 9.98268 25.3603 7.95236 23.2224 6.5239L22.1113 8.18684ZM16 6.33301C18.1756 6.33301 20.3023 6.97815 22.1113 8.18684L23.2224 6.5239C21.0846 5.09544 18.5712 4.33301 16 4.33301V6.33301ZM9.88873 8.18684C11.6977 6.97815 13.8244 6.33301 16 6.33301V4.33301C13.4288 4.33301 10.9154 5.09544 8.77759 6.5239L9.88873 8.18684ZM5.83733 13.1235C6.66989 11.1135 8.07979 9.39554 9.88873 8.18684L8.77759 6.5239C6.63975 7.95236 4.97351 9.98268 3.98957 12.3581L5.83733 13.1235ZM5.21137 19.479C4.78693 17.3452 5.00477 15.1335 5.83733 13.1235L3.98957 12.3581C3.00563 14.7336 2.74819 17.3474 3.2498 19.8692L5.21137 19.479ZM19.4008 20.9985C19.0849 21.2917 18.5659 21.3132 18.2275 20.9747L19.6417 19.5605C19.1861 19.1049 18.4775 19.1268 18.0402 19.5327L19.4008 20.9985ZM13.7725 20.9747C13.4341 21.3132 12.9151 21.2917 12.5992 20.9985L13.9598 19.5327C13.5225 19.1268 12.8139 19.1049 12.3583 19.5605L13.7725 20.9747ZM23.6721 26.4193C24.1191 26.8663 24.8542 26.8736 25.3066 26.4098L23.8748 25.0133C24.2115 24.6681 24.7565 24.6753 25.0863 25.0051L23.6721 26.4193ZM6.69341 26.4098C7.14577 26.8736 7.88092 26.8663 8.3279 26.4193L6.91368 25.0051C7.2435 24.6753 7.78851 24.6681 8.12519 25.0133L6.69341 26.4098Z" fill="black"/>
<path d="M15.3463 17.1025L15.6523 9.33393" stroke="black" stroke-width="2" stroke-linecap="round" stroke-linejoin="round"/>
</svg>
