<svg width="30" height="30" viewBox="0 0 30 30" fill="none" xmlns="http://www.w3.org/2000/svg">
<path d="M16.9482 6.31066L17.5683 5.40205L16.9482 6.31066ZM14.7169 26.2367L14.4691 27.3085L14.7169 26.2367ZM12.9589 25.4681L14.0561 25.3896L12.9589 25.4681ZM14.4863 23.317C17.9062 21.9901 20.3277 18.6681 20.3277 14.7832H22.5277C22.5277 19.606 19.5201 23.7237 15.2822 25.368L14.4863 23.317ZM20.3277 14.7832C20.3277 11.6412 18.745 8.86846 16.3282 7.21926L17.5683 5.40205C20.56 7.44361 22.5277 10.8835 22.5277 14.7832H20.3277ZM26.1852 16.25C26.1852 11.1966 22.0886 7.1 17.0352 7.1V4.9C23.3036 4.9 28.3852 9.98157 28.3852 16.25H26.1852ZM17.0352 25.4C22.0886 25.4 26.1852 21.3034 26.1852 16.25H28.3852C28.3852 22.5184 23.3036 27.6 17.0352 27.6V25.4ZM14.9647 25.165C15.6289 25.3186 16.3218 25.4 17.0352 25.4V27.6C16.1539 27.6 15.2947 27.4993 14.4691 27.3085L14.9647 25.165ZM16.3282 7.21926C15.8307 6.87974 15.6884 6.29827 15.8173 5.82893C15.9493 5.34827 16.3944 4.9 17.0352 4.9V7.1C17.5098 7.1 17.843 6.76026 17.9387 6.41154C18.0314 6.07413 17.9287 5.64799 17.5683 5.40205L16.3282 7.21926ZM15.2822 25.368C14.601 25.6323 14.1909 25.7936 13.9426 25.9265C13.8182 25.993 13.8248 26.0068 13.8706 25.9575C13.9407 25.8823 14.0769 25.6806 14.0561 25.3896L11.8617 25.5466C11.8277 25.0714 12.0353 24.7001 12.2607 24.4582C12.4617 24.2423 12.7073 24.0923 12.9049 23.9866C13.3006 23.7749 13.8663 23.5576 14.4863 23.317L15.2822 25.368ZM14.4691 27.3085C13.9288 27.1835 13.4014 27.0644 13.0185 26.9165C12.7014 26.794 11.926 26.4451 11.8617 25.5466L14.0561 25.3896C14.049 25.29 14.0212 25.1853 13.9699 25.0872C13.9203 24.9921 13.8617 24.9276 13.8194 24.8895C13.749 24.8259 13.7148 24.8271 13.8113 24.8643C13.8969 24.8974 14.029 24.938 14.233 24.9905C14.434 25.0422 14.672 25.0973 14.9647 25.165L14.4691 27.3085Z" fill="#384444"/>
<path d="M4.16228 9L4.66886 8.83114C4.72226 8.81334 4.7753 8.79577 4.82793 8.77833C5.59911 8.52282 6.28469 8.29567 6.79018 7.79018C7.29567 7.28469 7.52282 6.59911 7.77833 5.82793C7.79577 5.7753 7.81334 5.72226 7.83114 5.66886L8 5.16228L8.16886 5.66886C8.18666 5.72226 8.20423 5.77529 8.22167 5.82793C8.47718 6.59911 8.70433 7.28469 9.20982 7.79018C9.71531 8.29567 10.4009 8.52282 11.1721 8.77833C11.2247 8.79577 11.2777 8.81334 11.3311 8.83114L11.8377 9L11.3311 9.16886C11.2777 9.18666 11.2247 9.20423 11.1721 9.22167C10.4009 9.47718 9.71531 9.70433 9.20982 10.2098C8.70433 10.7153 8.47718 11.4009 8.22168 12.172C8.20424 12.2247 8.18667 12.2777 8.16886 12.3311L8.16886 12.3311L8.15672 12.3676L8.15672 12.3676L8 12.8377L7.83114 12.3311C7.81334 12.2777 7.79577 12.2247 7.77833 12.1721C7.52282 11.4009 7.29567 10.7153 6.79018 10.2098C6.28469 9.70433 5.59911 9.47718 4.82794 9.22168C4.77557 9.20433 4.72282 9.18684 4.66969 9.16914C4.66942 9.16905 4.66915 9.16896 4.66887 9.16887L4.66886 9.16886L4.16228 9Z" stroke="#384444" stroke-width="2"/>
</svg>
