<svg width="30" height="31" viewBox="0 0 30 31" fill="none" xmlns="http://www.w3.org/2000/svg">
<ellipse cx="15" cy="15.5" rx="15" ry="15.5" fill="#F4F4F4"/>
<path d="M24.6682 14.7026H23.4372L20.7043 10.7879C20.3596 10.2954 19.7933 10 19.2024 10H11.9393C11.1268 10 10.4128 10.5417 10.1912 11.3295L9.25566 14.7026H9.23103C8.54166 14.7026 8 15.2442 8 15.9336V17.9279C8 18.6172 8.54166 19.1589 9.23103 19.1589H10.5852C10.7821 19.996 11.5208 20.6115 12.4317 20.6115C13.3181 20.6115 14.0813 19.996 14.2783 19.1589H20.138C20.335 19.996 21.0736 20.6115 21.9846 20.6115C22.8709 20.6115 23.6341 19.996 23.8311 19.1589H25.7515C26.4409 19.1589 26.9826 18.6172 26.9826 17.9279V16.9923C26.9579 15.7366 25.9239 14.7026 24.6682 14.7026ZM20.0149 11.2803L22.3785 14.7026H16.3464V10.8617H19.227C19.5471 10.8617 19.8426 11.0094 20.0149 11.2803ZM11.0037 11.5757C11.1268 11.1572 11.4961 10.8617 11.9393 10.8617H15.5093V14.7026H10.142L11.0037 11.5757ZM12.4317 19.7744C11.8654 19.7744 11.3977 19.3066 11.3977 18.7403C11.3977 18.1741 11.8654 17.7063 12.4317 17.7063C12.998 17.7063 13.4658 18.1741 13.4658 18.7403C13.4658 19.3066 12.998 19.7744 12.4317 19.7744ZM21.9846 19.7744C21.4183 19.7744 20.9505 19.3066 20.9505 18.7403C20.9505 18.1741 21.4183 17.7063 21.9846 17.7063C22.5508 17.7063 23.0186 18.1741 23.0186 18.7403C23.0186 19.3066 22.5508 19.7744 21.9846 19.7744Z" fill="#25A522"/>
<path d="M6.33847 13.9387H8.67744C8.89903 13.9387 9.09599 13.7417 9.09599 13.5201C9.09599 13.2985 8.89903 13.1016 8.67744 13.1016H6.33847C6.11689 13.1016 5.91992 13.2985 5.91992 13.5201C5.91992 13.7417 6.09227 13.9387 6.33847 13.9387Z" fill="#25A522"/>
<path d="M7.59462 15.0967H4.41855C4.19697 15.0967 4 15.2936 4 15.5152C4 15.7368 4.19697 15.9338 4.41855 15.9338H7.59462C7.81621 15.9338 8.01317 15.7368 8.01317 15.5152C8.03779 15.269 7.84083 15.0967 7.59462 15.0967Z" fill="#25A522"/>
<path d="M7.49681 17.0889H5.50254C5.28095 17.0889 5.08398 17.2858 5.08398 17.5074C5.08398 17.729 5.28095 17.926 5.50254 17.926H7.49681C7.7184 17.926 7.91536 17.729 7.91536 17.5074C7.93998 17.2612 7.74302 17.0889 7.49681 17.0889Z" fill="#25A522"/>
</svg>
