<svg width="27" height="27" viewBox="0 0 27 27" fill="none" xmlns="http://www.w3.org/2000/svg">
<path d="M21.1746 13.2955V10.0455M21.1746 10.0455V6.79551M21.1746 10.0455L24.4246 10.0455M21.1746 10.0455H17.9246M15.9746 6.79551V4.84551M15.9746 4.84551V2.89551M15.9746 4.84551L17.9246 4.84551M15.9746 4.84551L14.0246 4.84551M23.7745 16.8049C22.797 17.1013 21.76 17.2607 20.6857 17.2607C14.8162 17.2607 10.058 12.5025 10.058 6.63304C10.058 5.55922 10.2173 4.5226 10.5135 3.54551C6.15041 4.86867 2.97461 8.92214 2.97461 13.7173C2.97461 19.5869 7.73278 24.345 13.6023 24.345C18.398 24.345 22.4518 21.1686 23.7745 16.8049Z" stroke="#EB2C3E" stroke-width="1.2" stroke-linecap="round" stroke-linejoin="round"/>
</svg>
