<svg width="64" height="73" viewBox="0 0 64 73" fill="none" xmlns="http://www.w3.org/2000/svg">
<rect y="3.90234" width="60" height="60" rx="30" transform="rotate(-3.72871 0 3.90234)" fill="white"/>
<path d="M39.4754 31.5777V28.3277M39.4754 28.3277V25.0777M39.4754 28.3277L42.7254 28.3277M39.4754 28.3277H36.2254M34.2754 25.0777V23.1277M34.2754 23.1277V21.1777M34.2754 23.1277L36.2254 23.1277M34.2754 23.1277L32.3254 23.1277M42.0753 35.0871C41.0978 35.3835 40.0608 35.5429 38.9865 35.5429C33.117 35.5429 28.3588 30.7848 28.3588 24.9153C28.3588 23.8414 28.5181 22.8048 28.8142 21.8277C24.4512 23.1509 21.2754 27.2044 21.2754 31.9996C21.2754 37.8691 26.0336 42.6272 31.9031 42.6272C36.6988 42.6272 40.7525 39.4508 42.0753 35.0871Z" stroke="#EB2C3E" stroke-width="2" stroke-linecap="round" stroke-linejoin="round"/>
<path d="M55.7297 72.5351L36.1508 57.437L36.3689 52.7159L54.8281 48.1616L55.7297 72.5351Z" fill="white"/>
</svg>
