<svg width="15" height="15" viewBox="0 0 15 15" fill="none" xmlns="http://www.w3.org/2000/svg">
<path d="M11.8125 7.3125V5.4375M11.8125 5.4375V3.5625M11.8125 5.4375L13.6875 5.4375M11.8125 5.4375H9.9375M8.8125 3.5625V2.4375M8.8125 2.4375V1.3125M8.8125 2.4375L9.9375 2.4375M8.8125 2.4375L7.6875 2.4375M13.3124 9.33714C12.7485 9.50816 12.1502 9.60012 11.5304 9.60012C8.14418 9.60012 5.39909 6.85502 5.39909 3.46877C5.39909 2.84926 5.49096 2.25121 5.66184 1.6875C3.14469 2.45086 1.3125 4.7894 1.3125 7.55587C1.3125 10.9421 4.0576 13.6872 7.44385 13.6872C10.2106 13.6872 12.5493 11.8547 13.3124 9.33714Z" stroke="#EB2C3E" stroke-width="1.2" stroke-linecap="round" stroke-linejoin="round"/>
</svg>
