<svg width="47" height="24" viewBox="0 0 47 24" fill="none" xmlns="http://www.w3.org/2000/svg">
<path d="M0 12C0 5.37258 5.37258 0 12 0H43C45.2091 0 47 1.79086 47 4V14C47 19.5228 42.5228 24 37 24H0V12Z" fill="#2396E6"/>
<path d="M17.9601 17H15.3001L11.9401 11.12V17H9.42008V7.2H12.0801L15.4401 13.08V7.2H17.9601V17ZM27.4166 17H19.6466V7.2H27.4166V9.16H22.1666V11.05H26.2966V13.01H22.1666V15.04H27.4166V17ZM35.6734 7.2L37.3534 13.5L38.8234 7.2H41.5534L38.8934 17H36.2334L34.5534 10.91L32.8734 17H30.2134L27.5534 7.2H30.2834L31.7534 13.5L33.4334 7.2H35.6734Z" fill="white"/>
</svg>
