<svg width="16" height="15" viewBox="0 0 16 15" fill="none" xmlns="http://www.w3.org/2000/svg">
<path d="M7.64665 0.455242C10.9403 0.240674 13.7844 2.73677 13.9992 6.03044C14.103 7.6227 13.5712 9.10844 12.6242 10.2443L12.7843 14.5568L9.6818 12.1642C9.27922 12.2792 8.85877 12.3546 8.42399 12.383C5.13017 12.5976 2.28611 10.1016 2.07145 6.80778C1.8569 3.51405 4.35289 0.669897 7.64665 0.455242Z" fill="#EB2C3E"/>
<path d="M5.58177 6.47863C5.58177 5.1236 6.68024 4.02513 8.03527 4.02513M9.61249 4.90138L8.03524 6.47863M11.5403 6.47863C11.5403 8.41439 9.97103 9.98363 8.03527 9.98363C6.09952 9.98363 4.53027 8.41439 4.53027 6.47863C4.53027 4.54287 6.09952 2.97363 8.03527 2.97363C9.97103 2.97363 11.5403 4.54287 11.5403 6.47863ZM8.38577 6.47863C8.38577 6.67221 8.22885 6.82913 8.03527 6.82913C7.8417 6.82913 7.68477 6.67221 7.68477 6.47863C7.68477 6.28506 7.8417 6.12813 8.03527 6.12813C8.22885 6.12813 8.38577 6.28506 8.38577 6.47863Z" stroke="white" stroke-width="0.7" stroke-linecap="round" stroke-linejoin="round"/>
</svg>
