<svg width="16" height="16" viewBox="0 0 16 16" fill="none" xmlns="http://www.w3.org/2000/svg">
<path d="M7.63493 1.34099C10.9287 1.12634 13.7727 3.62243 13.9875 6.91619C14.0912 8.50854 13.5596 9.99417 12.6125 11.1301L12.7726 15.4426L9.67009 13.05C9.26754 13.1649 8.84702 13.2404 8.41228 13.2687C5.1185 13.4833 2.27439 10.9873 2.05974 7.69353C1.84515 4.3998 4.34121 1.55571 7.63493 1.34099Z" fill="#EB2C3E"/>
<path d="M10.2246 7.30859V6.35156M10.2246 6.35156V5.39453M10.2246 6.35156L11.1816 6.35156M10.2246 6.35156H9.26758M8.69336 5.39453V4.82031M8.69336 4.82031V4.24609M8.69336 4.82031L9.26758 4.82031M8.69336 4.82031H8.11914M10.9902 8.342C10.7024 8.42929 10.397 8.47623 10.0806 8.47623C8.35224 8.47623 6.9511 7.07509 6.9511 5.34669C6.9511 5.03048 6.99799 4.72523 7.08521 4.4375C5.80042 4.82713 4.86523 6.02076 4.86523 7.43281C4.86523 9.16121 6.26638 10.5624 7.99478 10.5624C9.40697 10.5624 10.6007 9.62699 10.9902 8.342Z" stroke="white" stroke-width="0.8" stroke-linecap="round" stroke-linejoin="round"/>
</svg>
