<svg width="1159" height="628" viewBox="0 0 1159 628" fill="none" xmlns="http://www.w3.org/2000/svg">
<rect width="1114.77" height="628" fill="white"/>
<path d="M850.64 536.344V535.24L856.256 527.464H858V535.08H859.6V536.344H858V538.92H856.56V536.344H850.64ZM856.624 528.984L852.32 535.08H856.624V528.984ZM861.055 533.016C861.055 531.181 861.353 529.752 861.951 528.728C862.548 527.693 863.593 527.176 865.087 527.176C866.569 527.176 867.609 527.693 868.207 528.728C868.804 529.752 869.102 531.181 869.102 533.016C869.102 534.882 868.804 536.333 868.207 537.368C867.609 538.402 866.569 538.92 865.087 538.92C863.593 538.92 862.548 538.402 861.951 537.368C861.353 536.333 861.055 534.882 861.055 533.016ZM867.663 533.016C867.663 532.088 867.599 531.304 867.471 530.664C867.353 530.013 867.103 529.49 866.719 529.096C866.345 528.701 865.801 528.504 865.087 528.504C864.361 528.504 863.807 528.701 863.423 529.096C863.049 529.49 862.799 530.013 862.671 530.664C862.553 531.304 862.495 532.088 862.495 533.016C862.495 533.976 862.553 534.781 862.671 535.432C862.799 536.082 863.049 536.605 863.423 537C863.807 537.394 864.361 537.592 865.087 537.592C865.801 537.592 866.345 537.394 866.719 537C867.103 536.605 867.353 536.082 867.471 535.432C867.599 534.781 867.663 533.976 867.663 533.016Z" fill="#BAB5B5"/>
<path d="M1019.37 528.616H1013.75V532.264C1014 531.922 1014.36 531.645 1014.84 531.432C1015.32 531.208 1015.84 531.096 1016.39 531.096C1017.28 531.096 1018 531.282 1018.55 531.656C1019.11 532.018 1019.5 532.493 1019.74 533.08C1019.98 533.656 1020.1 534.269 1020.1 534.92C1020.1 535.688 1019.96 536.376 1019.67 536.984C1019.38 537.592 1018.94 538.072 1018.34 538.424C1017.76 538.776 1017.03 538.952 1016.15 538.952C1015.03 538.952 1014.13 538.664 1013.43 538.088C1012.74 537.512 1012.32 536.744 1012.17 535.784H1013.59C1013.73 536.392 1014.02 536.866 1014.47 537.208C1014.92 537.549 1015.49 537.72 1016.17 537.72C1017.01 537.72 1017.65 537.469 1018.07 536.968C1018.5 536.456 1018.71 535.784 1018.71 534.952C1018.71 534.12 1018.5 533.48 1018.07 533.032C1017.65 532.573 1017.02 532.344 1016.18 532.344C1015.62 532.344 1015.12 532.482 1014.7 532.76C1014.28 533.026 1013.98 533.394 1013.78 533.864H1012.41V527.336H1019.37V528.616ZM1022.04 533.016C1022.04 531.181 1022.34 529.752 1022.93 528.728C1023.53 527.693 1024.58 527.176 1026.07 527.176C1027.55 527.176 1028.59 527.693 1029.19 528.728C1029.79 529.752 1030.09 531.181 1030.09 533.016C1030.09 534.882 1029.79 536.333 1029.19 537.368C1028.59 538.402 1027.55 538.92 1026.07 538.92C1024.58 538.92 1023.53 538.402 1022.93 537.368C1022.34 536.333 1022.04 534.882 1022.04 533.016ZM1028.65 533.016C1028.65 532.088 1028.58 531.304 1028.45 530.664C1028.34 530.013 1028.09 529.49 1027.7 529.096C1027.33 528.701 1026.79 528.504 1026.07 528.504C1025.35 528.504 1024.79 528.701 1024.41 529.096C1024.03 529.49 1023.78 530.013 1023.65 530.664C1023.54 531.304 1023.48 532.088 1023.48 533.016C1023.48 533.976 1023.54 534.781 1023.65 535.432C1023.78 536.082 1024.03 536.605 1024.41 537C1024.79 537.394 1025.35 537.592 1026.07 537.592C1026.79 537.592 1027.33 537.394 1027.7 537C1028.09 536.605 1028.34 536.082 1028.45 535.432C1028.58 534.781 1028.65 533.976 1028.65 533.016Z" fill="#BAB5B5"/>
<path d="M686.96 530.264C687.035 529.282 687.413 528.514 688.096 527.96C688.779 527.405 689.664 527.128 690.752 527.128C691.477 527.128 692.101 527.261 692.624 527.528C693.157 527.784 693.557 528.136 693.824 528.584C694.101 529.032 694.24 529.538 694.24 530.104C694.24 530.765 694.048 531.336 693.664 531.816C693.291 532.296 692.8 532.605 692.192 532.744V532.824C692.885 532.994 693.435 533.33 693.84 533.832C694.245 534.333 694.448 534.989 694.448 535.8C694.448 536.408 694.309 536.957 694.032 537.448C693.755 537.928 693.339 538.306 692.784 538.584C692.229 538.861 691.563 539 690.784 539C689.653 539 688.725 538.706 688 538.12C687.275 537.522 686.869 536.68 686.784 535.592H688.192C688.267 536.232 688.528 536.754 688.976 537.16C689.424 537.565 690.021 537.768 690.768 537.768C691.515 537.768 692.08 537.576 692.464 537.192C692.859 536.797 693.056 536.29 693.056 535.672C693.056 534.872 692.789 534.296 692.256 533.944C691.723 533.592 690.917 533.416 689.84 533.416H689.472V532.2H689.856C690.837 532.189 691.579 532.029 692.08 531.72C692.581 531.4 692.832 530.909 692.832 530.248C692.832 529.682 692.645 529.229 692.272 528.888C691.909 528.546 691.387 528.376 690.704 528.376C690.043 528.376 689.509 528.546 689.104 528.888C688.699 529.229 688.459 529.688 688.384 530.264H686.96ZM696.414 533.016C696.414 531.181 696.713 529.752 697.31 528.728C697.907 527.693 698.953 527.176 700.446 527.176C701.929 527.176 702.969 527.693 703.566 528.728C704.163 529.752 704.462 531.181 704.462 533.016C704.462 534.882 704.163 536.333 703.566 537.368C702.969 538.402 701.929 538.92 700.446 538.92C698.953 538.92 697.907 538.402 697.31 537.368C696.713 536.333 696.414 534.882 696.414 533.016ZM703.022 533.016C703.022 532.088 702.958 531.304 702.83 530.664C702.713 530.013 702.462 529.49 702.078 529.096C701.705 528.701 701.161 528.504 700.446 528.504C699.721 528.504 699.166 528.701 698.782 529.096C698.409 529.49 698.158 530.013 698.03 530.664C697.913 531.304 697.854 532.088 697.854 533.016C697.854 533.976 697.913 534.781 698.03 535.432C698.158 536.082 698.409 536.605 698.782 537C699.166 537.394 699.721 537.592 700.446 537.592C701.161 537.592 701.705 537.394 702.078 537C702.462 536.605 702.713 536.082 702.83 535.432C702.958 534.781 703.022 533.976 703.022 533.016Z" fill="#BAB5B5"/>
<path d="M509.816 537.752C511.171 536.664 512.232 535.773 513 535.08C513.768 534.376 514.413 533.645 514.936 532.888C515.469 532.12 515.736 531.368 515.736 530.632C515.736 529.938 515.565 529.394 515.224 529C514.893 528.594 514.355 528.392 513.608 528.392C512.883 528.392 512.317 528.621 511.912 529.08C511.517 529.528 511.304 530.13 511.272 530.888H509.864C509.907 529.693 510.269 528.77 510.952 528.12C511.635 527.469 512.515 527.144 513.592 527.144C514.691 527.144 515.56 527.448 516.2 528.056C516.851 528.664 517.176 529.501 517.176 530.568C517.176 531.453 516.909 532.317 516.376 533.16C515.853 533.992 515.256 534.728 514.584 535.368C513.912 535.997 513.053 536.733 512.008 537.576H517.512V538.792H509.816V537.752ZM519.195 533.016C519.195 531.181 519.494 529.752 520.091 528.728C520.688 527.693 521.734 527.176 523.227 527.176C524.71 527.176 525.75 527.693 526.347 528.728C526.944 529.752 527.243 531.181 527.243 533.016C527.243 534.882 526.944 536.333 526.347 537.368C525.75 538.402 524.71 538.92 523.227 538.92C521.734 538.92 520.688 538.402 520.091 537.368C519.494 536.333 519.195 534.882 519.195 533.016ZM525.803 533.016C525.803 532.088 525.739 531.304 525.611 530.664C525.494 530.013 525.243 529.49 524.859 529.096C524.486 528.701 523.942 528.504 523.227 528.504C522.502 528.504 521.947 528.701 521.563 529.096C521.19 529.49 520.939 530.013 520.811 530.664C520.694 531.304 520.635 532.088 520.635 533.016C520.635 533.976 520.694 534.781 520.811 535.432C520.939 536.082 521.19 536.605 521.563 537C521.947 537.394 522.502 537.592 523.227 537.592C523.942 537.592 524.486 537.394 524.859 537C525.243 536.605 525.494 536.082 525.611 535.432C525.739 534.781 525.803 533.976 525.803 533.016Z" fill="#BAB5B5"/>
<path d="M91.288 513.518C90.2533 513.518 89.3093 513.278 88.456 512.798C87.6027 512.307 86.9253 511.63 86.424 510.766C85.9333 509.891 85.688 508.91 85.688 507.822C85.688 506.734 85.9333 505.758 86.424 504.894C86.9253 504.019 87.6027 503.342 88.456 502.862C89.3093 502.371 90.2533 502.126 91.288 502.126C92.3333 502.126 93.2827 502.371 94.136 502.862C94.9893 503.342 95.6613 504.014 96.152 504.878C96.6427 505.742 96.888 506.723 96.888 507.822C96.888 508.92 96.6427 509.902 96.152 510.766C95.6613 511.63 94.9893 512.307 94.136 512.798C93.2827 513.278 92.3333 513.518 91.288 513.518ZM91.288 512.254C92.0667 512.254 92.7653 512.072 93.384 511.71C94.0133 511.347 94.504 510.83 94.856 510.158C95.2187 509.486 95.4 508.707 95.4 507.822C95.4 506.926 95.2187 506.147 94.856 505.486C94.504 504.814 94.0187 504.296 93.4 503.934C92.7813 503.571 92.0773 503.39 91.288 503.39C90.4987 503.39 89.7947 503.571 89.176 503.934C88.5573 504.296 88.0667 504.814 87.704 505.486C87.352 506.147 87.176 506.926 87.176 507.822C87.176 508.707 87.352 509.486 87.704 510.158C88.0667 510.83 88.5573 511.347 89.176 511.71C89.8053 512.072 90.5093 512.254 91.288 512.254ZM98.2661 509.006C98.2661 508.099 98.4475 507.31 98.8101 506.638C99.1728 505.955 99.6741 505.427 100.314 505.054C100.965 504.68 101.706 504.494 102.538 504.494C103.615 504.494 104.501 504.755 105.194 505.278C105.898 505.8 106.362 506.526 106.586 507.454H105.018C104.869 506.92 104.575 506.499 104.138 506.19C103.711 505.88 103.178 505.726 102.538 505.726C101.706 505.726 101.034 506.014 100.522 506.59C100.01 507.155 99.7541 507.96 99.7541 509.006C99.7541 510.062 100.01 510.878 100.522 511.454C101.034 512.03 101.706 512.318 102.538 512.318C103.178 512.318 103.711 512.168 104.138 511.87C104.565 511.571 104.858 511.144 105.018 510.59H106.586C106.351 511.486 105.882 512.206 105.178 512.75C104.474 513.283 103.594 513.55 102.538 513.55C101.706 513.55 100.965 513.363 100.314 512.99C99.6741 512.616 99.1728 512.088 98.8101 511.406C98.4475 510.723 98.2661 509.923 98.2661 509.006ZM110.305 505.838V511.006C110.305 511.432 110.396 511.736 110.577 511.918C110.758 512.088 111.073 512.174 111.521 512.174H112.593V513.406H111.281C110.47 513.406 109.862 513.219 109.457 512.846C109.052 512.472 108.849 511.859 108.849 511.006V505.838H107.713V504.638H108.849V502.43H110.305V504.638H112.593V505.838H110.305ZM114.581 502.254H116.197L114.661 505.886H113.637L114.581 502.254ZM121.707 512.238C123.061 511.15 124.123 510.259 124.891 509.566C125.659 508.862 126.304 508.131 126.827 507.374C127.36 506.606 127.627 505.854 127.627 505.118C127.627 504.424 127.456 503.88 127.115 503.486C126.784 503.08 126.245 502.878 125.499 502.878C124.773 502.878 124.208 503.107 123.803 503.566C123.408 504.014 123.195 504.616 123.163 505.374H121.755C121.797 504.179 122.16 503.256 122.843 502.606C123.525 501.955 124.405 501.63 125.483 501.63C126.581 501.63 127.451 501.934 128.091 502.542C128.741 503.15 129.067 503.987 129.067 505.054C129.067 505.939 128.8 506.803 128.267 507.646C127.744 508.478 127.147 509.214 126.475 509.854C125.803 510.483 124.944 511.219 123.899 512.062H129.403V513.278H121.707V512.238ZM131.054 504.75C131.128 503.768 131.507 503 132.19 502.446C132.872 501.891 133.758 501.614 134.846 501.614C135.571 501.614 136.195 501.747 136.718 502.014C137.251 502.27 137.651 502.622 137.918 503.07C138.195 503.518 138.334 504.024 138.334 504.59C138.334 505.251 138.142 505.822 137.758 506.302C137.384 506.782 136.894 507.091 136.286 507.23V507.31C136.979 507.48 137.528 507.816 137.934 508.318C138.339 508.819 138.542 509.475 138.542 510.286C138.542 510.894 138.403 511.443 138.126 511.934C137.848 512.414 137.432 512.792 136.878 513.07C136.323 513.347 135.656 513.486 134.878 513.486C133.747 513.486 132.819 513.192 132.094 512.606C131.368 512.008 130.963 511.166 130.878 510.078H132.286C132.36 510.718 132.622 511.24 133.07 511.646C133.518 512.051 134.115 512.254 134.862 512.254C135.608 512.254 136.174 512.062 136.558 511.678C136.952 511.283 137.15 510.776 137.15 510.158C137.15 509.358 136.883 508.782 136.35 508.43C135.816 508.078 135.011 507.902 133.934 507.902H133.566V506.686H133.95C134.931 506.675 135.672 506.515 136.174 506.206C136.675 505.886 136.926 505.395 136.926 504.734C136.926 504.168 136.739 503.715 136.366 503.374C136.003 503.032 135.48 502.862 134.798 502.862C134.136 502.862 133.603 503.032 133.198 503.374C132.792 503.715 132.552 504.174 132.478 504.75H131.054Z" fill="#BAB5B5"/>
<path d="M95 397.646H93.544L87.688 388.766V397.646H86.232V386.478H87.688L93.544 395.342V386.478H95V397.646ZM101.306 397.79C100.485 397.79 99.738 397.603 99.066 397.23C98.4047 396.857 97.882 396.329 97.498 395.646C97.1247 394.953 96.938 394.153 96.938 393.246C96.938 392.35 97.13 391.561 97.514 390.878C97.9087 390.185 98.442 389.657 99.114 389.294C99.786 388.921 100.538 388.734 101.37 388.734C102.202 388.734 102.954 388.921 103.626 389.294C104.298 389.657 104.826 390.179 105.21 390.862C105.605 391.545 105.802 392.339 105.802 393.246C105.802 394.153 105.599 394.953 105.194 395.646C104.799 396.329 104.261 396.857 103.578 397.23C102.895 397.603 102.138 397.79 101.306 397.79ZM101.306 396.51C101.829 396.51 102.319 396.387 102.778 396.142C103.237 395.897 103.605 395.529 103.882 395.038C104.17 394.547 104.314 393.95 104.314 393.246C104.314 392.542 104.175 391.945 103.898 391.454C103.621 390.963 103.258 390.601 102.81 390.366C102.362 390.121 101.877 389.998 101.354 389.998C100.821 389.998 100.33 390.121 99.882 390.366C99.4447 390.601 99.0927 390.963 98.826 391.454C98.5593 391.945 98.426 392.542 98.426 393.246C98.426 393.961 98.554 394.563 98.81 395.054C99.0767 395.545 99.4287 395.913 99.866 396.158C100.303 396.393 100.783 396.51 101.306 396.51ZM110.98 396.302L113.7 388.878H115.252L111.812 397.646H110.116L106.676 388.878H108.244L110.98 396.302ZM116.909 386.494H118.525L116.989 390.126H115.965L116.909 386.494ZM124.035 396.478C125.389 395.39 126.451 394.499 127.219 393.806C127.987 393.102 128.632 392.371 129.155 391.614C129.688 390.846 129.955 390.094 129.955 389.358C129.955 388.665 129.784 388.121 129.443 387.726C129.112 387.321 128.573 387.118 127.827 387.118C127.101 387.118 126.536 387.347 126.131 387.806C125.736 388.254 125.523 388.857 125.491 389.614H124.083C124.125 388.419 124.488 387.497 125.171 386.846C125.853 386.195 126.733 385.87 127.811 385.87C128.909 385.87 129.779 386.174 130.419 386.782C131.069 387.39 131.395 388.227 131.395 389.294C131.395 390.179 131.128 391.043 130.595 391.886C130.072 392.718 129.475 393.454 128.803 394.094C128.131 394.723 127.272 395.459 126.227 396.302H131.731V397.518H124.035V396.478ZM133.382 388.99C133.457 388.009 133.835 387.241 134.518 386.686C135.201 386.131 136.086 385.854 137.174 385.854C137.899 385.854 138.523 385.987 139.046 386.254C139.579 386.51 139.979 386.862 140.246 387.31C140.523 387.758 140.662 388.265 140.662 388.83C140.662 389.491 140.47 390.062 140.086 390.542C139.713 391.022 139.222 391.331 138.614 391.47V391.55C139.307 391.721 139.857 392.057 140.262 392.558C140.667 393.059 140.87 393.715 140.87 394.526C140.87 395.134 140.731 395.683 140.454 396.174C140.177 396.654 139.761 397.033 139.206 397.31C138.651 397.587 137.985 397.726 137.206 397.726C136.075 397.726 135.147 397.433 134.422 396.846C133.697 396.249 133.291 395.406 133.206 394.318H134.614C134.689 394.958 134.95 395.481 135.398 395.886C135.846 396.291 136.443 396.494 137.19 396.494C137.937 396.494 138.502 396.302 138.886 395.918C139.281 395.523 139.478 395.017 139.478 394.398C139.478 393.598 139.211 393.022 138.678 392.67C138.145 392.318 137.339 392.142 136.262 392.142H135.894V390.926H136.278C137.259 390.915 138.001 390.755 138.502 390.446C139.003 390.126 139.254 389.635 139.254 388.974C139.254 388.409 139.067 387.955 138.694 387.614C138.331 387.273 137.809 387.102 137.126 387.102C136.465 387.102 135.931 387.273 135.526 387.614C135.121 387.955 134.881 388.414 134.806 388.99H133.382Z" fill="#BAB5B5"/>
<path d="M88.822 276.381C89.81 276.381 90.6637 276.567 91.383 276.94C92.111 277.304 92.6657 277.828 93.047 278.513C93.437 279.198 93.632 280.004 93.632 280.931C93.632 281.858 93.437 282.664 93.047 283.349C92.6657 284.025 92.111 284.545 91.383 284.909C90.6637 285.264 89.81 285.442 88.822 285.442H86.001V276.381H88.822ZM88.822 284.467C89.992 284.467 90.8847 284.159 91.5 283.544C92.1153 282.92 92.423 282.049 92.423 280.931C92.423 279.804 92.111 278.925 91.487 278.292C90.8717 277.659 89.9833 277.343 88.822 277.343H87.184V284.467H88.822ZM101.692 281.607C101.692 281.832 101.679 282.071 101.653 282.322H95.9594C96.0027 283.024 96.2411 283.574 96.6744 283.973C97.1164 284.363 97.6494 284.558 98.2734 284.558C98.7847 284.558 99.2094 284.441 99.5474 284.207C99.8941 283.964 100.137 283.644 100.275 283.245H101.549C101.359 283.93 100.977 284.489 100.405 284.922C99.8334 285.347 99.1227 285.559 98.2734 285.559C97.5974 285.559 96.9907 285.407 96.4534 285.104C95.9247 284.801 95.5087 284.372 95.2054 283.817C94.9021 283.254 94.7504 282.604 94.7504 281.867C94.7504 281.13 94.8977 280.485 95.1924 279.93C95.4871 279.375 95.8987 278.951 96.4274 278.656C96.9647 278.353 97.5801 278.201 98.2734 278.201C98.9494 278.201 99.5474 278.348 100.067 278.643C100.587 278.938 100.986 279.345 101.263 279.865C101.549 280.376 101.692 280.957 101.692 281.607ZM100.47 281.36C100.47 280.909 100.371 280.524 100.171 280.203C99.9721 279.874 99.6991 279.627 99.3524 279.462C99.0144 279.289 98.6374 279.202 98.2214 279.202C97.6234 279.202 97.1121 279.393 96.6874 279.774C96.2714 280.155 96.0331 280.684 95.9724 281.36H100.47ZM102.812 281.867C102.812 281.13 102.959 280.489 103.254 279.943C103.549 279.388 103.956 278.959 104.476 278.656C105.005 278.353 105.607 278.201 106.283 278.201C107.158 278.201 107.878 278.413 108.441 278.838C109.013 279.263 109.39 279.852 109.572 280.606H108.298C108.177 280.173 107.938 279.83 107.583 279.579C107.236 279.328 106.803 279.202 106.283 279.202C105.607 279.202 105.061 279.436 104.645 279.904C104.229 280.363 104.021 281.018 104.021 281.867C104.021 282.725 104.229 283.388 104.645 283.856C105.061 284.324 105.607 284.558 106.283 284.558C106.803 284.558 107.236 284.437 107.583 284.194C107.93 283.951 108.168 283.605 108.298 283.154H109.572C109.381 283.882 109 284.467 108.428 284.909C107.856 285.342 107.141 285.559 106.283 285.559C105.607 285.559 105.005 285.407 104.476 285.104C103.956 284.801 103.549 284.372 103.254 283.817C102.959 283.262 102.812 282.612 102.812 281.867ZM111.332 276.381H112.645L111.397 279.332H110.565L111.332 276.381ZM117.122 284.493C118.223 283.609 119.085 282.885 119.709 282.322C120.333 281.75 120.857 281.156 121.282 280.541C121.715 279.917 121.932 279.306 121.932 278.708C121.932 278.145 121.793 277.703 121.516 277.382C121.247 277.053 120.81 276.888 120.203 276.888C119.614 276.888 119.154 277.074 118.825 277.447C118.504 277.811 118.331 278.301 118.305 278.916H117.161C117.196 277.945 117.49 277.196 118.045 276.667C118.6 276.138 119.315 275.874 120.19 275.874C121.083 275.874 121.789 276.121 122.309 276.615C122.838 277.109 123.102 277.789 123.102 278.656C123.102 279.375 122.885 280.077 122.452 280.762C122.027 281.438 121.542 282.036 120.996 282.556C120.45 283.067 119.752 283.665 118.903 284.35H123.375V285.338H117.122V284.493ZM124.717 278.409C124.777 277.612 125.085 276.988 125.64 276.537C126.194 276.086 126.914 275.861 127.798 275.861C128.387 275.861 128.894 275.969 129.319 276.186C129.752 276.394 130.077 276.68 130.294 277.044C130.519 277.408 130.632 277.82 130.632 278.279C130.632 278.816 130.476 279.28 130.164 279.67C129.86 280.06 129.462 280.311 128.968 280.424V280.489C129.531 280.628 129.977 280.901 130.307 281.308C130.636 281.715 130.801 282.248 130.801 282.907C130.801 283.401 130.688 283.847 130.463 284.246C130.237 284.636 129.899 284.944 129.449 285.169C128.998 285.394 128.456 285.507 127.824 285.507C126.905 285.507 126.151 285.269 125.562 284.792C124.972 284.307 124.643 283.622 124.574 282.738H125.718C125.778 283.258 125.991 283.683 126.355 284.012C126.719 284.341 127.204 284.506 127.811 284.506C128.417 284.506 128.877 284.35 129.189 284.038C129.509 283.717 129.67 283.306 129.67 282.803C129.67 282.153 129.453 281.685 129.02 281.399C128.586 281.113 127.932 280.97 127.057 280.97H126.758V279.982H127.07C127.867 279.973 128.469 279.843 128.877 279.592C129.284 279.332 129.488 278.933 129.488 278.396C129.488 277.937 129.336 277.568 129.033 277.291C128.738 277.014 128.313 276.875 127.759 276.875C127.221 276.875 126.788 277.014 126.459 277.291C126.129 277.568 125.934 277.941 125.874 278.409H124.717Z" fill="#BAB5B5"/>
<path d="M91.848 159.382V167.622C91.848 168.539 91.5653 169.275 91 169.83C90.4347 170.374 89.688 170.646 88.76 170.646C87.8213 170.646 87.0693 170.368 86.504 169.814C85.9387 169.248 85.656 168.48 85.656 167.51H87.112C87.1227 168.054 87.2613 168.496 87.528 168.838C87.8053 169.179 88.216 169.35 88.76 169.35C89.304 169.35 89.7093 169.19 89.976 168.87C90.2427 168.539 90.376 168.123 90.376 167.622V159.382H91.848ZM94.1724 166.118C94.1724 165.222 94.3537 164.438 94.7164 163.766C95.079 163.083 95.575 162.555 96.2044 162.182C96.8444 161.808 97.5537 161.622 98.3324 161.622C99.1004 161.622 99.767 161.787 100.332 162.118C100.898 162.448 101.319 162.864 101.596 163.366V161.766H103.068V170.534H101.596V168.902C101.308 169.414 100.876 169.84 100.3 170.182C99.735 170.512 99.0737 170.678 98.3164 170.678C97.5377 170.678 96.8337 170.486 96.2044 170.102C95.575 169.718 95.079 169.179 94.7164 168.486C94.3537 167.792 94.1724 167.003 94.1724 166.118ZM101.596 166.134C101.596 165.472 101.463 164.896 101.196 164.406C100.93 163.915 100.567 163.542 100.108 163.286C99.6604 163.019 99.1644 162.886 98.6204 162.886C98.0764 162.886 97.5804 163.014 97.1324 163.27C96.6844 163.526 96.327 163.899 96.0604 164.39C95.7937 164.88 95.6604 165.456 95.6604 166.118C95.6604 166.79 95.7937 167.376 96.0604 167.878C96.327 168.368 96.6844 168.747 97.1324 169.014C97.5804 169.27 98.0764 169.398 98.6204 169.398C99.1644 169.398 99.6604 169.27 100.108 169.014C100.567 168.747 100.93 168.368 101.196 167.878C101.463 167.376 101.596 166.795 101.596 166.134ZM109.801 161.606C110.868 161.606 111.732 161.931 112.393 162.582C113.054 163.222 113.385 164.15 113.385 165.366V170.534H111.945V165.574C111.945 164.699 111.726 164.032 111.289 163.574C110.852 163.104 110.254 162.87 109.497 162.87C108.729 162.87 108.116 163.11 107.657 163.59C107.209 164.07 106.985 164.768 106.985 165.686V170.534H105.529V161.766H106.985V163.014C107.273 162.566 107.662 162.219 108.153 161.974C108.654 161.728 109.204 161.606 109.801 161.606ZM115.987 159.382H117.603L116.067 163.014H115.043L115.987 159.382ZM123.113 169.366C124.468 168.278 125.529 167.387 126.297 166.694C127.065 165.99 127.71 165.259 128.233 164.502C128.766 163.734 129.033 162.982 129.033 162.246C129.033 161.552 128.862 161.008 128.521 160.614C128.19 160.208 127.652 160.006 126.905 160.006C126.18 160.006 125.614 160.235 125.209 160.694C124.814 161.142 124.601 161.744 124.569 162.502H123.161C123.204 161.307 123.566 160.384 124.249 159.734C124.932 159.083 125.812 158.758 126.889 158.758C127.988 158.758 128.857 159.062 129.497 159.67C130.148 160.278 130.473 161.115 130.473 162.182C130.473 163.067 130.206 163.931 129.673 164.774C129.15 165.606 128.553 166.342 127.881 166.982C127.209 167.611 126.35 168.347 125.305 169.19H130.809V170.406H123.113V169.366ZM132.14 167.958V166.854L137.756 159.078H139.5V166.694H141.1V167.958H139.5V170.534H138.06V167.958H132.14ZM138.124 160.598L133.82 166.694H138.124V160.598Z" fill="#BAB5B5"/>
<path d="M92.536 54.011V55.195H87.688V58.955H91.624V60.139H87.688V65.163H86.232V54.011H92.536ZM102.295 60.443C102.295 60.7204 102.279 61.0137 102.247 61.323H95.2385C95.2918 62.187 95.5852 62.8644 96.1185 63.355C96.6625 63.835 97.3185 64.075 98.0865 64.075C98.7158 64.075 99.2385 63.931 99.6545 63.643C100.081 63.3444 100.38 62.9497 100.551 62.459H102.119C101.884 63.3017 101.415 63.9897 100.711 64.523C100.007 65.0457 99.1318 65.307 98.0865 65.307C97.2545 65.307 96.5078 65.1204 95.8465 64.747C95.1958 64.3737 94.6838 63.8457 94.3105 63.163C93.9372 62.4697 93.7505 61.6697 93.7505 60.763C93.7505 59.8564 93.9318 59.0617 94.2945 58.379C94.6572 57.6964 95.1638 57.1737 95.8145 56.811C96.4758 56.4377 97.2332 56.251 98.0865 56.251C98.9185 56.251 99.6545 56.4324 100.295 56.795C100.935 57.1577 101.425 57.659 101.767 58.299C102.119 58.9284 102.295 59.643 102.295 60.443ZM100.791 60.139C100.791 59.5844 100.668 59.1097 100.423 58.715C100.177 58.3097 99.8412 58.0057 99.4145 57.803C98.9985 57.5897 98.5345 57.483 98.0225 57.483C97.2865 57.483 96.6572 57.7177 96.1345 58.187C95.6225 58.6564 95.3292 59.307 95.2545 60.139H100.791ZM105.672 58.027C105.971 57.5044 106.408 57.0777 106.984 56.747C107.56 56.4164 108.216 56.251 108.952 56.251C109.742 56.251 110.451 56.4377 111.08 56.811C111.71 57.1844 112.206 57.7124 112.568 58.395C112.931 59.067 113.112 59.851 113.112 60.747C113.112 61.6324 112.931 62.4217 112.568 63.115C112.206 63.8084 111.704 64.347 111.064 64.731C110.435 65.115 109.731 65.307 108.952 65.307C108.195 65.307 107.528 65.1417 106.952 64.811C106.387 64.4804 105.96 64.059 105.672 63.547V65.163H104.216V53.323H105.672V58.027ZM111.624 60.747C111.624 60.0857 111.491 59.5097 111.224 59.019C110.958 58.5284 110.595 58.155 110.136 57.899C109.688 57.643 109.192 57.515 108.648 57.515C108.115 57.515 107.619 57.6484 107.16 57.915C106.712 58.171 106.35 58.5497 106.072 59.051C105.806 59.5417 105.672 60.1124 105.672 60.763C105.672 61.4244 105.806 62.0057 106.072 62.507C106.35 62.9977 106.712 63.3764 107.16 63.643C107.619 63.899 108.115 64.027 108.648 64.027C109.192 64.027 109.688 63.899 110.136 63.643C110.595 63.3764 110.958 62.9977 111.224 62.507C111.491 62.0057 111.624 61.419 111.624 60.747ZM115.253 54.011H116.869L115.333 57.643H114.309L115.253 54.011ZM122.379 63.995C123.733 62.907 124.795 62.0164 125.562 61.323C126.331 60.619 126.976 59.8884 127.499 59.131C128.032 58.363 128.299 57.611 128.299 56.875C128.299 56.1817 128.128 55.6377 127.787 55.243C127.456 54.8377 126.917 54.635 126.171 54.635C125.445 54.635 124.88 54.8644 124.475 55.323C124.08 55.771 123.867 56.3737 123.835 57.131H122.427C122.469 55.9364 122.832 55.0137 123.515 54.363C124.197 53.7124 125.077 53.387 126.155 53.387C127.253 53.387 128.123 53.691 128.763 54.299C129.413 54.907 129.739 55.7444 129.739 56.811C129.739 57.6964 129.472 58.5604 128.939 59.403C128.416 60.235 127.819 60.971 127.147 61.611C126.475 62.2404 125.616 62.9764 124.571 63.819H130.075V65.035H122.379V63.995ZM131.406 62.587V61.483L137.022 53.707H138.766V61.323H140.366V62.587H138.766V65.163H137.326V62.587H131.406ZM137.39 55.227L133.086 61.323H137.39V55.227Z" fill="#BAB5B5"/>
<path d="M144.924 533.272C144.924 531.438 145.223 530.008 145.82 528.984C146.417 527.95 147.463 527.432 148.956 527.432C150.439 527.432 151.479 527.95 152.076 528.984C152.673 530.008 152.972 531.438 152.972 533.272C152.972 535.139 152.673 536.59 152.076 537.624C151.479 538.659 150.439 539.176 148.956 539.176C147.463 539.176 146.417 538.659 145.82 537.624C145.223 536.59 144.924 535.139 144.924 533.272ZM151.532 533.272C151.532 532.344 151.468 531.56 151.34 530.92C151.223 530.27 150.972 529.747 150.588 529.352C150.215 528.958 149.671 528.76 148.956 528.76C148.231 528.76 147.676 528.958 147.292 529.352C146.919 529.747 146.668 530.27 146.54 530.92C146.423 531.56 146.364 532.344 146.364 533.272C146.364 534.232 146.423 535.038 146.54 535.688C146.668 536.339 146.919 536.862 147.292 537.256C147.676 537.651 148.231 537.848 148.956 537.848C149.671 537.848 150.215 537.651 150.588 537.256C150.972 536.862 151.223 536.339 151.34 535.688C151.468 535.038 151.532 534.232 151.532 533.272Z" fill="#BAB5B5"/>
<path d="M308.608 528.68V527.352H311.616V538.92H310.144V528.68H308.608ZM314.117 533.016C314.117 531.181 314.416 529.752 315.013 528.728C315.61 527.693 316.656 527.176 318.149 527.176C319.632 527.176 320.672 527.693 321.269 528.728C321.866 529.752 322.165 531.181 322.165 533.016C322.165 534.882 321.866 536.333 321.269 537.368C320.672 538.402 319.632 538.92 318.149 538.92C316.656 538.92 315.61 538.402 315.013 537.368C314.416 536.333 314.117 534.882 314.117 533.016ZM320.725 533.016C320.725 532.088 320.661 531.304 320.533 530.664C320.416 530.013 320.165 529.49 319.781 529.096C319.408 528.701 318.864 528.504 318.149 528.504C317.424 528.504 316.869 528.701 316.485 529.096C316.112 529.49 315.861 530.013 315.733 530.664C315.616 531.304 315.557 532.088 315.557 533.016C315.557 533.976 315.616 534.781 315.733 535.432C315.861 536.082 316.112 536.605 316.485 537C316.869 537.394 317.424 537.592 318.149 537.592C318.864 537.592 319.408 537.394 319.781 537C320.165 536.605 320.416 536.082 320.533 535.432C320.661 534.781 320.725 533.976 320.725 533.016Z" fill="#BAB5B5"/>
<path d="M435.25 297.329H430.7L412.4 269.579V297.329H407.85V262.429H412.4L430.7 290.129V262.429H435.25V297.329ZM454.956 297.779C452.39 297.779 450.056 297.196 447.956 296.029C445.89 294.863 444.256 293.213 443.056 291.079C441.89 288.913 441.306 286.413 441.306 283.579C441.306 280.779 441.906 278.313 443.106 276.179C444.34 274.013 446.006 272.363 448.106 271.229C450.206 270.063 452.556 269.479 455.156 269.479C457.756 269.479 460.106 270.063 462.206 271.229C464.306 272.363 465.956 273.996 467.156 276.129C468.39 278.263 469.006 280.746 469.006 283.579C469.006 286.413 468.373 288.913 467.106 291.079C465.873 293.213 464.19 294.863 462.056 296.029C459.923 297.196 457.556 297.779 454.956 297.779ZM454.956 293.779C456.59 293.779 458.123 293.396 459.556 292.629C460.99 291.863 462.14 290.713 463.006 289.179C463.906 287.646 464.356 285.779 464.356 283.579C464.356 281.379 463.923 279.513 463.056 277.979C462.19 276.446 461.056 275.313 459.656 274.579C458.256 273.813 456.74 273.429 455.106 273.429C453.44 273.429 451.906 273.813 450.506 274.579C449.14 275.313 448.04 276.446 447.206 277.979C446.373 279.513 445.956 281.379 445.956 283.579C445.956 285.813 446.356 287.696 447.156 289.229C447.99 290.763 449.09 291.913 450.456 292.679C451.823 293.413 453.323 293.779 454.956 293.779ZM499.169 262.479C502.969 262.479 506.252 263.196 509.019 264.629C511.819 266.029 513.952 268.046 515.419 270.679C516.919 273.313 517.669 276.413 517.669 279.979C517.669 283.546 516.919 286.646 515.419 289.279C513.952 291.879 511.819 293.879 509.019 295.279C506.252 296.646 502.969 297.329 499.169 297.329H488.319V262.479H499.169ZM499.169 293.579C503.669 293.579 507.102 292.396 509.469 290.029C511.835 287.629 513.019 284.279 513.019 279.979C513.019 275.646 511.819 272.263 509.419 269.829C507.052 267.396 503.635 266.179 499.169 266.179H492.869V293.579H499.169ZM521.97 283.529C521.97 280.729 522.537 278.279 523.67 276.179C524.804 274.046 526.354 272.396 528.32 271.229C530.32 270.063 532.537 269.479 534.97 269.479C537.37 269.479 539.454 269.996 541.22 271.029C542.987 272.063 544.304 273.363 545.17 274.929V269.929H549.77V297.329H545.17V292.229C544.27 293.829 542.92 295.163 541.12 296.229C539.354 297.263 537.287 297.779 534.92 297.779C532.487 297.779 530.287 297.179 528.32 295.979C526.354 294.779 524.804 293.096 523.67 290.929C522.537 288.763 521.97 286.296 521.97 283.529ZM545.17 283.579C545.17 281.513 544.754 279.713 543.92 278.179C543.087 276.646 541.954 275.479 540.52 274.679C539.12 273.846 537.57 273.429 535.87 273.429C534.17 273.429 532.62 273.829 531.22 274.629C529.82 275.429 528.704 276.596 527.87 278.129C527.037 279.663 526.62 281.463 526.62 283.529C526.62 285.629 527.037 287.463 527.87 289.029C528.704 290.563 529.82 291.746 531.22 292.579C532.62 293.379 534.17 293.779 535.87 293.779C537.57 293.779 539.12 293.379 540.52 292.579C541.954 291.746 543.087 290.563 543.92 289.029C544.754 287.463 545.17 285.646 545.17 283.579ZM563.009 273.679V289.829C563.009 291.163 563.293 292.113 563.859 292.679C564.426 293.213 565.409 293.479 566.809 293.479H570.159V297.329H566.059C563.526 297.329 561.626 296.746 560.359 295.579C559.093 294.413 558.459 292.496 558.459 289.829V273.679H554.909V269.929H558.459V263.029H563.009V269.929H570.159V273.679H563.009ZM573.972 283.529C573.972 280.729 574.539 278.279 575.672 276.179C576.806 274.046 578.356 272.396 580.322 271.229C582.322 270.063 584.539 269.479 586.972 269.479C589.372 269.479 591.456 269.996 593.222 271.029C594.989 272.063 596.306 273.363 597.172 274.929V269.929H601.772V297.329H597.172V292.229C596.272 293.829 594.922 295.163 593.122 296.229C591.356 297.263 589.289 297.779 586.922 297.779C584.489 297.779 582.289 297.179 580.322 295.979C578.356 294.779 576.806 293.096 575.672 290.929C574.539 288.763 573.972 286.296 573.972 283.529ZM597.172 283.579C597.172 281.513 596.756 279.713 595.922 278.179C595.089 276.646 593.956 275.479 592.522 274.679C591.122 273.846 589.572 273.429 587.872 273.429C586.172 273.429 584.622 273.829 583.222 274.629C581.822 275.429 580.706 276.596 579.872 278.129C579.039 279.663 578.622 281.463 578.622 283.529C578.622 285.629 579.039 287.463 579.872 289.029C580.706 290.563 581.822 291.746 583.222 292.579C584.622 293.379 586.172 293.779 587.872 293.779C589.572 293.779 591.122 293.379 592.522 292.579C593.956 291.746 595.089 290.563 595.922 289.029C596.756 287.463 597.172 285.646 597.172 283.579ZM642.491 262.479V266.179H627.341V277.929H639.641V281.629H627.341V297.329H622.791V262.479H642.491ZM659.937 297.779C657.37 297.779 655.037 297.196 652.937 296.029C650.87 294.863 649.237 293.213 648.037 291.079C646.87 288.913 646.287 286.413 646.287 283.579C646.287 280.779 646.887 278.313 648.087 276.179C649.32 274.013 650.987 272.363 653.087 271.229C655.187 270.063 657.537 269.479 660.137 269.479C662.737 269.479 665.087 270.063 667.187 271.229C669.287 272.363 670.937 273.996 672.137 276.129C673.37 278.263 673.987 280.746 673.987 283.579C673.987 286.413 673.353 288.913 672.087 291.079C670.853 293.213 669.17 294.863 667.037 296.029C664.903 297.196 662.537 297.779 659.937 297.779ZM659.937 293.779C661.57 293.779 663.103 293.396 664.537 292.629C665.97 291.863 667.12 290.713 667.987 289.179C668.887 287.646 669.337 285.779 669.337 283.579C669.337 281.379 668.903 279.513 668.037 277.979C667.17 276.446 666.037 275.313 664.637 274.579C663.237 273.813 661.72 273.429 660.087 273.429C658.42 273.429 656.887 273.813 655.487 274.579C654.12 275.313 653.02 276.446 652.187 277.979C651.353 279.513 650.937 281.379 650.937 283.579C650.937 285.813 651.337 287.696 652.137 289.229C652.97 290.763 654.07 291.913 655.437 292.679C656.803 293.413 658.303 293.779 659.937 293.779ZM704.269 269.929V297.329H699.719V293.279C698.852 294.679 697.636 295.779 696.069 296.579C694.536 297.346 692.836 297.729 690.969 297.729C688.836 297.729 686.919 297.296 685.219 296.429C683.519 295.529 682.169 294.196 681.169 292.429C680.202 290.663 679.719 288.513 679.719 285.979V269.929H684.219V285.379C684.219 288.079 684.902 290.163 686.269 291.629C687.636 293.063 689.502 293.779 691.869 293.779C694.302 293.779 696.219 293.029 697.619 291.529C699.019 290.029 699.719 287.846 699.719 284.979V269.929H704.269ZM725.302 269.429C728.635 269.429 731.335 270.446 733.402 272.479C735.468 274.479 736.502 277.379 736.502 281.179V297.329H732.002V281.829C732.002 279.096 731.318 277.013 729.952 275.579C728.585 274.113 726.718 273.379 724.352 273.379C721.952 273.379 720.035 274.129 718.602 275.629C717.202 277.129 716.502 279.313 716.502 282.179V297.329H711.952V269.929H716.502V273.829C717.402 272.429 718.618 271.346 720.152 270.579C721.718 269.813 723.435 269.429 725.302 269.429ZM742.234 283.529C742.234 280.729 742.801 278.279 743.934 276.179C745.067 274.046 746.617 272.396 748.584 271.229C750.584 270.063 752.817 269.479 755.284 269.479C757.417 269.479 759.401 269.979 761.234 270.979C763.067 271.946 764.467 273.229 765.434 274.829V260.329H770.034V297.329H765.434V292.179C764.534 293.813 763.201 295.163 761.434 296.229C759.667 297.263 757.601 297.779 755.234 297.779C752.801 297.779 750.584 297.179 748.584 295.979C746.617 294.779 745.067 293.096 743.934 290.929C742.801 288.763 742.234 286.296 742.234 283.529ZM765.434 283.579C765.434 281.513 765.017 279.713 764.184 278.179C763.351 276.646 762.217 275.479 760.784 274.679C759.384 273.846 757.834 273.429 756.134 273.429C754.434 273.429 752.884 273.829 751.484 274.629C750.084 275.429 748.967 276.596 748.134 278.129C747.301 279.663 746.884 281.463 746.884 283.529C746.884 285.629 747.301 287.463 748.134 289.029C748.967 290.563 750.084 291.746 751.484 292.579C752.884 293.379 754.434 293.779 756.134 293.779C757.834 293.779 759.384 293.379 760.784 292.579C762.217 291.746 763.351 290.563 764.184 289.029C765.017 287.463 765.434 285.646 765.434 283.579Z" fill="#BAB5B5"/>
<path d="M579.132 553.819L574.434 566.329H572.058L567.342 553.819H569.538L573.246 564.223L576.972 553.819H579.132ZM589.938 561.127C589.938 561.499 589.914 561.835 589.866 562.135H582.288C582.348 562.927 582.642 563.563 583.17 564.043C583.698 564.523 584.346 564.763 585.114 564.763C586.218 564.763 586.998 564.301 587.454 563.377H589.668C589.368 564.289 588.822 565.039 588.03 565.627C587.25 566.203 586.278 566.491 585.114 566.491C584.166 566.491 583.314 566.281 582.558 565.861C581.814 565.429 581.226 564.829 580.794 564.061C580.374 563.281 580.164 562.381 580.164 561.361C580.164 560.341 580.368 559.447 580.776 558.679C581.196 557.899 581.778 557.299 582.522 556.879C583.278 556.459 584.142 556.249 585.114 556.249C586.05 556.249 586.884 556.453 587.616 556.861C588.348 557.269 588.918 557.845 589.326 558.589C589.734 559.321 589.938 560.167 589.938 561.127ZM587.796 560.479C587.784 559.723 587.514 559.117 586.986 558.661C586.458 558.205 585.804 557.977 585.024 557.977C584.316 557.977 583.71 558.205 583.206 558.661C582.702 559.105 582.402 559.711 582.306 560.479H587.796ZM597.087 556.249C597.843 556.249 598.515 556.411 599.103 556.735C599.703 557.059 600.171 557.539 600.507 558.175C600.855 558.811 601.029 559.579 601.029 560.479V566.329H598.995V560.785C598.995 559.897 598.773 559.219 598.329 558.751C597.885 558.271 597.279 558.031 596.511 558.031C595.743 558.031 595.131 558.271 594.675 558.751C594.231 559.219 594.009 559.897 594.009 560.785V566.329H591.957V553.009H594.009V557.563C594.357 557.143 594.795 556.819 595.323 556.591C595.863 556.363 596.451 556.249 597.087 556.249ZM604.691 555.097C604.319 555.097 604.007 554.971 603.755 554.719C603.503 554.467 603.377 554.155 603.377 553.783C603.377 553.411 603.503 553.099 603.755 552.847C604.007 552.595 604.319 552.469 604.691 552.469C605.051 552.469 605.357 552.595 605.609 552.847C605.861 553.099 605.987 553.411 605.987 553.783C605.987 554.155 605.861 554.467 605.609 554.719C605.357 554.971 605.051 555.097 604.691 555.097ZM605.699 556.411V566.329H603.647V556.411H605.699ZM607.709 561.361C607.709 560.341 607.913 559.447 608.321 558.679C608.741 557.899 609.317 557.299 610.049 556.879C610.781 556.459 611.621 556.249 612.569 556.249C613.769 556.249 614.759 556.537 615.539 557.113C616.331 557.677 616.865 558.487 617.141 559.543H614.927C614.747 559.051 614.459 558.667 614.063 558.391C613.667 558.115 613.169 557.977 612.569 557.977C611.729 557.977 611.057 558.277 610.553 558.877C610.061 559.465 609.815 560.293 609.815 561.361C609.815 562.429 610.061 563.263 610.553 563.863C611.057 564.463 611.729 564.763 612.569 564.763C613.757 564.763 614.543 564.241 614.927 563.197H617.141C616.853 564.205 616.313 565.009 615.521 565.609C614.729 566.197 613.745 566.491 612.569 566.491C611.621 566.491 610.781 566.281 610.049 565.861C609.317 565.429 608.741 564.829 608.321 564.061C607.913 563.281 607.709 562.381 607.709 561.361ZM621.238 553.009V566.329H619.186V553.009H621.238ZM633.022 561.127C633.022 561.499 632.998 561.835 632.95 562.135H625.372C625.432 562.927 625.726 563.563 626.254 564.043C626.782 564.523 627.43 564.763 628.198 564.763C629.302 564.763 630.082 564.301 630.538 563.377H632.752C632.452 564.289 631.906 565.039 631.114 565.627C630.334 566.203 629.362 566.491 628.198 566.491C627.25 566.491 626.398 566.281 625.642 565.861C624.898 565.429 624.31 564.829 623.878 564.061C623.458 563.281 623.248 562.381 623.248 561.361C623.248 560.341 623.452 559.447 623.86 558.679C624.28 557.899 624.862 557.299 625.606 556.879C626.362 556.459 627.226 556.249 628.198 556.249C629.134 556.249 629.968 556.453 630.7 556.861C631.432 557.269 632.002 557.845 632.41 558.589C632.818 559.321 633.022 560.167 633.022 561.127ZM630.88 560.479C630.868 559.723 630.598 559.117 630.07 558.661C629.542 558.205 628.888 557.977 628.108 557.977C627.4 557.977 626.794 558.205 626.29 558.661C625.786 559.105 625.486 559.711 625.39 560.479H630.88ZM638.641 566.491C637.861 566.491 637.159 566.353 636.535 566.077C635.923 565.789 635.437 565.405 635.077 564.925C634.717 564.433 634.525 563.887 634.501 563.287H636.625C636.661 563.707 636.859 564.061 637.219 564.349C637.591 564.625 638.053 564.763 638.605 564.763C639.181 564.763 639.625 564.655 639.937 564.439C640.261 564.211 640.423 563.923 640.423 563.575C640.423 563.203 640.243 562.927 639.883 562.747C639.535 562.567 638.977 562.369 638.209 562.153C637.465 561.949 636.859 561.751 636.391 561.559C635.923 561.367 635.515 561.073 635.167 560.677C634.831 560.281 634.663 559.759 634.663 559.111C634.663 558.583 634.819 558.103 635.131 557.671C635.443 557.227 635.887 556.879 636.463 556.627C637.051 556.375 637.723 556.249 638.479 556.249C639.607 556.249 640.513 556.537 641.197 557.113C641.893 557.677 642.265 558.451 642.313 559.435H640.261C640.225 558.991 640.045 558.637 639.721 558.373C639.397 558.109 638.959 557.977 638.407 557.977C637.867 557.977 637.453 558.079 637.165 558.283C636.877 558.487 636.733 558.757 636.733 559.093C636.733 559.357 636.829 559.579 637.021 559.759C637.213 559.939 637.447 560.083 637.723 560.191C637.999 560.287 638.407 560.413 638.947 560.569C639.667 560.761 640.255 560.959 640.711 561.163C641.179 561.355 641.581 561.643 641.917 562.027C642.253 562.411 642.427 562.921 642.439 563.557C642.439 564.121 642.283 564.625 641.971 565.069C641.659 565.513 641.215 565.861 640.639 566.113C640.075 566.365 639.409 566.491 638.641 566.491Z" fill="#BAB5B5"/>
<path d="M38.1098 286.436L50.6195 286.346L50.6493 288.398L42.0816 288.46L50.7048 292.214L50.7255 293.635L42.2135 297.531L50.7812 297.469L50.8111 299.521L38.3014 299.611L38.2692 297.397L48.0151 292.935L38.1418 288.632L38.1098 286.436ZM50.6798 279.347C50.6934 280.283 50.4957 281.13 50.0867 281.889C49.6657 282.648 49.0743 283.246 48.3126 283.684C47.5389 284.121 46.6421 284.344 45.6221 284.351C44.6141 284.358 43.7169 284.143 42.9305 283.705C42.1441 283.266 41.5353 282.665 41.1041 281.9C40.673 281.135 40.4505 280.279 40.4367 279.331C40.4229 278.383 40.6204 277.523 41.0293 276.752C41.4381 275.981 42.0293 275.371 42.8028 274.922C43.5763 274.472 44.4671 274.244 45.475 274.236C46.483 274.229 47.3803 274.451 48.1669 274.901C48.9535 275.351 49.5686 275.971 50.0121 276.76C50.4434 277.536 50.666 278.399 50.6798 279.347ZM48.8978 279.36C48.8901 278.832 48.757 278.341 48.4984 277.886C48.2396 277.42 47.8561 277.045 47.3479 276.761C46.8397 276.476 46.2256 276.337 45.5057 276.342C44.7857 276.347 44.1817 276.49 43.6937 276.769C43.1938 277.049 42.8211 277.417 42.5757 277.875C42.3304 278.333 42.2115 278.826 42.2192 279.354C42.2269 279.882 42.36 280.373 42.6186 280.827C42.8771 281.269 43.2602 281.62 43.768 281.881C44.2639 282.141 44.8718 282.269 45.5918 282.263C46.6597 282.256 47.4838 281.98 48.0639 281.436C48.6319 280.879 48.9098 280.187 48.8978 279.36ZM40.2609 267.241C40.2496 266.461 40.4015 265.764 40.7166 265.15C41.0315 264.524 41.5044 264.034 42.1353 263.682C42.7663 263.329 43.5317 263.15 44.4317 263.143L50.2815 263.101L50.3111 265.135L44.7673 265.175C43.8793 265.181 43.2045 265.408 42.743 265.855C42.2695 266.303 42.0383 266.911 42.0494 267.678C42.0606 268.446 42.3095 269.057 42.7961 269.509C43.2705 269.95 43.9518 270.167 44.8397 270.16L50.3836 270.12L50.4134 272.172L40.4957 272.244L40.4659 270.192L41.5998 270.184C41.1869 269.851 40.8628 269.427 40.6273 268.913C40.3916 268.386 40.2695 267.829 40.2609 267.241ZM41.9649 258.15L47.4548 258.11C47.8267 258.107 48.0955 258.021 48.2611 257.852C48.4144 257.671 48.4881 257.371 48.482 256.951L48.4637 255.691L50.1736 255.678L50.1972 257.298C50.2106 258.222 50.0049 258.932 49.5801 259.427C49.1552 259.922 48.4568 260.173 47.4848 260.18L41.995 260.219L42.012 261.389L40.338 261.401L40.321 260.232L37.8551 260.249L37.825 258.18L40.2909 258.162L40.2559 255.75L41.9298 255.738L41.9649 258.15ZM39.9918 248.731C39.9808 247.975 40.133 247.302 40.4485 246.711C40.7637 246.109 41.2369 245.638 41.868 245.297C42.499 244.945 43.2644 244.765 44.1644 244.759L50.0142 244.716L50.0438 246.75L44.4999 246.79C43.612 246.797 42.9372 247.023 42.4757 247.471C42.0021 247.918 41.771 248.526 41.7821 249.294C41.7933 250.062 42.0422 250.672 42.5288 251.124C43.0032 251.565 43.6845 251.782 44.5724 251.776L50.1163 251.736L50.1461 253.787L36.8265 253.883L36.7966 251.832L41.3505 251.799C40.9255 251.454 40.5951 251.018 40.3594 250.492C40.1236 249.954 40.001 249.367 39.9918 248.731Z" fill="#BAB5B5"/>
</svg>
