<svg xmlns="http://www.w3.org/2000/svg" width="204" height="202" viewBox="0 0 204 202">
  <g id="Group_2" data-name="Group 2" transform="translate(-112 -362)">
    <g id="Group_1" data-name="Group 1" transform="translate(-792 78)">
      <path id="Subtraction_1" data-name="Subtraction 1" d="M102,202a102.149,102.149,0,0,1-84.58-44.53,100.7,100.7,0,0,1-9.4-17.156,100.417,100.417,0,0,1,0-78.627,100.7,100.7,0,0,1,9.4-17.156,102.451,102.451,0,0,1,169.16,0,100.7,100.7,0,0,1,9.4,17.156,100.417,100.417,0,0,1,0,78.627,100.7,100.7,0,0,1-9.4,17.156A102.175,102.175,0,0,1,102,202Zm0-169a68,68,0,1,0,68,68A68.077,68.077,0,0,0,102,33Z" transform="translate(904 284)" fill="#e5e5e5"/>
      <text id="No_data_available" data-name="No dataavailable" transform="translate(1006 381)" fill="#707070" font-size="16" font-family="Montserrat" font-weight="500"><tspan x="-37.744" y="0">NO DATA</tspan><tspan x="-46.072" y="19">AVAILABLE</tspan></text>
    </g>
  </g>
</svg>
