<svg width="38" height="38" viewBox="0 0 38 38" fill="none" xmlns="http://www.w3.org/2000/svg">
<circle cx="18.6328" cy="18.6953" r="18" fill="#FA751A" stroke="#E1E1E1" stroke-opacity="0.8"/>
<path d="M21.6328 23.6953V24.6953C21.6328 26.3522 20.2897 27.6953 18.6328 27.6953C16.976 27.6953 15.6328 26.3522 15.6328 24.6953V23.6953M21.6328 23.6953H15.6328M21.6328 23.6953H25.2233C25.6058 23.6953 25.798 23.6953 25.9529 23.6431C26.2488 23.5433 26.4803 23.311 26.5801 23.0151C26.6325 22.8596 26.6325 22.6668 26.6325 22.2812C26.6325 22.1125 26.6323 22.0282 26.6191 21.9478C26.5942 21.7958 26.5352 21.6516 26.4454 21.5265C26.3979 21.4604 26.3376 21.4001 26.2186 21.2811L25.8291 20.8916C25.7034 20.7659 25.6328 20.5954 25.6328 20.4177V16.6953C25.6328 12.8293 22.4988 9.6953 18.6328 9.69531C14.7668 9.69532 11.6328 12.8293 11.6328 16.6953V20.4177C11.6328 20.5955 11.5621 20.7659 11.4364 20.8916L11.0469 21.2811C10.9276 21.4004 10.8679 21.4604 10.8203 21.5266C10.7305 21.6517 10.671 21.7957 10.646 21.9478C10.6328 22.0282 10.6328 22.1125 10.6328 22.2813C10.6328 22.6668 10.6328 22.8596 10.6853 23.0151C10.7851 23.3109 11.0176 23.5433 11.3135 23.6431C11.4684 23.6953 11.6598 23.6953 12.0424 23.6953H15.6328" stroke="white" stroke-width="2" stroke-linecap="round" stroke-linejoin="round"/>
</svg>
