<svg width="71" height="18" viewBox="0 0 71 18" fill="none" xmlns="http://www.w3.org/2000/svg">
<rect x="0.585156" y="0.995313" width="69.4" height="16.4" rx="8.2" fill="#F5FFF5"/>
<rect x="0.585156" y="0.995313" width="69.4" height="16.4" rx="8.2" stroke="#25A522" stroke-width="0.6"/>
<path d="M9.82216 12.2583C9.24016 12.2583 8.70916 12.1233 8.22916 11.8533C7.74916 11.5773 7.36816 11.1963 7.08616 10.7103C6.81016 10.2183 6.67216 9.66631 6.67216 9.05431C6.67216 8.44231 6.81016 7.89331 7.08616 7.40731C7.36816 6.91531 7.74916 6.53431 8.22916 6.26431C8.70916 5.98831 9.24016 5.85031 9.82216 5.85031C10.4102 5.85031 10.9442 5.98831 11.4242 6.26431C11.9042 6.53431 12.2822 6.91231 12.5582 7.39831C12.8342 7.88431 12.9722 8.43631 12.9722 9.05431C12.9722 9.67231 12.8342 10.2243 12.5582 10.7103C12.2822 11.1963 11.9042 11.5773 11.4242 11.8533C10.9442 12.1233 10.4102 12.2583 9.82216 12.2583ZM9.82216 11.5473C10.2602 11.5473 10.6532 11.4453 11.0012 11.2413C11.3552 11.0373 11.6312 10.7463 11.8292 10.3683C12.0332 9.99031 12.1352 9.55231 12.1352 9.05431C12.1352 8.55031 12.0332 8.11231 11.8292 7.74031C11.6312 7.36231 11.3582 7.07131 11.0102 6.86731C10.6622 6.66331 10.2662 6.56131 9.82216 6.56131C9.37816 6.56131 8.98216 6.66331 8.63416 6.86731C8.28616 7.07131 8.01016 7.36231 7.80616 7.74031C7.60816 8.11231 7.50916 8.55031 7.50916 9.05431C7.50916 9.55231 7.60816 9.99031 7.80616 10.3683C8.01016 10.7463 8.28616 11.0373 8.63416 11.2413C8.98816 11.4453 9.38416 11.5473 9.82216 11.5473ZM16.4564 7.17331C17.0564 7.17331 17.5424 7.35631 17.9144 7.72231C18.2864 8.08231 18.4724 8.60431 18.4724 9.28831V12.1953H17.6624V9.40531C17.6624 8.91331 17.5394 8.53831 17.2934 8.28031C17.0474 8.01631 16.7114 7.88431 16.2854 7.88431C15.8534 7.88431 15.5084 8.01931 15.2504 8.28931C14.9984 8.55931 14.8724 8.95231 14.8724 9.46831V12.1953H14.0534V7.26331H14.8724V7.96531C15.0344 7.71331 15.2534 7.51831 15.5294 7.38031C15.8114 7.24231 16.1204 7.17331 16.4564 7.17331ZM21.8442 7.18231C22.2702 7.18231 22.6422 7.27531 22.9602 7.46131C23.2842 7.64731 23.5242 7.88131 23.6802 8.16331V7.26331H24.5082V12.3033C24.5082 12.7533 24.4122 13.1523 24.2202 13.5003C24.0282 13.8543 23.7522 14.1303 23.3922 14.3283C23.0382 14.5263 22.6242 14.6253 22.1502 14.6253C21.5022 14.6253 20.9622 14.4723 20.5302 14.1663C20.0982 13.8603 19.8432 13.4433 19.7652 12.9153H20.5752C20.6652 13.2153 20.8512 13.4553 21.1332 13.6353C21.4152 13.8213 21.7542 13.9143 22.1502 13.9143C22.6002 13.9143 22.9662 13.7733 23.2482 13.4913C23.5362 13.2093 23.6802 12.8133 23.6802 12.3033V11.2683C23.5182 11.5563 23.2782 11.7963 22.9602 11.9883C22.6422 12.1803 22.2702 12.2763 21.8442 12.2763C21.4062 12.2763 21.0072 12.1683 20.6472 11.9523C20.2932 11.7363 20.0142 11.4333 19.8102 11.0433C19.6062 10.6533 19.5042 10.2093 19.5042 9.71131C19.5042 9.20731 19.6062 8.76631 19.8102 8.38831C20.0142 8.00431 20.2932 7.70731 20.6472 7.49731C21.0072 7.28731 21.4062 7.18231 21.8442 7.18231ZM23.6802 9.72031C23.6802 9.34831 23.6052 9.02431 23.4552 8.74831C23.3052 8.47231 23.1012 8.26231 22.8432 8.11831C22.5912 7.96831 22.3122 7.89331 22.0062 7.89331C21.7002 7.89331 21.4212 7.96531 21.1692 8.10931C20.9172 8.25331 20.7162 8.46331 20.5662 8.73931C20.4162 9.01531 20.3412 9.33931 20.3412 9.71131C20.3412 10.0893 20.4162 10.4193 20.5662 10.7013C20.7162 10.9773 20.9172 11.1903 21.1692 11.3403C21.4212 11.4843 21.7002 11.5563 22.0062 11.5563C22.3122 11.5563 22.5912 11.4843 22.8432 11.3403C23.1012 11.1903 23.3052 10.9773 23.4552 10.7013C23.6052 10.4193 23.6802 10.0923 23.6802 9.72031ZM28.0432 12.2763C27.5812 12.2763 27.1612 12.1713 26.7832 11.9613C26.4112 11.7513 26.1172 11.4543 25.9012 11.0703C25.6912 10.6803 25.5862 10.2303 25.5862 9.72031C25.5862 9.21631 25.6942 8.77231 25.9102 8.38831C26.1322 7.99831 26.4322 7.70131 26.8102 7.49731C27.1882 7.28731 27.6112 7.18231 28.0792 7.18231C28.5472 7.18231 28.9702 7.28731 29.3482 7.49731C29.7262 7.70131 30.0232 7.99531 30.2392 8.37931C30.4612 8.76331 30.5722 9.21031 30.5722 9.72031C30.5722 10.2303 30.4582 10.6803 30.2302 11.0703C30.0082 11.4543 29.7052 11.7513 29.3212 11.9613C28.9372 12.1713 28.5112 12.2763 28.0432 12.2763ZM28.0432 11.5563C28.3372 11.5563 28.6132 11.4873 28.8712 11.3493C29.1292 11.2113 29.3362 11.0043 29.4922 10.7283C29.6542 10.4523 29.7352 10.1163 29.7352 9.72031C29.7352 9.32431 29.6572 8.98831 29.5012 8.71231C29.3452 8.43631 29.1412 8.23231 28.8892 8.10031C28.6372 7.96231 28.3642 7.89331 28.0702 7.89331C27.7702 7.89331 27.4942 7.96231 27.2422 8.10031C26.9962 8.23231 26.7982 8.43631 26.6482 8.71231C26.4982 8.98831 26.4232 9.32431 26.4232 9.72031C26.4232 10.1223 26.4952 10.4613 26.6392 10.7373C26.7892 11.0133 26.9872 11.2203 27.2332 11.3583C27.4792 11.4903 27.7492 11.5563 28.0432 11.5563ZM32.0721 6.46231C31.9161 6.46231 31.7841 6.40831 31.6761 6.30031C31.5681 6.19231 31.5141 6.06031 31.5141 5.90431C31.5141 5.74831 31.5681 5.61631 31.6761 5.50831C31.7841 5.40031 31.9161 5.34631 32.0721 5.34631C32.2221 5.34631 32.3481 5.40031 32.4501 5.50831C32.5581 5.61631 32.6121 5.74831 32.6121 5.90431C32.6121 6.06031 32.5581 6.19231 32.4501 6.30031C32.3481 6.40831 32.2221 6.46231 32.0721 6.46231ZM32.4681 7.26331V12.1953H31.6491V7.26331H32.4681ZM36.2669 7.17331C36.8669 7.17331 37.3529 7.35631 37.7249 7.72231C38.0969 8.08231 38.2829 8.60431 38.2829 9.28831V12.1953H37.4729V9.40531C37.4729 8.91331 37.3499 8.53831 37.1039 8.28031C36.8579 8.01631 36.5219 7.88431 36.0959 7.88431C35.6639 7.88431 35.3189 8.01931 35.0609 8.28931C34.8089 8.55931 34.6829 8.95231 34.6829 9.46831V12.1953H33.8639V7.26331H34.6829V7.96531C34.8449 7.71331 35.0639 7.51831 35.3399 7.38031C35.6219 7.24231 35.9309 7.17331 36.2669 7.17331ZM41.6547 7.18231C42.0807 7.18231 42.4527 7.27531 42.7707 7.46131C43.0947 7.64731 43.3347 7.88131 43.4907 8.16331V7.26331H44.3187V12.3033C44.3187 12.7533 44.2227 13.1523 44.0307 13.5003C43.8387 13.8543 43.5627 14.1303 43.2027 14.3283C42.8487 14.5263 42.4347 14.6253 41.9607 14.6253C41.3127 14.6253 40.7727 14.4723 40.3407 14.1663C39.9087 13.8603 39.6537 13.4433 39.5757 12.9153H40.3857C40.4757 13.2153 40.6617 13.4553 40.9437 13.6353C41.2257 13.8213 41.5647 13.9143 41.9607 13.9143C42.4107 13.9143 42.7767 13.7733 43.0587 13.4913C43.3467 13.2093 43.4907 12.8133 43.4907 12.3033V11.2683C43.3287 11.5563 43.0887 11.7963 42.7707 11.9883C42.4527 12.1803 42.0807 12.2763 41.6547 12.2763C41.2167 12.2763 40.8177 12.1683 40.4577 11.9523C40.1037 11.7363 39.8247 11.4333 39.6207 11.0433C39.4167 10.6533 39.3147 10.2093 39.3147 9.71131C39.3147 9.20731 39.4167 8.76631 39.6207 8.38831C39.8247 8.00431 40.1037 7.70731 40.4577 7.49731C40.8177 7.28731 41.2167 7.18231 41.6547 7.18231ZM43.4907 9.72031C43.4907 9.34831 43.4157 9.02431 43.2657 8.74831C43.1157 8.47231 42.9117 8.26231 42.6537 8.11831C42.4017 7.96831 42.1227 7.89331 41.8167 7.89331C41.5107 7.89331 41.2317 7.96531 40.9797 8.10931C40.7277 8.25331 40.5267 8.46331 40.3767 8.73931C40.2267 9.01531 40.1517 9.33931 40.1517 9.71131C40.1517 10.0893 40.2267 10.4193 40.3767 10.7013C40.5267 10.9773 40.7277 11.1903 40.9797 11.3403C41.2317 11.4843 41.5107 11.5563 41.8167 11.5563C42.1227 11.5563 42.4017 11.4843 42.6537 11.3403C42.9117 11.1903 43.1157 10.9773 43.2657 10.7013C43.4157 10.4193 43.4907 10.0923 43.4907 9.72031ZM51.9632 5.92231V6.58831H50.2532V12.1953H49.4342V6.58831H47.7152V5.92231H51.9632ZM53.7903 8.06431C53.9343 7.78231 54.1383 7.56331 54.4023 7.40731C54.6723 7.25131 54.9993 7.17331 55.3833 7.17331V8.01931H55.1673C54.2493 8.01931 53.7903 8.51731 53.7903 9.51331V12.1953H52.9713V7.26331H53.7903V8.06431ZM56.7517 6.46231C56.5957 6.46231 56.4637 6.40831 56.3557 6.30031C56.2477 6.19231 56.1937 6.06031 56.1937 5.90431C56.1937 5.74831 56.2477 5.61631 56.3557 5.50831C56.4637 5.40031 56.5957 5.34631 56.7517 5.34631C56.9017 5.34631 57.0277 5.40031 57.1297 5.50831C57.2377 5.61631 57.2917 5.74831 57.2917 5.90431C57.2917 6.06031 57.2377 6.19231 57.1297 6.30031C57.0277 6.40831 56.9017 6.46231 56.7517 6.46231ZM57.1477 7.26331V12.1953H56.3287V7.26331H57.1477ZM59.3626 8.17231C59.5246 7.89031 59.7646 7.65631 60.0826 7.47031C60.4066 7.27831 60.7816 7.18231 61.2076 7.18231C61.6456 7.18231 62.0416 7.28731 62.3956 7.49731C62.7556 7.70731 63.0376 8.00431 63.2416 8.38831C63.4456 8.76631 63.5476 9.20731 63.5476 9.71131C63.5476 10.2093 63.4456 10.6533 63.2416 11.0433C63.0376 11.4333 62.7556 11.7363 62.3956 11.9523C62.0416 12.1683 61.6456 12.2763 61.2076 12.2763C60.7876 12.2763 60.4156 12.1833 60.0916 11.9973C59.7736 11.8053 59.5306 11.5683 59.3626 11.2863V14.5353H58.5436V7.26331H59.3626V8.17231ZM62.7106 9.71131C62.7106 9.33931 62.6356 9.01531 62.4856 8.73931C62.3356 8.46331 62.1316 8.25331 61.8736 8.10931C61.6216 7.96531 61.3426 7.89331 61.0366 7.89331C60.7366 7.89331 60.4576 7.96831 60.1996 8.11831C59.9476 8.26231 59.7436 8.47531 59.5876 8.75731C59.4376 9.03331 59.3626 9.35431 59.3626 9.72031C59.3626 10.0923 59.4376 10.4193 59.5876 10.7013C59.7436 10.9773 59.9476 11.1903 60.1996 11.3403C60.4576 11.4843 60.7366 11.5563 61.0366 11.5563C61.3426 11.5563 61.6216 11.4843 61.8736 11.3403C62.1316 11.1903 62.3356 10.9773 62.4856 10.7013C62.6356 10.4193 62.7106 10.0893 62.7106 9.71131Z" fill="#25A522"/>
</svg>
