<svg width="64" height="73" viewBox="0 0 64 73" fill="none" xmlns="http://www.w3.org/2000/svg">
<rect y="3.90234" width="60" height="60" rx="30" transform="rotate(-3.72871 0 3.90234)" fill="white"/>
<path d="M24.5627 39.3388C23.0919 37.868 22.0903 35.9941 21.6845 33.9541C21.2787 31.9141 21.487 29.7995 22.283 27.8779C23.0789 25.9562 24.4269 24.3137 26.1563 23.1581C27.8858 22.0025 29.9191 21.3857 31.9991 21.3857C34.0791 21.3857 36.1124 22.0025 37.8418 23.1581C39.5713 24.3137 40.9192 25.9562 41.7152 27.8779C42.5112 29.7995 42.7195 31.9141 42.3137 33.9541C41.9079 35.9941 40.9063 37.868 39.4355 39.3388" stroke="#EB2C3E" stroke-width="1.5" stroke-linecap="round" stroke-linejoin="round"/>
<path d="M32.001 31.9037L37.201 29.3037" stroke="#EB2C3E" stroke-width="1.5" stroke-linecap="round" stroke-linejoin="round"/>
<path d="M55.7297 72.7304L36.1508 57.6323L36.3689 52.9112L54.8281 48.357L55.7297 72.7304Z" fill="white"/>
</svg>
