<svg width="15" height="15" viewBox="0 0 15 15" fill="none" xmlns="http://www.w3.org/2000/svg">
<g clip-path="url(#clip0_4085_2004)">
<path d="M3.125 7.5C3.125 5.08375 5.08375 3.125 7.5 3.125M10.3124 4.6875L7.49994 7.5M13.75 7.5C13.75 10.9518 10.9518 13.75 7.5 13.75C4.04822 13.75 1.25 10.9518 1.25 7.5C1.25 4.04822 4.04822 1.25 7.5 1.25C10.9518 1.25 13.75 4.04822 13.75 7.5ZM8.125 7.5C8.125 7.84518 7.84518 8.125 7.5 8.125C7.15482 8.125 6.875 7.84518 6.875 7.5C6.875 7.15482 7.15482 6.875 7.5 6.875C7.84518 6.875 8.125 7.15482 8.125 7.5Z" stroke="#EB2C3E" stroke-width="1.2" stroke-linecap="round" stroke-linejoin="round"/>
</g>
<defs>
<clipPath id="clip0_4085_2004">
<rect width="15" height="15" fill="white"/>
</clipPath>
</defs>
</svg>
