<svg width="84" height="85" viewBox="0 0 84 85" fill="none" xmlns="http://www.w3.org/2000/svg">
<g filter="url(#filter0_d_4085_2123)">
<rect y="3.90234" width="60" height="60" rx="30" transform="rotate(-3.72871 0 3.90234)" fill="#EB2C3E"/>
</g>
<path d="M55.7297 72.828L36.1508 57.7299L36.3689 53.0088L54.8281 48.4546L55.7297 72.828Z" fill="#EB2C3E"/>
<path d="M24.3046 31.969C24.26 27.7811 27.6189 24.3499 31.8068 24.3053M36.7103 26.9616L31.8874 31.8882M42.7203 31.7729C42.784 37.7556 37.9857 42.6572 32.0029 42.721C26.0202 42.7847 21.1185 37.9864 21.0548 32.0036C20.9911 26.0209 25.7894 21.1192 31.7722 21.0555C37.7549 20.9918 42.6565 25.7901 42.7203 31.7729ZM32.9708 31.8767C32.9772 32.475 32.4974 32.9651 31.8991 32.9715C31.3008 32.9779 30.8106 32.4981 30.8043 31.8998C30.7979 31.3015 31.2777 30.8113 31.876 30.805C32.4743 30.7986 32.9644 31.2784 32.9708 31.8767Z" stroke="white" stroke-width="2" stroke-linecap="round" stroke-linejoin="round"/>
<defs>
<filter id="filter0_d_4085_2123" x="1.88672" y="1.88672" width="82.102" height="83.102" filterUnits="userSpaceOnUse" color-interpolation-filters="sRGB">
<feFlood flood-opacity="0" result="BackgroundImageFix"/>
<feColorMatrix in="SourceAlpha" type="matrix" values="0 0 0 0 0 0 0 0 0 0 0 0 0 0 0 0 0 0 127 0" result="hardAlpha"/>
<feOffset dx="13" dy="14"/>
<feGaussianBlur stdDeviation="4.55"/>
<feComposite in2="hardAlpha" operator="out"/>
<feColorMatrix type="matrix" values="0 0 0 0 0 0 0 0 0 0 0 0 0 0 0 0 0 0 0.16 0"/>
<feBlend mode="normal" in2="BackgroundImageFix" result="effect1_dropShadow_4085_2123"/>
<feBlend mode="normal" in="SourceGraphic" in2="effect1_dropShadow_4085_2123" result="shape"/>
</filter>
</defs>
</svg>
