<svg width="16" height="15" viewBox="0 0 16 15" fill="none" xmlns="http://www.w3.org/2000/svg">
<path d="M7.63493 0.454276C10.9287 0.23962 13.7727 2.73572 13.9875 6.02947C14.0912 7.62182 13.5596 9.10745 12.6125 10.2433L12.7726 14.5558L9.67009 12.1633C9.26754 12.2782 8.84702 12.3537 8.41228 12.382C5.1185 12.5966 2.27439 10.1006 2.05974 6.80682C1.84515 3.51309 4.34121 0.668992 7.63493 0.454276Z" fill="#EB2C3E"/>
<path d="M5.57005 6.47766C5.57005 5.12263 6.66852 4.02416 8.02355 4.02416M9.60077 4.90041L8.02352 6.47766M11.5286 6.47766C11.5286 8.41341 9.95931 9.98266 8.02355 9.98266C6.0878 9.98266 4.51855 8.41341 4.51855 6.47766C4.51855 4.5419 6.0878 2.97266 8.02355 2.97266C9.95931 2.97266 11.5286 4.5419 11.5286 6.47766ZM8.37405 6.47766C8.37405 6.67123 8.21713 6.82816 8.02355 6.82816C7.82998 6.82816 7.67305 6.67123 7.67305 6.47766C7.67305 6.28408 7.82998 6.12716 8.02355 6.12716C8.21713 6.12716 8.37405 6.28408 8.37405 6.47766Z" stroke="white" stroke-width="0.7" stroke-linecap="round" stroke-linejoin="round"/>
</svg>
