<svg width="42" height="42" viewBox="0 0 42 42" fill="none" xmlns="http://www.w3.org/2000/svg">
<path d="M31 18.4286V28.3333C31 29.8061 29.8061 31 28.3333 31H13.6667C12.1939 31 11 29.8061 11 28.3333V13.6667C11 12.1939 12.1939 11 13.6667 11H23.5714" stroke="#6C757E" stroke-width="2" stroke-linecap="round" stroke-linejoin="round"/>
<path fill-rule="evenodd" clip-rule="evenodd" d="M29.6666 13.6667C30.403 13.6667 30.9999 13.0697 30.9999 12.3333C30.9999 11.597 30.403 11 29.6666 11C28.9302 11 28.3333 11.597 28.3333 12.3333C28.3333 13.0697 28.9302 13.6667 29.6666 13.6667Z" fill="#6C757E" stroke="#6C757E" stroke-width="2" stroke-linecap="round"/>
<path d="M16.3333 24.333L20.3333 18.9997L23.001 21.6663L27 16.333" stroke="#6C757E" stroke-width="2" stroke-linecap="round" stroke-linejoin="round"/>
</svg>
