<svg width="22" height="22" viewBox="0 0 22 22" fill="none" xmlns="http://www.w3.org/2000/svg">
<path d="M21 8.42857V18.3333C21 19.8061 19.8061 21 18.3333 21H3.66667C2.19391 21 1 19.8061 1 18.3333V3.66667C1 2.19391 2.19391 1 3.66667 1H13.5714" stroke="#FA751A" stroke-width="2" stroke-linecap="round" stroke-linejoin="round"/>
<path fill-rule="evenodd" clip-rule="evenodd" d="M19.6666 3.66667C20.403 3.66667 20.9999 3.06971 20.9999 2.33333C20.9999 1.59695 20.403 1 19.6666 1C18.9302 1 18.3333 1.59695 18.3333 2.33333C18.3333 3.06971 18.9302 3.66667 19.6666 3.66667Z" fill="#FA751A" stroke="#FA751A" stroke-width="2" stroke-linecap="round"/>
<path d="M6.33337 14.333L10.3334 8.99967L13.0011 11.6663L17 6.33301" stroke="#FA751A" stroke-width="2" stroke-linecap="round" stroke-linejoin="round"/>
</svg>
