<svg width="30" height="31" viewBox="0 0 30 31" fill="none" xmlns="http://www.w3.org/2000/svg">
<ellipse cx="15" cy="15.5" rx="15" ry="15.5" fill="#F4F4F4"/>
<path d="M13.4753 17.808V22H11.2193V10.704H15.3313C16.6646 10.704 17.6673 11.024 18.3393 11.664C19.022 12.304 19.3633 13.1733 19.3633 14.272C19.3633 15.3493 19.0113 16.208 18.3073 16.848C17.614 17.488 16.622 17.808 15.3313 17.808H13.4753ZM15.0913 16C16.414 16 17.0753 15.424 17.0753 14.272C17.0753 13.7067 16.9206 13.2747 16.6113 12.976C16.302 12.6773 15.7953 12.528 15.0913 12.528H13.4753V16H15.0913Z" fill="#3B67D7"/>
</svg>
