<svg width="31" height="32" viewBox="0 0 31 32" fill="none" xmlns="http://www.w3.org/2000/svg">
<ellipse cx="15.8262" cy="15.6094" rx="15" ry="15.5" fill="#F4F4F4"/>
<path d="M20.207 14.3974C20.207 14.9947 20.063 15.5547 19.775 16.0774C19.4977 16.6 19.055 17.0214 18.447 17.3414C17.8497 17.6614 17.0923 17.8214 16.175 17.8214H14.303V22.1094H12.063V10.9414H16.175C17.039 10.9414 17.775 11.0907 18.383 11.3894C18.991 11.688 19.4443 12.0987 19.743 12.6214C20.0523 13.144 20.207 13.736 20.207 14.3974ZM16.079 16.0134C16.6977 16.0134 17.1563 15.8747 17.455 15.5974C17.7537 15.3094 17.903 14.9094 17.903 14.3974C17.903 13.3094 17.295 12.7654 16.079 12.7654H14.303V16.0134H16.079Z" fill="#FF3B30"/>
</svg>
