<svg width="52" height="18" viewBox="0 0 52 18" fill="none" xmlns="http://www.w3.org/2000/svg">
<rect x="1.1125" y="0.995313" width="50.4" height="16.4" rx="8.2" fill="#F8EBEB"/>
<rect x="1.1125" y="0.995313" width="50.4" height="16.4" rx="8.2" stroke="#FF0000" stroke-width="0.6"/>
<path d="M11.6995 7.75831C11.6995 8.28031 11.5195 8.71531 11.1595 9.06331C10.8055 9.40531 10.2625 9.57631 9.5305 9.57631H8.3245V12.1953H7.5055V5.92231H9.5305C10.2385 5.92231 10.7755 6.09331 11.1415 6.43531C11.5135 6.77731 11.6995 7.21831 11.6995 7.75831ZM9.5305 8.90131C9.9865 8.90131 10.3225 8.80231 10.5385 8.60431C10.7545 8.40631 10.8625 8.12431 10.8625 7.75831C10.8625 6.98431 10.4185 6.59731 9.5305 6.59731H8.3245V8.90131H9.5305ZM12.4114 9.71131C12.4114 9.20731 12.5134 8.76631 12.7174 8.38831C12.9214 8.00431 13.2004 7.70731 13.5544 7.49731C13.9144 7.28731 14.3134 7.18231 14.7514 7.18231C15.1834 7.18231 15.5584 7.27531 15.8764 7.46131C16.1944 7.64731 16.4314 7.88131 16.5874 8.16331V7.26331H17.4154V12.1953H16.5874V11.2773C16.4254 11.5653 16.1824 11.8053 15.8584 11.9973C15.5404 12.1833 15.1684 12.2763 14.7424 12.2763C14.3044 12.2763 13.9084 12.1683 13.5544 11.9523C13.2004 11.7363 12.9214 11.4333 12.7174 11.0433C12.5134 10.6533 12.4114 10.2093 12.4114 9.71131ZM16.5874 9.72031C16.5874 9.34831 16.5124 9.02431 16.3624 8.74831C16.2124 8.47231 16.0084 8.26231 15.7504 8.11831C15.4984 7.96831 15.2194 7.89331 14.9134 7.89331C14.6074 7.89331 14.3284 7.96531 14.0764 8.10931C13.8244 8.25331 13.6234 8.46331 13.4734 8.73931C13.3234 9.01531 13.2484 9.33931 13.2484 9.71131C13.2484 10.0893 13.3234 10.4193 13.4734 10.7013C13.6234 10.9773 13.8244 11.1903 14.0764 11.3403C14.3284 11.4843 14.6074 11.5563 14.9134 11.5563C15.2194 11.5563 15.4984 11.4843 15.7504 11.3403C16.0084 11.1903 16.2124 10.9773 16.3624 10.7013C16.5124 10.4193 16.5874 10.0923 16.5874 9.72031ZM20.5454 12.2763C20.1674 12.2763 19.8284 12.2133 19.5284 12.0873C19.2284 11.9553 18.9914 11.7753 18.8174 11.5473C18.6434 11.3133 18.5474 11.0463 18.5294 10.7463H19.3754C19.3994 10.9923 19.5134 11.1933 19.7174 11.3493C19.9274 11.5053 20.2004 11.5833 20.5364 11.5833C20.8484 11.5833 21.0944 11.5143 21.2744 11.3763C21.4544 11.2383 21.5444 11.0643 21.5444 10.8543C21.5444 10.6383 21.4484 10.4793 21.2564 10.3773C21.0644 10.2693 20.7674 10.1643 20.3654 10.0623C19.9994 9.96631 19.6994 9.87031 19.4654 9.77431C19.2374 9.67231 19.0394 9.52531 18.8714 9.33331C18.7094 9.13531 18.6284 8.87731 18.6284 8.55931C18.6284 8.30731 18.7034 8.07631 18.8534 7.86631C19.0034 7.65631 19.2164 7.49131 19.4924 7.37131C19.7684 7.24531 20.0834 7.18231 20.4374 7.18231C20.9834 7.18231 21.4244 7.32031 21.7604 7.59631C22.0964 7.87231 22.2764 8.25031 22.3004 8.73031H21.4814C21.4634 8.47231 21.3584 8.26531 21.1664 8.10931C20.9804 7.95331 20.7284 7.87531 20.4104 7.87531C20.1164 7.87531 19.8824 7.93831 19.7084 8.06431C19.5344 8.19031 19.4474 8.35531 19.4474 8.55931C19.4474 8.72131 19.4984 8.85631 19.6004 8.96431C19.7084 9.06631 19.8404 9.15031 19.9964 9.21631C20.1584 9.27631 20.3804 9.34531 20.6624 9.42331C21.0164 9.51931 21.3044 9.61531 21.5264 9.71131C21.7484 9.80131 21.9374 9.93931 22.0934 10.1253C22.2554 10.3113 22.3394 10.5543 22.3454 10.8543C22.3454 11.1243 22.2704 11.3673 22.1204 11.5833C21.9704 11.7993 21.7574 11.9703 21.4814 12.0963C21.2114 12.2163 20.8994 12.2763 20.5454 12.2763ZM24.5006 7.93831V10.8453C24.5006 11.0853 24.5516 11.2563 24.6536 11.3583C24.7556 11.4543 24.9326 11.5023 25.1846 11.5023H25.7876V12.1953H25.0496C24.5936 12.1953 24.2516 12.0903 24.0236 11.8803C23.7956 11.6703 23.6816 11.3253 23.6816 10.8453V7.93831H23.0426V7.26331H23.6816V6.02131H24.5006V7.26331H25.7876V7.93831H24.5006ZM33.0403 5.92231V6.58831H31.3303V12.1953H30.5113V6.58831H28.7923V5.92231H33.0403ZM34.8675 8.06431C35.0115 7.78231 35.2155 7.56331 35.4795 7.40731C35.7495 7.25131 36.0765 7.17331 36.4605 7.17331V8.01931H36.2445C35.3265 8.01931 34.8675 8.51731 34.8675 9.51331V12.1953H34.0485V7.26331H34.8675V8.06431ZM37.8289 6.46231C37.6729 6.46231 37.5409 6.40831 37.4329 6.30031C37.3249 6.19231 37.2709 6.06031 37.2709 5.90431C37.2709 5.74831 37.3249 5.61631 37.4329 5.50831C37.5409 5.40031 37.6729 5.34631 37.8289 5.34631C37.9789 5.34631 38.1049 5.40031 38.2069 5.50831C38.3149 5.61631 38.3689 5.74831 38.3689 5.90431C38.3689 6.06031 38.3149 6.19231 38.2069 6.30031C38.1049 6.40831 37.9789 6.46231 37.8289 6.46231ZM38.2249 7.26331V12.1953H37.4059V7.26331H38.2249ZM40.4397 8.17231C40.6017 7.89031 40.8417 7.65631 41.1597 7.47031C41.4837 7.27831 41.8587 7.18231 42.2847 7.18231C42.7227 7.18231 43.1187 7.28731 43.4727 7.49731C43.8327 7.70731 44.1147 8.00431 44.3187 8.38831C44.5227 8.76631 44.6247 9.20731 44.6247 9.71131C44.6247 10.2093 44.5227 10.6533 44.3187 11.0433C44.1147 11.4333 43.8327 11.7363 43.4727 11.9523C43.1187 12.1683 42.7227 12.2763 42.2847 12.2763C41.8647 12.2763 41.4927 12.1833 41.1687 11.9973C40.8507 11.8053 40.6077 11.5683 40.4397 11.2863V14.5353H39.6207V7.26331H40.4397V8.17231ZM43.7877 9.71131C43.7877 9.33931 43.7127 9.01531 43.5627 8.73931C43.4127 8.46331 43.2087 8.25331 42.9507 8.10931C42.6987 7.96531 42.4197 7.89331 42.1137 7.89331C41.8137 7.89331 41.5347 7.96831 41.2767 8.11831C41.0247 8.26231 40.8207 8.47531 40.6647 8.75731C40.5147 9.03331 40.4397 9.35431 40.4397 9.72031C40.4397 10.0923 40.5147 10.4193 40.6647 10.7013C40.8207 10.9773 41.0247 11.1903 41.2767 11.3403C41.5347 11.4843 41.8137 11.5563 42.1137 11.5563C42.4197 11.5563 42.6987 11.4843 42.9507 11.3403C43.2087 11.1903 43.4127 10.9773 43.5627 10.7013C43.7127 10.4193 43.7877 10.0893 43.7877 9.71131Z" fill="#FF0000"/>
</svg>
