<svg width="53" height="25" viewBox="0 0 53 25" fill="none" xmlns="http://www.w3.org/2000/svg">
<path d="M10.0005 21.288L9.50049 21.288L9.50049 21.788L10.0005 21.788L10.0005 21.288ZM52.7715 21.6416C52.9668 21.4463 52.9668 21.1297 52.7715 20.9345L49.5895 17.7525C49.3943 17.5572 49.0777 17.5572 48.8824 17.7525C48.6872 17.9478 48.6872 18.2643 48.8824 18.4596L51.7109 21.288L48.8824 24.1165C48.6872 24.3117 48.6872 24.6283 48.8824 24.8236C49.0777 25.0188 49.3943 25.0188 49.5895 24.8236L52.7715 21.6416ZM9.50049 12L9.50049 13.161L10.5005 13.161L10.5005 12L9.50049 12ZM9.50049 15.483L9.50049 17.805L10.5005 17.805L10.5005 15.483L9.50049 15.483ZM9.50049 20.127L9.50049 21.288L10.5005 21.288L10.5005 20.127L9.50049 20.127ZM10.0005 21.788L11.0609 21.788L11.0609 20.788L10.0005 20.788L10.0005 21.788ZM13.1818 21.788L15.3027 21.788L15.3027 20.788L13.1818 20.788L13.1818 21.788ZM17.4235 21.788L19.5444 21.788L19.5444 20.788L17.4235 20.788L17.4235 21.788ZM21.6653 21.788L23.7862 21.788L23.7862 20.788L21.6653 20.788L21.6653 21.788ZM25.907 21.788L28.0279 21.788L28.0279 20.788L25.907 20.788L25.907 21.788ZM30.1488 21.788L31.2092 21.788L31.2092 20.788L30.1488 20.788L30.1488 21.788ZM31.2092 21.788L32.2697 21.788L32.2697 20.788L31.2092 20.788L31.2092 21.788ZM34.3905 21.788L36.5114 21.788L36.5114 20.788L34.3905 20.788L34.3905 21.788ZM38.6323 21.788L40.7532 21.788L40.7532 20.788L38.6323 20.788L38.6323 21.788ZM42.874 21.788L44.9949 21.788L44.9949 20.788L42.874 20.788L42.874 21.788ZM47.1158 21.788L49.2367 21.788L49.2367 20.788L47.1158 20.788L47.1158 21.788ZM51.3575 21.788L52.418 21.788L52.418 20.788L51.3575 20.788L51.3575 21.788Z" fill="#8E9F9E"/>
<path d="M18.8008 0.106445L18.8008 5.46408C18.8008 6.56865 17.9054 7.46408 16.8008 7.46408L2.40669 7.46408C1.30212 7.46408 0.406686 6.56865 0.406686 5.46408L0.406687 0.106445L18.8008 0.106445Z" fill="#FF7676"/>
</svg>
