<svg width="37" height="29" viewBox="0 0 37 29" fill="none" xmlns="http://www.w3.org/2000/svg">
<g clip-path="url(#clip0_393_221)">
<path d="M18.4422 21.1729L18.3331 21.2266C16.3589 22.1827 14.466 23.077 12.8761 23.8005L12.7562 23.8595C10.7392 24.777 9.22867 25.4076 8.69218 25.5214C8.27895 25.6185 7.85173 25.6339 7.43536 25.5667C7.01899 25.4995 6.62178 25.3511 6.26683 25.1301C5.20029 24.4899 4.25083 23.2098 3.31068 21.2977C2.37052 19.3856 1.93486 17.8456 2.07853 16.6089C2.12047 16.193 2.24564 15.788 2.44677 15.4175C2.6479 15.0469 2.92098 14.7182 3.25015 14.4504C3.67203 14.0974 5.08964 13.2839 7.04727 12.2457L7.16715 12.1867C8.71092 11.3694 10.575 10.4165 12.5377 9.43689L12.6468 9.38325C14.9074 8.25573 17.2969 7.09683 19.4715 6.06397L19.6382 5.98204L20.4843 5.5835C23.2111 4.30532 25.4919 3.2916 26.5912 2.90248C30.3772 1.56212 32.9193 6.73216 32.9193 6.73216C32.9193 6.73216 35.4607 11.901 32.0832 14.0872C31.1015 14.7155 28.9089 15.9086 26.231 17.2864L25.3994 17.7143L25.2327 17.7962C23.0928 18.8906 20.7202 20.0688 18.4422 21.1729Z" fill="#FF0000"/>
<path d="M13.0798 10.269L12.9707 10.3226L12.5332 9.43283L12.6423 9.37919L13.0798 10.269Z" fill="#404958"/>
<path d="M18.4406 21.173L18.3315 21.2266L17.8945 20.338L18.0036 20.2843L18.4406 21.173Z" fill="#404958"/>
<path d="M8.30611 13.1137L7.8824 12.8242L7.04688 12.2451L7.16675 12.1862L8.01178 12.7664L8.38131 13.0214L8.30611 13.1137Z" fill="#404958"/>
<path d="M12.8803 23.8041L12.7604 23.863L12.8174 22.8466L12.8468 22.3342L12.9663 22.3381L12.9426 22.7864L12.8803 23.8041Z" fill="#404958"/>
<path d="M6.26374 25.1243C5.20319 24.4811 4.24894 23.2034 3.30879 21.2913C2.36863 19.3792 1.93408 17.8445 2.0777 16.6107C2.80633 15.9417 3.65894 15.4186 4.58681 15.0713L6.46282 19.7405L9.01552 24.0784C8.17347 24.6004 7.23846 24.9558 6.26374 25.1243Z" fill="#FF5F5F"/>
<path d="M31.9576 7.19897C31.9576 7.19897 30.8987 5.04538 30.098 5.58465L32.1028 9.66206C33.0159 9.3514 31.9576 7.19897 31.9576 7.19897Z" fill="#2B3545"/>
<path d="M27.5649 3.54292L26.687 3.81008C26.4132 3.89313 26.1668 4.04903 25.9751 4.26046C25.7834 4.47189 25.654 4.73058 25.6012 5.00779L25.5973 5.02716L26.6453 7.15848L29.9803 5.51867C30.0582 5.47957 30.1262 5.4233 30.1788 5.3543C30.2314 5.28531 30.2673 5.20547 30.2835 5.1211C30.2998 5.03673 30.296 4.95013 30.2725 4.86814C30.249 4.78615 30.2063 4.71101 30.148 4.64866L29.6192 4.08179C29.3652 3.81102 29.0382 3.61706 28.6752 3.52184C28.3122 3.42662 27.9276 3.43392 27.5649 3.54292Z" fill="white"/>
<path d="M32.126 12.8185L31.3783 13.3506C31.1454 13.5167 30.8715 13.6167 30.587 13.6394C30.3025 13.6621 30.0186 13.6066 29.7668 13.4792L29.7491 13.4704L28.7012 11.3391L32.0362 9.69927C32.1148 9.66145 32.2008 9.64201 32.2876 9.64247C32.3743 9.64293 32.4595 9.66328 32.5362 9.70193C32.6129 9.74057 32.6792 9.79644 32.7298 9.86513C32.7804 9.93382 32.8138 10.0134 32.8276 10.0977L32.9536 10.8626C33.0129 11.2292 32.9669 11.6065 32.8206 11.9522C32.6744 12.2978 32.4338 12.5979 32.126 12.8185Z" fill="white"/>
<path d="M29.3411 4.45268C29.0365 4.14971 28.6414 3.95046 28.2116 3.88307C27.7818 3.81568 27.339 3.88355 26.9458 4.0771L22.1758 6.42247L26.6045 15.4296L31.3745 13.0842C31.7681 12.8907 32.0923 12.581 32.3012 12.1991C32.51 11.8171 32.5931 11.3821 32.5385 10.9557C32.2252 8.48982 31.1025 6.2065 29.3411 4.45268Z" fill="#FF5F5F"/>
<path d="M31.6444 9.68309C31.8462 9.55238 32.0006 9.36117 32.0841 9.13834C32.1676 8.91552 32.1759 8.67321 32.1075 8.44802C31.9874 8.07322 31.838 7.70864 31.6606 7.35755C31.4909 7.00266 31.2934 6.66173 31.0699 6.3378C30.9333 6.146 30.7364 6.00435 30.5088 5.93424C30.2813 5.86413 30.0355 5.86938 29.8085 5.94918L23.0977 8.29822L25.6824 13.555L31.6444 9.68309Z" fill="#FF5F5F"/>
<path d="M26.6053 15.4295L25.5765 15.7592L22.932 16.6053L20.0387 17.533L19.4166 16.3918C18.9544 15.5447 18.513 14.6864 18.0924 13.8169C17.7201 13.0596 17.3649 12.2938 17.0269 11.5195L16.503 10.3301L18.9406 8.64822L21.2243 7.07115L22.1779 6.41301C23.4406 7.58056 24.4753 8.967 25.2323 10.5057C25.2813 10.6054 25.3303 10.705 25.3799 10.8058C26.0508 12.2633 26.4651 13.8266 26.6053 15.4295Z" fill="#2B3545"/>
<path d="M6.56831 14.4027C6.07481 14.3925 5.5858 14.3198 5.11328 14.1864L20.9374 6.40584L18.1786 8.4305L16.1003 9.95606C15.6792 10.265 15.238 10.5461 14.7798 10.7975L12.0435 12.3016L9.56087 13.6679C8.64368 14.1725 7.6099 14.4264 6.56831 14.4027Z" fill="#2B3545"/>
<path d="M25.8641 16.4188L20.0954 18.0833C19.5935 18.2278 19.1013 18.4051 18.6222 18.6141L13.164 20.995C12.4575 21.3029 11.8174 21.7447 11.2805 22.295C10.7437 22.8453 10.3209 23.4932 10.0364 24.2011L25.8605 16.4206L25.8641 16.4188Z" fill="#2B3545"/>
<path d="M9.01452 24.0784C7.13617 24.194 5.77173 22.409 5.14064 21.3465C4.99181 21.1017 4.85658 20.8489 4.73555 20.5893C4.73555 20.5893 2.82893 17.0779 4.58581 15.0713L5.13006 15.1458L6.00792 15.263L7.34275 15.4437C7.34275 15.4437 7.19723 16.5707 7.94557 18.35C8.01894 18.5265 8.10291 18.7094 8.19514 18.897C9.21715 20.9755 10.4053 21.6724 10.4053 21.6724L9.73769 22.8304L9.48765 23.2635L9.01452 24.0784Z" fill="#2B3545"/>
<path opacity="0.1" d="M15.7646 10.7161C15.7646 10.7161 17.4941 15.1691 19.147 17.5954C19.147 17.5954 13.2788 20.3352 11.2115 20.9717C11.2115 20.9717 11.2723 14.6951 15.7646 10.7161Z" fill="white"/>
<path opacity="0.1" d="M24.076 11.1163C21.9936 11.7616 19.896 12.5878 18.0918 13.817C17.7194 13.0596 17.3642 12.2938 17.0262 11.5196L16.5024 10.3301L22.1759 6.42248C23.4386 7.59002 24.4733 8.97646 25.2303 10.5152C25.2793 10.6148 25.3283 10.7145 25.3779 10.8153C24.8926 10.9273 24.4208 11.0093 24.076 11.1163Z" fill="white"/>
<path opacity="0.1" d="M26.6041 15.4295L25.5753 15.7592C25.4037 14.7138 25.1306 13.6888 24.7596 12.6984C24.2875 11.4353 23.6621 10.2354 22.8968 9.12475C22.4216 8.43689 21.7054 7.79767 21.2195 7.07579L22.1731 6.41765C23.4357 7.58519 24.4704 8.97164 25.2275 10.5104C25.2765 10.61 25.3255 10.7097 25.375 10.8105C26.0467 12.2663 26.4622 13.8279 26.6041 15.4295Z" fill="#080808"/>
<path opacity="0.05" d="M26.6056 15.4296L25.5768 15.7593L22.9322 16.6054C22.2734 13.6661 20.9034 10.9391 18.9384 8.65534L21.2221 7.07827L22.1757 6.42013C23.4383 7.58768 24.473 8.97412 25.2301 10.5128C25.2791 10.6125 25.3281 10.7121 25.3776 10.813C26.0486 12.2681 26.4637 13.8289 26.6056 15.4296Z" fill="white"/>
<path opacity="0.1" d="M5.13572 21.3518C4.98688 21.107 4.85166 20.8542 4.73063 20.5946C4.73063 20.5946 2.82885 17.0779 4.58573 15.0713L7.34152 15.4414C7.34152 15.4414 7.196 16.5684 7.94433 18.3477C7.83782 18.4117 7.73505 18.4817 7.63652 18.5572C6.64005 19.3338 5.79254 20.2808 5.13572 21.3518Z" fill="white"/>
<path opacity="0.1" d="M9.01452 24.0784C7.13617 24.194 5.77173 22.409 5.14064 21.3465C4.99181 21.1017 4.85658 20.8489 4.73555 20.5893C4.73555 20.5893 2.82893 17.0779 4.58581 15.0713L5.13006 15.1458C4.22462 16.677 4.56084 18.8322 5.33371 20.2981C6.12263 21.8027 7.4024 23.3731 9.29385 23.599L9.01452 24.0784Z" fill="#080808"/>
<path opacity="0.05" d="M9.01452 24.0784C7.13617 24.194 5.77173 22.409 5.14064 21.3465C4.99181 21.1017 4.85658 20.8489 4.73555 20.5893C4.73555 20.5893 2.82893 17.0779 4.58581 15.0713L5.13006 15.1458L6.00792 15.263C5.76211 16.7629 5.98797 18.2929 6.65494 19.6462C7.32191 20.9994 8.39782 22.1105 9.73712 22.8293L9.48765 23.2635L9.01452 24.0784Z" fill="white"/>
<path opacity="0.1" d="M6.56831 14.4027C6.07481 14.3925 5.5858 14.3198 5.11328 14.1864L20.9374 6.40584L18.1786 8.4305L6.56831 14.4027Z" fill="#080808"/>
<path opacity="0.05" d="M5.11328 14.1864L10.6337 11.472L12.0435 12.3016L9.56087 13.6679C8.88566 14.0389 8.14507 14.2757 7.38175 14.3647C6.61843 14.4537 5.84747 14.3931 5.11328 14.1864Z" fill="white"/>
<path opacity="0.1" d="M10.7541 22.9151C10.4614 23.3128 10.2206 23.7448 10.0375 24.2006L25.8616 16.42L22.5736 17.3684L10.7541 22.9151Z" fill="#080808"/>
<path opacity="0.05" d="M10.037 24.2006L15.5574 21.4862L15.7607 19.8621L13.1628 20.9939C12.4564 21.3017 11.8164 21.7437 11.2799 22.2941C10.7434 22.8445 10.3209 23.4925 10.037 24.2006Z" fill="white"/>
<path d="M26.1624 17.1276C26.3593 17.5039 26.5629 18.2146 25.6423 18.6644L25.1653 16.7589C25.2201 16.7346 25.2778 16.7176 25.3368 16.7081C25.5032 16.6826 25.6726 16.7095 25.8208 16.7848C25.969 16.8601 26.0886 16.9801 26.1624 17.1276Z" fill="#960000"/>
<path d="M25.6441 18.6668L25.1672 16.7613L25.0113 16.8379L25.4538 18.7036L25.6441 18.6668Z" fill="#404958"/>
<path d="M20.56 5.73242C20.3823 5.34669 19.9431 4.75029 19.0254 5.2059L20.2432 6.74711C20.2959 6.71855 20.3446 6.68332 20.3882 6.64234C20.5099 6.52611 20.5921 6.3756 20.6229 6.21222C20.6538 6.04885 20.6318 5.88095 20.56 5.73242Z" fill="#960000"/>
<path d="M19.0253 5.2059L20.243 6.74711L20.0872 6.82374L18.8799 5.33414L19.0253 5.2059Z" fill="#404958"/>
<path opacity="0.1" d="M22.7932 6.35061C22.7932 6.35061 27.1995 3.91333 27.9291 4.08014C28.6586 4.24695 29.2648 4.92573 29.2648 4.92573C29.2648 4.92573 28.218 4.20156 26.7363 4.9301C25.2546 5.65865 23.2083 6.88897 23.2083 6.88897L22.7932 6.35061Z" fill="white"/>
<path opacity="0.1" d="M27.0174 14.944C27.0174 14.944 31.6381 12.9428 31.9515 12.2632C32.2649 11.5835 32.0981 10.6902 32.0981 10.6902C32.0981 10.6902 32.0324 11.9614 30.5507 12.6899C29.0689 13.4185 26.8445 14.2865 26.8445 14.2865L27.0174 14.944Z" fill="white"/>
</g>
<defs>
<clipPath id="clip0_393_221">
<rect width="33" height="15" fill="white" transform="translate(0 14.5609) rotate(-26.1829)"/>
</clipPath>
</defs>
</svg>
