<svg width="26" height="26" viewBox="0 0 26 26" fill="none" xmlns="http://www.w3.org/2000/svg">
<path d="M16.2492 2.59961V6.49961C16.2492 7.21758 16.8313 7.79961 17.5492 7.79961H21.4492M9.09923 7.79961H11.6992M9.09923 11.6996H16.8992M9.09923 15.5996H16.8992M19.4992 4.54961C18.9206 4.03193 18.3203 3.41794 17.9412 3.01916C17.689 2.75381 17.3405 2.59961 16.9744 2.59961H7.14893C5.71299 2.59961 4.54894 3.76366 4.54893 5.19959L4.54883 20.7995C4.54882 22.2355 5.71287 23.3995 7.14882 23.3995L18.8489 23.3996C20.2848 23.3996 21.4488 22.2356 21.4489 20.7997L21.4492 7.01726C21.4492 6.68485 21.3224 6.36531 21.0917 6.126C20.6651 5.68348 19.9527 4.95534 19.4992 4.54961Z" stroke="black" stroke-width="2" stroke-linecap="round" stroke-linejoin="round"/>
</svg>
