<svg width="27" height="27" viewBox="0 0 27 27" fill="none" xmlns="http://www.w3.org/2000/svg">
<path d="M16.8335 2.21875V6.32066C16.8335 7.07581 17.4457 7.68797 18.2008 7.68797H22.3027M9.31334 7.68797H12.0479M9.31334 11.7899H17.5172M9.31334 15.8918H17.5172M20.2518 4.26971C19.6432 3.72523 19.0118 3.07944 18.6131 2.66002C18.3478 2.38093 17.9813 2.21875 17.5963 2.21875H7.26206C5.75178 2.21875 4.52746 3.44307 4.52745 4.95334L4.52734 21.3609C4.52733 22.8712 5.75166 24.0956 7.26194 24.0956L19.5677 24.0956C21.078 24.0956 22.3023 22.8713 22.3024 21.3611L22.3027 6.86512C22.3027 6.5155 22.1694 6.17942 21.9267 5.92771C21.478 5.46228 20.7287 4.69644 20.2518 4.26971Z" stroke="#FA751A" stroke-width="2" stroke-linecap="round" stroke-linejoin="round"/>
</svg>
