<?xml version="1.0" encoding="UTF-8"?> <svg xmlns="http://www.w3.org/2000/svg" version="1.1" id="Layer_1" x="0" y="0" viewBox="0 0 360 77.4" xml:space="preserve"><style>.st0{fill:#00738f}</style><path class="st0" d="M123.4 77.1h2.9V71h8.3v-2.8h-8.3v-2.5h8.8v-2.9h-11.7zM149.1 72.4c0 .3-.1.5-.2.7-.1.2-.4.5-.7.7-.4.2-.8.4-1.4.5-.6.1-1.2.2-2 .2s-1.4-.1-2-.2c-.5-.1-1-.3-1.4-.5-.3-.2-.5-.4-.7-.7-.1-.2-.2-.5-.2-.7v-9.6h-2.9v9.5c0 .8.2 1.5.5 2.1.3.6.8 1.2 1.5 1.6.6.4 1.4.8 2.3 1 .9.2 1.9.3 3 .3s2.1-.1 3-.3c.9-.2 1.7-.6 2.3-1 .6-.4 1.1-1 1.5-1.6.3-.6.5-1.4.5-2.1v-9.5h-2.9v9.6zM154.1 65.7h5.6v11.4h3V65.7h5.7v-2.9h-14.3zM181.9 72.4c0 .3-.1.5-.2.7-.1.2-.4.5-.7.7-.4.2-.8.4-1.4.5-.6.1-1.2.2-2 .2s-1.4-.1-2-.2c-.5-.1-1-.3-1.4-.5-.3-.2-.5-.4-.7-.7-.1-.2-.2-.5-.2-.7v-9.6h-2.9v9.5c0 .8.2 1.5.5 2.1.3.6.8 1.2 1.5 1.6.6.4 1.4.8 2.3 1 .9.2 1.9.3 3 .3s2.1-.1 3-.3c.9-.2 1.7-.6 2.3-1 .6-.4 1.1-1 1.5-1.6.3-.6.5-1.4.5-2.1v-9.5h-2.9v9.6zM201 70.2c.6-.7 1-1.7 1-2.8 0-.7-.1-1.4-.4-1.9-.3-.6-.7-1.1-1.3-1.5-.5-.4-1.2-.6-2-.8-.7-.2-1.6-.2-2.6-.2h-7.1v14.3h2.9V72H196.4l4 5.4h3.7l-4.6-5.9c.6-.6 1.2-.9 1.5-1.3zm-2.1-2c-.1.2-.3.3-.5.4-.3.1-.8.2-1.4.3-.7.1-1.5.1-2.5.1h-2.9v-3.2h3c1 0 1.8 0 2.5.1.6.1 1.1.2 1.4.3.2.1.4.2.5.4.1.2.2.5.2.8-.2.4-.3.6-.3.8zM208.7 71h8.7v-2.8h-8.7v-2.5h9.1v-2.9h-12.2v14.3H218v-2.8h-9.3zM243.8 64.3c-.8-.6-1.7-1-2.8-1.3-1.7-.5-3.8-.5-5.6-.2-.7.1-1.4.3-2.1.6-.7.3-1.3.6-1.8 1-.6.4-1 .9-1.4 1.5-.4.6-.7 1.2-.9 1.9-.2.7-.3 1.5-.3 2.3 0 1.3.2 2.4.7 3.3.5.9 1.1 1.7 2 2.3.8.6 1.8 1 2.8 1.3 1 .3 2.2.4 3.4.4 1.2 0 2.3-.1 3.3-.4 1.1-.3 2-.7 2.8-1.3.8-.6 1.5-1.4 1.9-2.3.5-.9.7-2 .7-3.3s-.2-2.4-.7-3.3c-.5-1.1-1.1-1.9-2-2.5zm-.6 7.7c-.2.5-.6 1-1 1.4-.5.4-1.1.7-1.8.9-.8.2-1.7.3-2.7.3s-1.9-.1-2.7-.3c-.7-.2-1.3-.5-1.8-.9s-.8-.8-1-1.4c-.2-.6-.4-1.2-.4-2 0-.7.1-1.4.4-2 .2-.6.6-1 1-1.4.5-.4 1.1-.7 1.8-.9.8-.2 1.7-.3 2.7-.3 1 0 1.9.1 2.7.3.7.2 1.3.5 1.8.9s.8.8 1 1.4c.2.6.4 1.2.4 2s-.2 1.4-.4 2zM249.5 77.1h3V71h8.3v-2.8h-8.3v-2.5h8.7v-2.9h-11.7zM272.4 77.1h2.9V71h8.3v-2.8h-8.3v-2.5h8.7v-2.9h-11.6zM289.6 62.8h-2.9v14.3h12v-2.8h-9.1zM304.3 71h8.7v-2.8h-8.7v-2.5h9.1v-2.9h-12.2v14.3h12.4v-2.8h-9.3zM319.8 71h8.7v-2.8h-8.7v-2.5h9.2v-2.9h-12.2v14.3h12.3v-2.8h-9.3zM330.6 65.7h5.7v11.4h2.9V65.7h5.7v-2.9h-14.3zM359.6 71.4c-.3-.4-.6-.8-1-1.1-.4-.3-.9-.6-1.4-.8-.5-.2-1-.4-1.5-.5-.5-.2-1.1-.3-1.6-.4-.5-.1-1.1-.3-1.6-.4-.5-.1-.9-.3-1.4-.4-.4-.1-.8-.3-1-.4-.2-.1-.4-.3-.5-.4-.1-.1-.1-.1-.1-.2 0-.2.1-.4.1-.4.1-.2.3-.3.6-.4.3-.1.7-.3 1.2-.3 1-.1 2.3-.2 3.4 0 .5.1.9.1 1.2.2.4.1.7.2.9.3.3.1.6.2.8.3l1.3.5v-3.4l-.7-.2-1.2-.3-1.2-.3c-.4-.1-.9-.1-1.3-.2-.9-.1-1.9-.1-2.9 0-.5 0-1 .1-1.4.2-.5.1-.9.3-1.4.4-.5.2-.9.4-1.2.7-.4.3-.7.7-.9 1.1-.2.4-.3 1-.3 1.5 0 .6.1 1.1.4 1.6.3.4.6.8 1 1.1.4.3.9.5 1.4.7.5.2 1 .4 1.5.5.5.1 1.1.3 1.6.4.5.1 1 .2 1.5.4.5.1.9.3 1.4.4.4.1.7.3 1 .4.2.1.4.3.5.5.1.1.1.2.1.4 0 .3-.1.4-.2.5-.1.2-.4.3-.7.5-.4.2-.8.3-1.4.3-1.3.2-3.1.2-4.6-.1-.8-.2-1.6-.5-2.3-.9l-1.4-.8V76l.6.2c.8.3 1.7.5 2.7.7.9.2 2 .3 3.1.3.5 0 1 0 1.5-.1.5 0 1-.1 1.5-.2s1-.3 1.4-.4c.5-.2.9-.5 1.3-.8.4-.3.7-.7.9-1.2.2-.5.4-1 .4-1.6.3-.4.2-1-.1-1.5zM235.3 0h-33.4C195.3 0 190 5.3 190 11.8v22.7c0 6.5 5.3 11.8 11.8 11.8h33.4c6.5 0 11.8-5.3 11.8-11.8V11.8c.1-6.5-5.2-11.8-11.7-11.8zm2.9 32.7c0 2.6-2.1 4.7-4.7 4.7H203.7c-2.6 0-4.7-2.1-4.7-4.7V13.6c0-2.6 2.1-4.7 4.7-4.7h29.8c2.6 0 4.7 2.1 4.7 4.7v19.1zM266.3 32.7V0h-8.9v34.5c0 6.5 5.3 11.8 11.8 11.8h33.7v-8.9H271c-2.6 0-4.7-2.1-4.7-4.7zM42.4 0H0l9 8.9h31.7c2.6 0 4.7 2.1 4.7 4.7v4.3c0 2.6-2.1 4.7-4.7 4.7H11.8C5.3 22.6 0 27.9 0 34.4v11.9h8.9V36.1c0-2.6 2.1-4.7 4.7-4.7h12.8-.1l14.9 14.9h13L39.1 31.4h3.3c2.8 0 5.6-1 7.8-2.8 2.5-2.2 4-5.4 4-8.9v-7.9C54.2 5.3 48.9 0 42.4 0zM176.4 0l-19.8 35.2c-.7 1.2-1.8 1.9-3 2.1-1.3-.2-2.4-.9-3-2.1L130.8 0h-10L144 41.8c1.6 2.8 4.6 4.6 7.8 4.6h3.6c3.2 0 6.2-1.7 7.8-4.6L186.4 0h-10zM357.4 0H350l-19.8 35.2c-.7 1.2-1.8 1.9-3 2.1-1.3-.2-2.4-.9-3-2.1L304.4 0h-10l23.2 41.8c1.6 2.8 4.6 4.6 7.8 4.6h3.6c3.2 0 6.2-1.7 7.8-4.6L360 0h-2.6zM77.4 8.9h36.8V0H75.6c-6.5 0-11.8 5.3-11.8 11.8v22.7c0 6.5 5.3 11.8 11.8 11.8h38.6v-8.9H77.4c-2.6 0-4.7-2.1-4.7-4.7v-5.1h41.1v-8.9H72.7v-5.1c0-2.6 2.1-4.7 4.7-4.7zM0 68l4 4h110.2v-4z"></path></svg>
