<svg width="53" height="20" viewBox="0 0 53 20" fill="none" xmlns="http://www.w3.org/2000/svg">
<path d="M19 0L19 5C19 6.10457 18.1046 7 17 7L2 7C0.895431 7 -2.66839e-07 6.10457 -2.18557e-07 5L0 -8.30516e-07L19 0Z" fill="#A6C9C6"/>
<path d="M10 16L9.5 15.9992L9.49923 16.5L10 16.5L10 16ZM52.3536 16.3536C52.5488 16.1583 52.5488 15.8417 52.3536 15.6464L49.1716 12.4645C48.9763 12.2692 48.6597 12.2692 48.4645 12.4645C48.2692 12.6597 48.2692 12.9763 48.4645 13.1716L51.2929 16L48.4645 18.8284C48.2692 19.0237 48.2692 19.3403 48.4645 19.5355C48.6597 19.7308 48.9763 19.7308 49.1716 19.5355L52.3536 16.3536ZM9.50918 9.99923L9.50803 10.7492L10.508 10.7508L10.5092 10.0008L9.50918 9.99923ZM9.50574 12.2492L9.50344 13.7492L10.5034 13.7508L10.5057 12.2508L9.50574 12.2492ZM9.50115 15.2492L9.5 15.9992L10.5 16.0008L10.5011 15.2508L9.50115 15.2492ZM10 16.5L11.05 16.5L11.05 15.5L10 15.5L10 16.5ZM13.15 16.5L15.25 16.5L15.25 15.5L13.15 15.5L13.15 16.5ZM17.35 16.5L19.45 16.5L19.45 15.5L17.35 15.5L17.35 16.5ZM21.55 16.5L23.65 16.5L23.65 15.5L21.55 15.5L21.55 16.5ZM25.75 16.5L27.85 16.5L27.85 15.5L25.75 15.5L25.75 16.5ZM29.95 16.5L31 16.5L31 15.5L29.95 15.5L29.95 16.5ZM31 16.5L32.05 16.5L32.05 15.5L31 15.5L31 16.5ZM34.15 16.5L36.25 16.5L36.25 15.5L34.15 15.5L34.15 16.5ZM38.35 16.5L40.45 16.5L40.45 15.5L38.35 15.5L38.35 16.5ZM42.55 16.5L44.65 16.5L44.65 15.5L42.55 15.5L42.55 16.5ZM46.75 16.5L48.85 16.5L48.85 15.5L46.75 15.5L46.75 16.5ZM50.95 16.5L52 16.5L52 15.5L50.95 15.5L50.95 16.5Z" fill="#8E9F9E"/>
</svg>
