<svg width="531" height="420" viewBox="0 0 531 420" fill="none" xmlns="http://www.w3.org/2000/svg">
<rect width="531" height="420" fill="white"/>
<ellipse cx="262" cy="219" rx="189" ry="182" fill="#D9D9D9"/>
<ellipse cx="264" cy="220.5" rx="130" ry="127.5" fill="white"/>
<path d="M168.672 222H165.024L154.048 205.392V222H150.4V199.728H154.048L165.024 216.304V199.728H168.672V222ZM181.111 222.288C179.447 222.288 177.943 221.915 176.599 221.168C175.255 220.4 174.199 219.333 173.431 217.968C172.663 216.581 172.279 214.981 172.279 213.168C172.279 211.376 172.673 209.787 173.463 208.4C174.252 207.013 175.329 205.947 176.695 205.2C178.06 204.453 179.585 204.08 181.271 204.08C182.956 204.08 184.481 204.453 185.847 205.2C187.212 205.947 188.289 207.013 189.079 208.4C189.868 209.787 190.263 211.376 190.263 213.168C190.263 214.96 189.857 216.549 189.047 217.936C188.236 219.323 187.127 220.4 185.719 221.168C184.332 221.915 182.796 222.288 181.111 222.288ZM181.111 219.12C182.049 219.12 182.924 218.896 183.735 218.448C184.567 218 185.239 217.328 185.751 216.432C186.263 215.536 186.519 214.448 186.519 213.168C186.519 211.888 186.273 210.811 185.783 209.936C185.292 209.04 184.641 208.368 183.831 207.92C183.02 207.472 182.145 207.248 181.207 207.248C180.268 207.248 179.393 207.472 178.583 207.92C177.793 208.368 177.164 209.04 176.695 209.936C176.225 210.811 175.991 211.888 175.991 213.168C175.991 215.067 176.471 216.539 177.431 217.584C178.412 218.608 179.639 219.12 181.111 219.12ZM209.445 199.76C211.813 199.76 213.883 200.219 215.653 201.136C217.445 202.032 218.821 203.333 219.781 205.04C220.763 206.725 221.253 208.699 221.253 210.96C221.253 213.221 220.763 215.184 219.781 216.848C218.821 218.512 217.445 219.792 215.653 220.688C213.883 221.563 211.813 222 209.445 222H202.181V199.76H209.445ZM209.445 219.024C212.048 219.024 214.043 218.32 215.429 216.912C216.816 215.504 217.509 213.52 217.509 210.96C217.509 208.379 216.816 206.363 215.429 204.912C214.043 203.461 212.048 202.736 209.445 202.736H205.829V219.024H209.445ZM223.653 213.104C223.653 211.333 224.015 209.765 224.741 208.4C225.487 207.035 226.49 205.979 227.749 205.232C229.029 204.464 230.437 204.08 231.973 204.08C233.359 204.08 234.565 204.357 235.589 204.912C236.634 205.445 237.466 206.117 238.085 206.928V204.368H241.765V222H238.085V219.376C237.466 220.208 236.623 220.901 235.557 221.456C234.49 222.011 233.274 222.288 231.909 222.288C230.394 222.288 229.007 221.904 227.749 221.136C226.49 220.347 225.487 219.259 224.741 217.872C224.015 216.464 223.653 214.875 223.653 213.104ZM238.085 213.168C238.085 211.952 237.829 210.896 237.317 210C236.826 209.104 236.175 208.421 235.365 207.952C234.554 207.483 233.679 207.248 232.741 207.248C231.802 207.248 230.927 207.483 230.117 207.952C229.306 208.4 228.645 209.072 228.133 209.968C227.642 210.843 227.397 211.888 227.397 213.104C227.397 214.32 227.642 215.387 228.133 216.304C228.645 217.221 229.306 217.925 230.117 218.416C230.949 218.885 231.823 219.12 232.741 219.12C233.679 219.12 234.554 218.885 235.365 218.416C236.175 217.947 236.826 217.264 237.317 216.368C237.829 215.451 238.085 214.384 238.085 213.168ZM250.812 207.344V217.104C250.812 217.765 250.962 218.245 251.26 218.544C251.58 218.821 252.114 218.96 252.86 218.96H255.1V222H252.22C250.578 222 249.319 221.616 248.444 220.848C247.57 220.08 247.132 218.832 247.132 217.104V207.344H245.052V204.368H247.132V199.984H250.812V204.368H255.1V207.344H250.812ZM257.247 213.104C257.247 211.333 257.609 209.765 258.335 208.4C259.081 207.035 260.084 205.979 261.343 205.232C262.623 204.464 264.031 204.08 265.567 204.08C266.953 204.08 268.159 204.357 269.183 204.912C270.228 205.445 271.06 206.117 271.679 206.928V204.368H275.359V222H271.679V219.376C271.06 220.208 270.217 220.901 269.151 221.456C268.084 222.011 266.868 222.288 265.503 222.288C263.988 222.288 262.601 221.904 261.343 221.136C260.084 220.347 259.081 219.259 258.335 217.872C257.609 216.464 257.247 214.875 257.247 213.104ZM271.679 213.168C271.679 211.952 271.423 210.896 270.911 210C270.42 209.104 269.769 208.421 268.959 207.952C268.148 207.483 267.273 207.248 266.335 207.248C265.396 207.248 264.521 207.483 263.711 207.952C262.9 208.4 262.239 209.072 261.727 209.968C261.236 210.843 260.991 211.888 260.991 213.104C260.991 214.32 261.236 215.387 261.727 216.304C262.239 217.221 262.9 217.925 263.711 218.416C264.543 218.885 265.417 219.12 266.335 219.12C267.273 219.12 268.148 218.885 268.959 218.416C269.769 217.947 270.42 217.264 270.911 216.368C271.423 215.451 271.679 214.384 271.679 213.168ZM301.551 199.76V202.736H292.111V209.296H299.471V212.272H292.111V222H288.463V199.76H301.551ZM312.579 222.288C310.915 222.288 309.411 221.915 308.067 221.168C306.723 220.4 305.667 219.333 304.899 217.968C304.131 216.581 303.747 214.981 303.747 213.168C303.747 211.376 304.142 209.787 304.931 208.4C305.721 207.013 306.798 205.947 308.163 205.2C309.529 204.453 311.054 204.08 312.739 204.08C314.425 204.08 315.95 204.453 317.315 205.2C318.681 205.947 319.758 207.013 320.547 208.4C321.337 209.787 321.731 211.376 321.731 213.168C321.731 214.96 321.326 216.549 320.515 217.936C319.705 219.323 318.595 220.4 317.187 221.168C315.801 221.915 314.265 222.288 312.579 222.288ZM312.579 219.12C313.518 219.12 314.393 218.896 315.203 218.448C316.035 218 316.707 217.328 317.219 216.432C317.731 215.536 317.987 214.448 317.987 213.168C317.987 211.888 317.742 210.811 317.251 209.936C316.761 209.04 316.11 208.368 315.299 207.92C314.489 207.472 313.614 207.248 312.675 207.248C311.737 207.248 310.862 207.472 310.051 207.92C309.262 208.368 308.633 209.04 308.163 209.936C307.694 210.811 307.459 211.888 307.459 213.168C307.459 215.067 307.939 216.539 308.899 217.584C309.881 218.608 311.107 219.12 312.579 219.12ZM341.306 204.368V222H337.658V219.92C337.082 220.645 336.324 221.221 335.386 221.648C334.468 222.053 333.487 222.256 332.442 222.256C331.055 222.256 329.807 221.968 328.698 221.392C327.61 220.816 326.746 219.963 326.106 218.832C325.487 217.701 325.178 216.336 325.178 214.736V204.368H328.794V214.192C328.794 215.771 329.188 216.987 329.978 217.84C330.767 218.672 331.844 219.088 333.21 219.088C334.575 219.088 335.652 218.672 336.442 217.84C337.252 216.987 337.658 215.771 337.658 214.192V204.368H341.306ZM355.015 204.08C356.401 204.08 357.639 204.368 358.727 204.944C359.836 205.52 360.7 206.373 361.319 207.504C361.937 208.635 362.247 210 362.247 211.6V222H358.631V212.144C358.631 210.565 358.236 209.36 357.447 208.528C356.657 207.675 355.58 207.248 354.215 207.248C352.849 207.248 351.761 207.675 350.951 208.528C350.161 209.36 349.767 210.565 349.767 212.144V222H346.119V204.368H349.767V206.384C350.364 205.659 351.121 205.093 352.039 204.688C352.977 204.283 353.969 204.08 355.015 204.08ZM365.684 213.104C365.684 211.333 366.047 209.765 366.772 208.4C367.519 207.035 368.521 205.979 369.78 205.232C371.06 204.464 372.479 204.08 374.036 204.08C375.188 204.08 376.319 204.336 377.428 204.848C378.559 205.339 379.455 206 380.116 206.832V198.32H383.796V222H380.116V219.344C379.519 220.197 378.687 220.901 377.62 221.456C376.575 222.011 375.369 222.288 374.004 222.288C372.468 222.288 371.06 221.904 369.78 221.136C368.521 220.347 367.519 219.259 366.772 217.872C366.047 216.464 365.684 214.875 365.684 213.104ZM380.116 213.168C380.116 211.952 379.86 210.896 379.348 210C378.857 209.104 378.207 208.421 377.396 207.952C376.585 207.483 375.711 207.248 374.772 207.248C373.833 207.248 372.959 207.483 372.148 207.952C371.337 208.4 370.676 209.072 370.164 209.968C369.673 210.843 369.428 211.888 369.428 213.104C369.428 214.32 369.673 215.387 370.164 216.304C370.676 217.221 371.337 217.925 372.148 218.416C372.98 218.885 373.855 219.12 374.772 219.12C375.711 219.12 376.585 218.885 377.396 218.416C378.207 217.947 378.857 217.264 379.348 216.368C379.86 215.451 380.116 214.384 380.116 213.168Z" fill="#BAB5B5"/>
</svg>
