<svg width="27" height="26" viewBox="0 0 27 26" fill="none" xmlns="http://www.w3.org/2000/svg">
<path d="M16.2133 19.7286H21.5645C23.2213 19.7286 24.5645 18.3855 24.5645 16.7286V15.4581H2.5V16.7286C2.5 18.3855 3.84272 19.7286 5.49957 19.7286C7.20513 19.7286 9.3519 19.7286 11.1459 19.7286" stroke="black" stroke-width="1.5" stroke-linecap="round"/>
<path d="M9.30814 11.0898L9.30403 10.5939H8.80815H2.99023V8.83956L8.83027 8.83956H9.33027V8.33956V7.55299L12.2317 9.6912L9.31264 11.6342L9.30814 11.0898Z" stroke="black"/>
<path d="M17.6822 11.1019L17.6909 10.6109H18.1821H24V8.85647L18.16 8.85647H17.66V8.35647V7.5699L14.7597 9.70724L17.6726 11.6381L17.6822 11.1019Z" stroke="black"/>
<circle cx="13.7323" cy="19.7462" r="0.742096" fill="black"/>
</svg>
