<svg width="25" height="24" viewBox="0 0 25 24" fill="none" xmlns="http://www.w3.org/2000/svg">
<path d="M17.9883 21.0002L7.98828 21M17.9883 21.0002L18.7914 21C19.9093 21 20.4683 21 20.8957 20.7822C21.272 20.5905 21.5788 20.2843 21.7705 19.908C21.9883 19.4806 21.9883 18.921 21.9883 17.8031V9.21955C21.9883 8.77072 21.9883 8.54521 21.9404 8.33105C21.8977 8.14 21.8275 7.95652 21.7315 7.78595C21.6249 7.59674 21.4753 7.43055 21.1812 7.10378L18.426 4.04241C18.0852 3.66374 17.9124 3.47181 17.7051 3.33398C17.5185 3.21 17.3125 3.11858 17.0956 3.06287C16.8508 3 16.5881 3 16.0633 3H7.18848C6.06837 3 5.5079 3 5.08008 3.21799C4.70375 3.40973 4.39801 3.71547 4.20627 4.0918C3.98828 4.51962 3.98828 5.08009 3.98828 6.2002V17.8002C3.98828 18.9203 3.98828 19.4796 4.20627 19.9074C4.39801 20.2837 4.70375 20.5905 5.08008 20.7822C5.50748 21 6.06728 21 7.18519 21H7.98828M17.9883 21.0002V17.1969C17.9883 16.079 17.9883 15.5192 17.7705 15.0918C17.5788 14.7155 17.272 14.4097 16.8957 14.218C16.4679 14 15.9086 14 14.7885 14H11.1885C10.0684 14 9.5079 14 9.08008 14.218C8.70375 14.4097 8.39802 14.7155 8.20627 15.0918C7.98828 15.5196 7.98828 16.0801 7.98828 17.2002V21M15.9883 7H9.98828" stroke="#4A4A4A" stroke-width="2" stroke-linecap="round" stroke-linejoin="round"/>
</svg>
