<svg width="31" height="31" viewBox="0 0 31 31" fill="none" xmlns="http://www.w3.org/2000/svg">
<path d="M30.9381 5.69134L25.6222 11.0218C25.6197 11.0243 25.6168 11.0263 25.6135 11.0277C25.6102 11.0291 25.6067 11.0298 25.6032 11.0298C25.5996 11.0298 25.5961 11.0291 25.5929 11.0277C25.5896 11.0263 25.5866 11.0243 25.5842 11.0218L20.9389 6.36788C20.9364 6.3654 20.9344 6.36244 20.933 6.35917C20.9316 6.3559 20.9309 6.35239 20.9309 6.34884C20.9309 6.3453 20.9316 6.34179 20.933 6.33852C20.9344 6.33525 20.9364 6.33228 20.9389 6.3298L26.2504 1.00762C26.2553 1.00279 26.2619 1.00006 26.2688 1H30.9197C30.9232 1 30.9267 1.00069 30.9299 1.00203C30.9332 1.00337 30.9361 1.00533 30.9386 1.00781C30.941 1.01028 30.943 1.01322 30.9443 1.01646C30.9457 1.01969 30.9464 1.02316 30.9464 1.02666L30.9457 5.67294C30.9457 5.67983 30.9429 5.68642 30.9381 5.69134Z" fill="#102C53"/>
<path d="M17.8404 9.28428C17.8484 9.27631 17.8545 9.26675 17.8585 9.25624C17.8624 9.24573 17.8641 9.23451 17.8633 9.22335L17.7162 6.89608C17.7156 6.88769 17.7168 6.87932 17.7196 6.87154C17.7225 6.86377 17.7269 6.85677 17.7327 6.85102C18.5153 6.06321 19.2936 5.28491 20.0674 4.51614C20.5694 4.01794 21.3789 4.06109 21.8917 4.5612C21.8936 4.56297 21.895 4.56509 21.896 4.56744C21.897 4.56978 21.8975 4.5723 21.8975 4.57484C21.8975 4.57739 21.897 4.57991 21.896 4.58225C21.895 4.58459 21.8936 4.58672 21.8917 4.58849L21.131 5.35071C21.1146 5.36678 21.0953 5.37186 21.0734 5.36594C20.8452 5.30205 20.6484 5.35176 20.4832 5.51508C20.2208 5.77465 19.8715 6.02597 20.0388 6.45373C20.0709 6.53581 20.1272 6.61684 20.2074 6.6968C21.9228 8.41248 23.6117 10.1042 25.2743 11.7721C25.4657 11.9642 25.6819 12.0156 25.9227 11.9263C26.1091 11.8578 26.3082 11.6122 26.4559 11.4554C26.5957 11.3073 26.642 11.1186 26.5947 10.8893C26.5888 10.8601 26.5964 10.8349 26.6175 10.8138L27.3579 10.0738C27.3603 10.0714 27.3631 10.0695 27.3663 10.0682C27.3694 10.0669 27.3728 10.0663 27.3762 10.0663C27.3797 10.0664 27.3831 10.0671 27.3862 10.0685C27.3894 10.0699 27.3923 10.0719 27.3947 10.0744C27.7978 10.4939 27.905 11.1064 27.6406 11.6103C27.5679 11.7486 27.4405 11.9079 27.2584 12.0882C26.523 12.8172 25.8074 13.5331 25.1113 14.2358C25.1056 14.2418 25.0986 14.2464 25.0908 14.2494C25.083 14.2524 25.0747 14.2536 25.0663 14.253L22.7412 14.1057C22.7278 14.1047 22.7144 14.1067 22.702 14.1114C22.6895 14.1161 22.6782 14.1235 22.6689 14.133L18.9149 17.8946C18.9092 17.9003 18.9014 17.9035 18.8932 17.9035C18.8851 17.9035 18.8771 17.9003 18.8712 17.8946L14.0801 13.0935C14.0746 13.0879 14.0715 13.0803 14.0715 13.0725C14.0715 13.0647 14.0746 13.0571 14.0801 13.0516L17.8404 9.28428ZM18.0904 10.7705C18.0889 10.7689 18.087 10.7676 18.0849 10.7667C18.0828 10.7659 18.0806 10.7654 18.0784 10.7654C18.0761 10.7654 18.0739 10.7659 18.0718 10.7667C18.0697 10.7676 18.0678 10.7688 18.0662 10.7704L15.6837 13.1474C15.6805 13.1506 15.6787 13.155 15.6787 13.1595C15.6787 13.1641 15.6805 13.1684 15.6837 13.1716L18.7872 16.2897C18.7888 16.2913 18.7907 16.2926 18.7928 16.2934C18.7949 16.2943 18.7971 16.2948 18.7993 16.2948C18.8016 16.2948 18.8038 16.2943 18.8059 16.2935C18.808 16.2926 18.8099 16.2914 18.8115 16.2898L21.194 13.9128C21.1972 13.9096 21.199 13.9052 21.199 13.9007C21.199 13.8961 21.1972 13.8918 21.194 13.8885L18.0904 10.7705Z" fill="#102C53"/>
<path d="M12.7951 26.3777C12.1764 26.6506 11.4817 26.5471 11.0018 26.0667C9.2852 24.3468 7.5857 22.6432 5.90331 20.9558C5.26814 20.3186 5.34547 19.3191 5.96226 18.7035C7.80947 16.857 9.62793 15.0341 11.4177 13.2347C11.4363 13.216 11.4548 13.216 11.4734 13.2347L18.7393 20.5116C18.7445 20.5169 18.7474 20.5241 18.7474 20.5316C18.7474 20.539 18.7445 20.5462 18.7393 20.5516C16.914 22.376 15.1133 24.1805 13.3371 25.9651C13.1322 26.1712 12.9515 26.3087 12.7951 26.3777ZM12.894 23.7381C12.8958 23.74 12.898 23.7415 12.9004 23.7424C12.9028 23.7434 12.9054 23.744 12.908 23.744C12.9106 23.744 12.9131 23.7434 12.9155 23.7424C12.9179 23.7415 12.9201 23.74 12.9219 23.7381L16.3342 20.3199C16.3361 20.3181 16.3375 20.3159 16.3385 20.3135C16.3395 20.3111 16.34 20.3085 16.34 20.306C16.34 20.3034 16.3395 20.3008 16.3385 20.2984C16.3375 20.296 16.3361 20.2938 16.3342 20.292L11.689 15.6387C11.6871 15.6369 11.685 15.6354 11.6826 15.6344C11.6802 15.6334 11.6776 15.6329 11.675 15.6329C11.6724 15.6329 11.6699 15.6334 11.6675 15.6344C11.6651 15.6354 11.6629 15.6369 11.6611 15.6387L8.24939 19.0563C8.24756 19.0582 8.24609 19.0603 8.2451 19.0627C8.2441 19.0651 8.24359 19.0677 8.24359 19.0703C8.24359 19.0729 8.2441 19.0755 8.2451 19.0778C8.24609 19.0802 8.24756 19.0824 8.24939 19.0842L12.894 23.7381Z" fill="#102C53"/>
<path d="M5.67569 30.9999L1.02409 30.9992C1.0177 30.9992 1.01157 30.9967 1.00706 30.9922C1.00254 30.9876 1 30.9815 1 30.9751V26.3206C0.999979 26.3174 1.00058 26.3143 1.00178 26.3113C1.00298 26.3084 1.00474 26.3057 1.00697 26.3034L5.56285 21.7371C5.56509 21.7349 5.56776 21.7331 5.5707 21.7318C5.57363 21.7306 5.57679 21.73 5.57997 21.73C5.58315 21.73 5.5863 21.7306 5.58924 21.7318C5.59218 21.7331 5.59484 21.7349 5.59708 21.7371L10.2474 26.3917C10.2497 26.3939 10.2515 26.3966 10.2527 26.3995C10.2539 26.4025 10.2546 26.4056 10.2546 26.4088C10.2546 26.412 10.2539 26.4151 10.2527 26.4181C10.2515 26.421 10.2497 26.4237 10.2474 26.4259L5.6928 30.9929C5.69055 30.9951 5.68788 30.9969 5.68494 30.9981C5.682 30.9993 5.67886 30.9999 5.67569 30.9999Z" fill="#102C53"/>
<path d="M0.952148 1.03076L8.77492 8.85353" stroke="#102C53" stroke-width="2"/>
<path d="M8.7749 1.03076L0.952134 8.85353" stroke="#102C53" stroke-width="2"/>
</svg>
