<?xml version="1.0" standalone="no"?>
<!DOCTYPE svg PUBLIC "-//W3C//DTD SVG 20010904//EN"
 "http://www.w3.org/TR/2001/REC-SVG-20010904/DTD/svg10.dtd">
<svg version="1.0" xmlns="http://www.w3.org/2000/svg"
 width="160.000000pt" height="160.000000pt" viewBox="0 0 160.000000 160.000000"
 preserveAspectRatio="xMidYMid meet">

<g transform="translate(0.000000,160.000000) scale(0.100000,-0.100000)"
fill="#000000" stroke="none">
<path d="M495 1251 c-11 -5 -47 -40 -80 -79 -52 -61 -69 -74 -128 -98 -102
-39 -107 -48 -107 -171 0 -114 10 -136 67 -149 48 -10 53 -13 62 -36 18 -46
59 -73 111 -73 52 0 93 27 111 73 7 19 16 22 59 22 43 0 50 -3 50 -19 0 -11
14 -31 30 -44 l30 -26 0 -125 0 -126 -207 -2 c-177 -3 -208 -5 -208 -18 0 -13
33 -15 228 -18 l227 -2 0 169 0 170 -27 3 c-17 2 -28 9 -28 18 0 12 19 15 115
15 96 0 115 -3 115 -15 0 -9 -11 -16 -27 -18 l-28 -3 0 -170 0 -169 228 2
c194 3 227 5 227 18 0 13 -31 15 -207 18 l-208 2 0 126 0 125 30 26 c17 13 30
33 30 44 0 17 8 19 70 19 64 0 71 -2 79 -22 29 -76 132 -99 190 -44 16 15 32
39 35 52 4 13 13 24 22 24 8 0 26 11 39 25 23 22 25 32 25 115 0 124 -4 128
-179 163 l-134 27 -86 78 c-47 43 -96 84 -108 90 -25 14 -386 16 -418 3z m469
-96 c41 -36 82 -75 93 -89 15 -19 41 -28 158 -51 77 -15 146 -32 153 -37 16
-14 17 -159 0 -176 -16 -16 -38 -15 -38 1 0 7 -14 26 -31 43 -58 55 -161 32
-190 -43 l-9 -23 -280 0 -280 0 -9 23 c-18 45 -59 72 -111 72 -52 0 -93 -27
-110 -71 -7 -17 -15 -20 -37 -16 -49 8 -53 18 -53 117 0 62 4 96 13 102 24 19
104 43 120 37 11 -4 19 1 24 14 5 12 36 53 71 92 l63 70 189 0 189 0 75 -65z
m-489 -340 c50 -49 15 -135 -55 -135 -41 0 -80 39 -80 80 0 41 39 80 80 80 19
0 40 -9 55 -25z m800 0 c16 -15 25 -36 25 -55 0 -19 -9 -40 -25 -55 -15 -16
-36 -25 -55 -25 -19 0 -40 9 -55 25 -16 15 -25 36 -25 55 0 19 9 40 25 55 15
16 36 25 55 25 19 0 40 -9 55 -25z"/>
<path d="M424 1069 c-10 -17 13 -36 27 -22 12 12 4 33 -11 33 -5 0 -12 -5 -16
-11z"/>
<path d="M504 1069 c-10 -17 13 -36 27 -22 12 12 4 33 -11 33 -5 0 -12 -5 -16
-11z"/>
<path d="M584 1069 c-10 -17 13 -36 27 -22 12 12 4 33 -11 33 -5 0 -12 -5 -16
-11z"/>
<path d="M664 1069 c-10 -17 13 -36 27 -22 12 12 4 33 -11 33 -5 0 -12 -5 -16
-11z"/>
<path d="M744 1069 c-10 -17 13 -36 27 -22 12 12 4 33 -11 33 -5 0 -12 -5 -16
-11z"/>
<path d="M824 1069 c-10 -17 13 -36 27 -22 12 12 4 33 -11 33 -5 0 -12 -5 -16
-11z"/>
<path d="M904 1069 c-10 -17 13 -36 27 -22 12 12 4 33 -11 33 -5 0 -12 -5 -16
-11z"/>
<path d="M984 1069 c-10 -17 13 -36 27 -22 12 12 4 33 -11 33 -5 0 -12 -5 -16
-11z"/>
<path d="M784 689 c-10 -17 13 -36 27 -22 12 12 4 33 -11 33 -5 0 -12 -5 -16
-11z"/>
<path d="M784 389 c-10 -17 13 -36 27 -22 12 12 4 33 -11 33 -5 0 -12 -5 -16
-11z"/>
</g>
</svg>
