<?xml version="1.0" standalone="no"?>
<!DOCTYPE svg PUBLIC "-//W3C//DTD SVG 20010904//EN"
 "http://www.w3.org/TR/2001/REC-SVG-20010904/DTD/svg10.dtd">
<svg version="1.0" xmlns="http://www.w3.org/2000/svg"
 width="256.000000pt" height="256.000000pt" viewBox="0 0 256.000000 256.000000"
 preserveAspectRatio="xMidYMid meet">

<g transform="translate(0.000000,256.000000) scale(0.100000,-0.100000)"
fill="#000000" stroke="none">
<path d="M755 2511 c-46 -20 -69 -59 -73 -126 l-4 -65 -69 0 c-58 0 -71 -3
-81 -20 -12 -18 -24 -20 -129 -20 -155 0 -206 -15 -275 -84 -89 -89 -84 -31
-84 -1036 0 -1006 -5 -946 85 -1036 88 -88 53 -85 856 -82 l694 3 45 24 c54
28 97 66 116 103 l15 28 133 0 133 0 6 -46 c3 -34 13 -55 36 -78 30 -30 34
-31 121 -31 87 0 91 1 121 31 23 24 33 43 37 79 4 38 12 54 41 80 32 30 36 39
36 85 0 47 -3 55 -38 86 l-37 34 0 99 c0 61 -6 114 -15 140 -14 40 -14 41 10
47 14 3 38 22 55 40 72 83 9 194 -109 194 l-41 0 0 63 c0 97 -23 161 -79 217
-65 65 -114 80 -263 80 l-118 0 0 358 c0 425 -2 435 -84 518 -69 69 -120 84
-275 84 -105 0 -117 2 -129 20 -10 17 -23 20 -81 20 l-69 0 -4 65 c-3 58 -8
69 -36 98 l-32 32 -198 2 c-108 1 -206 -2 -217 -6z m393 -83 c7 -7 12 -34 12
-60 l0 -48 -200 0 -200 0 0 48 c0 26 5 53 12 60 17 17 359 17 376 0z m172
-283 c0 -88 -2 -98 -25 -120 l-24 -25 -311 0 -311 0 -24 25 c-23 22 -25 32
-25 120 l0 95 360 0 360 0 0 -95z m-800 16 l0 -39 -125 -4 -125 -3 -32 -33
-33 -32 0 -890 0 -890 33 -32 32 -33 365 -3 365 -3 0 41 0 40 -348 0 c-257 0
-351 3 -360 12 -17 17 -17 1719 0 1736 8 8 50 12 123 12 l110 0 13 -30 c8 -17
30 -43 50 -58 l35 -27 337 0 337 0 35 27 c20 15 42 41 50 58 l13 30 110 0 c73
0 115 -4 123 -12 9 -9 12 -103 12 -360 l0 -348 -78 0 c-189 0 -288 -91 -300
-276 l-5 -84 -39 0 c-117 0 -180 -112 -108 -194 17 -18 41 -37 55 -40 24 -6
24 -7 10 -47 -9 -26 -15 -79 -15 -140 l0 -99 -37 -34 c-35 -31 -38 -39 -38
-86 0 -46 4 -55 36 -85 29 -26 38 -43 41 -74 l4 -42 -456 3 -456 3 -41 27
c-22 15 -51 44 -64 65 l-24 38 -3 883 c-2 606 1 896 8 923 13 49 76 115 122
128 18 5 86 10 151 10 l117 1 0 -39z m1183 10 c21 -13 50 -42 65 -64 l27 -41
3 -373 3 -373 -40 0 -40 0 -3 365 -3 365 -33 32 -32 33 -125 3 -125 4 0 40 0
40 133 -4 c118 -3 136 -5 170 -27z m475 -964 c23 -15 42 -32 42 -37 0 -6 -151
-10 -420 -10 -253 0 -420 4 -420 9 0 11 48 47 81 61 14 5 159 8 350 7 l326 -2
41 -28z m87 -248 c4 -66 5 -122 3 -124 -1 -1 -17 -1 -34 2 -26 4 -32 11 -42
47 -14 52 -66 102 -117 112 -85 16 -166 -33 -187 -112 l-12 -43 -270 -3 c-149
-2 -273 -2 -274 -1 -2 1 -1 56 3 122 l8 121 457 0 457 0 8 -121z m-170 -64
c45 -44 35 -55 -55 -55 -65 0 -80 3 -80 15 0 27 47 65 80 65 19 0 40 -9 55
-25z m-845 -55 c0 -39 -1 -40 -33 -40 -36 0 -57 15 -57 40 0 25 21 40 57 40
32 0 33 -1 33 -40z m1184 18 c17 -27 -5 -52 -48 -56 l-36 -3 0 41 0 41 36 -3
c22 -2 42 -10 48 -20z m-236 -118 c-72 -39 -95 -97 -63 -160 23 -44 63 -60
150 -60 l75 0 0 -40 0 -40 -127 0 -128 0 -31 57 c-23 43 -41 63 -74 80 -40 21
-56 23 -196 23 -84 0 -165 -5 -181 -11 -39 -14 -87 -64 -108 -110 l-18 -39
-129 0 -128 0 0 40 0 40 75 0 c87 0 127 16 150 60 32 63 9 121 -63 160 l-37
19 435 0 435 0 -37 -19z m-850 -65 c85 -39 66 -75 -40 -75 -56 0 -68 3 -68 16
0 25 31 84 44 84 6 0 35 -11 64 -25z m996 -9 c29 -61 24 -66 -52 -66 -67 0
-92 10 -92 37 0 13 92 63 116 63 7 0 19 -15 28 -34z m-363 -175 c16 -16 29
-34 29 -40 0 -8 -67 -11 -210 -11 -143 0 -210 3 -210 11 0 6 13 24 29 40 l29
29 152 0 152 0 29 -29z m453 -154 c8 -12 8 -22 0 -35 -10 -16 -53 -17 -629
-20 -448 -1 -622 1 -631 9 -17 14 -18 41 -2 57 9 9 158 12 631 10 578 -3 621
-4 631 -21z m-1034 -165 c0 -41 -17 -52 -80 -52 -63 0 -80 11 -80 52 l0 28 80
0 80 0 0 -28z m330 -3 c-44 -37 -86 -49 -180 -49 l-76 0 4 40 4 40 142 0 141
-1 -35 -30z m630 3 c0 -41 -17 -52 -80 -52 -63 0 -80 11 -80 52 l0 28 80 0 80
0 0 -28z"/>
<path d="M852 1828 c-7 -7 -12 -20 -12 -29 0 -27 -16 -32 -55 -18 l-35 13 -70
-69 c-72 -72 -78 -83 -58 -114 14 -23 4 -51 -20 -51 -35 0 -42 -21 -42 -120 0
-99 7 -120 42 -120 24 0 34 -28 20 -51 -20 -31 -14 -42 56 -112 70 -70 80 -75
111 -55 23 14 51 4 51 -20 0 -35 21 -42 120 -42 99 0 120 7 120 42 0 24 28 34
51 20 31 -20 42 -14 114 58 l69 70 -13 35 c-14 39 -9 55 18 55 34 0 41 21 41
120 0 99 -7 120 -42 120 -24 0 -34 28 -20 51 20 31 14 42 -56 112 -70 70 -80
75 -111 55 -23 -14 -51 -4 -51 20 0 35 -21 42 -120 42 -61 0 -100 -4 -108 -12z
m151 -87 c6 -26 93 -64 132 -58 43 7 75 -24 68 -67 -6 -39 32 -126 58 -133 28
-8 27 -79 -1 -86 -11 -3 -24 -18 -30 -34 -6 -15 -15 -38 -22 -50 -6 -12 -8
-34 -5 -50 8 -41 -24 -73 -67 -66 -39 6 -126 -32 -133 -58 -8 -27 -78 -27 -86
0 -6 26 -93 64 -132 58 -43 -7 -75 24 -68 67 6 39 -32 126 -58 133 -14 4 -19
14 -19 43 0 29 5 39 19 43 26 6 64 93 58 132 -7 43 24 75 67 68 39 -6 126 32
133 58 4 14 14 19 43 19 29 0 39 -5 43 -19z"/>
<path d="M892 1629 c-48 -14 -109 -80 -123 -131 -23 -89 12 -182 88 -229 57
-36 154 -34 210 3 62 41 88 90 88 168 0 77 -26 127 -85 166 -43 29 -125 39
-178 23z m152 -108 c26 -27 31 -39 31 -81 0 -43 -5 -54 -33 -82 -28 -28 -39
-33 -82 -33 -43 0 -54 5 -82 33 -28 28 -33 39 -33 81 0 52 25 92 70 112 37 16
96 3 129 -30z"/>
<path d="M412 908 c-16 -16 -16 -200 0 -216 16 -16 200 -16 216 0 16 16 16
200 0 216 -16 16 -200 16 -216 0z m148 -108 l0 -40 -40 0 -40 0 0 40 0 40 40
0 40 0 0 -40z"/>
<path d="M800 880 l0 -40 100 0 100 0 0 40 0 40 -100 0 -100 0 0 -40z"/>
<path d="M720 720 l0 -40 140 0 140 0 0 40 0 40 -140 0 -140 0 0 -40z"/>
<path d="M412 588 c-16 -16 -16 -200 0 -216 16 -16 200 -16 216 0 16 16 16
200 0 216 -16 16 -200 16 -216 0z m148 -108 l0 -40 -40 0 -40 0 0 40 0 40 40
0 40 0 0 -40z"/>
<path d="M800 560 l0 -40 100 0 100 0 0 40 0 40 -100 0 -100 0 0 -40z"/>
<path d="M720 400 l0 -40 140 0 140 0 0 40 0 40 -140 0 -140 0 0 -40z"/>
</g>
</svg>
