<svg width="27" height="26" viewBox="0 0 27 26" fill="none" xmlns="http://www.w3.org/2000/svg">
<path fill-rule="evenodd" clip-rule="evenodd" d="M15.9802 3.66908C15.4595 1.53739 12.4175 1.53739 11.8968 3.66908C11.819 3.9894 11.6665 4.28689 11.4517 4.53734C11.2369 4.7878 10.9658 4.98414 10.6605 5.11038C10.3553 5.23663 10.0244 5.28922 9.6949 5.26386C9.36539 5.23851 9.04654 5.13594 8.76429 4.96449C6.88426 3.82212 4.73292 5.96747 5.87848 7.84226C6.61843 9.05295 5.96206 10.6326 4.58082 10.9674C2.44181 11.4853 2.44181 14.5202 4.58082 15.0367C4.90212 15.1143 5.2005 15.2665 5.45165 15.4809C5.7028 15.6953 5.89963 15.9658 6.02611 16.2704C6.15259 16.575 6.20514 16.905 6.17949 17.2337C6.15383 17.5624 6.0507 17.8804 5.87848 18.1618C4.73292 20.0366 6.88426 22.1819 8.76429 21.0396C9.04649 20.8678 9.36537 20.765 9.69497 20.7394C10.0246 20.7138 10.3556 20.7662 10.661 20.8924C10.9665 21.0185 11.2377 21.2148 11.4527 21.4652C11.6677 21.7157 11.8203 22.0132 11.8981 22.3336C12.4175 24.4667 15.4609 24.4667 15.9788 22.3336C16.0569 22.0134 16.2097 21.716 16.4247 21.4658C16.6397 21.2155 16.911 21.0193 17.2163 20.8932C17.5217 20.7671 17.8525 20.7147 18.182 20.7401C18.5116 20.7655 18.8304 20.8681 19.1127 21.0396C20.9927 22.1819 23.144 20.0366 21.9985 18.1618C21.8266 17.8803 21.7237 17.5624 21.6982 17.2338C21.6727 16.9052 21.7253 16.5752 21.8517 16.2707C21.9782 15.9662 22.1749 15.6958 22.4258 15.4814C22.6768 15.2669 22.975 15.1146 23.2961 15.0367C25.4351 14.5188 25.4351 11.4839 23.2961 10.9674C22.9748 10.8897 22.6765 10.7375 22.4253 10.5232C22.1742 10.3088 21.9773 10.0383 21.8508 9.73369C21.7244 9.4291 21.6718 9.09902 21.6975 8.77034C21.7231 8.44166 21.8263 8.12367 21.9985 7.84226C23.144 5.96747 20.9927 3.82212 19.1127 4.96449C18.8305 5.13622 18.5116 5.23907 18.182 5.26466C17.8524 5.29024 17.5214 5.23783 17.2159 5.11171C16.9105 4.98558 16.6392 4.7893 16.4243 4.53885C16.2093 4.28839 16.0567 3.99085 15.9788 3.67044L15.9802 3.66908Z" stroke="#FA751A" stroke-width="2"/>
<path d="M16.3745 13.0019C16.3745 14.3435 15.2838 15.4311 13.9385 15.4311C12.5931 15.4311 11.5025 14.3435 11.5025 13.0019C11.5025 11.6602 12.5931 10.5726 13.9385 10.5726C15.2838 10.5726 16.3745 11.6602 16.3745 13.0019Z" stroke="#FA751A" stroke-width="2"/>
</svg>
