<svg width="122" height="82" viewBox="0 0 122 82" fill="none" xmlns="http://www.w3.org/2000/svg">
<path d="M56.7206 10.6189C56.5441 10.4887 56.3341 10.4125 56.1157 10.3994C55.8973 10.3863 55.6798 10.4369 55.4892 10.5452C54.9882 9.52835 53.5974 9.07899 52.6035 9.61527C52.4735 9.06106 52.1601 8.56802 51.715 8.2174C51.2698 7.86677 50.7195 7.67947 50.1547 7.68634C49.5899 7.69321 49.0442 7.89386 48.6076 8.25522C48.171 8.61658 47.8695 9.11709 47.7528 9.67431C47.7367 9.85258 47.6719 10.0229 47.5657 10.1663C47.364 10.373 47.0273 10.3041 46.7394 10.2811C46.2843 10.2567 45.8342 10.3863 45.4605 10.6492C45.0868 10.9122 44.811 11.2934 44.6768 11.7325L57.1468 11.6866C57.259 11.2635 57.0687 10.883 56.7206 10.6189Z" fill="#E6E6E6"/>
<path d="M69.0067 17.3265C68.8945 17.2439 68.7611 17.1954 68.6224 17.187C68.4837 17.1786 68.3455 17.2105 68.2242 17.2789C68.0532 16.9625 67.7677 16.7247 67.4271 16.615C67.0866 16.5054 66.7172 16.5323 66.3959 16.6902C66.3135 16.3387 66.1149 16.0261 65.8327 15.8037C65.5506 15.5812 65.2017 15.4623 64.8435 15.4665C64.4854 15.4707 64.1393 15.5978 63.8624 15.8268C63.5854 16.0557 63.3941 16.373 63.3198 16.7263C63.3101 16.8403 63.269 16.9494 63.2011 17.0411C63.0742 17.1723 62.8595 17.1281 62.6773 17.1149C62.3901 17.1018 62.1066 17.1849 61.8711 17.3514C61.6357 17.5178 61.4616 17.7582 61.376 18.035L69.2832 18.0055C69.3125 17.8774 69.3017 17.7432 69.2522 17.6216C69.2026 17.5 69.1168 17.3969 69.0067 17.3265Z" fill="#E6E6E6"/>
<path d="M88.702 8.73788C88.5899 8.65486 88.4565 8.60621 88.3177 8.59777C88.1789 8.58934 88.0407 8.62147 87.9196 8.69032C87.7485 8.37385 87.463 8.13606 87.1224 8.0264C86.7819 7.91674 86.4125 7.94366 86.0912 8.10156C86.0088 7.75013 85.8102 7.43745 85.528 7.21503C85.2459 6.99261 84.897 6.87371 84.5388 6.87792C84.1807 6.88212 83.8346 7.00917 83.5577 7.23815C83.2807 7.46712 83.0894 7.78437 83.0152 8.13764C83.0054 8.2517 82.9643 8.36075 82.8964 8.45252C82.7695 8.58372 82.5548 8.53944 82.3726 8.52468C82.0852 8.51163 81.8015 8.59502 81.5661 8.76178C81.3306 8.92855 81.1566 9.16929 81.0713 9.44636L88.9785 9.41684C89.0079 9.28873 88.997 9.15459 88.9475 9.03297C88.8979 8.91134 88.8121 8.80823 88.702 8.73788Z" fill="#F5F5F5"/>
<path d="M27.6011 15.6374C27.4244 15.5068 27.2141 15.4304 26.9954 15.4173C26.7767 15.4042 26.5589 15.455 26.3681 15.5636C25.8639 14.5468 24.4763 14.104 23.484 14.6337C23.3533 14.0799 23.0395 13.5874 22.5943 13.2373C22.1492 12.8871 21.5991 12.7001 21.0345 12.707C20.4699 12.7138 19.9244 12.9142 19.4877 13.2751C19.051 13.636 18.7491 14.1359 18.6317 14.6928C18.6172 14.8711 18.5529 15.0417 18.4463 15.1848C18.2445 15.3914 17.9078 15.3225 17.6199 15.2996C17.1647 15.2754 16.7145 15.405 16.3406 15.6679C15.9667 15.9308 15.6904 16.3119 15.5557 16.751L28.0273 16.705C28.1412 16.2819 27.9492 15.908 27.6011 15.6374Z" fill="#E6E6E6"/>
<path d="M37.9009 21.1018C37.7811 21.0132 37.6386 20.9613 37.4903 20.9523C37.342 20.9432 37.1943 20.9775 37.0648 21.051C36.882 20.7133 36.5773 20.4594 36.214 20.3419C35.8506 20.2243 35.4564 20.2522 35.1128 20.4196C35.0246 20.0433 34.8119 19.7085 34.5096 19.4705C34.2074 19.2325 33.8338 19.1053 33.4503 19.1101C33.0668 19.1149 32.6964 19.2513 32.4001 19.4968C32.1038 19.7423 31.8994 20.0822 31.8204 20.4606C31.8086 20.5795 31.7647 20.6929 31.6935 20.7886C31.5569 20.9296 31.3275 20.8821 31.1323 20.8657C30.8238 20.8495 30.5188 20.9375 30.2654 21.1157C30.0121 21.2939 29.8249 21.5522 29.7334 21.8497L38.1921 21.8185C38.2223 21.6834 38.2105 21.5421 38.1584 21.4139C38.1064 21.2857 38.0164 21.1768 37.9009 21.1018Z" fill="#F5F5F5"/>
<path d="M29.563 34.5105C29.4429 34.4226 29.3003 34.3712 29.1521 34.3624C29.0039 34.3537 28.8563 34.388 28.7269 34.4613C28.5441 34.1237 28.2394 33.8698 27.8761 33.7522C27.5127 33.6347 27.1185 33.6625 26.7749 33.8299C26.6855 33.4549 26.4724 33.1215 26.1705 32.8845C25.8685 32.6475 25.4957 32.5209 25.1131 32.5255C24.7305 32.5301 24.3608 32.6655 24.0646 32.9097C23.7683 33.1538 23.5631 33.4922 23.4825 33.8693C23.4707 33.9883 23.4268 34.1017 23.3556 34.1973C23.219 34.3383 22.9896 34.2908 22.7944 34.276C22.4859 34.2599 22.1809 34.3479 21.9275 34.5261C21.6742 34.7043 21.487 34.9625 21.3955 35.26L29.8542 35.2289C29.8845 35.0935 29.8728 34.952 29.8207 34.8235C29.7687 34.695 29.6787 34.5858 29.563 34.5105Z" fill="#F5F5F5"/>
<path d="M114.598 17.8661C114.478 17.7782 114.335 17.7268 114.187 17.718C114.039 17.7093 113.891 17.7436 113.762 17.8169C113.579 17.4792 113.275 17.2254 112.911 17.1078C112.548 16.9903 112.154 17.0181 111.81 17.1855C111.721 16.8104 111.508 16.4771 111.206 16.2401C110.904 16.0031 110.531 15.8765 110.148 15.8811C109.766 15.8857 109.396 16.0211 109.1 16.2653C108.803 16.5094 108.598 16.8478 108.518 17.2249C108.506 17.3438 108.462 17.4573 108.391 17.5529C108.254 17.6939 108.025 17.648 107.83 17.6316C107.521 17.6155 107.216 17.7034 106.963 17.8817C106.709 18.0599 106.522 18.3181 106.431 18.6156L114.889 18.5845C114.919 18.4491 114.908 18.3077 114.856 18.1792C114.804 18.0508 114.714 17.9415 114.598 17.8661Z" fill="#F5F5F5"/>
<path d="M108.514 34.8565L108.377 27.2814H104.165V29.0083H101.065V10.0892H95.1033V17.5365H93.3155V13.817H88.6633V31.9521H82.1045V25.5446H77.9923V11.6538H72.9171V20.9149H68.1461V40.8655H64.4503V31.1501H60.6342V24.8984H56.5805V20.0998L52.0567 22.504V35.3469H47.2873V32.6966H40.9141V51.309L115.085 51.3451V34.8565H108.514Z" fill="#EBEBEB"/>
<path d="M60.945 51.3189V23.6274H55.8779V51.3435C57.4818 51.3057 60.945 51.3189 60.945 51.3189Z" fill="#E6E6E6"/>
<path d="M56.3296 51.3451V36.1161H45.8994V51.3123L56.3296 51.3451Z" fill="#FAFAFA"/>
<path d="M69.0018 51.3319V28.9656H63.0938V51.3204L69.0018 51.3319Z" fill="#E0E0E0"/>
<path d="M64.2587 29.8414H63.543V31.3305H64.2587V29.8414Z" fill="#FAFAFA"/>
<path d="M65.6894 29.8414H64.9736V31.3305H65.6894V29.8414Z" fill="#FAFAFA"/>
<path d="M67.123 29.8414H66.4072V31.3305H67.123V29.8414Z" fill="#FAFAFA"/>
<path d="M68.5546 29.8414H67.8389V31.3305H68.5546V29.8414Z" fill="#FAFAFA"/>
<path d="M64.2587 32.3407H63.543V33.8298H64.2587V32.3407Z" fill="#FAFAFA"/>
<path d="M65.6894 32.3407H64.9736V33.8298H65.6894V32.3407Z" fill="#FAFAFA"/>
<path d="M67.123 32.3407H66.4072V33.8298H67.123V32.3407Z" fill="#FAFAFA"/>
<path d="M68.5546 32.3407H67.8389V33.8298H68.5546V32.3407Z" fill="#FAFAFA"/>
<path d="M64.2587 34.8368H63.543V36.3259H64.2587V34.8368Z" fill="#FAFAFA"/>
<path d="M65.6894 34.8368H64.9736V36.3259H65.6894V34.8368Z" fill="#FAFAFA"/>
<path d="M67.123 34.8368H66.4072V36.3259H67.123V34.8368Z" fill="#FAFAFA"/>
<path d="M68.5546 34.8368H67.8389V36.3259H68.5546V34.8368Z" fill="#FAFAFA"/>
<path d="M64.2587 37.3346H63.543V38.8237H64.2587V37.3346Z" fill="#FAFAFA"/>
<path d="M65.6894 37.3346H64.9736V38.8237H65.6894V37.3346Z" fill="#FAFAFA"/>
<path d="M67.123 37.3346H66.4072V38.8237H67.123V37.3346Z" fill="#FAFAFA"/>
<path d="M68.5546 37.3346H67.8389V38.8237H68.5546V37.3346Z" fill="#FAFAFA"/>
<path d="M64.2587 39.8306H63.543V41.3197H64.2587V39.8306Z" fill="#FAFAFA"/>
<path d="M65.6894 39.8306H64.9736V41.3197H65.6894V39.8306Z" fill="#FAFAFA"/>
<path d="M67.123 39.8306H66.4072V41.3197H67.123V39.8306Z" fill="#FAFAFA"/>
<path d="M68.5546 39.8306H67.8389V41.3197H68.5546V39.8306Z" fill="#FAFAFA"/>
<path d="M64.2587 42.3268H63.543V43.8159H64.2587V42.3268Z" fill="#FAFAFA"/>
<path d="M65.6894 42.3268H64.9736V43.8159H65.6894V42.3268Z" fill="#FAFAFA"/>
<path d="M67.123 42.3268H66.4072V43.8159H67.123V42.3268Z" fill="#FAFAFA"/>
<path d="M68.5546 42.3268H67.8389V43.8159H68.5546V42.3268Z" fill="#FAFAFA"/>
<path d="M64.2587 44.8245H63.543V46.3136H64.2587V44.8245Z" fill="#FAFAFA"/>
<path d="M65.6894 44.8245H64.9736V46.3136H65.6894V44.8245Z" fill="#FAFAFA"/>
<path d="M67.123 44.8245H66.4072V46.3136H67.123V44.8245Z" fill="#FAFAFA"/>
<path d="M68.5546 44.8245H67.8389V46.3136H68.5546V44.8245Z" fill="#FAFAFA"/>
<path d="M64.2587 47.3221H63.543V48.8113H64.2587V47.3221Z" fill="#FAFAFA"/>
<path d="M65.6894 47.3221H64.9736V48.8113H65.6894V47.3221Z" fill="#FAFAFA"/>
<path d="M67.123 47.3221H66.4072V48.8113H67.123V47.3221Z" fill="#FAFAFA"/>
<path d="M68.5546 47.3221H67.8389V48.8113H68.5546V47.3221Z" fill="#FAFAFA"/>
<path d="M89.5336 51.332V25.7808H77.2832V51.3418C77.2832 51.3418 89.4409 51.3451 89.5336 51.332Z" fill="#F5F5F5"/>
<path d="M79.6892 26.7992H78.2041V28.5146H79.6892V26.7992Z" fill="#E6E6E6"/>
<path d="M82.6609 26.7992H81.1758V28.5146H82.6609V26.7992Z" fill="#E6E6E6"/>
<path d="M85.6307 26.7992H84.1455V28.5146H85.6307V26.7992Z" fill="#E6E6E6"/>
<path d="M88.6033 26.7992H87.1182V28.5146H88.6033V26.7992Z" fill="#E6E6E6"/>
<path d="M79.6892 29.6774H78.2041V31.3928H79.6892V29.6774Z" fill="#E6E6E6"/>
<path d="M82.6609 29.6774H81.1758V31.3928H82.6609V29.6774Z" fill="#E6E6E6"/>
<path d="M85.6307 29.6774H84.1455V31.3928H85.6307V29.6774Z" fill="#E6E6E6"/>
<path d="M88.6033 29.6774H87.1182V31.3928H88.6033V29.6774Z" fill="#E6E6E6"/>
<path d="M79.6892 32.5555H78.2041V34.271H79.6892V32.5555Z" fill="#E6E6E6"/>
<path d="M82.6609 32.5555H81.1758V34.271H82.6609V32.5555Z" fill="#E6E6E6"/>
<path d="M85.6307 32.5555H84.1455V34.271H85.6307V32.5555Z" fill="#E6E6E6"/>
<path d="M88.6033 32.5555H87.1182V34.271H88.6033V32.5555Z" fill="#E6E6E6"/>
<path d="M79.6892 35.4321H78.2041V37.1476H79.6892V35.4321Z" fill="#E6E6E6"/>
<path d="M82.6609 35.4321H81.1758V37.1476H82.6609V35.4321Z" fill="#E6E6E6"/>
<path d="M85.6307 35.4321H84.1455V37.1476H85.6307V35.4321Z" fill="#E6E6E6"/>
<path d="M88.6033 35.4321H87.1182V37.1476H88.6033V35.4321Z" fill="#E6E6E6"/>
<path d="M79.6892 38.3103H78.2041V40.0257H79.6892V38.3103Z" fill="#E6E6E6"/>
<path d="M82.6609 38.3103H81.1758V40.0257H82.6609V38.3103Z" fill="#E6E6E6"/>
<path d="M85.6307 38.3103H84.1455V40.0257H85.6307V38.3103Z" fill="#E6E6E6"/>
<path d="M88.6033 38.3103H87.1182V40.0257H88.6033V38.3103Z" fill="#E6E6E6"/>
<path d="M79.6892 41.1869H78.2041V42.9023H79.6892V41.1869Z" fill="#E6E6E6"/>
<path d="M82.6609 41.1869H81.1758V42.9023H82.6609V41.1869Z" fill="#E6E6E6"/>
<path d="M85.6307 41.1869H84.1455V42.9023H85.6307V41.1869Z" fill="#E6E6E6"/>
<path d="M88.6033 41.1869H87.1182V42.9023H88.6033V41.1869Z" fill="#E6E6E6"/>
<path d="M79.6892 44.0668H78.2041V45.7822H79.6892V44.0668Z" fill="#E6E6E6"/>
<path d="M82.6609 44.0668H81.1758V45.7822H82.6609V44.0668Z" fill="#E6E6E6"/>
<path d="M85.6307 44.0668H84.1455V45.7822H85.6307V44.0668Z" fill="#E6E6E6"/>
<path d="M88.6033 44.0668H87.1182V45.7822H88.6033V44.0668Z" fill="#E6E6E6"/>
<path d="M79.6892 46.9434H78.2041V48.6588H79.6892V46.9434Z" fill="#E6E6E6"/>
<path d="M82.6609 46.9434H81.1758V48.6588H82.6609V46.9434Z" fill="#E6E6E6"/>
<path d="M85.6307 46.9434H84.1455V48.6588H85.6307V46.9434Z" fill="#E6E6E6"/>
<path d="M88.6033 46.9434H87.1182V48.6588H88.6033V46.9434Z" fill="#E6E6E6"/>
<path d="M58.1796 25.5101H56.8115V27.0911H58.1796V25.5101Z" fill="#FAFAFA"/>
<path d="M58.1796 28.1604H56.8115V29.7414H58.1796V28.1604Z" fill="#FAFAFA"/>
<path d="M58.1796 30.814H56.8115V32.3949H58.1796V30.814Z" fill="#FAFAFA"/>
<path d="M58.1796 33.4641H56.8115V35.0451H58.1796V33.4641Z" fill="#FAFAFA"/>
<path d="M58.1796 36.1161H56.8115V37.697H58.1796V36.1161Z" fill="#FAFAFA"/>
<path d="M58.1796 38.7679H56.8115V40.3489H58.1796V38.7679Z" fill="#FAFAFA"/>
<path d="M58.1796 41.4198H56.8115V43.0008H58.1796V41.4198Z" fill="#FAFAFA"/>
<path d="M58.1796 44.0717H56.8115V45.6526H58.1796V44.0717Z" fill="#FAFAFA"/>
<path d="M60.0096 25.5101H58.6416V27.0911H60.0096V25.5101Z" fill="#FAFAFA"/>
<path d="M60.0096 28.1604H58.6416V29.7414H60.0096V28.1604Z" fill="#FAFAFA"/>
<path d="M60.0096 30.814H58.6416V32.3949H60.0096V30.814Z" fill="#FAFAFA"/>
<path d="M60.0096 33.4641H58.6416V35.0451H60.0096V33.4641Z" fill="#FAFAFA"/>
<path d="M60.0096 36.1161H58.6416V37.697H60.0096V36.1161Z" fill="#FAFAFA"/>
<path d="M60.0096 38.7679H58.6416V40.3489H60.0096V38.7679Z" fill="#FAFAFA"/>
<path d="M60.0096 41.4198H58.6416V43.0008H60.0096V41.4198Z" fill="#FAFAFA"/>
<path d="M60.0096 44.0717H58.6416V45.6526H60.0096V44.0717Z" fill="#FAFAFA"/>
<path d="M75.5633 13.4906H74.0781V15.206H75.5633V13.4906Z" fill="#FAFAFA"/>
<path d="M75.5633 16.3672H74.0781V18.0826H75.5633V16.3672Z" fill="#FAFAFA"/>
<path d="M75.5633 19.0486H74.0781V20.764H75.5633V19.0486Z" fill="#FAFAFA"/>
<path d="M75.5633 21.9252H74.0781V23.6406H75.5633V21.9252Z" fill="#FAFAFA"/>
<path d="M75.5633 24.8016H74.0781V26.5171H75.5633V24.8016Z" fill="#FAFAFA"/>
<path d="M75.5633 27.6815H74.0781V29.397H75.5633V27.6815Z" fill="#FAFAFA"/>
<path d="M75.5633 30.5581H74.0781V32.2735H75.5633V30.5581Z" fill="#FAFAFA"/>
<path d="M75.5633 33.4363H74.0781V35.1517H75.5633V33.4363Z" fill="#FAFAFA"/>
<path d="M97.8719 10.9961H96.3867V12.7115H97.8719V10.9961Z" fill="#FAFAFA"/>
<path d="M97.8719 13.8727H96.3867V15.5881H97.8719V13.8727Z" fill="#FAFAFA"/>
<path d="M97.8719 16.7509H96.3867V18.4663H97.8719V16.7509Z" fill="#FAFAFA"/>
<path d="M97.8719 19.6274H96.3867V21.3429H97.8719V19.6274Z" fill="#FAFAFA"/>
<path d="M97.8719 22.5073H96.3867V24.2228H97.8719V22.5073Z" fill="#FAFAFA"/>
<path d="M97.8719 25.3839H96.3867V27.0994H97.8719V25.3839Z" fill="#FAFAFA"/>
<path d="M97.8719 28.2621H96.3867V29.9775H97.8719V28.2621Z" fill="#FAFAFA"/>
<path d="M97.8719 31.1387H96.3867V32.8541H97.8719V31.1387Z" fill="#FAFAFA"/>
<path d="M108.513 24.2146H99.5684V51.3451H108.513V24.2146Z" fill="#E6E6E6"/>
<path d="M103.513 25.5527H100.891V27.2682H103.513V25.5527Z" fill="#FAFAFA"/>
<path d="M103.513 28.431H100.891V30.1465H103.513V28.431Z" fill="#FAFAFA"/>
<path d="M103.513 31.3075H100.891V33.0229H103.513V31.3075Z" fill="#FAFAFA"/>
<path d="M103.513 34.1874H100.891V35.9028H103.513V34.1874Z" fill="#FAFAFA"/>
<path d="M103.513 37.064H100.891V38.7794H103.513V37.064Z" fill="#FAFAFA"/>
<path d="M103.513 39.9406H100.891V41.656H103.513V39.9406Z" fill="#FAFAFA"/>
<path d="M103.513 42.8187H100.891V44.5342H103.513V42.8187Z" fill="#FAFAFA"/>
<path d="M103.513 45.6969H100.891V47.4123H103.513V45.6969Z" fill="#FAFAFA"/>
<path d="M107.022 25.5527H104.399V27.2682H107.022V25.5527Z" fill="#FAFAFA"/>
<path d="M107.022 28.431H104.399V30.1465H107.022V28.431Z" fill="#FAFAFA"/>
<path d="M107.022 31.3075H104.399V33.0229H107.022V31.3075Z" fill="#FAFAFA"/>
<path d="M107.022 34.1874H104.399V35.9028H107.022V34.1874Z" fill="#FAFAFA"/>
<path d="M107.022 37.064H104.399V38.7794H107.022V37.064Z" fill="#FAFAFA"/>
<path d="M107.022 39.9406H104.399V41.656H107.022V39.9406Z" fill="#FAFAFA"/>
<path d="M107.022 42.8187H104.399V44.5342H107.022V42.8187Z" fill="#FAFAFA"/>
<path d="M107.022 45.6969H104.399V47.4123H107.022V45.6969Z" fill="#FAFAFA"/>
<path d="M94.6901 51.3319V32.5555H90.7861V51.3319H94.6901Z" fill="#E0E0E0"/>
<path d="M91.5583 33.3149H91.085V34.5941H91.5583V33.3149Z" fill="#FAFAFA"/>
<path d="M92.5056 33.3149H92.0322V34.5941H92.5056V33.3149Z" fill="#FAFAFA"/>
<path d="M93.4489 33.3149H92.9756V34.5941H93.4489V33.3149Z" fill="#FAFAFA"/>
<path d="M94.3952 33.3149H93.9219V34.5941H94.3952V33.3149Z" fill="#FAFAFA"/>
<path d="M91.5583 35.4601H91.085V36.7393H91.5583V35.4601Z" fill="#FAFAFA"/>
<path d="M92.5056 35.4601H92.0322V36.7393H92.5056V35.4601Z" fill="#FAFAFA"/>
<path d="M93.4489 35.4601H92.9756V36.7393H93.4489V35.4601Z" fill="#FAFAFA"/>
<path d="M94.3952 35.4601H93.9219V36.7393H94.3952V35.4601Z" fill="#FAFAFA"/>
<path d="M91.5583 37.6052H91.085V38.8844H91.5583V37.6052Z" fill="#FAFAFA"/>
<path d="M92.5056 37.6052H92.0322V38.8844H92.5056V37.6052Z" fill="#FAFAFA"/>
<path d="M93.4489 37.6052H92.9756V38.8844H93.4489V37.6052Z" fill="#FAFAFA"/>
<path d="M94.3952 37.6052H93.9219V38.8844H94.3952V37.6052Z" fill="#FAFAFA"/>
<path d="M91.5583 39.7502H91.085V41.0294H91.5583V39.7502Z" fill="#FAFAFA"/>
<path d="M92.5056 39.7502H92.0322V41.0294H92.5056V39.7502Z" fill="#FAFAFA"/>
<path d="M93.4489 39.7502H92.9756V41.0294H93.4489V39.7502Z" fill="#FAFAFA"/>
<path d="M94.3952 39.7502H93.9219V41.0294H94.3952V39.7502Z" fill="#FAFAFA"/>
<path d="M91.5583 41.8987H91.085V43.1779H91.5583V41.8987Z" fill="#FAFAFA"/>
<path d="M92.5056 41.8987H92.0322V43.1779H92.5056V41.8987Z" fill="#FAFAFA"/>
<path d="M93.4489 41.8987H92.9756V43.1779H93.4489V41.8987Z" fill="#FAFAFA"/>
<path d="M94.3952 41.8987H93.9219V43.1779H94.3952V41.8987Z" fill="#FAFAFA"/>
<path d="M91.5583 44.0438H91.085V45.323H91.5583V44.0438Z" fill="#FAFAFA"/>
<path d="M92.5056 44.0438H92.0322V45.323H92.5056V44.0438Z" fill="#FAFAFA"/>
<path d="M93.4489 44.0438H92.9756V45.323H93.4489V44.0438Z" fill="#FAFAFA"/>
<path d="M94.3952 44.0438H93.9219V45.323H94.3952V44.0438Z" fill="#FAFAFA"/>
<path d="M91.5583 46.189H91.085V47.4682H91.5583V46.189Z" fill="#FAFAFA"/>
<path d="M92.5056 46.189H92.0322V47.4682H92.5056V46.189Z" fill="#FAFAFA"/>
<path d="M93.4489 46.189H92.9756V47.4682H93.4489V46.189Z" fill="#FAFAFA"/>
<path d="M94.3952 46.189H93.9219V47.4682H94.3952V46.189Z" fill="#FAFAFA"/>
<path d="M91.5583 48.334H91.085V49.6132H91.5583V48.334Z" fill="#FAFAFA"/>
<path d="M92.5056 48.334H92.0322V49.6132H92.5056V48.334Z" fill="#FAFAFA"/>
<path d="M93.4489 48.334H92.9756V49.6132H93.4489V48.334Z" fill="#FAFAFA"/>
<path d="M94.3952 48.334H93.9219V49.6132H94.3952V48.334Z" fill="#FAFAFA"/>
<path d="M47.9524 36.7523H46.6885V37.8265H47.9524V36.7523Z" fill="#E6E6E6"/>
<path d="M50.4817 36.7523H49.2178V37.8265H50.4817V36.7523Z" fill="#E6E6E6"/>
<path d="M53.01 36.7523H51.7461V37.8265H53.01V36.7523Z" fill="#E6E6E6"/>
<path d="M55.5393 36.7523H54.2754V37.8265H55.5393V36.7523Z" fill="#E6E6E6"/>
<path d="M47.9524 38.5514H46.6885V39.6256H47.9524V38.5514Z" fill="#E6E6E6"/>
<path d="M50.4817 38.5514H49.2178V39.6256H50.4817V38.5514Z" fill="#E6E6E6"/>
<path d="M53.01 38.5514H51.7461V39.6256H53.01V38.5514Z" fill="#E6E6E6"/>
<path d="M55.5393 38.5514H54.2754V39.6256H55.5393V38.5514Z" fill="#E6E6E6"/>
<path d="M47.9524 40.3505H46.6885V41.4247H47.9524V40.3505Z" fill="#E6E6E6"/>
<path d="M50.4817 40.3505H49.2178V41.4247H50.4817V40.3505Z" fill="#E6E6E6"/>
<path d="M53.01 40.3505H51.7461V41.4247H53.01V40.3505Z" fill="#E6E6E6"/>
<path d="M55.5393 40.3505H54.2754V41.4247H55.5393V40.3505Z" fill="#E6E6E6"/>
<path d="M47.9524 42.1512H46.6885V43.2254H47.9524V42.1512Z" fill="#E6E6E6"/>
<path d="M50.4817 42.1512H49.2178V43.2254H50.4817V42.1512Z" fill="#E6E6E6"/>
<path d="M53.01 42.1512H51.7461V43.2254H53.01V42.1512Z" fill="#E6E6E6"/>
<path d="M55.5393 42.1512H54.2754V43.2254H55.5393V42.1512Z" fill="#E6E6E6"/>
<path d="M47.9524 43.9487H46.6885V45.0229H47.9524V43.9487Z" fill="#E6E6E6"/>
<path d="M50.4817 43.9487H49.2178V45.0229H50.4817V43.9487Z" fill="#E6E6E6"/>
<path d="M53.01 43.9487H51.7461V45.0229H53.01V43.9487Z" fill="#E6E6E6"/>
<path d="M55.5393 43.9487H54.2754V45.0229H55.5393V43.9487Z" fill="#E6E6E6"/>
<path d="M47.9524 45.7478H46.6885V46.822H47.9524V45.7478Z" fill="#E6E6E6"/>
<path d="M50.4817 45.7478H49.2178V46.822H50.4817V45.7478Z" fill="#E6E6E6"/>
<path d="M53.01 45.7478H51.7461V46.822H53.01V45.7478Z" fill="#E6E6E6"/>
<path d="M55.5393 45.7478H54.2754V46.822H55.5393V45.7478Z" fill="#E6E6E6"/>
<path d="M47.9524 47.5468H46.6885V48.621H47.9524V47.5468Z" fill="#E6E6E6"/>
<path d="M50.4817 47.5468H49.2178V48.621H50.4817V47.5468Z" fill="#E6E6E6"/>
<path d="M53.01 47.5468H51.7461V48.621H53.01V47.5468Z" fill="#E6E6E6"/>
<path d="M55.5393 47.5468H54.2754V48.621H55.5393V47.5468Z" fill="#E6E6E6"/>
<path d="M109.593 55.3778H80.1944C79.9418 55.3773 79.6996 55.2759 79.5209 55.0958C79.3422 54.9157 79.2416 54.6715 79.2412 54.4167V11.2405C79.2412 11.1143 79.2659 10.9893 79.3138 10.8727C79.3617 10.7561 79.4319 10.6501 79.5204 10.5609C79.6089 10.4717 79.714 10.4009 79.8297 10.3526C79.9453 10.3043 80.0693 10.2794 80.1944 10.2794H109.593C109.719 10.2792 109.843 10.3039 109.958 10.3521C110.074 10.4003 110.18 10.4711 110.268 10.5603C110.357 10.6496 110.427 10.7556 110.475 10.8723C110.523 10.989 110.548 11.1141 110.548 11.2405V54.4167C110.548 54.6718 110.447 54.9162 110.268 55.0964C110.089 55.2766 109.846 55.3778 109.593 55.3778ZM80.1944 10.3204C79.9524 10.3204 79.7203 10.4174 79.5492 10.5899C79.378 10.7624 79.2819 10.9965 79.2819 11.2405V54.4167C79.2819 54.6607 79.378 54.8947 79.5492 55.0673C79.7203 55.2398 79.9524 55.3368 80.1944 55.3368H109.593C109.835 55.3368 110.068 55.2399 110.239 55.0674C110.41 54.8949 110.507 54.6609 110.507 54.4167V11.2405C110.507 10.9963 110.41 10.7623 110.239 10.5898C110.068 10.4173 109.835 10.3204 109.593 10.3204H80.1944Z" fill="#E0E0E0"/>
<path d="M75.6902 55.3778H46.2882C46.0355 55.3773 45.7933 55.2759 45.6146 55.0958C45.436 54.9157 45.3354 54.6715 45.335 54.4167V11.2405C45.335 10.9856 45.4354 10.7411 45.6142 10.5609C45.7929 10.3807 46.0354 10.2794 46.2882 10.2794H75.6902C75.943 10.2794 76.1854 10.3807 76.3642 10.5609C76.543 10.7411 76.6434 10.9856 76.6434 11.2405V54.4167C76.643 54.6715 76.5424 54.9157 76.3637 55.0958C76.1851 55.2759 75.9429 55.3773 75.6902 55.3778ZM46.2882 10.3204C46.0476 10.3226 45.8175 10.4205 45.6482 10.5928C45.4788 10.7651 45.3837 10.9979 45.3838 11.2405V54.4167C45.3838 54.6607 45.4799 54.8947 45.651 55.0673C45.8222 55.2398 46.0543 55.3368 46.2963 55.3368H75.6902C75.9322 55.3368 76.1643 55.2398 76.3354 55.0673C76.5066 54.8947 76.6027 54.6607 76.6027 54.4167V11.2405C76.6027 10.9964 76.5066 10.7624 76.3354 10.5899C76.1643 10.4174 75.9322 10.3204 75.6902 10.3204H46.2882Z" fill="#E0E0E0"/>
<path d="M41.8058 55.3778H12.407C12.154 55.3778 11.9114 55.2766 11.7324 55.0964C11.5534 54.9162 11.4526 54.6718 11.4521 54.4167V11.2405C11.4521 11.1141 11.4769 10.989 11.5249 10.8723C11.5729 10.7556 11.6432 10.6496 11.7319 10.5603C11.8206 10.4711 11.9259 10.4003 12.0417 10.3521C12.1576 10.3039 12.2817 10.2792 12.407 10.2794H41.8058C42.0586 10.2794 42.301 10.3807 42.4798 10.5609C42.6586 10.7411 42.759 10.9856 42.759 11.2405V54.4167C42.7586 54.6715 42.658 54.9157 42.4793 55.0958C42.3006 55.2759 42.0584 55.3773 41.8058 55.3778ZM12.407 10.3204C12.1648 10.3204 11.9325 10.4173 11.7611 10.5898C11.5898 10.7623 11.4932 10.9963 11.4928 11.2405V54.4167C11.4932 54.6609 11.5898 54.8949 11.7611 55.0674C11.9325 55.2399 12.1648 55.3368 12.407 55.3368H41.8058C42.0478 55.3368 42.2799 55.2398 42.451 55.0673C42.6222 54.8947 42.7183 54.6607 42.7183 54.4167V11.2405C42.7183 10.9965 42.6222 10.7624 42.451 10.5899C42.2799 10.4174 42.0478 10.3204 41.8058 10.3204H12.407Z" fill="#E0E0E0"/>
<path d="M122 65.3933H0V65.413H122V65.3933Z" fill="#E0E0E0"/>
<path d="M115.39 70.2117H106.324V70.2806H115.39V70.2117Z" fill="#EBEBEB"/>
<path d="M82.9062 70.9595H80.5264V71.0284H82.9062V70.9595Z" fill="#EBEBEB"/>
<path d="M18.4313 68.1124H6.61035V68.1813H18.4313V68.1124Z" fill="#EBEBEB"/>
<path d="M22.6041 68.1124H20.8701V68.1813H22.6041V68.1124Z" fill="#EBEBEB"/>
<path d="M53.8752 69.2769H28.2373V69.3457H53.8752V69.2769Z" fill="#EBEBEB"/>
<path d="M107.478 71.6959C107.478 72.1272 89.4102 72.4766 67.1232 72.4766C44.8363 72.4766 26.7705 72.1272 26.7705 71.6959C26.7705 71.2646 44.8363 70.9153 67.1232 70.9153C89.4102 70.9153 107.478 71.2646 107.478 71.6959Z" fill="#F5F5F5"/>
<path d="M25.4947 28.4819C25.9077 28.0184 26.1872 27.4499 26.3028 26.8378C26.4184 26.2257 26.3658 25.5934 26.1506 25.0093C25.9354 24.4252 25.5659 23.9115 25.082 23.524C24.5981 23.1364 24.0183 22.8896 23.4053 22.8103C22.7923 22.7311 22.1694 22.8224 21.6042 23.0743C21.0389 23.3263 20.5528 23.7293 20.1984 24.2397C19.844 24.7502 19.6348 25.3487 19.5935 25.9704C19.5522 26.592 19.6803 27.2133 19.964 27.7668L19.5996 28.7246L20.6749 28.7098L20.7139 28.7492C21.3835 29.3518 22.2629 29.6621 23.1591 29.612C24.0553 29.5619 24.8953 29.1555 25.4947 28.4819Z" fill="#EE8F31"/>
<path d="M26.6899 25.4725C26.6798 25.473 26.6699 25.4695 26.6623 25.4627C26.6548 25.456 26.6501 25.4466 26.6492 25.4364C26.5851 24.8893 26.3884 24.3666 26.0763 23.9143C25.7642 23.4621 25.3464 23.0944 24.8599 22.8436C24.8504 22.8384 24.8433 22.8297 24.8399 22.8193C24.8366 22.8089 24.8374 22.7977 24.842 22.7878C24.8469 22.7784 24.8552 22.7712 24.8652 22.7679C24.8752 22.7645 24.8862 22.7652 24.8957 22.7698C25.3928 23.0283 25.8193 23.4059 26.1378 23.8694C26.4563 24.3329 26.6571 24.8682 26.7224 25.4282C26.7234 25.4336 26.7232 25.439 26.7218 25.4443C26.7204 25.4495 26.718 25.4544 26.7146 25.4586C26.7112 25.4628 26.7069 25.4662 26.7021 25.4686C26.6973 25.471 26.692 25.4724 26.6866 25.4725H26.6899Z" fill="#EE8F31"/>
<path d="M26.7116 26.4861H26.7019C26.6912 26.4833 26.6819 26.4765 26.6762 26.467C26.6704 26.4575 26.6685 26.4461 26.671 26.4352C26.7093 26.2739 26.7137 26.1063 26.684 25.9432C26.6831 25.9378 26.6832 25.9323 26.6844 25.927C26.6857 25.9216 26.6879 25.9166 26.6911 25.9122C26.6943 25.9078 26.6983 25.904 26.703 25.9012C26.7076 25.8983 26.7128 25.8965 26.7182 25.8957C26.7287 25.8938 26.7396 25.8961 26.7484 25.9023C26.7573 25.9084 26.7634 25.9178 26.7653 25.9285C26.7963 26.1015 26.7913 26.279 26.7507 26.45C26.7492 26.4596 26.7446 26.4684 26.7375 26.475C26.7304 26.4815 26.7213 26.4854 26.7116 26.4861Z" fill="#EE8F31"/>
<path d="M22.9031 27.6586L21.3496 26.4926L21.753 25.9448L22.7941 26.7271L24.2256 25.0067L24.7428 25.4446L22.9031 27.6586Z" fill="white"/>
<path d="M113.188 63.8697L27.6484 65.8902V51.14H114.01L113.188 63.8697Z" fill="#263238"/>
<path d="M24.3574 54.9252V62.4053C24.3574 63.1862 24.6055 63.9466 25.0654 64.5749C25.5253 65.2033 26.1728 65.6666 26.9129 65.8968L27.5164 66.0822C27.8889 66.1998 28.2779 66.2552 28.6681 66.2462L32.6616 66.1527C32.2363 64.6537 32.1574 63.0764 32.4309 61.5419C32.7045 60.0074 33.3231 58.5564 34.2394 57.3005C35.1557 56.0446 36.3453 55.017 37.7168 54.2968C39.0883 53.5765 40.6053 53.1827 42.1513 53.1455C43.6973 53.1084 45.2311 53.4289 46.6351 54.0824C48.0391 54.736 49.2759 55.7052 50.2505 56.9157C51.2251 58.1262 51.9117 59.5457 52.2574 61.0653C52.6032 62.585 52.5989 64.1643 52.245 65.682L92.8954 64.7078C92.8301 64.2291 92.7981 63.7463 92.7994 63.263C92.7893 61.9128 93.045 60.574 93.5519 59.3241C94.0587 58.0743 94.8065 56.9383 95.752 55.982C96.6975 55.0257 97.8218 54.2681 99.0598 53.7531C100.298 53.2381 101.625 52.9759 102.964 52.9817C104.303 52.9876 105.628 53.2614 106.862 53.7872C108.095 54.313 109.213 55.0805 110.15 56.045C111.087 57.0096 111.825 58.1521 112.322 59.4063C112.818 60.6605 113.062 62.0015 113.04 63.3516C113.04 63.55 113.025 63.7468 113.025 63.942C113.077 63.9206 113.134 63.8993 113.188 63.8731L114.577 63.2466C115.249 62.9409 115.818 62.4464 116.218 61.8224C116.617 61.1984 116.83 60.4715 116.83 59.7288V44.4932C116.83 43.7902 116.64 43.1006 116.28 42.4988C115.919 41.897 115.403 41.406 114.785 41.0787L104.337 35.5388C104.244 35.4883 104.166 35.4116 104.115 35.3179C104.063 35.2242 104.04 35.1175 104.047 35.0106C104.054 34.9037 104.092 34.8011 104.155 34.7153C104.219 34.6295 104.306 34.5641 104.406 34.5269L105.684 34.0644C105.748 34.0427 105.803 33.9997 105.839 33.9426C105.876 33.8854 105.892 33.8174 105.885 33.7498C105.878 33.6822 105.849 33.6188 105.802 33.5702C105.755 33.5216 105.693 33.4906 105.626 33.4822C100.661 32.7836 81.3526 30.2383 71.2022 31.4896C59.4902 32.9345 48.2662 43.1779 48.2662 43.1779C39.6448 42.8499 31.6075 45.8774 28.1459 47.3944C27.593 47.6374 27.0967 47.9943 26.6888 48.4423C26.2809 48.8902 25.9705 49.4193 25.7775 49.9954L24.5917 53.5345C24.4404 53.9825 24.3613 54.452 24.3574 54.9252Z" fill="#EE8F31"/>
<path d="M92.9072 64.7045C92.8471 64.255 92.8178 63.8018 92.8194 63.3482C92.8194 63.117 92.8194 62.889 92.8405 62.6611L85.4896 59.6287C85.0591 59.4528 84.595 59.3766 84.1314 59.4057L58.5602 61.0982C58.1424 61.1228 57.7341 61.2345 57.3613 61.4262L52.5041 63.9452C52.4697 64.5274 52.387 65.1056 52.2568 65.6738L92.9072 64.7045Z" fill="#263238"/>
<path d="M116.834 59.7255V59.3368L112.676 60.6193C112.919 61.5082 113.041 62.4262 113.04 63.3482C113.04 63.5467 113.026 63.7435 113.026 63.9386C113.078 63.9173 113.135 63.896 113.188 63.8698L114.581 63.2433C115.252 62.9375 115.822 62.443 116.221 61.8191C116.621 61.1951 116.833 60.4682 116.834 59.7255Z" fill="#263238"/>
<path d="M25.5381 65.0917C25.9351 65.4612 26.4093 65.7363 26.9256 65.8969L27.5291 66.0822C27.9016 66.1998 28.2906 66.2552 28.6808 66.2462L32.6759 66.1527C32.5315 65.6436 32.427 65.1237 32.3636 64.598L25.5381 65.0917Z" fill="#263238"/>
<path d="M102.947 52.1864C101.377 52.1848 99.8246 52.5201 98.3932 53.17C96.9618 53.82 95.684 54.7696 94.6447 55.9559C93.6055 57.1422 92.8286 58.5379 92.3658 60.0503C91.9029 61.5627 91.7646 63.1571 91.9602 64.7275L92.9199 64.7046C92.7274 63.316 92.8208 61.9024 93.1942 60.5518C93.5676 59.2013 94.2131 57.9428 95.0904 56.855C95.9676 55.7671 97.0578 54.8732 98.293 54.2289C99.5281 53.5847 100.882 53.204 102.269 53.1106C103.657 53.0172 105.048 53.213 106.358 53.686C107.667 54.1589 108.865 54.8987 109.878 55.8594C110.891 56.82 111.697 57.9807 112.245 59.2692C112.793 60.5577 113.072 61.9463 113.065 63.3483C113.065 63.5467 113.048 63.7435 113.048 63.9387C113.102 63.9173 113.157 63.896 113.211 63.8698L114.01 63.5041V63.3401C114.007 60.3804 112.839 57.5429 110.763 55.4502C108.687 53.3576 105.873 52.1808 102.937 52.1782L102.947 52.1864Z" fill="#263238"/>
<path d="M42.4067 52.1864C40.714 52.1859 39.0437 52.5766 37.5242 53.3287C36.0047 54.0808 34.6765 55.1741 33.6417 56.5247C32.6069 57.8752 31.8931 59.447 31.555 61.1193C31.217 62.7915 31.2638 64.5196 31.6918 66.1707L32.6678 66.1494C32.2426 64.6504 32.1637 63.0731 32.4372 61.5386C32.7107 60.004 33.3294 58.5531 34.2457 57.2972C35.162 56.0413 36.3516 55.0137 37.7231 54.2935C39.0946 53.5732 40.6116 53.1794 42.1575 53.1422C43.7035 53.1051 45.2374 53.4256 46.6414 54.0791C48.0454 54.7327 49.2822 55.7019 50.2568 56.9124C51.2314 58.1228 51.9179 59.5424 52.2637 61.062C52.6094 62.5817 52.6052 64.161 52.2513 65.6787L53.2273 65.6541C53.568 64.0284 53.5444 62.3466 53.1582 60.7313C52.772 59.116 52.0329 57.6081 50.9949 56.3175C49.9569 55.0269 48.6462 53.9863 47.1584 53.2716C45.6706 52.5569 44.0433 52.1861 42.3953 52.1864H42.4067Z" fill="#263238"/>
<path d="M52.0413 43.6043C51.9444 43.6912 51.8712 43.8016 51.8285 43.9251C51.7859 44.0486 51.7752 44.181 51.7975 44.3098C51.8198 44.4386 51.8744 44.5595 51.9561 44.661C52.0377 44.7626 52.1438 44.8414 52.2642 44.8901L56.4935 46.084C56.8661 46.1905 57.2561 46.2201 57.6403 46.1709L88.9699 42.2579C89.7559 42.1478 90.4732 41.7468 90.9821 41.1328L95.0927 36.3047C95.2323 36.1383 95.318 35.9329 95.3383 35.7159C95.3952 35.1665 95.0536 34.6712 94.5754 34.6089C87.0732 33.6069 77.5865 32.695 71.5971 33.433C63.7435 34.3973 55.8396 40.344 52.0413 43.6043Z" fill="#EE8F31"/>
<path opacity="0.8" d="M52.1829 43.6043C52.086 43.6912 52.0128 43.8016 51.9701 43.9251C51.9275 44.0486 51.9168 44.181 51.9391 44.3098C51.9614 44.4386 52.016 44.5595 52.0977 44.661C52.1793 44.7626 52.2854 44.8414 52.4058 44.8901L56.6351 46.084C57.005 46.1896 57.3923 46.2192 57.7738 46.1709L65.7591 45.6199L88.4039 44.0553C89.1668 43.9569 90.3445 42.5449 91.179 41.3985L95.2261 36.3047C95.3669 36.1389 95.4533 35.9332 95.4734 35.7159C95.5287 35.1665 95.1871 34.6712 94.7105 34.6089C87.2067 33.6069 77.7216 32.695 71.7322 33.433C63.8852 34.3973 55.9812 40.344 52.1829 43.6043Z" fill="white"/>
<g opacity="0.3">
<path d="M72.6503 46.6137C72.5558 46.5782 72.4787 46.507 72.4353 46.4152C72.3919 46.3234 72.3856 46.2181 72.4177 46.1217C72.4615 45.9993 72.5403 45.8928 72.6443 45.8157C72.7483 45.7386 72.8727 45.6944 73.0017 45.6888L76.73 45.5248C76.7802 45.5219 76.8305 45.5292 76.878 45.5461C76.9749 45.5817 77.0539 45.6543 77.0981 45.7482C77.1422 45.8421 77.1479 45.9498 77.1139 46.0479C77.0699 46.1709 76.9905 46.2777 76.8859 46.3549C76.7813 46.432 76.6562 46.4759 76.5266 46.4809L72.7983 46.6367C72.748 46.6382 72.6979 46.6304 72.6503 46.6137Z" fill="black"/>
</g>
<path d="M100.38 35.8422C100.221 35.9843 100.125 36.184 100.113 36.3974C100.1 36.6108 100.172 36.8205 100.313 36.9804L101.196 37.9496C101.298 38.058 101.428 38.1367 101.57 38.1776L112.402 41.2067C112.591 41.2578 112.785 41.2837 112.98 41.2838H115.132C115.02 41.21 114.906 41.1394 114.785 41.0755L104.337 35.5306C104.211 35.4672 104.114 35.3558 104.069 35.2208C104.024 35.0859 104.034 34.9384 104.097 34.8107L100.703 35.6667C100.583 35.699 100.472 35.7591 100.38 35.8422Z" fill="#EE8F31"/>
<path d="M32.9297 48.8163L29.2339 48.4095L27.1111 49.2853C26.8907 49.3761 26.6946 49.5178 26.5383 49.699C26.3821 49.8801 26.2702 50.0957 26.2116 50.3283C26.1417 50.6008 26.1809 50.89 26.3206 51.1336L26.358 51.1975C26.474 51.3991 26.6468 51.5613 26.8545 51.6635C27.0622 51.7657 27.2954 51.8033 27.5243 51.7715L29.6552 51.4763C29.8629 51.4469 30.0599 51.3651 30.2278 51.2385L32.6857 49.364L32.9297 48.8163Z" fill="white"/>
<path d="M48.2822 43.1698L48.8711 43.3338C49.0963 43.3985 49.3339 43.4063 49.5628 43.3565C49.7918 43.3068 50.005 43.2009 50.1838 43.0484C53.6096 40.1276 59.5648 35.6454 65.9901 33.5577C66.019 33.5483 66.0433 33.5285 66.0584 33.502C66.0736 33.4739 66.0771 33.4409 66.0683 33.4102C66.0595 33.3795 66.039 33.3535 66.0113 33.338L65.2126 32.9247C55.9422 36.1686 48.2822 43.1698 48.2822 43.1698Z" fill="#EE8F31"/>
<path opacity="0.8" d="M48.2822 43.1698L48.8711 43.3338C49.0963 43.3985 49.3339 43.4063 49.5628 43.3565C49.7918 43.3068 50.005 43.2009 50.1838 43.0484C53.6096 40.1276 59.5648 35.6454 65.9901 33.5577C66.019 33.5483 66.0433 33.5285 66.0584 33.502C66.0736 33.4739 66.0771 33.4409 66.0683 33.4102C66.0595 33.3795 66.039 33.3535 66.0113 33.338L65.2126 32.9247C55.9422 36.1686 48.2822 43.1698 48.2822 43.1698Z" fill="white"/>
<path opacity="0.2" d="M83.4056 47.1139L52.2598 49.364L52.8454 53.2377C53.0244 54.4241 53.4604 55.5563 54.1223 56.5537L56.725 60.4766L83.3096 56.8522L95.8772 47.1188L83.4056 47.1139Z" fill="white"/>
<path d="M102.937 71.8484C107.594 71.8484 111.369 68.042 111.369 63.3466C111.369 58.6512 107.594 54.8448 102.937 54.8448C98.2793 54.8448 94.5039 58.6512 94.5039 63.3466C94.5039 68.042 98.2793 71.8484 102.937 71.8484Z" fill="#263238"/>
<path opacity="0.4" d="M102.937 68.5586C105.792 68.5586 108.107 66.2251 108.107 63.3467C108.107 60.4682 105.792 58.1348 102.937 58.1348C100.082 58.1348 97.7676 60.4682 97.7676 63.3467C97.7676 66.2251 100.082 68.5586 102.937 68.5586Z" fill="white"/>
<g opacity="0.3">
<path d="M102.938 58.6595H102.937C102.708 58.6595 102.523 58.846 102.523 59.0761V61.7477C102.523 61.9777 102.708 62.1642 102.937 62.1642H102.938C103.166 62.1642 103.351 61.9777 103.351 61.7477V59.0761C103.351 58.846 103.166 58.6595 102.938 58.6595Z" fill="white"/>
</g>
<g opacity="0.3">
<path d="M102.938 64.5323H102.937C102.708 64.5323 102.523 64.7189 102.523 64.9489V67.6205C102.523 67.8505 102.708 68.037 102.937 68.037H102.938C103.166 68.037 103.351 67.8505 103.351 67.6205V64.9489C103.351 64.7189 103.166 64.5323 102.938 64.5323Z" fill="white"/>
</g>
<g opacity="0.3">
<path d="M104.516 62.9104C104.468 62.937 104.416 62.9539 104.362 62.9601C104.308 62.9663 104.253 62.9616 104.201 62.9463C104.148 62.9311 104.1 62.9056 104.057 62.8713C104.015 62.837 103.979 62.7945 103.953 62.7464C103.899 62.6508 103.884 62.5375 103.913 62.4312C103.941 62.3249 104.01 62.2342 104.104 62.1789L106.398 60.8358C106.494 60.7805 106.607 60.7657 106.713 60.7946C106.82 60.8235 106.911 60.8937 106.966 60.9899C107.02 61.0859 107.034 61.1996 107.006 61.3063C106.977 61.4129 106.908 61.5038 106.813 61.559L104.521 62.9005L104.516 62.9104Z" fill="white"/>
</g>
<g opacity="0.3">
<path d="M99.4717 65.8345C99.3769 65.8893 99.2645 65.9039 99.1591 65.8754C99.0536 65.8468 98.9636 65.7773 98.9089 65.682C98.8809 65.6343 98.8627 65.5814 98.8553 65.5264C98.8479 65.4715 98.8515 65.4156 98.8659 65.3621C98.8803 65.3086 98.9052 65.2585 98.9392 65.2149C98.9731 65.1713 99.0153 65.1349 99.0634 65.108L101.357 63.7648C101.404 63.7372 101.456 63.7192 101.509 63.7118C101.563 63.7044 101.618 63.7078 101.67 63.7219C101.723 63.7359 101.772 63.7602 101.815 63.7935C101.858 63.8268 101.894 63.8683 101.921 63.9157C101.949 63.9631 101.967 64.0154 101.974 64.0698C101.981 64.1241 101.978 64.1794 101.964 64.2324C101.95 64.2854 101.926 64.3352 101.893 64.3788C101.86 64.4224 101.819 64.459 101.772 64.4864L99.4766 65.8296L99.4717 65.8345Z" fill="white"/>
</g>
<g opacity="0.3">
<path d="M106.398 65.846L104.106 64.5028C104.011 64.447 103.942 64.3554 103.913 64.2481C103.885 64.1409 103.9 64.0267 103.955 63.9305C104.011 63.8351 104.102 63.7659 104.208 63.7379C104.315 63.71 104.428 63.7256 104.523 63.7812L106.815 65.1228C106.91 65.178 106.979 65.2689 107.008 65.3755C107.036 65.4821 107.022 65.5958 106.968 65.6918C106.94 65.7397 106.904 65.7816 106.86 65.8153C106.817 65.8489 106.768 65.8736 106.715 65.888C106.662 65.9023 106.607 65.9059 106.552 65.8987C106.498 65.8915 106.446 65.8736 106.398 65.846Z" fill="white"/>
</g>
<g opacity="0.3">
<path d="M101.919 62.7562C101.892 62.8036 101.856 62.8452 101.812 62.8784C101.769 62.9117 101.72 62.9361 101.668 62.9501C101.615 62.9641 101.561 62.9675 101.507 62.9602C101.453 62.9528 101.401 62.9347 101.354 62.9071L99.064 61.5656C99.017 61.5384 98.9758 61.5021 98.9428 61.4589C98.9098 61.4156 98.8856 61.3662 98.8715 61.3135C98.8575 61.2608 98.8539 61.2058 98.8609 61.1517C98.868 61.0976 98.8856 61.0454 98.9127 60.9981C98.9678 60.9028 99.058 60.8332 99.1637 60.8047C99.2695 60.7761 99.3821 60.7908 99.4771 60.8456L101.772 62.1888C101.819 62.2163 101.86 62.2528 101.893 62.2963C101.926 62.3398 101.95 62.3894 101.964 62.4423C101.977 62.4952 101.981 62.5503 101.973 62.6044C101.966 62.6586 101.948 62.7107 101.92 62.7579L101.919 62.7562Z" fill="white"/>
</g>
<path d="M102.244 63.345C102.244 63.2533 102.262 63.1625 102.297 63.0778C102.331 62.9932 102.383 62.9163 102.447 62.8515C102.511 62.7868 102.588 62.7355 102.672 62.7005C102.756 62.6656 102.846 62.6477 102.937 62.648C103.074 62.648 103.208 62.689 103.323 62.766C103.437 62.8429 103.526 62.9523 103.578 63.0802C103.631 63.2082 103.645 63.349 103.618 63.4848C103.591 63.6207 103.525 63.7455 103.428 63.8434C103.331 63.9413 103.207 64.008 103.072 64.0351C102.938 64.0621 102.798 64.0482 102.671 63.9952C102.544 63.9422 102.436 63.8524 102.359 63.7373C102.283 63.6221 102.242 63.4867 102.242 63.3482L102.244 63.345Z" fill="#263238"/>
<path d="M42.4072 71.8501C47.0645 71.8501 50.8399 68.0437 50.8399 63.3483C50.8399 58.6529 47.0645 54.8466 42.4072 54.8466C37.75 54.8466 33.9746 58.6529 33.9746 63.3483C33.9746 68.0437 37.75 71.8501 42.4072 71.8501Z" fill="#263238"/>
<path opacity="0.4" d="M42.4069 68.5602C45.2619 68.5602 47.5764 66.2267 47.5764 63.3483C47.5764 60.4698 45.2619 58.1364 42.4069 58.1364C39.5518 58.1364 37.2373 60.4698 37.2373 63.3483C37.2373 66.2267 39.5518 68.5602 42.4069 68.5602Z" fill="white"/>
<g opacity="0.3">
<path d="M42.407 58.6595H42.4054C42.1772 58.6595 41.9922 58.846 41.9922 59.0761V61.7477C41.9922 61.9777 42.1772 62.1642 42.4054 62.1642H42.407C42.6352 62.1642 42.8202 61.9777 42.8202 61.7477V59.0761C42.8202 58.846 42.6352 58.6595 42.407 58.6595Z" fill="white"/>
</g>
<g opacity="0.3">
<path d="M42.407 64.5323H42.4054C42.1772 64.5323 41.9922 64.7189 41.9922 64.9489V67.6205C41.9922 67.8505 42.1772 68.037 42.4054 68.037H42.407C42.6352 68.037 42.8202 67.8505 42.8202 67.6205V64.9489C42.8202 64.7189 42.6352 64.5323 42.407 64.5323Z" fill="white"/>
</g>
<g opacity="0.3">
<path d="M43.9829 62.9104C43.9357 62.9369 43.8837 62.9537 43.8299 62.9598C43.7762 62.9659 43.7218 62.9612 43.6699 62.946C43.618 62.9307 43.5696 62.9052 43.5276 62.8709C43.4855 62.8367 43.4506 62.7943 43.4249 62.7464C43.3975 62.6993 43.3795 62.6471 43.3721 62.593C43.3646 62.5388 43.3679 62.4837 43.3816 62.4308C43.3954 62.3779 43.4194 62.3283 43.4522 62.2848C43.485 62.2413 43.5261 62.2048 43.573 62.1773L45.8715 60.844C45.9185 60.8167 45.9705 60.799 46.0244 60.792C46.0783 60.785 46.133 60.7887 46.1854 60.8031C46.2378 60.8174 46.2869 60.842 46.3299 60.8755C46.3729 60.9089 46.4089 60.9506 46.4359 60.9981C46.463 61.0456 46.4805 61.098 46.4875 61.1523C46.4944 61.2066 46.4907 61.2618 46.4765 61.3146C46.4623 61.3675 46.4379 61.417 46.4047 61.4604C46.3715 61.5037 46.3301 61.54 46.283 61.5672L43.991 62.9087L43.9829 62.9104Z" fill="white"/>
</g>
<g opacity="0.3">
<path d="M38.3775 65.682C38.3504 65.6348 38.3328 65.5826 38.3258 65.5285C38.3187 65.4743 38.3223 65.4194 38.3364 65.3666C38.3504 65.3139 38.3747 65.2645 38.4077 65.2213C38.4407 65.178 38.4819 65.1418 38.5288 65.1146L40.8224 63.7714C40.8695 63.7437 40.9215 63.7256 40.9756 63.7182C41.0296 63.7108 41.0846 63.7142 41.1373 63.7282C41.19 63.7422 41.2395 63.7665 41.2829 63.7999C41.3262 63.8332 41.3627 63.8748 41.3901 63.9223C41.4449 64.0184 41.4595 64.1325 41.4308 64.2396C41.4022 64.3466 41.3325 64.4377 41.2372 64.493L38.9452 65.8362C38.8979 65.8638 38.8457 65.8816 38.7916 65.8888C38.7374 65.896 38.6824 65.8923 38.6296 65.878C38.5769 65.8637 38.5274 65.839 38.4842 65.8054C38.4409 65.7717 38.4047 65.7298 38.3775 65.682Z" fill="white"/>
</g>
<g opacity="0.3">
<path d="M46.4333 65.6935C46.3785 65.7887 46.2885 65.8583 46.1831 65.8868C46.0776 65.9154 45.9652 65.9007 45.8704 65.846L43.5736 64.5028C43.479 64.4464 43.4103 64.3546 43.3826 64.2474C43.3549 64.1402 43.3703 64.0263 43.4255 63.9305C43.4528 63.8832 43.489 63.8418 43.5322 63.8087C43.5753 63.7756 43.6246 63.7514 43.677 63.7376C43.7295 63.7237 43.7841 63.7204 43.8378 63.7279C43.8915 63.7354 43.9433 63.7535 43.99 63.7812L46.282 65.1228C46.3765 65.178 46.4454 65.2687 46.4738 65.375C46.5021 65.4813 46.4875 65.5947 46.4333 65.6902V65.6935Z" fill="white"/>
</g>
<g opacity="0.3">
<path d="M41.3869 62.7595C41.3595 62.8066 41.3231 62.8478 41.2799 62.8808C41.2367 62.9137 41.1875 62.9377 41.135 62.9515C41.0826 62.9652 41.028 62.9683 40.9743 62.9607C40.9207 62.9531 40.8691 62.9349 40.8224 62.9071L38.5288 61.5656C38.4819 61.5384 38.4407 61.5021 38.4077 61.4589C38.3747 61.4156 38.3504 61.3662 38.3364 61.3135C38.3223 61.2608 38.3187 61.2058 38.3258 61.1517C38.3328 61.0976 38.3504 61.0454 38.3775 60.9981C38.4327 60.9019 38.5234 60.8317 38.6298 60.8028C38.7362 60.7739 38.8496 60.7887 38.9452 60.844L41.2372 62.1871C41.3318 62.2427 41.4008 62.3336 41.4291 62.4402C41.4575 62.5468 41.4428 62.6604 41.3885 62.7562L41.3869 62.7595Z" fill="white"/>
</g>
<path d="M42.4065 62.6479C42.5439 62.6479 42.6782 62.689 42.7924 62.766C42.9066 62.8429 42.9956 62.9523 43.0482 63.0802C43.1008 63.2082 43.1145 63.349 43.0877 63.4848C43.0609 63.6207 42.9948 63.7455 42.8977 63.8434C42.8005 63.9413 42.6767 64.008 42.542 64.0351C42.4073 64.0621 42.2676 64.0482 42.1407 63.9952C42.0138 63.9422 41.9053 63.8524 41.829 63.7373C41.7527 63.6221 41.7119 63.4867 41.7119 63.3482C41.7123 63.1626 41.7857 62.9848 41.9158 62.8535C42.046 62.7223 42.2224 62.6484 42.4065 62.6479Z" fill="#263238"/>
<path opacity="0.3" d="M115.949 47.3107C116.016 47.2898 116.078 47.2558 116.132 47.2106C116.185 47.1655 116.23 47.1101 116.262 47.0477C116.295 46.9852 116.315 46.9169 116.321 46.8467C116.327 46.7764 116.32 46.7056 116.299 46.6383C116.201 44.8474 115.824 43.255 114.735 42.1595C114.7 42.0424 114.626 41.941 114.526 41.872C114.426 41.8031 114.305 41.7709 114.184 41.7806L107.759 42.3924C107.661 42.4027 107.568 42.4401 107.49 42.5005C107.412 42.5609 107.352 42.6419 107.317 42.7345C107.282 42.8271 107.273 42.9276 107.291 43.025C107.31 43.1224 107.354 43.2128 107.42 43.2862L109.26 45.287C109.324 45.356 109.405 45.4069 109.494 45.4346L115.646 47.314C115.746 47.3416 115.85 47.3405 115.949 47.3107Z" fill="black"/>
<path d="M51.8041 44.011C51.7578 44.1886 51.7794 44.3773 51.8647 44.5395C51.95 44.7017 52.0927 44.8257 52.2645 44.8868L56.4938 46.0807C56.8552 46.1982 57.2371 46.2373 57.6146 46.1955L58.9793 46.0889L57.7463 39.36C54.8492 41.2788 54.6557 41.3673 52.053 43.601C51.927 43.7059 51.8394 43.8502 51.8041 44.011Z" fill="#263238"/>
<path d="M79.3305 33.2117L76.6758 44.8819L80.1487 44.6293L81.7331 33.3215C80.9241 33.2734 80.1232 33.2368 79.3305 33.2117Z" fill="#263238"/>
<path d="M90.3477 42.4481L95.2277 36.3046C95.3716 36.1372 95.4598 35.9284 95.4798 35.7077C95.5351 35.1583 95.1919 34.663 94.7136 34.604C93.7149 34.4662 92.651 34.335 91.5888 34.2054" fill="#263238"/>
<path d="M55.646 45.1967C55.4454 45.1993 55.2462 45.162 55.0599 45.0869C54.8736 45.0118 54.7038 44.9003 54.5602 44.759C54.4167 44.6176 54.3022 44.4491 54.2233 44.263C54.1445 44.077 54.1028 43.8771 54.1007 43.6748C54.0967 43.3233 54.2117 42.981 54.4267 42.7043C54.6417 42.4276 54.9438 42.2331 55.2833 42.1529L57.3199 41.6724L57.8388 45.1164L55.6867 45.2L55.646 45.1967Z" fill="#EE8F31"/>
<path opacity="0.3" d="M57.2419 45.1377L57.8389 45.1131L57.32 41.6724L56.7393 41.8101L57.2419 45.1377Z" fill="black"/>
<path opacity="0.6" d="M77.4287 59.8911H77.4206C77.4154 59.8901 77.4105 59.8881 77.4061 59.8852C77.4017 59.8822 77.3979 59.8784 77.3951 59.874C77.3922 59.8695 77.3902 59.8645 77.3893 59.8593C77.3884 59.8541 77.3885 59.8487 77.3897 59.8435C77.4124 59.7369 79.6377 49.2032 79.9224 47.7666C80.0314 47.2172 80.072 46.1627 80.0395 44.6326C80.0395 44.6217 80.0438 44.6113 80.0514 44.6036C80.0591 44.5959 80.0694 44.5916 80.0802 44.5916C80.0907 44.5915 80.1008 44.5956 80.1084 44.603C80.116 44.6103 80.1204 44.6203 80.1208 44.6309C80.1534 46.1676 80.1208 47.227 80.0021 47.783C79.7174 49.2196 77.4905 59.755 77.4694 59.8599C77.4669 59.8689 77.4616 59.8768 77.4542 59.8824C77.4469 59.888 77.4379 59.8911 77.4287 59.8911Z" fill="black"/>
<path opacity="0.6" d="M57.3643 61.4721C57.3576 61.472 57.351 61.4703 57.3451 61.4672C57.3391 61.4641 57.334 61.4596 57.3302 61.454C57.3025 61.4114 54.4298 57.1261 53.4424 55.3319C52.429 53.4869 51.7718 44.6457 51.7442 44.2701C51.7437 44.2593 51.7473 44.2488 51.7542 44.2406C51.7612 44.2323 51.771 44.2271 51.7816 44.2258C51.7871 44.2254 51.7926 44.2261 51.7978 44.2278C51.803 44.2296 51.8078 44.2324 51.8119 44.2361C51.816 44.2397 51.8193 44.2442 51.8217 44.2492C51.824 44.2542 51.8253 44.2597 51.8255 44.2652C51.8255 44.3554 52.5087 53.4623 53.514 55.2926C54.49 57.0818 57.3692 61.3606 57.3985 61.4081C57.4015 61.4126 57.4036 61.4177 57.4047 61.423C57.4058 61.4284 57.4058 61.4339 57.4047 61.4392C57.4037 61.4446 57.4016 61.4496 57.3985 61.4542C57.3955 61.4587 57.3916 61.4625 57.3871 61.4655C57.3804 61.4701 57.3724 61.4724 57.3643 61.4721Z" fill="black"/>
<path opacity="0.6" d="M29.2345 48.4504C29.2265 48.4507 29.2186 48.4484 29.2119 48.444C29.2052 48.4396 29.2 48.4333 29.197 48.4258C29.1932 48.4156 29.1935 48.4042 29.1977 48.3942C29.2019 48.3841 29.2099 48.376 29.2198 48.3717C31.4223 47.4631 38.4918 45.7477 40.1413 45.4837C42.2283 45.1458 49.3596 43.3713 49.4312 43.3517C49.4419 43.3492 49.4532 43.351 49.4627 43.3569C49.4721 43.3627 49.4789 43.372 49.4816 43.3828C49.4828 43.3881 49.4829 43.3936 49.482 43.3989C49.4811 43.4042 49.4792 43.4093 49.4763 43.4139C49.4734 43.4185 49.4697 43.4224 49.4653 43.4255C49.4609 43.4287 49.4559 43.4309 49.4507 43.432C49.3791 43.4501 42.2445 45.2245 40.1543 45.564C38.5439 45.8248 31.3979 47.5615 29.2556 48.4488L29.2345 48.4504Z" fill="black"/>
<path opacity="0.8" d="M100.38 35.8421C100.221 35.9842 100.125 36.1839 100.113 36.3973C100.1 36.6107 100.172 36.8203 100.313 36.9803L101.196 37.9495C101.298 38.0579 101.428 38.1366 101.57 38.1775L112.402 41.2065C112.591 41.2576 112.785 41.2836 112.98 41.2836H115.132C115.02 41.2098 114.906 41.1393 114.785 41.0754L104.337 35.5305C104.211 35.4671 104.114 35.3557 104.069 35.2207C104.024 35.0857 104.034 34.9382 104.097 34.8105L100.703 35.6666C100.583 35.6989 100.472 35.759 100.38 35.8421Z" fill="white"/>
<path d="M73.3995 42.4759C73.3995 42.4759 73.2613 41.5804 73.7574 40.0159L73.6761 39.9733C73.7444 39.7551 73.8176 39.5534 73.8843 39.3779L71.7111 40.6506C71.7468 41.1557 71.5403 42.1266 71.4231 42.5333C71.4231 42.5333 71.132 43.2713 72.1145 43.3303C72.8335 43.368 73.3995 42.4759 73.3995 42.4759Z" fill="#B97964"/>
<path opacity="0.2" d="M71.6562 41.3526L72.8941 41.1066C72.7721 41.4887 72.4207 41.938 71.5635 41.9512C71.6102 41.7544 71.6412 41.5543 71.6562 41.3526Z" fill="black"/>
<path d="M73.932 38.3252C73.7498 39.688 73.675 40.4572 72.9381 41.1132C71.8303 42.084 70.2346 41.3542 70.0101 39.9652C69.8068 38.7106 70.137 36.6852 71.5066 36.2588C71.8089 36.1633 72.1302 36.1463 72.4406 36.2094C72.7511 36.2725 73.0408 36.4137 73.2827 36.6198C73.5246 36.8259 73.711 37.0903 73.8245 37.3884C73.938 37.6866 73.975 38.0088 73.932 38.3252Z" fill="#B97964"/>
<path d="M74.2209 36.6916C74.0891 35.9241 72.2152 35.7798 71.6638 36.1275C71.5808 36.1783 72.6512 36.8228 72.5861 36.7917L73.0952 37.0131C73.1766 36.9999 73.3295 37.1065 73.3929 37.3657C73.3929 37.3657 73.1831 39.4599 73.7296 40.1094C74.2176 39.9109 74.3071 39.0811 74.4925 38.5973C74.7675 37.8839 75.1123 36.8146 74.2209 36.6916Z" fill="#263238"/>
<path d="M74.3858 39.5059C74.3221 39.6647 74.2275 39.809 74.1076 39.9304C73.9878 40.0517 73.8451 40.1478 73.688 40.2128C73.2683 40.3866 73.1479 39.9291 73.2179 39.501C73.2797 39.1156 73.4261 38.6499 73.8685 38.6597C74.311 38.6695 74.5387 39.1107 74.3858 39.5059Z" fill="#B97964"/>
<path d="M71.9598 38.5793C71.9501 38.7187 71.8687 38.8269 71.7776 38.8187C71.6865 38.8105 71.615 38.6924 71.6312 38.5514C71.6475 38.4104 71.7223 38.3038 71.8134 38.312C71.9045 38.3202 71.9696 38.4382 71.9598 38.5793Z" fill="#263238"/>
<path d="M70.5975 38.5071C70.5877 38.6465 70.5064 38.7548 70.4153 38.7466C70.3242 38.7384 70.2527 38.6203 70.2689 38.4793C70.2852 38.3382 70.3616 38.2316 70.4511 38.2398C70.5406 38.248 70.6073 38.3759 70.5975 38.5071Z" fill="#263238"/>
<path d="M71.0442 38.4612C71.0442 38.4612 70.5562 39.1172 70.3936 39.3993C70.5741 39.5895 70.9141 39.5321 70.9141 39.5321L71.0442 38.4612Z" fill="#A24E3F"/>
<path d="M72.3471 37.943C72.3361 37.9469 72.3243 37.9478 72.3128 37.9455C72.3014 37.9431 72.2908 37.9378 72.2821 37.9299C72.2226 37.8729 72.1508 37.8306 72.0723 37.8064C71.9938 37.7822 71.9108 37.7767 71.8299 37.7905C71.8131 37.7945 71.7954 37.7918 71.7805 37.7829C71.7656 37.7741 71.7547 37.7597 71.7502 37.7429C71.748 37.7346 71.7475 37.726 71.7487 37.7175C71.7499 37.709 71.7528 37.7008 71.7572 37.6935C71.7616 37.6861 71.7674 37.6798 71.7743 37.6747C71.7812 37.6697 71.789 37.6661 71.7973 37.6642C71.8988 37.6437 72.0037 37.6478 72.1033 37.6763C72.2029 37.7049 72.2943 37.7569 72.3699 37.8282C72.3818 37.8405 72.3885 37.857 72.3885 37.8741C72.3885 37.8913 72.3818 37.9078 72.3699 37.9201C72.3646 37.9297 72.3567 37.9377 72.3471 37.943Z" fill="#263238"/>
<path d="M71.3894 40.075H71.3324C71.3162 40.0733 71.3012 40.0654 71.2906 40.0529C71.28 40.0404 71.2746 40.0242 71.2755 40.0078C71.2775 39.9917 71.2855 39.977 71.2979 39.9666C71.3103 39.9563 71.3261 39.951 71.3422 39.952C71.4442 39.9541 71.5455 39.9353 71.64 39.8967C71.7345 39.858 71.8203 39.8004 71.892 39.7273C71.8976 39.7215 71.9043 39.7169 71.9117 39.7138C71.9191 39.7106 71.9271 39.709 71.9351 39.709C71.9431 39.709 71.9511 39.7106 71.9585 39.7138C71.9659 39.7169 71.9726 39.7215 71.9782 39.7273C71.9884 39.74 71.9933 39.7562 71.9918 39.7725C71.9902 39.7887 71.9825 39.8037 71.9701 39.8142C71.8142 39.9691 71.6078 40.0618 71.3894 40.075Z" fill="#263238"/>
<path opacity="0.2" d="M73.4534 39.5108C73.4481 39.5101 73.443 39.5082 73.4384 39.5053C73.4338 39.5025 73.4299 39.4987 73.4268 39.4942C73.4238 39.4898 73.4217 39.4847 73.4206 39.4794C73.4196 39.4741 73.4197 39.4686 73.4209 39.4633C73.4445 39.3386 73.5006 39.2226 73.5835 39.1271C73.6514 39.0434 73.7455 38.9856 73.8503 38.9631C73.9069 38.9519 73.9656 38.9581 74.0187 38.9809C74.0717 39.0037 74.1168 39.0421 74.148 39.091C74.1533 39.1004 74.1548 39.1115 74.152 39.1219C74.1493 39.1324 74.1426 39.1413 74.1333 39.1468C74.1286 39.1494 74.1235 39.151 74.1182 39.1516C74.1128 39.1522 74.1075 39.1517 74.1023 39.1501C74.0972 39.1486 74.0924 39.1461 74.0882 39.1427C74.0841 39.1393 74.0806 39.1351 74.078 39.1304C74.0552 39.0919 74.0209 39.0617 73.98 39.044C73.9391 39.0263 73.8937 39.0221 73.8503 39.032C73.7635 39.0527 73.6861 39.1024 73.6307 39.173C73.5578 39.2579 73.5089 39.361 73.4892 39.4715C73.4886 39.4812 73.4847 39.4903 73.4782 39.4975C73.4717 39.5047 73.4629 39.5094 73.4534 39.5108Z" fill="black"/>
<path d="M70.0376 37.8725C70.0255 37.8685 70.0148 37.8611 70.0067 37.8511C70.0006 37.845 69.9957 37.8378 69.9924 37.8297C69.989 37.8217 69.9873 37.8131 69.9873 37.8044C69.9873 37.7957 69.989 37.7871 69.9924 37.7791C69.9957 37.771 70.0006 37.7638 70.0067 37.7577C70.0841 37.6893 70.1766 37.6404 70.2764 37.615C70.3762 37.5896 70.4806 37.5885 70.5809 37.6117C70.5973 37.617 70.6111 37.6285 70.6193 37.6438C70.6275 37.6591 70.6295 37.677 70.6249 37.6937C70.6228 37.7021 70.6191 37.7099 70.6139 37.7168C70.6087 37.7236 70.6021 37.7293 70.5946 37.7335C70.5871 37.7376 70.5789 37.7402 70.5704 37.741C70.5618 37.7417 70.5533 37.7407 70.5451 37.738C70.4654 37.7197 70.3825 37.7212 70.3034 37.7424C70.2244 37.7635 70.1516 37.8036 70.0913 37.8593C70.0838 37.8652 70.0751 37.8693 70.0658 37.8716C70.0566 37.8739 70.047 37.8742 70.0376 37.8725Z" fill="#263238"/>
<path d="M74.5437 36.1177C74.4591 35.8044 74.0687 35.7159 73.7645 35.7618C73.8003 35.3862 73.3269 35.1435 73.0227 35.137C72.8674 35.1167 72.7102 35.1572 72.5835 35.2501C72.6079 35.2501 72.4973 35.0599 72.4209 34.9795C72.2922 34.8349 72.1234 34.7324 71.9364 34.6853C71.7494 34.6383 71.5527 34.6488 71.3717 34.7155C71.1904 34.7933 71.0346 34.921 70.9221 35.084C70.8096 35.2471 70.745 35.4388 70.7356 35.6372C70.6889 35.5864 70.6326 35.5455 70.5701 35.5168C70.5076 35.4881 70.4401 35.4721 70.3715 35.4698C70.3028 35.4675 70.2344 35.479 70.1701 35.5035C70.1059 35.528 70.0471 35.565 69.9971 35.6126C69.9027 35.7209 69.8505 35.8602 69.8505 36.0045C69.8505 36.1488 69.9027 36.2881 69.9971 36.3965C69.9375 36.4 69.8792 36.4154 69.8255 36.4417C69.7718 36.4679 69.7237 36.5046 69.6841 36.5496C69.604 36.6405 69.563 36.7597 69.5701 36.8811C69.5772 37.0024 69.6319 37.116 69.722 37.1967C69.8122 37.2774 69.9304 37.3188 70.0508 37.3116C70.0508 37.5888 70.0606 37.9364 70.0589 38.2152L70.4819 37.2165C70.6738 37.1574 70.7145 37.0738 70.7649 36.8672C70.8902 37.1361 71.1081 37.1263 71.3912 37.1312C71.5354 37.1301 71.6765 37.0887 71.7988 37.0117C71.9211 36.9347 72.0199 36.8251 72.0841 36.695C72.1429 36.8357 72.2383 36.9577 72.3603 37.0481C72.4823 37.1385 72.6264 37.1938 72.7771 37.2083C72.9285 37.2103 73.0752 37.1549 73.1881 37.0532C73.301 36.9515 73.3721 36.8108 73.3871 36.6589C73.4674 36.7923 73.5922 36.8926 73.7392 36.9416C73.8862 36.9906 74.0457 36.9851 74.189 36.9262C74.3293 36.8508 74.4405 36.7302 74.5047 36.5836C74.569 36.4371 74.5827 36.273 74.5437 36.1177Z" fill="#263238"/>
<path d="M71.2979 42.2627L66.1088 44.0109L61.3362 43.7649L61.1523 45.2639C61.1523 45.2639 62.5773 45.5657 63.9665 45.7559L68.4301 45.4476C69.9185 45.0917 71.3873 44.6587 71.3873 44.6587L71.2979 42.2627Z" fill="#B97964"/>
<path d="M70.2031 45.4034L70.7383 42.2693L72.757 41.9151C72.8465 41.902 74.4861 41.7659 74.979 43.5797L75.0896 45.0229L70.2031 45.4034Z" fill="#102C52"/>
<path d="M71.8448 45.2541C71.7325 45.2541 68.5182 45.5674 68.5182 45.5674L67.9375 43.2517C68.8522 42.8712 69.7874 42.5427 70.7386 42.2677C72.2335 41.861 73.6357 41.7347 73.9578 42.4317C74.571 43.7732 71.8448 45.2541 71.8448 45.2541Z" fill="#102C52"/>
<path d="M59.7695 43.0795C59.6784 43.1352 58.5967 44.2635 58.5967 44.2635L58.8065 45.6592L60.1664 44.2439L59.7695 43.0795Z" fill="#263238"/>
<path d="M61.398 45.9937C61.2825 46.0506 61.1493 46.0593 61.0275 46.0179C60.9056 45.9764 60.8049 45.8882 60.7473 45.7723L58.5887 41.3656C58.5322 41.2491 58.5236 41.1149 58.5647 40.9921C58.6058 40.8692 58.6934 40.7677 58.8083 40.7096C58.9238 40.6526 59.057 40.6439 59.1788 40.6854C59.3006 40.7268 59.4013 40.8151 59.459 40.931L61.6159 45.3393C61.6721 45.4554 61.6806 45.5891 61.6399 45.7115C61.5991 45.8339 61.5122 45.9353 61.398 45.9937Z" fill="#263238"/>
<path d="M62.9516 43.8847L61.1752 43.6452L60.6612 43.0188C60.6612 43.0188 59.7584 42.9368 59.5648 43.0991C59.3713 43.2615 59.1761 43.7781 59.1761 43.7781C59.1761 43.7781 58.9418 44.2012 59.3387 44.4242C59.3387 44.4242 59.0833 44.8014 59.5388 45.0671C59.5388 45.0671 59.2037 45.2574 59.6852 45.4574C59.8696 45.5312 60.0667 45.5672 60.265 45.5632C60.4633 45.5593 60.6588 45.5155 60.8401 45.4345C61.106 45.3688 61.3808 45.3477 61.6535 45.3722L63.2688 45.6592L62.9516 43.8847Z" fill="#B97964"/>
<path d="M90.3483 31.2682C88.7997 31.0517 86.8623 30.8778 84.8941 30.7762C84.8852 30.7776 84.8762 30.7771 84.8675 30.7747C84.8589 30.7723 84.8509 30.768 84.8441 30.7622C84.8372 30.7563 84.8317 30.749 84.828 30.7408C84.8242 30.7326 84.8223 30.7237 84.8223 30.7147C84.8223 30.7056 84.8242 30.6967 84.828 30.6885C84.8317 30.6803 84.8372 30.673 84.8441 30.6672C84.8509 30.6613 84.8589 30.657 84.8675 30.6546C84.8762 30.6522 84.8852 30.6517 84.8941 30.6532C86.8672 30.7516 88.8078 30.9254 90.3597 31.1452C90.3741 31.1483 90.387 31.1567 90.3959 31.1686C90.4048 31.1805 90.4092 31.1953 90.4082 31.2102C90.4072 31.2251 90.4009 31.2391 90.3905 31.2498C90.3801 31.2604 90.3663 31.2669 90.3515 31.2682H90.3483Z" fill="#EE8F31"/>
<path d="M91.9176 31.4321L90.9579 31.3337C90.9499 31.3331 90.9422 31.3309 90.9352 31.3273C90.9281 31.3236 90.9218 31.3186 90.9167 31.3125C90.9115 31.3064 90.9076 31.2994 90.9052 31.2918C90.9028 31.2841 90.9019 31.2761 90.9026 31.2681C90.9029 31.2599 90.905 31.2519 90.9086 31.2445C90.9123 31.2371 90.9174 31.2306 90.9237 31.2254C90.93 31.2201 90.9373 31.2163 90.9451 31.214C90.9529 31.2118 90.9612 31.2112 90.9692 31.2124C91.2848 31.2435 91.6053 31.2747 91.929 31.3091C91.9451 31.3108 91.9599 31.3188 91.9703 31.3313C91.9806 31.3439 91.9856 31.3601 91.9843 31.3764C91.9823 31.3925 91.9742 31.4072 91.9619 31.4175C91.9495 31.4279 91.9337 31.4331 91.9176 31.4321Z" fill="#EE8F31"/>
<path d="M37.5967 74.5098L39.2559 72.4647L40.5475 62.61H42.2067L43.8984 72.4746L45.4649 74.5098H37.5967Z" fill="#EE8F31"/>
<path d="M39.5508 70.2212H43.5133L42.9424 66.8937H39.9867L39.5508 70.2212Z" fill="white"/>
<path opacity="0.3" d="M39.2559 72.4648L43.8984 72.4747L45.4649 74.5099H37.5967L39.2559 72.4648Z" fill="black"/>
<path d="M69.9873 74.5098L71.6465 72.4647L72.9381 62.61H74.5973L76.289 72.4746L77.8555 74.5098H69.9873Z" fill="#EE8F31"/>
<path d="M71.9404 70.2212H75.903L75.332 66.8937H72.3764L71.9404 70.2212Z" fill="white"/>
<path opacity="0.3" d="M71.6465 72.4648L76.289 72.4747L77.8555 74.5099H69.9873L71.6465 72.4648Z" fill="black"/>
<path d="M98.541 74.131L100.2 72.086L101.492 62.2312H103.151L104.843 72.0958L106.409 74.131H98.541Z" fill="#EE8F31"/>
<path d="M100.495 69.8425H104.458L103.887 66.5149H100.931L100.495 69.8425Z" fill="white"/>
<path opacity="0.3" d="M100.2 72.0859L104.843 72.0958L106.409 74.131H98.541L100.2 72.0859Z" fill="black"/>
<path d="M8.25195 71.8205L9.67691 71.9616L10.7294 68.3257L8.56265 68.0879L8.25195 71.8205Z" fill="#EEC1BB"/>
<path d="M9.88179 71.3286H9.37427C9.31764 71.329 9.26188 71.3428 9.21157 71.3691C9.16125 71.3953 9.11779 71.4331 9.08473 71.4795C8.79193 71.8846 8.5707 71.7321 8.25187 71.3516C8.04854 71.3286 7.99486 71.5631 7.97859 71.6255L7.59795 73.0195C7.5824 73.0753 7.5894 73.1352 7.61744 73.1859C7.64548 73.2366 7.69227 73.274 7.74761 73.2901C7.76658 73.2993 7.7869 73.3054 7.8078 73.3081H11.8387C12.4796 73.3081 12.613 72.6521 12.3494 72.5963C11.162 72.3323 10.321 71.9797 9.95499 71.632C9.88667 71.5615 9.95662 71.5172 9.88179 71.3286Z" fill="#263238"/>
<path d="M10.9861 71.7238C11.012 71.705 11.0333 71.6804 11.0483 71.652C11.0633 71.6235 11.0715 71.592 11.0723 71.5598C11.0746 71.5422 11.0719 71.5244 11.0644 71.5084C11.0568 71.4924 11.0449 71.4789 11.03 71.4696C10.8673 71.3564 10.2346 71.6549 10.1646 71.691C10.1606 71.6923 10.157 71.6944 10.1539 71.6972C10.1508 71.7 10.1484 71.7035 10.1467 71.7074C10.1446 71.7145 10.1453 71.7223 10.1486 71.729C10.1519 71.7357 10.1576 71.7408 10.1646 71.7434C10.3203 71.7813 10.4795 71.8022 10.6396 71.8058C10.7608 71.8162 10.8822 71.7875 10.9861 71.7238ZM10.9861 71.5155C10.9925 71.5192 10.9975 71.5248 11.0004 71.5316C11.0033 71.5384 11.004 71.546 11.0023 71.5532C11.0013 71.5771 10.9951 71.6005 10.9841 71.6218C10.9732 71.643 10.9577 71.6616 10.9389 71.6762C10.7941 71.7844 10.4509 71.7369 10.259 71.7024C10.5274 71.586 10.8982 71.4532 10.991 71.5155H10.9861Z" fill="#EE8F31"/>
<path d="M10.1858 71.7484C10.3761 71.668 10.7763 71.3515 10.7551 71.1842C10.7551 71.1481 10.7275 71.1071 10.6396 71.0957C10.2915 71.0547 10.1419 71.6861 10.1419 71.7123C10.1391 71.7167 10.1377 71.7218 10.1377 71.7271C10.1377 71.7323 10.1391 71.7374 10.1419 71.7418C10.1452 71.7434 10.1488 71.7443 10.1525 71.7443C10.1561 71.7443 10.1597 71.7434 10.163 71.7418L10.1858 71.7484ZM10.6283 71.1465C10.6933 71.1465 10.6933 71.1777 10.6933 71.1859C10.7112 71.2875 10.4217 71.5499 10.2135 71.6598C10.2574 71.5139 10.3843 71.1449 10.6055 71.1449L10.6283 71.1465Z" fill="#EE8F31"/>
<path d="M9.80332 72.0453C9.79647 72.0477 9.78903 72.0477 9.78218 72.0453C9.77757 72.0426 9.77356 72.039 9.77039 72.0347C9.76722 72.0304 9.76495 72.0255 9.76373 72.0202C9.76251 72.015 9.76237 72.0096 9.7633 72.0043C9.76423 71.999 9.76623 71.994 9.76916 71.9895C9.81961 71.9087 9.88694 71.84 9.96646 71.7882C10.046 71.7364 10.1357 71.7026 10.2295 71.6894C10.24 71.6884 10.2505 71.6914 10.2589 71.6977C10.2673 71.7041 10.2731 71.7134 10.2751 71.7238C10.2765 71.7347 10.2737 71.7456 10.2674 71.7545C10.261 71.7633 10.2515 71.7694 10.2409 71.7714C10.1589 71.7826 10.0802 71.8117 10.0106 71.8568C9.94088 71.9018 9.8818 71.9617 9.83748 72.0322C9.8332 72.0369 9.82788 72.0405 9.82195 72.0428C9.81602 72.0451 9.80964 72.0459 9.80332 72.0453Z" fill="#EE8F31"/>
<path d="M10.1191 72.2848C10.1122 72.2869 10.1048 72.2869 10.098 72.2848C10.089 72.279 10.0826 72.27 10.0802 72.2595C10.0778 72.2491 10.0795 72.2382 10.0849 72.229C10.1354 72.1482 10.2027 72.0795 10.2822 72.0277C10.3617 71.9758 10.4515 71.9421 10.5453 71.9289C10.556 71.9279 10.5667 71.9311 10.5751 71.9378C10.5836 71.9445 10.5892 71.9542 10.5908 71.965C10.5922 71.9756 10.5894 71.9864 10.5831 71.995C10.5767 72.0035 10.5672 72.0093 10.5567 72.0109C10.4748 72.0227 10.3965 72.0521 10.3269 72.0971C10.2573 72.1421 10.1981 72.2016 10.1533 72.2716C10.1491 72.2765 10.1437 72.2802 10.1378 72.2825C10.1318 72.2848 10.1254 72.2855 10.1191 72.2848Z" fill="#EE8F31"/>
<path d="M10.5133 72.488C10.5064 72.4904 10.499 72.4904 10.4921 72.488C10.4875 72.4853 10.4835 72.4817 10.4803 72.4774C10.4772 72.4731 10.4749 72.4682 10.4737 72.463C10.4725 72.4577 10.4723 72.4523 10.4733 72.447C10.4742 72.4418 10.4762 72.4367 10.4791 72.4322C10.5296 72.3515 10.5969 72.2828 10.6764 72.2309C10.7559 72.1791 10.8457 72.1454 10.9395 72.1321C10.9502 72.1312 10.9609 72.1344 10.9693 72.1411C10.9778 72.1478 10.9834 72.1575 10.985 72.1682C10.9864 72.1788 10.9836 72.1896 10.9772 72.1982C10.9708 72.2068 10.9614 72.2125 10.9509 72.2141C10.869 72.2257 10.7905 72.255 10.7209 72.3001C10.6513 72.3451 10.5921 72.4047 10.5474 72.4749C10.5432 72.4796 10.5378 72.4833 10.5319 72.4855C10.526 72.4878 10.5196 72.4887 10.5133 72.488Z" fill="#EE8F31"/>
<path opacity="0.3" d="M10.1728 70.2479L10.0427 70.6939L8.36719 70.4348L8.39809 70.0691L10.1728 70.2479Z" fill="black"/>
<path d="M16.543 71.8205L17.9679 71.9616L19.0204 68.3257L16.8537 68.0879L16.543 71.8205Z" fill="#EEC1BB"/>
<path d="M18.1728 71.3286H17.6653C17.6087 71.329 17.5529 71.3428 17.5026 71.3691C17.4523 71.3953 17.4088 71.4331 17.3757 71.4795C17.0829 71.8846 16.8617 71.7321 16.5429 71.3516C16.3396 71.3286 16.2859 71.5631 16.2696 71.6255L15.889 73.0195C15.8734 73.0753 15.8804 73.1352 15.9085 73.1859C15.9365 73.2366 15.9833 73.274 16.0386 73.2901C16.0591 73.2998 16.0811 73.3059 16.1037 73.3081H20.1329C20.7739 73.3081 20.9072 72.6521 20.6437 72.5963C19.4563 72.3323 18.6153 71.9797 18.2493 71.632C18.1777 71.5615 18.2476 71.5172 18.1728 71.3286Z" fill="#263238"/>
<path d="M19.2771 71.7238C19.3031 71.705 19.3244 71.6804 19.3393 71.652C19.3543 71.6235 19.3625 71.592 19.3633 71.5598C19.3656 71.5422 19.3629 71.5244 19.3554 71.5084C19.3479 71.4924 19.3359 71.4789 19.321 71.4696C19.1583 71.3564 18.5272 71.6549 18.4556 71.691C18.4517 71.6923 18.448 71.6944 18.4449 71.6972C18.4418 71.7 18.4394 71.7035 18.4377 71.7074C18.4356 71.7145 18.4363 71.7223 18.4396 71.729C18.4429 71.7357 18.4487 71.7408 18.4556 71.7434C18.6118 71.7814 18.7716 71.8023 18.9322 71.8058C19.0529 71.8161 19.1737 71.7874 19.2771 71.7238ZM19.2771 71.5155C19.2835 71.5192 19.2885 71.5248 19.2914 71.5316C19.2944 71.5384 19.295 71.546 19.2934 71.5532C19.2923 71.5771 19.2861 71.6005 19.2752 71.6218C19.2642 71.643 19.2488 71.6616 19.2299 71.6762C19.0851 71.7844 18.7419 71.7369 18.55 71.7024C18.8184 71.586 19.1941 71.4532 19.282 71.5155H19.2771Z" fill="#EE8F31"/>
<path d="M18.4769 71.7484C18.6672 71.668 19.0674 71.3515 19.0462 71.1842C19.0462 71.1481 19.0186 71.1071 18.9324 71.0957C18.5826 71.0547 18.433 71.6861 18.433 71.7123C18.4313 71.7175 18.4312 71.723 18.4326 71.7283C18.4341 71.7335 18.437 71.7382 18.4411 71.7418C18.4444 71.7434 18.448 71.7443 18.4517 71.7443C18.4553 71.7443 18.4589 71.7434 18.4622 71.7418L18.4769 71.7484ZM18.9193 71.1465C18.9844 71.1465 18.9844 71.1777 18.9844 71.1859C19.0023 71.2875 18.7128 71.5499 18.5045 71.6598C18.5485 71.5139 18.6672 71.1449 18.8966 71.1449L18.9193 71.1465Z" fill="#EE8F31"/>
<path d="M18.0953 72.0453C18.0885 72.0477 18.081 72.0477 18.0742 72.0453C18.0696 72.0426 18.0656 72.039 18.0624 72.0347C18.0592 72.0304 18.0569 72.0255 18.0557 72.0202C18.0545 72.015 18.0544 72.0096 18.0553 72.0043C18.0562 71.999 18.0582 71.994 18.0612 71.9895C18.1116 71.9087 18.1789 71.84 18.2584 71.7882C18.338 71.7364 18.4277 71.7026 18.5215 71.6894C18.532 71.6884 18.5425 71.6914 18.5509 71.6977C18.5593 71.7041 18.5651 71.7134 18.567 71.7238C18.5685 71.7347 18.5657 71.7456 18.5594 71.7545C18.553 71.7633 18.5435 71.7694 18.5329 71.7714C18.4509 71.7826 18.3722 71.8117 18.3026 71.8568C18.2329 71.9018 18.1738 71.9617 18.1295 72.0322C18.1252 72.0369 18.1199 72.0405 18.1139 72.0428C18.108 72.0451 18.1016 72.0459 18.0953 72.0453Z" fill="#EE8F31"/>
<path d="M18.4101 72.2847C18.4032 72.2868 18.3959 72.2868 18.389 72.2847C18.38 72.2789 18.3736 72.2699 18.3712 72.2595C18.3688 72.249 18.3705 72.2381 18.376 72.2289C18.4264 72.1481 18.4937 72.0794 18.5732 72.0276C18.6528 71.9758 18.7425 71.942 18.8363 71.9288C18.8416 71.9281 18.8471 71.9285 18.8523 71.93C18.8575 71.9314 18.8623 71.9339 18.8666 71.9372C18.8708 71.9406 18.8743 71.9448 18.877 71.9495C18.8796 71.9543 18.8812 71.9595 18.8818 71.9649C18.8832 71.9755 18.8805 71.9863 18.8741 71.9949C18.8677 72.0035 18.8582 72.0092 18.8477 72.0108C18.7658 72.0226 18.6875 72.052 18.6179 72.097C18.5483 72.142 18.4891 72.2015 18.4443 72.2716C18.4403 72.2766 18.435 72.2805 18.429 72.2828C18.423 72.2852 18.4165 72.2858 18.4101 72.2847Z" fill="#EE8F31"/>
<path d="M18.8043 72.488C18.7974 72.4904 18.79 72.4904 18.7832 72.488C18.7785 72.4853 18.7745 72.4817 18.7714 72.4774C18.7682 72.4731 18.7659 72.4682 18.7647 72.463C18.7635 72.4577 18.7633 72.4523 18.7643 72.447C18.7652 72.4418 18.7672 72.4367 18.7701 72.4322C18.8206 72.3515 18.8879 72.2828 18.9674 72.2309C19.0469 72.1791 19.1367 72.1454 19.2305 72.1321C19.2412 72.1312 19.2519 72.1344 19.2603 72.1411C19.2688 72.1478 19.2744 72.1575 19.276 72.1682C19.2774 72.1788 19.2746 72.1896 19.2683 72.1982C19.2619 72.2068 19.2524 72.2125 19.2419 72.2141C19.16 72.2257 19.0815 72.255 19.0119 72.3001C18.9423 72.3451 18.8831 72.4047 18.8385 72.4749C18.8342 72.4796 18.8289 72.4833 18.8229 72.4855C18.817 72.4878 18.8106 72.4887 18.8043 72.488Z" fill="#EE8F31"/>
<path opacity="0.3" d="M18.4638 70.2479L18.3337 70.6939L16.6582 70.4348L16.6875 70.0691L18.4638 70.2479Z" fill="black"/>
<path d="M19.5876 44.4244C19.5876 44.4244 20.767 49.6724 21.3298 54.2644C21.5022 55.6601 21.5348 57.5264 21.2306 58.8991L18.9532 70.3036L16.0887 70.015C16.5393 65.095 17.1655 59.027 17.3461 56.4489C16.7166 53.4248 15.3746 49.7626 14.0537 46.1169L19.5876 44.4244Z" fill="#EE8F31"/>
<path d="M10.1799 57.3607C10.2433 57.0754 10.3425 56.4981 10.4743 55.7371H10.4629C10.5556 54.7285 10.728 50.0545 11.0436 47.073C11.2876 45.1739 11.7691 43.8898 12.2522 43.26L12.3222 43.1715C12.4019 43.0714 12.4507 43.0075 12.4507 43.0075C12.5434 43.0321 12.6345 43.0534 12.7256 43.0731L12.8281 43.096C14.9595 43.5191 17.1578 43.4553 19.2615 42.9091C19.5771 43.6946 19.813 45.3691 20.0423 47.1009C19.6845 47.4978 18.1131 48.0111 16.3108 48.3522L15.7967 50.6958C15.5267 52.1488 15.1786 53.574 14.8842 54.8565L14.5767 56.2619C14.5572 56.3554 14.5393 56.4456 14.5214 56.5358C14.3588 57.3443 10.6435 70.3627 10.6435 70.3627L8.21973 70.22C8.21973 70.22 9.30309 61.2131 10.1799 57.3607Z" fill="#EE8F31"/>
<path opacity="0.2" d="M15.7637 50.9155C15.754 50.963 16.8731 46.8597 16.8731 46.8597C16.8731 46.8597 17.8166 50.5235 16.3851 52.8146L15.7637 50.9155Z" fill="black"/>
<path d="M13.3545 32.4015C13.3545 32.4015 13.9238 32.8427 14.6558 33.479C14.8092 33.6115 14.9767 33.7264 15.1552 33.8217C15.6432 34.0792 16.0743 34.2268 16.193 33.9939C16.2187 33.9415 16.2389 33.8866 16.2532 33.8299C16.3541 33.438 16.3134 32.8886 15.9995 32.6377C15.6465 32.3539 15.4757 32.1112 15.5391 31.7275C15.581 31.5015 15.6493 31.2813 15.7424 31.0715L15.4643 30.7435L14.01 29.2675C14.0458 30.2449 14.1207 31.8652 13.3545 32.4015Z" fill="#EEC1BB"/>
<path opacity="0.2" d="M15.5284 31.816C15.1283 31.5766 14.6891 31.16 14.7428 30.6861C14.7601 30.5122 14.7978 30.341 14.855 30.176L15.6683 31.2617C15.6025 31.441 15.5556 31.6268 15.5284 31.816Z" fill="black"/>
<path d="M13.5985 27.6685C13.7352 29.1757 13.7612 29.8153 14.5322 30.6041C15.692 31.7931 17.4781 31.393 17.7856 29.8989C18.0621 28.5558 17.7856 26.3172 16.3216 25.6825C16.011 25.5362 15.6673 25.4763 15.3261 25.5089C14.9848 25.5416 14.6584 25.6656 14.3807 25.8681C14.103 26.0707 13.884 26.3444 13.7465 26.661C13.609 26.9775 13.5579 27.3254 13.5985 27.6685Z" fill="#EEC1BB"/>
<path d="M15.4531 28.1441C15.4531 28.2851 15.5475 28.3999 15.6451 28.4032C15.7427 28.4065 15.8175 28.2917 15.8077 28.1506C15.798 28.0096 15.7134 27.8931 15.6158 27.8915C15.5182 27.8899 15.4531 28.003 15.4531 28.1441Z" fill="#263238"/>
<path d="M17.0082 28.1228C17.0082 28.2589 17.1026 28.3721 17.2002 28.3737C17.2978 28.3754 17.3726 28.2671 17.3628 28.1294C17.3531 27.9916 17.2685 27.8801 17.1709 27.8784C17.0733 27.8768 17.0017 27.985 17.0082 28.1228Z" fill="#263238"/>
<path d="M15.2217 27.6029C15.2313 27.6044 15.2411 27.6037 15.2504 27.6009C15.2597 27.598 15.2682 27.5931 15.2754 27.5865C15.3394 27.5251 15.4173 27.4804 15.5023 27.4561C15.5873 27.4318 15.6769 27.4287 15.7634 27.4471C15.7721 27.4501 15.7814 27.4512 15.7906 27.4503C15.7998 27.4493 15.8087 27.4464 15.8167 27.4418C15.8247 27.4371 15.8316 27.4308 15.837 27.4233C15.8424 27.4157 15.8462 27.4071 15.848 27.3979C15.8525 27.3784 15.8495 27.3578 15.8396 27.3404C15.8296 27.3231 15.8134 27.3102 15.7943 27.3044C15.6849 27.2773 15.5705 27.2781 15.4614 27.3067C15.3523 27.3354 15.2521 27.391 15.1697 27.4684C15.156 27.4828 15.1484 27.5019 15.1484 27.5217C15.1484 27.5416 15.156 27.5607 15.1697 27.575C15.176 27.583 15.1839 27.5896 15.1929 27.5944C15.2018 27.5992 15.2116 27.6021 15.2217 27.6029Z" fill="#263238"/>
<path d="M17.488 27.5291C17.5018 27.5321 17.5162 27.5308 17.5292 27.5254C17.5422 27.52 17.5534 27.5108 17.5611 27.4989C17.5688 27.487 17.5728 27.473 17.5726 27.4588C17.5723 27.4446 17.5678 27.4308 17.5596 27.4193C17.4994 27.3162 17.4167 27.2284 17.3178 27.1624C17.2188 27.0965 17.1063 27.0542 16.9886 27.0388C16.9791 27.0383 16.9696 27.0399 16.9607 27.0433C16.9518 27.0468 16.9437 27.0521 16.937 27.0589C16.9303 27.0657 16.925 27.0738 16.9216 27.0828C16.9181 27.0917 16.9166 27.1013 16.9171 27.1109C16.9178 27.1306 16.9257 27.1493 16.9392 27.1635C16.9526 27.1777 16.9708 27.1864 16.9903 27.188C17.0832 27.2012 17.1719 27.2355 17.2496 27.2883C17.3274 27.3412 17.3923 27.4112 17.4392 27.4931C17.4504 27.5109 17.4678 27.5237 17.488 27.5291Z" fill="#263238"/>
<path d="M14.2345 28.6132C14.2345 28.6132 14.6965 27.9112 14.5062 26.5418C14.4884 26.4319 14.5135 26.3192 14.5763 26.2275C14.6391 26.1358 14.7346 26.0721 14.8429 26.0498C15.4936 25.9236 16.3508 25.1036 17.4033 26.7321C17.4033 26.7321 16.9006 24.7805 13.9645 25.566C11.3504 26.2663 13.1398 28.5 13.4082 28.7296C13.6766 28.9592 14.2345 28.6132 14.2345 28.6132Z" fill="#263238"/>
<path d="M13.145 28.8968C13.3031 29.1761 13.5646 29.3808 13.8722 29.4659C14.2674 29.5659 14.4724 28.9247 14.3374 28.5245C14.2737 28.3447 14.1484 28.1937 13.9841 28.0987C13.8198 28.0037 13.6272 27.9709 13.4411 28.0063C13.0621 28.0834 12.9433 28.536 13.145 28.8968Z" fill="#EEC1BB"/>
<path d="M16.6323 29.5939C16.5298 29.7725 16.4401 29.9583 16.3639 30.1498L16.2582 30.1252C15.7832 30.0137 15.6075 29.7972 15.5392 29.6037C15.4997 29.4482 15.5146 29.2836 15.5815 29.1379C15.7995 29.3495 16.2322 29.4889 16.4697 29.5529C16.5689 29.5824 16.6323 29.5939 16.6323 29.5939Z" fill="#263238"/>
<path d="M16.4695 29.5528L16.3865 29.7168C15.9392 29.6102 15.6383 29.4741 15.5293 29.3035C15.5391 29.2467 15.5567 29.1915 15.5814 29.1395C15.7993 29.356 16.2353 29.4888 16.4695 29.5528Z" fill="white"/>
<path d="M16.2668 30.1252C15.7919 30.0136 15.6162 29.7972 15.5479 29.6036C15.7283 29.649 15.8991 29.7268 16.0521 29.8332C16.1525 29.9052 16.2277 30.0074 16.2668 30.1252Z" fill="#DC5753"/>
<path d="M16.6084 28.0801C16.7423 28.4019 16.9085 28.7091 17.1045 28.9968C17.1152 29.0113 17.1224 29.0281 17.1255 29.0458C17.1286 29.0636 17.1275 29.0819 17.1222 29.0991C17.117 29.1164 17.1078 29.1321 17.0954 29.1451C17.083 29.1581 17.0677 29.168 17.0509 29.174C16.92 29.2113 16.7815 29.2113 16.6507 29.174L16.6084 28.0801Z" fill="#D4827D"/>
<path d="M15.5928 27.8883L15.936 27.8063C15.936 27.8063 15.7489 28.0654 15.5928 27.8883Z" fill="#263238"/>
<path d="M17.1367 27.8801L17.4799 27.7981C17.4799 27.7981 17.2929 28.0589 17.1367 27.8801Z" fill="#263238"/>
<path d="M17.6643 27.3716C17.6643 27.3716 18.5703 26.2909 17.9668 25.4036C17.7391 25.0756 17.3161 25.0182 16.955 24.8559C16.1059 24.4787 15.4178 24.4016 14.3345 25.4725C13.2072 26.5861 13.0039 26.96 14.2466 28.3327C14.2466 28.3327 14.1132 28.1539 14.572 27.7456C15.0307 27.3372 15.548 26.9731 15.2926 26.5779C15.3993 26.6205 15.4932 26.6904 15.5651 26.7807C15.637 26.871 15.6843 26.9785 15.7025 27.0928L16.3743 26.9075C16.3445 26.7199 16.274 26.5413 16.1677 26.3844C16.3673 26.5054 16.5273 26.6827 16.6281 26.8944L17.2104 27.0043C17.2104 27.0043 17.1242 26.4664 16.9599 26.2745C16.9599 26.2728 17.4935 26.8239 17.6643 27.3716Z" fill="#263238"/>
<path opacity="0.2" d="M14.0335 28.8935C14.0239 28.8947 14.0142 28.8923 14.0062 28.8869C13.9981 28.8815 13.9922 28.8734 13.9896 28.864C13.9787 28.7312 13.921 28.6067 13.8269 28.513C13.7304 28.4207 13.6037 28.3671 13.4707 28.3622C13.46 28.3613 13.4501 28.3565 13.4429 28.3486C13.4356 28.3407 13.4316 28.3303 13.4316 28.3195C13.4316 28.3141 13.4327 28.3087 13.4349 28.3037C13.4371 28.2987 13.4402 28.2942 13.4442 28.2905C13.4482 28.2868 13.4529 28.2839 13.458 28.2822C13.4631 28.2804 13.4685 28.2797 13.4739 28.2802C13.6269 28.2856 13.7726 28.3474 13.8835 28.4537C13.9944 28.5601 14.0628 28.7037 14.0758 28.8574C14.0767 28.8681 14.0735 28.8786 14.0668 28.8869C14.0601 28.8952 14.0505 28.9005 14.04 28.9017L14.0335 28.8935Z" fill="black"/>
<path d="M19.3699 36.1211L19.8449 37.8234C20.0076 38.3925 20.1572 38.9599 20.3215 39.5192C20.4028 39.7996 20.4842 40.0751 20.5736 40.3392C20.6159 40.472 20.6582 40.6049 20.7021 40.7262L20.7672 40.8902L20.7949 40.9525C20.7996 40.9614 20.8034 40.9707 20.8063 40.9804C20.7916 40.9804 20.8355 41.0673 20.899 41.1346C20.9728 41.2126 21.0527 41.2845 21.1381 41.3494C21.3203 41.5019 21.5448 41.661 21.7497 41.8152L21.5773 42.6499C21.2714 42.6625 20.9655 42.6254 20.6712 42.5401C20.508 42.4931 20.3508 42.427 20.2028 42.3433C20.0046 42.2369 19.831 42.0893 19.6936 41.9103C19.6566 41.8581 19.6235 41.8033 19.5944 41.7463L19.5228 41.6135C19.4821 41.5331 19.4464 41.4495 19.4138 41.3773C19.3455 41.2231 19.2869 41.0788 19.2203 40.9312C19.1096 40.6426 19.0072 40.3539 18.9096 40.0669C18.716 39.4929 18.524 38.9189 18.363 38.3367C18.202 37.7545 18.0377 37.1887 17.875 36.6049L19.3699 36.1211Z" fill="#EEC1BB"/>
<path d="M18.2187 33.3249C19.0042 34.2045 19.5678 35.2621 19.8616 36.4081L17.0475 37.087C17.0475 37.087 16.2667 35.0174 16.592 34.2597C16.9173 33.4692 17.4232 32.7099 18.2187 33.3249Z" fill="#102C52"/>
<g opacity="0.3">
<path d="M18.3978 34.6713C18.5328 34.9076 18.6367 35.1606 18.7068 35.424C18.8021 35.8163 18.8626 36.2164 18.8874 36.6196L18.3457 36.7754C18.3815 36.0456 18.3815 35.4011 18.3978 34.6713Z" fill="black"/>
</g>
<path d="M11.325 36.8426L10.4336 33.784C10.9964 32.9361 13.7845 32.285 13.7845 32.285L15.2127 32.7902L15.6162 32.3851C15.6162 32.3851 16.3205 32.5491 16.9175 32.7426C17.7308 33.0066 18.1603 33.2198 18.3522 33.6708C18.3522 33.6708 18.6889 34.6712 18.4872 36.7311C18.4319 37.2985 18.4872 40.244 18.6499 41.2165L19.5999 44.2488C16.244 46.8843 11.5479 44.4243 11.5479 44.4243C11.6991 43.9586 12.1985 42.5301 12.2701 42.0758C12.2213 41.4953 12.2896 40.5998 12.0456 39.5863C12.0131 39.3895 11.4063 37.0328 11.325 36.8426Z" fill="#102C52"/>
<path opacity="0.3" d="M11.606 37.684C11.606 37.684 12.8927 36.044 12.6731 35.37L11.3506 36.6197L11.606 37.684Z" fill="black"/>
<path d="M10.8299 33.479C10.1256 33.7168 9.42285 35.9636 9.42285 35.9636L11.4936 37.3412C11.4936 37.3412 12.7071 35.5257 12.4875 34.5876C12.3004 33.7955 11.7246 33.1739 10.8299 33.479Z" fill="#102C52"/>
<path d="M11.3602 37.2527C11.3602 37.2527 10.0849 40.0161 10.1093 40.1243C10.189 40.5196 14.2735 40.2523 14.2735 40.2523L14.3711 41.3576C13.1504 41.7297 11.8878 41.944 10.6135 41.9956C8.6469 42.0349 7.7506 40.9952 8.22559 39.757C8.73474 38.445 9.66031 36.1211 9.66031 36.1211L11.3602 37.2527Z" fill="#EEC1BB"/>
<path opacity="0.3" d="M10.1092 40.1244C9.82751 40.0842 9.54062 40.142 9.2959 40.2884C9.2959 40.2884 9.33656 40.1063 9.67003 39.9817C9.83539 39.934 10.0075 39.9146 10.1792 39.9243L10.1092 40.1244Z" fill="black"/>
<path d="M13.9448 40.0521C13.9448 40.0521 15.2624 40.367 15.3877 40.6294C15.5129 40.8918 15.1014 40.8754 15.1014 40.8754C15.1014 40.8754 15.552 40.9197 15.5601 41.1148C15.5601 41.3494 15.1388 41.333 15.1388 41.333C15.1388 41.333 15.5048 41.3838 15.4999 41.5576C15.4951 41.7315 15.0119 41.7544 15.0119 41.7544C15.0119 41.7544 15.2641 41.8397 15.1925 41.9594C15.1209 42.0792 14.088 42.1234 13.7805 41.9414C13.4731 41.7594 13.4552 40.4129 13.5089 40.1194C13.5626 39.8258 13.5886 39.6684 13.9465 39.219V40.0521H13.9448Z" fill="#EEC1BB"/>
<path opacity="0.2" d="M15.1022 40.8983L14.3198 40.7835C14.3143 40.7823 14.3095 40.7792 14.3062 40.7747C14.3029 40.7701 14.3013 40.7645 14.3019 40.7589C14.302 40.7562 14.3028 40.7535 14.3041 40.7511C14.3054 40.7486 14.3071 40.7465 14.3093 40.7448C14.3114 40.7431 14.3139 40.7419 14.3165 40.7412C14.3192 40.7405 14.3219 40.7404 14.3246 40.7409L15.1071 40.854C15.1122 40.8556 15.1167 40.8589 15.1196 40.8634C15.1226 40.8679 15.1239 40.8733 15.1233 40.8786C15.1229 40.884 15.1205 40.889 15.1166 40.8927C15.1127 40.8963 15.1075 40.8983 15.1022 40.8983Z" fill="black"/>
<path opacity="0.2" d="M15.1161 41.3542L14.3548 41.305C14.345 41.305 14.3369 41.2935 14.3369 41.2821C14.3369 41.2764 14.3391 41.271 14.3431 41.267C14.3471 41.263 14.3525 41.2607 14.3581 41.2607L15.1177 41.3099C15.123 41.3108 15.1278 41.3136 15.1312 41.3179C15.1345 41.3221 15.1361 41.3275 15.1356 41.3329C15.1358 41.3356 15.1355 41.3384 15.1346 41.3409C15.1337 41.3435 15.1323 41.3459 15.1305 41.3479C15.1287 41.3499 15.1264 41.3515 15.124 41.3526C15.1215 41.3537 15.1188 41.3542 15.1161 41.3542Z" fill="black"/>
<path opacity="0.2" d="M14.9831 41.7758L14.417 41.7561C14.4143 41.7559 14.4116 41.7551 14.4091 41.7538C14.4066 41.7526 14.4044 41.7508 14.4026 41.7487C14.4007 41.7466 14.3994 41.7441 14.3985 41.7414C14.3976 41.7387 14.3973 41.7359 14.3975 41.7331C14.3979 41.7276 14.4003 41.7224 14.4041 41.7185C14.408 41.7145 14.4132 41.7122 14.4187 41.7118L14.9848 41.7315C14.9899 41.7326 14.9945 41.7355 14.9978 41.7397C15.0011 41.7439 15.0028 41.7491 15.0026 41.7544C15.0029 41.7572 15.0025 41.7599 15.0017 41.7625C15.0008 41.765 14.9994 41.7674 14.9975 41.7694C14.9957 41.7714 14.9935 41.773 14.991 41.7741C14.9885 41.7752 14.9858 41.7758 14.9831 41.7758Z" fill="black"/>
<path d="M21.5176 40.1391C21.5688 39.5214 21.8288 38.9402 22.2539 38.4925C22.679 38.0447 23.2437 37.7576 23.8535 37.6791L23.5965 38.112L24.0845 37.8185L21.8348 40.6721L21.5176 40.1391Z" fill="#EE8F31"/>
<path opacity="0.8" d="M21.5176 40.1391C21.5688 39.5214 21.8288 38.9402 22.2539 38.4925C22.679 38.0447 23.2437 37.7576 23.8535 37.6791L23.5965 38.112L24.0845 37.8185L21.8348 40.6721L21.5176 40.1391Z" fill="white"/>
<path d="M17.9879 37.8021L18.7622 37.7775L22.4694 39.0452L19.0908 44.2489L15.7659 43.4125C15.7206 43.4 15.6783 43.3786 15.6413 43.3495C15.6043 43.3205 15.5733 43.2844 15.5502 43.2432C15.5271 43.2021 15.5122 43.1567 15.5065 43.1098C15.5008 43.0629 15.5044 43.0153 15.517 42.9697C15.525 42.9416 15.5365 42.9146 15.5512 42.8893L16.8932 40.4408C16.9074 40.4159 16.9149 40.3876 16.9149 40.3588C16.9149 40.33 16.9074 40.3018 16.8932 40.2768L16.711 39.9488C16.6926 39.9158 16.6829 39.8785 16.6829 39.8406C16.6829 39.8027 16.6926 39.7654 16.711 39.7323L17.6121 38.0481C17.6486 37.978 17.7023 37.9186 17.7681 37.8755C17.8339 37.8324 17.9096 37.8071 17.9879 37.8021Z" fill="#EE8F31"/>
<path d="M22.4694 39.0452L24.5808 37.6791L21.1095 42.8779L19.0908 44.2489L22.4694 39.0452Z" fill="#EE8F31"/>
<path opacity="0.2" d="M22.4694 39.0452L24.5808 37.6791L21.1095 42.8779L19.0908 44.2489L22.4694 39.0452Z" fill="black"/>
<path d="M22.0546 41.4642C22.0546 41.4642 21.2413 41.2461 21.0542 41.3888C20.8672 41.5315 21.1209 41.6659 21.1209 41.6659C21.1209 41.6659 20.8379 41.5364 20.7549 41.6741C20.6524 41.8381 20.9176 41.9775 20.9176 41.9775C20.9176 41.9775 20.6817 41.8841 20.6134 42.0103C20.5451 42.1366 20.8216 42.3236 20.8216 42.3236C20.8216 42.3236 20.6394 42.2957 20.6329 42.4056C20.6264 42.5155 21.2088 42.9189 21.4674 42.8976C21.726 42.8763 22.2807 41.9251 22.3718 41.6971C22.4629 41.4691 22.4499 41.2904 22.284 41.1329L22.0595 41.4708L22.0546 41.4642Z" fill="#EEC1BB"/>
<path opacity="0.2" d="M21.1121 41.6807L21.6164 41.8758C21.6209 41.8765 21.6254 41.8755 21.6293 41.8731C21.6331 41.8707 21.636 41.867 21.6375 41.8627C21.64 41.8598 21.6414 41.856 21.6414 41.8521C21.6414 41.8482 21.64 41.8444 21.6375 41.8414L21.1332 41.6479C21.1312 41.6471 21.1291 41.6468 21.1269 41.647C21.1248 41.6472 21.1227 41.6479 21.1208 41.649C21.1189 41.6501 21.1173 41.6516 21.1161 41.6534C21.1149 41.6552 21.1141 41.6572 21.1137 41.6594C21.1119 41.6604 21.1105 41.6619 21.1094 41.6637C21.1083 41.6655 21.1076 41.6675 21.1075 41.6696C21.1073 41.6717 21.1076 41.6738 21.1084 41.6757C21.1093 41.6776 21.1105 41.6793 21.1121 41.6807Z" fill="black"/>
<path opacity="0.2" d="M20.9166 42.0004L21.3835 42.2333C21.3835 42.2333 21.3981 42.2333 21.403 42.2234C21.4044 42.2221 21.4056 42.2204 21.4063 42.2186C21.4071 42.2167 21.4075 42.2148 21.4075 42.2128C21.4075 42.2108 21.4071 42.2088 21.4063 42.207C21.4056 42.2051 21.4044 42.2035 21.403 42.2021L20.9361 41.9692C20.9361 41.9692 20.9215 41.9692 20.9166 41.9791C20.9152 41.9805 20.9141 41.9821 20.9133 41.9839C20.9125 41.9858 20.9121 41.9877 20.9121 41.9897C20.9121 41.9917 20.9125 41.9937 20.9133 41.9955C20.9141 41.9974 20.9152 41.999 20.9166 42.0004Z" fill="black"/>
<path opacity="0.2" d="M20.8208 42.3481L21.1608 42.5334C21.1649 42.5346 21.1693 42.5342 21.1732 42.5324C21.1771 42.5306 21.1802 42.5275 21.1819 42.5236C21.1834 42.5222 21.1845 42.5205 21.1853 42.5187C21.1861 42.5169 21.1865 42.5149 21.1865 42.5129C21.1865 42.5109 21.1861 42.5089 21.1853 42.5071C21.1845 42.5053 21.1834 42.5036 21.1819 42.5023L20.8403 42.312C20.8403 42.312 20.8241 42.312 20.8192 42.3202C20.8143 42.3284 20.8208 42.3448 20.8208 42.3481Z" fill="black"/>
<path d="M13.7241 37.0903H15.668V36.1227H13.7241V37.0903Z" fill="#EE8F31"/>
<path d="M14.9893 36.6065C14.9893 36.651 15.0023 36.6944 15.0268 36.7313C15.0513 36.7683 15.0861 36.7971 15.1268 36.8141C15.1676 36.8311 15.2124 36.8356 15.2556 36.8269C15.2988 36.8182 15.3385 36.7968 15.3697 36.7654C15.4009 36.734 15.4221 36.6939 15.4307 36.6504C15.4393 36.6068 15.4349 36.5616 15.418 36.5205C15.4011 36.4795 15.3726 36.4444 15.3359 36.4197C15.2993 36.395 15.2562 36.3818 15.2121 36.3818C15.1828 36.3816 15.1537 36.3873 15.1266 36.3985C15.0994 36.4097 15.0748 36.4263 15.0541 36.4472C15.0333 36.4681 15.0169 36.4929 15.0058 36.5203C14.9947 36.5476 14.989 36.577 14.9893 36.6065Z" fill="white"/>
<path d="M13.9874 36.6869H14.7568V36.5229H13.9874V36.6869Z" fill="white"/>
<path d="M16.1457 32.5147L15.5276 31.9095L15.212 32.7886L13.8359 31.6832L13.1396 32.454L15.0233 34.1104L16.5101 34.6713L16.7801 33.4954L16.1457 32.5147Z" fill="#102C52"/>
<path opacity="0.3" d="M16.1464 32.5146C16.1903 32.5819 16.1464 33.6036 16.1464 33.6036L15.2127 32.8984L14.8679 33.6676L13.207 32.5196L14.9069 34.012L15.2127 33.105L16.2538 34.012L16.1464 32.5146Z" fill="black"/>
<path d="M13.7013 29.7152C13.8594 29.7152 13.9876 29.586 13.9876 29.4266C13.9876 29.2672 13.8594 29.1379 13.7013 29.1379C13.5432 29.1379 13.415 29.2672 13.415 29.4266C13.415 29.586 13.5432 29.7152 13.7013 29.7152Z" fill="#EE8F31"/>
</svg>
