<svg width="21" height="21" viewBox="0 0 21 21" fill="none" xmlns="http://www.w3.org/2000/svg">
<path d="M4.375 10.5C4.375 7.11726 7.11726 4.375 10.5 4.375M14.4374 6.5625L10.4999 10.5M19.25 10.5C19.25 15.3325 15.3325 19.25 10.5 19.25C5.66751 19.25 1.75 15.3325 1.75 10.5C1.75 5.66751 5.66751 1.75 10.5 1.75C15.3325 1.75 19.25 5.66751 19.25 10.5ZM11.375 10.5C11.375 10.9832 10.9832 11.375 10.5 11.375C10.0168 11.375 9.625 10.9832 9.625 10.5C9.625 10.0168 10.0168 9.625 10.5 9.625C10.9832 9.625 11.375 10.0168 11.375 10.5Z" stroke="#FA751A" stroke-linecap="round" stroke-linejoin="round"/>
</svg>
