<svg width="41" height="35" viewBox="0 0 41 35" fill="none" xmlns="http://www.w3.org/2000/svg">
<path d="M15.8723 25.4212C15.8723 23.8896 16.633 22.5367 17.797 21.6961C17.797 18.8276 17.797 3.70104 17.797 2.72584C17.797 1.21953 19.0373 0 20.5682 0C22.0986 0 23.3385 1.21953 23.3385 2.72584C23.3385 2.87544 23.3385 3.35211 23.3385 4.06197C23.3507 4.06154 23.3615 4.05854 23.3746 4.05854H26.5892C26.8724 4.05854 27.1033 4.27544 27.1033 4.54293V5.93478C27.1033 6.20184 26.8729 6.41831 26.5892 6.41831H23.3746C23.3615 6.41831 23.3507 6.41617 23.3385 6.41531C23.3385 7.41966 23.3385 8.56246 23.3385 9.76485C23.3507 9.76442 23.3615 9.76142 23.3746 9.76142H26.5892C26.8724 9.76142 27.1033 9.97832 27.1033 10.2462V11.6372C27.1033 11.9047 26.8729 12.1216 26.5892 12.1216H23.3746C23.3615 12.1216 23.3507 12.1186 23.3385 12.1182C23.3385 13.249 23.3385 14.3845 23.3385 15.4686C23.3507 15.4673 23.3615 15.4656 23.3746 15.4656H26.5892C26.8724 15.4656 27.1033 15.6821 27.1033 15.9491V17.341C27.1033 17.608 26.8729 17.8241 26.5892 17.8241H23.3746C23.3615 17.8241 23.3507 17.8224 23.3385 17.8206C23.3385 19.5408 23.3385 20.9443 23.3385 21.6961C24.5038 22.5372 25.264 23.8896 25.264 25.4212C25.264 27.9721 23.1607 30.04 20.5686 30.04C17.9752 30.04 15.8723 27.9721 15.8723 25.4212ZM26.0382 22.8955C26.3732 23.6311 26.5614 24.4443 26.5614 25.302C26.5614 25.368 26.5592 25.4345 26.5566 25.5013C27.3647 25.3183 28.3475 25.4919 29.4911 26.5361C31.902 28.7394 34.9145 28.7677 37.7553 26.6159C39.5706 25.239 40.5243 25.2823 40.533 25.2823C40.4698 25.2784 40.4389 25.2673 40.4389 25.2673L41 22.6623C40.5469 22.5685 38.8549 22.4223 36.1038 24.506C34.291 25.8794 32.7754 25.9047 31.3313 24.5853C29.681 23.0764 27.8426 22.5127 26.0382 22.8955ZM0.46832 25.2819C0.476597 25.2819 1.43023 25.2386 3.24513 26.6154C6.08555 28.7677 9.09804 28.739 11.5098 26.5357C12.7444 25.4079 13.7926 25.2969 14.6364 25.5515C14.6329 25.4683 14.6299 25.3856 14.6299 25.3016C14.6299 24.458 14.8115 23.6564 15.1374 22.9324C13.2781 22.4733 11.3734 23.0263 9.66917 24.5844C8.22544 25.9039 6.70896 25.879 4.8958 24.5051C2.14512 22.4219 0.453944 22.5676 0.00087123 22.6615L0.561984 25.2664C0.561984 25.2664 0.530617 25.2784 0.46832 25.2819ZM36.1038 31.2835C34.291 32.6561 32.7754 32.6814 31.3313 31.362C28.8681 29.1102 25.9872 28.9516 23.426 30.9269C22.3073 31.7906 21.4565 32.3273 20.6801 32.3376C20.6178 32.3397 20.5586 32.3453 20.5002 32.3539C20.441 32.3449 20.3813 32.3397 20.3199 32.3376C19.544 32.3273 18.6932 31.7906 17.5731 30.9269C15.0132 28.9516 12.1323 29.1102 9.6683 31.362C8.22457 32.6814 6.70809 32.6565 4.89492 31.2835C2.14425 29.1994 0.453072 29.3456 0 29.4403L0.561113 32.044C0.561113 32.044 0.530182 32.0551 0.467884 32.059C0.476162 32.059 1.42979 32.0178 3.2447 33.3925C6.08511 35.5448 9.09761 35.517 11.5093 33.3128C13.4671 31.524 14.9553 32.29 15.9046 33.0217C17.1858 34.0102 18.5799 34.9773 20.2837 35C20.2902 35 20.2959 35 20.3024 35C20.3695 35 20.4344 34.9906 20.4998 34.9799C20.5647 34.9901 20.6296 35 20.6967 35C20.7037 35 20.7093 35 20.7159 35C22.4192 34.9769 23.8137 34.0098 25.095 33.0217C26.0443 32.29 27.532 31.524 29.4902 33.3128C31.9011 35.5161 34.9136 35.5444 37.7544 33.3925C39.5698 32.0157 40.5234 32.059 40.5321 32.059C40.4689 32.0551 40.438 32.044 40.438 32.044L40.9991 29.4403C40.5474 29.3456 38.8553 29.1994 36.1038 31.2835Z" fill="#FA751A"/>
</svg>
