<svg width="47" height="47" viewBox="0 0 47 47" fill="none" xmlns="http://www.w3.org/2000/svg">
<circle cx="23.7588" cy="23.333" r="22.5" fill="#DFDFDF" stroke="#F4F4F4"/>
<path d="M14.9674 20.1416H28.742C30.4005 20.1416 31.745 21.4861 31.745 23.1445V23.1445C31.745 24.803 30.4005 26.1474 28.742 26.1474H16.7814C15.1277 26.1474 13.7871 27.488 13.7871 29.1417V29.1417C13.7871 30.7954 15.1277 32.136 16.7814 32.136H33.9913" stroke="#989EA5" stroke-linecap="round" stroke-dasharray="2 2"/>
<path d="M9.08301 16.1345C9.08301 18.1561 10.8515 19.8279 11.6343 20.4688C11.7464 20.5606 11.8031 20.607 11.8866 20.6305C11.9517 20.6488 12.0475 20.6488 12.1126 20.6305C12.1963 20.6069 12.2526 20.561 12.3651 20.4689C13.1479 19.828 14.9163 18.1563 14.9163 16.1347C14.9163 15.3697 14.609 14.6359 14.0621 14.0949C13.5151 13.5539 12.7733 13.25 11.9997 13.25C11.2262 13.25 10.4843 13.554 9.93728 14.0949C9.3903 14.6359 9.08301 15.3695 9.08301 16.1345Z" stroke="#2C2E2F" stroke-linecap="round" stroke-linejoin="round"/>
<path d="M11.1663 15.75C11.1663 16.2102 11.5394 16.5833 11.9997 16.5833C12.4599 16.5833 12.833 16.2102 12.833 15.75C12.833 15.2898 12.4599 14.9167 11.9997 14.9167C11.5394 14.9167 11.1663 15.2898 11.1663 15.75Z" stroke="#2C2E2F" stroke-linecap="round" stroke-linejoin="round"/>
<path d="M34.083 27.1345C34.083 29.1561 35.8515 30.8279 36.6343 31.4688C36.7464 31.5606 36.8031 31.607 36.8866 31.6305C36.9517 31.6488 37.0475 31.6488 37.1126 31.6305C37.1963 31.6069 37.2526 31.561 37.3651 31.4689C38.1479 30.828 39.9163 29.1563 39.9163 27.1347C39.9163 26.3697 39.609 25.6359 39.0621 25.0949C38.5151 24.5539 37.7733 24.25 36.9997 24.25C36.2262 24.25 35.4843 24.554 34.9373 25.0949C34.3903 25.6359 34.083 26.3695 34.083 27.1345Z" stroke="#2C2E2F" stroke-width="0.8" stroke-linecap="round" stroke-linejoin="round"/>
<path d="M36.1663 26.75C36.1663 27.2102 36.5394 27.5833 36.9997 27.5833C37.4599 27.5833 37.833 27.2102 37.833 26.75C37.833 26.2898 37.4599 25.9167 36.9997 25.9167C36.5394 25.9167 36.1663 26.2898 36.1663 26.75Z" stroke="#2C2E2F" stroke-width="0.8" stroke-linecap="round" stroke-linejoin="round"/>
</svg>
