<svg width="32" height="32" viewBox="0 0 32 32" fill="none" xmlns="http://www.w3.org/2000/svg">
<path d="M8.11133 9.05566V25.0557C8.11133 26.1602 9.00676 27.0557 10.1113 27.0557H17H21.6669C22.7715 27.0557 23.6669 26.1602 23.6669 25.0557V13.484C23.6669 12.9832 23.479 12.5006 23.1404 12.1316L19.0761 7.70331C18.6973 7.2906 18.1628 7.05566 17.6026 7.05566H10.1113C9.00676 7.05566 8.11133 7.9511 8.11133 9.05566Z" stroke="black" stroke-width="2" stroke-linecap="round"/>
<rect x="9" y="3" width="6" height="2" rx="1" fill="black"/>
<path d="M22 9.83344L24 8H25" stroke="black" stroke-width="2" stroke-linecap="round"/>
<path d="M14 22H16" stroke="black" stroke-width="2" stroke-linecap="round"/>
<path d="M14 18H17" stroke="black" stroke-width="2" stroke-linecap="round"/>
<path d="M14 14H18" stroke="black" stroke-width="2" stroke-linecap="round"/>
</svg>
