<svg width="20" height="20" viewBox="0 0 20 20" fill="none" xmlns="http://www.w3.org/2000/svg">
<path d="M19.5432 7.44548C19.0282 5.76324 18.0587 4.26791 16.8166 3.08411L17.7558 1.90031L11 0L14.1507 6.41745L15.0595 5.26479C15.9381 6.10592 16.5743 7.13396 16.9378 8.31776C17.5134 10.1558 17.3316 12.0872 16.4834 13.7695C15.6351 15.4829 14.181 16.729 12.4239 17.3209L13.2418 20C15.6957 19.19 17.7255 17.4455 18.907 15.0779C20.0885 12.6791 20.3309 9.96884 19.5432 7.44548Z" fill="black"/>
<path d="M5.21322 14.8297C4.30437 14.0509 3.60758 13.054 3.18345 11.9014C1.82018 8.19422 3.60758 4.05092 7.21269 2.64905L6.24325 0.0322266C1.24458 1.99484 -1.26991 7.75808 0.638676 12.8983C1.24458 14.5494 2.2746 15.9824 3.60758 17.1039L2.72903 18.35L9.5757 19.8453L6.06148 13.6148L5.21322 14.8297Z" fill="black"/>
</svg>
