<svg width="23" height="22" viewBox="0 0 23 22" fill="none" xmlns="http://www.w3.org/2000/svg">
<path fill-rule="evenodd" clip-rule="evenodd" d="M11.0004 3.10039C6.63734 3.10039 3.10039 6.63734 3.10039 11.0004C3.10039 15.3634 6.63734 18.9004 11.0004 18.9004V21.1004C5.42231 21.1004 0.900391 16.5785 0.900391 11.0004C0.900391 5.42231 5.42231 0.900391 11.0004 0.900391C16.303 0.900391 20.6512 4.98672 21.0677 10.1821H22.489C22.6429 10.1821 22.7391 10.3488 22.6622 10.4821L20.1743 14.7912C20.0973 14.9245 19.9049 14.9245 19.8279 14.7912L17.34 10.4821C17.2631 10.3488 17.3593 10.1821 17.5132 10.1821H18.8585C18.4491 6.20356 15.0871 3.10039 11.0004 3.10039ZM11.3363 16.0004V15.105C10.8246 15.0769 10.3702 14.9808 9.97305 14.8168C9.49648 14.6189 9.12409 14.3259 8.85586 13.9379C8.59023 13.5473 8.45091 13.0642 8.43789 12.4887H10.0746C10.0928 12.7569 10.1697 12.9809 10.3051 13.1605C10.4431 13.3376 10.6267 13.4717 10.8559 13.5629C11.0038 13.6194 11.164 13.6579 11.3363 13.6783V11.6201L10.8285 11.4926C10.154 11.3285 9.62148 11.072 9.23086 10.723C8.84023 10.3741 8.64622 9.90404 8.64883 9.31289C8.64622 8.82852 8.77513 8.40534 9.03555 8.04336C9.29857 7.68138 9.65925 7.39883 10.1176 7.1957C10.4839 7.03335 10.8902 6.93588 11.3363 6.90329V6.00039H11.977V6.89986C12.4482 6.92857 12.8675 7.02718 13.2348 7.1957C13.6801 7.39883 14.0264 7.68138 14.2738 8.04336C14.5212 8.40534 14.6488 8.82461 14.6566 9.30117H13.0355C13.0043 8.98607 12.8702 8.74128 12.6332 8.5668C12.4598 8.43911 12.241 8.35815 11.977 8.3239V10.2703L12.3676 10.3637C12.7165 10.4418 13.0368 10.546 13.3285 10.6762C13.6202 10.8064 13.8728 10.9665 14.0863 11.1566C14.2999 11.3467 14.4652 11.5707 14.5824 11.8285C14.7022 12.0863 14.7634 12.3819 14.766 12.7152C14.7634 13.2048 14.6384 13.6293 14.391 13.9887C14.1462 14.3454 13.7921 14.6228 13.3285 14.8207C12.9441 14.9836 12.4936 15.0786 11.977 15.1056V16.0004H11.3363ZM12.3871 13.5707C12.2634 13.6196 12.1267 13.6541 11.977 13.6743V11.7845C12.1508 11.8348 12.3044 11.8885 12.4379 11.9457C12.641 12.0316 12.7947 12.1358 12.8988 12.2582C13.0056 12.3806 13.059 12.5316 13.059 12.7113C13.059 12.904 13.0004 13.0746 12.8832 13.223C12.766 13.3715 12.6007 13.4874 12.3871 13.5707ZM11.3363 8.32671V10.1101C11.2749 10.0916 11.215 10.072 11.1566 10.0512C11.003 9.99388 10.8676 9.92747 10.7504 9.85195C10.6332 9.77383 10.5408 9.68138 10.473 9.57461C10.4079 9.46784 10.378 9.34284 10.3832 9.19961C10.3832 9.02773 10.4327 8.87409 10.5316 8.73867C10.6332 8.60326 10.779 8.49779 10.9691 8.42227C11.0776 8.37771 11.2 8.34586 11.3363 8.32671Z" fill="black"/>
</svg>
