<svg width="26" height="24" viewBox="0 0 26 24" fill="none" xmlns="http://www.w3.org/2000/svg">
<path d="M10.0645 0H2.51613C1.12639 0 0 1.12639 0 2.51613V21.3871C0 22.7769 1.12639 23.9033 2.51613 23.9033H10.0645C11.4543 23.9033 12.5807 22.7769 12.5807 21.3871V2.51613C12.5807 1.12639 11.4543 0 10.0645 0ZM9.8125 18.9926L6.66733 20.3647C6.54698 20.4172 6.4195 20.4436 6.29033 20.4436C6.16117 20.4436 6.03369 20.4172 5.91333 20.3647L2.76817 18.9926C2.2901 18.7842 2.07162 18.2277 2.28046 17.7505C2.48929 17.2724 3.0483 17.0577 3.52259 17.2628L6.29033 18.4705L9.0585 17.2628C9.53531 17.0577 10.0918 17.2724 10.3006 17.7505C10.5095 18.2277 10.2906 18.7842 9.8125 18.9926ZM9.8125 12.1303L6.66733 13.5024C6.54698 13.5548 6.41908 13.5813 6.29033 13.5813C6.16159 13.5813 6.03369 13.5548 5.91333 13.5024L2.76817 12.1303C2.2901 11.9219 2.07162 11.3654 2.28046 10.8882C2.48929 10.4101 3.0483 10.1945 3.52259 10.4004L6.29033 11.6082L9.0585 10.4004C9.53531 10.1945 10.0918 10.4101 10.3006 10.8882C10.5095 11.3658 10.2906 11.9223 9.8125 12.1303ZM9.8125 5.26795L6.66733 6.64008C6.54698 6.6925 6.41908 6.71892 6.29033 6.71892C6.16159 6.71892 6.03369 6.6925 5.91333 6.64008L2.76817 5.26795C2.2901 5.05953 2.07162 4.50304 2.28046 4.02581C2.48929 3.54733 3.0483 3.33178 3.52259 3.5381L6.29033 4.74585L9.0585 3.5381C9.53531 3.33178 10.0918 3.54733 10.3006 4.02581C10.5095 4.50346 10.2906 5.05995 9.8125 5.26795Z" fill="#2D3748"/>
<path d="M23.5615 15.2981H21.325C20.6524 15.2981 20.105 14.7562 20.105 14.0904V11.2723H20.3083C20.7576 11.2723 21.1216 10.9118 21.1216 10.4671V9.38015C23.0139 8.71481 24.3748 6.92977 24.3748 4.83098C24.3748 2.16696 22.186 0 19.495 0C16.8041 0 14.6153 2.16696 14.6153 4.83098C14.6153 6.92977 15.9762 8.71481 17.8685 9.38015V10.4671C17.8685 10.9118 18.2325 11.2723 18.6817 11.2723H18.8851V14.0904C18.8851 15.4224 19.9795 16.5058 21.325 16.5058H23.5615C24.2341 16.5058 24.7815 17.0477 24.7815 17.7136C24.7815 18.3795 24.2341 18.9213 23.5615 18.9213H12.582V20.1291H23.5615C24.907 20.1291 26.0014 19.0456 26.0014 17.7136C26.0014 16.3816 24.907 15.2981 23.5615 15.2981ZM15.8352 4.83098C15.8352 2.8331 17.477 1.20774 19.495 1.20774C21.5131 1.20774 23.1549 2.8331 23.1549 4.83098C23.1549 6.82885 21.5131 8.45421 19.495 8.45421C17.477 8.45421 15.8352 6.82885 15.8352 4.83098Z" fill="#2D3748"/>
<path d="M18.9933 5.99952L20.6052 3.5368C20.8378 3.15819 21.5101 3.42451 21.3676 3.83244L20.5077 6.58681C20.1295 7.6511 18.4018 6.98256 18.9933 5.99952Z" fill="#2D3748"/>
</svg>
