<svg width="52" height="24" viewBox="0 0 52 24" fill="none" xmlns="http://www.w3.org/2000/svg">
<path d="M9.00049 3.83307L8.50049 3.83307L8.50049 3.33307L9.00049 3.33307L9.00049 3.83307ZM51.7715 3.47952C51.9668 3.67478 51.9668 3.99136 51.7715 4.18662L48.5895 7.3686C48.3943 7.56386 48.0777 7.56386 47.8824 7.3686C47.6872 7.17334 47.6872 6.85676 47.8824 6.6615L50.7109 3.83307L47.8824 1.00464C47.6872 0.80938 47.6872 0.492797 47.8824 0.297535C48.0777 0.102273 48.3943 0.102273 48.5895 0.297535L51.7715 3.47952ZM8.50049 13.1211L8.50049 11.9601L9.50049 11.9601L9.50049 13.1211L8.50049 13.1211ZM8.50049 9.63809L8.50049 7.31608L9.50049 7.31608L9.50049 9.63809L8.50049 9.63809ZM8.50049 4.99407L8.50049 3.83307L9.50049 3.83307L9.50049 4.99407L8.50049 4.99407ZM9.00049 3.33307L10.0609 3.33307L10.0609 4.33307L9.00049 4.33307L9.00049 3.33307ZM12.1818 3.33307L14.3027 3.33307L14.3027 4.33307L12.1818 4.33307L12.1818 3.33307ZM16.4235 3.33307L18.5444 3.33307L18.5444 4.33307L16.4235 4.33307L16.4235 3.33307ZM20.6653 3.33307L22.7862 3.33307L22.7862 4.33307L20.6653 4.33307L20.6653 3.33307ZM24.907 3.33307L27.0279 3.33307L27.0279 4.33307L24.907 4.33307L24.907 3.33307ZM29.1488 3.33307L30.2092 3.33307L30.2092 4.33307L29.1488 4.33307L29.1488 3.33307ZM30.2092 3.33307L31.2697 3.33307L31.2697 4.33307L30.2092 4.33307L30.2092 3.33307ZM33.3905 3.33307L35.5114 3.33307L35.5114 4.33307L33.3905 4.33307L33.3905 3.33307ZM37.6323 3.33307L39.7532 3.33307L39.7532 4.33307L37.6323 4.33307L37.6323 3.33307ZM41.874 3.33307L43.9949 3.33307L43.9949 4.33307L41.874 4.33307L41.874 3.33307ZM46.1158 3.33307L48.2367 3.33307L48.2367 4.33307L46.1158 4.33307L46.1158 3.33307ZM50.3575 3.33307L51.418 3.33307L51.418 4.33307L50.3575 4.33307L50.3575 3.33307Z" fill="#8E9F9E"/>
<path d="M18.8008 23.9756L18.8008 18.6179C18.8008 17.5134 17.9054 16.6179 16.8008 16.6179L2.40669 16.6179C1.30212 16.6179 0.406687 17.5134 0.406687 18.6179L0.406687 23.9756L18.8008 23.9756Z" fill="#FF7676"/>
</svg>
