<svg width="30" height="30" viewBox="0 0 30 30" fill="none" xmlns="http://www.w3.org/2000/svg">
<path d="M15 0C6.72632 0 0 6.72632 0 15C0 23.2737 6.72632 30 15 30C23.2737 30 30 23.2737 30 15C30 6.72632 23.2737 0 15 0ZM10.1368 20.3368L8.87368 23.0842C8.65263 23.5579 8.05263 23.6842 7.67368 23.3368C5.8421 21.7263 4.54737 19.5474 4.07368 17.0526C3.97895 16.5789 4.35789 16.1368 4.83158 16.1368H7.83158C8.17895 16.1368 8.49474 16.3579 8.58947 16.7053C8.8421 17.7474 9.34737 18.6947 10.0421 19.4842C10.2 19.7368 10.2632 20.0526 10.1368 20.3368ZM18.0316 25.7053C17.0526 25.9895 16.0421 26.1474 15 26.1474C14.2105 26.1474 13.4211 26.0526 12.6632 25.8947C12.1895 25.8 11.9053 25.2632 12.1263 24.8211L13.3263 22.1684C13.4526 21.8526 13.7684 21.6947 14.1158 21.7263C14.4 21.7579 14.6842 21.7895 15 21.7895C15.5053 21.7895 16.0105 21.7263 16.4842 21.6316C16.8316 21.5368 17.1789 21.7263 17.3368 22.0737L18.5368 24.6632C18.7263 25.0737 18.4737 25.5789 18.0316 25.7053ZM12.3158 16.0105C12.3158 14.8737 13.5158 13.9579 15 13.9579C16.4842 13.9579 17.6842 14.8737 17.6842 16.0105C17.6842 17.1474 16.4842 18.0632 15 18.0632C13.5158 18.0316 12.3158 17.1158 12.3158 16.0105ZM15 10.4842C13.4526 10.4842 12.0316 10.6737 10.8947 11.1474C9.31579 11.8105 7.70526 12.3158 6 12.4737C5.74737 12.5053 5.49474 12.5053 5.24211 12.5368C4.70526 12.6 4.26316 12.0632 4.42105 11.5263C5.90526 7.10526 10.0737 3.88421 15 3.88421C19.9263 3.88421 24.0947 7.10526 25.5789 11.5263C25.7368 12.0632 25.3263 12.5684 24.7579 12.5368C24.5053 12.5053 24.2526 12.5053 24 12.4737C22.2947 12.3158 20.6842 11.8105 19.1053 11.1474C17.9684 10.6421 16.5474 10.4842 15 10.4842ZM22.8947 22.8632C22.5158 23.2421 21.8526 23.1158 21.6316 22.6421L20.3368 19.8C20.2105 19.5474 20.2737 19.2316 20.4316 19.0105C20.9053 18.3474 21.2526 17.5895 21.4737 16.7368C21.5684 16.3895 21.8526 16.1684 22.2316 16.1684H25.2316C25.7053 16.1684 26.0842 16.6105 25.9895 17.0842C25.5158 19.2947 24.4105 21.2842 22.8947 22.8632Z" fill="#102C53"/>
</svg>
