<svg width="26" height="26" viewBox="0 0 26 26" fill="none" xmlns="http://www.w3.org/2000/svg">
<path d="M8.01699 23.8333L6.50033 22.3167L13.9753 14.8146L17.767 18.6062L23.3732 13L24.917 14.5437L17.767 21.6667L13.9753 17.875L8.01699 23.8333ZM4.33366 22.75C3.73783 22.75 3.22776 22.5378 2.80345 22.1135C2.37914 21.6892 2.16699 21.1792 2.16699 20.5833V5.41667C2.16699 4.82083 2.37914 4.31076 2.80345 3.88646C3.22776 3.46215 3.73783 3.25 4.33366 3.25H19.5003C20.0962 3.25 20.6062 3.46215 21.0305 3.88646C21.4548 4.31076 21.667 4.82083 21.667 5.41667V9.96667H4.33366V22.75ZM4.33366 7.8H19.5003V5.41667H4.33366V7.8Z" fill="black"/>
</svg>
