<svg width="25" height="24" viewBox="0 0 25 24" fill="none" xmlns="http://www.w3.org/2000/svg">
<path d="M16.3448 5.79311H8.48275L9.61655 1.24967C9.70573 0.891755 9.9124 0.574104 10.2035 0.347544C10.4945 0.120985 10.8532 -0.00138642 11.2221 1.18511e-05H13.6055C13.9744 -0.00138642 14.333 0.120985 14.6241 0.347544C14.9152 0.574104 15.1218 0.891755 15.211 1.24967L16.3448 5.79311ZM16.7586 7.44828H8.06896L6 15.7241H18.8276L16.7586 7.44828ZM24 22.3448H20.4827L19.2414 17.3793H5.5862L4.34483 22.3448H0.827586C0.608096 22.3448 0.397597 22.432 0.242394 22.5872C0.0871918 22.7424 0 22.9529 0 23.1724C0 23.3919 0.0871918 23.6024 0.242394 23.7576C0.397597 23.9128 0.608096 24 0.827586 24H24C24.2195 24 24.43 23.9128 24.5852 23.7576C24.7404 23.6024 24.8276 23.3919 24.8276 23.1724C24.8276 22.9529 24.7404 22.7424 24.5852 22.5872C24.43 22.432 24.2195 22.3448 24 22.3448Z" fill="#102C53"/>
</svg>
