<svg width="46" height="47" viewBox="0 0 46 47" fill="none" xmlns="http://www.w3.org/2000/svg">
<circle cx="22.9902" cy="23.4238" r="22.5" fill="#DFDFDF" stroke="#F4F4F4"/>
<path fill-rule="evenodd" clip-rule="evenodd" d="M14.7148 14.2077C14.9301 14.0349 15.2448 14.0693 15.4177 14.2847C15.5905 14.5001 15.5561 14.8148 15.3407 14.9876L13.6079 16.3784H30.7692C32.8701 16.3784 34.5731 18.0815 34.5731 20.1823C34.5731 22.2832 32.8701 23.9863 30.7692 23.9863H28.4804V23.9907H15.2121C13.6636 23.9907 12.4082 25.2461 12.4082 26.7947C12.4082 28.3432 13.6636 29.5986 15.2121 29.5986H32.1575L30.6894 28.4203C30.4741 28.2474 30.4396 27.9327 30.6125 27.7174C30.7853 27.502 31.1 27.4676 31.3154 27.6404L33.9485 29.7538L34.4161 30.1292L33.9629 30.5217L31.5327 32.6266C31.324 32.8074 31.0082 32.7847 30.8274 32.576C30.6466 32.3673 30.6693 32.0515 30.878 31.8707L32.3467 30.5986H15.2121C13.1113 30.5986 11.4082 28.8955 11.4082 26.7947C11.4082 24.6938 13.1113 22.9907 15.2121 22.9907H17.5009V22.9863H30.7692C32.3178 22.9863 33.5731 21.7309 33.5731 20.1823C33.5731 18.6338 32.3178 17.3784 30.7692 17.3784H13.769L15.075 18.6844C15.2702 18.8797 15.2702 19.1963 15.0749 19.3915C14.8797 19.5868 14.5631 19.5868 14.3678 19.3915L12.0411 17.0647L11.6468 16.6703L12.0817 16.3212L14.7148 14.2077Z" fill="black"/>
</svg>
