<svg width="1641" height="534" viewBox="0 0 1641 534" fill="none" xmlns="http://www.w3.org/2000/svg">
<rect width="1465" height="534" fill="white"/>
<path d="M1160.64 479.424V478.32L1166.26 470.544H1168V478.16H1169.6V479.424H1168V482H1166.56V479.424H1160.64ZM1166.62 472.064L1162.32 478.16H1166.62V472.064ZM1171.05 476.096C1171.05 474.261 1171.35 472.832 1171.95 471.808C1172.55 470.773 1173.59 470.256 1175.09 470.256C1176.57 470.256 1177.61 470.773 1178.21 471.808C1178.8 472.832 1179.1 474.261 1179.1 476.096C1179.1 477.963 1178.8 479.413 1178.21 480.448C1177.61 481.483 1176.57 482 1175.09 482C1173.59 482 1172.55 481.483 1171.95 480.448C1171.35 479.413 1171.05 477.963 1171.05 476.096ZM1177.66 476.096C1177.66 475.168 1177.6 474.384 1177.47 473.744C1177.35 473.093 1177.1 472.571 1176.72 472.176C1176.35 471.781 1175.8 471.584 1175.09 471.584C1174.36 471.584 1173.81 471.781 1173.42 472.176C1173.05 472.571 1172.8 473.093 1172.67 473.744C1172.55 474.384 1172.49 475.168 1172.49 476.096C1172.49 477.056 1172.55 477.861 1172.67 478.512C1172.8 479.163 1173.05 479.685 1173.42 480.08C1173.81 480.475 1174.36 480.672 1175.09 480.672C1175.8 480.672 1176.35 480.475 1176.72 480.08C1177.1 479.685 1177.35 479.163 1177.47 478.512C1177.6 477.861 1177.66 477.056 1177.66 476.096Z" fill="#BAB5B5"/>
<path d="M928.96 473.344C929.035 472.363 929.413 471.595 930.096 471.04C930.779 470.485 931.664 470.208 932.752 470.208C933.477 470.208 934.101 470.341 934.624 470.608C935.157 470.864 935.557 471.216 935.824 471.664C936.101 472.112 936.24 472.619 936.24 473.184C936.24 473.845 936.048 474.416 935.664 474.896C935.291 475.376 934.8 475.685 934.192 475.824V475.904C934.885 476.075 935.435 476.411 935.84 476.912C936.245 477.413 936.448 478.069 936.448 478.88C936.448 479.488 936.309 480.037 936.032 480.528C935.755 481.008 935.339 481.387 934.784 481.664C934.229 481.941 933.563 482.08 932.784 482.08C931.653 482.08 930.725 481.787 930 481.2C929.275 480.603 928.869 479.76 928.784 478.672H930.192C930.267 479.312 930.528 479.835 930.976 480.24C931.424 480.645 932.021 480.848 932.768 480.848C933.515 480.848 934.08 480.656 934.464 480.272C934.859 479.877 935.056 479.371 935.056 478.752C935.056 477.952 934.789 477.376 934.256 477.024C933.723 476.672 932.917 476.496 931.84 476.496H931.472V475.28H931.856C932.837 475.269 933.579 475.109 934.08 474.8C934.581 474.48 934.832 473.989 934.832 473.328C934.832 472.763 934.645 472.309 934.272 471.968C933.909 471.627 933.387 471.456 932.704 471.456C932.043 471.456 931.509 471.627 931.104 471.968C930.699 472.309 930.459 472.768 930.384 473.344H928.96ZM938.414 476.096C938.414 474.261 938.713 472.832 939.31 471.808C939.907 470.773 940.953 470.256 942.446 470.256C943.929 470.256 944.969 470.773 945.566 471.808C946.163 472.832 946.462 474.261 946.462 476.096C946.462 477.963 946.163 479.413 945.566 480.448C944.969 481.483 943.929 482 942.446 482C940.953 482 939.907 481.483 939.31 480.448C938.713 479.413 938.414 477.963 938.414 476.096ZM945.022 476.096C945.022 475.168 944.958 474.384 944.83 473.744C944.713 473.093 944.462 472.571 944.078 472.176C943.705 471.781 943.161 471.584 942.446 471.584C941.721 471.584 941.166 471.781 940.782 472.176C940.409 472.571 940.158 473.093 940.03 473.744C939.913 474.384 939.854 475.168 939.854 476.096C939.854 477.056 939.913 477.861 940.03 478.512C940.158 479.163 940.409 479.685 940.782 480.08C941.166 480.475 941.721 480.672 942.446 480.672C943.161 480.672 943.705 480.475 944.078 480.08C944.462 479.685 944.713 479.163 944.83 478.512C944.958 477.861 945.022 477.056 945.022 476.096Z" fill="#BAB5B5"/>
<path d="M696.816 480.832C698.171 479.744 699.232 478.853 700 478.16C700.768 477.456 701.413 476.725 701.936 475.968C702.469 475.2 702.736 474.448 702.736 473.712C702.736 473.019 702.565 472.475 702.224 472.08C701.893 471.675 701.355 471.472 700.608 471.472C699.883 471.472 699.317 471.701 698.912 472.16C698.517 472.608 698.304 473.211 698.272 473.968H696.864C696.907 472.773 697.269 471.851 697.952 471.2C698.635 470.549 699.515 470.224 700.592 470.224C701.691 470.224 702.56 470.528 703.2 471.136C703.851 471.744 704.176 472.581 704.176 473.648C704.176 474.533 703.909 475.397 703.376 476.24C702.853 477.072 702.256 477.808 701.584 478.448C700.912 479.077 700.053 479.813 699.008 480.656H704.512V481.872H696.816V480.832ZM706.195 476.096C706.195 474.261 706.494 472.832 707.091 471.808C707.688 470.773 708.734 470.256 710.227 470.256C711.71 470.256 712.75 470.773 713.347 471.808C713.944 472.832 714.243 474.261 714.243 476.096C714.243 477.963 713.944 479.413 713.347 480.448C712.75 481.483 711.71 482 710.227 482C708.734 482 707.688 481.483 707.091 480.448C706.494 479.413 706.195 477.963 706.195 476.096ZM712.803 476.096C712.803 475.168 712.739 474.384 712.611 473.744C712.494 473.093 712.243 472.571 711.859 472.176C711.486 471.781 710.942 471.584 710.227 471.584C709.502 471.584 708.947 471.781 708.563 472.176C708.19 472.571 707.939 473.093 707.811 473.744C707.694 474.384 707.635 475.168 707.635 476.096C707.635 477.056 707.694 477.861 707.811 478.512C707.939 479.163 708.19 479.685 708.563 480.08C708.947 480.475 709.502 480.672 710.227 480.672C710.942 480.672 711.486 480.475 711.859 480.08C712.243 479.685 712.494 479.163 712.611 478.512C712.739 477.861 712.803 477.056 712.803 476.096Z" fill="#BAB5B5"/>
<path d="M122.438 457.148C121.404 457.148 120.46 456.908 119.606 456.428C118.753 455.938 118.076 455.26 117.574 454.396C117.084 453.522 116.838 452.54 116.838 451.452C116.838 450.364 117.084 449.388 117.574 448.524C118.076 447.65 118.753 446.972 119.606 446.492C120.46 446.002 121.404 445.756 122.438 445.756C123.484 445.756 124.433 446.002 125.286 446.492C126.14 446.972 126.812 447.644 127.302 448.508C127.793 449.372 128.038 450.354 128.038 451.452C128.038 452.551 127.793 453.532 127.302 454.396C126.812 455.26 126.14 455.938 125.286 456.428C124.433 456.908 123.484 457.148 122.438 457.148ZM122.438 455.884C123.217 455.884 123.916 455.703 124.534 455.34C125.164 454.978 125.654 454.46 126.006 453.788C126.369 453.116 126.55 452.338 126.55 451.452C126.55 450.556 126.369 449.778 126.006 449.116C125.654 448.444 125.169 447.927 124.55 447.564C123.932 447.202 123.228 447.02 122.438 447.02C121.649 447.02 120.945 447.202 120.326 447.564C119.708 447.927 119.217 448.444 118.854 449.116C118.502 449.778 118.326 450.556 118.326 451.452C118.326 452.338 118.502 453.116 118.854 453.788C119.217 454.46 119.708 454.978 120.326 455.34C120.956 455.703 121.66 455.884 122.438 455.884ZM129.416 452.636C129.416 451.73 129.598 450.94 129.96 450.268C130.323 449.586 130.824 449.058 131.464 448.684C132.115 448.311 132.856 448.124 133.688 448.124C134.766 448.124 135.651 448.386 136.344 448.908C137.048 449.431 137.512 450.156 137.736 451.084H136.168C136.019 450.551 135.726 450.13 135.288 449.82C134.862 449.511 134.328 449.356 133.688 449.356C132.856 449.356 132.184 449.644 131.672 450.22C131.16 450.786 130.904 451.591 130.904 452.636C130.904 453.692 131.16 454.508 131.672 455.084C132.184 455.66 132.856 455.948 133.688 455.948C134.328 455.948 134.862 455.799 135.288 455.5C135.715 455.202 136.008 454.775 136.168 454.22H137.736C137.502 455.116 137.032 455.836 136.328 456.38C135.624 456.914 134.744 457.18 133.688 457.18C132.856 457.18 132.115 456.994 131.464 456.62C130.824 456.247 130.323 455.719 129.96 455.036C129.598 454.354 129.416 453.554 129.416 452.636ZM141.455 449.468V454.636C141.455 455.063 141.546 455.367 141.727 455.548C141.908 455.719 142.223 455.804 142.671 455.804H143.743V457.036H142.431C141.62 457.036 141.012 456.85 140.607 456.476C140.202 456.103 139.999 455.49 139.999 454.636V449.468H138.863V448.268H139.999V446.06H141.455V448.268H143.743V449.468H141.455ZM145.731 445.884H147.347L145.811 449.516H144.787L145.731 445.884ZM152.857 455.868C154.211 454.78 155.273 453.89 156.041 453.196C156.809 452.492 157.454 451.762 157.977 451.004C158.51 450.236 158.777 449.484 158.777 448.748C158.777 448.055 158.606 447.511 158.265 447.116C157.934 446.711 157.395 446.508 156.649 446.508C155.923 446.508 155.358 446.738 154.953 447.196C154.558 447.644 154.345 448.247 154.313 449.004H152.905C152.947 447.81 153.31 446.887 153.993 446.236C154.675 445.586 155.555 445.26 156.633 445.26C157.731 445.26 158.601 445.564 159.241 446.172C159.891 446.78 160.217 447.618 160.217 448.684C160.217 449.57 159.95 450.434 159.417 451.276C158.894 452.108 158.297 452.844 157.625 453.484C156.953 454.114 156.094 454.85 155.049 455.692H160.553V456.908H152.857V455.868ZM162.204 448.38C162.279 447.399 162.657 446.631 163.34 446.076C164.023 445.522 164.908 445.244 165.996 445.244C166.721 445.244 167.345 445.378 167.868 445.644C168.401 445.9 168.801 446.252 169.068 446.7C169.345 447.148 169.484 447.655 169.484 448.22C169.484 448.882 169.292 449.452 168.908 449.932C168.535 450.412 168.044 450.722 167.436 450.86V450.94C168.129 451.111 168.679 451.447 169.084 451.948C169.489 452.45 169.692 453.106 169.692 453.916C169.692 454.524 169.553 455.074 169.276 455.564C168.999 456.044 168.583 456.423 168.028 456.7C167.473 456.978 166.807 457.116 166.028 457.116C164.897 457.116 163.969 456.823 163.244 456.236C162.519 455.639 162.113 454.796 162.028 453.708H163.436C163.511 454.348 163.772 454.871 164.22 455.276C164.668 455.682 165.265 455.884 166.012 455.884C166.759 455.884 167.324 455.692 167.708 455.308C168.103 454.914 168.3 454.407 168.3 453.788C168.3 452.988 168.033 452.412 167.5 452.06C166.967 451.708 166.161 451.532 165.084 451.532H164.716V450.316H165.1C166.081 450.306 166.823 450.146 167.324 449.836C167.825 449.516 168.076 449.026 168.076 448.364C168.076 447.799 167.889 447.346 167.516 447.004C167.153 446.663 166.631 446.492 165.948 446.492C165.287 446.492 164.753 446.663 164.348 447.004C163.943 447.346 163.703 447.804 163.628 448.38H162.204Z" fill="#BAB5B5"/>
<path d="M126.369 374H124.913L119.057 365.12V374H117.601V362.832H119.057L124.913 371.696V362.832H126.369V374ZM132.675 374.144C131.853 374.144 131.107 373.957 130.435 373.584C129.773 373.211 129.251 372.683 128.867 372C128.493 371.307 128.307 370.507 128.307 369.6C128.307 368.704 128.499 367.915 128.883 367.232C129.277 366.539 129.811 366.011 130.483 365.648C131.155 365.275 131.907 365.088 132.739 365.088C133.571 365.088 134.323 365.275 134.995 365.648C135.667 366.011 136.195 366.533 136.579 367.216C136.973 367.899 137.171 368.693 137.171 369.6C137.171 370.507 136.968 371.307 136.563 372C136.168 372.683 135.629 373.211 134.947 373.584C134.264 373.957 133.507 374.144 132.675 374.144ZM132.675 372.864C133.197 372.864 133.688 372.741 134.147 372.496C134.605 372.251 134.973 371.883 135.251 371.392C135.539 370.901 135.683 370.304 135.683 369.6C135.683 368.896 135.544 368.299 135.267 367.808C134.989 367.317 134.627 366.955 134.179 366.72C133.731 366.475 133.245 366.352 132.723 366.352C132.189 366.352 131.699 366.475 131.251 366.72C130.813 366.955 130.461 367.317 130.195 367.808C129.928 368.299 129.795 368.896 129.795 369.6C129.795 370.315 129.923 370.917 130.179 371.408C130.445 371.899 130.797 372.267 131.235 372.512C131.672 372.747 132.152 372.864 132.675 372.864ZM142.349 372.656L145.069 365.232H146.621L143.181 374H141.485L138.045 365.232H139.613L142.349 372.656ZM148.278 362.848H149.894L148.358 366.48H147.334L148.278 362.848ZM155.404 372.832C156.758 371.744 157.82 370.853 158.588 370.16C159.356 369.456 160.001 368.725 160.524 367.968C161.057 367.2 161.324 366.448 161.324 365.712C161.324 365.019 161.153 364.475 160.812 364.08C160.481 363.675 159.942 363.472 159.196 363.472C158.47 363.472 157.905 363.701 157.5 364.16C157.105 364.608 156.892 365.211 156.86 365.968H155.452C155.494 364.773 155.857 363.851 156.54 363.2C157.222 362.549 158.102 362.224 159.18 362.224C160.278 362.224 161.148 362.528 161.788 363.136C162.438 363.744 162.764 364.581 162.764 365.648C162.764 366.533 162.497 367.397 161.964 368.24C161.441 369.072 160.844 369.808 160.172 370.448C159.5 371.077 158.641 371.813 157.596 372.656H163.1V373.872H155.404V372.832ZM164.751 365.344C164.825 364.363 165.204 363.595 165.887 363.04C166.569 362.485 167.455 362.208 168.543 362.208C169.268 362.208 169.892 362.341 170.415 362.608C170.948 362.864 171.348 363.216 171.615 363.664C171.892 364.112 172.031 364.619 172.031 365.184C172.031 365.845 171.839 366.416 171.455 366.896C171.081 367.376 170.591 367.685 169.983 367.824V367.904C170.676 368.075 171.225 368.411 171.631 368.912C172.036 369.413 172.239 370.069 172.239 370.88C172.239 371.488 172.1 372.037 171.823 372.528C171.545 373.008 171.129 373.387 170.575 373.664C170.02 373.941 169.353 374.08 168.575 374.08C167.444 374.08 166.516 373.787 165.791 373.2C165.065 372.603 164.66 371.76 164.575 370.672H165.983C166.057 371.312 166.319 371.835 166.767 372.24C167.215 372.645 167.812 372.848 168.559 372.848C169.305 372.848 169.871 372.656 170.255 372.272C170.649 371.877 170.847 371.371 170.847 370.752C170.847 369.952 170.58 369.376 170.047 369.024C169.513 368.672 168.708 368.496 167.631 368.496H167.263V367.28H167.647C168.628 367.269 169.369 367.109 169.871 366.8C170.372 366.48 170.623 365.989 170.623 365.328C170.623 364.763 170.436 364.309 170.063 363.968C169.7 363.627 169.177 363.456 168.495 363.456C167.833 363.456 167.3 363.627 166.895 363.968C166.489 364.309 166.249 364.768 166.175 365.344H164.751Z" fill="#BAB5B5"/>
<path d="M120.191 272.939C121.179 272.939 122.032 273.125 122.752 273.498C123.48 273.862 124.034 274.386 124.416 275.071C124.806 275.756 125.001 276.562 125.001 277.489C125.001 278.416 124.806 279.222 124.416 279.907C124.034 280.583 123.48 281.103 122.752 281.467C122.032 281.822 121.179 282 120.191 282H117.37V272.939H120.191ZM120.191 281.025C121.361 281.025 122.253 280.717 122.869 280.102C123.484 279.478 123.792 278.607 123.792 277.489C123.792 276.362 123.48 275.483 122.856 274.85C122.24 274.217 121.352 273.901 120.191 273.901H118.553V281.025H120.191ZM133.061 278.165C133.061 278.39 133.048 278.629 133.022 278.88H127.328C127.372 279.582 127.61 280.132 128.043 280.531C128.485 280.921 129.018 281.116 129.642 281.116C130.154 281.116 130.578 280.999 130.916 280.765C131.263 280.522 131.506 280.202 131.644 279.803H132.918C132.728 280.488 132.346 281.047 131.774 281.48C131.202 281.905 130.492 282.117 129.642 282.117C128.966 282.117 128.36 281.965 127.822 281.662C127.294 281.359 126.878 280.93 126.574 280.375C126.271 279.812 126.119 279.162 126.119 278.425C126.119 277.688 126.267 277.043 126.561 276.488C126.856 275.933 127.268 275.509 127.796 275.214C128.334 274.911 128.949 274.759 129.642 274.759C130.318 274.759 130.916 274.906 131.436 275.201C131.956 275.496 132.355 275.903 132.632 276.423C132.918 276.934 133.061 277.515 133.061 278.165ZM131.839 277.918C131.839 277.467 131.74 277.082 131.54 276.761C131.341 276.432 131.068 276.185 130.721 276.02C130.383 275.847 130.006 275.76 129.59 275.76C128.992 275.76 128.481 275.951 128.056 276.332C127.64 276.713 127.402 277.242 127.341 277.918H131.839ZM134.181 278.425C134.181 277.688 134.328 277.047 134.623 276.501C134.917 275.946 135.325 275.517 135.845 275.214C136.373 274.911 136.976 274.759 137.652 274.759C138.527 274.759 139.246 274.971 139.81 275.396C140.382 275.821 140.759 276.41 140.941 277.164H139.667C139.545 276.731 139.307 276.388 138.952 276.137C138.605 275.886 138.172 275.76 137.652 275.76C136.976 275.76 136.43 275.994 136.014 276.462C135.598 276.921 135.39 277.576 135.39 278.425C135.39 279.283 135.598 279.946 136.014 280.414C136.43 280.882 136.976 281.116 137.652 281.116C138.172 281.116 138.605 280.995 138.952 280.752C139.298 280.509 139.537 280.163 139.667 279.712H140.941C140.75 280.44 140.369 281.025 139.797 281.467C139.225 281.9 138.51 282.117 137.652 282.117C136.976 282.117 136.373 281.965 135.845 281.662C135.325 281.359 134.917 280.93 134.623 280.375C134.328 279.82 134.181 279.17 134.181 278.425ZM142.701 272.939H144.014L142.766 275.89H141.934L142.701 272.939ZM148.491 281.051C149.591 280.167 150.454 279.443 151.078 278.88C151.702 278.308 152.226 277.714 152.651 277.099C153.084 276.475 153.301 275.864 153.301 275.266C153.301 274.703 153.162 274.261 152.885 273.94C152.616 273.611 152.178 273.446 151.572 273.446C150.982 273.446 150.523 273.632 150.194 274.005C149.873 274.369 149.7 274.859 149.674 275.474H148.53C148.564 274.503 148.859 273.754 149.414 273.225C149.968 272.696 150.683 272.432 151.559 272.432C152.451 272.432 153.158 272.679 153.678 273.173C154.206 273.667 154.471 274.347 154.471 275.214C154.471 275.933 154.254 276.635 153.821 277.32C153.396 277.996 152.911 278.594 152.365 279.114C151.819 279.625 151.121 280.223 150.272 280.908H154.744V281.896H148.491V281.051ZM156.085 274.967C156.146 274.17 156.454 273.546 157.008 273.095C157.563 272.644 158.282 272.419 159.166 272.419C159.756 272.419 160.263 272.527 160.687 272.744C161.121 272.952 161.446 273.238 161.662 273.602C161.888 273.966 162 274.378 162 274.837C162 275.374 161.844 275.838 161.532 276.228C161.229 276.618 160.83 276.869 160.336 276.982V277.047C160.9 277.186 161.346 277.459 161.675 277.866C162.005 278.273 162.169 278.806 162.169 279.465C162.169 279.959 162.057 280.405 161.831 280.804C161.606 281.194 161.268 281.502 160.817 281.727C160.367 281.952 159.825 282.065 159.192 282.065C158.274 282.065 157.52 281.827 156.93 281.35C156.341 280.865 156.012 280.18 155.942 279.296H157.086C157.147 279.816 157.359 280.241 157.723 280.57C158.087 280.899 158.573 281.064 159.179 281.064C159.786 281.064 160.245 280.908 160.557 280.596C160.878 280.275 161.038 279.864 161.038 279.361C161.038 278.711 160.822 278.243 160.388 277.957C159.955 277.671 159.301 277.528 158.425 277.528H158.126V276.54H158.438C159.236 276.531 159.838 276.401 160.245 276.15C160.653 275.89 160.856 275.491 160.856 274.954C160.856 274.495 160.705 274.126 160.401 273.849C160.107 273.572 159.682 273.433 159.127 273.433C158.59 273.433 158.157 273.572 157.827 273.849C157.498 274.126 157.303 274.499 157.242 274.967H156.085Z" fill="#BAB5B5"/>
<path d="M123.217 182.848V191.088C123.217 192.005 122.934 192.741 122.369 193.296C121.803 193.84 121.057 194.112 120.129 194.112C119.19 194.112 118.438 193.835 117.873 193.28C117.307 192.715 117.025 191.947 117.025 190.976H118.481C118.491 191.52 118.63 191.963 118.897 192.304C119.174 192.645 119.585 192.816 120.129 192.816C120.673 192.816 121.078 192.656 121.345 192.336C121.611 192.005 121.745 191.589 121.745 191.088V182.848H123.217ZM125.541 189.584C125.541 188.688 125.723 187.904 126.085 187.232C126.448 186.549 126.944 186.021 127.573 185.648C128.213 185.275 128.923 185.088 129.701 185.088C130.469 185.088 131.136 185.253 131.701 185.584C132.267 185.915 132.688 186.331 132.965 186.832V185.232H134.437V194H132.965V192.368C132.677 192.88 132.245 193.307 131.669 193.648C131.104 193.979 130.443 194.144 129.685 194.144C128.907 194.144 128.203 193.952 127.573 193.568C126.944 193.184 126.448 192.645 126.085 191.952C125.723 191.259 125.541 190.469 125.541 189.584ZM132.965 189.6C132.965 188.939 132.832 188.363 132.565 187.872C132.299 187.381 131.936 187.008 131.477 186.752C131.029 186.485 130.533 186.352 129.989 186.352C129.445 186.352 128.949 186.48 128.501 186.736C128.053 186.992 127.696 187.365 127.429 187.856C127.163 188.347 127.029 188.923 127.029 189.584C127.029 190.256 127.163 190.843 127.429 191.344C127.696 191.835 128.053 192.213 128.501 192.48C128.949 192.736 129.445 192.864 129.989 192.864C130.533 192.864 131.029 192.736 131.477 192.48C131.936 192.213 132.299 191.835 132.565 191.344C132.832 190.843 132.965 190.261 132.965 189.6ZM141.17 185.072C142.236 185.072 143.1 185.397 143.762 186.048C144.423 186.688 144.754 187.616 144.754 188.832V194H143.314V189.04C143.314 188.165 143.095 187.499 142.658 187.04C142.22 186.571 141.623 186.336 140.866 186.336C140.098 186.336 139.484 186.576 139.026 187.056C138.578 187.536 138.354 188.235 138.354 189.152V194H136.898V185.232H138.354V186.48C138.642 186.032 139.031 185.685 139.522 185.44C140.023 185.195 140.572 185.072 141.17 185.072ZM147.356 182.848H148.972L147.436 186.48H146.412L147.356 182.848ZM154.482 192.832C155.836 191.744 156.898 190.853 157.666 190.16C158.434 189.456 159.079 188.725 159.602 187.968C160.135 187.2 160.402 186.448 160.402 185.712C160.402 185.019 160.231 184.475 159.89 184.08C159.559 183.675 159.02 183.472 158.274 183.472C157.548 183.472 156.983 183.701 156.578 184.16C156.183 184.608 155.97 185.211 155.938 185.968H154.53C154.572 184.773 154.935 183.851 155.618 183.2C156.3 182.549 157.18 182.224 158.258 182.224C159.356 182.224 160.226 182.528 160.866 183.136C161.516 183.744 161.842 184.581 161.842 185.648C161.842 186.533 161.575 187.397 161.042 188.24C160.519 189.072 159.922 189.808 159.25 190.448C158.578 191.077 157.719 191.813 156.674 192.656H162.178V193.872H154.482V192.832ZM163.509 191.424V190.32L169.125 182.544H170.869V190.16H172.469V191.424H170.869V194H169.429V191.424H163.509ZM169.493 184.064L165.189 190.16H169.493V184.064Z" fill="#BAB5B5"/>
<path d="M123.905 87.848V89.032H119.057V92.792H122.993V93.976H119.057V99H117.601V87.848H123.905ZM133.663 94.28C133.663 94.5573 133.647 94.8507 133.615 95.16H126.607C126.661 96.024 126.954 96.7013 127.487 97.192C128.031 97.672 128.687 97.912 129.455 97.912C130.085 97.912 130.607 97.768 131.023 97.48C131.45 97.1813 131.749 96.7867 131.919 96.296H133.487C133.253 97.1387 132.783 97.8267 132.079 98.36C131.375 98.8827 130.501 99.144 129.455 99.144C128.623 99.144 127.877 98.9573 127.215 98.584C126.565 98.2107 126.053 97.6827 125.679 97C125.306 96.3067 125.119 95.5067 125.119 94.6C125.119 93.6933 125.301 92.8987 125.663 92.216C126.026 91.5333 126.533 91.0107 127.183 90.648C127.845 90.2747 128.602 90.088 129.455 90.088C130.287 90.088 131.023 90.2693 131.663 90.632C132.303 90.9947 132.794 91.496 133.135 92.136C133.487 92.7653 133.663 93.48 133.663 94.28ZM132.159 93.976C132.159 93.4213 132.037 92.9467 131.791 92.552C131.546 92.1467 131.21 91.8427 130.783 91.64C130.367 91.4267 129.903 91.32 129.391 91.32C128.655 91.32 128.026 91.5547 127.503 92.024C126.991 92.4933 126.698 93.144 126.623 93.976H132.159ZM137.041 91.864C137.34 91.3413 137.777 90.9147 138.353 90.584C138.929 90.2533 139.585 90.088 140.321 90.088C141.111 90.088 141.82 90.2747 142.449 90.648C143.079 91.0213 143.575 91.5493 143.937 92.232C144.3 92.904 144.481 93.688 144.481 94.584C144.481 95.4693 144.3 96.2587 143.937 96.952C143.575 97.6453 143.073 98.184 142.433 98.568C141.804 98.952 141.1 99.144 140.321 99.144C139.564 99.144 138.897 98.9787 138.321 98.648C137.756 98.3173 137.329 97.896 137.041 97.384V99H135.585V87.16H137.041V91.864ZM142.993 94.584C142.993 93.9227 142.86 93.3467 142.593 92.856C142.327 92.3653 141.964 91.992 141.505 91.736C141.057 91.48 140.561 91.352 140.017 91.352C139.484 91.352 138.988 91.4853 138.529 91.752C138.081 92.008 137.719 92.3867 137.441 92.888C137.175 93.3787 137.041 93.9493 137.041 94.6C137.041 95.2613 137.175 95.8427 137.441 96.344C137.719 96.8347 138.081 97.2133 138.529 97.48C138.988 97.736 139.484 97.864 140.017 97.864C140.561 97.864 141.057 97.736 141.505 97.48C141.964 97.2133 142.327 96.8347 142.593 96.344C142.86 95.8427 142.993 95.256 142.993 94.584ZM146.622 87.848H148.238L146.702 91.48H145.678L146.622 87.848ZM153.747 97.832C155.102 96.744 156.163 95.8533 156.931 95.16C157.699 94.456 158.345 93.7253 158.867 92.968C159.401 92.2 159.667 91.448 159.667 90.712C159.667 90.0187 159.497 89.4747 159.155 89.08C158.825 88.6747 158.286 88.472 157.539 88.472C156.814 88.472 156.249 88.7013 155.843 89.16C155.449 89.608 155.235 90.2107 155.203 90.968H153.795C153.838 89.7733 154.201 88.8507 154.883 88.2C155.566 87.5493 156.446 87.224 157.523 87.224C158.622 87.224 159.491 87.528 160.131 88.136C160.782 88.744 161.107 89.5813 161.107 90.648C161.107 91.5333 160.841 92.3973 160.307 93.24C159.785 94.072 159.187 94.808 158.515 95.448C157.843 96.0773 156.985 96.8133 155.939 97.656H161.443V98.872H153.747V97.832ZM162.774 96.424V95.32L168.39 87.544H170.134V95.16H171.734V96.424H170.134V99H168.694V96.424H162.774ZM168.758 89.064L164.454 95.16H168.758V89.064Z" fill="#BAB5B5"/>
<path d="M190.992 476.096C190.992 474.261 191.291 472.832 191.888 471.808C192.485 470.773 193.531 470.256 195.024 470.256C196.507 470.256 197.547 470.773 198.144 471.808C198.741 472.832 199.04 474.261 199.04 476.096C199.04 477.963 198.741 479.413 198.144 480.448C197.547 481.483 196.507 482 195.024 482C193.531 482 192.485 481.483 191.888 480.448C191.291 479.413 190.992 477.963 190.992 476.096ZM197.6 476.096C197.6 475.168 197.536 474.384 197.408 473.744C197.291 473.093 197.04 472.571 196.656 472.176C196.283 471.781 195.739 471.584 195.024 471.584C194.299 471.584 193.744 471.781 193.36 472.176C192.987 472.571 192.736 473.093 192.608 473.744C192.491 474.384 192.432 475.168 192.432 476.096C192.432 477.056 192.491 477.861 192.608 478.512C192.736 479.163 192.987 479.685 193.36 480.08C193.744 480.475 194.299 480.672 195.024 480.672C195.739 480.672 196.283 480.475 196.656 480.08C197.04 479.685 197.291 479.163 197.408 478.512C197.536 477.861 197.6 477.056 197.6 476.096Z" fill="#BAB5B5"/>
<path d="M422.608 471.76V470.432H425.616V482H424.144V471.76H422.608ZM428.117 476.096C428.117 474.261 428.416 472.832 429.013 471.808C429.61 470.773 430.656 470.256 432.149 470.256C433.632 470.256 434.672 470.773 435.269 471.808C435.866 472.832 436.165 474.261 436.165 476.096C436.165 477.963 435.866 479.413 435.269 480.448C434.672 481.483 433.632 482 432.149 482C430.656 482 429.61 481.483 429.013 480.448C428.416 479.413 428.117 477.963 428.117 476.096ZM434.725 476.096C434.725 475.168 434.661 474.384 434.533 473.744C434.416 473.093 434.165 472.571 433.781 472.176C433.408 471.781 432.864 471.584 432.149 471.584C431.424 471.584 430.869 471.781 430.485 472.176C430.112 472.571 429.861 473.093 429.733 473.744C429.616 474.384 429.557 475.168 429.557 476.096C429.557 477.056 429.616 477.861 429.733 478.512C429.861 479.163 430.112 479.685 430.485 480.08C430.869 480.475 431.424 480.672 432.149 480.672C432.864 480.672 433.408 480.475 433.781 480.08C434.165 479.685 434.416 479.163 434.533 478.512C434.661 477.861 434.725 477.056 434.725 476.096Z" fill="#BAB5B5"/>
<path d="M639.25 274H634.7L616.4 246.25V274H611.85V239.1H616.4L634.7 266.8V239.1H639.25V274ZM658.956 274.45C656.39 274.45 654.056 273.867 651.956 272.7C649.89 271.533 648.256 269.883 647.056 267.75C645.89 265.583 645.306 263.083 645.306 260.25C645.306 257.45 645.906 254.983 647.106 252.85C648.34 250.683 650.006 249.033 652.106 247.9C654.206 246.733 656.556 246.15 659.156 246.15C661.756 246.15 664.106 246.733 666.206 247.9C668.306 249.033 669.956 250.667 671.156 252.8C672.39 254.933 673.006 257.417 673.006 260.25C673.006 263.083 672.373 265.583 671.106 267.75C669.873 269.883 668.19 271.533 666.056 272.7C663.923 273.867 661.556 274.45 658.956 274.45ZM658.956 270.45C660.59 270.45 662.123 270.067 663.556 269.3C664.99 268.533 666.14 267.383 667.006 265.85C667.906 264.317 668.356 262.45 668.356 260.25C668.356 258.05 667.923 256.183 667.056 254.65C666.19 253.117 665.056 251.983 663.656 251.25C662.256 250.483 660.74 250.1 659.106 250.1C657.44 250.1 655.906 250.483 654.506 251.25C653.14 251.983 652.04 253.117 651.206 254.65C650.373 256.183 649.956 258.05 649.956 260.25C649.956 262.483 650.356 264.367 651.156 265.9C651.99 267.433 653.09 268.583 654.456 269.35C655.823 270.083 657.323 270.45 658.956 270.45ZM703.169 239.15C706.969 239.15 710.252 239.867 713.019 241.3C715.819 242.7 717.952 244.717 719.419 247.35C720.919 249.983 721.669 253.083 721.669 256.65C721.669 260.217 720.919 263.317 719.419 265.95C717.952 268.55 715.819 270.55 713.019 271.95C710.252 273.317 706.969 274 703.169 274H692.319V239.15H703.169ZM703.169 270.25C707.669 270.25 711.102 269.067 713.469 266.7C715.835 264.3 717.019 260.95 717.019 256.65C717.019 252.317 715.819 248.933 713.419 246.5C711.052 244.067 707.635 242.85 703.169 242.85H696.869V270.25H703.169ZM725.97 260.2C725.97 257.4 726.537 254.95 727.67 252.85C728.804 250.717 730.354 249.067 732.32 247.9C734.32 246.733 736.537 246.15 738.97 246.15C741.37 246.15 743.454 246.667 745.22 247.7C746.987 248.733 748.304 250.033 749.17 251.6V246.6H753.77V274H749.17V268.9C748.27 270.5 746.92 271.833 745.12 272.9C743.354 273.933 741.287 274.45 738.92 274.45C736.487 274.45 734.287 273.85 732.32 272.65C730.354 271.45 728.804 269.767 727.67 267.6C726.537 265.433 725.97 262.967 725.97 260.2ZM749.17 260.25C749.17 258.183 748.754 256.383 747.92 254.85C747.087 253.317 745.954 252.15 744.52 251.35C743.12 250.517 741.57 250.1 739.87 250.1C738.17 250.1 736.62 250.5 735.22 251.3C733.82 252.1 732.704 253.267 731.87 254.8C731.037 256.333 730.62 258.133 730.62 260.2C730.62 262.3 731.037 264.133 731.87 265.7C732.704 267.233 733.82 268.417 735.22 269.25C736.62 270.05 738.17 270.45 739.87 270.45C741.57 270.45 743.12 270.05 744.52 269.25C745.954 268.417 747.087 267.233 747.92 265.7C748.754 264.133 749.17 262.317 749.17 260.25ZM767.009 250.35V266.5C767.009 267.833 767.293 268.783 767.859 269.35C768.426 269.883 769.409 270.15 770.809 270.15H774.159V274H770.059C767.526 274 765.626 273.417 764.359 272.25C763.093 271.083 762.459 269.167 762.459 266.5V250.35H758.909V246.6H762.459V239.7H767.009V246.6H774.159V250.35H767.009ZM777.972 260.2C777.972 257.4 778.539 254.95 779.672 252.85C780.806 250.717 782.356 249.067 784.322 247.9C786.322 246.733 788.539 246.15 790.972 246.15C793.372 246.15 795.456 246.667 797.222 247.7C798.989 248.733 800.306 250.033 801.172 251.6V246.6H805.772V274H801.172V268.9C800.272 270.5 798.922 271.833 797.122 272.9C795.356 273.933 793.289 274.45 790.922 274.45C788.489 274.45 786.289 273.85 784.322 272.65C782.356 271.45 780.806 269.767 779.672 267.6C778.539 265.433 777.972 262.967 777.972 260.2ZM801.172 260.25C801.172 258.183 800.756 256.383 799.922 254.85C799.089 253.317 797.956 252.15 796.522 251.35C795.122 250.517 793.572 250.1 791.872 250.1C790.172 250.1 788.622 250.5 787.222 251.3C785.822 252.1 784.706 253.267 783.872 254.8C783.039 256.333 782.622 258.133 782.622 260.2C782.622 262.3 783.039 264.133 783.872 265.7C784.706 267.233 785.822 268.417 787.222 269.25C788.622 270.05 790.172 270.45 791.872 270.45C793.572 270.45 795.122 270.05 796.522 269.25C797.956 268.417 799.089 267.233 799.922 265.7C800.756 264.133 801.172 262.317 801.172 260.25ZM846.491 239.15V242.85H831.341V254.6H843.641V258.3H831.341V274H826.791V239.15H846.491ZM863.937 274.45C861.37 274.45 859.037 273.867 856.937 272.7C854.87 271.533 853.237 269.883 852.037 267.75C850.87 265.583 850.287 263.083 850.287 260.25C850.287 257.45 850.887 254.983 852.087 252.85C853.32 250.683 854.987 249.033 857.087 247.9C859.187 246.733 861.537 246.15 864.137 246.15C866.737 246.15 869.087 246.733 871.187 247.9C873.287 249.033 874.937 250.667 876.137 252.8C877.37 254.933 877.987 257.417 877.987 260.25C877.987 263.083 877.353 265.583 876.087 267.75C874.853 269.883 873.17 271.533 871.037 272.7C868.903 273.867 866.537 274.45 863.937 274.45ZM863.937 270.45C865.57 270.45 867.103 270.067 868.537 269.3C869.97 268.533 871.12 267.383 871.987 265.85C872.887 264.317 873.337 262.45 873.337 260.25C873.337 258.05 872.903 256.183 872.037 254.65C871.17 253.117 870.037 251.983 868.637 251.25C867.237 250.483 865.72 250.1 864.087 250.1C862.42 250.1 860.887 250.483 859.487 251.25C858.12 251.983 857.02 253.117 856.187 254.65C855.353 256.183 854.937 258.05 854.937 260.25C854.937 262.483 855.337 264.367 856.137 265.9C856.97 267.433 858.07 268.583 859.437 269.35C860.803 270.083 862.303 270.45 863.937 270.45ZM908.269 246.6V274H903.719V269.95C902.852 271.35 901.636 272.45 900.069 273.25C898.536 274.017 896.836 274.4 894.969 274.4C892.836 274.4 890.919 273.967 889.219 273.1C887.519 272.2 886.169 270.867 885.169 269.1C884.202 267.333 883.719 265.183 883.719 262.65V246.6H888.219V262.05C888.219 264.75 888.902 266.833 890.269 268.3C891.636 269.733 893.502 270.45 895.869 270.45C898.302 270.45 900.219 269.7 901.619 268.2C903.019 266.7 903.719 264.517 903.719 261.65V246.6H908.269ZM929.302 246.1C932.635 246.1 935.335 247.117 937.402 249.15C939.468 251.15 940.502 254.05 940.502 257.85V274H936.002V258.5C936.002 255.767 935.318 253.683 933.952 252.25C932.585 250.783 930.718 250.05 928.352 250.05C925.952 250.05 924.035 250.8 922.602 252.3C921.202 253.8 920.502 255.983 920.502 258.85V274H915.952V246.6H920.502V250.5C921.402 249.1 922.618 248.017 924.152 247.25C925.718 246.483 927.435 246.1 929.302 246.1ZM946.234 260.2C946.234 257.4 946.801 254.95 947.934 252.85C949.067 250.717 950.617 249.067 952.584 247.9C954.584 246.733 956.817 246.15 959.284 246.15C961.417 246.15 963.401 246.65 965.234 247.65C967.067 248.617 968.467 249.9 969.434 251.5V237H974.034V274H969.434V268.85C968.534 270.483 967.201 271.833 965.434 272.9C963.667 273.933 961.601 274.45 959.234 274.45C956.801 274.45 954.584 273.85 952.584 272.65C950.617 271.45 949.067 269.767 947.934 267.6C946.801 265.433 946.234 262.967 946.234 260.2ZM969.434 260.25C969.434 258.183 969.017 256.383 968.184 254.85C967.351 253.317 966.217 252.15 964.784 251.35C963.384 250.517 961.834 250.1 960.134 250.1C958.434 250.1 956.884 250.5 955.484 251.3C954.084 252.1 952.967 253.267 952.134 254.8C951.301 256.333 950.884 258.133 950.884 260.2C950.884 262.3 951.301 264.133 952.134 265.7C952.967 267.233 954.084 268.417 955.484 269.25C956.884 270.05 958.434 270.45 960.134 270.45C961.834 270.45 963.384 270.05 964.784 269.25C966.217 268.417 967.351 267.233 968.184 265.7C969.017 264.133 969.434 262.317 969.434 260.25Z" fill="#BAB5B5"/>
<path d="M707.937 500.467L703.239 512.977H700.863L696.147 500.467H698.343L702.051 510.871L705.777 500.467H707.937ZM718.743 507.775C718.743 508.147 718.719 508.483 718.671 508.783H711.093C711.153 509.575 711.447 510.211 711.975 510.691C712.503 511.171 713.151 511.411 713.919 511.411C715.023 511.411 715.803 510.949 716.259 510.025H718.473C718.173 510.937 717.627 511.687 716.835 512.275C716.055 512.851 715.083 513.139 713.919 513.139C712.971 513.139 712.119 512.929 711.363 512.509C710.619 512.077 710.031 511.477 709.599 510.709C709.179 509.929 708.969 509.029 708.969 508.009C708.969 506.989 709.173 506.095 709.581 505.327C710.001 504.547 710.583 503.947 711.327 503.527C712.083 503.107 712.947 502.897 713.919 502.897C714.855 502.897 715.689 503.101 716.421 503.509C717.153 503.917 717.723 504.493 718.131 505.237C718.539 505.969 718.743 506.815 718.743 507.775ZM716.601 507.127C716.589 506.371 716.319 505.765 715.791 505.309C715.263 504.853 714.609 504.625 713.829 504.625C713.121 504.625 712.515 504.853 712.011 505.309C711.507 505.753 711.207 506.359 711.111 507.127H716.601ZM725.893 502.897C726.649 502.897 727.321 503.059 727.909 503.383C728.509 503.707 728.977 504.187 729.313 504.823C729.661 505.459 729.835 506.227 729.835 507.127V512.977H727.801V507.433C727.801 506.545 727.579 505.867 727.135 505.399C726.691 504.919 726.085 504.679 725.317 504.679C724.549 504.679 723.937 504.919 723.481 505.399C723.037 505.867 722.815 506.545 722.815 507.433V512.977H720.763V499.657H722.815V504.211C723.163 503.791 723.601 503.467 724.129 503.239C724.669 503.011 725.257 502.897 725.893 502.897ZM733.496 501.745C733.124 501.745 732.812 501.619 732.56 501.367C732.308 501.115 732.182 500.803 732.182 500.431C732.182 500.059 732.308 499.747 732.56 499.495C732.812 499.243 733.124 499.117 733.496 499.117C733.856 499.117 734.162 499.243 734.414 499.495C734.666 499.747 734.792 500.059 734.792 500.431C734.792 500.803 734.666 501.115 734.414 501.367C734.162 501.619 733.856 501.745 733.496 501.745ZM734.504 503.059V512.977H732.452V503.059H734.504ZM736.514 508.009C736.514 506.989 736.718 506.095 737.126 505.327C737.546 504.547 738.122 503.947 738.854 503.527C739.586 503.107 740.426 502.897 741.374 502.897C742.574 502.897 743.564 503.185 744.344 503.761C745.136 504.325 745.67 505.135 745.946 506.191H743.732C743.552 505.699 743.264 505.315 742.868 505.039C742.472 504.763 741.974 504.625 741.374 504.625C740.534 504.625 739.862 504.925 739.358 505.525C738.866 506.113 738.62 506.941 738.62 508.009C738.62 509.077 738.866 509.911 739.358 510.511C739.862 511.111 740.534 511.411 741.374 511.411C742.562 511.411 743.348 510.889 743.732 509.845H745.946C745.658 510.853 745.118 511.657 744.326 512.257C743.534 512.845 742.55 513.139 741.374 513.139C740.426 513.139 739.586 512.929 738.854 512.509C738.122 512.077 737.546 511.477 737.126 510.709C736.718 509.929 736.514 509.029 736.514 508.009ZM750.043 499.657V512.977H747.991V499.657H750.043ZM761.827 507.775C761.827 508.147 761.803 508.483 761.755 508.783H754.177C754.237 509.575 754.531 510.211 755.059 510.691C755.587 511.171 756.235 511.411 757.003 511.411C758.107 511.411 758.887 510.949 759.343 510.025H761.557C761.257 510.937 760.711 511.687 759.919 512.275C759.139 512.851 758.167 513.139 757.003 513.139C756.055 513.139 755.203 512.929 754.447 512.509C753.703 512.077 753.115 511.477 752.683 510.709C752.263 509.929 752.053 509.029 752.053 508.009C752.053 506.989 752.257 506.095 752.665 505.327C753.085 504.547 753.667 503.947 754.411 503.527C755.167 503.107 756.031 502.897 757.003 502.897C757.939 502.897 758.773 503.101 759.505 503.509C760.237 503.917 760.807 504.493 761.215 505.237C761.623 505.969 761.827 506.815 761.827 507.775ZM759.685 507.127C759.673 506.371 759.403 505.765 758.875 505.309C758.347 504.853 757.693 504.625 756.913 504.625C756.205 504.625 755.599 504.853 755.095 505.309C754.591 505.753 754.291 506.359 754.195 507.127H759.685ZM767.447 513.139C766.667 513.139 765.965 513.001 765.341 512.725C764.729 512.437 764.243 512.053 763.883 511.573C763.523 511.081 763.331 510.535 763.307 509.935H765.431C765.467 510.355 765.665 510.709 766.025 510.997C766.397 511.273 766.859 511.411 767.411 511.411C767.987 511.411 768.431 511.303 768.743 511.087C769.067 510.859 769.229 510.571 769.229 510.223C769.229 509.851 769.049 509.575 768.689 509.395C768.341 509.215 767.783 509.017 767.015 508.801C766.271 508.597 765.665 508.399 765.197 508.207C764.729 508.015 764.321 507.721 763.973 507.325C763.637 506.929 763.469 506.407 763.469 505.759C763.469 505.231 763.625 504.751 763.937 504.319C764.249 503.875 764.693 503.527 765.269 503.275C765.857 503.023 766.529 502.897 767.285 502.897C768.413 502.897 769.319 503.185 770.003 503.761C770.699 504.325 771.071 505.099 771.119 506.083H769.067C769.031 505.639 768.851 505.285 768.527 505.021C768.203 504.757 767.765 504.625 767.213 504.625C766.673 504.625 766.259 504.727 765.971 504.931C765.683 505.135 765.539 505.405 765.539 505.741C765.539 506.005 765.635 506.227 765.827 506.407C766.019 506.587 766.253 506.731 766.529 506.839C766.805 506.935 767.213 507.061 767.753 507.217C768.473 507.409 769.061 507.607 769.517 507.811C769.985 508.003 770.387 508.291 770.723 508.675C771.059 509.059 771.233 509.569 771.245 510.205C771.245 510.769 771.089 511.273 770.777 511.717C770.465 512.161 770.021 512.509 769.445 512.761C768.881 513.013 768.215 513.139 767.447 513.139Z" fill="#BAB5B5"/>
<path d="M52.3898 290.734L64.8997 290.678L64.9476 292.729L56.3797 292.768L65.0368 296.544L65.0701 297.966L56.5918 301.837L65.1597 301.799L65.2077 303.85L52.6978 303.907L52.646 301.693L62.3533 297.258L52.4411 292.93L52.3898 290.734ZM64.898 283.68C64.9199 284.616 64.7297 285.463 64.3274 286.22C63.913 286.978 63.3269 287.575 62.569 288.01C61.7992 288.445 60.9042 288.665 59.8842 288.67C58.8762 288.674 57.9771 288.456 57.1867 288.016C56.3963 287.576 55.7821 286.973 55.3442 286.207C54.9062 285.441 54.6762 284.584 54.654 283.636C54.6319 282.688 54.8218 281.83 55.2239 281.06C55.6259 280.29 56.2117 279.682 56.9813 279.234C57.7509 278.787 58.6397 278.561 59.6477 278.557C60.6557 278.552 61.555 278.776 62.3457 279.228C63.1364 279.681 63.7569 280.302 64.2074 281.092C64.6457 281.87 64.8759 282.732 64.898 283.68ZM63.1161 283.688C63.1037 283.16 62.9662 282.669 62.7035 282.214C62.4406 281.747 62.0538 281.371 61.5431 281.086C61.0323 280.8 60.417 280.659 59.697 280.662C58.977 280.665 58.3742 280.806 57.8887 281.084C57.3911 281.362 57.0217 281.73 56.7803 282.187C56.539 282.644 56.4245 283.136 56.4369 283.664C56.4492 284.192 56.5867 284.683 56.8494 285.138C57.1117 285.581 57.498 285.933 58.0082 286.195C58.5063 286.456 59.1154 286.586 59.8354 286.582C60.9034 286.578 61.7251 286.304 62.3005 285.761C62.8635 285.207 63.1354 284.516 63.1161 283.688ZM54.3714 271.549C54.3531 270.769 54.4989 270.073 54.8086 269.459C55.118 268.834 55.5866 268.346 56.2145 267.995C56.8423 267.644 57.6062 267.467 58.5062 267.463L64.3562 267.437L64.4037 269.47L58.8598 269.495C57.9718 269.499 57.299 269.724 56.8414 270.17C56.3718 270.616 56.1459 271.223 56.1639 271.991C56.1818 272.759 56.4361 273.369 56.9268 273.823C57.4052 274.265 58.0884 274.484 58.9763 274.48L64.5203 274.455L64.5683 276.506L54.6504 276.551L54.6024 274.499L55.7364 274.494C55.3205 274.16 54.9926 273.736 54.7525 273.221C54.5122 272.694 54.3851 272.137 54.3714 271.549ZM55.9951 262.464L61.4851 262.439C61.857 262.437 62.1251 262.352 62.2892 262.183C62.4409 262.003 62.5119 261.703 62.5021 261.283L62.4727 260.023L64.1826 260.015L64.2205 261.635C64.2421 262.559 64.0427 263.267 63.6222 263.761C63.2017 264.255 62.5054 264.504 61.5334 264.508L56.0435 264.533L56.0709 265.703L54.3969 265.71L54.3695 264.541L51.9035 264.552L51.8551 262.482L54.3211 262.471L54.2647 260.06L55.9387 260.052L55.9951 262.464ZM53.9386 253.041C53.9209 252.285 54.0672 251.613 54.3775 251.024C54.6874 250.422 55.1565 249.952 55.7846 249.614C56.4125 249.263 57.1764 249.085 58.0764 249.081L63.9263 249.055L63.9739 251.089L58.4299 251.113C57.542 251.117 56.8692 251.342 56.4115 251.788C55.9419 252.234 55.7161 252.841 55.734 253.609C55.752 254.377 56.0063 254.988 56.497 255.441C56.9753 255.883 57.6585 256.102 58.5465 256.098L64.0905 256.073L64.1384 258.125L50.8186 258.184L50.7706 256.133L55.3245 256.113C54.8964 255.766 54.5622 255.33 54.3218 254.803C54.0812 254.264 53.9535 253.677 53.9386 253.041Z" fill="#BAB5B5"/>
</svg>
