<svg width="32" height="38" viewBox="0 0 32 38" fill="none" xmlns="http://www.w3.org/2000/svg">
<path d="M10.8672 4.60938H7.68242C3.97115 4.60938 0.977834 7.64661 1.03189 11.3575V11.3575C1.08484 14.9927 4.04682 17.9119 7.68242 17.9119H16.0963H24.2989C28.0031 17.9119 30.9751 20.9726 30.8661 24.6752V24.6752C30.7615 28.227 27.8521 31.052 24.2989 31.052H21.0493" stroke="#2CA87F" stroke-width="2" stroke-linecap="square"/>
<path d="M17.7461 0.832031C19.9508 0.832148 21.7383 2.61952 21.7383 4.82422C21.7383 5.72602 21.4379 6.55721 20.9336 7.22559L20.9365 7.22852L19.2666 9.42676L18.0654 11.252C17.9198 11.4732 17.5962 11.4742 17.4492 11.2539L16.2598 9.4707L14.7402 7.4502C14.1264 6.74824 13.7539 5.82994 13.7539 4.82422C13.7539 2.61945 15.5413 0.832031 17.7461 0.832031ZM17.7461 3.32422C16.9177 3.32422 16.2461 3.99579 16.2461 4.82422C16.2461 5.6526 16.9177 6.32422 17.7461 6.32422C18.5745 6.32422 19.246 5.6526 19.2461 4.82422C19.2461 3.99579 18.5745 3.32422 17.7461 3.32422Z" fill="#2CA87F"/>
<path d="M14.2539 26.8711C16.4587 26.8711 18.2461 28.6585 18.2461 30.8633C18.246 31.765 17.9458 32.5963 17.4414 33.2646L17.4443 33.2676L15.7744 35.4658L14.5732 37.291C14.4275 37.5118 14.104 37.513 13.957 37.293L12.7676 35.5098L11.2422 33.4814C10.6323 32.7805 10.2618 31.8653 10.2617 30.8633C10.2617 28.6586 12.0492 26.8712 14.2539 26.8711ZM14.2539 29.3633C13.4255 29.3633 12.7539 30.0349 12.7539 30.8633C12.754 31.6917 13.4255 32.3633 14.2539 32.3633C15.0823 32.3633 15.7539 31.6917 15.7539 30.8633C15.7539 30.0349 15.0823 29.3633 14.2539 29.3633Z" fill="#2CA87F"/>
</svg>
