<?xml version="1.0" standalone="no"?>
<!DOCTYPE svg PUBLIC "-//W3C//DTD SVG 20010904//EN"
 "http://www.w3.org/TR/2001/REC-SVG-20010904/DTD/svg10.dtd">
<svg version="1.0" xmlns="http://www.w3.org/2000/svg"
 width="224.000000pt" height="225.000000pt" viewBox="0 0 224.000000 225.000000"
 preserveAspectRatio="xMidYMid meet">

<g transform="translate(0.000000,225.000000) scale(0.100000,-0.100000)"
fill="#000000" stroke="none">
<path d="M975 2239 c-160 -20 -343 -90 -488 -186 -40 -27 -114 -90 -164 -141
l-93 -93 0 46 c0 110 -139 160 -204 72 -19 -26 -21 -40 -18 -150 2 -67 7 -162
11 -210 7 -77 12 -92 36 -117 15 -16 40 -32 55 -35 32 -7 353 31 394 47 34 14
66 62 66 101 0 63 -54 116 -117 117 -26 1 -23 6 55 80 353 338 890 332 1237
-15 180 -181 260 -376 258 -635 0 -165 -20 -251 -93 -395 -86 -172 -212 -299
-391 -395 -59 -32 -82 -51 -94 -76 -32 -67 12 -148 87 -160 27 -5 50 2 109 31
313 158 530 449 600 805 18 93 15 317 -6 415 -32 153 -87 284 -172 412 -49 76
-181 212 -261 272 -225 169 -521 245 -807 210z"/>
<path d="M978 1642 c-55 -33 -58 -53 -58 -379 0 -264 2 -302 18 -333 16 -32
35 -43 232 -132 241 -109 277 -116 329 -72 50 42 54 120 8 164 -12 12 -97 54
-187 94 l-165 73 -5 264 c-5 285 -8 297 -60 324 -38 20 -78 19 -112 -3z"/>
<path d="M54 1151 c-46 -28 -58 -72 -45 -167 14 -98 38 -193 58 -222 23 -37
79 -56 125 -43 54 17 81 59 75 119 -10 97 -46 263 -61 288 -31 46 -99 57 -152
25z"/>
<path d="M345 536 c-60 -26 -83 -102 -50 -166 17 -32 162 -158 212 -184 54
-27 100 -21 139 18 27 27 34 42 34 72 -1 52 -15 74 -75 119 -27 21 -72 59
-100 86 -46 44 -89 70 -118 69 -7 -1 -26 -7 -42 -14z"/>
<path d="M958 231 c-27 -8 -68 -56 -74 -86 -8 -43 18 -100 54 -119 39 -20 162
-30 258 -21 70 6 81 10 111 40 25 25 33 42 33 69 0 45 -23 91 -52 107 -20 11
-300 20 -330 10z"/>
</g>
</svg>
