<svg width="35" height="21" viewBox="0 0 35 21" fill="none" xmlns="http://www.w3.org/2000/svg">
<path d="M7.95568 8.14062H21.7303C23.3888 8.14062 24.7332 9.48508 24.7332 11.1435V11.1435C24.7332 12.802 23.3888 14.1465 21.7303 14.1465H9.76968C8.11598 14.1465 6.77539 15.487 6.77539 17.1407V17.1407C6.77539 18.7944 8.11598 20.135 9.76968 20.135H26.9796" stroke="#2CA87F" stroke-linecap="round" stroke-dasharray="2 2"/>
<path d="M5.00049 3.58301L5.06494 3.59668C5.10495 3.6136 5.13699 3.64549 5.15381 3.68555L5.1665 3.75L5.15381 3.81445C5.12864 3.87438 5.06953 3.91686 5.00049 3.91699M5.00049 3.58301V3.91699M5.00049 3.58301C4.90844 3.58301 4.8335 3.65795 4.8335 3.75L4.84619 3.81445C4.87137 3.87454 4.93126 3.91699 5.00049 3.91699M5.00049 3.58301V3.91699M6.82275 3.55762C6.88341 3.74285 6.9165 3.93712 6.9165 4.13477C6.91649 4.8551 6.59782 5.57456 6.12256 6.23535C5.75842 6.74164 5.33585 7.16383 4.99951 7.46387C4.66329 7.16386 4.24134 6.7413 3.87744 6.23535C3.40222 5.5746 3.08357 4.855 3.0835 4.13477C3.0835 3.9373 3.11571 3.74268 3.17627 3.55762C3.1761 3.55923 3.17643 3.56089 3.17627 3.5625L3.1665 3.75L3.17627 3.9375C3.27018 4.86195 4.05127 5.58301 5.00049 5.58301C6.01286 5.58283 6.8335 4.76241 6.8335 3.75C6.8335 3.685 6.82935 3.62087 6.82275 3.55762Z" stroke="#2CB588" stroke-width="2" stroke-linecap="round" stroke-linejoin="round"/>
<path d="M29.9888 14.6836L30.0142 14.6885C30.0302 14.6952 30.0435 14.7077 30.0503 14.7236L30.0552 14.75L30.0503 14.7764C30.0402 14.8001 30.0162 14.8163 29.9888 14.8164M29.9888 14.6836V14.8164M29.9888 14.6836C29.952 14.6836 29.9214 14.7132 29.9214 14.75L29.9272 14.7764C29.9375 14.8001 29.9613 14.8164 29.9888 14.8164M29.9888 14.6836V14.8164M31.4175 13.7344C31.7946 14.1073 32.0054 14.6116 32.0054 15.1348C32.0054 15.8842 31.6736 16.6242 31.1919 17.2939C30.7982 17.8412 30.3375 18.29 29.9878 18.5957C29.6382 18.29 29.1781 17.8409 28.7847 17.2939C28.3029 16.6242 27.9722 15.8841 27.9722 15.1348C27.9722 14.6772 28.1325 14.2343 28.4253 13.8809L28.5591 13.7344C28.5849 13.7089 28.6121 13.6851 28.6392 13.6611C28.4335 13.9156 28.299 14.2298 28.2642 14.5732L28.2554 14.75L28.2642 14.9268C28.3527 15.801 29.0912 16.4834 29.9888 16.4834C30.9459 16.4832 31.7222 15.7072 31.7222 14.75C31.7222 14.3374 31.5772 13.9588 31.3364 13.6611L31.4175 13.7344Z" stroke="#2CA87F" stroke-width="1.8" stroke-linecap="round" stroke-linejoin="round"/>
</svg>
