<svg width="80" height="80" viewBox="0 0 80 80" fill="none" xmlns="http://www.w3.org/2000/svg">
<g clip-path="url(#clip0_3334_2052)">
<path d="M16.6654 46.6641C12.6229 46.6641 9.33398 49.9528 9.33398 53.9955C9.33398 58.038 12.6229 61.3269 16.6654 61.3269C20.7079 61.3269 23.9968 58.038 23.9968 53.9955C23.9968 49.9528 20.7079 46.6641 16.6654 46.6641ZM16.6654 58.6608C14.0932 58.6608 11.9999 56.5675 11.9999 53.9953C11.9999 51.4231 14.0932 49.3298 16.6654 49.3298C19.2376 49.3298 21.3309 51.423 21.3309 53.9953C21.3307 56.5677 19.2376 58.6608 16.6654 58.6608Z" fill="#161616"/>
<path d="M33.9955 46.6641C29.953 46.6641 26.6641 49.9528 26.6641 53.9955C26.6641 58.038 29.953 61.3269 33.9955 61.3269C38.038 61.3269 41.3269 58.038 41.3269 53.9955C41.3267 49.9528 38.038 46.6641 33.9955 46.6641ZM33.9955 58.6608C31.4233 58.6608 29.33 56.5675 29.33 53.9953C29.33 51.4231 31.4233 49.3298 33.9955 49.3298C36.5677 49.3298 38.6609 51.423 38.6609 53.9953C38.6608 56.5677 36.5677 58.6608 33.9955 58.6608Z" fill="#161616"/>
<path d="M64.6537 46.6641C60.6112 46.6641 57.3223 49.9528 57.3223 53.9955C57.3223 58.038 60.6112 61.3269 64.6537 61.3269C68.6962 61.3269 71.9851 58.038 71.9851 53.9955C71.9851 49.9528 68.6962 46.6641 64.6537 46.6641ZM64.6537 58.6608C62.0815 58.6608 59.9882 56.5675 59.9882 53.9953C59.9882 51.4231 62.0813 49.3298 64.6537 49.3298C67.2259 49.3298 69.3191 51.423 69.3191 53.9953C69.319 56.5677 67.2259 58.6608 64.6537 58.6608Z" fill="#161616"/>
<path d="M71.9666 42.4543C71.5104 39.7148 70.0785 33.3457 66.6529 33.3457H61.321C60.5849 33.3457 60.1426 33.9307 60.1426 34.6668V42.6646C60.1426 43.4007 60.5848 44.0095 61.321 44.0095H70.6518C71.0437 44.0095 71.4159 43.8312 71.6691 43.5324C71.9224 43.233 72.031 42.841 71.9666 42.4543ZM62.8087 41.3437V36.0118H66.6524C67.2526 36.0118 68.3434 38.3445 69.0262 41.3437H62.8087Z" fill="#161616"/>
<path d="M52.1425 26.6816H49.4766V46.6763H52.1425V26.6816Z" fill="#161616"/>
<path d="M41.4784 29.3477H38.8125V45.3434H41.4784V29.3477Z" fill="#161616"/>
<path d="M30.8144 30.6797H28.1484V42.6766H30.8144V30.6797Z" fill="#161616"/>
<path d="M20.1503 34.6797H17.4844V41.3445H20.1503V34.6797Z" fill="#161616"/>
<path d="M54.8083 54.6738H44.1445V57.3398H54.8083V54.6738Z" fill="#161616"/>
<path d="M72.6906 28.2117C72.479 28.0797 72.2343 28.0152 71.9843 28.0152H58.4759V20.0055C58.4759 19.6103 58.3599 19.2361 58.0573 18.983C57.7546 18.7291 57.3806 18.6277 56.9959 18.6933L5.08509 28.0242C4.52274 28.1258 4.09462 28.5736 4.00993 29.1384L0.0147753 55.798C-0.0431935 56.182 0.0713378 56.5778 0.324463 56.8714C0.577588 57.1656 0.948682 57.3406 1.33649 57.3406H5.49009V54.6747H2.88446L6.45321 30.4852L55.8099 21.5994V29.3362C55.8099 30.0723 56.5249 30.6811 57.261 30.6811H71.5899C79.6288 36.013 77.1105 50.6758 76.2587 54.6747H74.8049V57.3406H77.3163C77.9204 57.3406 78.4488 56.9316 78.6045 56.3484C78.8323 55.4933 84.0593 35.3172 72.6906 28.2117Z" fill="#161616"/>
</g>
<defs>
<clipPath id="clip0_3334_2052">
<rect width="80" height="80" fill="white"/>
</clipPath>
</defs>
</svg>
