<svg width="77" height="70" viewBox="0 0 77 70" fill="none" xmlns="http://www.w3.org/2000/svg">
<path d="M29.4737 0H7.36842C3.2986 0 0 3.2986 0 7.36842V62.6316C0 66.7014 3.2986 70 7.36842 70H29.4737C33.5435 70 36.8421 66.7014 36.8421 62.6316V7.36842C36.8421 3.2986 33.5435 0 29.4737 0ZM28.7356 55.6193L19.5251 59.6375C19.1726 59.791 18.7993 59.8684 18.4211 59.8684C18.0428 59.8684 17.6695 59.791 17.317 59.6375L8.10649 55.6193C6.70649 55.0089 6.06667 53.3793 6.67825 51.9818C7.28982 50.5818 8.92684 49.953 10.3158 50.5535L18.4211 54.0903L26.5275 50.5535C27.9239 49.953 29.5535 50.5818 30.1651 51.9818C30.7767 53.3793 30.1356 55.0089 28.7356 55.6193ZM28.7356 35.5232L19.5251 39.5414C19.1726 39.6949 18.7981 39.7723 18.4211 39.7723C18.044 39.7723 17.6695 39.6949 17.317 39.5414L8.10649 35.5232C6.70649 34.9128 6.06667 33.2832 6.67825 31.8856C7.28982 30.4856 8.92684 29.8544 10.3158 30.4574L18.4211 33.9942L26.5275 30.4574C27.9239 29.8544 29.5535 30.4856 30.1651 31.8856C30.7767 33.2844 30.1356 34.914 28.7356 35.5232ZM28.7356 15.427L19.5251 19.4453C19.1726 19.5988 18.7981 19.6761 18.4211 19.6761C18.044 19.6761 17.6695 19.5988 17.317 19.4453L8.10649 15.427C6.70649 14.8167 6.06667 13.187 6.67825 11.7895C7.28982 10.3882 8.92684 9.75702 10.3158 10.3612L18.4211 13.8981L26.5275 10.3612C27.9239 9.75702 29.5535 10.3882 30.1651 11.7895C30.7767 13.1882 30.1356 14.8179 28.7356 15.427Z" fill="#2CA67E"/>
<path d="M68.9954 44.8H62.4457C60.476 44.8 58.8731 43.2131 58.8731 41.2632V33.0105H59.4685C60.784 33.0105 61.8503 31.955 61.8503 30.6526V27.4695C67.3917 25.5211 71.3771 20.2936 71.3771 14.1474C71.3771 6.34588 64.9671 0 57.0868 0C49.2065 0 42.7966 6.34588 42.7966 14.1474C42.7966 20.2936 46.782 25.5211 52.3234 27.4695V30.6526C52.3234 31.955 53.3896 33.0105 54.7051 33.0105H55.3006V41.2632C55.3006 45.1639 58.5055 48.3368 62.4457 48.3368H68.9954C70.9651 48.3368 72.568 49.9237 72.568 51.8737C72.568 53.8237 70.9651 55.4105 68.9954 55.4105H36.8423V58.9474H68.9954C72.9355 58.9474 76.1405 55.7744 76.1405 51.8737C76.1405 47.9729 72.9355 44.8 68.9954 44.8ZM46.3691 14.1474C46.3691 8.29665 51.177 3.53684 57.0868 3.53684C62.9967 3.53684 67.8045 8.29665 67.8045 14.1474C67.8045 19.9981 62.9967 24.7579 57.0868 24.7579C51.177 24.7579 46.3691 19.9981 46.3691 14.1474Z" fill="#2CA67E"/>
<path d="M55.6211 17.5703L60.3414 10.3583C61.0227 9.2496 62.9915 10.0295 62.5741 11.2241L60.0559 19.2902C58.9484 22.4069 53.8887 20.4492 55.6211 17.5703Z" fill="#2CA67E"/>
</svg>
