<svg width="539" height="343" viewBox="0 0 539 343" fill="none" xmlns="http://www.w3.org/2000/svg">
<rect width="539" height="343" fill="#F5F5F5"/>
<rect width="539" height="343" fill="white"/>
<path d="M54.806 265.203C54.806 263.712 55.0487 262.551 55.534 261.719C56.0193 260.878 56.8687 260.458 58.082 260.458C59.2867 260.458 60.1317 260.878 60.617 261.719C61.1023 262.551 61.345 263.712 61.345 265.203C61.345 266.72 61.1023 267.898 60.617 268.739C60.1317 269.58 59.2867 270 58.082 270C56.8687 270 56.0193 269.58 55.534 268.739C55.0487 267.898 54.806 266.72 54.806 265.203ZM60.175 265.203C60.175 264.449 60.123 263.812 60.019 263.292C59.9237 262.763 59.72 262.339 59.408 262.018C59.1047 261.697 58.6627 261.537 58.082 261.537C57.4927 261.537 57.042 261.697 56.73 262.018C56.4267 262.339 56.223 262.763 56.119 263.292C56.0237 263.812 55.976 264.449 55.976 265.203C55.976 265.983 56.0237 266.637 56.119 267.166C56.223 267.695 56.4267 268.119 56.73 268.44C57.042 268.761 57.4927 268.921 58.082 268.921C58.6627 268.921 59.1047 268.761 59.408 268.44C59.72 268.119 59.9237 267.695 60.019 267.166C60.123 266.637 60.175 265.983 60.175 265.203Z" fill="#BAB5B5"/>
<path d="M54.494 219.68V218.601H56.938V228H55.742V219.68H54.494Z" fill="#BAB5B5"/>
<path d="M54.663 185.051C55.7637 184.167 56.626 183.443 57.25 182.88C57.874 182.308 58.3983 181.714 58.823 181.099C59.2563 180.475 59.473 179.864 59.473 179.266C59.473 178.703 59.3343 178.261 59.057 177.94C58.7883 177.611 58.3507 177.446 57.744 177.446C57.1547 177.446 56.6953 177.632 56.366 178.005C56.0453 178.369 55.872 178.859 55.846 179.474H54.702C54.7367 178.503 55.0313 177.754 55.586 177.225C56.1407 176.696 56.8557 176.432 57.731 176.432C58.6237 176.432 59.33 176.679 59.85 177.173C60.3787 177.667 60.643 178.347 60.643 179.214C60.643 179.933 60.4263 180.635 59.993 181.32C59.5683 181.996 59.083 182.594 58.537 183.114C57.991 183.625 57.2933 184.223 56.444 184.908H60.916V185.896H54.663V185.051Z" fill="#BAB5B5"/>
<path d="M54.9 137.885C54.97 136.965 55.325 136.245 55.965 135.725C56.605 135.205 57.435 134.945 58.455 134.945C59.135 134.945 59.72 135.07 60.21 135.32C60.71 135.56 61.085 135.89 61.335 136.31C61.595 136.73 61.725 137.205 61.725 137.735C61.725 138.355 61.545 138.89 61.185 139.34C60.835 139.79 60.375 140.08 59.805 140.21V140.285C60.455 140.445 60.97 140.76 61.35 141.23C61.73 141.7 61.92 142.315 61.92 143.075C61.92 143.645 61.79 144.16 61.53 144.62C61.27 145.07 60.88 145.425 60.36 145.685C59.84 145.945 59.215 146.075 58.485 146.075C57.425 146.075 56.555 145.8 55.875 145.25C55.195 144.69 54.815 143.9 54.735 142.88H56.055C56.125 143.48 56.37 143.97 56.79 144.35C57.21 144.73 57.77 144.92 58.47 144.92C59.17 144.92 59.7 144.74 60.06 144.38C60.43 144.01 60.615 143.535 60.615 142.955C60.615 142.205 60.365 141.665 59.865 141.335C59.365 141.005 58.61 140.84 57.6 140.84H57.255V139.7H57.615C58.535 139.69 59.23 139.54 59.7 139.25C60.17 138.95 60.405 138.49 60.405 137.87C60.405 137.34 60.23 136.915 59.88 136.595C59.54 136.275 59.05 136.115 58.41 136.115C57.79 136.115 57.29 136.275 56.91 136.595C56.53 136.915 56.305 137.345 56.235 137.885H54.9Z" fill="#BAB5B5"/>
<path d="M54.52 99.907V99.01L59.083 92.692H60.5V98.88H61.8V99.907H60.5V102H59.33V99.907H54.52ZM59.382 93.927L55.885 98.88H59.382V93.927Z" fill="#BAB5B5"/>
<path d="M60.799 51.628H56.236V54.592C56.4353 54.3147 56.73 54.0893 57.12 53.916C57.51 53.734 57.9303 53.643 58.381 53.643C59.1003 53.643 59.6853 53.7947 60.136 54.098C60.5867 54.3927 60.9073 54.7783 61.098 55.255C61.2973 55.723 61.397 56.2213 61.397 56.75C61.397 57.374 61.28 57.933 61.046 58.427C60.812 58.921 60.4523 59.311 59.967 59.597C59.4903 59.883 58.8967 60.026 58.186 60.026C57.276 60.026 56.5393 59.792 55.976 59.324C55.4127 58.856 55.0703 58.232 54.949 57.452H56.106C56.2187 57.946 56.457 58.3317 56.821 58.609C57.185 58.8863 57.6443 59.025 58.199 59.025C58.8837 59.025 59.3993 58.8213 59.746 58.414C60.0927 57.998 60.266 57.452 60.266 56.776C60.266 56.1 60.0927 55.58 59.746 55.216C59.3993 54.8433 58.888 54.657 58.212 54.657C57.7527 54.657 57.3497 54.7697 57.003 54.995C56.665 55.2117 56.418 55.5107 56.262 55.892H55.144V50.588H60.799V51.628Z" fill="#BAB5B5"/>
<path d="M75.109 288.091C74.2683 288.091 73.5013 287.896 72.808 287.506C72.1147 287.107 71.5643 286.557 71.157 285.855C70.7583 285.144 70.559 284.347 70.559 283.463C70.559 282.579 70.7583 281.786 71.157 281.084C71.5643 280.373 72.1147 279.823 72.808 279.433C73.5013 279.034 74.2683 278.835 75.109 278.835C75.9583 278.835 76.7297 279.034 77.423 279.433C78.1163 279.823 78.6623 280.369 79.061 281.071C79.4597 281.773 79.659 282.57 79.659 283.463C79.659 284.356 79.4597 285.153 79.061 285.855C78.6623 286.557 78.1163 287.107 77.423 287.506C76.7297 287.896 75.9583 288.091 75.109 288.091ZM75.109 287.064C75.7417 287.064 76.3093 286.917 76.812 286.622C77.3233 286.327 77.722 285.907 78.008 285.361C78.3027 284.815 78.45 284.182 78.45 283.463C78.45 282.735 78.3027 282.102 78.008 281.565C77.722 281.019 77.3277 280.599 76.825 280.304C76.3223 280.009 75.7503 279.862 75.109 279.862C74.4677 279.862 73.8957 280.009 73.393 280.304C72.8903 280.599 72.4917 281.019 72.197 281.565C71.911 282.102 71.768 282.735 71.768 283.463C71.768 284.182 71.911 284.815 72.197 285.361C72.4917 285.907 72.8903 286.327 73.393 286.622C73.9043 286.917 74.4763 287.064 75.109 287.064ZM80.7787 284.425C80.7787 283.688 80.9261 283.047 81.2207 282.501C81.5154 281.946 81.9227 281.517 82.4427 281.214C82.9714 280.911 83.5737 280.759 84.2497 280.759C85.1251 280.759 85.8444 280.971 86.4077 281.396C86.9797 281.821 87.3567 282.41 87.5387 283.164H86.2647C86.1434 282.731 85.9051 282.388 85.5497 282.137C85.2031 281.886 84.7697 281.76 84.2497 281.76C83.5737 281.76 83.0277 281.994 82.6117 282.462C82.1957 282.921 81.9877 283.576 81.9877 284.425C81.9877 285.283 82.1957 285.946 82.6117 286.414C83.0277 286.882 83.5737 287.116 84.2497 287.116C84.7697 287.116 85.2031 286.995 85.5497 286.752C85.8964 286.509 86.1347 286.163 86.2647 285.712H87.5387C87.3481 286.44 86.9667 287.025 86.3947 287.467C85.8227 287.9 85.1077 288.117 84.2497 288.117C83.5737 288.117 82.9714 287.965 82.4427 287.662C81.9227 287.359 81.5154 286.93 81.2207 286.375C80.9261 285.82 80.7787 285.17 80.7787 284.425ZM90.5602 281.851V286.05C90.5602 286.397 90.6339 286.644 90.7812 286.791C90.9285 286.93 91.1842 286.999 91.5482 286.999H92.4192V288H91.3532C90.6945 288 90.2005 287.848 89.8712 287.545C89.5419 287.242 89.3772 286.743 89.3772 286.05V281.851H88.4542V280.876H89.3772V279.082H90.5602V280.876H92.4192V281.851H90.5602ZM94.0346 278.939H95.3476L94.0996 281.89H93.2676L94.0346 278.939ZM99.8241 287.051C100.925 286.167 101.787 285.443 102.411 284.88C103.035 284.308 103.559 283.714 103.984 283.099C104.417 282.475 104.634 281.864 104.634 281.266C104.634 280.703 104.495 280.261 104.218 279.94C103.949 279.611 103.512 279.446 102.905 279.446C102.316 279.446 101.856 279.632 101.527 280.005C101.206 280.369 101.033 280.859 101.007 281.474H99.8631C99.8978 280.503 100.192 279.754 100.747 279.225C101.302 278.696 102.017 278.432 102.892 278.432C103.785 278.432 104.491 278.679 105.011 279.173C105.54 279.667 105.804 280.347 105.804 281.214C105.804 281.933 105.587 282.635 105.154 283.32C104.729 283.996 104.244 284.594 103.698 285.114C103.152 285.625 102.454 286.223 101.605 286.908H106.077V287.896H99.8241V287.051ZM107.419 280.967C107.479 280.17 107.787 279.546 108.342 279.095C108.896 278.644 109.616 278.419 110.5 278.419C111.089 278.419 111.596 278.527 112.021 278.744C112.454 278.952 112.779 279.238 112.996 279.602C113.221 279.966 113.334 280.378 113.334 280.837C113.334 281.374 113.178 281.838 112.866 282.228C112.562 282.618 112.164 282.869 111.67 282.982V283.047C112.233 283.186 112.679 283.459 113.009 283.866C113.338 284.273 113.503 284.806 113.503 285.465C113.503 285.959 113.39 286.405 113.165 286.804C112.939 287.194 112.601 287.502 112.151 287.727C111.7 287.952 111.158 288.065 110.526 288.065C109.607 288.065 108.853 287.827 108.264 287.35C107.674 286.865 107.345 286.18 107.276 285.296H108.42C108.48 285.816 108.693 286.241 109.057 286.57C109.421 286.899 109.906 287.064 110.513 287.064C111.119 287.064 111.579 286.908 111.891 286.596C112.211 286.275 112.372 285.864 112.372 285.361C112.372 284.711 112.155 284.243 111.722 283.957C111.288 283.671 110.634 283.528 109.759 283.528H109.46V282.54H109.772C110.569 282.531 111.171 282.401 111.579 282.15C111.986 281.89 112.19 281.491 112.19 280.954C112.19 280.495 112.038 280.126 111.735 279.849C111.44 279.572 111.015 279.433 110.461 279.433C109.923 279.433 109.49 279.572 109.161 279.849C108.831 280.126 108.636 280.499 108.576 280.967H107.419Z" fill="#BAB5B5"/>
<path d="M166.125 288H164.942L160.184 280.785V288H159.001V278.926H160.184L164.942 286.128V278.926H166.125V288ZM171.249 288.117C170.581 288.117 169.975 287.965 169.429 287.662C168.891 287.359 168.467 286.93 168.155 286.375C167.851 285.812 167.7 285.162 167.7 284.425C167.7 283.697 167.856 283.056 168.168 282.501C168.488 281.938 168.922 281.509 169.468 281.214C170.014 280.911 170.625 280.759 171.301 280.759C171.977 280.759 172.588 280.911 173.134 281.214C173.68 281.509 174.109 281.933 174.421 282.488C174.741 283.043 174.902 283.688 174.902 284.425C174.902 285.162 174.737 285.812 174.408 286.375C174.087 286.93 173.649 287.359 173.095 287.662C172.54 287.965 171.925 288.117 171.249 288.117ZM171.249 287.077C171.673 287.077 172.072 286.977 172.445 286.778C172.817 286.579 173.116 286.28 173.342 285.881C173.576 285.482 173.693 284.997 173.693 284.425C173.693 283.853 173.58 283.368 173.355 282.969C173.129 282.57 172.835 282.276 172.471 282.085C172.107 281.886 171.712 281.786 171.288 281.786C170.854 281.786 170.456 281.886 170.092 282.085C169.736 282.276 169.45 282.57 169.234 282.969C169.017 283.368 168.909 283.853 168.909 284.425C168.909 285.006 169.013 285.495 169.221 285.894C169.437 286.293 169.723 286.592 170.079 286.791C170.434 286.982 170.824 287.077 171.249 287.077ZM179.109 286.908L181.319 280.876H182.58L179.785 288H178.407L175.612 280.876H176.886L179.109 286.908ZM183.926 278.939H185.239L183.991 281.89H183.159L183.926 278.939ZM189.716 287.051C190.816 286.167 191.679 285.443 192.303 284.88C192.927 284.308 193.451 283.714 193.876 283.099C194.309 282.475 194.526 281.864 194.526 281.266C194.526 280.703 194.387 280.261 194.11 279.94C193.841 279.611 193.403 279.446 192.797 279.446C192.207 279.446 191.748 279.632 191.419 280.005C191.098 280.369 190.925 280.859 190.899 281.474H189.755C189.789 280.503 190.084 279.754 190.639 279.225C191.193 278.696 191.908 278.432 192.784 278.432C193.676 278.432 194.383 278.679 194.903 279.173C195.431 279.667 195.696 280.347 195.696 281.214C195.696 281.933 195.479 282.635 195.046 283.32C194.621 283.996 194.136 284.594 193.59 285.114C193.044 285.625 192.346 286.223 191.497 286.908H195.969V287.896H189.716V287.051ZM197.31 280.967C197.371 280.17 197.679 279.546 198.233 279.095C198.788 278.644 199.507 278.419 200.391 278.419C200.981 278.419 201.488 278.527 201.912 278.744C202.346 278.952 202.671 279.238 202.887 279.602C203.113 279.966 203.225 280.378 203.225 280.837C203.225 281.374 203.069 281.838 202.757 282.228C202.454 282.618 202.055 282.869 201.561 282.982V283.047C202.125 283.186 202.571 283.459 202.9 283.866C203.23 284.273 203.394 284.806 203.394 285.465C203.394 285.959 203.282 286.405 203.056 286.804C202.831 287.194 202.493 287.502 202.042 287.727C201.592 287.952 201.05 288.065 200.417 288.065C199.499 288.065 198.745 287.827 198.155 287.35C197.566 286.865 197.237 286.18 197.167 285.296H198.311C198.372 285.816 198.584 286.241 198.948 286.57C199.312 286.899 199.798 287.064 200.404 287.064C201.011 287.064 201.47 286.908 201.782 286.596C202.103 286.275 202.263 285.864 202.263 285.361C202.263 284.711 202.047 284.243 201.613 283.957C201.18 283.671 200.526 283.528 199.65 283.528H199.351V282.54H199.663C200.461 282.531 201.063 282.401 201.47 282.15C201.878 281.89 202.081 281.491 202.081 280.954C202.081 280.495 201.93 280.126 201.626 279.849C201.332 279.572 200.907 279.433 200.352 279.433C199.815 279.433 199.382 279.572 199.052 279.849C198.723 280.126 198.528 280.499 198.467 280.967H197.31Z" fill="#BAB5B5"/>
<path d="M259.822 278.939C260.81 278.939 261.664 279.125 262.383 279.498C263.111 279.862 263.666 280.386 264.047 281.071C264.437 281.756 264.632 282.562 264.632 283.489C264.632 284.416 264.437 285.222 264.047 285.907C263.666 286.583 263.111 287.103 262.383 287.467C261.664 287.822 260.81 288 259.822 288H257.001V278.939H259.822ZM259.822 287.025C260.992 287.025 261.885 286.717 262.5 286.102C263.115 285.478 263.423 284.607 263.423 283.489C263.423 282.362 263.111 281.483 262.487 280.85C261.872 280.217 260.983 279.901 259.822 279.901H258.184V287.025H259.822ZM272.692 284.165C272.692 284.39 272.679 284.629 272.653 284.88H266.959C267.003 285.582 267.241 286.132 267.674 286.531C268.116 286.921 268.649 287.116 269.273 287.116C269.785 287.116 270.209 286.999 270.547 286.765C270.894 286.522 271.137 286.202 271.275 285.803H272.549C272.359 286.488 271.977 287.047 271.405 287.48C270.833 287.905 270.123 288.117 269.273 288.117C268.597 288.117 267.991 287.965 267.453 287.662C266.925 287.359 266.509 286.93 266.205 286.375C265.902 285.812 265.75 285.162 265.75 284.425C265.75 283.688 265.898 283.043 266.192 282.488C266.487 281.933 266.899 281.509 267.427 281.214C267.965 280.911 268.58 280.759 269.273 280.759C269.949 280.759 270.547 280.906 271.067 281.201C271.587 281.496 271.986 281.903 272.263 282.423C272.549 282.934 272.692 283.515 272.692 284.165ZM271.47 283.918C271.47 283.467 271.371 283.082 271.171 282.761C270.972 282.432 270.699 282.185 270.352 282.02C270.014 281.847 269.637 281.76 269.221 281.76C268.623 281.76 268.112 281.951 267.687 282.332C267.271 282.713 267.033 283.242 266.972 283.918H271.47ZM273.812 284.425C273.812 283.688 273.959 283.047 274.254 282.501C274.549 281.946 274.956 281.517 275.476 281.214C276.005 280.911 276.607 280.759 277.283 280.759C278.158 280.759 278.878 280.971 279.441 281.396C280.013 281.821 280.39 282.41 280.572 283.164H279.298C279.177 282.731 278.938 282.388 278.583 282.137C278.236 281.886 277.803 281.76 277.283 281.76C276.607 281.76 276.061 281.994 275.645 282.462C275.229 282.921 275.021 283.576 275.021 284.425C275.021 285.283 275.229 285.946 275.645 286.414C276.061 286.882 276.607 287.116 277.283 287.116C277.803 287.116 278.236 286.995 278.583 286.752C278.93 286.509 279.168 286.163 279.298 285.712H280.572C280.381 286.44 280 287.025 279.428 287.467C278.856 287.9 278.141 288.117 277.283 288.117C276.607 288.117 276.005 287.965 275.476 287.662C274.956 287.359 274.549 286.93 274.254 286.375C273.959 285.82 273.812 285.17 273.812 284.425ZM282.332 278.939H283.645L282.397 281.89H281.565L282.332 278.939ZM291.588 287.051C292.688 286.167 293.551 285.443 294.175 284.88C294.799 284.308 295.323 283.714 295.748 283.099C296.181 282.475 296.398 281.864 296.398 281.266C296.398 280.703 296.259 280.261 295.982 279.94C295.713 279.611 295.275 279.446 294.669 279.446C294.079 279.446 293.62 279.632 293.291 280.005C292.97 280.369 292.797 280.859 292.771 281.474H291.627C291.661 280.503 291.956 279.754 292.511 279.225C293.065 278.696 293.78 278.432 294.656 278.432C295.548 278.432 296.255 278.679 296.775 279.173C297.303 279.667 297.568 280.347 297.568 281.214C297.568 281.933 297.351 282.635 296.918 283.32C296.493 283.996 296.008 284.594 295.462 285.114C294.916 285.625 294.218 286.223 293.369 286.908H297.841V287.896H291.588V287.051ZM299.182 280.967C299.243 280.17 299.551 279.546 300.105 279.095C300.66 278.644 301.379 278.419 302.263 278.419C302.853 278.419 303.36 278.527 303.784 278.744C304.218 278.952 304.543 279.238 304.759 279.602C304.985 279.966 305.097 280.378 305.097 280.837C305.097 281.374 304.941 281.838 304.629 282.228C304.326 282.618 303.927 282.869 303.433 282.982V283.047C303.997 283.186 304.443 283.459 304.772 283.866C305.102 284.273 305.266 284.806 305.266 285.465C305.266 285.959 305.154 286.405 304.928 286.804C304.703 287.194 304.365 287.502 303.914 287.727C303.464 287.952 302.922 288.065 302.289 288.065C301.371 288.065 300.617 287.827 300.027 287.35C299.438 286.865 299.109 286.18 299.039 285.296H300.183C300.244 285.816 300.456 286.241 300.82 286.57C301.184 286.899 301.67 287.064 302.276 287.064C302.883 287.064 303.342 286.908 303.654 286.596C303.975 286.275 304.135 285.864 304.135 285.361C304.135 284.711 303.919 284.243 303.485 283.957C303.052 283.671 302.398 283.528 301.522 283.528H301.223V282.54H301.535C302.333 282.531 302.935 282.401 303.342 282.15C303.75 281.89 303.953 281.491 303.953 280.954C303.953 280.495 303.802 280.126 303.498 279.849C303.204 279.572 302.779 279.433 302.224 279.433C301.687 279.433 301.254 279.572 300.924 279.849C300.595 280.126 300.4 280.499 300.339 280.967H299.182Z" fill="#BAB5B5"/>
<path d="M357.564 278.939V285.634C357.564 286.379 357.334 286.977 356.875 287.428C356.416 287.87 355.809 288.091 355.055 288.091C354.292 288.091 353.681 287.866 353.222 287.415C352.763 286.956 352.533 286.332 352.533 285.543H353.716C353.725 285.985 353.837 286.345 354.054 286.622C354.279 286.899 354.613 287.038 355.055 287.038C355.497 287.038 355.826 286.908 356.043 286.648C356.26 286.379 356.368 286.041 356.368 285.634V278.939H357.564ZM359.453 284.412C359.453 283.684 359.6 283.047 359.895 282.501C360.189 281.946 360.592 281.517 361.104 281.214C361.624 280.911 362.2 280.759 362.833 280.759C363.457 280.759 363.998 280.893 364.458 281.162C364.917 281.431 365.259 281.769 365.485 282.176V280.876H366.681V288H365.485V286.674C365.251 287.09 364.9 287.437 364.432 287.714C363.972 287.983 363.435 288.117 362.82 288.117C362.187 288.117 361.615 287.961 361.104 287.649C360.592 287.337 360.189 286.899 359.895 286.336C359.6 285.773 359.453 285.131 359.453 284.412ZM365.485 284.425C365.485 283.888 365.376 283.42 365.16 283.021C364.943 282.622 364.648 282.319 364.276 282.111C363.912 281.894 363.509 281.786 363.067 281.786C362.625 281.786 362.222 281.89 361.858 282.098C361.494 282.306 361.203 282.609 360.987 283.008C360.77 283.407 360.662 283.875 360.662 284.412C360.662 284.958 360.77 285.435 360.987 285.842C361.203 286.241 361.494 286.548 361.858 286.765C362.222 286.973 362.625 287.077 363.067 287.077C363.509 287.077 363.912 286.973 364.276 286.765C364.648 286.548 364.943 286.241 365.16 285.842C365.376 285.435 365.485 284.962 365.485 284.425ZM372.151 280.746C373.017 280.746 373.719 281.01 374.257 281.539C374.794 282.059 375.063 282.813 375.063 283.801V288H373.893V283.97C373.893 283.259 373.715 282.718 373.36 282.345C373.004 281.964 372.519 281.773 371.904 281.773C371.28 281.773 370.781 281.968 370.409 282.358C370.045 282.748 369.863 283.316 369.863 284.061V288H368.68V280.876H369.863V281.89C370.097 281.526 370.413 281.244 370.812 281.045C371.219 280.846 371.665 280.746 372.151 280.746ZM377.177 278.939H378.49L377.242 281.89H376.41L377.177 278.939ZM386.433 287.051C387.533 286.167 388.396 285.443 389.02 284.88C389.644 284.308 390.168 283.714 390.593 283.099C391.026 282.475 391.243 281.864 391.243 281.266C391.243 280.703 391.104 280.261 390.827 279.94C390.558 279.611 390.12 279.446 389.514 279.446C388.924 279.446 388.465 279.632 388.136 280.005C387.815 280.369 387.642 280.859 387.616 281.474H386.472C386.506 280.503 386.801 279.754 387.356 279.225C387.91 278.696 388.625 278.432 389.501 278.432C390.393 278.432 391.1 278.679 391.62 279.173C392.148 279.667 392.413 280.347 392.413 281.214C392.413 281.933 392.196 282.635 391.763 283.32C391.338 283.996 390.853 284.594 390.307 285.114C389.761 285.625 389.063 286.223 388.214 286.908H392.686V287.896H386.433V287.051ZM394.027 280.967C394.088 280.17 394.395 279.546 394.95 279.095C395.505 278.644 396.224 278.419 397.108 278.419C397.697 278.419 398.204 278.527 398.629 278.744C399.062 278.952 399.387 279.238 399.604 279.602C399.829 279.966 399.942 280.378 399.942 280.837C399.942 281.374 399.786 281.838 399.474 282.228C399.171 282.618 398.772 282.869 398.278 282.982V283.047C398.841 283.186 399.288 283.459 399.617 283.866C399.946 284.273 400.111 284.806 400.111 285.465C400.111 285.959 399.998 286.405 399.773 286.804C399.548 287.194 399.21 287.502 398.759 287.727C398.308 287.952 397.767 288.065 397.134 288.065C396.215 288.065 395.461 287.827 394.872 287.35C394.283 286.865 393.953 286.18 393.884 285.296H395.028C395.089 285.816 395.301 286.241 395.665 286.57C396.029 286.899 396.514 287.064 397.121 287.064C397.728 287.064 398.187 286.908 398.499 286.596C398.82 286.275 398.98 285.864 398.98 285.361C398.98 284.711 398.763 284.243 398.33 283.957C397.897 283.671 397.242 283.528 396.367 283.528H396.068V282.54H396.38C397.177 282.531 397.78 282.401 398.187 282.15C398.594 281.89 398.798 281.491 398.798 280.954C398.798 280.495 398.646 280.126 398.343 279.849C398.048 279.572 397.624 279.433 397.069 279.433C396.532 279.433 396.098 279.572 395.769 279.849C395.44 280.126 395.245 280.499 395.184 280.967H394.027Z" fill="#BAB5B5"/>
<path d="M454.123 278.939V279.901H450.184V282.956H453.382V283.918H450.184V288H449.001V278.939H454.123ZM462.052 284.165C462.052 284.39 462.039 284.629 462.013 284.88H456.319C456.362 285.582 456.6 286.132 457.034 286.531C457.476 286.921 458.009 287.116 458.633 287.116C459.144 287.116 459.569 286.999 459.907 286.765C460.253 286.522 460.496 286.202 460.635 285.803H461.909C461.718 286.488 461.337 287.047 460.765 287.48C460.193 287.905 459.482 288.117 458.633 288.117C457.957 288.117 457.35 287.965 456.813 287.662C456.284 287.359 455.868 286.93 455.565 286.375C455.261 285.812 455.11 285.162 455.11 284.425C455.11 283.688 455.257 283.043 455.552 282.488C455.846 281.933 456.258 281.509 456.787 281.214C457.324 280.911 457.939 280.759 458.633 280.759C459.309 280.759 459.907 280.906 460.427 281.201C460.947 281.496 461.345 281.903 461.623 282.423C461.909 282.934 462.052 283.515 462.052 284.165ZM460.83 283.918C460.83 283.467 460.73 283.082 460.531 282.761C460.331 282.432 460.058 282.185 459.712 282.02C459.374 281.847 458.997 281.76 458.581 281.76C457.983 281.76 457.471 281.951 457.047 282.332C456.631 282.713 456.392 283.242 456.332 283.918H460.83ZM464.796 282.202C465.039 281.777 465.394 281.431 465.862 281.162C466.33 280.893 466.863 280.759 467.461 280.759C468.103 280.759 468.679 280.911 469.19 281.214C469.702 281.517 470.105 281.946 470.399 282.501C470.694 283.047 470.841 283.684 470.841 284.412C470.841 285.131 470.694 285.773 470.399 286.336C470.105 286.899 469.697 287.337 469.177 287.649C468.666 287.961 468.094 288.117 467.461 288.117C466.846 288.117 466.304 287.983 465.836 287.714C465.377 287.445 465.03 287.103 464.796 286.687V288H463.613V278.38H464.796V282.202ZM469.632 284.412C469.632 283.875 469.524 283.407 469.307 283.008C469.091 282.609 468.796 282.306 468.423 282.098C468.059 281.89 467.656 281.786 467.214 281.786C466.781 281.786 466.378 281.894 466.005 282.111C465.641 282.319 465.347 282.627 465.121 283.034C464.905 283.433 464.796 283.896 464.796 284.425C464.796 284.962 464.905 285.435 465.121 285.842C465.347 286.241 465.641 286.548 466.005 286.765C466.378 286.973 466.781 287.077 467.214 287.077C467.656 287.077 468.059 286.973 468.423 286.765C468.796 286.548 469.091 286.241 469.307 285.842C469.524 285.435 469.632 284.958 469.632 284.412ZM472.58 278.939H473.893L472.645 281.89H471.813L472.58 278.939ZM481.836 287.051C482.937 286.167 483.799 285.443 484.423 284.88C485.047 284.308 485.571 283.714 485.996 283.099C486.429 282.475 486.646 281.864 486.646 281.266C486.646 280.703 486.507 280.261 486.23 279.94C485.961 279.611 485.524 279.446 484.917 279.446C484.328 279.446 483.868 279.632 483.539 280.005C483.218 280.369 483.045 280.859 483.019 281.474H481.875C481.91 280.503 482.204 279.754 482.759 279.225C483.314 278.696 484.029 278.432 484.904 278.432C485.797 278.432 486.503 278.679 487.023 279.173C487.552 279.667 487.816 280.347 487.816 281.214C487.816 281.933 487.599 282.635 487.166 283.32C486.741 283.996 486.256 284.594 485.71 285.114C485.164 285.625 484.466 286.223 483.617 286.908H488.089V287.896H481.836V287.051ZM489.43 280.967C489.491 280.17 489.799 279.546 490.353 279.095C490.908 278.644 491.627 278.419 492.511 278.419C493.101 278.419 493.608 278.527 494.032 278.744C494.466 278.952 494.791 279.238 495.007 279.602C495.233 279.966 495.345 280.378 495.345 280.837C495.345 281.374 495.189 281.838 494.877 282.228C494.574 282.618 494.175 282.869 493.681 282.982V283.047C494.245 283.186 494.691 283.459 495.02 283.866C495.35 284.273 495.514 284.806 495.514 285.465C495.514 285.959 495.402 286.405 495.176 286.804C494.951 287.194 494.613 287.502 494.162 287.727C493.712 287.952 493.17 288.065 492.537 288.065C491.619 288.065 490.865 287.827 490.275 287.35C489.686 286.865 489.357 286.18 489.287 285.296H490.431C490.492 285.816 490.704 286.241 491.068 286.57C491.432 286.899 491.918 287.064 492.524 287.064C493.131 287.064 493.59 286.908 493.902 286.596C494.223 286.275 494.383 285.864 494.383 285.361C494.383 284.711 494.167 284.243 493.733 283.957C493.3 283.671 492.646 283.528 491.77 283.528H491.471V282.54H491.783C492.581 282.531 493.183 282.401 493.59 282.15C493.998 281.89 494.201 281.491 494.201 280.954C494.201 280.495 494.05 280.126 493.746 279.849C493.452 279.572 493.027 279.433 492.472 279.433C491.935 279.433 491.502 279.572 491.172 279.849C490.843 280.126 490.648 280.499 490.587 280.967H489.43Z" fill="#BAB5B5"/>
<path d="M183 152H180.088L168.376 134.24V152H165.464V129.664H168.376L180.088 147.392V129.664H183V152ZM195.612 152.288C193.969 152.288 192.476 151.915 191.132 151.168C189.809 150.421 188.764 149.365 187.996 148C187.249 146.613 186.876 145.013 186.876 143.2C186.876 141.408 187.26 139.829 188.028 138.464C188.817 137.077 189.884 136.021 191.228 135.296C192.572 134.549 194.076 134.176 195.74 134.176C197.404 134.176 198.908 134.549 200.252 135.296C201.596 136.021 202.652 137.067 203.42 138.432C204.209 139.797 204.604 141.387 204.604 143.2C204.604 145.013 204.199 146.613 203.388 148C202.599 149.365 201.521 150.421 200.156 151.168C198.791 151.915 197.276 152.288 195.612 152.288ZM195.612 149.728C196.657 149.728 197.639 149.483 198.556 148.992C199.473 148.501 200.209 147.765 200.764 146.784C201.34 145.803 201.628 144.608 201.628 143.2C201.628 141.792 201.351 140.597 200.796 139.616C200.241 138.635 199.516 137.909 198.62 137.44C197.724 136.949 196.753 136.704 195.708 136.704C194.641 136.704 193.66 136.949 192.764 137.44C191.889 137.909 191.185 138.635 190.652 139.616C190.119 140.597 189.852 141.792 189.852 143.2C189.852 144.629 190.108 145.835 190.62 146.816C191.153 147.797 191.857 148.533 192.732 149.024C193.607 149.493 194.567 149.728 195.612 149.728ZM223.908 129.696C226.34 129.696 228.441 130.155 230.212 131.072C232.004 131.968 233.369 133.259 234.308 134.944C235.268 136.629 235.748 138.613 235.748 140.896C235.748 143.179 235.268 145.163 234.308 146.848C233.369 148.512 232.004 149.792 230.212 150.688C228.441 151.563 226.34 152 223.908 152H216.964V129.696H223.908ZM223.908 149.6C226.788 149.6 228.985 148.843 230.5 147.328C232.015 145.792 232.772 143.648 232.772 140.896C232.772 138.123 232.004 135.957 230.468 134.4C228.953 132.843 226.767 132.064 223.908 132.064H219.876V149.6H223.908ZM238.501 143.168C238.501 141.376 238.864 139.808 239.589 138.464C240.314 137.099 241.306 136.043 242.565 135.296C243.845 134.549 245.264 134.176 246.821 134.176C248.357 134.176 249.69 134.507 250.821 135.168C251.952 135.829 252.794 136.661 253.349 137.664V134.464H256.293V152H253.349V148.736C252.773 149.76 251.909 150.613 250.757 151.296C249.626 151.957 248.304 152.288 246.789 152.288C245.232 152.288 243.824 151.904 242.565 151.136C241.306 150.368 240.314 149.291 239.589 147.904C238.864 146.517 238.501 144.939 238.501 143.168ZM253.349 143.2C253.349 141.877 253.082 140.725 252.549 139.744C252.016 138.763 251.29 138.016 250.373 137.504C249.477 136.971 248.485 136.704 247.397 136.704C246.309 136.704 245.317 136.96 244.421 137.472C243.525 137.984 242.81 138.731 242.277 139.712C241.744 140.693 241.477 141.845 241.477 143.168C241.477 144.512 241.744 145.685 242.277 146.688C242.81 147.669 243.525 148.427 244.421 148.96C245.317 149.472 246.309 149.728 247.397 149.728C248.485 149.728 249.477 149.472 250.373 148.96C251.29 148.427 252.016 147.669 252.549 146.688C253.082 145.685 253.349 144.523 253.349 143.2ZM264.766 136.864V147.2C264.766 148.053 264.947 148.661 265.31 149.024C265.673 149.365 266.302 149.536 267.198 149.536H269.342V152H266.718C265.097 152 263.881 151.627 263.07 150.88C262.259 150.133 261.854 148.907 261.854 147.2V136.864H259.582V134.464H261.854V130.048H264.766V134.464H269.342V136.864H264.766ZM271.782 143.168C271.782 141.376 272.145 139.808 272.87 138.464C273.596 137.099 274.588 136.043 275.846 135.296C277.126 134.549 278.545 134.176 280.102 134.176C281.638 134.176 282.972 134.507 284.102 135.168C285.233 135.829 286.076 136.661 286.63 137.664V134.464H289.574V152H286.63V148.736C286.054 149.76 285.19 150.613 284.038 151.296C282.908 151.957 281.585 152.288 280.07 152.288C278.513 152.288 277.105 151.904 275.846 151.136C274.588 150.368 273.596 149.291 272.87 147.904C272.145 146.517 271.782 144.939 271.782 143.168ZM286.63 143.2C286.63 141.877 286.364 140.725 285.83 139.744C285.297 138.763 284.572 138.016 283.654 137.504C282.758 136.971 281.766 136.704 280.678 136.704C279.59 136.704 278.598 136.96 277.702 137.472C276.806 137.984 276.092 138.731 275.558 139.712C275.025 140.693 274.758 141.845 274.758 143.168C274.758 144.512 275.025 145.685 275.558 146.688C276.092 147.669 276.806 148.427 277.702 148.96C278.598 149.472 279.59 149.728 280.678 149.728C281.766 149.728 282.758 149.472 283.654 148.96C284.572 148.427 285.297 147.669 285.83 146.688C286.364 145.685 286.63 144.523 286.63 143.2ZM315.635 129.696V132.064H305.939V139.584H313.811V141.952H305.939V152H303.027V129.696H315.635ZM326.8 152.288C325.157 152.288 323.664 151.915 322.32 151.168C320.997 150.421 319.952 149.365 319.184 148C318.437 146.613 318.064 145.013 318.064 143.2C318.064 141.408 318.448 139.829 319.216 138.464C320.005 137.077 321.072 136.021 322.416 135.296C323.76 134.549 325.264 134.176 326.928 134.176C328.592 134.176 330.096 134.549 331.44 135.296C332.784 136.021 333.84 137.067 334.608 138.432C335.397 139.797 335.792 141.387 335.792 143.2C335.792 145.013 335.386 146.613 334.576 148C333.786 149.365 332.709 150.421 331.344 151.168C329.978 151.915 328.464 152.288 326.8 152.288ZM326.8 149.728C327.845 149.728 328.826 149.483 329.744 148.992C330.661 148.501 331.397 147.765 331.952 146.784C332.528 145.803 332.816 144.608 332.816 143.2C332.816 141.792 332.538 140.597 331.984 139.616C331.429 138.635 330.704 137.909 329.808 137.44C328.912 136.949 327.941 136.704 326.896 136.704C325.829 136.704 324.848 136.949 323.952 137.44C323.077 137.909 322.373 138.635 321.84 139.616C321.306 140.597 321.04 141.792 321.04 143.2C321.04 144.629 321.296 145.835 321.808 146.816C322.341 147.797 323.045 148.533 323.92 149.024C324.794 149.493 325.754 149.728 326.8 149.728ZM355.172 134.464V152H352.26V149.408C351.706 150.304 350.927 151.008 349.924 151.52C348.943 152.011 347.855 152.256 346.66 152.256C345.295 152.256 344.068 151.979 342.98 151.424C341.892 150.848 341.028 149.995 340.388 148.864C339.77 147.733 339.46 146.357 339.46 144.736V134.464H342.34V144.352C342.34 146.08 342.778 147.413 343.652 148.352C344.527 149.269 345.722 149.728 347.236 149.728C348.794 149.728 350.02 149.248 350.916 148.288C351.812 147.328 352.26 145.931 352.26 144.096V134.464H355.172ZM368.633 134.144C370.766 134.144 372.494 134.795 373.817 136.096C375.14 137.376 375.801 139.232 375.801 141.664V152H372.921V142.08C372.921 140.331 372.484 138.997 371.609 138.08C370.734 137.141 369.54 136.672 368.025 136.672C366.489 136.672 365.262 137.152 364.345 138.112C363.449 139.072 363.001 140.469 363.001 142.304V152H360.089V134.464H363.001V136.96C363.577 136.064 364.356 135.371 365.337 134.88C366.34 134.389 367.438 134.144 368.633 134.144ZM379.47 143.168C379.47 141.376 379.832 139.808 380.558 138.464C381.283 137.099 382.275 136.043 383.534 135.296C384.814 134.549 386.243 134.176 387.822 134.176C389.187 134.176 390.456 134.496 391.63 135.136C392.803 135.755 393.699 136.576 394.318 137.6V128.32H397.262V152H394.318V148.704C393.742 149.749 392.888 150.613 391.758 151.296C390.627 151.957 389.304 152.288 387.79 152.288C386.232 152.288 384.814 151.904 383.534 151.136C382.275 150.368 381.283 149.291 380.558 147.904C379.832 146.517 379.47 144.939 379.47 143.168ZM394.318 143.2C394.318 141.877 394.051 140.725 393.518 139.744C392.984 138.763 392.259 138.016 391.342 137.504C390.446 136.971 389.454 136.704 388.366 136.704C387.278 136.704 386.286 136.96 385.39 137.472C384.494 137.984 383.779 138.731 383.246 139.712C382.712 140.693 382.446 141.845 382.446 143.168C382.446 144.512 382.712 145.685 383.246 146.688C383.779 147.669 384.494 148.427 385.39 148.96C386.286 149.472 387.278 149.728 388.366 149.728C389.454 149.728 390.446 149.472 391.342 148.96C392.259 148.427 392.984 147.669 393.518 146.688C394.051 145.685 394.318 144.523 394.318 143.2Z" fill="#BAB5B5"/>
<path d="M271.105 311.575V322H269.395V314.86L266.215 322H265.03L261.835 314.86V322H260.125V311.575H261.97L265.63 319.75L269.275 311.575H271.105ZM276.938 322.135C276.158 322.135 275.453 321.96 274.823 321.61C274.193 321.25 273.698 320.75 273.338 320.11C272.978 319.46 272.798 318.71 272.798 317.86C272.798 317.02 272.983 316.275 273.353 315.625C273.723 314.975 274.228 314.475 274.868 314.125C275.508 313.775 276.223 313.6 277.013 313.6C277.803 313.6 278.518 313.775 279.158 314.125C279.798 314.475 280.303 314.975 280.673 315.625C281.043 316.275 281.228 317.02 281.228 317.86C281.228 318.7 281.038 319.445 280.658 320.095C280.278 320.745 279.758 321.25 279.098 321.61C278.448 321.96 277.728 322.135 276.938 322.135ZM276.938 320.65C277.378 320.65 277.788 320.545 278.168 320.335C278.558 320.125 278.873 319.81 279.113 319.39C279.353 318.97 279.473 318.46 279.473 317.86C279.473 317.26 279.358 316.755 279.128 316.345C278.898 315.925 278.593 315.61 278.213 315.4C277.833 315.19 277.423 315.085 276.983 315.085C276.543 315.085 276.133 315.19 275.753 315.4C275.383 315.61 275.088 315.925 274.868 316.345C274.648 316.755 274.538 317.26 274.538 317.86C274.538 318.75 274.763 319.44 275.213 319.93C275.673 320.41 276.248 320.65 276.938 320.65ZM287.088 313.6C287.738 313.6 288.318 313.735 288.828 314.005C289.348 314.275 289.753 314.675 290.043 315.205C290.333 315.735 290.478 316.375 290.478 317.125V322H288.783V317.38C288.783 316.64 288.598 316.075 288.228 315.685C287.858 315.285 287.353 315.085 286.713 315.085C286.073 315.085 285.563 315.285 285.183 315.685C284.813 316.075 284.628 316.64 284.628 317.38V322H282.918V313.735H284.628V314.68C284.908 314.34 285.263 314.075 285.693 313.885C286.133 313.695 286.598 313.6 287.088 313.6ZM294.654 315.13V319.705C294.654 320.015 294.724 320.24 294.864 320.38C295.014 320.51 295.264 320.575 295.614 320.575H296.664V322H295.314C294.544 322 293.954 321.82 293.544 321.46C293.134 321.1 292.929 320.515 292.929 319.705V315.13H291.954V313.735H292.929V311.68H294.654V313.735H296.664V315.13H294.654ZM302.515 313.6C303.145 313.6 303.705 313.735 304.195 314.005C304.695 314.275 305.085 314.675 305.365 315.205C305.655 315.735 305.8 316.375 305.8 317.125V322H304.105V317.38C304.105 316.64 303.92 316.075 303.55 315.685C303.18 315.285 302.675 315.085 302.035 315.085C301.395 315.085 300.885 315.285 300.505 315.685C300.135 316.075 299.95 316.64 299.95 317.38V322H298.24V310.9H299.95V314.695C300.24 314.345 300.605 314.075 301.045 313.885C301.495 313.695 301.985 313.6 302.515 313.6Z" fill="#BAB5B5"/>
<path d="M14.8937 166.296L16.2886 166.282L16.317 169.057L25.3466 168.964L25.3641 170.674L16.3345 170.767L16.3631 173.557L14.9682 173.571L14.8937 166.296ZM18.2182 162.82C17.7957 162.575 17.4673 162.248 17.2331 161.84C16.9889 161.423 16.8638 160.929 16.8579 160.359L18.6279 160.341L18.6323 160.776C18.6392 161.446 18.8144 161.954 19.158 162.301C19.5014 162.637 20.0931 162.801 20.9331 162.793L25.2829 162.748L25.3004 164.458L17.0358 164.543L17.0183 162.833L18.2182 162.82ZM15.873 157.927C15.8762 158.237 15.7738 158.498 15.566 158.71C15.3582 158.923 15.0992 159.03 14.7893 159.033C14.4793 159.037 14.2182 158.934 14.0061 158.726C13.7939 158.519 13.6863 158.26 13.6831 157.95C13.68 157.65 13.7824 157.394 13.9902 157.182C14.1981 156.969 14.457 156.862 14.767 156.859C15.077 156.855 15.338 156.958 15.5502 157.166C15.7623 157.373 15.8699 157.627 15.873 157.927ZM16.9593 157.076L25.2239 156.991L25.2414 158.701L16.9768 158.786L16.9593 157.076ZM18.1337 153.109C17.7508 152.823 17.4268 152.431 17.1616 151.934C16.8965 151.436 16.7608 150.873 16.7543 150.243C16.7469 149.523 16.9202 148.866 17.2741 148.272C17.618 147.669 18.1081 147.194 18.7446 146.847C19.3811 146.501 20.1143 146.323 20.9443 146.315C21.7742 146.306 22.5209 146.468 23.1844 146.802C23.8378 147.135 24.3526 147.6 24.7288 148.196C25.0948 148.782 25.2815 149.435 25.2889 150.155C25.2953 150.785 25.1761 151.347 24.9311 151.839C24.6761 152.332 24.3602 152.735 23.9834 153.049L29.1132 152.996L29.1307 154.706L16.9363 154.831L16.9188 153.121L18.1337 153.109ZM20.9621 148.055C20.3921 148.06 19.9034 148.185 19.4959 148.43C19.0783 148.664 18.7664 148.977 18.5605 149.369C18.3444 149.751 18.2386 150.163 18.2431 150.603C18.2475 151.033 18.3617 151.441 18.5857 151.829C18.8095 152.207 19.1327 152.514 19.5551 152.749C19.9775 152.975 20.4736 153.085 21.0436 153.079C21.6136 153.073 22.1124 152.953 22.54 152.719C22.9575 152.474 23.2743 152.161 23.4904 151.779C23.7064 151.387 23.8122 150.976 23.8078 150.546C23.8033 150.106 23.6891 149.697 23.4652 149.319C23.2312 148.931 22.8981 148.625 22.4657 148.399C22.0333 148.164 21.5321 148.049 20.9621 148.055ZM25.201 141.58C25.2077 142.23 25.0987 142.816 24.874 143.338C24.6392 143.851 24.3234 144.259 23.9265 144.563C23.5196 144.867 23.0663 145.032 22.5665 145.057L22.5484 143.287C22.898 143.253 23.1913 143.085 23.4282 142.783C23.655 142.471 23.7661 142.084 23.7614 141.625C23.7565 141.145 23.6627 140.775 23.48 140.517C23.2873 140.249 23.0459 140.117 22.7559 140.12C22.4459 140.123 22.2175 140.275 22.0706 140.577C21.9235 140.868 21.7633 141.335 21.5899 141.977C21.4262 142.598 21.2664 143.105 21.1104 143.497C20.9544 143.888 20.7129 144.231 20.3859 144.524C20.0588 144.808 19.6253 144.952 19.0853 144.958C18.6453 144.962 18.244 144.836 17.8814 144.58C17.5087 144.324 17.2149 143.957 17 143.479C16.785 142.991 16.6743 142.432 16.6678 141.802C16.6582 140.862 16.8905 140.105 17.3646 139.53C17.8286 138.945 18.4704 138.629 19.29 138.58L19.3075 140.29C18.9378 140.324 18.6444 140.477 18.4271 140.749C18.2099 141.021 18.1037 141.387 18.1084 141.847C18.113 142.297 18.2015 142.642 18.374 142.88C18.5464 143.118 18.7726 143.236 19.0526 143.233C19.2726 143.231 19.4568 143.149 19.6051 142.987C19.7535 142.826 19.8715 142.629 19.9591 142.399C20.0368 142.168 20.1383 141.827 20.2636 141.375C20.4175 140.774 20.5775 140.282 20.7436 139.9C20.8996 139.509 21.1361 139.171 21.4532 138.888C21.7703 138.605 22.1938 138.455 22.7237 138.44C23.1937 138.435 23.615 138.561 23.9876 138.817C24.3603 139.073 24.6541 139.44 24.869 139.918C25.0838 140.386 25.1944 140.94 25.201 141.58Z" fill="#BAB5B5"/>
</svg>
