<svg width="17" height="20" viewBox="0 0 17 20" fill="none" xmlns="http://www.w3.org/2000/svg">
<path d="M6.41699 14H1.41699V19M10.417 6H15.417V1M1 7.0034C1.56068 5.61566 2.49943 4.41304 3.70954 3.53223C4.91965 2.65141 6.35385 2.12752 7.84675 2.02051C9.33964 1.9135 10.8317 2.2274 12.1551 2.92661C13.4785 3.62582 14.5782 4.68254 15.3311 5.97612M15.8345 12.9971C15.2739 14.3848 14.3351 15.5874 13.125 16.4682C11.9149 17.3491 10.4822 17.8723 8.98926 17.9793C7.49636 18.0863 6.00306 17.7725 4.67969 17.0732C3.35632 16.374 2.25581 15.3175 1.50293 14.0239" stroke="#535353" stroke-width="2" stroke-linecap="round" stroke-linejoin="round"/>
</svg>
