<svg width="113" height="113" viewBox="0 0 113 113" fill="none" xmlns="http://www.w3.org/2000/svg">
<path d="M28.3125 72.0774C20.8567 72.0774 14.8125 67.4117 14.8125 60.5705C14.8125 53.7293 20.8567 48.1834 28.3125 48.1834C28.8195 48.1834 29.32 48.209 29.8125 48.259V48.1834H29.9982C29.8756 47.2816 29.8125 46.3629 29.8125 45.4307C29.8125 33.2685 40.5577 23.4092 53.8125 23.4092C62.7883 23.4092 70.6133 27.9303 74.7301 34.626C75.7361 34.4903 76.7654 34.4199 77.8125 34.4199C89.4105 34.4199 98.8125 43.0469 98.8125 53.6887C98.8125 62.449 92.4413 69.1271 83.7187 71.3284M56.1497 88.7425V57.1296M56.1497 57.1296L42.375 70.1672M56.1497 57.1296L69.9375 70.1672" stroke="#2B53BB" stroke-width="2.5" stroke-linecap="round" stroke-linejoin="round"/>
</svg>
