<svg width="31" height="27" viewBox="0 0 31 27" fill="none" xmlns="http://www.w3.org/2000/svg">
<path d="M15.5509 0C15.3616 0 15.1801 0.0752017 15.0462 0.209062C14.9124 0.342922 14.8372 0.524475 14.8372 0.713782V2.45858C10.0247 2.58548 7.30596 3.50229 7.18541 3.54353C7.03186 3.59723 6.90177 3.70265 6.81741 3.84173C6.44625 4.27952 4.79027 6.35742 3.05182 10.3038H2.20162C1.6198 10.3088 1.06316 10.5419 0.651437 10.953C0.239714 11.3642 0.00579732 11.9205 0 12.5023V12.6197C0.0049707 13.202 0.238523 13.7591 0.650334 14.171C1.06215 14.5828 1.61925 14.8163 2.20162 14.8213H2.29679V23.0187C2.29763 23.7025 2.56963 24.358 3.05313 24.8415C3.53663 25.325 4.19215 25.597 4.87593 25.5978H6.84596C7.18508 25.5982 7.52095 25.5318 7.83441 25.4025C8.14787 25.2731 8.43278 25.0832 8.67286 24.8437C8.91294 24.6042 9.1035 24.3198 9.23366 24.0066C9.36382 23.6935 9.43102 23.3578 9.43144 23.0187H14.8245V26.2862C14.8245 26.4755 14.8997 26.6571 15.0335 26.7909C15.1674 26.9248 15.3489 27 15.5382 27C15.7275 27 15.9091 26.9248 16.043 26.7909C16.1768 26.6571 16.252 26.4755 16.252 26.2862V0.713782C16.2521 0.526653 16.1786 0.346997 16.0475 0.213496C15.9163 0.0799946 15.738 0.00332673 15.5509 0Z" fill="#102C53"/>
<path d="M23.6475 7.10938C22.3818 7.11 21.1448 7.48597 20.0928 8.18973C19.0408 8.89348 18.2212 9.89341 17.7376 11.063C17.254 12.2327 17.1281 13.5194 17.3758 14.7606C17.6236 16.0018 18.2339 17.1416 19.1295 18.0359C20.0252 18.9302 21.1659 19.5388 22.4074 19.7848C23.649 20.0307 24.9356 19.9029 26.1045 19.4175C27.2734 18.9321 28.2721 18.111 28.9743 17.058C29.6765 16.005 30.0506 14.7674 30.0493 13.5017C30.0477 11.8052 29.3723 10.1788 28.1719 8.98013C26.9714 7.78143 25.344 7.10853 23.6475 7.10938ZM24.5992 16.544H23.0004V15.6367C22.9902 15.5617 22.9976 15.4853 23.0221 15.4137C23.0465 15.342 23.0872 15.277 23.141 15.2238C23.1949 15.1706 23.2603 15.1306 23.3323 15.107C23.4042 15.0834 23.4806 15.0769 23.5555 15.0879H24.6087L24.5992 16.544ZM24.5992 11.0336V14.6882H23.0004V10.4784H24.0472C24.1234 10.4655 24.2016 10.4708 24.2754 10.494C24.3491 10.5172 24.4163 10.5575 24.4714 10.6117C24.5266 10.6659 24.568 10.7324 24.5925 10.8057C24.6169 10.8791 24.6235 10.9572 24.6119 11.0336H24.5992Z" fill="#102C53"/>
</svg>
