<svg width="30" height="24" viewBox="0 0 30 24" fill="none" xmlns="http://www.w3.org/2000/svg">
<path fill-rule="evenodd" clip-rule="evenodd" d="M3.05603 8.36743L5.14431 2.80585C5.90832 1.35282 7.0798 0.450939 8.45501 0H21.545C22.9202 0.450939 24.0407 1.35282 24.8557 2.80585L26.944 8.36743H29.6435C29.8472 8.36743 30 8.51775 30 8.71816V9.82046C30 10.0209 29.8472 10.2213 29.6435 10.2213H28.0645C28.5229 10.7724 28.9813 11.4238 29.4397 12.2756C29.4397 15.6326 29.4907 18.9896 29.4907 22.3967C29.4907 23.2484 28.7776 24 27.8608 24H26.7402C25.8234 24 25.1104 23.2484 25.1104 22.3967V20.3424H4.88964V22.3967C4.88964 23.2484 4.17657 24 3.25976 24H2.13922C1.22241 24 0.509338 23.2484 0.509338 22.3967C0.509338 18.9896 0.560272 15.6326 0.560272 12.2756C1.01868 11.4238 1.47708 10.7724 1.93548 10.2213H0.356537C0.152801 10.2213 0 10.0209 0 9.82046V8.71816C0 8.51775 0.152801 8.36743 0.356537 8.36743H3.05603ZM8.70968 2.20459C7.8438 2.35491 7.28353 2.90605 6.97793 3.60752C6.36672 5.26096 5.70458 7.16493 5.14431 8.81837H24.8557C24.2954 7.16493 23.5823 5.26096 23.0221 3.60752C22.6655 2.90605 22.1562 2.35491 21.2903 2.20459H8.70968ZM24.2954 12.4259C23.2767 12.4259 22.4618 13.2276 22.4618 14.2296C22.4618 15.2317 23.2767 16.0334 24.2954 16.0334C25.2632 16.0334 26.0781 15.2317 26.0781 14.2296C26.0781 13.2276 25.2632 12.4259 24.2954 12.4259ZM5.70458 12.4259C6.72326 12.4259 7.5382 13.2276 7.5382 14.2296C7.5382 15.2317 6.72326 16.0334 5.70458 16.0334C4.73684 16.0334 3.9219 15.2317 3.9219 14.2296C3.9219 13.2276 4.73684 12.4259 5.70458 12.4259Z" fill="#102C53"/>
</svg>
