<svg width="50" height="42" viewBox="0 0 50 42" fill="none" xmlns="http://www.w3.org/2000/svg">
<path d="M10 0.5H40C45.2467 0.5 49.5 4.75329 49.5 10V32C49.5 37.2467 45.2467 41.5 40 41.5H10C4.7533 41.5 0.5 37.2467 0.5 32V10C0.5 4.7533 4.7533 0.5 10 0.5Z" fill="#F7F7F7" stroke="#DADADA"/>
<path d="M28.2502 10.5996V14.4996C28.2502 15.2176 28.8322 15.7996 29.5502 15.7996H33.4502M21.1002 15.7996H23.7002M21.1002 19.6996H28.9002M21.1002 23.5996H28.9002M31.5002 12.5496C30.9216 12.0319 30.3212 11.4179 29.9422 11.0192C29.69 10.7538 29.3415 10.5996 28.9754 10.5996H19.1499C17.714 10.5996 16.5499 11.7637 16.5499 13.1996L16.5498 28.7995C16.5498 30.2355 17.7139 31.3995 19.1498 31.3995L30.8498 31.3996C32.2858 31.3996 33.4498 30.2356 33.4499 28.7997L33.4502 15.0173C33.4502 14.6849 33.3234 14.3653 33.0927 14.126C32.6661 13.6835 31.9537 12.9553 31.5002 12.5496Z" stroke="#34554A" stroke-width="2" stroke-linecap="round" stroke-linejoin="round"/>
</svg>
