<svg width="26" height="26" viewBox="0 0 26 26" fill="none" xmlns="http://www.w3.org/2000/svg">
<path d="M8.01797 23.8333L6.5013 22.3167L13.9763 14.8146L17.768 18.6062L23.3742 13L24.918 14.5437L17.768 21.6667L13.9763 17.875L8.01797 23.8333ZM4.33464 22.75C3.7388 22.75 3.22873 22.5378 2.80443 22.1135C2.38012 21.6892 2.16797 21.1792 2.16797 20.5833V5.41667C2.16797 4.82083 2.38012 4.31076 2.80443 3.88646C3.22873 3.46215 3.7388 3.25 4.33464 3.25H19.5013C20.0971 3.25 20.6072 3.46215 21.0315 3.88646C21.4558 4.31076 21.668 4.82083 21.668 5.41667V9.96667H4.33464V22.75ZM4.33464 7.8H19.5013V5.41667H4.33464V7.8Z" fill="black"/>
</svg>
