<svg width="26" height="26" viewBox="0 0 26 26" fill="none" xmlns="http://www.w3.org/2000/svg">
<path d="M11.3737 16.793H14.6237V14.0846H17.332V10.8346H14.6237V8.1263H11.3737V10.8346H8.66536V14.0846H11.3737V16.793ZM12.9987 23.8346C10.489 23.2027 8.4171 21.7628 6.78307 19.5148C5.14905 17.2669 4.33203 14.7707 4.33203 12.0263V5.41797L12.9987 2.16797L21.6654 5.41797V12.0263C21.6654 14.7707 20.8484 17.2669 19.2143 19.5148C17.5803 21.7628 15.5084 23.2027 12.9987 23.8346ZM12.9987 21.5596C14.8765 20.9638 16.4293 19.7721 17.657 17.9846C18.8848 16.1971 19.4987 14.211 19.4987 12.0263V6.90755L12.9987 4.47005L6.4987 6.90755V12.0263C6.4987 14.211 7.11259 16.1971 8.34036 17.9846C9.56814 19.7721 11.1209 20.9638 12.9987 21.5596Z" fill="black"/>
</svg>
