<svg width="705" height="534" viewBox="0 0 705 534" fill="none" xmlns="http://www.w3.org/2000/svg">
<rect width="705" height="534" fill="white"/>
<path d="M56.8868 451.132C56.8868 449.298 57.1854 447.868 57.7828 446.844C58.3801 445.81 59.4254 445.292 60.9188 445.292C62.4014 445.292 63.4414 445.81 64.0388 446.844C64.6361 447.868 64.9348 449.298 64.9348 451.132C64.9348 452.999 64.6361 454.45 64.0388 455.484C63.4414 456.519 62.4014 457.036 60.9188 457.036C59.4254 457.036 58.3801 456.519 57.7828 455.484C57.1854 454.45 56.8868 452.999 56.8868 451.132ZM63.4948 451.132C63.4948 450.204 63.4308 449.42 63.3028 448.78C63.1854 448.13 62.9348 447.607 62.5508 447.212C62.1774 446.818 61.6334 446.62 60.9188 446.62C60.1934 446.62 59.6388 446.818 59.2548 447.212C58.8814 447.607 58.6308 448.13 58.5028 448.78C58.3854 449.42 58.3268 450.204 58.3268 451.132C58.3268 452.092 58.3854 452.898 58.5028 453.548C58.6308 454.199 58.8814 454.722 59.2548 455.116C59.6388 455.511 60.1934 455.708 60.9188 455.708C61.6334 455.708 62.1774 455.511 62.5508 455.116C62.9348 454.722 63.1854 454.199 63.3028 453.548C63.4308 452.898 63.4948 452.092 63.4948 451.132Z" fill="#BAB5B5"/>
<path d="M56.608 363.76V362.432H59.616V374H58.144V363.76H56.608Z" fill="#BAB5B5"/>
<path d="M56.663 281.051C57.7637 280.167 58.626 279.443 59.25 278.88C59.874 278.308 60.3983 277.714 60.823 277.099C61.2563 276.475 61.473 275.864 61.473 275.266C61.473 274.703 61.3343 274.261 61.057 273.94C60.7883 273.611 60.3507 273.446 59.744 273.446C59.1547 273.446 58.6953 273.632 58.366 274.005C58.0453 274.369 57.872 274.859 57.846 275.474H56.702C56.7367 274.503 57.0313 273.754 57.586 273.225C58.1407 272.696 58.8557 272.432 59.731 272.432C60.6237 272.432 61.33 272.679 61.85 273.173C62.3787 273.667 62.643 274.347 62.643 275.214C62.643 275.933 62.4263 276.635 61.993 277.32C61.5683 277.996 61.083 278.594 60.537 279.114C59.991 279.625 59.2933 280.223 58.444 280.908H62.916V281.896H56.663V281.051Z" fill="#BAB5B5"/>
<path d="M56.96 185.344C57.0347 184.363 57.4133 183.595 58.096 183.04C58.7787 182.485 59.664 182.208 60.752 182.208C61.4773 182.208 62.1013 182.341 62.624 182.608C63.1573 182.864 63.5573 183.216 63.824 183.664C64.1013 184.112 64.24 184.619 64.24 185.184C64.24 185.845 64.048 186.416 63.664 186.896C63.2907 187.376 62.8 187.685 62.192 187.824V187.904C62.8853 188.075 63.4347 188.411 63.84 188.912C64.2453 189.413 64.448 190.069 64.448 190.88C64.448 191.488 64.3093 192.037 64.032 192.528C63.7547 193.008 63.3387 193.387 62.784 193.664C62.2293 193.941 61.5627 194.08 60.784 194.08C59.6533 194.08 58.7253 193.787 58 193.2C57.2747 192.603 56.8693 191.76 56.784 190.672H58.192C58.2667 191.312 58.528 191.835 58.976 192.24C59.424 192.645 60.0213 192.848 60.768 192.848C61.5147 192.848 62.08 192.656 62.464 192.272C62.8587 191.877 63.056 191.371 63.056 190.752C63.056 189.952 62.7893 189.376 62.256 189.024C61.7227 188.672 60.9173 188.496 59.84 188.496H59.472V187.28H59.856C60.8373 187.269 61.5787 187.109 62.08 186.8C62.5813 186.48 62.832 185.989 62.832 185.328C62.832 184.763 62.6453 184.309 62.272 183.968C61.9093 183.627 61.3867 183.456 60.704 183.456C60.0427 183.456 59.5093 183.627 59.104 183.968C58.6987 184.309 58.4587 184.768 58.384 185.344H56.96Z" fill="#BAB5B5"/>
<path d="M56.64 96.424V95.32L62.256 87.544H64V95.16H65.6V96.424H64V99H62.56V96.424H56.64ZM62.624 89.064L58.32 95.16H62.624V89.064Z" fill="#BAB5B5"/>
<path d="M64.368 17.696H58.752V21.344C58.9973 21.0027 59.36 20.7253 59.84 20.512C60.32 20.288 60.8373 20.176 61.392 20.176C62.2773 20.176 62.9973 20.3627 63.552 20.736C64.1067 21.0987 64.5013 21.5733 64.736 22.16C64.9813 22.736 65.104 23.3493 65.104 24C65.104 24.768 64.96 25.456 64.672 26.064C64.384 26.672 63.9413 27.152 63.344 27.504C62.7573 27.856 62.0267 28.032 61.152 28.032C60.032 28.032 59.1253 27.744 58.432 27.168C57.7387 26.592 57.3173 25.824 57.168 24.864H58.592C58.7307 25.472 59.024 25.9467 59.472 26.288C59.92 26.6293 60.4853 26.8 61.168 26.8C62.0107 26.8 62.6453 26.5493 63.072 26.048C63.4987 25.536 63.712 24.864 63.712 24.032C63.712 23.2 63.4987 22.56 63.072 22.112C62.6453 21.6533 62.016 21.424 61.184 21.424C60.6187 21.424 60.1227 21.5627 59.696 21.84C59.28 22.1067 58.976 22.4747 58.784 22.944H57.408V16.416H64.368V17.696Z" fill="#BAB5B5"/>
<path d="M91.2481 471.397C90.2135 471.397 89.2695 471.157 88.4161 470.677C87.5628 470.186 86.8855 469.509 86.3841 468.645C85.8935 467.77 85.6481 466.789 85.6481 465.701C85.6481 464.613 85.8935 463.637 86.3841 462.773C86.8855 461.898 87.5628 461.221 88.4161 460.741C89.2695 460.25 90.2135 460.005 91.2481 460.005C92.2935 460.005 93.2428 460.25 94.0961 460.741C94.9495 461.221 95.6215 461.893 96.1121 462.757C96.6028 463.621 96.8481 464.602 96.8481 465.701C96.8481 466.8 96.6028 467.781 96.1121 468.645C95.6215 469.509 94.9495 470.186 94.0961 470.677C93.2428 471.157 92.2935 471.397 91.2481 471.397ZM91.2481 470.133C92.0268 470.133 92.7255 469.952 93.3441 469.589C93.9735 469.226 94.4641 468.709 94.8161 468.037C95.1788 467.365 95.3601 466.586 95.3601 465.701C95.3601 464.805 95.1788 464.026 94.8161 463.365C94.4641 462.693 93.9788 462.176 93.3601 461.813C92.7415 461.45 92.0375 461.269 91.2481 461.269C90.4588 461.269 89.7548 461.45 89.1361 461.813C88.5175 462.176 88.0268 462.693 87.6641 463.365C87.3121 464.026 87.1361 464.805 87.1361 465.701C87.1361 466.586 87.3121 467.365 87.6641 468.037C88.0268 468.709 88.5175 469.226 89.1361 469.589C89.7655 469.952 90.4695 470.133 91.2481 470.133ZM98.2263 466.885C98.2263 465.978 98.4076 465.189 98.7703 464.517C99.1329 463.834 99.6343 463.306 100.274 462.933C100.925 462.56 101.666 462.373 102.498 462.373C103.576 462.373 104.461 462.634 105.154 463.157C105.858 463.68 106.322 464.405 106.546 465.333H104.978C104.829 464.8 104.536 464.378 104.098 464.069C103.672 463.76 103.138 463.605 102.498 463.605C101.666 463.605 100.994 463.893 100.482 464.469C99.9703 465.034 99.7143 465.84 99.7143 466.885C99.7143 467.941 99.9703 468.757 100.482 469.333C100.994 469.909 101.666 470.197 102.498 470.197C103.138 470.197 103.672 470.048 104.098 469.749C104.525 469.45 104.818 469.024 104.978 468.469H106.546C106.312 469.365 105.842 470.085 105.138 470.629C104.434 471.162 103.554 471.429 102.498 471.429C101.666 471.429 100.925 471.242 100.274 470.869C99.6343 470.496 99.1329 469.968 98.7703 469.285C98.4076 468.602 98.2263 467.802 98.2263 466.885ZM110.265 463.717V468.885C110.265 469.312 110.356 469.616 110.537 469.797C110.718 469.968 111.033 470.053 111.481 470.053H112.553V471.285H111.241C110.43 471.285 109.822 471.098 109.417 470.725C109.012 470.352 108.809 469.738 108.809 468.885V463.717H107.673V462.517H108.809V460.309H110.265V462.517H112.553V463.717H110.265ZM114.541 460.133H116.157L114.621 463.765H113.597L114.541 460.133ZM121.667 470.117C123.021 469.029 124.083 468.138 124.851 467.445C125.619 466.741 126.264 466.01 126.787 465.253C127.32 464.485 127.587 463.733 127.587 462.997C127.587 462.304 127.416 461.76 127.075 461.365C126.744 460.96 126.205 460.757 125.459 460.757C124.733 460.757 124.168 460.986 123.763 461.445C123.368 461.893 123.155 462.496 123.123 463.253H121.715C121.757 462.058 122.12 461.136 122.803 460.485C123.485 459.834 124.365 459.509 125.443 459.509C126.541 459.509 127.411 459.813 128.051 460.421C128.701 461.029 129.027 461.866 129.027 462.933C129.027 463.818 128.76 464.682 128.227 465.525C127.704 466.357 127.107 467.093 126.435 467.733C125.763 468.362 124.904 469.098 123.859 469.941H129.363V471.157H121.667V470.117ZM131.014 462.629C131.089 461.648 131.467 460.88 132.15 460.325C132.833 459.77 133.718 459.493 134.806 459.493C135.531 459.493 136.155 459.626 136.678 459.893C137.211 460.149 137.611 460.501 137.878 460.949C138.155 461.397 138.294 461.904 138.294 462.469C138.294 463.13 138.102 463.701 137.718 464.181C137.345 464.661 136.854 464.97 136.246 465.109V465.189C136.939 465.36 137.489 465.696 137.894 466.197C138.299 466.698 138.502 467.354 138.502 468.165C138.502 468.773 138.363 469.322 138.086 469.813C137.809 470.293 137.393 470.672 136.838 470.949C136.283 471.226 135.617 471.365 134.838 471.365C133.707 471.365 132.779 471.072 132.054 470.485C131.329 469.888 130.923 469.045 130.838 467.957H132.246C132.321 468.597 132.582 469.12 133.03 469.525C133.478 469.93 134.075 470.133 134.822 470.133C135.569 470.133 136.134 469.941 136.518 469.557C136.913 469.162 137.11 468.656 137.11 468.037C137.11 467.237 136.843 466.661 136.31 466.309C135.777 465.957 134.971 465.781 133.894 465.781H133.526V464.565H133.91C134.891 464.554 135.633 464.394 136.134 464.085C136.635 463.765 136.886 463.274 136.886 462.613C136.886 462.048 136.699 461.594 136.326 461.253C135.963 460.912 135.441 460.741 134.758 460.741C134.097 460.741 133.563 460.912 133.158 461.253C132.753 461.594 132.513 462.053 132.438 462.629H131.014Z" fill="#BAB5B5"/>
<path d="M198.575 471.285H197.119L191.263 462.405V471.285H189.807V460.117H191.263L197.119 468.981V460.117H198.575V471.285ZM204.881 471.429C204.06 471.429 203.313 471.242 202.641 470.869C201.98 470.496 201.457 469.968 201.073 469.285C200.7 468.592 200.513 467.792 200.513 466.885C200.513 465.989 200.705 465.2 201.089 464.517C201.484 463.824 202.017 463.296 202.689 462.933C203.361 462.56 204.113 462.373 204.945 462.373C205.777 462.373 206.529 462.56 207.201 462.933C207.873 463.296 208.401 463.818 208.785 464.501C209.18 465.184 209.377 465.978 209.377 466.885C209.377 467.792 209.174 468.592 208.769 469.285C208.374 469.968 207.836 470.496 207.153 470.869C206.47 471.242 205.713 471.429 204.881 471.429ZM204.881 470.149C205.404 470.149 205.894 470.026 206.353 469.781C206.812 469.536 207.18 469.168 207.457 468.677C207.745 468.186 207.889 467.589 207.889 466.885C207.889 466.181 207.75 465.584 207.473 465.093C207.196 464.602 206.833 464.24 206.385 464.005C205.937 463.76 205.452 463.637 204.929 463.637C204.396 463.637 203.905 463.76 203.457 464.005C203.02 464.24 202.668 464.602 202.401 465.093C202.134 465.584 202.001 466.181 202.001 466.885C202.001 467.6 202.129 468.202 202.385 468.693C202.652 469.184 203.004 469.552 203.441 469.797C203.878 470.032 204.358 470.149 204.881 470.149ZM214.555 469.941L217.275 462.517H218.827L215.387 471.285H213.691L210.251 462.517H211.819L214.555 469.941ZM220.484 460.133H222.1L220.564 463.765H219.54L220.484 460.133ZM227.61 470.117C228.964 469.029 230.026 468.138 230.794 467.445C231.562 466.741 232.207 466.01 232.73 465.253C233.263 464.485 233.53 463.733 233.53 462.997C233.53 462.304 233.359 461.76 233.018 461.365C232.687 460.96 232.148 460.757 231.402 460.757C230.676 460.757 230.111 460.986 229.706 461.445C229.311 461.893 229.098 462.496 229.066 463.253H227.658C227.7 462.058 228.063 461.136 228.746 460.485C229.428 459.834 230.308 459.509 231.386 459.509C232.484 459.509 233.354 459.813 233.994 460.421C234.644 461.029 234.97 461.866 234.97 462.933C234.97 463.818 234.703 464.682 234.17 465.525C233.647 466.357 233.05 467.093 232.378 467.733C231.706 468.362 230.847 469.098 229.802 469.941H235.306V471.157H227.61V470.117ZM236.957 462.629C237.032 461.648 237.41 460.88 238.093 460.325C238.776 459.77 239.661 459.493 240.749 459.493C241.474 459.493 242.098 459.626 242.621 459.893C243.154 460.149 243.554 460.501 243.821 460.949C244.098 461.397 244.237 461.904 244.237 462.469C244.237 463.13 244.045 463.701 243.661 464.181C243.288 464.661 242.797 464.97 242.189 465.109V465.189C242.882 465.36 243.432 465.696 243.837 466.197C244.242 466.698 244.445 467.354 244.445 468.165C244.445 468.773 244.306 469.322 244.029 469.813C243.752 470.293 243.336 470.672 242.781 470.949C242.226 471.226 241.56 471.365 240.781 471.365C239.65 471.365 238.722 471.072 237.997 470.485C237.272 469.888 236.866 469.045 236.781 467.957H238.189C238.264 468.597 238.525 469.12 238.973 469.525C239.421 469.93 240.018 470.133 240.765 470.133C241.512 470.133 242.077 469.941 242.461 469.557C242.856 469.162 243.053 468.656 243.053 468.037C243.053 467.237 242.786 466.661 242.253 466.309C241.72 465.957 240.914 465.781 239.837 465.781H239.469V464.565H239.853C240.834 464.554 241.576 464.394 242.077 464.085C242.578 463.765 242.829 463.274 242.829 462.613C242.829 462.048 242.642 461.594 242.269 461.253C241.906 460.912 241.384 460.741 240.701 460.741C240.04 460.741 239.506 460.912 239.101 461.253C238.696 461.594 238.456 462.053 238.381 462.629H236.957Z" fill="#BAB5B5"/>
<path d="M310.505 459.848C311.721 459.848 312.771 460.077 313.657 460.536C314.553 460.984 315.235 461.629 315.705 462.472C316.185 463.315 316.425 464.307 316.425 465.448C316.425 466.589 316.185 467.581 315.705 468.424C315.235 469.256 314.553 469.896 313.657 470.344C312.771 470.781 311.721 471 310.505 471H307.033V459.848H310.505ZM310.505 469.8C311.945 469.8 313.043 469.421 313.801 468.664C314.558 467.896 314.937 466.824 314.937 465.448C314.937 464.061 314.553 462.979 313.785 462.2C313.027 461.421 311.934 461.032 310.505 461.032H308.489V469.8H310.505ZM326.345 466.28C326.345 466.557 326.329 466.851 326.297 467.16H319.289C319.342 468.024 319.636 468.701 320.169 469.192C320.713 469.672 321.369 469.912 322.137 469.912C322.766 469.912 323.289 469.768 323.705 469.48C324.132 469.181 324.43 468.787 324.601 468.296H326.169C325.934 469.139 325.465 469.827 324.761 470.36C324.057 470.883 323.182 471.144 322.137 471.144C321.305 471.144 320.558 470.957 319.897 470.584C319.246 470.211 318.734 469.683 318.361 469C317.988 468.307 317.801 467.507 317.801 466.6C317.801 465.693 317.982 464.899 318.345 464.216C318.708 463.533 319.214 463.011 319.865 462.648C320.526 462.275 321.284 462.088 322.137 462.088C322.969 462.088 323.705 462.269 324.345 462.632C324.985 462.995 325.476 463.496 325.817 464.136C326.169 464.765 326.345 465.48 326.345 466.28ZM324.841 465.976C324.841 465.421 324.718 464.947 324.473 464.552C324.228 464.147 323.892 463.843 323.465 463.64C323.049 463.427 322.585 463.32 322.073 463.32C321.337 463.32 320.708 463.555 320.185 464.024C319.673 464.493 319.38 465.144 319.305 465.976H324.841ZM327.723 466.6C327.723 465.693 327.904 464.904 328.267 464.232C328.63 463.549 329.131 463.021 329.771 462.648C330.422 462.275 331.163 462.088 331.995 462.088C333.072 462.088 333.958 462.349 334.651 462.872C335.355 463.395 335.819 464.12 336.043 465.048H334.475C334.326 464.515 334.032 464.093 333.595 463.784C333.168 463.475 332.635 463.32 331.995 463.32C331.163 463.32 330.491 463.608 329.979 464.184C329.467 464.749 329.211 465.555 329.211 466.6C329.211 467.656 329.467 468.472 329.979 469.048C330.491 469.624 331.163 469.912 331.995 469.912C332.635 469.912 333.168 469.763 333.595 469.464C334.022 469.165 334.315 468.739 334.475 468.184H336.043C335.808 469.08 335.339 469.8 334.635 470.344C333.931 470.877 333.051 471.144 331.995 471.144C331.163 471.144 330.422 470.957 329.771 470.584C329.131 470.211 328.63 469.683 328.267 469C327.904 468.317 327.723 467.517 327.723 466.6ZM338.21 459.848H339.826L338.29 463.48H337.266L338.21 459.848ZM349.601 469.832C350.956 468.744 352.017 467.853 352.785 467.16C353.553 466.456 354.198 465.725 354.721 464.968C355.254 464.2 355.521 463.448 355.521 462.712C355.521 462.019 355.35 461.475 355.009 461.08C354.678 460.675 354.14 460.472 353.393 460.472C352.668 460.472 352.102 460.701 351.697 461.16C351.302 461.608 351.089 462.211 351.057 462.968H349.649C349.692 461.773 350.054 460.851 350.737 460.2C351.42 459.549 352.3 459.224 353.377 459.224C354.476 459.224 355.345 459.528 355.985 460.136C356.636 460.744 356.961 461.581 356.961 462.648C356.961 463.533 356.694 464.397 356.161 465.24C355.638 466.072 355.041 466.808 354.369 467.448C353.697 468.077 352.838 468.813 351.793 469.656H357.297V470.872H349.601V469.832ZM358.948 462.344C359.023 461.363 359.401 460.595 360.084 460.04C360.767 459.485 361.652 459.208 362.74 459.208C363.465 459.208 364.089 459.341 364.612 459.608C365.145 459.864 365.545 460.216 365.812 460.664C366.089 461.112 366.228 461.619 366.228 462.184C366.228 462.845 366.036 463.416 365.652 463.896C365.279 464.376 364.788 464.685 364.18 464.824V464.904C364.873 465.075 365.423 465.411 365.828 465.912C366.233 466.413 366.436 467.069 366.436 467.88C366.436 468.488 366.297 469.037 366.02 469.528C365.743 470.008 365.327 470.387 364.772 470.664C364.217 470.941 363.551 471.08 362.772 471.08C361.641 471.08 360.713 470.787 359.988 470.2C359.263 469.603 358.857 468.76 358.772 467.672H360.18C360.255 468.312 360.516 468.835 360.964 469.24C361.412 469.645 362.009 469.848 362.756 469.848C363.503 469.848 364.068 469.656 364.452 469.272C364.847 468.877 365.044 468.371 365.044 467.752C365.044 466.952 364.777 466.376 364.244 466.024C363.711 465.672 362.905 465.496 361.828 465.496H361.46V464.28H361.844C362.825 464.269 363.567 464.109 364.068 463.8C364.569 463.48 364.82 462.989 364.82 462.328C364.82 461.763 364.633 461.309 364.26 460.968C363.897 460.627 363.375 460.456 362.692 460.456C362.031 460.456 361.497 460.627 361.092 460.968C360.687 461.309 360.447 461.768 360.372 462.344H358.948Z" fill="#BAB5B5"/>
<path d="M421.848 460.848V469.088C421.848 470.005 421.565 470.741 421 471.296C420.435 471.84 419.688 472.112 418.76 472.112C417.821 472.112 417.069 471.835 416.504 471.28C415.939 470.715 415.656 469.947 415.656 468.976H417.112C417.123 469.52 417.261 469.963 417.528 470.304C417.805 470.645 418.216 470.816 418.76 470.816C419.304 470.816 419.709 470.656 419.976 470.336C420.243 470.005 420.376 469.589 420.376 469.088V460.848H421.848ZM424.172 467.584C424.172 466.688 424.354 465.904 424.716 465.232C425.079 464.549 425.575 464.021 426.204 463.648C426.844 463.275 427.554 463.088 428.332 463.088C429.1 463.088 429.767 463.253 430.332 463.584C430.898 463.915 431.319 464.331 431.596 464.832V463.232H433.068V472H431.596V470.368C431.308 470.88 430.876 471.307 430.3 471.648C429.735 471.979 429.074 472.144 428.316 472.144C427.538 472.144 426.834 471.952 426.204 471.568C425.575 471.184 425.079 470.645 424.716 469.952C424.354 469.259 424.172 468.469 424.172 467.584ZM431.596 467.6C431.596 466.939 431.463 466.363 431.196 465.872C430.93 465.381 430.567 465.008 430.108 464.752C429.66 464.485 429.164 464.352 428.62 464.352C428.076 464.352 427.58 464.48 427.132 464.736C426.684 464.992 426.327 465.365 426.06 465.856C425.794 466.347 425.66 466.923 425.66 467.584C425.66 468.256 425.794 468.843 426.06 469.344C426.327 469.835 426.684 470.213 427.132 470.48C427.58 470.736 428.076 470.864 428.62 470.864C429.164 470.864 429.66 470.736 430.108 470.48C430.567 470.213 430.93 469.835 431.196 469.344C431.463 468.843 431.596 468.261 431.596 467.6ZM439.801 463.072C440.868 463.072 441.732 463.397 442.393 464.048C443.054 464.688 443.385 465.616 443.385 466.832V472H441.945V467.04C441.945 466.165 441.726 465.499 441.289 465.04C440.852 464.571 440.254 464.336 439.497 464.336C438.729 464.336 438.116 464.576 437.657 465.056C437.209 465.536 436.985 466.235 436.985 467.152V472H435.529V463.232H436.985V464.48C437.273 464.032 437.662 463.685 438.153 463.44C438.654 463.195 439.204 463.072 439.801 463.072ZM445.987 460.848H447.603L446.067 464.48H445.043L445.987 460.848ZM457.379 470.832C458.733 469.744 459.795 468.853 460.562 468.16C461.331 467.456 461.976 466.725 462.499 465.968C463.032 465.2 463.299 464.448 463.299 463.712C463.299 463.019 463.128 462.475 462.787 462.08C462.456 461.675 461.917 461.472 461.171 461.472C460.445 461.472 459.88 461.701 459.475 462.16C459.08 462.608 458.867 463.211 458.835 463.968H457.427C457.469 462.773 457.832 461.851 458.515 461.2C459.197 460.549 460.077 460.224 461.155 460.224C462.253 460.224 463.123 460.528 463.763 461.136C464.413 461.744 464.739 462.581 464.739 463.648C464.739 464.533 464.472 465.397 463.939 466.24C463.416 467.072 462.819 467.808 462.147 468.448C461.475 469.077 460.616 469.813 459.571 470.656H465.075V471.872H457.379V470.832ZM466.406 469.424V468.32L472.022 460.544H473.766V468.16H475.366V469.424H473.766V472H472.326V469.424H466.406ZM472.39 462.064L468.086 468.16H472.39V462.064Z" fill="#BAB5B5"/>
<path d="M558.536 459.848V461.032H553.688V464.792H557.624V465.976H553.688V471H552.232V459.848H558.536ZM568.295 466.28C568.295 466.557 568.279 466.851 568.247 467.16H561.239C561.292 468.024 561.585 468.701 562.119 469.192C562.663 469.672 563.319 469.912 564.087 469.912C564.716 469.912 565.239 469.768 565.655 469.48C566.081 469.181 566.38 468.787 566.551 468.296H568.119C567.884 469.139 567.415 469.827 566.711 470.36C566.007 470.883 565.132 471.144 564.087 471.144C563.255 471.144 562.508 470.957 561.847 470.584C561.196 470.211 560.684 469.683 560.311 469C559.937 468.307 559.751 467.507 559.751 466.6C559.751 465.693 559.932 464.899 560.295 464.216C560.657 463.533 561.164 463.011 561.815 462.648C562.476 462.275 563.233 462.088 564.087 462.088C564.919 462.088 565.655 462.269 566.295 462.632C566.935 462.995 567.425 463.496 567.767 464.136C568.119 464.765 568.295 465.48 568.295 466.28ZM566.791 465.976C566.791 465.421 566.668 464.947 566.423 464.552C566.177 464.147 565.841 463.843 565.415 463.64C564.999 463.427 564.535 463.32 564.023 463.32C563.287 463.32 562.657 463.555 562.135 464.024C561.623 464.493 561.329 465.144 561.255 465.976H566.791ZM571.672 463.864C571.971 463.341 572.408 462.915 572.984 462.584C573.56 462.253 574.216 462.088 574.952 462.088C575.742 462.088 576.451 462.275 577.08 462.648C577.71 463.021 578.206 463.549 578.568 464.232C578.931 464.904 579.112 465.688 579.112 466.584C579.112 467.469 578.931 468.259 578.568 468.952C578.206 469.645 577.704 470.184 577.064 470.568C576.435 470.952 575.731 471.144 574.952 471.144C574.195 471.144 573.528 470.979 572.952 470.648C572.387 470.317 571.96 469.896 571.672 469.384V471H570.216V459.16H571.672V463.864ZM577.624 466.584C577.624 465.923 577.491 465.347 577.224 464.856C576.958 464.365 576.595 463.992 576.136 463.736C575.688 463.48 575.192 463.352 574.648 463.352C574.115 463.352 573.619 463.485 573.16 463.752C572.712 464.008 572.35 464.387 572.072 464.888C571.806 465.379 571.672 465.949 571.672 466.6C571.672 467.261 571.806 467.843 572.072 468.344C572.35 468.835 572.712 469.213 573.16 469.48C573.619 469.736 574.115 469.864 574.648 469.864C575.192 469.864 575.688 469.736 576.136 469.48C576.595 469.213 576.958 468.835 577.224 468.344C577.491 467.843 577.624 467.256 577.624 466.584ZM581.253 459.848H582.869L581.333 463.48H580.309L581.253 459.848ZM592.644 469.832C593.999 468.744 595.06 467.853 595.828 467.16C596.596 466.456 597.241 465.725 597.764 464.968C598.297 464.2 598.564 463.448 598.564 462.712C598.564 462.019 598.393 461.475 598.052 461.08C597.721 460.675 597.183 460.472 596.436 460.472C595.711 460.472 595.145 460.701 594.74 461.16C594.345 461.608 594.132 462.211 594.1 462.968H592.692C592.735 461.773 593.097 460.851 593.78 460.2C594.463 459.549 595.343 459.224 596.42 459.224C597.519 459.224 598.388 459.528 599.028 460.136C599.679 460.744 600.004 461.581 600.004 462.648C600.004 463.533 599.737 464.397 599.204 465.24C598.681 466.072 598.084 466.808 597.412 467.448C596.74 468.077 595.881 468.813 594.836 469.656H600.34V470.872H592.644V469.832ZM601.671 468.424V467.32L607.287 459.544H609.031V467.16H610.631V468.424H609.031V471H607.591V468.424H601.671ZM607.655 461.064L603.351 467.16H607.655V461.064Z" fill="#BAB5B5"/>
<path d="M219.25 251H214.7L196.4 223.25V251H191.85V216.1H196.4L214.7 243.8V216.1H219.25V251ZM238.956 251.45C236.39 251.45 234.056 250.867 231.956 249.7C229.89 248.533 228.256 246.883 227.056 244.75C225.89 242.583 225.306 240.083 225.306 237.25C225.306 234.45 225.906 231.983 227.106 229.85C228.34 227.683 230.006 226.033 232.106 224.9C234.206 223.733 236.556 223.15 239.156 223.15C241.756 223.15 244.106 223.733 246.206 224.9C248.306 226.033 249.956 227.667 251.156 229.8C252.39 231.933 253.006 234.417 253.006 237.25C253.006 240.083 252.373 242.583 251.106 244.75C249.873 246.883 248.19 248.533 246.056 249.7C243.923 250.867 241.556 251.45 238.956 251.45ZM238.956 247.45C240.59 247.45 242.123 247.067 243.556 246.3C244.99 245.533 246.14 244.383 247.006 242.85C247.906 241.317 248.356 239.45 248.356 237.25C248.356 235.05 247.923 233.183 247.056 231.65C246.19 230.117 245.056 228.983 243.656 228.25C242.256 227.483 240.74 227.1 239.106 227.1C237.44 227.1 235.906 227.483 234.506 228.25C233.14 228.983 232.04 230.117 231.206 231.65C230.373 233.183 229.956 235.05 229.956 237.25C229.956 239.483 230.356 241.367 231.156 242.9C231.99 244.433 233.09 245.583 234.456 246.35C235.823 247.083 237.323 247.45 238.956 247.45ZM283.169 216.15C286.969 216.15 290.252 216.867 293.019 218.3C295.819 219.7 297.952 221.717 299.419 224.35C300.919 226.983 301.669 230.083 301.669 233.65C301.669 237.217 300.919 240.317 299.419 242.95C297.952 245.55 295.819 247.55 293.019 248.95C290.252 250.317 286.969 251 283.169 251H272.319V216.15H283.169ZM283.169 247.25C287.669 247.25 291.102 246.067 293.469 243.7C295.835 241.3 297.019 237.95 297.019 233.65C297.019 229.317 295.819 225.933 293.419 223.5C291.052 221.067 287.635 219.85 283.169 219.85H276.869V247.25H283.169ZM305.97 237.2C305.97 234.4 306.537 231.95 307.67 229.85C308.804 227.717 310.354 226.067 312.32 224.9C314.32 223.733 316.537 223.15 318.97 223.15C321.37 223.15 323.454 223.667 325.22 224.7C326.987 225.733 328.304 227.033 329.17 228.6V223.6H333.77V251H329.17V245.9C328.27 247.5 326.92 248.833 325.12 249.9C323.354 250.933 321.287 251.45 318.92 251.45C316.487 251.45 314.287 250.85 312.32 249.65C310.354 248.45 308.804 246.767 307.67 244.6C306.537 242.433 305.97 239.967 305.97 237.2ZM329.17 237.25C329.17 235.183 328.754 233.383 327.92 231.85C327.087 230.317 325.954 229.15 324.52 228.35C323.12 227.517 321.57 227.1 319.87 227.1C318.17 227.1 316.62 227.5 315.22 228.3C313.82 229.1 312.704 230.267 311.87 231.8C311.037 233.333 310.62 235.133 310.62 237.2C310.62 239.3 311.037 241.133 311.87 242.7C312.704 244.233 313.82 245.417 315.22 246.25C316.62 247.05 318.17 247.45 319.87 247.45C321.57 247.45 323.12 247.05 324.52 246.25C325.954 245.417 327.087 244.233 327.92 242.7C328.754 241.133 329.17 239.317 329.17 237.25ZM347.009 227.35V243.5C347.009 244.833 347.293 245.783 347.859 246.35C348.426 246.883 349.409 247.15 350.809 247.15H354.159V251H350.059C347.526 251 345.626 250.417 344.359 249.25C343.093 248.083 342.459 246.167 342.459 243.5V227.35H338.909V223.6H342.459V216.7H347.009V223.6H354.159V227.35H347.009ZM357.972 237.2C357.972 234.4 358.539 231.95 359.672 229.85C360.806 227.717 362.356 226.067 364.322 224.9C366.322 223.733 368.539 223.15 370.972 223.15C373.372 223.15 375.456 223.667 377.222 224.7C378.989 225.733 380.306 227.033 381.172 228.6V223.6H385.772V251H381.172V245.9C380.272 247.5 378.922 248.833 377.122 249.9C375.356 250.933 373.289 251.45 370.922 251.45C368.489 251.45 366.289 250.85 364.322 249.65C362.356 248.45 360.806 246.767 359.672 244.6C358.539 242.433 357.972 239.967 357.972 237.2ZM381.172 237.25C381.172 235.183 380.756 233.383 379.922 231.85C379.089 230.317 377.956 229.15 376.522 228.35C375.122 227.517 373.572 227.1 371.872 227.1C370.172 227.1 368.622 227.5 367.222 228.3C365.822 229.1 364.706 230.267 363.872 231.8C363.039 233.333 362.622 235.133 362.622 237.2C362.622 239.3 363.039 241.133 363.872 242.7C364.706 244.233 365.822 245.417 367.222 246.25C368.622 247.05 370.172 247.45 371.872 247.45C373.572 247.45 375.122 247.05 376.522 246.25C377.956 245.417 379.089 244.233 379.922 242.7C380.756 241.133 381.172 239.317 381.172 237.25ZM426.491 216.15V219.85H411.341V231.6H423.641V235.3H411.341V251H406.791V216.15H426.491ZM443.937 251.45C441.37 251.45 439.037 250.867 436.937 249.7C434.87 248.533 433.237 246.883 432.037 244.75C430.87 242.583 430.287 240.083 430.287 237.25C430.287 234.45 430.887 231.983 432.087 229.85C433.32 227.683 434.987 226.033 437.087 224.9C439.187 223.733 441.537 223.15 444.137 223.15C446.737 223.15 449.087 223.733 451.187 224.9C453.287 226.033 454.937 227.667 456.137 229.8C457.37 231.933 457.987 234.417 457.987 237.25C457.987 240.083 457.353 242.583 456.087 244.75C454.853 246.883 453.17 248.533 451.037 249.7C448.903 250.867 446.537 251.45 443.937 251.45ZM443.937 247.45C445.57 247.45 447.103 247.067 448.537 246.3C449.97 245.533 451.12 244.383 451.987 242.85C452.887 241.317 453.337 239.45 453.337 237.25C453.337 235.05 452.903 233.183 452.037 231.65C451.17 230.117 450.037 228.983 448.637 228.25C447.237 227.483 445.72 227.1 444.087 227.1C442.42 227.1 440.887 227.483 439.487 228.25C438.12 228.983 437.02 230.117 436.187 231.65C435.353 233.183 434.937 235.05 434.937 237.25C434.937 239.483 435.337 241.367 436.137 242.9C436.97 244.433 438.07 245.583 439.437 246.35C440.803 247.083 442.303 247.45 443.937 247.45ZM488.269 223.6V251H483.719V246.95C482.852 248.35 481.636 249.45 480.069 250.25C478.536 251.017 476.836 251.4 474.969 251.4C472.836 251.4 470.919 250.967 469.219 250.1C467.519 249.2 466.169 247.867 465.169 246.1C464.202 244.333 463.719 242.183 463.719 239.65V223.6H468.219V239.05C468.219 241.75 468.902 243.833 470.269 245.3C471.636 246.733 473.502 247.45 475.869 247.45C478.302 247.45 480.219 246.7 481.619 245.2C483.019 243.7 483.719 241.517 483.719 238.65V223.6H488.269ZM509.302 223.1C512.635 223.1 515.335 224.117 517.402 226.15C519.468 228.15 520.502 231.05 520.502 234.85V251H516.002V235.5C516.002 232.767 515.318 230.683 513.952 229.25C512.585 227.783 510.718 227.05 508.352 227.05C505.952 227.05 504.035 227.8 502.602 229.3C501.202 230.8 500.502 232.983 500.502 235.85V251H495.952V223.6H500.502V227.5C501.402 226.1 502.618 225.017 504.152 224.25C505.718 223.483 507.435 223.1 509.302 223.1ZM526.234 237.2C526.234 234.4 526.801 231.95 527.934 229.85C529.067 227.717 530.617 226.067 532.584 224.9C534.584 223.733 536.817 223.15 539.284 223.15C541.417 223.15 543.401 223.65 545.234 224.65C547.067 225.617 548.467 226.9 549.434 228.5V214H554.034V251H549.434V245.85C548.534 247.483 547.201 248.833 545.434 249.9C543.667 250.933 541.601 251.45 539.234 251.45C536.801 251.45 534.584 250.85 532.584 249.65C530.617 248.45 529.067 246.767 527.934 244.6C526.801 242.433 526.234 239.967 526.234 237.2ZM549.434 237.25C549.434 235.183 549.017 233.383 548.184 231.85C547.351 230.317 546.217 229.15 544.784 228.35C543.384 227.517 541.834 227.1 540.134 227.1C538.434 227.1 536.884 227.5 535.484 228.3C534.084 229.1 532.967 230.267 532.134 231.8C531.301 233.333 530.884 235.133 530.884 237.2C530.884 239.3 531.301 241.133 532.134 242.7C532.967 244.233 534.084 245.417 535.484 246.25C536.884 247.05 538.434 247.45 540.134 247.45C541.834 247.45 543.384 247.05 544.784 246.25C546.217 245.417 547.351 244.233 548.184 242.7C549.017 241.133 549.434 239.317 549.434 237.25Z" fill="#BAB5B5"/>
<path d="M349.367 500.467V512.977H347.315V504.409L343.499 512.977H342.077L338.243 504.409V512.977H336.191V500.467H338.405L342.797 510.277L347.171 500.467H349.367ZM356.367 513.139C355.431 513.139 354.585 512.929 353.829 512.509C353.073 512.077 352.479 511.477 352.047 510.709C351.615 509.929 351.399 509.029 351.399 508.009C351.399 507.001 351.621 506.107 352.065 505.327C352.509 504.547 353.115 503.947 353.883 503.527C354.651 503.107 355.509 502.897 356.457 502.897C357.405 502.897 358.263 503.107 359.031 503.527C359.799 503.947 360.405 504.547 360.849 505.327C361.293 506.107 361.515 507.001 361.515 508.009C361.515 509.017 361.287 509.911 360.831 510.691C360.375 511.471 359.751 512.077 358.959 512.509C358.179 512.929 357.315 513.139 356.367 513.139ZM356.367 511.357C356.895 511.357 357.387 511.231 357.843 510.979C358.311 510.727 358.689 510.349 358.977 509.845C359.265 509.341 359.409 508.729 359.409 508.009C359.409 507.289 359.271 506.683 358.995 506.191C358.719 505.687 358.353 505.309 357.897 505.057C357.441 504.805 356.949 504.679 356.421 504.679C355.893 504.679 355.401 504.805 354.945 505.057C354.501 505.309 354.147 505.687 353.883 506.191C353.619 506.683 353.487 507.289 353.487 508.009C353.487 509.077 353.757 509.905 354.297 510.493C354.849 511.069 355.539 511.357 356.367 511.357ZM368.547 502.897C369.327 502.897 370.023 503.059 370.635 503.383C371.259 503.707 371.745 504.187 372.093 504.823C372.441 505.459 372.615 506.227 372.615 507.127V512.977H370.581V507.433C370.581 506.545 370.359 505.867 369.915 505.399C369.471 504.919 368.865 504.679 368.097 504.679C367.329 504.679 366.717 504.919 366.261 505.399C365.817 505.867 365.595 506.545 365.595 507.433V512.977H363.543V503.059H365.595V504.193C365.931 503.785 366.357 503.467 366.873 503.239C367.401 503.011 367.959 502.897 368.547 502.897ZM377.626 504.733V510.223C377.626 510.595 377.71 510.865 377.878 511.033C378.058 511.189 378.358 511.267 378.778 511.267H380.038V512.977H378.418C377.494 512.977 376.786 512.761 376.294 512.329C375.802 511.897 375.556 511.195 375.556 510.223V504.733H374.386V503.059H375.556V500.593H377.626V503.059H380.038V504.733H377.626ZM387.06 502.897C387.816 502.897 388.488 503.059 389.076 503.383C389.676 503.707 390.144 504.187 390.48 504.823C390.828 505.459 391.002 506.227 391.002 507.127V512.977H388.968V507.433C388.968 506.545 388.746 505.867 388.302 505.399C387.858 504.919 387.252 504.679 386.484 504.679C385.716 504.679 385.104 504.919 384.648 505.399C384.204 505.867 383.982 506.545 383.982 507.433V512.977H381.93V499.657H383.982V504.211C384.33 503.791 384.768 503.467 385.296 503.239C385.836 503.011 386.424 502.897 387.06 502.897Z" fill="#BAB5B5"/>
<path d="M25.2313 313.496C24.0073 313.507 22.9062 313.236 21.9279 312.681C20.9495 312.114 20.1848 311.347 19.6339 310.38C19.0708 309.401 18.7827 308.33 18.7696 307.166C18.7547 305.834 19.0713 304.649 19.7197 303.611C20.3559 302.561 21.2714 301.796 22.4661 301.317L22.4938 303.783C21.8375 304.113 21.3506 304.568 21.0331 305.147C20.7156 305.726 20.5611 306.393 20.5696 307.149C20.5789 307.977 20.7732 308.713 21.1525 309.358C21.5317 310.002 22.0714 310.507 22.7716 310.873C23.4716 311.226 24.2836 311.399 25.2076 311.39C26.1315 311.381 26.9395 311.194 27.6314 310.827C28.3232 310.449 28.8574 309.934 29.2341 309.282C29.5988 308.631 29.7765 307.891 29.7672 307.063C29.7587 306.307 29.5892 305.643 29.2587 305.07C28.9282 304.497 28.4312 304.052 27.7676 303.734L27.7398 301.268C28.945 301.725 29.8775 302.472 30.5372 303.51C31.1968 304.536 31.5341 305.715 31.5491 307.047C31.5623 308.223 31.3044 309.299 30.7754 310.276C30.2343 311.253 29.4811 312.034 28.5156 312.619C27.55 313.192 26.4552 313.484 25.2313 313.496ZM31.4622 294.529C31.4728 295.465 31.2723 296.313 30.8608 297.073C30.4373 297.833 29.8441 298.432 29.0809 298.872C28.3058 299.311 27.4083 299.535 26.3884 299.545C25.3804 299.554 24.4839 299.34 23.699 298.904C22.914 298.467 22.3072 297.867 21.8786 297.103C21.45 296.339 21.2303 295.483 21.2197 294.535C21.209 293.587 21.4093 292.727 21.8207 291.955C22.232 291.183 22.8252 290.572 23.6001 290.12C24.3751 289.669 25.2666 289.439 26.2745 289.429C27.2825 289.42 28.179 289.64 28.9641 290.088C29.7492 290.537 30.3622 291.155 30.8031 291.943C31.2319 292.719 31.4516 293.581 31.4622 294.529ZM29.6803 294.546C29.6744 294.018 29.5428 293.527 29.2857 293.073C29.0285 292.608 28.6462 292.233 28.139 291.95C27.6318 291.667 27.0182 291.528 26.2982 291.535C25.5783 291.542 24.9738 291.686 24.485 291.966C23.9841 292.247 23.6102 292.616 23.3634 293.075C23.1165 293.533 22.9961 294.026 23.002 294.554C23.0079 295.082 23.1395 295.573 23.3966 296.026C23.6536 296.468 24.0355 296.818 24.5425 297.078C25.0374 297.337 25.6449 297.463 26.3649 297.457C27.4328 297.447 28.2577 297.169 28.8396 296.624C29.4094 296.066 29.6896 295.374 29.6803 294.546ZM21.2009 278.466L31.1184 278.373L31.1415 280.425L29.9716 280.436C30.3832 280.756 30.712 281.179 30.9579 281.705C31.1917 282.219 31.3119 282.77 31.3185 283.357C31.3273 284.137 31.1732 284.841 30.8562 285.468C30.5391 286.083 30.0646 286.573 29.4327 286.939C28.8006 287.293 28.0346 287.474 27.1347 287.483L21.3029 287.537L21.28 285.503L26.8058 285.452C27.6938 285.443 28.3752 285.215 28.8502 284.767C29.3132 284.318 29.5404 283.71 29.5317 282.942C29.5231 282.174 29.2823 281.57 28.8093 281.131C28.3242 280.679 27.6377 280.458 26.7497 280.466L21.2239 280.518L21.2009 278.466ZM20.9521 270.756C20.9433 269.976 21.0975 269.279 21.4146 268.664C21.7315 268.037 22.206 267.546 22.8381 267.192C23.4702 266.839 24.2362 266.657 25.1361 266.649L30.9859 266.594L31.0088 268.628L25.465 268.68C24.577 268.688 23.9016 268.917 23.4386 269.365C22.9636 269.813 22.7304 270.422 22.7391 271.19C22.7477 271.957 22.9946 272.567 23.4797 273.019C23.9527 273.458 24.6331 273.674 25.5211 273.666L31.0649 273.614L31.088 275.666L21.1704 275.758L21.1473 273.706L22.2812 273.696C21.8695 273.364 21.5467 272.941 21.3129 272.427C21.079 271.901 20.9587 271.344 20.9521 270.756ZM22.6858 261.66L28.1756 261.609C28.5476 261.606 28.8166 261.519 28.9827 261.349C29.1367 261.168 29.2113 260.867 29.2066 260.447L29.1924 259.187L30.9023 259.171L30.9206 260.791C30.931 261.715 30.7229 262.425 30.2965 262.921C29.8701 263.417 29.1709 263.67 28.1989 263.679L22.7091 263.73L22.7223 264.9L21.0484 264.916L21.0352 263.746L18.5693 263.769L18.546 261.699L21.0119 261.676L20.9848 259.264L22.6587 259.248L22.6858 261.66ZM30.942 248.302C30.9526 249.238 30.7521 250.085 30.3406 250.845C29.9171 251.605 29.3239 252.205 28.5607 252.644C27.7856 253.083 26.8881 253.308 25.8682 253.317C24.8602 253.327 23.9637 253.113 23.1788 252.676C22.3938 252.239 21.787 251.639 21.3584 250.875C20.9298 250.111 20.7101 249.255 20.6995 248.307C20.6888 247.359 20.8891 246.499 21.3005 245.727C21.7118 244.956 22.305 244.344 23.0799 243.893C23.8549 243.441 24.7464 243.211 25.7543 243.202C26.7623 243.192 27.6588 243.412 28.4439 243.861C29.229 244.309 29.842 244.928 30.2829 245.716C30.7117 246.492 30.9314 247.354 30.942 248.302ZM29.1601 248.318C29.1542 247.79 29.0226 247.299 28.7655 246.846C28.5083 246.38 28.126 246.006 27.6188 245.722C27.1116 245.439 26.498 245.301 25.778 245.308C25.0581 245.314 24.4536 245.458 23.9648 245.739C23.4639 246.019 23.09 246.389 22.8432 246.847C22.5963 247.305 22.4758 247.799 22.4818 248.326C22.4877 248.854 22.6193 249.345 22.8764 249.799C23.1334 250.24 23.5153 250.591 24.0223 250.85C24.5172 251.11 25.1247 251.236 25.8447 251.229C26.9126 251.219 27.7375 250.942 28.3194 250.396C28.8892 249.839 29.1694 249.146 29.1601 248.318ZM22.4089 237.046L22.4295 238.882L30.6732 238.805L30.6964 240.875L22.4528 240.952L22.466 242.122L20.792 242.137L20.7789 240.968L20.0769 240.974C18.937 240.985 18.1056 240.692 17.5829 240.097C17.048 239.49 16.7733 238.539 16.7587 237.243L18.4686 237.227C18.4757 237.851 18.6006 238.288 18.8434 238.537C19.0742 238.787 19.4776 238.91 20.0536 238.904L20.7556 238.898L20.7349 237.062L22.4089 237.046ZM17.9486 219.811L30.511 224.392L30.5377 226.768L18.0813 231.6L18.0566 229.404L28.4184 225.599L17.9729 221.971L17.9486 219.811ZM19.1955 217.039C19.1997 217.411 19.0772 217.724 18.8281 217.978C18.5789 218.233 18.2684 218.362 17.8964 218.365C17.5244 218.369 17.211 218.245 16.9562 217.996C16.7013 217.746 16.5718 217.435 16.5676 217.063C16.5636 216.703 16.6861 216.396 16.9353 216.142C17.1844 215.888 17.495 215.759 17.867 215.755C18.239 215.752 18.5524 215.875 18.8072 216.125C19.062 216.374 19.1915 216.679 19.1955 217.039ZM20.4981 216.019L30.4157 215.926L30.4388 217.978L20.5212 218.071L20.4981 216.019ZM30.499 208.929C30.5095 209.865 30.309 210.713 29.8976 211.473C29.4741 212.233 28.8808 212.832 28.1177 213.271C27.3426 213.711 26.445 213.935 25.4251 213.945C24.4171 213.954 23.5207 213.74 22.7357 213.304C21.9508 212.867 21.344 212.267 20.9153 211.503C20.4867 210.739 20.2671 209.883 20.2564 208.935C20.2457 207.987 20.4461 207.127 20.8574 206.355C21.2687 205.583 21.8619 204.971 22.6369 204.52C23.4118 204.069 24.3033 203.839 25.3113 203.829C26.3192 203.82 27.2157 204.039 28.0008 204.488C28.7859 204.937 29.3989 205.555 29.8398 206.343C30.2686 207.119 30.4883 207.981 30.499 208.929ZM28.717 208.946C28.7111 208.418 28.5796 207.927 28.3225 207.473C28.0652 207.008 27.683 206.633 27.1757 206.35C26.6685 206.067 26.0549 205.928 25.335 205.935C24.615 205.942 24.0106 206.085 23.5217 206.366C23.0208 206.647 22.647 207.016 22.4001 207.475C22.1532 207.933 22.0328 208.426 22.0387 208.954C22.0447 209.482 22.1762 209.973 22.4333 210.426C22.6903 210.868 23.0723 211.218 23.5792 211.478C24.0742 211.737 24.6816 211.863 25.4016 211.857C26.4696 211.847 27.2945 211.569 27.8764 211.024C28.4461 210.466 28.7264 209.774 28.717 208.946ZM16.9137 199.827L30.2331 199.703L30.2562 201.755L16.9368 201.879L16.9137 199.827ZM25.2067 197.739C24.2108 197.749 23.3265 197.553 22.554 197.152C21.7813 196.739 21.1809 196.181 20.753 195.477C20.3129 194.761 20.088 193.971 20.0783 193.107C20.0695 192.327 20.2179 191.648 20.5234 191.069C20.8168 190.478 21.1895 190.006 21.6415 189.654L20.2016 189.668L20.1783 187.598L30.0959 187.505L30.1192 189.575L28.6432 189.589C29.1151 189.933 29.5104 190.403 29.8292 191C30.1479 191.597 30.3116 192.28 30.3203 193.047C30.3298 193.899 30.1226 194.681 29.6986 195.393C29.2626 196.105 28.657 196.675 27.8817 197.102C27.0944 197.518 26.2027 197.73 25.2067 197.739ZM25.1514 189.622C24.4674 189.628 23.8751 189.777 23.3743 190.07C22.8734 190.351 22.4936 190.72 22.2347 191.179C21.9759 191.637 21.8494 192.13 21.8554 192.658C21.8613 193.186 21.9988 193.677 22.2679 194.131C22.5251 194.584 22.9072 194.953 23.4145 195.236C23.9095 195.507 24.4991 195.64 25.183 195.633C25.867 195.627 26.4654 195.484 26.9783 195.203C27.491 194.91 27.8828 194.534 28.1537 194.076C28.4124 193.605 28.5389 193.112 28.5331 192.596C28.5271 192.068 28.3896 191.577 28.1205 191.124C27.8514 190.67 27.4633 190.308 26.9562 190.037C26.4369 189.754 25.8354 189.615 25.1514 189.622ZM21.795 182.493L27.2847 182.442C27.6567 182.439 27.9258 182.352 28.0919 182.183C28.2458 182.001 28.3204 181.7 28.3157 181.28L28.3015 180.021L30.0115 180.005L30.0297 181.624C30.0401 182.548 29.8321 183.258 29.4056 183.754C28.9792 184.25 28.28 184.503 27.308 184.512L21.8183 184.563L21.8314 185.733L20.1575 185.749L20.1443 184.579L17.6784 184.602L17.6551 182.532L20.121 182.509L20.0939 180.097L21.7678 180.081L21.795 182.493ZM18.7469 177.174C18.7511 177.546 18.6286 177.859 18.3795 178.114C18.1303 178.368 17.8198 178.497 17.4478 178.5C17.0758 178.504 16.7624 178.381 16.5076 178.131C16.2527 177.882 16.1232 177.571 16.119 177.199C16.115 176.839 16.2375 176.532 16.4867 176.277C16.7358 176.023 17.0464 175.894 17.4184 175.891C17.7904 175.887 18.1038 176.01 18.3586 176.26C18.6134 176.509 18.7429 176.814 18.7469 177.174ZM20.0495 176.154L29.9671 176.062L29.9902 178.113L20.0726 178.206L20.0495 176.154ZM30.0504 169.064C30.0609 170 29.8604 170.848 29.449 171.608C29.0255 172.368 28.4322 172.968 27.6691 173.407C26.894 173.846 25.9964 174.07 24.9765 174.08C23.9685 174.089 23.0721 173.876 22.2871 173.439C21.5022 173.002 20.8954 172.402 20.4667 171.638C20.0381 170.874 19.8185 170.018 19.8078 169.07C19.7971 168.122 19.9975 167.262 20.4088 166.49C20.8201 165.718 21.4133 165.107 22.1883 164.656C22.9632 164.204 23.8547 163.974 24.8627 163.965C25.8706 163.955 26.7671 164.175 27.5522 164.624C28.3373 165.072 28.9503 165.691 29.3912 166.478C29.82 167.254 30.0397 168.116 30.0504 169.064ZM28.2684 169.081C28.2625 168.553 28.131 168.062 27.8739 167.609C27.6166 167.143 27.2344 166.769 26.7271 166.485C26.2199 166.202 25.6063 166.064 24.8864 166.07C24.1664 166.077 23.562 166.221 23.0731 166.501C22.5722 166.782 22.1984 167.152 21.9515 167.61C21.7046 168.068 21.5842 168.561 21.5901 169.089C21.5961 169.617 21.7276 170.108 21.9847 170.562C22.2417 171.003 22.6237 171.354 23.1306 171.613C23.6256 171.872 24.233 171.999 24.953 171.992C26.021 171.982 26.8459 171.704 27.4278 171.159C27.9975 170.602 28.2778 169.909 28.2684 169.081ZM19.6718 156.98C19.663 156.2 19.8171 155.503 20.1342 154.888C20.4512 154.261 20.9257 153.77 21.5578 153.416C22.1898 153.063 22.9558 152.881 23.8558 152.873L29.7055 152.818L29.7284 154.852L24.1847 154.904C23.2967 154.912 22.6212 155.141 22.1583 155.589C21.6833 156.037 21.4501 156.646 21.4587 157.414C21.4674 158.181 21.7143 158.791 22.1994 159.243C22.6723 159.682 23.3528 159.898 24.2408 159.89L29.7845 159.838L29.8076 161.89L19.8901 161.982L19.867 159.93L21.0009 159.92C20.5892 159.588 20.2664 159.165 20.0326 158.651C19.7986 158.125 19.6784 157.568 19.6718 156.98Z" fill="#BAB5B5"/>
</svg>
