<svg width="99" height="97" viewBox="0 0 99 97" fill="none" xmlns="http://www.w3.org/2000/svg">
<path d="M50.2002 28.5801V56.6109L64.2156 68.2904" stroke="#8994A3" stroke-width="3" stroke-linecap="round"/>
<path d="M5.61032 66.8681C5.29849 66.1006 5.66788 65.2256 6.43538 64.9138C7.20287 64.602 8.07784 64.9713 8.38968 65.7388L5.61032 66.8681ZM27.9806 89.7696L27.2645 91.0876L27.9806 89.7696ZM59.0855 94.5992L59.3682 96.0723L59.0855 94.5992ZM86.1939 78.5997L85.0408 77.6403L86.1939 78.5997ZM96.9989 49.0346L95.499 49.0245L96.9989 49.0346ZM86.5955 19.3259L85.4295 20.2696L86.5955 19.3259ZM59.7065 2.96055L60.0091 1.49139L59.7065 2.96055ZM28.5389 7.3682L27.8408 6.04056V6.04056L28.5389 7.3682ZM7.80689 31.9375C7.0394 32.2493 6.16443 31.88 5.85259 31.1125L0.771004 18.6054C0.459167 17.8379 0.82856 16.9629 1.59605 16.6511C2.36356 16.3392 3.23853 16.7086 3.55035 17.4761L8.06733 28.5935L19.1847 24.0766C19.9522 23.7647 20.8272 24.1341 21.139 24.9016C21.4509 25.6691 21.0815 26.5441 20.314 26.8559L7.80689 31.9375ZM8.38968 65.7388C12.3275 75.4308 19.5041 83.4576 28.6966 88.4515L27.2645 91.0876C17.4621 85.7624 9.80942 77.2031 5.61032 66.8681L8.38968 65.7388ZM28.6966 88.4515C37.8892 93.4454 48.5289 95.0974 58.8029 93.126L59.3682 96.0723C48.4126 98.1744 37.067 96.4128 27.2645 91.0876L28.6966 88.4515ZM58.8029 93.126C69.0769 91.1547 78.3495 85.6819 85.0408 77.6403L87.3469 79.5591C80.2117 88.1343 70.3238 93.9701 59.3682 96.0723L58.8029 93.126ZM85.0408 77.6403C91.7321 69.5986 95.4281 59.4857 95.499 49.0245L98.4989 49.0448C98.4233 60.2 94.4821 70.984 87.3469 79.5591L85.0408 77.6403ZM95.499 49.0245C95.5698 38.5633 92.0113 28.4012 85.4295 20.2696L87.7614 18.3822C94.7798 27.0532 98.5745 37.8896 98.4989 49.0448L95.499 49.0245ZM85.4295 20.2696C78.8478 12.138 69.6502 6.54011 59.4039 4.42971L60.0091 1.49139C70.9352 3.7418 80.743 9.71109 87.7614 18.3822L85.4295 20.2696ZM59.4039 4.42971C49.1575 2.31931 38.4964 3.82699 29.237 8.69584L27.8408 6.04056C37.7145 0.848677 49.0829 -0.759023 60.0091 1.49139L59.4039 4.42971ZM29.237 8.69584C19.9777 13.5647 12.693 21.4935 8.62417 31.1312L5.86037 29.9644C10.1991 19.6873 17.9671 11.2324 27.8408 6.04056L29.237 8.69584Z" fill="#8994A3"/>
</svg>
