<svg width="24" height="24" viewBox="0 0 24 24" fill="none" xmlns="http://www.w3.org/2000/svg">
<g clip-path="url(#clip0_479_108)">
<path d="M12 4C7.58889 4 4 7.58889 4 12C4 16.4111 7.58889 20 12 20C16.4111 20 20 16.4111 20 12C20 7.58889 16.4111 4 12 4ZM16.0928 6.98828C16.1827 6.8882 16.3096 6.82909 16.4444 6.82375C16.5606 6.81058 16.71 6.8672 16.8077 6.95997C17.8448 7.94191 18.5499 9.19192 18.8447 10.5747C18.8916 10.7954 18.7852 11.02 18.585 11.1235C18.0957 11.3765 17.5147 11.499 16.958 11.499C16.2325 11.499 15.5449 11.291 15.1465 10.8925C14.2989 10.0454 14.6523 8.58597 16.0928 6.98828ZM7.90727 17.0898C7.81741 17.1899 7.69047 17.2495 7.5557 17.2549C7.54984 17.2554 7.543 17.2554 7.53616 17.2554C7.40823 17.2554 7.28519 17.2065 7.19242 17.1186C6.15531 16.1367 5.45022 14.8867 5.15533 13.5034C5.10845 13.2827 5.21491 13.0581 5.41511 12.9546C6.54208 12.373 8.14947 12.4814 8.85358 13.1855C9.70023 14.0327 9.3467 15.4922 7.90727 17.0898ZM8.85353 10.8926C8.45509 11.291 7.76758 11.4991 7.042 11.4991C6.48536 11.4991 5.90528 11.3765 5.41506 11.1236C5.21486 11.0201 5.10841 10.7955 5.15528 10.5748C5.45022 9.19197 6.15527 7.94195 7.19237 6.96002C7.29002 6.86725 7.43359 6.80964 7.55566 6.8238C7.69042 6.82919 7.81736 6.88825 7.90722 6.98833C9.34769 8.58597 9.70117 10.0454 8.85353 10.8926ZM14.1309 18.6675C13.4385 18.8882 12.7217 19 12 19C11.2784 19 10.5615 18.8882 9.86917 18.6675C9.64942 18.5972 9.50589 18.3863 9.5215 18.1563C9.64652 16.357 10.7119 15 12 15C13.2881 15 14.3535 16.357 14.4785 18.1562C14.4941 18.3863 14.3506 18.5972 14.1309 18.6675ZM10 12C10 10.897 10.8975 10 12 10C13.1026 10 14 10.897 14 12C14 13.1031 13.1026 14 12 14C10.8975 14 10 13.103 10 12ZM14.4785 5.8833C14.3535 7.68213 13.2881 9.03906 12 9.03906C10.7119 9.03906 9.64652 7.68213 9.5215 5.8833C9.50589 5.65333 9.64844 5.44239 9.86819 5.37255C11.253 4.93014 12.7471 4.93014 14.1318 5.37255C14.3516 5.44239 14.4941 5.65333 14.4785 5.8833ZM18.8447 13.4238C18.5498 14.8071 17.8448 16.0571 16.8077 17.0391C16.7149 17.127 16.5918 17.1758 16.4639 17.1758C16.4571 17.1758 16.4502 17.1758 16.4444 17.1753C16.3096 17.17 16.1827 17.1109 16.0928 17.0108C14.6524 15.4132 14.2989 13.9532 15.1465 13.106C15.8506 12.4015 17.4571 12.2945 18.585 12.8751C18.7852 12.9785 18.8916 13.2032 18.8447 13.4238Z" fill="#FA751A"/>
<path d="M12 0C5.3828 0 0 5.38331 0 12C0 18.6167 5.3828 24 12 24C18.6172 24 24 18.6167 24 12C24 5.38331 18.6172 0 12 0ZM12 21C7.03711 21 3 16.9624 3 12C3 7.03758 7.03711 3 12 3C16.9629 3 21 7.03758 21 12C21 16.9624 16.9629 21 12 21Z" fill="#FA751A"/>
</g>
<defs>
<clipPath id="clip0_479_108">
<rect width="24" height="24" fill="white"/>
</clipPath>
</defs>
</svg>
