<svg width="42" height="42" viewBox="0 0 42 42" fill="none" xmlns="http://www.w3.org/2000/svg">
<circle cx="21" cy="21" r="21" fill="#E8F8E1"/>
<path fill-rule="evenodd" clip-rule="evenodd" d="M29.548 20.6981C29.1215 20.6981 28.7745 20.3511 28.7745 19.9246C28.7745 19.498 29.1215 19.151 29.548 19.151C29.9745 19.151 30.3216 19.498 30.3216 19.9246C30.3216 20.3511 29.9745 20.6981 29.548 20.6981ZM26.1072 15.5122C26.5337 15.5122 26.8808 15.8593 26.8808 16.2858C26.8808 16.7123 26.5337 17.0593 26.1072 17.0593C25.6807 17.0593 25.3337 16.7123 25.3337 16.2858C25.3337 15.8593 25.6807 15.5122 26.1072 15.5122ZM20.8015 15.5864C20.3749 15.5864 20.0279 15.2394 20.0279 14.8128C20.0279 14.3863 20.3749 14.0393 20.8015 14.0393C21.228 14.0393 21.575 14.3863 21.575 14.8128C21.575 15.2394 21.228 15.5864 20.8015 15.5864ZM15.6934 17.0003C15.2668 17.0003 14.9198 16.6533 14.9198 16.2267C14.9198 15.8002 15.2668 15.4532 15.6934 15.4532C16.1199 15.4532 16.4669 15.8002 16.4669 16.2267C16.4669 16.6533 16.1199 17.0003 15.6934 17.0003ZM12.0785 18.9066C12.505 18.9066 12.8521 19.2536 12.8521 19.6802C12.8521 20.1067 12.505 20.4537 12.0785 20.4537C11.652 20.4537 11.305 20.1067 11.305 19.6802C11.305 19.2536 11.652 18.9066 12.0785 18.9066ZM20.6738 28.8701C20.4905 28.8701 20.3062 28.8512 20.1234 28.8122C20.0814 28.8033 20.0393 28.7933 19.9973 28.7823C19.9552 28.7714 19.9137 28.7595 19.8726 28.7468C18.6334 28.3634 17.7491 27.0103 17.9586 25.7055C18.0914 24.8783 18.6971 24.0079 19.1111 23.294C20.2735 21.2899 21.4055 19.2693 22.5448 17.2512C22.6361 17.0895 22.7885 17.0167 22.9401 17.0167C23.1732 17.0167 23.4039 17.1892 23.4053 17.4752C23.4177 20.015 23.43 22.555 23.4424 25.0948C23.4475 26.156 23.4653 27.1428 22.7 27.9745C22.1763 28.5437 21.435 28.8701 20.6738 28.8701ZM33.6479 20.3539C31.365 15.4152 26.4633 12 20.7841 12C15.2433 12 10.4427 15.251 8.09204 19.9959C7.87068 20.4428 8.06336 20.9892 8.51191 21.1875L16.8508 24.8746C16.7829 25.0796 16.7283 25.2892 16.6941 25.5025C16.5438 26.4388 16.7561 27.418 17.2921 28.2596C17.8185 29.0862 18.6005 29.6938 19.494 29.9703C19.5531 29.9885 19.6137 30.0058 19.674 30.0216C19.7343 30.0372 19.7956 30.0518 19.8563 30.0647C20.1241 30.1218 20.3992 30.1508 20.6738 30.1508C21.7949 30.1508 22.877 29.6736 23.6424 28.8416C24.736 27.653 24.7289 26.2596 24.7233 25.14L24.7231 25.0886L24.7226 24.9957L33.1964 21.5345C33.6509 21.3489 33.8576 20.8075 33.6479 20.3539Z" fill="#102C53"/>
</svg>
