<svg width="36" height="34" viewBox="0 0 36 34" fill="none" xmlns="http://www.w3.org/2000/svg">
<g clip-path="url(#clip0_421_188)">
<path d="M19.9196 23.8699L19.8256 23.947C18.1216 25.3283 16.4826 26.6308 15.0997 27.698L14.9964 27.7827C13.2419 29.1361 11.915 30.0947 11.4187 30.3279C11.0385 30.5167 10.626 30.6291 10.2053 30.6587C9.78459 30.6883 9.36399 30.6344 8.96798 30.5001C7.78352 30.1201 6.56708 29.0904 5.21552 27.4432C3.86397 25.796 3.08849 24.396 2.94626 23.1591C2.89221 22.7446 2.92169 22.3217 3.03299 21.9151C3.14428 21.5084 3.33518 21.126 3.59458 20.7902C3.9248 20.3503 5.11947 19.2349 6.78864 17.7774L6.89191 17.6927C8.20853 16.5448 9.8061 15.1917 11.4935 13.7902L11.5875 13.7131C13.5313 12.0996 15.5935 10.4262 17.4751 8.92449L17.6187 8.8067L18.3515 8.22567C20.7149 6.35913 22.7044 4.85184 23.6859 4.2222C27.0663 2.05353 30.7207 6.50735 30.7207 6.50735C30.7207 6.50735 34.3743 10.9602 31.5846 13.8592C30.7721 14.6949 28.9094 16.3567 26.6165 18.3091L25.9043 18.9154L25.7608 19.0331C23.927 20.5868 21.8857 22.2752 19.9196 23.8699Z" fill="#FFD557"/>
<path d="M12.2132 14.4768L12.1192 14.5539L11.4902 13.7873L11.5842 13.7102L12.2132 14.4768Z" fill="#4A5260"/>
<path d="M19.9194 23.8702L19.8254 23.9473L19.1973 23.1817L19.2912 23.1046L19.9194 23.8702Z" fill="#4A5260"/>
<path d="M8.21325 18.3356L7.73466 18.1503L6.78906 17.7771L6.89234 17.6923L7.84745 18.0645L8.26542 18.2285L8.21325 18.3356Z" fill="#4A5260"/>
<path d="M15.1056 27.7008L15.0023 27.7855L14.8259 26.7829L14.7377 26.2773L14.8549 26.2538L14.9341 26.6958L15.1056 27.7008Z" fill="#4A5260"/>
<path d="M8.966 30.4946C7.7867 30.1103 6.56613 29.084 5.21458 27.4368C3.86302 25.7896 3.08983 24.3944 2.94822 23.1604C3.50502 22.3429 4.21582 21.6391 5.03999 21.0892L7.93168 25.2074L11.4066 28.8486C10.7059 29.5489 9.8766 30.1082 8.966 30.4946Z" fill="#FFDE7A"/>
<path d="M29.893 7.18078C29.893 7.18078 28.3708 5.32552 27.7142 6.03323L30.5963 9.54579C31.4145 9.03502 29.893 7.18078 29.893 7.18078Z" fill="#2B3545"/>
<path d="M24.7809 4.62331L23.9871 5.0837C23.7394 5.22701 23.5351 5.43501 23.3967 5.6846C23.2583 5.93418 23.1913 6.21558 23.2031 6.49752L23.2038 6.51727L24.7103 8.35333L27.5833 5.99596C27.6503 5.94012 27.7036 5.86984 27.7391 5.79066C27.7745 5.71148 27.7912 5.62557 27.7878 5.53971C27.7844 5.45386 27.761 5.3704 27.7194 5.29594C27.6778 5.22147 27.6191 5.15804 27.5481 5.11064L26.9039 4.67935C26.5948 4.47367 26.2322 4.35942 25.8571 4.34951C25.4819 4.33961 25.1091 4.43445 24.7809 4.62331Z" fill="white"/>
<path d="M31.338 12.6139L30.7315 13.3026C30.5426 13.5174 30.2986 13.6772 30.0268 13.7642C29.755 13.8512 29.466 13.862 29.1918 13.7953L29.1725 13.7908L27.666 11.9548L30.5391 9.59739C30.6069 9.54265 30.6862 9.50409 30.7708 9.48475C30.8554 9.4654 30.9429 9.46581 31.0265 9.48592C31.11 9.50604 31.1873 9.54532 31.2522 9.60066C31.3171 9.656 31.3678 9.72589 31.4005 9.80482L31.6976 10.5208C31.839 10.8641 31.8802 11.2421 31.8167 11.6119C31.7531 11.9818 31.5873 12.3289 31.338 12.6139Z" fill="white"/>
<path d="M26.7184 5.10371C26.3527 4.87821 25.9226 4.77435 25.4888 4.80677C25.055 4.8392 24.6393 5.00629 24.3006 5.28445L20.1914 8.65611L26.5581 16.4155L30.6673 13.0438C31.0064 12.7656 31.2513 12.3901 31.3676 11.9706C31.4838 11.551 31.4654 11.1086 31.315 10.7058C30.4474 8.37647 28.8335 6.40947 26.7184 5.10371Z" fill="#FFDE7A"/>
<path d="M30.1549 9.67067C30.3216 9.49737 30.4282 9.27599 30.4587 9.03999C30.4892 8.80398 30.4419 8.56618 30.324 8.36254C30.1216 8.025 29.893 7.70411 29.6402 7.40275C29.394 7.09593 29.1239 6.80905 28.8324 6.54465C28.6557 6.38906 28.4316 6.29607 28.1941 6.27972C27.9565 6.26337 27.7184 6.32455 27.5156 6.45402L21.5176 10.272L25.2333 14.8006L30.1549 9.67067Z" fill="#FFDE7A"/>
<path d="M26.5584 16.4157L25.6319 16.9714L23.2501 18.3985L20.6447 19.9617L19.7787 18.9926C19.1355 18.2732 18.5099 17.5382 17.9021 16.7876C17.3668 16.1352 16.8462 15.4706 16.3405 14.7939L15.5592 13.7553L17.5488 11.5617L19.4125 9.50527L20.1909 8.64694C21.6866 9.49566 23.0103 10.6095 24.0984 11.935C24.1688 12.0208 24.2392 12.1067 24.3105 12.1935C25.2962 13.4595 26.0562 14.887 26.5584 16.4157Z" fill="#2B3545"/>
<path d="M6.81561 19.9865C6.3328 20.0892 5.84011 20.13 5.34961 20.1079L18.9816 8.92263L16.7574 11.5232L15.0819 13.4827C14.7424 13.8795 14.377 14.2539 13.9882 14.6032L11.6671 16.6919L9.56164 18.5884C8.78376 19.289 7.83514 19.772 6.81561 19.9865Z" fill="#2B3545"/>
<path d="M26.0614 17.5481L20.8245 20.4847C20.3687 20.7399 19.93 21.0248 19.5112 21.3375L14.7401 24.9008C14.1224 25.3617 13.5999 25.9379 13.2028 26.5962C12.8057 27.2544 12.5418 27.9816 12.4263 28.7358L26.0583 17.5506L26.0614 17.5481Z" fill="#2B3545"/>
<path d="M11.4045 28.8491C9.60205 29.3902 7.86638 27.9635 7.00956 27.073C6.8088 26.8686 6.61948 26.6533 6.44241 26.4281C6.44241 26.4281 3.78504 23.4443 5.03785 21.0898L5.58474 21.0382L6.46618 20.952L7.80706 20.8235C7.80706 20.8235 7.92246 21.9539 9.05696 23.5156C9.16865 23.6707 9.29214 23.8296 9.42473 23.9912C10.894 25.7818 12.2098 26.1893 12.2098 26.1893L11.8239 27.4691L11.6792 27.9477L11.4045 28.8491Z" fill="#2B3545"/>
<path opacity="0.1" d="M14.9284 14.2996C14.9284 14.2996 17.6282 18.2407 19.791 20.2259C19.791 20.2259 14.7026 24.2321 12.835 25.3235C12.835 25.3235 11.4623 19.1985 14.9284 14.2996Z" fill="white"/>
<path opacity="0.1" d="M23.1123 12.7927C21.2321 13.896 19.3782 15.1789 17.902 16.7873C17.3667 16.1348 16.8462 15.4703 16.3405 14.7936L15.5591 13.7549L20.1916 8.65606C21.6873 9.50478 23.011 10.6186 24.0991 11.9441C24.1696 12.0299 24.24 12.1158 24.3113 12.2026C23.8643 12.4224 23.4237 12.6098 23.1123 12.7927Z" fill="white"/>
<path opacity="0.1" d="M26.5588 16.4157L25.6323 16.9714C25.2268 15.9928 24.727 15.0572 24.1399 14.1775C23.3921 13.0553 22.5095 12.0298 21.511 11.123C20.8914 10.5616 20.0483 10.1027 19.4105 9.51068L20.1888 8.65235C21.6845 9.50107 23.0082 10.6149 24.0963 11.9404C24.1667 12.0262 24.2372 12.1121 24.3084 12.1989C25.2944 13.4631 26.0553 14.8888 26.5588 16.4157Z" fill="#080808"/>
<path opacity="0.05" d="M26.5583 16.4162L25.6318 16.9719L23.25 18.399C21.938 15.6874 19.9821 13.3449 17.5479 11.5696L19.4116 9.51318L20.19 8.65485C21.6857 9.50357 23.0094 10.6174 24.0974 11.9429C24.1679 12.0287 24.2383 12.1146 24.3096 12.2014C25.2948 13.4652 26.0551 14.8901 26.5583 16.4162Z" fill="white"/>
<path opacity="0.1" d="M7.00713 27.0789C6.80637 26.8745 6.61704 26.6593 6.43997 26.4341C6.43997 26.4341 3.78611 23.444 5.03892 21.0895L7.80647 20.8212C7.80647 20.8212 7.92188 21.9516 9.05638 23.5133C8.96728 23.5999 8.88318 23.6915 8.80449 23.7876C8.01143 24.7709 7.40231 25.8864 7.00713 27.0789Z" fill="white"/>
<path opacity="0.1" d="M11.4045 28.8491C9.60205 29.3902 7.86638 27.9635 7.00956 27.073C6.8088 26.8686 6.61948 26.6533 6.44241 26.4281C6.44241 26.4281 3.78504 23.4443 5.03785 21.0898L5.58474 21.0382C5.05247 22.7355 5.87147 24.7572 6.95836 26.0081C8.06971 27.2931 9.67399 28.5302 11.5671 28.3186L11.4045 28.8491Z" fill="#080808"/>
<path opacity="0.05" d="M11.4045 28.8491C9.60205 29.3902 7.86638 27.9635 7.00956 27.073C6.8088 26.8686 6.61948 26.6533 6.44241 26.4281C6.44241 26.4281 3.78504 23.4443 5.03785 21.0898L5.58474 21.0382L6.46618 20.952C6.56902 22.4684 7.13796 23.9066 8.09605 25.072C9.05414 26.2374 10.3551 27.0738 11.8231 27.4681L11.6792 27.9477L11.4045 28.8491Z" fill="white"/>
<path opacity="0.1" d="M6.81561 19.9865C6.3328 20.0892 5.84011 20.13 5.34961 20.1079L18.9816 8.92263L16.7574 11.5232L6.81561 19.9865Z" fill="#080808"/>
<path opacity="0.05" d="M5.34961 20.1079L10.1053 16.2057L11.6671 16.6919L9.56164 18.5884C8.98887 19.1036 8.32182 19.5032 7.59893 19.7639C6.87604 20.0247 6.11159 20.1416 5.34961 20.1079Z" fill="white"/>
<path opacity="0.1" d="M12.8321 27.3196C12.6379 27.7737 12.502 28.2492 12.4277 28.7347L26.0596 17.5495L23.0747 19.223L12.8321 27.3196Z" fill="#080808"/>
<path opacity="0.05" d="M12.4291 28.7347L17.1848 24.8326L17.0122 23.2049L14.741 24.8995C14.1234 25.3604 13.6012 25.9367 13.2043 26.595C12.8075 27.2533 12.544 27.9806 12.4291 28.7347Z" fill="white"/>
<path d="M26.5165 18.1696C26.7941 18.4911 27.1545 19.1366 26.3607 19.7845L25.4617 18.0381C25.5095 18.002 25.5617 17.9722 25.6171 17.9495C25.7733 17.8867 25.9443 17.8742 26.1058 17.9138C26.2673 17.9533 26.411 18.0428 26.5165 18.1696Z" fill="#D19C00"/>
<path d="M26.3608 19.7868L25.4617 18.0404L25.3275 18.1505L26.1839 19.8661L26.3608 19.7868Z" fill="#4A5260"/>
<path d="M18.46 8.35302C18.1989 8.01801 17.6353 7.5375 16.8457 8.19046L18.383 9.41324C18.4277 9.37341 18.4672 9.32799 18.5002 9.27815C18.5923 9.13722 18.6379 8.97193 18.6307 8.80582C18.6235 8.63972 18.5637 8.48126 18.46 8.35302Z" fill="#D19C00"/>
<path d="M16.8458 8.19074L18.383 9.41351L18.2488 9.52367L16.7335 8.34876L16.8458 8.19074Z" fill="#4A5260"/>
<path opacity="0.1" d="M20.776 8.44626C20.776 8.44626 24.5101 5.06808 25.2585 5.06406C26.0069 5.06004 26.7519 5.58264 26.7519 5.58264C26.7519 5.58264 25.5675 5.11637 24.2911 6.16371C23.0146 7.21105 21.303 8.87574 21.303 8.87574L20.776 8.44626Z" fill="white"/>
<path opacity="0.1" d="M26.849 15.8491C26.849 15.8491 30.8913 12.8466 31.0414 12.1134C31.1915 11.3802 30.8253 10.5485 30.8253 10.5485C30.8253 10.5485 31.0513 11.8011 29.7748 12.8485C28.4984 13.8958 26.5307 15.2485 26.5307 15.2485L26.849 15.8491Z" fill="white"/>
</g>
<defs>
<clipPath id="clip0_421_188">
<rect width="33" height="15" fill="white" transform="translate(0.457031 21.6387) rotate(-39.3694)"/>
</clipPath>
</defs>
</svg>
